<svg width="24" height="24" viewBox="0 0 24 24" fill="none" xmlns="http://www.w3.org/2000/svg">
<path fill-rule="evenodd" clip-rule="evenodd" d="M14.3942 5.2683C14.3399 5.3373 14.2955 5.45697 14.2955 5.53416C14.2955 5.73602 14.4493 6.30994 14.6983 7.03686C14.931 7.71663 14.9488 7.81697 14.8506 7.89845C14.7589 7.97459 14.149 8.04945 9.8516 8.04945C1.907 8.09336 1.56313 8.09883 1.44897 8.18331C1.2485 8.33165 1.26173 8.57546 1.4863 8.87261C1.93732 9.46934 2.34227 10.0813 2.94212 11.073C3.03766 11.2309 3.14121 11.481 3.1722 11.6289C3.22757 11.893 3.22557 11.9036 3.05142 12.256C2.83681 12.6904 2.3904 13.3721 1.74271 14.2545C1.21118 14.9786 1.18966 15.052 1.44169 15.2818L1.56775 15.3968L10.1963 15.3649C14.942 15.3474 13.0578 15.3195 13.6405 15.3029C14.658 15.274 14.7048 15.2766 14.8179 15.3693L14.9356 15.4658L14.6807 16.5068C14.5405 17.0794 14.4153 17.6996 14.4025 17.8851C14.3802 18.2089 14.3844 18.2265 14.5104 18.3256C14.7324 18.5002 14.8952 18.4618 15.2953 18.1401C15.4916 17.9823 15.8951 17.6665 16.1917 17.4385C17.1477 16.7039 17.2324 16.6373 17.8754 16.1132C18.5484 15.5646 20.7361 13.7406 21.7075 12.9181C23.1 11.7391 23.0758 11.4757 21.4603 10.2304C20.8645 9.77115 18.6323 8.09017 17.9768 7.60716C17.7369 7.43039 17.2531 7.04467 16.9018 6.75C16.5506 6.45537 15.9475 5.97322 15.5616 5.67855C14.9479 5.20987 14.8371 5.14282 14.6765 5.14282C14.5348 5.14282 14.4703 5.17149 14.3942 5.2683Z" fill="#121212"/>
</svg>
