<svg width="24" height="24" viewBox="0 0 24 24" fill="none" xmlns="http://www.w3.org/2000/svg">
<path fill-rule="evenodd" clip-rule="evenodd" d="M9.60566 5.2683C9.65993 5.3373 9.70435 5.45697 9.70435 5.53416C9.70435 5.73602 9.55053 6.30994 9.30159 7.03686C9.06884 7.71663 9.05109 7.81697 9.14925 7.89845C9.24099 7.97459 9.85084 8.04945 14.1483 8.04945C22.0929 8.09336 22.4367 8.09883 22.5509 8.18331C22.7514 8.33165 22.7381 8.57546 22.5136 8.87261C22.0625 9.46934 21.6576 10.0813 21.0577 11.073C20.9622 11.2309 20.8587 11.481 20.8277 11.6289C20.7723 11.893 20.7743 11.9036 20.9484 12.256C21.1631 12.6904 21.6095 13.3721 22.2572 14.2545C22.7887 14.9786 22.8102 15.052 22.5582 15.2818L22.4321 15.3968L13.8036 15.3649C9.05789 15.3474 10.9421 15.3195 10.3593 15.3029C9.34187 15.274 9.29502 15.2766 9.18196 15.3693L9.06427 15.4658L9.31916 16.5068C9.45936 17.0794 9.58452 17.6996 9.59733 17.8851C9.61971 18.2089 9.61542 18.2265 9.48945 18.3256C9.26746 18.5002 9.10469 18.4618 8.7046 18.1401C8.50822 17.9823 8.1048 17.6665 7.80812 17.4385C6.85212 16.7039 6.76749 16.6373 6.12446 16.1132C5.45149 15.5646 3.26381 13.7406 2.29239 12.9181C0.899837 11.7391 0.924023 11.4757 2.53956 10.2304C3.13532 9.77115 5.36751 8.09017 6.02306 7.60716C6.263 7.43039 6.74672 7.04467 7.09801 6.75C7.44931 6.45537 8.05239 5.97322 8.43824 5.67855C9.05194 5.20987 9.16277 5.14282 9.3234 5.14282C9.46508 5.14282 9.52954 5.17149 9.60566 5.2683Z" fill="#121212"/>
</svg>
