<svg width="636" height="400" viewBox="0 0 636 400" fill="none" xmlns="http://www.w3.org/2000/svg">
<g opacity="0.2">
<path d="M325.195 132.019C312.968 128.18 300.326 124.212 288.173 125.95L287.689 126.019L287.943 125.604C307.52 93.44 333.251 66.9262 358.142 43.0716C359.765 39.9561 357.516 35.4857 356.787 34.1814C355.451 31.7987 348.727 23.7565 342.394 24.9318C339.09 25.5447 331.785 27.5034 323.324 29.7709C314.738 32.0706 305.004 34.6838 297.317 36.4489C294.017 37.2093 290.611 37.8084 287.311 38.3891C282.882 39.168 278.301 39.9745 273.914 41.1774C272.453 42.348 274.315 46.3023 274.923 47.4913C281.735 59.3126 290.155 61.3312 303.981 54.4597C306.543 53.4872 309.184 52.3074 311.742 51.1691C316.346 49.1182 321.107 46.9936 325.78 45.8598C326.273 45.74 326.66 45.8184 326.84 46.0718C326.932 46.2009 327.038 46.482 326.743 46.9291C317.655 60.8104 273.218 119.295 265.369 127.176C260.899 131.665 259.576 138.596 262.157 144.03C264.171 148.265 269.112 150.247 273.651 148.643C281.454 145.882 289.63 144.486 297.98 144.486C298.547 144.486 299.114 144.491 299.681 144.504C308.585 144.707 321.623 148.104 329.324 154.206C336.574 159.948 350.635 156.846 357.857 152.938C362.548 150.657 372.217 143.311 370.885 136.14C355.824 141.633 340.256 136.748 325.199 132.024L325.195 132.019Z" fill="#85CF1F"/>
<path d="M372.991 78.388C369.835 75.4338 365.429 74.4522 359.898 75.4661C359.953 75.1112 359.843 74.6181 359.308 73.959C357.833 72.1248 353.589 69.802 351.529 70.6039C350.593 70.968 343.164 75.1757 340.929 77.5446L340.569 77.9225C331.734 87.1537 326.937 96.3988 326.305 105.404C325.674 114.479 331.702 124.009 337.73 127.213C340.164 128.508 342.823 129.033 345.478 129.033C350.266 129.033 355.045 127.319 358.451 125.286C366.742 120.35 376.176 108.34 377.619 96.7859C378.619 88.7806 376.932 82.0703 372.991 78.3834V78.388ZM366.636 94.1497C365.221 101.441 360.009 109.64 353.958 114.092C349.353 117.479 346.003 118.428 343.994 116.917C340.837 114.543 341.579 105.999 344.118 99.1133C344.984 96.7675 347.349 92.7856 349.87 89.4258C352.99 85.2688 355.806 82.7294 357.797 82.2685C358.479 82.1118 359.156 82.0335 359.815 82.0335C361.331 82.0335 362.765 82.4436 363.981 83.2409C365.599 84.3056 366.696 86.0062 367.069 88.034C367.272 89.1447 366.862 92.9883 366.636 94.1497Z" fill="#85CF1F"/>
<path d="M566.045 68.4655C570.087 72.4289 576 74.701 582.282 74.701C588.563 74.701 594.476 72.4289 598.513 68.4655C599.2 67.7926 599.583 66.8939 599.592 65.9307C599.601 64.9675 599.237 64.0642 598.564 63.3775C597.177 61.9626 594.891 61.9395 593.476 63.3268C590.771 65.9814 586.688 67.5022 582.282 67.5022C577.876 67.5022 573.792 65.9814 571.087 63.3268C569.672 61.9395 567.386 61.958 565.999 63.3775C565.326 64.0642 564.962 64.9721 564.971 65.9307C564.981 66.8893 565.363 67.7926 566.05 68.4655H566.045Z" fill="#FF8121"/>
<path d="M569.414 53.4827C572.069 53.4781 573.852 50.9064 573.852 47.095C573.852 43.2837 572.069 40.7074 569.41 40.7074C566.75 40.7074 564.967 43.2744 564.967 47.095C564.967 50.9157 566.75 53.4781 569.41 53.4827H569.414Z" fill="#FF8121"/>
<path d="M599.592 47.095C599.592 43.2744 597.808 40.7074 595.149 40.7074C592.49 40.7074 590.706 43.2744 590.706 47.095C590.706 50.9157 592.49 53.4781 595.154 53.4827C597.808 53.4781 599.592 50.9064 599.592 47.095Z" fill="#FF8121"/>
<path d="M612.681 30.3931C604.537 21.6596 593.453 16.9725 581.475 17.1799C572.037 17.3459 562.861 20.7793 555.63 26.8444C546.449 34.5455 541.163 45.3575 540.744 57.2894C540.578 62.0364 547.767 62.2899 547.933 57.5383C548.265 48.0306 552.376 39.3109 559.515 32.9878C565.713 27.4988 573.677 24.434 581.941 24.3649C592.158 24.2819 601.818 28.6832 608.45 36.4489C613.819 42.7305 616.732 50.7543 616.653 59.0315C616.566 68.5623 612.681 77.3879 605.726 83.877C599.011 90.1402 590.259 93.4124 581.083 93.0898C578.374 92.993 575.682 92.5828 573.078 91.8639C572.179 91.615 571.23 91.7901 570.479 92.3385C569.714 92.9008 569.258 93.7719 569.225 94.7259V94.7765C569.142 97.0532 571.617 98.9198 573.364 99.3392C576.148 100.012 578.065 100.183 580.835 100.279C592.766 100.694 603.92 96.1776 612.243 87.5547C618.796 80.7661 622.861 71.8483 623.686 62.4466C624.732 50.5054 620.824 39.1219 612.685 30.3931H612.681Z" fill="#FF8121"/>
<path d="M537.665 131.319C547.601 128.89 556.132 122.129 560.916 113.575C563.543 109.322 565.529 105.358 560.916 104.39C560.565 104.353 560.252 104.39 559.925 104.524C558.671 105.022 554.385 111.054 553.035 112.538C549.445 116.483 540.448 121.359 534.904 121.295C528.839 121.226 527.162 115.373 527.682 110.322C527.733 109.81 528.088 109.381 528.581 109.234C530.558 108.639 532.609 108.308 534.554 107.593C543.559 104.28 552.426 95.2558 556.325 86.5684C562.69 72.3829 547.315 63.5388 535.448 70.544C524.475 77.0192 514.778 97.0532 514.866 109.589C514.875 110.783 515.22 114.078 515.22 114.078C515.22 114.078 511.686 117.626 510.658 118.235C504.473 121.908 506.081 111.663 506.57 108.598C507.547 102.445 509.593 95.5139 511.709 89.6517C512.257 88.1308 513.999 85.0568 513.782 83.6004C513.239 79.9688 504.358 76.0698 501.869 79.8167C501.823 79.8812 501.786 79.955 501.758 80.0287C497.422 90.071 493.61 100.376 488.416 110.022C486.49 113.598 483.775 118.567 480.609 121.106C477.24 123.807 476.222 120.876 476.36 117.723C476.682 110.469 480.821 98.6202 483.296 91.5643C485.614 84.9508 490.555 77.9824 483.554 72.2492C479.609 69.0185 469.488 70.9588 464.893 71.4519C464.838 70.6961 472.963 49.0767 476.918 40.0713C477.558 38.6104 479.498 35.6009 479.558 34.2137C479.715 30.559 474.286 27.0103 471.406 25.5447C469.663 24.6598 466.032 22.9915 464.552 24.9364C463.797 25.9364 462.912 29.9921 462.437 31.4853C457.87 45.7953 453.551 59.9532 448.569 74.1204L418.949 80.3882L416.935 80.7523C420.341 69.06 424.6 55.4229 428.568 43.915C430.001 39.7625 432.384 36.9604 429.006 32.914C426.494 29.9045 421.3 27.4066 417.401 27.19C416.272 27.1255 413.161 26.8628 412.967 28.3145C412.778 29.7478 413.239 31.8863 413.156 33.5316C412.824 40.3064 409.437 50.109 407.515 56.8285C405.414 64.1886 403.28 71.8944 400.892 79.1392C400.602 80.0149 400.077 82.1625 399.349 82.6234C397.961 83.4991 392.403 83.8585 390.412 84.2549C385.343 85.2688 382.158 86.3979 384.698 92.2924C386.606 96.7168 389.615 100.57 394.952 100.146C393.224 106.99 391.048 113.737 389.32 120.59C387.186 129.047 382.78 140.536 394.744 143.412C396.593 143.855 400.593 144.606 401.316 142.288C401.814 140.684 401.833 137.859 402.141 136.011C402.953 131.176 404.284 126.088 405.469 121.318C407.506 113.101 409.815 104.916 412.497 96.8965L444.099 87.1491C441.025 98.9151 436.619 110.414 433.679 122.217C430.632 134.462 427.199 149.334 442.965 150.228C444.27 150.302 445.518 149.634 445.827 147.906C446.145 146.131 446.053 144.693 446.168 142.679C446.39 138.863 447.528 134.232 448.307 130.439C451.736 113.727 456.828 97.3712 462.764 81.4344C464.543 80.9965 466.294 80.3375 468.115 80.0702C468.327 80.0379 468.659 80.0057 469.009 79.9273C475.069 78.623 474.507 80.7062 474.203 81.5818C471.673 88.8774 468.673 96.067 466.437 103.482C464.465 110.036 462.4 118.156 464.142 124.931C466.451 133.891 475.682 137.605 483.029 131.337C487.024 127.927 489.905 123.544 492.513 119.037C493.122 117.986 494.716 118.318 494.845 119.525C495.159 122.498 495.698 125.489 497.362 127.931C499.311 130.793 503.155 132.218 506.524 131.439C509.87 130.664 517.76 121.908 517.76 121.908C517.76 121.908 519.382 124.788 519.566 125.014C523.857 130.333 530.936 132.973 537.656 131.333L537.665 131.319ZM530.106 97.4311C530.475 96.1084 531.107 94.8272 531.669 93.6105C533.664 89.3014 539.49 80.0103 543.711 77.9271C545.301 77.1437 546.228 77.5999 546.407 79.448C546.698 82.3791 543.914 87.5639 542.237 89.965C539.564 93.7903 535.964 96.6661 531.918 98.8783C530.936 99.4129 529.807 98.505 530.106 97.4265V97.4311Z" fill="#85CF1F"/>
</g>
<path fill-rule="evenodd" clip-rule="evenodd" d="M148.345 33.8829C151.885 33.3511 159.257 33.9949 164.39 35.2844C169.887 36.6656 179.176 42.0709 182.296 45.7048C183.219 46.7809 183.445 46.8341 185.291 46.4087C187.854 45.8188 195.053 46.171 197.383 47.0006C201.385 48.4246 201.81 51.4276 198.581 55.4754C193.741 61.5441 191.998 64.0556 190.261 67.4661L188.38 71.1611L189.102 76.6646C190.563 87.8083 189.858 101.195 187.475 107.565C186.943 108.988 186.579 110.205 186.667 110.27C187.279 110.719 196.933 112.373 197.203 112.075C198.382 110.775 204.597 100.136 207.116 95.1101C211.275 86.8081 211.664 85.0419 211.678 74.371C211.687 67.441 211.465 64.1724 210.615 58.7014C208.821 47.1586 209.613 42.9594 214.348 38.907C217.442 36.259 220.907 34.7811 224.499 34.5778C227.178 34.4266 227.987 34.5801 230.187 35.6562C235.067 38.0435 237.444 43.0315 238.427 52.9406L238.724 55.9362H246.88C257.797 55.9362 260.79 56.9198 263.016 61.2398C264.054 63.2533 264.212 66.1274 263.395 68.1493C263.205 68.6198 263.588 69.0614 264.595 69.5319C267.571 70.9223 268.999 75.9882 267.512 79.8816L266.725 81.943L268.418 83.6361C270.084 85.3012 270.108 85.3799 269.936 88.4271C269.73 92.0799 268.693 93.7299 264.554 96.9883C260.851 99.9033 257.739 101.007 253.014 101.079L249.147 101.139L247.896 102.964C245.747 106.097 241.304 115.207 241.729 115.609C242.701 116.529 252.516 118.941 256.243 119.176C264.349 119.687 267.089 118.381 281.536 107.118C288.499 101.69 294.839 98.0409 299.971 96.5081C303.574 95.4324 311.515 94.5243 315.362 94.7487C329.729 95.5861 341.626 104.857 342.275 115.719C342.668 122.288 341.862 124.092 330.965 141.018C326.659 147.707 322.449 154.424 321.611 155.945C320.772 157.466 319.708 159.261 319.246 159.933C318.082 161.628 318.181 162.059 319.904 162.793C320.728 163.143 321.919 163.992 322.552 164.677C323.544 165.753 323.703 166.357 323.704 169.076C323.706 171.885 323.544 172.457 322.218 174.34L320.73 176.453L322.679 178.223C323.751 179.197 326.388 181.53 328.539 183.408C338.516 192.119 352.345 206.916 359.728 216.78C375.503 237.855 385.276 261.524 386.845 282.458L387.14 286.38L391.14 282.44C396.481 277.18 399.534 275 405.749 272.012C410.97 269.501 418.593 267.222 424.013 266.551C426.335 266.264 426.728 266.341 427.653 267.266C428.657 268.27 428.681 268.5 428.41 274.572C427.617 292.326 422.018 307.486 412.544 317.529C405.94 324.529 397.559 329.326 386.523 332.424L383.896 333.162L384.174 343.452C384.362 350.443 384.288 354.208 383.944 355.198C383.08 357.676 384.08 356.799 385.201 354.096C386.663 350.568 390.188 345.328 392.84 342.74C395.408 340.235 399.395 338.169 403.696 337.116C406.931 336.324 414.263 336.165 418.145 336.802C422.097 337.451 422.366 339.108 419.581 345.635C415.468 355.27 408.199 361.736 398.597 364.299C396.589 364.835 393.741 365.112 389.956 365.14L384.311 365.18L384.311 366.417C384.31 369.34 382.519 371.074 381.188 369.443C380.929 369.126 380.645 365.635 380.555 361.686L380.393 354.506L374.862 343.519L372.327 343.157C370.933 342.959 368.179 342.481 366.205 342.094L362.617 341.393L360.751 342.871C353.588 348.544 341.312 355.318 331.771 358.863C305.738 368.535 274.6 369.876 245.819 362.565C239.266 360.9 236.309 360.239 235.68 360.298C232.73 360.576 231.726 360.954 232.049 361.662C232.238 362.076 232.477 363.497 232.58 364.819C232.731 366.747 232.569 367.504 231.765 368.632C230.693 370.139 227.769 371.862 226.287 371.862C225.653 371.862 225.291 372.285 225.072 373.279C224.901 374.058 224.141 375.402 223.384 376.264C222.284 377.517 221.544 377.894 219.7 378.138C218.063 378.356 217.07 378.792 216.282 379.642C215.671 380.301 215.171 380.974 215.171 381.14C215.171 381.304 214.24 381.877 213.102 382.412C210.413 383.676 206.776 383.679 203.413 382.42L200.838 381.457L196.598 383.595C191.961 385.933 189.194 386.697 182.241 387.561C176.437 388.281 164.229 387.845 157.562 386.677L152.723 385.83L149.958 386.86C137.499 391.505 123.454 395.085 112.895 396.308C106.069 397.099 94.2016 396.657 90.2303 395.464C84.3507 393.697 79.8148 391.055 76.2597 387.327C73.9144 384.867 71.07 380.038 69.9394 376.597C69.2325 374.445 68.6001 373.262 68.1536 373.256C67.773 373.25 66.3713 373.66 65.0377 374.167C61.6767 375.445 60.405 375.376 59.8386 373.886C58.9297 371.496 57.9417 362.709 57.6854 354.741C57.0476 334.889 61.2213 319.626 69.9201 309.997C70.7936 309.03 71.4277 308.185 71.3292 308.119C71.2306 308.053 69.5645 307.211 67.6279 306.249C65.6909 305.287 63.5802 303.947 62.9368 303.27C61.7105 301.981 59.3973 297.706 59.397 296.728C59.397 296.304 58.4836 296.22 55.8253 296.398C48.6177 296.883 35.1472 295.398 29.6795 293.517C28.2213 293.016 26.868 292.704 26.6722 292.825C26.4763 292.946 26.2208 293.721 26.1037 294.547C25.9867 295.373 24.5231 302.893 22.8515 311.258C21.18 319.623 19.2881 329.37 18.647 332.919C18.0059 336.467 16.3293 345.774 14.9209 353.6C13.5121 361.425 12.1519 368.217 11.8973 368.693C11.3387 369.737 10.4035 369.807 9.61998 368.863C8.9329 368.035 9.03985 367.027 10.9625 356.193C14.4131 336.746 15.9381 328.593 19.3545 311.318C21.3533 301.211 22.984 292.501 22.978 291.961C22.97 291.229 22.1337 290.512 19.6857 289.136C15.4905 286.779 10.6819 282.329 8.07895 278.394C1.77889 268.87 -1.19294 253.449 0.443095 238.774C0.81361 235.454 0.805139 233.887 0.40979 232.686C-0.0529231 231.277 0.0865943 230.26 1.4904 224.845C3.48918 217.135 4.99435 212.893 7.61853 207.58C14.0546 194.547 24.5996 183.525 36.2383 177.664C39.6133 175.964 40.4177 175.071 38.5733 175.071C37.1584 175.071 33.518 171.146 32.0451 168.032C29.5278 162.712 29.227 155.975 31.2889 151.106C33.6735 145.474 36.1097 142.881 44.8094 136.716C45.6118 136.148 45.6273 135.806 45.0862 130.738C43.9165 119.792 46.6068 108.622 52.5097 99.9155C59.0462 90.2752 70.2143 84.7406 83.1318 84.7406C91.7551 84.7406 98.1283 86.6691 105.319 91.4533C112.696 96.3621 117.275 103.26 119.788 113.246C120.18 114.805 120.465 115.195 121.068 115.003C124.767 113.827 130.625 112.411 132.817 112.163C134.289 111.995 135.428 111.72 135.349 111.55C133.911 108.481 132.044 105.428 131.411 105.111C130.966 104.889 129.357 104.443 127.836 104.118C122.612 103.004 119.52 100.734 117.422 96.4716C116.089 93.7631 115.981 93.2168 116.179 90.1603C116.301 88.2795 116.749 86.1346 117.202 85.2618C117.983 83.7572 117.975 83.608 116.943 80.4226C116.073 77.7382 115.882 76.166 115.903 71.8362C115.932 65.5349 116.437 62.7019 118.52 57.1573C120.479 51.9425 122.498 48.5745 125.9 44.8484C131.366 38.8603 138.54 35.3554 148.345 33.8829ZM378.796 322.434C378.758 321.606 377.77 322.208 376.905 323.586C376.141 324.803 376.029 325.474 376.305 327.158C376.492 328.299 376.69 331.721 376.744 334.762C376.841 340.263 376.852 340.315 378.848 344.441L380.854 348.588L380.989 346.745C381.187 344.041 380.285 332.215 379.496 327.158C379.12 324.75 378.806 322.624 378.796 322.434Z" fill="#121212"/>
<path fill-rule="evenodd" clip-rule="evenodd" d="M221.168 38.7257C219.491 39.3856 217.755 40.6042 216.022 42.337C212.856 45.5032 212.425 47.2693 213.268 53.6316C214.957 66.399 215.231 70.0473 215.044 77.3664C214.873 84.0725 214.701 85.4334 213.588 88.8881C212.134 93.4055 208.285 100.927 203.912 107.802C202.24 110.432 200.938 112.784 201.019 113.028C201.162 113.457 207.69 116.12 211.023 117.11C212.473 117.541 212.87 117.441 214.941 116.127C219.5 113.234 225.384 112.325 231.993 113.494C234.274 113.898 236.593 114.354 237.145 114.508C238.052 114.76 238.441 114.182 241.129 108.593C242.767 105.185 244.776 101.636 245.593 100.705L247.079 99.0134L246.103 96.7459C244.842 93.8143 244.874 92.8143 246.314 90.1089C246.966 88.8835 247.433 87.8322 247.351 87.7728C247.269 87.7133 246.543 87.4023 245.737 87.082C244.046 86.4095 242.052 83.7665 241.626 81.6308C241.442 80.7146 241.606 79.4693 242.057 78.3406L242.784 76.5239L241.151 75.2786C237.981 72.8609 237.023 69.8685 238.379 66.6235C239.03 65.0653 243.213 61.0018 245.012 60.1792C247.051 59.2477 245.973 58.956 240.865 59.0583L235.68 59.162L235.545 57.0881C234.522 41.3789 229.787 35.3314 221.168 38.7257Z" fill="#FED6B5"/>
<path fill-rule="evenodd" clip-rule="evenodd" d="M252.057 60.5912C250.671 60.9636 248.259 61.983 246.696 62.8568C240.39 66.3839 239.137 70.5128 243.546 73.2375C248.295 76.1732 259.555 71.1691 260.588 65.664C260.966 63.6486 259.557 61.441 257.287 60.4926C255.451 59.7252 255.265 59.7289 252.057 60.5912Z" fill="#FED6B5"/>
<path fill-rule="evenodd" clip-rule="evenodd" d="M168.854 61.9572C158.154 63.2421 143.655 65.9506 142.469 66.8857C142.143 67.1434 141.892 68.3642 141.891 69.703C141.887 75.628 139.699 83.9121 137.963 84.5785C137.527 84.7458 136.696 84.4541 135.981 83.8831C135.304 83.342 133.727 82.3576 132.477 81.6958C126.301 78.425 119.311 83.1931 119.311 90.6767C119.311 96.9759 123.607 100.578 132.287 101.555C134.634 101.819 134.923 101.971 135.186 103.087C135.347 103.77 136.526 106.456 137.806 109.056C142.883 119.37 151.195 124.15 162.538 123.278C174.058 122.392 182.111 115.351 185.265 103.405C187.284 95.7587 186.954 80.5662 184.515 68.8744C182.811 60.7092 183.242 61.2258 178.198 61.2921C175.847 61.323 171.642 61.6221 168.854 61.9572Z" fill="#FED6B5"/>
<path fill-rule="evenodd" clip-rule="evenodd" d="M258.723 73.3581C256.162 74.8168 252.354 76.2727 248.814 77.1456C244.272 78.2659 243.445 80.1947 246.212 83.2148C247.592 84.7209 248.051 84.9232 250.475 85.097C255.401 85.4504 262.696 82.1958 264.232 78.96C265.211 76.8962 264.777 74.4375 263.217 73.2102C261.732 72.0424 260.989 72.0668 258.723 73.3581Z" fill="#FED6B5"/>
<path fill-rule="evenodd" clip-rule="evenodd" d="M172.569 75.1557C171.358 78.0536 172.98 81.5516 174.961 80.3146C177.069 78.9979 176.541 74.0869 174.256 73.7615C173.445 73.6459 173.07 73.956 172.569 75.1557Z" fill="#121212"/>
<path fill-rule="evenodd" clip-rule="evenodd" d="M155.302 75.5916C154.165 78.8536 154.932 81.9751 156.87 81.9751C158.282 81.9751 158.944 80.7676 158.944 78.1904C158.944 74.5168 156.328 72.6499 155.302 75.5916Z" fill="#121212"/>
<path fill-rule="evenodd" clip-rule="evenodd" d="M166.433 77.6714C165.487 78.0535 165.746 79.1633 168.185 85.1689C169.464 88.3194 170.449 91.4302 170.373 92.0819C170.25 93.1396 169.989 93.2917 167.931 93.5051C165.178 93.7904 164.475 94.1719 164.475 95.3817C164.475 96.7132 165.607 96.9427 169.446 96.3897C173.983 95.7357 174.507 95.1978 173.816 91.9045C173.291 89.401 169.342 79.0453 168.492 77.9424C168.034 77.3479 167.432 77.2686 166.433 77.6714Z" fill="#121212"/>
<path fill-rule="evenodd" clip-rule="evenodd" d="M262.41 85.0057C261.903 85.3892 259.725 86.2316 257.571 86.8773C251.74 88.6249 251.236 88.8627 249.734 90.5739C247.338 93.3032 248.105 96.574 251.398 97.6607C253.516 98.3599 256.082 97.9465 259.107 96.4191C265.639 93.1207 268.522 88.2756 265.657 85.4108C264.357 84.1107 263.702 84.0291 262.41 85.0057Z" fill="#FED6B5"/>
<path fill-rule="evenodd" clip-rule="evenodd" d="M308.464 98.1625C299.428 98.9635 293.029 102.225 279.231 113.061C265.224 124.061 259.899 124.779 239.453 118.425C232.858 116.375 228.001 115.768 223.475 116.428C219.428 117.018 217.836 117.69 215.38 119.846C212.041 122.778 210.685 127.683 212.152 131.523C213.105 134.02 214.443 135.09 220.222 137.974C228.305 142.011 236.32 148.013 245.745 157.091L250.449 161.622L260.232 161.779C265.612 161.865 270.014 161.832 270.015 161.705C270.016 161.579 269.274 159.558 268.367 157.215C266.447 152.256 266.453 151.336 268.404 151.336C269.729 151.336 269.834 151.499 271.434 156.039C272.346 158.625 273.361 161.066 273.691 161.464C274.203 162.081 275.514 162.168 282.617 162.061L290.942 161.936L292.63 153.487C294.319 145.035 295.007 143.32 296.478 143.884C297.515 144.283 297.395 146.134 295.815 154.101C295.06 157.903 294.442 161.274 294.442 161.59C294.44 162.033 296.726 162.166 304.338 162.166C314.11 162.166 314.244 162.153 314.86 161.129C315.204 160.559 316.482 158.33 317.701 156.175C320.408 151.391 325.081 143.914 331.063 134.794C333.539 131.02 336.318 126.353 337.239 124.425C338.758 121.244 338.914 120.555 338.914 117.001C338.914 113.416 338.786 112.863 337.408 110.479C336.58 109.047 334.606 106.662 333.02 105.179C326.982 99.5309 318.943 97.2339 308.464 98.1625Z" fill="#FFD630"/>
<path fill-rule="evenodd" clip-rule="evenodd" d="M154.942 101.616C154.414 102.993 155.475 104.741 157.657 106.09C161.969 108.756 169.027 108.115 172.789 104.716C174.632 103.052 175.203 101.332 173.913 101.332C173.528 101.332 172.439 101.815 171.494 102.407C169.027 103.949 166.975 104.559 164.291 104.547C161.699 104.536 158.731 103.382 157.375 101.857C156.331 100.684 155.338 100.585 154.942 101.616Z" fill="#121212"/>
<path fill-rule="evenodd" clip-rule="evenodd" d="M98.9745 106.966C95.5871 111.986 86.1397 120.987 80.0991 124.948C73.3709 129.36 69.6862 131.297 67.9234 131.347C67.1629 131.369 64.9941 131.125 63.1036 130.806C56.8828 129.756 53.0585 131.783 51.9552 136.713C50.5256 143.102 54.3489 148.801 60.0656 148.801C62.3505 148.801 64.006 149.94 64.006 151.511C64.006 151.988 64.7355 154.393 65.6273 156.857C66.733 159.911 67.392 162.749 67.6999 165.783C68.3506 172.196 68.4552 172.495 70.8434 174.812C75.0443 178.887 78.9183 180.818 83.9179 181.328C89.4257 181.889 93.0362 179.973 95.9738 174.93C97.655 172.043 97.9638 171.771 101.504 170.05C111.916 164.99 118.372 152.435 118.384 137.227C118.39 129.598 117.939 127.775 114.884 123.089C111.919 118.54 101.897 104.674 101.314 104.313C101.1 104.181 100.048 105.375 98.9745 106.966Z" fill="#FED6B5"/>
<path fill-rule="evenodd" clip-rule="evenodd" d="M182.949 116.312C177.92 122.974 169.677 126.72 160.045 126.721C150.725 126.722 143.514 123.297 138.317 116.399L137.342 115.106L133.679 115.607C127.765 116.417 120.686 118.629 120.697 119.663C120.699 119.846 121.01 122.478 121.388 125.51C123.03 138.67 121.655 149.672 117.239 158.71C115.14 163.005 111.396 167.669 108.172 170.005L106.443 171.257L109.536 172.074C113.282 173.063 118.162 175.25 121.7 177.524C129.031 182.236 132.946 186.794 142.158 201.34C142.72 202.227 144.301 204.836 145.673 207.137L148.167 211.321L153.539 208.059C156.494 206.265 158.93 204.621 158.954 204.406C158.977 204.192 157.481 203.151 155.63 202.094C145.071 196.066 138.991 189.192 135.603 179.449C134.437 176.097 134.32 175.176 134.32 169.31C134.32 163.436 134.436 162.528 135.606 159.175C136.313 157.15 137.604 154.32 138.474 152.888C141.609 147.728 148.552 142.548 154.837 140.681C158.298 139.654 167.098 139.673 171.159 140.717C175.279 141.777 179.459 143.848 181.574 145.878L183.233 147.47L184.8 146.556C190.883 143.009 200.784 144.964 206.306 150.803C212.968 157.847 213.669 167.143 208.484 179.679C207.803 181.327 207.042 182.922 206.795 183.225C206.483 183.606 206.657 184.032 207.36 184.608C209.156 186.08 211.886 190.722 212.205 192.844C212.608 195.536 211.423 200.694 209.624 204.068C206.188 210.516 196.869 221.388 187.562 229.808C182.188 234.671 172.74 241.866 167.011 245.459L163.324 247.771L163.45 249.788C163.52 250.898 163.798 253.205 164.068 254.916C164.445 257.303 164.737 258.029 165.324 258.037C166.385 258.05 187.067 256.142 188.253 255.921C188.944 255.793 189.586 254.858 190.52 252.622C194.875 242.193 204.667 225.306 212.371 214.936L213.74 213.092L214.275 199.497C214.576 191.837 215.014 185.649 215.277 185.325C215.944 184.505 217.04 184.608 219.576 185.73C222.697 187.11 228.631 186.789 232.469 185.032C235.212 183.776 239.835 180.241 243.005 176.975L244.799 175.127L244.042 173.531C243.583 172.564 243.285 170.766 243.285 168.964C243.285 166.434 243.488 165.69 244.649 163.964L246.014 161.936L243.612 159.489C237.066 152.82 226.602 145.026 218.686 140.922C215.663 139.355 212.422 137.295 211.446 136.318C208.267 133.14 207.496 127.839 209.463 122.689C209.888 121.577 210.153 120.609 210.053 120.537C209.514 120.15 202.977 117.826 200.193 117.032C196.641 116.018 186.528 113.775 185.509 113.775C185.155 113.775 184.003 114.917 182.949 116.312Z" fill="white"/>
<path fill-rule="evenodd" clip-rule="evenodd" d="M89.3691 128.031C88.6879 129.305 88.7723 133.38 89.4921 133.978C91.0342 135.257 93.0399 133.187 93.0399 130.314C93.0399 128.321 92.2679 127.14 90.966 127.14C90.3305 127.14 89.6401 127.526 89.3691 128.031Z" fill="#121212"/>
<path fill-rule="evenodd" clip-rule="evenodd" d="M106.901 128.712C106.079 129.702 105.781 132.424 106.373 133.529C106.98 134.666 108.345 134.819 109.156 133.841C110.005 132.818 110.312 129.571 109.636 128.758C108.911 127.884 107.607 127.861 106.901 128.712Z" fill="#121212"/>
<path fill-rule="evenodd" clip-rule="evenodd" d="M98.9925 132.027C98.4755 132.65 98.516 132.994 99.2516 134.216C100.642 136.528 102.093 139.621 103.006 142.227C103.787 144.454 103.795 144.697 103.104 145.388C102.692 145.8 101.36 146.323 100.143 146.55C97.6924 147.008 97.0297 147.643 97.698 148.891C98.7511 150.859 106.057 148.74 106.672 146.289C107.199 144.19 106.385 140.963 104.315 136.939C101.437 131.347 100.372 130.364 98.9925 132.027Z" fill="#121212"/>
<path fill-rule="evenodd" clip-rule="evenodd" d="M159.479 143.286C153.286 144.132 148.59 146.624 144.196 151.396C141.008 154.859 139.355 157.899 138.195 162.436C137.114 166.664 137.045 170.056 137.945 174.761C140.276 186.945 149.206 196.439 163.979 202.442C165.607 203.104 167.19 203.645 167.498 203.645C167.812 203.645 168.201 202.685 168.385 201.456C168.643 199.734 169.1 198.9 170.531 197.539C171.662 196.463 172.795 195.81 173.53 195.81C174.477 195.81 174.646 195.649 174.377 195.003C174.192 194.56 173.936 193.212 173.808 192.007C173.617 190.219 173.775 189.525 174.662 188.229C176.087 186.15 178.644 184.749 181.013 184.749C182.817 184.749 182.91 184.681 182.91 183.352C182.91 181.166 184.094 178.867 185.762 177.818C187.059 177.001 187.832 176.885 190.918 177.043C194.202 177.212 194.982 177.454 199.13 179.591L203.713 181.952L204.766 179.549C207.495 173.321 208.027 170.963 208.016 165.162C208.003 158.696 207.371 156.84 203.992 153.35C200.458 149.699 198.145 148.634 193.302 148.426C189.272 148.253 189.027 148.301 186.05 149.857L182.968 151.467L180.678 149.512C174.72 144.426 167.23 142.226 159.479 143.286Z" fill="#EE5F49"/>
<path fill-rule="evenodd" clip-rule="evenodd" d="M86.434 152.796C84.6725 154.557 89.5997 158.833 94.2899 159.614C99.2346 160.437 108.712 154.9 104.871 153.432C104.124 153.146 103.493 153.333 102.38 154.169C100.509 155.575 97.5483 156.636 95.4979 156.636C93.6189 156.636 90.9297 155.337 89.3877 153.685C88.3092 152.53 87.0718 152.157 86.434 152.796Z" fill="#121212"/>
<path fill-rule="evenodd" clip-rule="evenodd" d="M247.546 165.936C246.09 167.521 246.104 170.861 247.575 172.571C248.51 173.657 249.117 173.855 252.529 174.18C254.668 174.384 270.154 174.512 286.942 174.465L317.466 174.379L318.972 172.872C320.296 171.548 320.475 171.078 320.444 169.007C320.418 167.266 320.184 166.485 319.549 166.021C318.865 165.52 315.623 165.392 303.645 165.392C295.37 165.392 279.596 165.261 268.591 165.1L248.583 164.808L247.546 165.936Z" fill="#FFD630"/>
<path fill-rule="evenodd" clip-rule="evenodd" d="M55.9973 174.144C47.5445 176.327 43.2626 177.827 38.1981 180.382C26.5602 186.25 15.5095 198.235 9.52325 211.479C7.50465 215.945 4.09375 227.19 4.09375 229.378C4.09375 230.333 4.25091 230.435 5.31183 230.169C7.72632 229.563 25.2034 229.884 30.2006 230.626C32.8801 231.024 35.1204 231.286 35.1785 231.208C35.2365 231.13 36.061 226.089 37.0109 220.005C39.2484 205.675 39.4466 204.796 40.8149 203.17L41.9671 201.801H80.3787C102.902 201.801 119.256 201.978 119.916 202.229C122.066 203.046 122.614 207.04 121.43 213.251L120.784 216.637L124.311 216.33C127.862 216.021 134.897 216.644 137.579 217.505C138.906 217.93 139.273 217.787 142.052 215.761C143.717 214.547 145.089 213.439 145.1 213.299C145.134 212.864 136.624 198.778 135.05 196.664C134.228 195.56 132.762 193.567 131.792 192.233C124.605 182.354 113.706 175.543 103.811 174.749L100.524 174.485L98.9352 176.967C97.1009 179.832 94.7625 182.013 91.9917 183.443C89.0753 184.948 83.467 185.15 79.3478 183.899C73.9865 182.27 67.32 177.236 65.8613 173.715C65.1078 171.895 64.6253 171.916 55.9973 174.144Z" fill="#B0B0B0"/>
<path fill-rule="evenodd" clip-rule="evenodd" d="M247.053 179.187C243.802 181.892 232.499 194.074 227.363 200.408C218.892 210.854 207.898 226.543 202.047 236.535C194.635 249.191 188.567 264.997 185.878 278.647C184.855 283.841 184.482 296.637 185.2 301.897C185.986 307.649 186.25 308.262 187.945 308.262C189.914 308.262 193.976 309.181 195.54 309.981C196.277 310.357 197.879 311.599 199.099 312.74L201.318 314.816L203.464 312.927C211.432 305.913 223.199 306.285 230.86 313.793C235.893 318.724 237.962 325.302 236.656 332.222C235.998 335.712 232.923 343.078 231.179 345.339C230.531 346.182 230.643 346.35 232.96 348.009C235.834 350.068 237.753 353.023 237.753 355.394C237.753 357.002 237.824 357.07 240.268 357.78C255.757 362.283 272.274 364.395 287.988 363.881C313.021 363.063 334.786 356.577 352.334 344.706C359.186 340.071 359.822 339.559 359.074 339.279C357.525 338.698 352.022 333.943 349.698 331.175C344.314 324.765 341.548 317.3 341.119 308.025C340.915 303.625 340.994 302.383 341.501 301.98C343.315 300.539 356.508 303.887 362.129 307.215C366.151 309.596 370.418 313.612 372.783 317.241C374.708 320.196 374.78 320.252 375.663 319.453C377.232 318.034 377.721 316.457 378.007 311.893C378.435 305.073 379.499 300.753 382.077 295.358L384.39 290.519L384.083 285.91C382.766 266.143 375.23 245.534 361.907 225.263C353.775 212.891 340.246 198.177 321.565 181.392L317.581 177.812L284.465 177.695C266.251 177.631 251.011 177.417 250.599 177.219C250.061 176.961 249.059 177.517 247.053 179.187Z" fill="#FFD630"/>
<path fill-rule="evenodd" clip-rule="evenodd" d="M186.676 181.298C185.469 182.832 185.383 184.812 186.482 185.769C186.926 186.156 189.778 187.782 192.819 189.382C195.861 190.983 198.507 192.514 198.698 192.784C199.224 193.525 198.902 194.968 198.098 195.471C197.57 195.802 196.728 195.498 194.865 194.306C190.257 191.359 183.847 188.324 181.721 188.085C179.005 187.779 177.38 189.123 177.38 191.675C177.38 194.096 178.628 195.208 185.087 198.547C190.954 201.579 192.894 203.106 192.427 204.323C191.865 205.788 190.726 205.495 186.092 202.696C179.221 198.546 173.868 197.545 172.094 200.078C171.238 201.3 171.155 205.457 171.965 206.552C172.622 207.441 174.501 208.573 178.676 210.595C181.019 211.73 181.556 212.19 181.441 212.962C181.06 215.513 177.854 214.869 172.424 211.152C168.913 208.748 164.45 206.41 163.374 206.41C162.379 206.41 143.305 218.225 143.285 218.853C143.281 218.98 144.47 219.706 145.927 220.466C150.715 222.963 153.824 225.327 156.391 228.42C159.214 231.82 161.955 236.725 163.099 240.423C163.515 241.768 163.97 242.909 164.11 242.959C164.687 243.163 171.987 238.161 177.312 233.915C191.874 222.299 204.431 208.095 207.624 199.627C209.031 195.893 209.154 193.379 208.035 191.215C205.585 186.477 196.396 180.651 190.734 180.246C187.825 180.038 187.626 180.09 186.676 181.298Z" fill="#FED6B5"/>
<path fill-rule="evenodd" clip-rule="evenodd" d="M231.071 188.959C229.237 189.643 227.826 189.785 224.158 189.653C221.623 189.561 219.117 189.338 218.589 189.158C217.648 188.836 217.627 188.962 217.522 195.661C217.464 199.418 217.262 203.767 217.075 205.324C216.682 208.593 217.041 208.7 219.026 205.902C220.152 204.316 227.332 195.497 232.216 189.703C233.017 188.753 233.606 188.003 233.524 188.037C233.442 188.07 232.338 188.485 231.071 188.959Z" fill="#121212"/>
<path fill-rule="evenodd" clip-rule="evenodd" d="M43.2743 205.708C42.9567 206.091 42.2097 209.361 41.6142 212.974C41.0192 216.588 40.0086 222.552 39.3693 226.227C38.7296 229.903 37.3761 237.991 36.3612 244.201C35.3464 250.411 34.4025 256.026 34.2638 256.677L34.0117 257.862L50.1555 257.761L66.2993 257.661L68.6585 255.539C70.8444 253.574 71.1997 253.419 73.4953 253.419C75.5826 253.419 76.2103 253.631 77.4782 254.764C78.8686 256.008 78.982 256.322 78.9672 258.9C78.952 261.601 78.9815 261.67 79.889 261.077C83.9718 258.406 86.2292 257.287 88.4215 256.851L90.966 256.344L91.2757 251.712C91.6891 245.533 92.6892 241.678 95.3313 236.083C98.8975 228.531 104.758 222.959 112.756 219.519C115.036 218.539 116.507 217.606 116.852 216.923C117.147 216.337 117.765 213.618 118.224 210.88C118.953 206.537 118.973 205.85 118.385 205.486C117.999 205.248 101.935 205.057 80.7812 205.041C48.3862 205.016 43.7812 205.098 43.2743 205.708Z" fill="#E7E7E7"/>
<path fill-rule="evenodd" clip-rule="evenodd" d="M7.78008 233.449C6.38595 233.562 5.08491 233.813 4.88858 234.007C3.65161 235.233 3.13682 249.316 4.07976 256.129C4.92868 262.263 6.69381 268.49 8.79169 272.751C10.3697 275.956 11.5113 277.468 14.9019 280.84C19.5968 285.511 23.5188 287.848 30.6212 290.208C37.0831 292.354 41.2484 292.823 53.867 292.823C69.4527 292.823 71.6465 292.042 74.626 285.435C78.5826 276.66 79.1835 275.658 81.8695 273.358C83.3244 272.111 85.7062 270.31 87.1621 269.355C91.9703 266.203 92.9308 264.936 92.6087 262.175C92.4879 261.14 90.7845 259.871 89.5148 259.871C88.2 259.871 85.9283 260.975 80.7293 264.14C74.6467 267.844 71.5621 267.265 74.414 262.957C75.1859 261.79 75.7657 260.185 75.8929 258.864C76.0865 256.847 76.0178 256.67 74.9361 256.398C73.2701 255.98 72.2613 256.661 66.7502 261.924C64.0495 264.503 61.1036 266.963 60.2035 267.39C58.7513 268.079 56.4433 268.166 39.7409 268.163C12.1081 268.158 12.7086 268.285 12.9455 262.497C13.1262 258.078 13.2064 258.043 23.0542 258.034C30.6212 258.027 30.7272 258.013 30.9821 256.99C31.4549 255.094 34.5174 234.837 34.3557 234.675C33.5468 233.867 13.8511 232.958 7.78008 233.449Z" fill="#FED6B5"/>
<path fill-rule="evenodd" clip-rule="evenodd" d="M146.744 234.041C145.865 235.465 114.68 258.596 113.054 259.031C112.305 259.231 111.194 259.028 109.952 258.465C106.914 257.086 103.758 257.274 101.449 258.973C98.7284 260.973 96.9651 264.691 97.3624 267.59C97.856 271.191 101.804 274.358 107.007 275.327C108.027 275.516 109.029 276.063 109.401 276.634C110.32 278.045 111.014 284.467 111.014 291.566C111.014 298.647 111.191 299.174 114.675 302.433C118.183 305.714 121.396 307.027 126.453 307.245C130.304 307.412 130.78 307.331 133.102 306.109C135.172 305.019 135.823 304.358 136.884 302.264C137.589 300.874 138.401 299.077 138.689 298.271C139.122 297.056 139.522 296.755 141.041 296.498C143.63 296.061 148.75 293.393 151.286 291.161C153.892 288.867 157.141 284.404 158.726 280.942C160.446 277.186 161.316 271.971 161.319 265.401C161.323 253.671 157.375 242.497 151.018 236.251C148.409 233.687 147.313 233.121 146.744 234.041Z" fill="#FED6B5"/>
<path fill-rule="evenodd" clip-rule="evenodd" d="M136.407 254.87C135.738 256.787 135.762 259.548 136.454 260.239C137.975 261.761 140.048 260.058 140.048 257.287C140.048 253.77 137.402 252.014 136.407 254.87Z" fill="#121212"/>
<path fill-rule="evenodd" clip-rule="evenodd" d="M152.97 254.31C152.448 255.287 152.33 258.447 152.773 259.602C153.185 260.676 155.132 260.507 155.755 259.343C156.366 258.201 156.062 255.078 155.243 254.092C154.471 253.16 153.538 253.25 152.97 254.31Z" fill="#121212"/>
<path fill-rule="evenodd" clip-rule="evenodd" d="M146.58 259.727C146.239 260.368 146.674 261.654 148.451 265.26C149.725 267.845 150.656 270.25 150.52 270.604C150.384 270.959 149.269 271.506 148.041 271.82C144.709 272.673 143.736 273.143 143.736 273.901C143.736 274.278 144.115 274.788 144.577 275.036C145.726 275.651 151.16 274.383 152.755 273.129C153.844 272.272 153.952 271.933 153.741 270.057C153.404 267.073 149.327 259.226 148.014 259.036C147.421 258.95 146.846 259.228 146.58 259.727Z" fill="#121212"/>
<path fill-rule="evenodd" clip-rule="evenodd" d="M38.745 261.138L16.0195 261.262L16.1624 262.986L16.3053 264.71L37.1734 264.829C59.7584 264.959 58.9256 265.04 61.8161 262.438C63.2882 261.113 63.3974 260.749 62.277 260.903C61.8332 260.964 51.2443 261.07 38.745 261.138Z" fill="#E7E7E7"/>
<path d="M283.388 208.714C286.082 208.714 286.606 209.781 286.606 215.269V219.775L288.334 219.779C289.285 219.78 291.411 219.989 293.059 220.242C302.053 221.626 308.423 224.152 310.456 227.143C313.193 231.169 310.169 237.019 305.813 236.124C305.008 235.959 301.342 234.824 297.667 233.603C293.992 232.381 289.999 231.263 288.795 231.117L286.606 230.854V251.924L291.561 253.63C301.099 256.915 307.827 260.769 310.776 264.636C312.763 267.24 314.217 271.024 314.531 274.404C315.206 281.665 311.793 288.483 305.271 292.897C302.129 295.024 295.175 297.194 290.427 297.53L286.606 297.799V301.586C286.606 304.719 286.441 305.583 285.65 306.587C284.497 308.053 282.581 308.191 281.012 306.92C280.041 306.135 279.907 305.593 279.765 301.906L279.605 297.771L276.769 297.458C261.453 295.768 251.101 290.142 252.23 284.12C252.634 281.968 254.036 280.323 256.024 279.666C258.011 279.01 258.854 279.216 267.479 282.455C272.926 284.501 274.454 284.977 278.434 285.874L279.709 286.162L279.586 274.545L279.463 262.929L273.011 260.331C269.462 258.902 265.625 257.258 264.484 256.676C254.129 251.399 250.312 241.456 255 231.971C258.455 224.981 266.007 220.669 276.121 219.911L279.693 219.643V215.393C279.693 211.791 279.839 210.958 280.648 209.929C281.386 208.991 282.009 208.714 283.388 208.714ZM286.607 286.269L289.286 286.026C295.336 285.477 299.972 281.408 299.973 276.648C299.972 272.16 296.473 268.846 289.037 266.287L286.607 265.451V286.269ZM278.195 230.882C277.371 230.908 275.917 231.113 274.962 231.338C274.008 231.563 272.412 232.162 271.417 232.669C266.967 234.939 265.581 240.008 268.433 243.582C269.74 245.222 275.612 248.618 278.656 249.495L279.693 249.794V230.836L278.195 230.882Z" fill="#121212"/>
<path fill-rule="evenodd" clip-rule="evenodd" d="M421.43 270.294C414.595 271.528 406.264 274.868 400.445 278.709C392.216 284.141 384.581 294.494 382.22 303.423C380.73 309.058 380.838 317.022 382.543 327.216L383.054 330.27L386.793 329.133C401.12 324.775 410.933 317.136 417.156 305.497C420.265 299.681 422.396 293.464 423.701 286.396C424.722 280.868 425.794 269.476 425.282 269.59C425.18 269.613 423.446 269.93 421.43 270.294Z" fill="#ADE838"/>
<path fill-rule="evenodd" clip-rule="evenodd" d="M134.111 277.802C133.673 278.08 133.574 278.611 133.796 279.495C135.046 284.472 142.014 286.941 147.234 284.255C149.714 282.979 151.698 280.336 150.658 279.693C150.296 279.469 149.066 279.932 147.478 280.89C143.247 283.441 139.03 282.698 137.147 279.07C136.283 277.404 135.353 277.016 134.111 277.802Z" fill="#121212"/>
<path fill-rule="evenodd" clip-rule="evenodd" d="M103.372 297.429C92.3396 299.157 80.2132 304.592 74.1468 310.528C64.9331 319.544 60.1981 335.43 60.9484 354.81C61.1821 360.834 62.2978 370.768 62.7969 371.267C62.985 371.456 67.8656 369.643 74.8362 366.796C90.5279 360.387 99.189 357.264 102.559 356.803C103.661 356.651 104.562 356.444 104.562 356.343C104.562 356.241 103.449 352.584 102.087 348.217C98.8434 337.807 97.4101 332.133 97.7806 331.167C97.9461 330.736 98.4775 330.384 98.9614 330.384C99.8306 330.384 100.426 331.383 101.294 334.301C101.52 335.062 102.434 338.069 103.324 340.984C106.63 351.808 107.852 356.358 107.656 357.11C107.405 358.07 108.104 358.107 111.706 357.322C113.227 356.99 120.796 355.77 128.528 354.61C149.995 351.389 147.513 352.102 151.801 347.933C156.423 343.44 160.041 340.55 163.441 338.636C164.897 337.817 166.133 337.118 166.187 337.085C166.241 337.051 165.984 335.892 165.616 334.51C163.783 327.622 165.896 319.384 170.846 314.121C172.445 312.421 172.145 312.001 166.593 308.182C161.294 304.537 158.901 303.247 154.567 301.697C151.106 300.46 143.818 299.199 142.672 299.639C142.289 299.786 141.199 301.382 140.251 303.186C137.392 308.626 133.778 310.717 127.361 310.642C118.568 310.54 111.017 306.08 108.699 299.621C108.13 298.037 107.537 296.764 107.381 296.793C107.225 296.822 105.421 297.108 103.372 297.429Z" fill="white"/>
<path fill-rule="evenodd" clip-rule="evenodd" d="M343.764 304.868C343.825 307.58 345.348 315.845 346.339 318.843C348.442 325.207 353.469 331.816 358.983 335.466C362.106 337.534 367.088 339.184 370.509 339.284L373.481 339.371L373.612 336.144C373.823 330.97 372.63 323.826 371.004 320.522C369.294 317.049 364.842 312.475 360.782 310.02C356.422 307.384 343.734 303.543 343.764 304.868Z" fill="#ADE838"/>
<path fill-rule="evenodd" clip-rule="evenodd" d="M211.715 311.645C208.679 312.649 207.234 313.591 204.587 316.292C203.202 317.705 201.764 318.862 201.391 318.862C201.018 318.862 199.432 317.542 197.865 315.928C193.967 311.914 192.327 311.332 185.592 311.574C181.079 311.736 180.062 311.925 178.043 312.971C174.93 314.586 170.47 319.421 169.401 322.341C167.659 327.1 168.033 335.973 169.944 335.21C170.358 335.045 172.263 334.798 174.177 334.661C176.785 334.475 177.997 334.589 179.017 335.116C183.98 337.683 183.377 343.098 177.661 347.298C176.112 348.436 174.779 349.431 174.698 349.509C174.349 349.846 186.953 349.709 193.511 349.305C201.857 348.791 203.848 349.119 206.278 351.412C207.825 352.87 207.903 353.087 207.691 355.3C207.536 356.912 207.029 358.264 206.065 359.631L204.665 361.617L205.732 362.188C206.318 362.502 206.9 363.148 207.024 363.623C207.439 365.208 208.913 364.511 213.359 360.625C221.437 353.566 228.995 344.033 231.793 337.374C233.634 332.993 234.36 328.27 233.668 325.184C232.4 319.532 229.026 315.123 224.036 312.599C221.931 311.533 220.776 311.28 217.518 311.17C215.11 311.088 212.836 311.275 211.715 311.645Z" fill="#EE5F49"/>
<path fill-rule="evenodd" clip-rule="evenodd" d="M170.394 338.852C164.868 341.125 159.82 344.753 154.216 350.48L150.419 354.361L145.767 355.241C143.208 355.725 135.431 356.971 128.484 358.008C121.538 359.046 113.638 360.241 110.931 360.663C106.282 361.388 105.91 361.386 104.225 360.626L102.442 359.822L95.552 362.34C88.0062 365.096 73.8275 370.721 72.8192 371.358C71.8979 371.939 72.8998 375.908 74.9244 379.697C78.1606 385.753 83.5993 389.989 90.9668 392.193C96.0166 393.703 107.972 393.924 115.725 392.65C126.824 390.827 142.44 386.586 150.12 383.31C152.078 382.475 152.274 382.476 158.416 383.348C167.064 384.576 173.386 384.858 180.075 384.311C189.145 383.57 194.163 382.07 197.265 379.173C198.471 378.046 198.647 377.613 198.401 376.382C198.241 375.581 198.03 374.846 197.933 374.749C197.836 374.652 196.542 374.894 195.057 375.285C193.573 375.678 189.614 376.25 186.259 376.557C179.273 377.196 177.61 376.912 177.61 375.077C177.61 373.936 177.614 373.936 183.602 373.64C193.312 373.159 197.699 372.163 202.495 369.353C204.179 368.366 204.571 367.89 204.571 366.835C204.571 365.148 202.953 363.105 201.616 363.105C201.041 363.105 198.978 363.513 197.03 364.011C193.19 364.993 183.024 366.037 179.684 365.792C177.721 365.649 177.61 365.567 177.61 364.258V362.875L184.523 362.516C195.236 361.961 202.428 359.923 203.93 357.017C204.887 355.166 204.421 353.612 202.631 352.686C201.315 352.005 200.195 351.978 191.692 352.419C180.646 352.992 171.727 352.58 170.592 351.445C169.929 350.782 169.931 350.615 170.622 349.561C171.038 348.925 172.82 347.254 174.582 345.849C178.171 342.985 179.223 341.71 179.223 340.223C179.223 337.566 175.084 336.923 170.394 338.852Z" fill="#FED6B5"/>
<path fill-rule="evenodd" clip-rule="evenodd" d="M406.202 340.108C400.774 340.883 397.069 342.877 393.329 347.037C390.721 349.938 389.428 352.089 387.549 356.653C386.766 358.554 385.924 360.47 385.679 360.91C385.433 361.35 385.232 361.846 385.232 362.011C385.232 362.549 395.527 361.816 398.197 361.088C403.078 359.757 406.011 358.019 409.936 354.13C412.964 351.131 414.075 349.617 415.812 346.121C418.23 341.256 418.402 340.289 416.917 339.891C415.493 339.51 409.553 339.63 406.202 340.108Z" fill="#ADE838"/>
<path fill-rule="evenodd" clip-rule="evenodd" d="M226.083 351.929C224.9 353.387 223.931 354.686 223.93 354.816C223.925 355.328 230.78 358.497 231.893 358.497C233.512 358.497 235.14 356.408 234.752 354.83C234.275 352.889 230.298 349.279 228.638 349.279C228.416 349.279 227.266 350.472 226.083 351.929Z" fill="#FED6B5"/>
<path fill-rule="evenodd" clip-rule="evenodd" d="M218.389 360.384C216.836 361.676 215.698 362.864 215.859 363.025C216.194 363.36 220.274 365.683 223.789 367.539C225.821 368.612 226.361 368.725 227.337 368.281C227.97 367.992 228.829 367.236 229.245 366.601C230.268 365.04 229.504 362.724 227.339 360.823C225.749 359.427 222.995 358.036 221.822 358.036C221.486 358.036 219.94 359.093 218.389 360.384Z" fill="#FED6B5"/>
<path fill-rule="evenodd" clip-rule="evenodd" d="M210.46 366.869C208.534 367.802 207.742 368.468 207.524 369.335C207.36 369.988 207.303 370.581 207.397 370.652C207.49 370.723 209.019 371.572 210.793 372.538C216.707 375.758 220.249 376.044 221.655 373.417C222.187 372.423 222.177 372.069 221.593 371.028C220.81 369.634 218.2 367.786 215.172 366.483L213.098 365.59L210.46 366.869Z" fill="#FED6B5"/>
<path fill-rule="evenodd" clip-rule="evenodd" d="M202.382 373.76C201.41 374.757 201.688 377.317 202.9 378.529C204.929 380.558 210.934 380.679 212.533 378.723C213.28 377.809 213.288 377.652 212.624 376.918C211.647 375.838 206.705 373.655 204.629 373.386C203.611 373.254 202.732 373.4 202.382 373.76Z" fill="#FED6B5"/>
<path fill-rule="evenodd" clip-rule="evenodd" d="M388.514 111.578C389.649 111.201 391.864 111.021 394.275 111.11C400.456 111.338 403.635 113.443 408.657 120.635C413.25 127.212 428.812 144.022 435.546 149.68C437.5 151.322 440.265 153.675 441.689 154.908C444.378 157.237 450.982 162.241 454.739 164.798C455.93 165.608 460.688 168.461 465.314 171.137C474.987 176.735 475.923 177.343 478.26 179.553C479.206 180.447 480.049 181.089 480.134 180.979C480.219 180.868 481.272 177.286 482.474 173.017L484.66 165.256L483.853 162.123C483.157 159.422 483.128 158.715 483.643 156.981C484.462 154.225 487.374 151.549 492.064 149.244C498.103 146.276 502.133 145.383 509.723 145.334C517.631 145.282 521.537 146.198 529.103 149.88C533.474 152.007 534.632 152.821 537.279 155.626C538.992 157.443 541.071 160.276 541.957 162.002C542.834 163.71 543.562 164.743 543.574 164.297C543.618 162.732 545.599 159.249 547.84 156.796C552.236 151.987 558.939 148.059 566.459 145.887C569.652 144.965 571.112 144.838 578.393 144.845L586.688 144.853L591.802 146.57C599.488 149.15 604.189 152.534 607.939 158.182C608.87 159.583 609.78 160.73 609.963 160.731C610.904 160.731 614.587 164.691 615.824 167.035C617.82 170.815 618.43 174.082 618.147 179.468C617.876 184.593 616.602 188.698 613.773 193.55C612.184 196.277 612.082 196.693 612.039 200.596C611.985 205.52 610.735 208.799 607.837 211.618C605.606 213.789 604.231 214.51 600.871 215.273L598.223 215.875L597.439 220.448C596.241 227.433 596.027 226.878 600.169 227.543C608.126 228.822 616.379 233.16 621.609 238.813C627.037 244.681 630.887 253.555 632.722 264.426C634.997 277.908 635.909 300.489 635.439 331.695C635.164 349.953 635.138 350.362 634.171 351.328C633.628 351.871 632.955 352.399 632.674 352.499C632.308 352.631 632.278 354.821 632.566 360.287C633.393 375.939 633.964 399.147 633.534 399.578C632.629 400.483 631.393 399.682 630.857 397.844C630.524 396.705 630.106 387.761 629.758 374.344C629.449 362.44 629.17 352.662 629.137 352.601C629.034 352.458 620.51 353.283 615.723 353.899C606.404 355.098 561.925 354.612 554.48 353.23C554.038 353.148 553.697 356.444 550.962 387.232C550.422 393.307 549.88 398.44 549.757 398.639C549.634 398.837 539.17 399 526.503 399C505.428 399 503.447 398.935 503.177 398.231C503.015 397.809 503.324 393.929 503.864 389.609C504.404 385.29 504.751 381.662 504.636 381.547C504.521 381.432 504.187 382.045 503.893 382.91C503.325 384.582 496.788 397.452 496.013 398.424C495.656 398.871 490.362 399 472.364 399C459.612 399 449.074 398.832 448.942 398.627C448.713 398.256 455.795 377.051 463.825 354.065C466.127 347.475 468.012 341.844 468.012 341.552C468.013 341.259 467.423 340.815 466.701 340.563C464.923 339.943 464.79 338.708 464.781 322.777C464.777 315.652 464.589 309.529 464.362 309.171C464.017 308.626 463.549 308.697 461.489 309.608C459.595 310.444 458.175 310.701 455.331 310.72C452.056 310.741 451.283 310.571 448.558 309.229C440.246 305.137 435.879 296.213 434.131 279.749C433.762 276.264 433.457 270.533 433.454 267.014L433.449 260.613L431.26 258.735C427.121 255.182 422.584 250.183 420.875 247.293C419.509 244.985 419.162 243.931 419.164 242.084C419.166 239.258 420.329 237.166 422.366 236.322C423.669 235.782 423.793 235.577 423.458 234.515C423.25 233.856 423.079 231.719 423.079 229.767C423.079 226.293 423.116 226.179 424.79 224.466C426.066 223.16 426.39 222.54 426.065 222.025C425.825 221.646 425.194 220.039 424.662 218.454C423.748 215.729 423.617 215.574 422.235 215.577C417.939 215.585 401.623 216.647 393.584 217.44C378.52 218.928 376.657 219.15 370.468 220.198C363.615 221.358 360.663 221.197 357.11 219.471C350.972 216.49 347.349 209.183 346.341 197.753C344.368 175.381 355.437 143.038 371.727 123.58C376.543 117.827 382.478 113.583 388.514 111.578ZM546.798 172.271C546.766 172.273 546.729 174.606 546.714 177.456C546.686 182.774 545.834 186.557 543.943 189.759C543.223 190.977 543.223 191.197 543.932 192.969C544.976 195.578 544.917 200.536 543.815 202.965C542.844 205.102 540.263 207.865 538.277 208.892C537.544 209.271 535.615 209.833 533.989 210.141L531.034 210.702L530.312 214.645C529.915 216.814 529.443 219.036 529.264 219.584C528.966 220.493 529.17 220.625 531.63 221.117C538.668 222.525 544.992 224.981 548.824 227.794C550.853 229.283 552.866 229.849 553.583 229.132C553.741 228.974 553.384 228.196 552.79 227.404C550.689 224.602 548.116 218.368 547.25 213.98C546.004 207.673 546.231 193.324 547.695 185.84C548.784 180.269 549.745 174.868 549.754 174.263C549.759 173.869 547.389 172.271 546.798 172.271ZM480.035 211.925C479.983 211.935 479.215 212.573 478.328 213.343C476.28 215.119 473.053 216.782 470.32 217.47C469.148 217.765 468.19 218.15 468.189 218.326C468.189 218.502 468.609 219.516 469.124 220.58C469.638 221.643 470.261 223.585 470.509 224.894C470.757 226.203 471.036 227.35 471.129 227.443C471.221 227.535 472.309 226.987 473.545 226.225C475.64 224.933 483.592 222.045 485.052 222.045C485.738 222.045 485.965 220.848 485.33 220.586C484.712 220.331 482.012 216.163 481.039 213.965C480.538 212.832 480.086 211.915 480.035 211.925Z" fill="#121212"/>
<path fill-rule="evenodd" clip-rule="evenodd" d="M389.783 114.647C383.251 116.623 374.487 124.424 368.525 133.57C354.108 155.683 346.213 186.888 350.649 204.229C351.873 209.018 352.992 211.416 355.077 213.724C357.638 216.559 359.788 217.502 363.653 217.49C369.676 217.471 374.197 215.326 380.375 209.554C390.565 200.036 399.542 183.252 404.545 164.371C406.563 156.751 407.341 151.345 407.651 142.776C408.235 126.619 405.461 118.28 398.441 115.093C396.435 114.182 392.064 113.957 389.783 114.647Z" fill="white"/>
<path fill-rule="evenodd" clip-rule="evenodd" d="M389.307 121.564C382.133 123.731 371.776 138.899 364.595 157.754C359.035 172.353 356.658 182.94 356.658 193.102C356.658 199.066 357.31 202.761 358.922 205.928C361.376 210.753 365.339 211.846 370.466 209.114C379.653 204.217 394.687 179.449 399 162.107C401.182 153.329 402.02 146.986 402.01 139.319C401.993 126.035 399.554 121.056 393.114 121.154C391.694 121.176 389.981 121.36 389.307 121.564Z" fill="#121212"/>
<path fill-rule="evenodd" clip-rule="evenodd" d="M410.487 129.641C411.023 133.47 410.83 149.659 410.201 153.703C408.776 162.866 404.673 176.164 400.205 186.106C395.156 197.342 387.229 208.462 380.395 213.897L378.088 215.732L381.314 215.45C383.088 215.295 388.169 214.751 392.605 214.241C416.305 211.517 441.012 211.798 458.826 214.992C462.463 215.644 463.523 215.668 466.349 215.163C477.455 213.178 484.216 204.251 482.466 193.881C481.436 187.77 477.429 181.889 472.27 178.912C470.912 178.129 467.312 176.079 464.271 174.358C451.121 166.914 439.68 158.3 428.15 147.163C423.446 142.619 411.799 129.967 410.718 128.226C410.264 127.495 410.222 127.748 410.487 129.641Z" fill="white"/>
<path fill-rule="evenodd" clip-rule="evenodd" d="M571.192 148.496C565.048 149.536 559.869 151.709 554.558 155.475C545.686 161.766 544.51 168.871 552.095 170.357C557.914 171.498 576.269 171.399 585.939 170.174C589.059 169.779 589.163 170.014 589.183 177.44C589.201 184.074 589.865 187.9 591.351 189.931C591.943 190.739 592.054 190.735 594.384 189.816C598.834 188.063 603.425 188.938 607.598 192.337L610.117 194.389L612.197 190.113C614.665 185.039 615.39 181.645 615.074 176.65C614.678 170.408 612.945 167.127 608.396 164.01C607.566 163.441 606.16 161.839 605.271 160.449C604.383 159.06 602.71 157.005 601.556 155.882C599.024 153.423 593.194 150.447 588.474 149.207C583.931 148.013 575.979 147.685 571.192 148.496Z" fill="#121212"/>
<path fill-rule="evenodd" clip-rule="evenodd" d="M382.217 158.936C377.128 160.415 373.577 168.284 375.724 173.323C376.858 175.985 378.132 176.786 385.82 179.671L388.021 180.496L389.922 176.73C391.633 173.34 396.485 160.766 396.184 160.503C396.116 160.444 394.311 159.957 392.172 159.421C388.131 158.407 384.622 158.236 382.217 158.936Z" fill="white"/>
<path fill-rule="evenodd" clip-rule="evenodd" d="M488.749 164.813C487.685 166.533 482.935 183.17 482.935 185.175C482.935 185.621 483.505 187.204 484.203 188.692C485.373 191.191 485.47 191.837 485.47 197.158C485.47 202.701 485.413 203.039 483.973 206.079L482.477 209.24L484.277 213.083C486.766 218.395 492.389 224.158 495.955 225.053C496.652 225.228 498.301 226.628 499.742 228.27C501.654 230.447 502.835 231.361 504.449 231.911C509.788 233.73 516.82 231.983 521.022 227.795C524.636 224.191 526.281 220.419 527.162 213.716C527.96 207.644 528.073 207.476 531.624 207.145C535.189 206.812 537.804 205.489 539.798 203.009C540.995 201.52 541.235 200.781 541.385 198.124C541.582 194.638 541.034 193.119 538.857 191.114C536.468 188.915 533.134 188.355 528.626 189.396C526.681 189.845 526.143 189.815 525.217 189.209C522.989 187.749 522.497 180.762 524.223 175.076C524.576 173.914 524.866 172.737 524.869 172.46C524.872 172.184 523.37 171.702 521.533 171.389C513.223 169.975 508.117 168.896 499.548 166.746C489.96 164.341 489.132 164.192 488.749 164.813Z" fill="#FED6B5"/>
<path fill-rule="evenodd" clip-rule="evenodd" d="M582.023 173.753C577.799 174.285 557.083 174.459 554.785 173.982L553.126 173.638L552.552 176.987C549.711 193.58 549.095 200.294 549.738 207.692C550.739 219.222 554.749 227.003 561.405 230.328C562.94 231.096 564.464 231.723 564.793 231.723C565.12 231.723 565.594 232.465 565.844 233.372C566.89 237.164 570.697 240.024 574.68 240.014C579.808 240 585.872 237.135 589.681 232.926C592.667 229.626 593.596 226.987 594.726 218.594C595.135 215.555 595.568 212.91 595.687 212.718C595.806 212.524 597.084 212.362 598.526 212.357C601.83 212.344 604.458 211.178 606.133 208.982C611.177 202.368 608.605 194.098 601.015 192.521C598.067 191.91 596.003 192.223 593.022 193.733L590.836 194.841L589.508 193.23C588.778 192.343 587.826 190.496 587.394 189.124C586.309 185.684 585.552 179.029 585.882 175.843C586.033 174.385 586.005 173.221 585.818 173.256C585.632 173.29 583.924 173.514 582.023 173.753Z" fill="#FED6B5"/>
<path fill-rule="evenodd" clip-rule="evenodd" d="M489.169 177.318C488.232 179.13 488.258 181.31 489.222 181.68C491.055 182.384 493.132 179.24 492.386 176.89C491.921 175.424 490.017 175.678 489.169 177.318Z" fill="#121212"/>
<path fill-rule="evenodd" clip-rule="evenodd" d="M505.687 179.697C504.749 181.509 504.776 183.689 505.74 184.059C507.573 184.763 509.65 181.619 508.904 179.269C508.439 177.803 506.535 178.056 505.687 179.697Z" fill="#121212"/>
<path fill-rule="evenodd" clip-rule="evenodd" d="M497.189 181.586C495.901 182.649 492.631 186.879 490.991 189.602C488.32 194.038 488.941 196.65 493.27 199.187C495.71 200.616 496.569 200.683 497.207 199.493C497.949 198.105 497.794 197.748 496.206 197.194C494.294 196.528 492.614 194.936 492.614 193.791C492.614 192.614 494.032 190.285 497.072 186.466C499.769 183.077 500.34 181.346 498.833 181.127C498.324 181.053 497.584 181.26 497.189 181.586Z" fill="#121212"/>
<path fill-rule="evenodd" clip-rule="evenodd" d="M555.55 184.357C554.7 185.571 554.603 188.448 555.386 189.231C556.82 190.665 558.52 189.122 558.52 186.387C558.52 183.427 556.952 182.356 555.55 184.357Z" fill="#121212"/>
<path fill-rule="evenodd" clip-rule="evenodd" d="M572.185 186.019C571.201 187.106 571.137 191.278 572.092 192.07C574.419 194.001 576.788 188.963 574.853 186.2C573.981 184.955 573.196 184.902 572.185 186.019Z" fill="#121212"/>
<path fill-rule="evenodd" clip-rule="evenodd" d="M561.325 191.901C558.732 195.846 556.215 200.691 556.215 201.738C556.215 204.54 563.342 208.425 564.231 206.107C564.737 204.788 564.532 204.49 562.497 203.59C561.39 203.1 560.235 202.399 559.931 202.032C559.27 201.236 559.344 201.074 563.23 194.729C565.495 191.031 565.888 190.103 565.424 189.544C564.355 188.256 563.337 188.842 561.325 191.901Z" fill="#121212"/>
<path fill-rule="evenodd" clip-rule="evenodd" d="M490.534 205.006C489.946 205.957 491.985 208.462 494.415 209.774C497.88 211.646 501.772 211.901 504.598 210.442C506.188 209.621 506.706 209.076 506.818 208.104C506.988 206.623 506.847 206.597 503.956 207.582C500.552 208.742 497.305 208.285 494.311 206.223C491.742 204.453 491.019 204.22 490.534 205.006Z" fill="#121212"/>
<path fill-rule="evenodd" clip-rule="evenodd" d="M558.52 212.197C558.52 213.764 561.183 216.315 563.488 216.955C567.837 218.163 574.178 216.886 574.884 214.659C575.399 213.038 574.451 212.532 572.574 213.427C568.695 215.277 565.145 214.993 561.983 212.579C559.45 210.645 558.52 210.542 558.52 212.197Z" fill="#121212"/>
<path fill-rule="evenodd" clip-rule="evenodd" d="M427.43 216.63C427.968 218.371 429.368 220.921 430.134 221.556C431.24 222.474 431.016 223.198 429.197 224.586C426.332 226.771 425.465 230.767 426.946 234.963C427.329 236.049 427.588 236.982 427.522 237.039C427.456 237.095 426.559 237.566 425.528 238.085C423.145 239.287 422.414 240.179 422.461 241.834C422.523 244.011 424.254 246.782 428.004 250.71C433.326 256.285 440.391 260.685 448.247 263.317L452.502 264.742L455.391 268.693C460.87 276.185 463.928 279.905 469.993 286.456C480.485 297.788 489.177 304.779 495.775 307.194C498.481 308.184 505.98 309.214 505.98 308.596C505.98 308.472 504.262 307.32 502.162 306.037C497.996 303.491 494.903 300.746 493.802 298.617C492.311 295.732 492.882 292.307 495.194 290.277L496.786 288.88L495.853 287.05C494.684 284.758 494.674 281.851 495.829 279.309C496.694 277.401 497.575 276.759 500.039 276.237C501.1 276.012 501.275 275.697 501.53 273.555C501.689 272.22 501.874 270.727 501.941 270.236C502.069 269.299 499.475 266.987 486.221 256.227C473.984 246.292 472.114 244.72 470.263 242.806L468.419 240.899L468.13 233.892C467.742 224.499 467.132 222.577 463.849 220.397C461.299 218.703 457.523 217.451 454.939 217.442C453.065 217.435 453.037 217.921 454.851 218.992C455.947 219.64 456.228 220.095 456.118 221.046C455.892 222.995 454.59 222.778 450.804 220.161C448.875 218.828 446.52 217.469 445.569 217.142C443.803 216.533 434.113 215.593 429.608 215.593C427.229 215.593 427.125 215.643 427.43 216.63Z" fill="#FED6B5"/>
<path fill-rule="evenodd" clip-rule="evenodd" d="M526.891 226.056C523.378 231.709 515.782 235.871 508.981 235.871C504.352 235.871 500.771 234.384 497.429 231.073C495.871 229.53 493.188 227.467 491.467 226.49C488.839 224.997 488.059 224.758 486.596 224.991C484.225 225.371 477.779 227.618 474.41 229.24L471.645 230.571L471.514 235.244L471.383 239.917L475.661 243.392C478.015 245.303 480.666 247.516 481.553 248.309C482.44 249.101 485.137 251.335 487.545 253.273C489.953 255.211 494.559 259.035 497.78 261.772C501.002 264.51 503.848 266.749 504.105 266.749C504.363 266.749 504.879 266.158 505.253 265.435C506.262 263.483 509.051 261.219 510.445 261.219C511.11 261.219 512.374 261.769 513.256 262.442C514.693 263.538 515.011 263.609 516.328 263.133C517.136 262.841 518.819 262.607 520.069 262.614C527.138 262.653 538.204 271.691 543.235 281.535C543.569 282.188 544.491 283.107 545.283 283.574L546.723 284.425L549.787 281.108C553.349 277.253 556.726 271.571 558.185 266.98C559.049 264.26 559.21 262.704 559.21 257.071C559.21 250.773 559.128 250.16 557.79 246.424C554.936 238.451 549.035 231.282 542.767 228.174C539.768 226.687 533.609 224.722 530.145 224.147C528.295 223.84 528.254 223.864 526.891 226.056Z" fill="#B0B0B0"/>
<path fill-rule="evenodd" clip-rule="evenodd" d="M594.747 231.909C593.04 234.822 588.304 238.919 584.558 240.723C580.854 242.507 575.707 243.508 572.622 243.046C569.665 242.602 565.061 239.445 563.67 236.907C562.968 235.626 561.85 234.522 560.442 233.718C559.257 233.042 557.93 232.186 557.493 231.815C556.833 231.255 556.463 231.239 555.304 231.718C554.537 232.036 553.91 232.399 553.91 232.524C553.91 232.649 554.614 233.713 555.474 234.888C563.333 245.62 565.011 260.48 559.715 272.454C558.345 275.553 556.369 278.541 553.38 282.037C552.15 283.475 551.145 284.761 551.145 284.896C551.145 285.156 551.82 285.366 559.44 287.471C562.102 288.206 564.619 288.939 565.035 289.1C565.6 289.318 566.152 288.761 567.224 286.886C568.012 285.508 568.658 284.082 568.658 283.717C568.658 283.352 568.035 282.593 567.275 282.031C565.769 280.918 565.584 280.133 566.466 278.587C566.782 278.033 568.083 275.091 569.358 272.05C571.583 266.742 571.731 266.519 573.047 266.519C574.277 266.519 574.412 266.661 574.356 267.902C574.321 268.662 573.207 271.642 571.88 274.523C569.943 278.728 569.592 279.841 570.099 280.171C570.447 280.397 573.864 282.215 577.693 284.211C581.522 286.207 589.597 290.692 595.638 294.178L606.621 300.516L607.879 299.108C609.481 297.314 614.848 288.206 617.933 282.044C619.977 277.962 620.457 277.311 621.331 277.435C622.024 277.534 622.391 277.947 622.482 278.732C622.644 280.138 617.213 291.228 613.793 296.476C609.928 302.403 608.9 303.545 607.281 303.706C606.035 303.83 605.557 304.319 603.726 307.342C597.023 318.408 589.664 325.172 581.367 327.894C577.967 329.009 577.006 329.115 570.271 329.114C562.5 329.112 559.288 328.633 552.528 326.472C550.626 325.864 548.967 325.533 548.841 325.738C548.475 326.325 549.358 348.51 549.764 348.945C549.965 349.16 553.935 349.76 558.587 350.279C570.485 351.607 604.773 351.726 617.279 350.484C627.19 349.5 631.33 348.944 631.73 348.544C632.34 347.935 632.19 289.398 631.557 280.746C629.731 255.807 624.835 244.125 612.773 235.924C609.61 233.773 605.929 232.24 600.918 230.986C598.51 230.384 596.404 229.888 596.238 229.886C596.072 229.882 595.401 230.793 594.747 231.909Z" fill="white"/>
<path fill-rule="evenodd" clip-rule="evenodd" d="M436.57 268.416C437.591 290.188 441.295 301.166 449.181 305.787C452.17 307.539 457.989 307.864 460.925 306.442C465.149 304.398 465.044 304.706 464.904 294.702L464.781 285.882L461.038 281.27C458.979 278.734 455.732 274.584 453.824 272.049C450.599 267.764 450.194 267.396 448.095 266.837C446.853 266.505 443.866 265.272 441.458 264.095C439.05 262.918 436.893 261.866 436.664 261.756C436.42 261.639 436.381 264.381 436.57 268.416Z" fill="#FED6B5"/>
<path fill-rule="evenodd" clip-rule="evenodd" d="M509.051 265.745C507.974 266.935 508.906 267.944 511.43 268.319C513.34 268.603 513.41 268.571 513.118 267.567C512.776 266.392 511.246 264.906 510.379 264.906C510.066 264.906 509.469 265.283 509.051 265.745Z" fill="#FED6B5"/>
<path fill-rule="evenodd" clip-rule="evenodd" d="M517.386 266.325C516.909 266.603 516.579 267.345 516.579 268.14C516.579 269.611 518.604 271.348 524.779 275.175C526.479 276.229 528.012 277.294 528.184 277.541C528.66 278.224 527.716 279.654 526.79 279.654C526.341 279.654 523.289 277.99 520.009 275.958C514.396 272.479 509.623 270.436 507.109 270.436C505.159 270.436 503.939 273.415 505.044 275.48C505.499 276.331 509.723 279.081 515.312 282.165C517.498 283.371 518.423 284.147 518.423 284.777C518.423 286.961 516.594 286.406 508.161 281.664C502.479 278.468 500.936 278.159 499.326 279.896C496.96 282.449 498.039 286.375 501.8 288.901C503.63 290.13 510.574 293.227 512.692 293.759C514.039 294.097 514.385 295 513.582 296.085C512.978 296.903 512.775 296.875 508.429 295.368C505.941 294.507 502.927 293.314 501.732 292.718C499.009 291.363 498.104 291.36 496.842 292.703C494.928 294.741 495.811 297.24 499.631 300.589C503.751 304.203 510.703 307.455 525.797 312.829C529.219 314.047 534.3 316.017 537.088 317.207C549.907 322.678 557.594 324.971 565.892 325.799C572.871 326.495 579.16 325.595 584.176 323.182C589.265 320.735 594.911 315.135 599.342 308.14C601.263 305.109 602.723 302.34 602.588 301.988C602.453 301.635 600.904 300.622 599.145 299.737C597.386 298.851 593.903 296.941 591.405 295.493C585.375 291.999 572.769 285.184 572.334 285.184C572.144 285.184 571.147 286.601 570.118 288.333C567.27 293.127 567.751 292.99 560.442 291.093C548.857 288.086 545.395 287.115 543.734 286.404C542.19 285.743 540.779 284.04 539.184 280.908C538.032 278.646 533.712 273.75 530.515 271.082C525.299 266.728 519.994 264.806 517.386 266.325Z" fill="#FED6B5"/>
<path fill-rule="evenodd" clip-rule="evenodd" d="M467.992 313.182C468.163 326.299 468.459 337.204 468.65 337.414C470.507 339.455 507.098 341.355 531.326 340.669L545.844 340.258L545.74 334.497C545.683 331.329 545.518 327.69 545.373 326.412L545.11 324.087L537.642 320.923C533.535 319.183 527.582 316.857 524.413 315.754C521.245 314.651 517.156 313.105 515.328 312.316C512.776 311.216 511.652 310.957 510.489 311.203C506.803 311.981 500.658 311.994 497.676 311.232C490.609 309.424 483.233 304.434 474.03 295.238C470.779 291.989 468.021 289.332 467.901 289.332C467.781 289.332 467.822 300.065 467.992 313.182Z" fill="#B0B0B0"/>
<path fill-rule="evenodd" clip-rule="evenodd" d="M584.881 377.911C584.484 378.308 584.328 381.342 584.328 388.65C584.328 395.957 584.484 398.991 584.881 399.388C585.671 400.178 587.406 400.071 587.735 399.212C587.889 398.811 588.015 394.191 588.015 388.945C588.015 381.058 587.891 379.229 587.298 378.383C586.497 377.239 585.707 377.085 584.881 377.911Z" fill="#121212"/>
</svg>
