<svg width="240" height="160" viewBox="0 0 240 160" fill="none" xmlns="http://www.w3.org/2000/svg">
<path fill-rule="evenodd" clip-rule="evenodd" d="M40.2275 8.67358C40.3266 9.26482 40.2734 9.4217 39.7915 9.9579C39.4896 10.2937 39.1652 10.7854 39.0708 11.0506C38.9763 11.3158 38.8343 11.5327 38.7552 11.5327C38.6123 11.5327 38.1346 12.349 36.8066 14.8631C36.4247 15.5862 35.3089 17.4004 34.3273 18.8947C33.3457 20.389 32.136 22.3005 31.6394 23.1426C31.1428 23.9846 30.449 25.0244 30.0979 25.4532C29.7468 25.8819 29.191 26.6918 28.8632 27.2527C28.5352 27.8136 27.977 28.6669 27.6228 29.1489C27.2685 29.631 26.8037 30.3763 26.5899 30.8052C26.0841 31.8201 25.1803 33.2115 23.9653 34.8457C23.4277 35.5688 22.8403 36.427 22.6602 36.753C22.1354 37.7018 22.0141 37.881 21.4634 38.5197C20.1163 40.082 19.3985 40.8054 19.195 40.8054C19.0731 40.8054 18.5558 40.5269 18.0455 40.1865C17.5353 39.8459 16.9222 39.5264 16.6832 39.4763C16.4442 39.4259 15.9986 39.2607 15.6929 39.1085L15.1373 38.8323L14.0415 39.7106C10.93 42.2053 6.78045 45.0379 4.961 45.9093C4.19199 46.2775 3.87094 46.3547 3.70076 46.2123C3.53371 46.0724 3.39726 46.0838 3.19284 46.2551C2.95643 46.4528 2.8796 46.4426 2.69569 46.1888C2.07548 45.3338 2.10729 46.4654 2.73359 47.5447C2.99659 47.9978 3.28983 48.5026 3.38544 48.6667C3.74595 49.2849 5.08981 50.4415 5.95025 50.8739C6.59654 51.1985 7.11906 51.3226 7.84079 51.3226C9.15683 51.3226 9.42574 51.202 10.9246 49.9391C11.6238 49.3499 12.2635 48.91 12.3459 48.9615C12.4282 49.0129 12.3038 49.4192 12.0689 49.8642C11.8343 50.3095 11.6422 50.7505 11.6422 50.8444C11.6422 50.9384 11.1461 51.9431 10.5396 53.0771C9.73776 54.5768 9.44538 55.2999 9.4678 55.7286C9.50292 56.3985 9.87734 57.2823 10.1259 57.2823C10.2173 57.2823 10.2492 57.4483 10.1965 57.6513C10.0534 58.2031 10.5381 59.0606 11.3069 59.6163C11.6825 59.8876 11.9899 60.1818 11.9899 60.2701C11.9899 60.3583 12.3027 60.5914 12.6852 60.7881C13.0676 60.9847 13.3805 61.2286 13.3805 61.3299C13.3805 61.6598 11.8046 63.7508 11.1145 64.3364C10.7446 64.6503 10.0274 65.0785 9.521 65.2877C7.24995 66.226 5.6942 66.7471 4.30029 67.0365C2.87821 67.3317 2.76401 67.3322 2.17335 67.0482C1.58181 66.7639 1.54427 66.7643 1.45301 67.0547C1.40016 67.2233 1.25206 67.6374 1.12361 67.9748C0.753876 68.9473 0.876772 69.6714 1.55035 70.4884C1.69671 70.6658 1.81735 70.9419 1.81874 71.1019C1.82013 71.2912 1.96806 71.3943 2.24235 71.3967C2.47407 71.3988 2.69761 71.503 2.73898 71.6281C2.78035 71.7533 3.11914 72.1789 3.49182 72.574C4.08526 73.203 4.28395 73.3019 5.0912 73.3694C5.90488 73.4374 6.17901 73.3622 7.43073 72.7277C9.5648 71.6456 11.171 71.2556 13.5543 71.2409C15.6637 71.2279 18.4192 71.6143 19.4858 72.0725C19.8322 72.2213 20.1647 72.2935 20.2247 72.2328C20.2849 72.1722 20.51 72.2085 20.725 72.3133C20.9398 72.4179 22.25 72.8714 23.6362 73.3207C25.0225 73.7701 26.5478 74.3224 27.0259 74.5482C29.8309 75.873 36.9526 78.3472 40.1498 79.1076C41.2492 79.3693 42.5399 79.6779 43.0179 79.794C44.6945 80.2006 47.0905 79.9912 48.7942 79.2888C49.3899 79.0434 49.9938 78.8425 50.1361 78.8425C50.2785 78.8425 50.6736 78.6848 51.0139 78.492C51.3543 78.2991 51.7063 78.1414 51.7962 78.1414C52.2113 78.1414 55.1578 76.2748 55.3241 75.9063C55.4255 75.6821 55.6078 75.537 55.7293 75.584C55.8667 75.6373 55.9138 75.5734 55.8536 75.4155C55.797 75.2665 55.8599 75.1615 56.0061 75.1615C56.143 75.1615 56.4349 74.9684 56.6548 74.7324C56.8747 74.4963 57.2759 74.2542 57.5462 74.1945C58.1221 74.0669 58.923 73.4739 58.923 73.1752C58.923 72.9245 59.6243 72.4425 59.906 72.4995C60.242 72.5673 61.3733 71.3778 61.2589 71.077C61.1873 70.8891 61.2788 70.7897 61.5607 70.7496C61.8256 70.7117 61.9485 70.5906 61.917 70.3983C61.888 70.2211 62.0257 70.0554 62.2647 69.9802C62.6608 69.8554 62.9134 69.5978 62.9185 69.3128C62.9198 69.2293 62.7451 69.213 62.53 69.2768C62.3148 69.3406 61.3957 69.5901 60.4875 69.8309C59.5792 70.0719 58.093 70.4972 57.1848 70.7759C56.2765 71.0547 55.025 71.3363 54.4036 71.4015C53.7821 71.4668 52.6204 71.6702 51.8221 71.8535C50.6579 72.1207 48.0973 72.3682 46.4075 72.3769C44.9575 72.3843 38.784 71.9298 37.9769 71.7562C34.8263 71.0789 33.4067 70.7182 32.9704 70.4842C32.7025 70.3405 32.3679 70.2677 32.2266 70.3224C32.0853 70.3771 31.4831 70.2339 30.8885 70.0044C29.7057 69.5482 27.9101 69.0135 26.4175 68.6733C25.8916 68.5536 25.354 68.369 25.2226 68.2633C25.0913 68.1576 24.7002 68.0614 24.3535 68.0493C24.0068 68.0372 22.98 67.8251 22.0718 67.5778C19.7573 66.9478 16.4125 66.3865 14.8637 66.3685C14.1436 66.3599 13.5543 66.3276 13.5543 66.2968C13.5543 66.2658 13.9584 65.704 14.4525 65.048C15.5008 63.6561 16.5093 61.5702 16.5093 60.7938C16.5093 59.7155 16.0951 59.1129 14.8844 58.4301C14.2597 58.0778 13.4702 57.7439 13.1298 57.6883C12.3723 57.5642 12.3107 57.3248 12.6876 55.9677C12.7948 55.5821 12.8991 55.022 12.9197 54.7232C12.9569 54.1766 13.7971 53.0222 14.9482 51.9361C15.7158 51.2118 17.8685 48.2861 18.171 47.5561C18.3222 47.1913 19.0641 46.3969 20.0716 45.5212C20.9805 44.731 21.7241 44.0172 21.7241 43.935C21.7241 43.8526 21.8093 43.7853 21.9136 43.7853C22.0177 43.7853 22.5458 43.3864 23.0869 42.8987C23.6281 42.4111 24.471 41.7434 24.9599 41.4151C25.4489 41.0868 26.3365 40.2638 26.9322 39.5862C27.5277 38.9087 28.3085 38.1201 28.6671 37.8336C29.2707 37.3516 29.3692 37.3271 29.9976 37.5017C30.3708 37.6053 30.905 37.854 31.1845 38.0545C31.9359 38.5932 33.6513 38.5958 35.0059 38.0605C36.2015 37.5881 36.3703 37.5611 35.9037 37.9169C35.4132 38.2911 35.6268 38.3614 36.3256 38.0554C36.8511 37.8254 36.8886 37.7719 36.6009 37.6633C36.3192 37.557 36.3963 37.465 37.1009 37.0682C37.5589 36.8098 38.0437 36.5986 38.1781 36.5986C38.3124 36.5986 38.4699 36.474 38.5278 36.3215C38.5911 36.1553 38.7628 36.0787 38.957 36.1299C39.1593 36.1832 39.2806 36.1229 39.2806 35.9686C39.2806 35.8137 39.4673 35.7222 39.7835 35.7222C40.0622 35.7222 40.3295 35.6089 40.383 35.4683C40.4361 35.3288 40.8154 35.1235 41.2256 35.0121C41.636 34.9006 42.206 34.6401 42.4924 34.4333C43.2425 33.8911 43.7956 33.6187 44.1464 33.6187C44.315 33.6187 44.5502 33.5004 44.6693 33.3558C44.7883 33.2112 45.1061 33.0929 45.3755 33.0929C45.6451 33.0929 45.9165 33.0098 45.9787 32.9083C46.0408 32.8068 46.1824 32.7554 46.2932 32.7943C46.4039 32.8331 46.7604 32.7225 47.0856 32.5486C47.5251 32.3134 47.7613 32.278 48.0066 32.4105C48.2371 32.5347 48.5307 32.523 48.98 32.3714C49.3339 32.2518 49.7587 32.1631 49.924 32.1742C50.0895 32.1851 50.2686 32.1228 50.3219 32.0357C50.425 31.8676 51.4398 32.001 51.6747 32.2134C51.7511 32.2827 51.2874 32.3889 50.644 32.4496C50.0005 32.51 49.3942 32.6403 49.2967 32.7386C49.199 32.8371 48.9694 32.9176 48.7862 32.9176C48.3584 32.9176 46.6863 33.4901 46.6104 33.6625C46.5784 33.7348 46.4081 33.794 46.2316 33.794C46.0552 33.794 45.7885 33.9174 45.639 34.0681C45.4896 34.2189 45.3044 34.303 45.2278 34.2554C45.0505 34.1448 43.7089 34.7446 43.5486 35.0059C43.3889 35.2668 44.2425 35.1497 45.7122 34.7094C46.3337 34.5232 47.2332 34.2874 47.7112 34.1854C48.1893 34.0834 48.9324 33.9069 49.3626 33.793C50.7342 33.4301 54.0451 33.936 54.5842 34.591C54.6994 34.7311 54.8706 34.8457 54.9645 34.8457C55.0585 34.8457 55.4952 35.0906 55.9351 35.39C56.6565 35.881 56.8363 35.9269 57.768 35.8591C58.6632 35.7937 58.8669 35.7092 59.2966 35.2243C59.8834 34.5619 59.9073 34.2657 59.4477 33.3449C58.9675 32.3828 58.7511 32.1404 58.0539 31.784C57.7193 31.6129 57.3282 31.3721 57.1848 31.2485C56.7613 30.8841 54.0055 29.4788 53.2631 29.2488C52.8866 29.1323 52.4219 28.9729 52.2307 28.8949C52.0395 28.8169 51.2573 28.5799 50.4925 28.3682C49.7276 28.1566 48.8616 27.9104 48.568 27.8211C47.9038 27.6194 46.0527 27.6134 45.7419 27.812C45.6151 27.8932 45.2631 27.9082 44.9597 27.8455C44.2976 27.7084 43.4281 27.9822 42.8818 28.4997C42.616 28.7516 42.2811 28.8704 41.8802 28.8553C41.5491 28.8427 41.0281 28.9628 40.7225 29.1221C40.4171 29.2814 40.0604 29.4119 39.9302 29.4119C39.7999 29.4119 39.3072 29.5978 38.8351 29.8252C38.3632 30.0525 37.7032 30.358 37.3685 30.5042C35.0128 31.5328 34.2258 31.8659 34.1512 31.8659C33.8194 31.8659 34.4013 31.1235 36.8036 28.4828C38.3095 26.8276 39.7842 25.196 40.0809 24.857C40.3777 24.5182 41.2772 23.5049 42.0799 22.6051C42.8827 21.7056 43.9305 20.5075 44.4085 19.9431C44.8865 19.3785 45.4094 18.9117 45.5706 18.9057C46.0561 18.8875 47.7415 17.0573 47.8722 16.4069C48.2214 14.667 48.204 14.4515 47.5706 12.672C47.381 12.1392 45.0913 9.60452 44.7995 9.60452C44.7122 9.60452 44.3148 9.33984 43.9162 9.01644C43.0346 8.30057 42.4577 8.09899 41.1317 8.0429L40.1147 7.99995L40.2275 8.67358Z" fill="#121212"/>
<path fill-rule="evenodd" clip-rule="evenodd" d="M13.5302 20.3526C13.1923 20.5648 12.6692 20.6922 12.1343 20.6929C11.3243 20.6937 11.278 20.7197 11.2661 21.1794C11.2591 21.4464 11.189 21.8239 11.1103 22.0182C11.0065 22.2746 11.1061 22.5649 11.4743 23.0777C11.7531 23.4662 12.1586 24.2551 12.3753 24.8308C12.8036 25.9684 13.3254 26.9377 13.8083 27.4926C14.5425 28.3363 14.56 28.5639 13.9598 29.4691C13.6503 29.9361 13.2447 30.5167 13.0587 30.7595C12.2762 31.78 10.9185 33.8232 10.9185 33.9802C10.9185 34.1817 12.5554 32.8094 14.0706 31.3378C15.33 30.1148 16.0152 29.8531 16.5323 30.3973C16.9788 30.8672 17.9576 30.8785 18.3821 30.4187C18.5558 30.2304 18.9167 30.0839 19.1878 30.0913C19.7222 30.1063 22.7949 29.1986 22.8248 29.0169C22.8349 28.9556 22.8702 28.3965 22.9033 27.7747C22.9563 26.7791 22.8915 26.504 22.3606 25.4704C21.9894 24.7478 21.4058 23.9828 20.8419 23.4797C19.8123 22.561 16.1645 20.5177 15.5512 20.5161C15.3312 20.5154 14.9191 20.3962 14.6354 20.2512C14.3516 20.106 14.1084 19.9932 14.0951 20.0003C14.0816 20.0073 13.8274 20.1659 13.5302 20.3526Z" fill="#121212"/>
<path d="M203.005 4.99995C203.872 5.00101 204.79 5.24544 205.998 5.79781C206.5 6.02747 206.959 6.21577 207.017 6.21577C207.344 6.21671 209.948 7.88739 210.331 8.34175C211.567 9.81089 211.821 11.4722 211.05 13.0302C210.591 13.9582 210.638 14.0011 211.801 13.7128C212.136 13.6299 213.035 13.4279 213.8 13.2636C214.565 13.0994 215.474 12.8936 215.82 12.8066C216.166 12.7198 216.714 12.6475 217.038 12.6455C217.361 12.6435 218.135 12.5233 218.756 12.3789C219.378 12.2346 220.766 12.1078 221.842 12.0966L223.799 12.0761L225.261 13.5947C226.402 14.7796 226.808 15.34 227.109 16.1445C227.482 17.1431 227.484 17.2002 227.199 17.9482C226.881 18.7801 226.806 18.8618 224.838 20.5087C223.375 21.734 221.823 22.7989 221.234 22.9824C220.773 23.1256 220.74 23.0341 221.116 22.6582C221.583 22.1905 221.092 22.3522 218.976 23.3603C216.423 24.5769 216.198 24.6689 215.466 24.8007C215.14 24.8597 214.836 25.0166 214.792 25.1494C214.726 25.347 214.931 25.3686 215.928 25.2705L217.144 25.1503L217.899 25.8544C218.314 26.2415 218.729 26.5585 218.822 26.5585C218.914 26.5589 219.132 26.6877 219.307 26.8457C219.641 27.1474 219.751 28.1223 219.452 28.123C219.356 28.123 219.278 28.2619 219.278 28.4316C219.278 29.1491 218.812 29.4675 217.587 29.5878C216.939 29.6515 216 29.7906 215.5 29.8964C214.69 30.068 214.55 30.1662 214.224 30.7919C213.782 31.6394 213.36 32.212 212.306 33.3974C210.439 35.4972 209.863 36.3164 210.076 36.5722C210.187 36.7066 210.369 36.8164 210.48 36.8164C210.882 36.8165 213.136 38.0462 214.409 38.9589C216.176 40.2268 216.701 41.0283 216.835 42.6679C216.941 43.9566 216.824 44.609 216.444 44.8505C216.006 45.129 214.808 44.9896 214.216 44.5918C213.892 44.3734 213.314 44.0485 212.931 43.8701C212.549 43.6917 212.18 43.4598 212.112 43.3544C212.039 43.2421 211.14 43.1239 209.939 43.0693L207.889 42.9765L208.501 42.6923C210.306 41.8561 209.732 40.6864 207.366 40.3779C206.503 40.2654 206.492 40.27 205.368 41.2509C204.746 41.7931 204.022 42.3498 203.759 42.4873C203.18 42.7906 203.152 43.0114 203.672 43.1767C205.005 43.5994 206.67 44.5874 207.138 45.2334C207.617 45.894 207.637 45.9903 207.524 47.1357L207.405 48.3418L207.821 48.246C209.449 47.8714 211.147 47.5576 211.869 47.499C212.472 47.4501 212.79 47.3287 212.965 47.0791C213.108 46.8756 213.409 46.726 213.68 46.7246C214.406 46.7209 214.931 46.5353 214.931 46.2822C214.931 45.6356 216.079 45.9544 217.807 47.08C219.755 48.3494 220.362 50.0163 219.271 51.1074C218.771 51.6072 218.683 51.6312 217.663 51.5537C217.069 51.5085 216.387 51.5454 216.148 51.6347C215.909 51.7241 214.969 51.8713 214.061 51.9619C212.165 52.1511 208.101 53.1885 206.902 53.789C206.068 54.2067 206 54.3145 205.809 55.5078C205.748 55.89 205.659 56.3332 205.612 56.4931C205.542 56.7322 205.768 56.8346 206.882 57.0664C211.789 58.0873 214.976 58.986 217.171 59.9668C217.782 60.2395 218.402 60.4625 218.549 60.4628C218.696 60.4628 219.41 60.745 220.134 61.0898C220.858 61.4344 221.645 61.8055 221.883 61.915C223.741 62.7694 227.208 65.2518 228.84 66.8964C230.44 68.5081 231.119 69.4612 231.6 70.7705C232.061 72.0244 232.067 72.7337 231.622 73.4638C231.431 73.7769 231.274 74.1361 231.274 74.2626C231.274 74.6954 230.727 75.5888 230.462 75.5888C230.316 75.5884 229.551 75.1584 228.761 74.6328C227.971 74.1068 227.255 73.6767 227.172 73.6767C226.907 73.6763 224.964 72.4231 223.887 71.5576C223.315 71.0975 222.758 70.7207 222.65 70.7207C222.541 70.7203 221.845 70.2513 221.103 69.6777C220.361 69.1046 219.658 68.6357 219.54 68.6347C219.422 68.6347 219.03 68.3991 218.669 68.1123C218.309 67.8257 217.908 67.5913 217.779 67.5908C217.65 67.5908 217.171 67.3625 216.715 67.083C216.26 66.8036 215.405 66.3142 214.817 65.996C214.228 65.678 212.96 64.8834 211.998 64.2304C211.036 63.5776 210.178 63.088 210.089 63.1416C210.002 63.1958 209.732 63.0844 209.491 62.8945C209.249 62.7046 208.945 62.5488 208.816 62.5488C208.686 62.5485 208.35 62.3343 208.067 62.0722C207.784 61.8099 207.276 61.4499 206.938 61.2724C206.6 61.0947 206.066 60.7035 205.751 60.4033C205.057 59.742 204.929 59.8714 204.751 61.4072C204.685 61.9869 204.571 62.6179 204.499 62.8095C204.426 63.0008 204.313 64.5267 204.249 66.2001C204.142 68.9547 204.041 69.6732 203.438 71.9804C203.244 72.7236 201.579 74.5459 201.094 74.5459C200.765 74.5434 198.066 71.8137 198.066 71.4834C198.066 71.374 197.948 71.1873 197.805 71.0683C197.662 70.9492 197.543 70.6331 197.543 70.3662C197.543 70.0087 197.337 69.6993 196.761 69.1923C196.331 68.8135 195.979 68.4144 195.979 68.3056C195.979 68.1969 195.901 67.9526 195.805 67.7626C195.71 67.5729 195.553 67.2621 195.458 67.0722C195.362 66.8826 195.284 66.6873 195.284 66.6376C195.284 66.4601 195.871 66.5534 196.139 66.7734C196.29 66.8974 196.828 67.1404 197.334 67.3144C198.183 67.6063 198.279 67.6096 198.565 67.3505C198.735 67.1962 198.963 67.0697 199.072 67.0693C199.438 67.0693 199.826 65.2575 200.057 62.4619C200.184 60.9345 200.259 59.6546 200.226 59.6142C200.124 59.5042 199.044 60.4997 198.362 61.332C196.795 63.244 192.184 67.6893 190.537 68.8759C190.135 69.1651 189.427 69.7377 188.962 70.1484C188.498 70.5589 187.989 70.896 187.832 70.8974C187.495 70.9008 186.489 71.2504 185.95 71.5517C185.741 71.6683 185.376 71.7635 185.138 71.7636C184.901 71.7636 184.484 71.8792 184.213 72.0195C183.079 72.6078 180.157 73.3063 180.157 72.9892C180.157 72.8233 181.015 72.0925 181.602 71.7578C181.86 71.6108 182.755 70.825 183.591 70.0117C185.106 68.5396 186.791 67.0695 186.964 67.0693C187.014 67.0693 188.627 65.485 190.549 63.5488C193.714 60.36 195.35 58.564 195.215 58.4238C195.151 58.3598 193.804 58.8214 193.11 59.1455C189.84 60.6729 189.137 60.984 188.946 60.9843C188.824 60.9843 188.527 61.1383 188.287 61.3271C187.924 61.6124 187.642 61.6604 186.619 61.6093C185.549 61.556 185.262 61.4651 184.445 60.9228C183.894 60.5568 183.278 59.9462 182.958 59.4492C182.659 58.9823 182.258 58.459 182.068 58.2871C181.669 57.9264 181.6 56.9543 181.953 56.6621C182.121 56.5226 182.328 56.5262 182.719 56.6738C183.141 56.833 183.416 56.8246 184.01 56.6337C184.425 56.5002 184.882 56.3864 185.026 56.3808C185.318 56.3692 186.403 56.0174 187.199 55.6777C187.486 55.5552 188.542 55.1758 189.546 54.8349C192.047 53.9854 192.565 53.7925 194.067 53.1494C194.784 52.8424 196.69 52.1462 198.302 51.6025C200.034 51.0185 201.299 50.4964 201.394 50.3271C201.571 50.0079 201.483 45.3151 201.294 45.0078C201.104 44.6998 200.555 45.0224 197.273 47.372C196.311 48.0606 195.138 48.8059 194.666 49.0283C194.193 49.2505 193.492 49.6396 193.11 49.8925C192.727 50.1456 191.828 50.6071 191.111 50.9179C190.394 51.2285 189.684 51.5861 189.533 51.7128C189.382 51.8394 189.17 51.9433 189.064 51.9433C188.862 51.9418 189.844 50.7695 191.032 49.5957C191.419 49.2132 192.041 48.5093 192.414 48.0312C192.786 47.5531 193.611 46.6528 194.246 46.0312C195.371 44.929 195.792 44.3154 195.452 44.2714C195.096 44.2256 195.009 44.1874 194.553 43.8828C193.763 43.3541 192.853 41.5023 192.95 40.6191C192.974 40.3925 193.001 40.0677 193.009 39.8974C193.017 39.7271 193.16 39.5359 193.328 39.4726C193.763 39.3074 194.004 39.0351 194.307 38.3632C194.454 38.0384 194.89 37.1924 195.277 36.4834C195.663 35.7753 195.948 35.1646 195.911 35.125C195.787 35.0015 192.815 36.1136 190.914 36.9951C189.897 37.4664 188.488 38.0585 187.784 38.3095C187.079 38.5608 186.102 38.9928 185.613 39.2695C184.593 39.8458 184.493 39.8595 183.748 39.5302C183.446 39.3971 183.064 39.2427 182.896 39.1875C182.729 39.1325 182.591 38.9304 182.591 38.7382C182.591 38.5463 182.396 38.2611 182.157 38.1044C181.918 37.9478 181.722 37.7201 181.722 37.5986C181.723 37.3908 183.292 36.3367 184.881 35.4765C185.807 34.9754 185.786 35.0122 185.494 34.4423C184.965 33.4097 184.955 32.2283 185.461 30.3281C186.008 28.2777 186.738 26.0268 186.939 25.7753C187.18 25.4732 187.489 24.0962 187.489 23.3222C187.489 22.8896 187.592 22.4923 187.737 22.372C187.892 22.2432 187.927 22.092 187.829 21.9707C187.743 21.8632 187.617 21.3656 187.549 20.8642C187.427 19.9556 187.429 19.9511 187.903 19.9511C188.196 19.9512 188.984 20.357 189.957 21.0087C191.805 22.2474 191.784 22.2469 194.158 21.0927C195.021 20.6732 196.457 20.0369 197.349 19.6796L198.972 19.0302L198.875 18.4257C198.771 17.7842 199.137 16.8712 199.907 15.8603C200.486 15.0994 201.338 13.198 201.466 12.3779C201.558 11.7902 201.506 11.5871 201.155 11.1611C200.923 10.8798 200.683 10.5121 200.622 10.3447C200.56 10.1775 200.444 10.0411 200.362 10.041C200.097 10.041 198.414 7.8347 198.414 7.48726C198.414 6.89894 198.828 6.54432 199.636 6.44136C200.063 6.38694 200.491 6.28368 200.586 6.21187C200.682 6.14026 201.02 6.02676 201.336 5.95894C201.703 5.88052 201.983 5.68331 202.104 5.41695C202.26 5.07411 202.422 4.99908 203.005 4.99995ZM207.732 31.4169C208.558 30.544 208.397 30.5446 205.544 31.4296C204.35 31.8002 203.243 32.1081 203.085 32.1132C202.59 32.1291 201.079 33.628 200.96 34.2216C200.901 34.5202 200.656 34.9975 200.417 35.2822C200.177 35.5668 199.981 35.8828 199.981 35.9843C199.983 36.2282 203.563 35.9946 204.094 35.7158C204.307 35.6035 205.119 34.6902 205.897 33.6865C206.675 32.6827 207.501 31.6613 207.732 31.4169ZM201.199 23.5585C201.196 23.3824 200.905 23.4177 199.98 23.708C199.55 23.8428 199.095 23.9139 198.97 23.8662C198.845 23.8184 198.18 24.1566 197.493 24.6171C195.872 25.7027 195.808 25.7253 194.071 25.8466L192.595 25.9492L192.497 26.5644C192.442 26.9019 192.343 27.2639 192.278 27.3701C192.213 27.4758 192.04 28.1388 191.894 28.8427C191.749 29.5466 191.483 30.4749 191.303 30.9052C190.773 32.1764 190.688 32.7985 191.029 32.9296C191.373 33.0613 193.284 32.5195 195.72 31.6005C196.676 31.2398 197.659 30.8987 197.903 30.8427C198.26 30.7607 198.52 30.3905 199.229 28.9541C199.956 27.4813 201.204 24.0612 201.199 23.5585ZM219.454 16.9765C219.453 16.8197 219.052 16.7601 218.916 16.8964C218.873 16.9376 218.097 17.1274 217.191 17.3193C214.88 17.8084 212.848 18.4302 210.834 19.2626C209.885 19.6549 208.764 20.0872 208.344 20.2236C207.925 20.3596 207.495 20.5393 207.388 20.623C207.282 20.7068 206.883 20.8736 206.5 20.9931C206.118 21.1128 205.73 21.279 205.639 21.3632C205.548 21.4471 205.255 21.5155 204.988 21.5156C204.414 21.5156 204.399 21.5751 204.818 22.1845C204.992 22.4384 205.311 23.1404 205.527 23.7441C205.853 24.6575 205.886 24.9339 205.725 25.3945C205.56 25.8682 204.782 27.1567 204.498 27.4277C204.447 27.4755 204.268 27.7315 204.099 27.996C203.638 28.7199 204.025 28.7502 205.818 28.1289C207.199 27.6501 208.028 27.4454 209.841 27.1376C210.149 27.0854 210.491 26.934 210.601 26.8007C210.712 26.6675 210.891 26.5575 210.999 26.5566C211.37 26.5532 212.535 25.2831 212.858 24.5302C213.227 23.6687 213.697 23.5372 214.151 24.1679L214.432 24.5585L214.958 23.9501C215.248 23.6154 215.788 22.9115 216.16 22.3857C216.531 21.8598 217.057 21.1158 217.328 20.7334C217.931 19.8809 219.454 17.19 219.454 16.9765Z" fill="#121212"/>
<path d="M126.863 25.8729C127.089 25.5065 129.317 26.1908 129.65 26.7293C129.71 26.8263 129.952 26.9061 130.189 26.9061C130.86 26.9062 132.279 27.7084 132.816 28.3914C133.084 28.7318 133.558 29.2995 133.871 29.6531C134.571 30.4449 135.129 31.5594 135.129 32.1658C135.129 32.4162 135.216 32.8411 135.324 33.1102C135.432 33.3793 135.543 33.7959 135.572 34.035C135.601 34.2745 135.7 35.0564 135.792 35.7732C135.966 37.1366 135.946 41.2086 135.757 42.5545C135.508 44.3394 135.246 45.6103 135.086 45.8123C134.992 45.9307 134.962 46.2091 135.017 46.4314C135.076 46.6677 135.007 46.9963 134.851 47.2195C134.543 47.6592 133.911 49.8249 133.911 50.4412C133.911 51.3847 131.41 56.7867 130.281 58.282C129.917 58.7644 129.098 59.7065 128.463 60.3758C127.827 61.0451 127.306 61.6414 127.305 61.701C127.303 61.8656 124.956 63.7134 124.401 63.9881C124.133 64.1204 123.274 64.3291 122.493 64.451C121.24 64.6464 120.968 64.6381 120.196 64.3816C119.714 64.2217 119.04 63.9006 118.697 63.6678C118.354 63.4351 117.926 63.2439 117.747 63.2439C117.281 63.2435 116.01 62.2232 115.581 61.5057C114.689 60.0142 114.513 59.7694 114.34 59.7684C114.239 59.7671 114.02 59.434 113.852 59.0281C113.685 58.6219 113.466 58.1407 113.366 57.9588C112.812 56.9491 112.273 51.6009 112.699 51.3348C112.794 51.2757 112.874 50.7422 112.875 50.1502C112.877 48.091 114.207 41.8949 114.861 40.8963C115.033 40.6339 115.675 39.2758 116.288 37.8787C116.901 36.4817 117.628 35.0234 117.903 34.6385C118.178 34.2536 118.486 33.6279 118.589 33.2479C118.784 32.5239 119.334 31.5877 120.784 29.5154C121.262 28.8322 121.74 28.1189 121.846 27.9305C122.332 27.0698 122.84 26.7189 123.558 26.7488C124.019 26.7681 124.565 26.623 125.141 26.3279C125.651 26.0665 126.171 25.9178 126.381 25.9725C126.58 26.0244 126.796 25.9794 126.863 25.8729ZM128.336 31.0789C128.145 31.0791 127.729 31.4571 127.332 31.992C126.958 32.494 126.403 33.1788 126.098 33.5135C125.793 33.8482 125.34 34.4347 125.091 34.8172C124.843 35.1996 124.421 35.7862 124.154 36.1209C123.887 36.4556 123.498 37.1149 123.291 37.5857C123.083 38.0566 122.643 38.8654 122.312 39.3826C121.254 41.0361 119.694 45.313 118.808 48.9871C118.204 51.4948 117.818 55.0963 117.974 56.7674C118.108 58.1949 118.581 59.4179 119.002 59.4188C119.169 59.4193 119.305 59.5371 119.305 59.6805C119.305 59.8238 119.393 59.9412 119.499 59.9412C119.918 59.9409 121.736 58.8342 121.837 58.5184C121.895 58.3341 122.023 58.2095 122.121 58.242C122.336 58.3122 124.378 56.3502 125.285 55.202C126.09 54.1811 129.214 49.165 129.216 48.8875C129.216 48.7778 129.441 48.1879 129.716 47.577C130.675 45.4507 131.475 42.4416 131.653 40.2957C131.887 37.4756 131.863 35.4373 131.587 34.5184C131.065 32.7845 129.453 31.0789 128.336 31.0789Z" fill="#F06418"/>
<path d="M75.1423 18.6698C75.1423 18.2957 75.4195 18.313 75.9958 18.7235C76.2555 18.9083 76.6727 19.11 76.9226 19.1728C77.1728 19.2355 77.5123 19.4373 77.6775 19.62C77.8428 19.8025 78.0659 19.952 78.1726 19.952C78.2795 19.9523 78.5359 20.1276 78.7419 20.3427C78.9483 20.558 79.514 21.1486 79.9988 21.6552C80.4838 22.1616 80.8806 22.6804 80.8806 22.8075C80.8807 22.9348 81.0018 23.1393 81.1501 23.2626C81.2986 23.3857 81.7393 24.1282 82.1296 24.912C82.7707 26.1994 82.8269 26.4167 82.7146 27.1659C82.6056 27.8932 82.4374 28.1506 81.3445 29.2519C79.3083 31.3035 78.2261 32.4814 77.1111 33.8612C75.9791 35.2619 74.7947 36.9171 74.7947 37.0985C74.7947 37.1599 74.521 37.5916 74.1863 38.0575C73.8522 38.5224 73.5788 38.9808 73.5779 39.077C73.5779 39.1725 73.4972 39.2509 73.3992 39.2509C73.3013 39.2513 73.1528 39.4321 73.0691 39.6522C72.9851 39.8728 72.725 40.283 72.491 40.5644C72.2568 40.8458 71.9667 41.2618 71.8474 41.4882C71.638 41.8858 70.1355 43.9405 69.9236 44.119C69.6263 44.3684 66.7897 48.8681 66.697 49.2372C66.6373 49.4747 66.4794 49.7598 66.3455 49.871C65.9357 50.2113 66.0588 50.5526 66.5916 50.5526C67.1685 50.5525 68.8975 50.0685 69.1355 49.8407C69.2267 49.7539 69.5004 49.6808 69.7439 49.6776C69.9878 49.6747 70.3396 49.5574 70.5251 49.4169C70.7108 49.2767 71.0392 49.1621 71.2556 49.162C71.4721 49.162 72.1809 48.9583 72.8308 48.7099C73.4806 48.4614 74.317 48.2069 74.6892 48.1444C75.363 48.0316 75.3677 48.026 75.7849 46.6405C76.0155 45.8755 76.3665 44.8188 76.5652 44.2929C76.9787 43.1993 77.9001 40.6298 78.9656 37.5995C79.369 36.452 79.7608 35.4344 79.8357 35.3388C79.9106 35.2427 80.0259 34.7345 80.0916 34.2089C80.2765 32.7271 80.8804 30.6115 81.2351 30.202C81.7101 29.6544 82.0622 29.8517 83.9812 31.7431C86.8436 34.5644 87.3086 35.6466 86.2664 37.0604C85.2668 38.4164 84.4604 39.6895 83.9968 40.6435C83.2036 42.2758 82.035 45.3254 82.1541 45.4511C82.2175 45.5145 82.4697 45.4754 82.7136 45.3642C82.9576 45.2532 83.4281 45.163 83.7595 45.163C84.0906 45.163 84.4975 45.0785 84.6638 44.9755C84.8994 44.8295 85.1473 44.8897 85.7917 45.2509C86.2457 45.5053 86.6176 45.7822 86.6179 45.8661C86.6179 45.9499 86.9236 46.1014 87.2976 46.202C87.9439 46.3761 88.2919 46.747 88.9626 47.9774C89.2292 48.4662 89.3439 48.3578 89.4607 47.5058C89.52 47.073 89.8101 45.9582 90.1062 45.0282C90.4021 44.0982 90.7998 42.8285 90.989 42.2069C91.2969 41.1961 92.6214 38.2557 92.8689 38.0341C92.9223 37.9863 93.0746 37.6342 93.2078 37.2519C93.3409 36.8693 93.6249 36.321 93.8386 36.0341C94.0521 35.7472 94.3623 35.2464 94.5271 34.9208C94.868 34.2476 94.8954 34.2083 95.7371 33.2313C96.0765 32.8372 96.3542 32.4315 96.3542 32.33C96.3547 32.2285 96.5111 32.0965 96.7019 32.036C96.8928 31.9754 97.0954 31.7402 97.1521 31.5145C97.2089 31.2888 97.3661 31.0623 97.5007 31.0106C97.6355 30.9588 97.7458 30.8325 97.7458 30.7304C97.7462 30.5073 99.2732 28.9948 99.4998 28.9931C99.5865 28.9931 99.6579 28.7583 99.658 28.4716C99.658 27.9816 99.6995 27.9491 100.333 27.9491C100.706 27.949 101.099 27.8384 101.214 27.7001C101.598 27.2371 102.431 27.1821 102.974 27.5839C103.252 27.7893 103.732 27.9491 104.069 27.9491C104.77 27.9492 106.352 29.0906 106.617 29.786C106.706 30.0192 106.842 30.2099 106.921 30.2099C107.231 30.2108 108.551 31.6206 108.801 32.2177C108.946 32.5663 109.351 33.2812 109.7 33.8065C110.344 34.7774 110.815 36.4363 111.122 38.8163C111.277 40.0181 110.99 45.3699 110.748 45.789C110.698 45.8757 110.652 46.1947 110.646 46.4989C110.64 46.8039 110.548 47.2156 110.442 47.414C110.336 47.6122 110.267 47.8718 110.288 47.9901C110.343 48.3023 109.934 49.6612 109.551 50.4384C109.369 50.8059 109.22 51.3374 109.22 51.619C109.22 52.2408 108.577 53.5609 108.344 53.4169C108.253 53.3607 108.177 53.5344 108.177 53.8026C108.176 54.0713 108.048 54.5257 107.891 54.8124C107.117 56.2333 106.788 56.9175 106.787 57.1151C106.787 57.2342 106.471 57.7826 106.085 58.3329C105.699 58.883 105.21 59.5821 104.998 59.8866C104.159 61.0933 102.331 63.2266 101.956 63.4364C101.737 63.5585 101.599 63.7632 101.648 63.8915C101.701 64.0306 101.545 64.2066 101.262 64.327C101.002 64.4382 100.662 64.6333 100.509 64.7606C100.063 65.1301 98.2514 65.7184 97.3982 65.7704C96.5865 65.8198 95.6014 65.6248 94.7029 65.2362C94.4161 65.1123 93.9468 64.9527 93.6599 64.8817C91.8339 64.4307 89.3698 61.2086 88.6453 58.3241C88.4581 57.5787 88.4053 57.0409 88.5027 56.8671C88.5932 56.7051 88.5898 56.2961 88.4939 55.8759C88.3054 55.0514 88.4213 52.4179 88.6755 51.7548C88.77 51.508 88.795 51.2216 88.7312 51.1181C88.5116 50.7627 86.0786 51.0383 83.0535 51.7616C82.6711 51.8531 82.1236 51.9824 81.8367 52.0497C81.5498 52.1168 80.9351 52.3762 80.4714 52.6259C79.5406 53.127 79.4238 53.35 78.7781 55.8554C78.2755 57.8051 77.5755 60.145 77.3875 60.5038C77.3222 60.6282 77.2661 60.8031 77.2419 60.9442L77.2166 61.1981C77.1925 61.3394 77.1355 61.514 77.0701 61.6386C76.983 61.8046 76.818 62.4105 76.7029 62.9843C76.588 63.558 76.428 64.2618 76.3484 64.5487C76.2686 64.8355 76.1652 65.4222 76.1179 65.8524C76.0706 66.2828 75.9476 67.1048 75.8445 67.6786C75.7414 68.2522 75.652 69.1889 75.6462 69.7606C75.6403 70.3322 75.525 71.066 75.3894 71.3905C75.2538 71.715 75.1428 72.147 75.1423 72.3505C75.1411 73.0371 74.5269 73.7997 73.8982 73.8954C73.0935 74.0176 72.5003 73.7202 71.7605 72.8251C70.3946 71.1726 70.2775 70.8332 70.2527 68.4462C70.2363 66.8608 70.3084 66.0334 70.5242 65.331C70.6857 64.805 70.8904 63.9056 70.9792 63.3319C71.0681 62.7582 71.2542 61.9752 71.3933 61.5927C71.5326 61.21 71.8053 60.2716 71.9988 59.5067C72.7519 56.5297 72.9104 56.0074 73.2556 55.3661C73.4521 55.0013 73.5666 54.6554 73.5095 54.5985C73.2479 54.3375 69.9474 55.599 67.1355 57.0341C65.9352 57.6467 64.5657 58.2866 64.0925 58.4569C63.6196 58.627 62.9856 58.8749 62.6843 59.0067C62.3832 59.1384 61.968 59.2459 61.7615 59.246C61.037 59.246 59.6492 58.6763 59.3552 58.2587C59.193 58.0281 58.7332 57.4948 58.3347 57.0731C57.5515 56.2444 57.5291 56.194 57.2341 54.6386C57.1253 54.0648 56.9974 53.4585 56.95 53.2919C56.8922 53.0878 57.0082 52.924 57.3064 52.788C57.5497 52.6771 57.7896 52.4577 57.8396 52.3007C57.8893 52.1437 58.4328 51.4718 59.0466 50.8075C59.6607 50.1434 60.2031 49.4015 60.2517 49.1591C60.3002 48.9169 60.5792 48.4162 60.8728 48.0468C61.1662 47.6775 61.4068 47.2631 61.407 47.1259C61.407 46.8077 62.215 45.382 62.7175 44.8144C62.9293 44.5752 63.274 43.9135 63.4832 43.3437C63.8649 42.3043 64.8377 40.6415 65.0642 40.6415C65.1309 40.6405 65.3229 40.2699 65.491 39.8163C65.6591 39.362 66.0214 38.6311 66.2966 38.1923C66.5717 37.7536 66.7984 37.2844 66.8005 37.1493C66.8026 37.0145 66.9574 36.7086 67.1443 36.4696C67.3314 36.2306 67.4869 35.9462 67.489 35.8388C67.4918 35.7304 67.9099 35.0268 68.4187 34.2743C68.9279 33.5215 69.3979 32.7884 69.4636 32.6444C69.529 32.501 70.1378 31.4443 70.8171 30.2968C73.7339 25.3697 74.1759 24.2544 74.0115 22.2313C73.9179 21.0797 73.8376 20.839 73.3933 20.3778C73.1125 20.0864 72.8826 19.7889 72.8826 19.7167C72.8836 19.6445 73.1569 19.4715 73.491 19.3319C73.8256 19.192 74.0994 19.0018 74.0994 18.9101C74.1001 18.8172 74.3312 18.7896 74.6208 18.8476C75.029 18.9292 75.1422 18.8906 75.1423 18.6698ZM105.158 33.8202C104.624 33.4742 104.109 33.7323 102.733 35.0351C101.95 35.7761 101.102 36.7346 100.847 37.1649C100.593 37.5951 100.241 38.0342 100.065 38.1405C99.8891 38.2469 99.3529 39.1609 98.8748 40.1718C98.3554 41.2701 97.8842 42.0414 97.7019 42.0917C97.5346 42.1371 97.3972 42.329 97.3972 42.5175C97.397 42.7059 97.2893 42.9496 97.158 43.0585C97.0264 43.168 96.8677 43.5755 96.8054 43.9647C96.7432 44.3543 96.4957 45.1402 96.2556 45.7108C95.7326 46.9531 94.7378 51.101 94.4685 53.161C94.3623 53.974 94.2352 55.5502 94.1853 56.664C94.1083 58.3816 94.1483 58.863 94.448 59.8339C94.6525 60.4956 94.9362 61.0515 95.1208 61.1503C95.5613 61.3858 96.4285 61.1129 97.3943 60.4345C98.373 59.747 100.525 57.6667 100.527 57.4062C100.527 57.3004 101.036 56.5019 101.659 55.6317C102.58 54.3435 104.352 51.1809 104.352 50.8241C104.352 50.7761 104.555 50.2928 104.802 49.7509C105.05 49.2089 105.355 48.4046 105.479 47.9638C105.604 47.5225 105.87 46.5966 106.071 45.9062C106.712 43.706 106.818 38.8326 106.278 36.3827C106.062 35.4012 105.455 34.0131 105.158 33.8202Z" fill="#F06418"/>
<path fill-rule="evenodd" clip-rule="evenodd" d="M45.7452 37.2429C45.6899 37.3767 45.8571 37.7759 46.117 38.1301C46.7797 39.034 46.7522 40.3958 45.9914 44.376C45.8487 45.1221 45.7144 46.114 45.6928 46.5803C45.6423 47.6667 45.539 48.4253 45.3114 49.3781C45.2111 49.7978 44.9667 51.6713 44.7683 53.5414C44.3568 57.4226 43.4149 63.6691 43.1461 64.2997C42.8984 64.881 41.8769 65.8089 41.3498 65.9316C41.0581 65.9993 40.4573 65.8306 39.5176 65.417C38.7484 65.0785 38.102 64.8222 38.0807 64.8474C37.9208 65.0382 37.8546 66.0027 37.9958 66.0836C38.0932 66.1393 38.1728 66.3237 38.1728 66.4934C38.1728 66.663 38.2963 66.8966 38.4472 67.0128C38.5982 67.1289 38.7217 67.3965 38.7217 67.6074C38.7217 67.8296 38.9143 68.1081 39.1791 68.2689C39.4307 68.4217 39.6365 68.705 39.6365 68.8987C39.6365 69.3154 40.4584 70.0673 41.4195 70.53C42.4834 71.0423 43.3315 71.1299 44.2392 70.8213C44.6763 70.6728 45.1987 70.5061 45.3999 70.451C45.6012 70.3959 46.0363 70.1338 46.3669 69.8687C46.6973 69.6035 47.0309 69.3867 47.1081 69.3867C47.1851 69.3867 47.4392 69.0243 47.6731 68.5812C47.9702 68.0179 48.202 67.0367 48.4445 65.3171C48.6351 63.9649 48.834 62.5914 48.8865 62.265C48.9392 61.9386 49.0149 61.3475 49.0552 60.9515C49.0953 60.5554 49.1738 59.9069 49.2298 59.5102C49.2856 59.1135 49.3759 57.7707 49.4305 56.5261C49.485 55.2815 49.6905 52.9542 49.8868 51.3544C50.0833 49.7546 50.245 47.9967 50.2463 47.4481C50.2478 46.7702 50.3597 46.2814 50.596 45.9221C50.8953 45.4665 50.9388 45.0885 50.9116 43.189C50.873 40.4969 50.6508 39.9553 48.8688 38.2044C47.6725 37.0293 47.6207 37 46.7442 37C46.1331 37 45.8136 37.0776 45.7452 37.2429Z" fill="#121212"/>
<path fill-rule="evenodd" clip-rule="evenodd" d="M200.129 38.102C199.546 38.1618 199.327 38.2975 199.074 38.7563C198.898 39.0744 198.56 39.6279 198.323 39.9861C197.771 40.8189 197.78 41 198.373 41C198.688 41 199.243 40.6461 199.981 39.974C200.601 39.4098 201.291 38.8516 201.513 38.7335C201.736 38.6154 201.918 38.3937 201.918 38.2409C201.918 37.9583 201.698 37.9412 200.129 38.102Z" fill="#121212"/>
<path fill-rule="evenodd" clip-rule="evenodd" d="M154.193 38.3692C153.666 38.9632 153.282 39.6298 153.039 40.3705C152.787 41.1401 152.92 41.1966 153.536 40.5805C153.776 40.3399 154.106 40.0795 154.268 40.002C154.43 39.9245 154.656 39.7237 154.771 39.5558C154.952 39.2907 154.96 39.166 154.83 38.6058C154.652 37.8416 154.659 37.844 154.193 38.3692Z" fill="#121212"/>
<path d="M159.854 5.17281C160.583 5.17281 162.773 7.08395 162.773 7.72066C162.773 7.93391 162.934 8.22123 163.131 8.35933C163.715 8.76827 163.794 10.3136 163.285 11.3662C162.814 12.3393 162.556 13.6943 162.844 13.6865C162.949 13.6835 163.182 13.5689 163.362 13.4326C163.542 13.296 164.246 13.0196 164.926 12.8173C165.606 12.6151 166.377 12.3681 166.638 12.2685C167.226 12.0447 167.882 12.1944 168.725 12.746C169.081 12.9788 169.442 13.1693 169.528 13.1699C170.369 13.1699 172.857 15.1712 172.858 15.8486C172.858 16.1783 171.801 16.9932 171.364 17.0009C171.182 17.0039 170.88 17.1213 170.695 17.2617C170.509 17.402 170.171 17.5175 169.944 17.5175C169.717 17.5176 169.361 17.6087 169.152 17.7207C168.943 17.8328 168.27 18.0295 167.658 18.1582C167.045 18.287 166.027 18.6703 165.397 19.0097C164.767 19.3491 163.764 19.7805 163.167 19.9687C162.571 20.157 162.015 20.4454 161.931 20.6093C161.697 21.0697 160.994 24.141 161.099 24.246C161.152 24.2968 161.92 24.1034 162.808 23.8164C164.461 23.2823 166.404 22.9608 167.437 23.0498C167.755 23.0771 168.285 23.0106 168.613 22.9023C169.166 22.7195 169.268 22.749 170.034 23.3115C170.939 23.9769 172.973 26.0315 173.443 26.7548C173.624 27.0334 173.773 27.7029 173.823 28.4648C173.896 29.582 173.838 29.8965 173.286 31.3974C172.945 32.322 172.364 33.7048 171.995 34.4697C171.625 35.2347 171.081 36.3919 170.784 37.041C170.439 37.7948 169.935 38.5167 169.389 39.04C168.919 39.4905 168.484 40.0691 168.42 40.3251C168.347 40.6236 168.094 40.8917 167.715 41.0712C167.391 41.2253 167.046 41.498 166.951 41.6767C166.605 42.3217 165.549 42.7982 164.364 42.8447C163.537 42.877 163.149 42.9776 162.878 43.2285C162.515 43.5663 162.511 43.5663 162.2 43.1484C161.899 42.7443 161.899 42.728 162.2 42.7255C162.393 42.7238 162.439 42.6738 162.319 42.5947C162.212 42.5244 162.072 42.2995 162.008 42.0947C161.858 41.6113 161.276 41.4679 160.513 41.7265C159.288 42.1419 159.004 42.4593 158.802 43.6386C158.338 46.3583 158.318 46.2795 159.348 45.7402C159.654 45.58 160.452 45.2731 161.122 45.0585C161.791 44.844 162.183 44.6621 161.994 44.6543C161.478 44.6326 162.809 43.7717 163.358 43.7714C163.594 43.7714 163.815 43.689 163.848 43.5888C163.882 43.4889 164.286 43.3702 164.747 43.3251C165.208 43.2799 165.824 43.1194 166.115 42.9687C166.522 42.7583 166.675 42.7442 166.776 42.9072C166.877 43.0715 167.078 43.0595 167.666 42.8535C168.083 42.7071 168.581 42.5849 168.772 42.582C169.378 42.5727 170.49 42.2761 171.091 41.9628C171.631 41.6814 171.713 41.6799 172.266 41.9423C172.593 42.0978 172.937 42.1784 173.028 42.122C173.232 41.9976 174.533 42.8359 174.665 43.1767C174.716 43.3121 174.876 43.4236 175.019 43.4238C175.378 43.4238 175.639 43.9736 175.639 44.7275C175.639 45.5778 175.369 46.0309 174.862 46.0312C174.632 46.0312 174.406 46.0903 174.362 46.1621C174.289 46.2785 173.618 46.2843 171.379 46.1865C170.642 46.1545 166.382 46.5373 166.274 46.6455C166.241 46.6825 166.76 47.2537 167.427 47.916L168.643 49.122L169.403 48.956C170.421 48.7341 172.55 48.3283 173.727 48.1308C174.253 48.0425 174.926 47.8818 175.223 47.7744C175.52 47.6671 175.834 47.599 175.919 47.623C176.226 47.7083 177.377 47.4034 177.378 47.2363C177.378 47.1391 177.846 47.0808 178.465 47.1015C179.415 47.133 179.631 47.208 180.184 47.6972C180.532 48.0046 180.965 48.3034 181.147 48.3613C181.863 48.5885 183.449 50.9548 183.459 51.8125C183.461 51.9588 183.33 52.2144 183.156 52.4179L183.001 52.5859C182.826 52.7941 182.69 53.0707 182.687 53.2412C182.678 53.7385 181.555 54.2576 180.625 54.1943C179.06 54.0877 177.211 54.1362 175.475 54.3291C174.415 54.4468 173.548 54.4675 173.389 54.3789C173.152 54.2458 173.151 54.2161 173.379 54.1445C173.748 54.0289 175.272 53.5242 175.944 53.2949C176.255 53.1888 176.509 52.9881 176.509 52.8496C176.507 52.4402 172.406 52.6557 170.953 53.1416C170.335 53.3477 169.778 53.6002 169.715 53.7021C169.652 53.8071 169.587 54.9335 169.57 56.208C169.518 60.1078 168.64 67.1258 167.977 68.9453C167.793 69.4509 167.642 70.125 167.642 70.4433C167.642 70.7615 167.485 71.2206 167.293 71.4638C167.102 71.7069 166.946 72.0797 166.946 72.2919C166.945 72.5045 166.561 73.1959 166.091 73.8291C165.4 74.7612 165.003 75.105 164.006 75.6328C163.329 75.9913 162.576 76.2839 162.333 76.2841C161.787 76.2841 161.035 75.8106 161.035 75.4658C161.034 75.136 160.52 74.4657 159.166 73.0263C158.568 72.3916 158.079 71.8284 158.078 71.7744C158.077 71.7208 157.842 71.5436 157.556 71.3808C157.27 71.2179 157.036 70.9549 157.036 70.7968C157.035 70.6385 156.818 70.2249 156.552 69.8769C155.919 69.0476 155.557 68.3169 155.705 68.1689C155.77 68.1039 156.098 68.1821 156.435 68.3427C156.772 68.5031 157.23 68.6346 157.455 68.6347C157.679 68.6347 157.961 68.7528 158.081 68.8974C158.201 69.0419 158.66 69.3199 159.101 69.5156C160.994 70.355 162.061 69.2075 162.845 65.4892C162.995 64.7808 163.236 63.8171 163.38 63.3476C163.525 62.8782 163.643 62.1343 163.644 61.6953C163.645 61.2563 163.718 60.4281 163.806 59.8544C163.894 59.2807 164.014 58.213 164.073 57.4824C164.131 56.752 164.243 55.7523 164.321 55.2607C164.399 54.7692 164.405 54.3318 164.335 54.289C164.265 54.2466 163.553 54.4529 162.752 54.748C161.951 55.0435 160.826 55.4221 160.252 55.5898C159.151 55.9115 156.655 56.9419 154.504 57.9628C153.796 58.299 153.137 58.5249 153.04 58.4648C152.596 58.1903 152.925 58.9711 153.428 59.3857C156.061 61.5541 157.44 63.3858 157.663 65.0078C157.754 65.6767 157.706 65.8551 157.307 66.3291C157.054 66.6301 156.674 66.9295 156.463 66.9941C156.252 67.0583 155.962 67.2136 155.819 67.3388C155.426 67.6817 153.935 68.1444 153.583 68.0332C153.005 67.8499 152.207 66.8956 151.941 66.0683C151.795 65.615 151.621 64.6967 151.555 64.0273C151.41 62.5513 151.029 61.2853 150.475 60.4394C150.015 59.7367 150.145 59.7402 147.734 60.3681C147.168 60.5156 146.532 60.6366 146.32 60.6367C145.826 60.6367 144.817 59.7941 144.937 59.4824C144.988 59.3487 144.917 59.2453 144.773 59.2451C144.403 59.2451 144.459 58.8441 144.865 58.5908C145.056 58.4713 145.212 58.2587 145.212 58.1191C145.212 57.9269 145.054 57.9688 144.561 58.291C144.203 58.5253 143.831 58.7972 143.735 58.8955C143.639 58.9935 143.29 59.3275 142.959 59.6376C142.629 59.9477 142.092 60.4697 141.767 60.7978C141.292 61.2778 140.987 61.4211 140.206 61.5273C139.362 61.6417 139.117 61.602 138.354 61.2275C137.051 60.5879 136.172 59.9229 136.171 59.5771C136.171 59.4089 135.935 59.0861 135.647 58.8603C135.186 58.4999 135.109 58.3095 135.015 57.3056L134.909 56.1621L136.222 55.5302C137.698 54.8205 137.832 54.792 137.973 55.1591C138.121 55.5441 138.615 55.4822 140.123 54.8867C141.577 54.3124 142.829 53.6474 143.387 53.1533C143.578 52.9841 144.634 52.3809 145.734 51.8134C146.834 51.2459 148.047 50.6149 148.429 50.4111C149.729 49.7186 151.209 49.0402 151.907 48.8173C152.857 48.5135 154.717 47.6164 154.916 47.3662C155.136 47.0871 155.352 43.9453 155.151 43.9453C154.891 43.9461 153.365 44.8319 152.37 45.5595C151.86 45.9325 151.211 46.3044 150.927 46.3857C150.185 46.5985 149.171 46.0894 147.887 44.8593C146.775 43.7932 146.209 42.7842 145.994 41.4873C145.924 41.0701 145.793 40.5878 145.703 40.415C145.612 40.2423 145.505 39.6549 145.465 39.1103C145.426 38.5657 145.344 37.59 145.285 36.9423C145.172 35.7166 145.403 33.9811 145.85 32.6953C145.99 32.2935 146.132 31.4333 146.166 30.7832C146.25 29.1627 146.593 28.1817 147.221 27.7675C148.003 27.2525 148.557 27.325 148.938 27.9921C149.305 28.6353 150.08 29.5136 150.28 29.5136C150.354 29.5133 150.828 29.265 151.333 28.9619C151.84 28.6585 152.645 28.201 153.124 27.9453C153.602 27.6895 154.452 27.1986 155.013 26.8535C155.574 26.5085 156.122 26.1961 156.23 26.1601C156.416 26.0949 156.65 23.0857 156.469 23.081C156.322 23.081 153.201 24.4125 150.308 25.7099C148.884 26.3485 148.508 26.1868 145.952 23.8339C145.259 23.1962 144.692 22.5797 144.691 22.4638C144.691 22.3486 144.574 22.1572 144.43 22.038C144.287 21.9189 144.169 21.6707 144.169 21.4873C144.169 21.3037 144.004 20.9298 143.801 20.6562C143.599 20.3824 143.483 20.0781 143.543 19.9794C143.604 19.8809 144.064 19.673 144.564 19.5175C145.064 19.3621 145.571 19.1944 145.69 19.1445C145.812 19.0934 145.98 19.249 146.077 19.5029C146.275 20.0235 146.352 20.0343 147.44 19.7011C147.888 19.5638 148.823 19.2834 149.516 19.0781C150.209 18.8728 150.777 18.6383 150.777 18.5566C150.777 18.4749 150.913 18.4127 151.081 18.4179C151.248 18.4231 151.854 18.2596 152.428 18.0556C153.002 17.8516 154.215 17.4445 155.124 17.1503C156.031 16.8563 156.918 16.4769 157.095 16.3066C157.286 16.1225 157.475 15.5826 157.562 14.9746C157.643 14.4125 157.793 13.6002 157.897 13.1699C158.001 12.7395 158.12 11.9376 158.163 11.3876C158.243 10.3406 159.176 6.32019 159.507 5.5937C159.613 5.36215 159.769 5.17287 159.854 5.17281ZM154.902 52.2919C155 51.1283 154.903 51.0463 153.992 51.5214C151.888 52.618 148.86 54.544 147.894 55.4003C147.505 55.7456 146.815 56.3298 146.362 56.6982C145.91 57.0657 145.585 57.4129 145.638 57.4697C145.694 57.525 145.832 57.4773 145.945 57.3642C146.058 57.2512 146.267 57.1594 146.409 57.1591C146.551 57.1591 146.828 57.0121 147.026 56.833C147.223 56.6537 147.855 56.3382 148.428 56.1318C149.002 55.9257 149.705 55.647 149.993 55.5126C151.696 54.7156 153.369 54.034 153.85 53.9404C154.614 53.7919 154.8 53.5 154.902 52.2919ZM163.608 48.2832C163.229 47.7713 163.166 47.7479 162.511 47.8808C159.979 48.3951 158.234 49.1287 157.914 49.8125C157.79 50.0757 157.624 50.4209 157.543 50.58C157.351 50.9623 157.134 52.6353 157.276 52.6386C157.338 52.6383 157.523 52.5668 157.689 52.4804C158.245 52.1905 160.117 51.4222 160.27 51.4209C160.353 51.4204 160.812 51.2728 161.292 51.0918C162.507 50.6329 163.63 50.3963 163.743 50.5751C163.988 50.9723 164.118 50.6348 164.056 49.7617C164.011 49.1267 163.858 48.6211 163.608 48.2832ZM156.04 36.5986C156.204 36.1603 155.689 36.2299 154.965 36.7441C154.641 36.9747 154.246 37.1637 154.087 37.164C153.93 37.1643 153.72 37.2458 153.621 37.3447C153.5 37.4651 153.292 37.4678 152.994 37.3544C152.748 37.2613 152.324 37.2447 152.052 37.3173C151.519 37.46 151.531 37.4012 151.614 39.4677C151.634 39.9687 151.711 40.4746 151.785 40.5927C151.877 40.7366 152.559 40.1822 153.922 38.8544C155.024 37.7814 155.976 36.7658 156.04 36.5986ZM167.145 25.9804C167.081 25.951 166.561 25.9899 165.989 26.0673C165.415 26.1451 164.476 26.3923 163.903 26.6171C163.329 26.8419 162.486 27.1265 162.029 27.25C161.573 27.3732 161.158 27.5425 161.106 27.625C161.055 27.7074 160.864 27.7752 160.682 27.7753C160.222 27.7756 160.05 28.1862 159.908 29.624L159.786 30.8652L160.97 30.872C161.652 30.8759 162.179 30.9582 162.217 31.0654C162.252 31.168 162.411 31.2522 162.57 31.2529C163.062 31.2549 163.798 31.9984 163.852 32.5468C163.896 32.9982 163.782 33.1383 162.881 33.7392C162.32 34.1137 161.384 34.6666 160.802 34.9677C159.613 35.5833 159.514 35.7738 159.487 37.4716C159.47 38.5173 159.485 38.5578 159.86 38.4658C160.075 38.4129 160.713 38.3448 161.277 38.3154C162.126 38.2711 162.353 38.1907 162.601 37.8437C163.188 37.0233 165.38 32.4001 165.38 31.9834C165.381 31.8819 165.548 31.4235 165.752 30.9628C166.073 30.238 166.545 28.7197 167.107 26.6005C167.189 26.2905 167.206 26.0122 167.145 25.9804ZM156.208 30.4072C156.135 30.4213 155.501 30.7293 154.798 31.0927C153.486 31.7716 152.753 32.0162 151.992 32.0283C151.578 32.0348 151.556 32.0901 151.506 33.2089C151.468 34.0804 151.513 34.3813 151.68 34.3798C151.99 34.3757 152.897 34.0249 154.339 33.3515C155.008 33.0394 155.732 32.7151 155.948 32.6308C156.293 32.4958 156.339 32.3552 156.339 31.4306C156.339 30.8557 156.28 30.3957 156.208 30.4072Z" fill="#121212"/>
<path d="M31.4155 42.0213C32.0892 41.5142 32.1545 41.5004 33.4985 41.5985C34.9832 41.7068 35.8706 42.0743 35.9497 42.6131C35.9754 42.7888 36.1149 43.0629 36.2593 43.2225C36.5948 43.5933 36.6078 48.1911 36.2788 50.1805C36.158 50.9109 36.0096 52.0405 35.9487 52.6903L35.8384 53.8709L36.2417 53.6063C36.714 53.2966 38.1316 51.6867 38.439 51.1102C38.765 50.4983 39.4981 45.5212 39.3501 44.9246C39.3297 44.8416 39.3878 44.5287 39.479 44.2293C39.5703 43.9297 39.6961 43.3818 39.7583 43.0125C39.8667 42.3688 39.8936 42.3464 40.4165 42.451C40.7164 42.511 41.1494 42.7344 41.3784 42.9481C41.9407 43.4727 42.478 44.5569 42.3462 44.9002C42.2825 45.0668 42.3672 45.2729 42.5571 45.4119C42.8242 45.6073 42.8813 45.9224 42.9097 47.3592C42.93 48.3782 42.8473 49.4299 42.7056 49.951C42.4446 50.9114 42.0644 53.2322 41.6802 56.2059C41.544 57.2596 41.385 58.3883 41.3276 58.7137C41.2169 59.3425 40.8259 59.7524 40.3276 59.7616C39.998 59.7676 39.0914 58.6258 38.7144 57.7293C38.233 56.584 38.2429 53.6325 38.7329 52.0741C38.7866 51.9035 38.739 51.7694 38.6255 51.7694C38.2973 51.7701 37.4486 52.78 36.9663 53.744C36.7203 54.2358 36.3741 54.7949 36.1968 54.9862C35.7774 55.4386 35.5616 56.426 35.3228 58.9852C35.1113 61.2497 34.6472 63.5706 34.1587 64.8114C33.7906 65.7461 33.3744 66.373 32.5229 67.2723C32.0141 67.8096 31.7672 67.9393 31.2534 67.9393C30.4911 67.9392 29.6737 67.5506 29.5298 67.1199C29.4725 66.9489 29.3543 66.691 29.2671 66.5477C28.8732 65.9005 28.6827 65.3332 28.7769 65.0877C28.8702 64.8447 28.5696 63.0286 28.2778 62.0711C28.1368 61.609 28.4099 61.5637 29.0688 61.9403C29.3079 62.0769 29.639 62.1917 29.8052 62.1951C30.1329 62.2017 30.5517 61.3717 30.8101 60.202C31.2861 58.0469 31.4374 57.1399 31.3325 57.075C31.1871 56.9856 29.7224 58.1826 28.9253 59.0428C28.6009 59.3931 27.6443 60.3957 26.7993 61.2703C25.9546 62.1448 25.1459 63.1406 25.0024 63.4832C24.7293 64.1371 23.8338 64.8099 23.2437 64.8045C22.6028 64.7983 21.5923 63.641 21.5923 62.9129C21.5922 62.724 21.519 62.5245 21.4302 62.4696C21.3412 62.4139 21.2158 61.9436 21.1509 61.4237C21.0106 60.3006 21.1547 59.5787 22.2163 56.0926C22.3512 55.6496 22.4614 55.1596 22.4614 55.0037C22.4614 54.8481 22.5375 54.5848 22.6304 54.4188C22.8197 54.081 23.7563 51.1517 24.478 48.6395C25.0981 46.4818 25.1758 45.6511 24.8267 44.9149C24.4659 44.155 24.473 44.0743 24.939 43.6483C25.5756 43.0662 26.3368 42.7583 26.9839 42.8211C27.3173 42.8535 27.6923 42.8844 27.8169 42.8905C27.9414 42.8965 28.1251 43.1368 28.2251 43.4237C28.4469 44.06 28.9281 44.1084 29.4683 43.5487C29.6788 43.3305 30.0466 43.0144 30.2856 42.8475C30.5248 42.6804 31.0332 42.3091 31.4155 42.0213ZM27.7554 53.2811C27.1948 52.7612 27.0091 52.7068 26.9019 53.0291C26.8622 53.1487 26.6016 53.9118 26.3228 54.7244C25.8163 56.2013 25.5059 57.5067 25.6606 57.5067C25.7094 57.5042 26.3181 57.1259 27.0161 56.6639C27.7162 56.2004 28.5411 55.6903 28.8491 55.5311C29.1574 55.3719 29.6883 55.0531 30.0288 54.8221C30.3691 54.5912 30.899 54.3479 31.2065 54.2821C31.514 54.2162 31.8644 54.0844 31.9839 53.9881C32.2439 53.7782 32.272 53.0505 32.0259 52.8983C31.8424 52.7857 30.9739 53.0276 29.9409 53.4793C29.0185 53.8829 28.3375 53.8208 27.7554 53.2811ZM32.7583 46.2049C32.6781 46.205 32.3122 46.4716 31.9458 46.7977C31.2364 47.4288 30.85 47.4664 29.4448 47.0389C28.671 46.8036 28.4322 47.056 27.9302 48.6395C27.5983 49.686 27.5767 49.8937 27.7896 49.9754C27.9283 50.0286 28.1818 49.945 28.353 49.7899C28.8441 49.3463 30.6554 49.4092 31.5083 49.8992C32.5331 50.4888 32.7328 50.1973 32.8286 47.9657C32.8701 46.9976 32.8384 46.2052 32.7583 46.2049Z" fill="#121212"/>
<path fill-rule="evenodd" clip-rule="evenodd" d="M53.6564 76.3453C53.1777 76.5111 52.8511 76.773 52.9303 76.9273C53.0098 77.0813 53.4609 76.9824 53.9333 76.7071C55.3264 75.895 55.2491 75.7935 53.6564 76.3453Z" fill="#121212"/>
<path fill-rule="evenodd" clip-rule="evenodd" d="M92.3187 78.4544C91.8218 78.9842 91.8061 79.0803 92.1691 79.3779C92.3194 79.501 92.7254 80.1425 93.0713 80.8032C93.6433 81.8954 93.7005 82.1304 93.7009 83.3828C93.701 84.6358 93.6543 84.827 93.1864 85.4922C92.5172 86.4432 92.2434 86.9164 92.3188 86.9909C92.4176 87.0885 93.7496 86.374 94.5672 85.7849C95.7133 84.9593 96.5462 84.4736 96.8161 84.4736C96.9497 84.4736 97.4941 84.0437 98.0261 83.5181C98.9323 82.6229 98.9859 82.5243 98.878 81.956C98.5452 80.2038 97.6235 79.2211 95.5978 78.459C93.9744 77.8485 92.8886 77.8469 92.3187 78.4544Z" fill="#121212"/>
<path fill-rule="evenodd" clip-rule="evenodd" d="M107.907 78.1198C107.664 78.402 107.63 79.3557 107.855 79.6258C108.035 79.843 108.007 80.2584 107.666 82.4427C107.64 82.6093 107.563 82.7997 107.494 82.8659C107.425 82.9321 107.368 83.121 107.368 83.2855C107.368 83.5661 105.6 86.2994 104.539 87.6578C103.475 89.0199 102.626 90.4138 102.511 90.9862C102.482 91.1307 102.406 91.4577 102.344 91.713C102.25 92.0928 102.356 92.3002 102.93 92.8567C103.316 93.2305 103.856 93.6736 104.131 93.8409C104.585 94.1175 104.691 94.1213 105.28 93.8847C105.638 93.7412 106.582 93.1924 107.378 92.6649C108.704 91.7872 108.827 91.7394 108.827 92.0991C108.827 92.3152 108.519 92.8071 108.143 93.192C104.96 96.4514 102.994 98.6429 102.994 98.9314C102.994 99.0579 102.75 99.3911 102.452 99.672C101.644 100.434 101.73 100.904 102.874 101.964C104.604 103.57 105.896 103.601 107.747 102.082C108.257 101.664 108.75 101.322 108.843 101.322C108.941 101.322 108.963 101.747 108.896 102.329C108.748 103.618 107.932 105.124 106.67 106.434C105.531 107.617 104.758 107.877 103.971 107.341C103.708 107.162 103.348 106.933 103.171 106.833C102.995 106.733 102.716 106.544 102.553 106.414C102.101 106.053 101.986 106.329 102.228 107.198C102.348 107.63 102.449 108.278 102.451 108.638C102.453 109.016 102.605 109.477 102.811 109.73C103.007 109.971 103.17 110.267 103.172 110.387C103.174 110.508 103.26 110.606 103.362 110.606C103.464 110.606 103.642 110.803 103.756 111.044C103.87 111.285 104.104 111.482 104.277 111.482C104.449 111.482 104.692 111.6 104.816 111.745C105.127 112.105 106.154 112.078 106.496 111.701C106.649 111.533 107.194 110.641 107.706 109.721C108.485 108.32 108.765 107.978 109.416 107.629C110.593 106.997 112.837 104.84 112.837 104.34C112.837 103.818 111.648 102.267 110.238 100.948L109.736 100.479L110.308 100.016C110.623 99.7614 111.208 99.3926 111.608 99.1963L112.336 98.8396L112.206 99.6864C112.134 100.152 111.952 100.666 111.8 100.829C111.649 100.991 111.579 101.208 111.645 101.311C111.853 101.633 112.483 101.516 113.82 100.907C114.533 100.582 115.526 100.266 116.027 100.205C117.394 100.038 117.838 99.6433 117.905 98.5374C117.954 97.7304 117.888 97.5333 117.318 96.787C116.573 95.8115 115.619 95.1304 114.364 94.6782C112.592 94.0397 112.714 94.0092 112.568 95.1274C112.469 95.8894 112.316 96.2434 111.923 96.6217C111.639 96.8944 111.276 97.1174 111.117 97.1174C110.958 97.1174 109.803 97.5848 108.551 98.1561C107.299 98.7271 106.275 99.1546 106.275 99.1057C106.275 98.9456 108.472 96.4291 108.735 96.2874C109.618 95.8123 116.251 89.5786 116.892 88.6212C117.638 87.506 117.686 86.936 117.083 86.3493C116.376 85.6626 114.817 85.0301 113.83 85.0301C113.112 85.0301 112.988 85.0875 112.828 85.491C112.435 86.4839 111.857 86.9686 109.717 88.0999C108.508 88.739 107.479 89.2237 107.43 89.1771C107.333 89.0835 109.29 87.0434 110.786 85.6774C111.313 85.197 111.743 84.6972 111.743 84.5667C111.743 84.4362 111.846 84.3288 111.971 84.3281C112.097 84.3276 112.691 83.8429 113.293 83.2511C114.309 82.2517 114.386 82.1182 114.386 81.3692C114.386 80.7511 114.265 80.4097 113.863 79.9061C113.576 79.5449 113.193 79.2492 113.013 79.2492C112.833 79.2492 112.657 79.1901 112.624 79.1178C112.59 79.0454 112.34 78.7977 112.068 78.5672C111.646 78.2095 111.317 78.1322 109.822 78.0394C108.658 77.9672 108.016 77.9942 107.907 78.1198Z" fill="#121212"/>
<path fill-rule="evenodd" clip-rule="evenodd" d="M81.4017 83.1859C81.1383 83.4064 81.1101 83.5866 81.2076 84.4234C81.3798 85.8989 80.9252 86.9975 79.2049 89.2629C78.4223 90.2936 77.3788 91.5862 76.8862 92.1356C76.3937 92.685 75.858 93.3598 75.696 93.6353C75.3421 94.2372 74.5905 95.1063 74.1143 95.464C73.9238 95.6071 73.6439 95.982 73.4921 96.2974C73.3404 96.6129 73.1358 96.8708 73.0374 96.8708C72.7349 96.8708 73.0458 98.1279 73.561 98.988C74.1313 99.9399 74.8976 100.618 75.7389 100.915C76.3184 101.119 76.4111 101.099 77.1831 100.59C77.6367 100.291 78.0436 100.047 78.0875 100.047C78.1311 100.047 78.5282 99.7687 78.9696 99.4291C79.8435 98.7567 80.3797 98.5868 79.9436 99.1203C79.8048 99.2901 79.3361 100.064 78.9019 100.841C78.4677 101.617 78.0693 102.292 78.0166 102.34C77.9637 102.389 77.8464 102.555 77.7558 102.71C77.0447 103.924 76.2604 104.839 75.8575 104.926C75.4128 105.021 75.4036 105.048 75.4344 106.174C75.4652 107.301 75.4809 107.338 76.1989 108.003C76.6021 108.376 77.1758 108.77 77.4737 108.879C78.0952 109.105 77.8535 109.252 80.5433 107.02C82.0099 105.803 83.4854 104.81 83.8282 104.81C83.8623 104.81 83.8357 105.13 83.7688 105.522C83.6709 106.095 83.7009 106.264 83.922 106.391C84.222 106.563 84.8799 106.162 86.3716 104.898C87.4654 103.972 87.6786 103.457 87.3114 102.628C86.836 101.555 85.2149 100.05 84.5318 100.048C84.2762 100.047 84.24 100.138 84.3217 100.576C84.514 101.605 84.2469 101.905 82.1303 103.042C81.0411 103.626 80.0154 104.105 79.8508 104.105C79.6864 104.105 79.4628 104.2 79.354 104.316C79.2003 104.481 79.1563 104.464 79.1563 104.242C79.1563 103.863 80.862 102.247 81.7782 101.758C82.5223 101.361 83.6188 100.083 86.6538 96.0769C87.1684 95.3976 87.7291 94.7607 87.8998 94.6616C88.0705 94.5624 88.387 94.2245 88.6032 93.9108C89.0798 93.2191 89.0129 92.5633 88.4236 92.1497C87.8047 91.7155 86.2841 91.2077 85.3886 91.1364C84.6425 91.077 84.5878 91.1019 84.4893 91.5459C84.338 92.2291 84.022 92.552 82.885 93.1854C82.3295 93.4946 81.7637 93.8122 81.6278 93.8907C80.6349 94.465 79.3211 95.0628 79.3211 94.9403C79.3211 94.5019 83.2583 90.8859 84.7677 89.938C85.4518 89.5083 86.5607 88.2795 87.0181 87.4443C87.4241 86.7029 87.2666 86.2879 86.0836 84.9815C85.0032 83.7884 84.8682 83.6972 83.7356 83.3943C81.9713 82.9223 81.7413 82.9017 81.4017 83.1859Z" fill="#121212"/>
<path fill-rule="evenodd" clip-rule="evenodd" d="M49.541 87.6752C49.5961 89.0073 49.5383 89.5791 49.2593 90.4672C48.7707 92.0227 46.5789 97.1706 45.7658 98.672C45.3946 99.3573 45.0909 100.041 45.0909 100.191C45.0909 100.341 44.941 100.651 44.758 100.88C44.5749 101.109 44.061 102.148 43.6159 103.19C43.1709 104.232 42.5832 105.565 42.3099 106.152C42.0367 106.739 41.638 107.62 41.4241 108.109C41.2103 108.599 40.9245 109.041 40.7891 109.092C40.6535 109.143 40.5416 109.284 40.5402 109.405C40.536 109.745 38.8498 113.279 38.4429 113.8C37.7721 114.659 35.7833 117.686 35.6303 118.081C35.5468 118.297 35.4083 118.473 35.3226 118.473C35.2367 118.473 34.9703 118.763 34.7304 119.118C34.4906 119.472 33.9882 120.101 33.6139 120.516C33.2397 120.93 32.509 121.742 31.9904 122.32C28.314 126.414 24.7525 129.372 21.2132 131.27C20.7321 131.528 20.2383 131.819 20.1157 131.917C19.7863 132.181 19.7179 132.014 19.8834 131.35C19.9645 131.025 20.1274 130.217 20.2456 129.556C20.508 128.085 20.75 127.142 21.0391 126.463C21.1598 126.179 21.4278 125.406 21.6347 124.745C21.8417 124.083 22.1599 123.078 22.342 122.511C22.5239 121.944 22.7772 121.028 22.9051 120.475C23.0622 119.796 23.2507 119.414 23.4872 119.295C23.6797 119.199 24.1236 118.851 24.4737 118.523C25.1324 117.904 26.9725 116.549 28.6476 115.449C29.1768 115.101 30.2587 114.383 31.052 113.853C32.9392 112.592 33.8239 112.048 34.7065 111.607C35.1046 111.408 35.6005 111.1 35.8087 110.923C36.1673 110.617 36.1734 110.568 35.925 109.984C35.7807 109.645 35.5799 109.367 35.4788 109.367C35.3777 109.367 35.2949 109.27 35.2948 109.152C35.2944 108.804 33.5059 107.585 32.9776 107.574C32.7135 107.568 32.4852 107.524 32.4705 107.477C32.4243 107.329 33.9518 104.307 34.1642 104.127C34.2756 104.032 34.5559 103.647 34.7871 103.27C35.0182 102.893 35.2862 102.457 35.3824 102.3C35.4786 102.143 36.0233 101.195 36.5929 100.193C37.1626 99.1907 37.6869 98.3708 37.7583 98.3708C37.8296 98.3708 38.2017 97.9196 38.585 97.368C38.9683 96.8165 39.4869 96.148 39.7374 95.8825C40.3045 95.2815 40.3107 94.8076 39.7652 93.7504C39.1813 92.6187 37.861 91.5034 36.5002 90.9926C35.8855 90.7617 35.2271 90.4718 35.0373 90.3483C34.5461 90.0284 34.1747 90.0693 33.7914 90.4854C33.6081 90.6845 33.1673 90.9933 32.8116 91.1715C32.456 91.3498 32.1018 91.5989 32.0245 91.7251C31.669 92.3051 29.0629 93.7814 23.5747 96.5117C19.1612 98.7074 17.9214 98.9766 16.1472 98.1239C15.6431 97.8818 15.1993 97.6837 15.1606 97.6838C15.1221 97.684 15.0728 98.1544 15.0509 98.7293C15.0076 99.8707 15.4872 101.12 15.9688 101.12C16.1112 101.12 16.2277 101.268 16.2277 101.448C16.2277 101.956 18.6233 104.193 19.6699 104.664C21.214 105.357 22.734 105.177 24.3486 104.109C24.9052 103.741 25.7655 103.194 26.2606 102.894C26.7558 102.594 27.3575 102.201 27.5981 102.021C28.3282 101.474 29.8459 100.693 29.9603 100.806C30.0194 100.864 29.8658 101.287 29.6187 101.746C28.8448 103.184 26.3736 108.283 26.3736 108.442C26.3736 108.79 22.5106 111.584 21.2391 112.156C20.8686 112.322 20.3312 112.652 20.045 112.889C19.333 113.477 18.9678 113.434 17.6744 112.606C16.8818 112.099 16.506 111.946 16.3725 112.077C16.2695 112.178 16.0645 112.216 15.917 112.16C15.691 112.075 15.6674 112.178 15.7668 112.818C16.0853 114.869 16.4499 116.7 16.5931 116.968C16.6808 117.132 16.7525 117.352 16.7525 117.457C16.7525 117.561 16.9297 117.89 17.1461 118.187C17.8885 119.204 17.9464 119.401 17.7155 120.123C17.5976 120.492 17.364 121.218 17.1964 121.738C16.9342 122.55 16.368 124.629 15.7221 127.15C15.6252 127.528 15.5009 128.117 15.4458 128.46C15.3907 128.802 15.1877 129.261 14.9948 129.479C14.8017 129.698 14.6154 130.036 14.5806 130.231C14.5458 130.427 14.3825 131.3 14.2179 132.172L13.9185 133.758L14.6588 135.179C15.7131 137.202 16.2373 138.06 16.4192 138.06C16.5064 138.06 16.5775 138.161 16.5775 138.283C16.5775 138.68 17.8675 139.736 18.5018 139.857C20.5194 140.245 20.5985 140.227 21.7379 139.131C22.8013 138.109 24.65 136.132 25.7073 134.888C26.0256 134.513 26.4829 134.01 26.7236 133.771C26.9641 133.531 27.3923 133.001 27.6752 132.592C27.9579 132.183 28.3698 131.68 28.5904 131.475C28.811 131.27 28.9928 130.966 28.9945 130.801C28.9961 130.636 29.0584 130.501 29.1327 130.501C29.2071 130.501 29.4161 130.23 29.5975 129.899C29.7789 129.568 29.9935 129.298 30.0745 129.298C30.1557 129.298 30.222 129.208 30.222 129.099C30.222 128.99 30.4188 128.647 30.6593 128.338C30.8998 128.028 31.0966 127.706 31.0966 127.623C31.0966 127.54 31.3328 127.25 31.6214 126.978C31.9101 126.707 32.1462 126.386 32.1462 126.265C32.1462 126.144 32.3824 125.781 32.671 125.458C32.9596 125.135 33.1958 124.827 33.1958 124.774C33.1958 124.72 33.4319 124.332 33.7206 123.912C34.0092 123.492 34.2454 122.995 34.2454 122.808C34.2454 122.62 34.3584 122.375 34.4966 122.262C34.6346 122.15 34.7971 121.836 34.8576 121.566C34.9181 121.296 35.0749 120.987 35.2061 120.88C35.3373 120.773 35.6404 120.323 35.8797 119.88C36.119 119.437 36.5172 118.727 36.7647 118.302C37.0122 117.876 37.3113 117.335 37.4294 117.099C37.5475 116.863 37.8116 116.399 38.0165 116.068C38.2213 115.737 38.5523 115.041 38.7519 114.522C38.9516 114.002 39.3055 113.157 39.5385 112.645L39.962 111.713L40.0775 112.28C40.141 112.591 40.1929 113.053 40.1929 113.305C40.1929 113.613 40.4191 113.981 40.8781 114.422C41.5537 115.07 41.5792 115.078 42.7049 115.007C43.9474 114.93 44.5632 114.576 44.57 113.937C44.5721 113.739 44.715 113.396 44.8875 113.176C45.5085 112.383 50.0724 109.057 53.3448 107.012C54.4759 106.305 58.5423 104.309 58.6451 104.41C58.7055 104.47 55.7952 107.429 54.9842 108.133C54.8868 108.218 54.1166 107.76 53.964 107.527C53.8262 107.317 53.5437 107.358 52.8294 107.695C52.5576 107.823 52.4654 107.978 52.5347 108.193C52.5901 108.365 52.5868 108.582 52.5273 108.677C52.4679 108.771 52.3855 109.371 52.3442 110.01C52.2975 110.734 52.0458 111.785 51.6754 112.803C50.8291 115.13 50.0113 117.3 49.8299 117.7C49.7444 117.889 49.358 118.74 48.9714 119.59C48.5848 120.441 48.2216 121.281 48.1644 121.457C48.0668 121.757 48.036 121.759 47.669 121.495C47.4537 121.34 46.7265 120.853 46.053 120.413C44.7782 119.58 43.8313 118.891 42.8545 118.087C42.5386 117.827 42.1016 117.614 41.8836 117.614C41.6657 117.614 41.4127 117.548 41.3212 117.468C41.171 117.336 39.207 116.755 38.9098 116.755C38.8421 116.755 38.8341 116.94 38.892 117.167C38.9497 117.393 39.0197 117.992 39.0473 118.498C39.1115 119.674 39.1773 119.813 40.162 120.856C40.6119 121.333 41.3737 122.193 41.8548 122.767C42.3358 123.342 42.8081 123.906 42.9043 124.021C43.0005 124.135 43.4587 124.797 43.9224 125.491C44.6718 126.612 44.7376 126.784 44.5137 127.037C44.3751 127.194 43.8278 127.94 43.2972 128.696C42.7668 129.452 41.9592 130.458 41.5024 130.93C41.0457 131.403 40.4751 132.079 40.2344 132.433C39.9935 132.788 39.7362 133.078 39.6624 133.078C39.5884 133.078 38.8708 133.703 38.0674 134.468C37.2641 135.233 35.9378 136.286 35.12 136.808C34.3022 137.331 33.4659 137.908 33.2614 138.091C32.833 138.474 30.6 139.258 29.6972 139.341C29.3605 139.372 28.9387 139.322 28.7601 139.229C28.5563 139.123 28.3735 139.12 28.27 139.222C28.0594 139.429 28.7153 139.862 29.4929 140.03C30.3527 140.216 34.7369 139.808 37.1317 139.32C39.7292 138.791 41.0008 138.154 43.0392 136.358C43.8538 135.641 44.8424 134.783 45.236 134.452C45.6294 134.122 45.9546 133.754 45.9584 133.636C45.9624 133.518 46.0798 133.421 46.2192 133.421C46.3588 133.421 46.5378 133.325 46.617 133.207C46.6963 133.089 47.2034 132.577 47.7441 132.071C48.4622 131.398 48.7973 131.19 48.9885 131.298C49.1325 131.379 50.4091 132.528 51.8257 133.851C53.2423 135.174 54.6427 136.45 54.9377 136.686C55.2328 136.922 55.8849 137.463 56.3868 137.889C56.8887 138.314 57.7602 138.928 58.3234 139.253C58.8867 139.578 59.8593 140.17 60.4847 140.569C61.2916 141.083 62.0622 141.397 63.1396 141.653C64.8065 142.048 65.4231 142.09 66.1875 141.86C66.4664 141.776 67.4425 141.617 68.3565 141.506C69.2705 141.395 70.2882 141.259 70.6183 141.204L71.2183 141.103L70.8175 140.785L70.4168 140.466H70.8385C71.0705 140.466 71.3507 140.377 71.4613 140.268C71.6126 140.12 71.7737 140.143 72.1134 140.362C72.5684 140.654 73.0052 140.593 72.799 140.265C72.7341 140.162 72.8479 140.172 73.072 140.29C73.2837 140.401 73.5807 140.446 73.7324 140.388C73.9748 140.297 73.9701 140.257 73.692 140.058C73.1642 139.679 73.5414 139.38 74.4015 139.496C74.9716 139.572 75.245 139.523 75.5355 139.292L75.9185 138.988L75.1551 138.747C74.0063 138.386 69.8673 136.692 69.6772 136.505C69.5857 136.416 69.3495 136.339 69.1524 136.334C68.9551 136.33 68.5183 136.178 68.1815 135.997C67.8448 135.816 67.3188 135.551 67.0127 135.407C66.7065 135.263 66.4097 135.071 66.3528 134.98C66.296 134.89 65.6804 134.534 64.9851 134.188C63.3862 133.394 62.7346 133.043 62.115 132.642C61.8437 132.466 61.2675 132.136 60.8345 131.91C60.4016 131.683 59.9887 131.397 59.917 131.274C59.8455 131.151 59.3391 130.802 58.7917 130.498C58.2444 130.195 57.7017 129.859 57.5858 129.751C57.1488 129.346 56.5505 128.892 54.8263 127.658C53.8494 126.959 52.8637 126.242 52.6358 126.065L52.2212 125.743L52.581 125.072C52.7791 124.703 53.1441 123.965 53.3925 123.432C53.6408 122.9 54.0219 122.204 54.2395 121.886C54.5988 121.361 56.5866 117.188 57.174 115.724C57.3181 115.366 57.4171 114.464 57.4194 113.491C57.4234 111.866 57.4197 111.852 56.5925 110.357C55.8038 108.931 55.5456 107.993 55.9419 107.993C56.0413 107.993 56.1722 107.857 56.2329 107.692C56.2936 107.527 56.7436 107.001 57.2331 106.525C57.7227 106.048 58.438 105.326 58.8228 104.919C59.2077 104.513 59.7194 104.082 59.9599 103.961C60.9769 103.449 63.1964 102.82 64.2904 102.735C65.6886 102.625 66.4811 102.292 66.9798 101.604C67.296 101.168 67.3295 100.953 67.2273 100.015C67.132 99.141 67.0351 98.8938 66.7268 98.7379C66.06 98.4008 65.3118 97.9539 64.7239 97.5414C64.1461 97.1363 63.566 97.1272 62.6713 97.5093C62.4789 97.5916 62.0221 97.7072 61.6562 97.7665C61.2904 97.8258 60.9474 97.9861 60.894 98.1225C60.8408 98.2591 60.6974 98.3708 60.5756 98.3708C60.3613 98.3708 59.0952 98.907 58.5605 99.2242C58.0511 99.5264 57.1045 99.9171 56.8817 99.9171C56.7576 99.9171 56.5493 100.067 56.419 100.25C56.2885 100.433 55.7527 100.745 55.2282 100.945C53.3973 101.641 50.3895 103.083 49.9452 103.478C49.7757 103.629 49.5884 103.704 49.5289 103.646C49.418 103.537 50.4592 101.464 51.92 98.8862C52.3751 98.083 52.8023 97.2483 52.8693 97.0316C53.056 96.4279 54.7108 93.7317 54.8948 93.7317C54.984 93.7317 55.1833 93.4419 55.3372 93.0874C55.6531 92.3606 55.6012 90.2409 55.2592 89.905C55.1507 89.7985 55.0619 89.5827 55.0619 89.4255C55.0619 89.1681 54.4381 88.548 52.7826 87.1597C52.4726 86.8998 52.1624 86.6872 52.0932 86.6872C52.0241 86.6872 51.8248 86.5326 51.6508 86.3436C51.4097 86.0819 51.112 86 50.403 86H49.4719L49.541 87.6752Z" fill="#121212"/>
<path fill-rule="evenodd" clip-rule="evenodd" d="M98.7425 86.1151C98.2372 86.2107 97.6208 86.4177 97.3729 86.5754C96.9126 86.868 95.7508 87.2895 92.0693 88.4997C90.9254 88.8756 89.9145 89.2536 89.8226 89.3397C89.7307 89.4257 89.4827 89.4961 89.2714 89.4961C88.8021 89.4961 88.8023 89.4741 89.263 90.283C89.4696 90.6458 89.9671 91.1544 90.3683 91.4129C91.0261 91.837 91.19 91.8749 92.0387 91.7993C92.5562 91.7532 93.1113 91.6664 93.2719 91.6061C93.9398 91.356 93.4629 91.887 91.7995 93.2453C90.829 94.0379 89.9888 94.8035 89.9325 94.9466C89.8762 95.0898 89.7706 95.2449 89.6976 95.2915C89.4396 95.4562 89.768 96.5172 90.2445 97.0587C90.5196 97.3714 90.9496 97.6533 91.2436 97.7139L91.7596 97.82L91.2421 98.3202C90.9575 98.5952 90.7223 98.9225 90.7193 99.0475C90.7119 99.364 90.3165 99.8201 90.0381 99.8333C89.9093 99.8394 89.9514 99.8976 90.1328 99.9641C90.3989 100.062 90.5161 99.9767 90.7645 99.5066C91.0204 99.0222 92.3071 97.9448 92.6298 97.9448C92.683 97.9448 94.2115 97.2825 96.0268 96.473C97.842 95.6637 99.6391 94.9546 100.021 94.8974C100.444 94.8338 100.754 94.6911 100.817 94.5308C100.873 94.3862 101.025 94.0986 101.154 93.8915C101.356 93.5676 101.355 93.4673 101.15 93.1743C101.019 92.9869 100.706 92.7357 100.453 92.6162C100.202 92.4967 99.816 92.2737 99.5969 92.1209C99.0223 91.72 98.0002 91.7626 97.3532 92.2143C97.0607 92.4184 96.0699 92.8149 95.1511 93.0953C94.2324 93.3757 92.8081 93.9104 91.9859 94.2836C91.1637 94.6567 90.4618 94.9346 90.4263 94.9013C90.3498 94.8296 90.3249 94.8442 94.0654 92.7877C95.6731 91.9037 97.1765 91.0496 97.4062 90.8897C98.1401 90.3782 102.411 88.5574 102.876 88.5574C102.899 88.5574 102.918 88.349 102.918 88.0943C102.918 87.5262 102.327 86.9722 101.165 86.4526C100.032 85.946 99.8047 85.9144 98.7425 86.1151Z" fill="#121212"/>
<path d="M211.608 77.1828C211.74 77.1674 212.131 77.394 212.477 77.6877C212.823 77.9817 213.889 78.8323 214.845 79.5773C217.735 81.8284 219.45 83.6349 219.452 84.4289C219.452 84.5575 219.609 84.8595 219.798 85.1008C219.988 85.3423 220.102 85.6085 220.05 85.6916C219.999 85.775 220.035 86.1264 220.13 86.4729C220.289 87.0465 220.251 87.1839 219.706 87.9963C219.124 88.8618 218.671 89.4279 217.339 90.9494C216.99 91.349 216.499 92.1052 216.249 92.6301C215.656 93.8735 214.743 95.4725 214.398 95.8742C214.035 96.2969 213.043 97.8567 212.317 99.1477C211.152 101.219 209.308 103.24 207.941 103.945C206.797 104.534 205.382 104.334 204.457 103.451C203.974 102.991 203.805 102.145 204.152 101.93C204.346 101.81 204.393 101.149 204.208 101.148C203.759 101.148 199.805 103.467 199.805 103.731C199.808 103.96 203.001 106.036 206.01 107.765C206.315 107.94 206.862 108.27 207.227 108.498C207.592 108.727 208.673 109.332 209.629 109.843C210.586 110.354 211.915 111.107 212.584 111.516C213.756 112.231 217.387 114.143 219.192 114.995C219.67 115.221 220.296 115.532 220.583 115.685C224.268 117.652 229.918 120.334 232.232 121.216C232.901 121.471 233.997 121.906 234.667 122.183C235.336 122.46 236.451 122.899 237.144 123.159C238.489 123.664 238.794 123.966 237.795 123.804C237.137 123.697 237.036 123.86 237.398 124.441C237.69 124.908 237.48 125.043 236.82 124.813C236.132 124.573 235.931 124.704 236.553 124.988C236.972 125.178 236.984 125.212 236.707 125.423C236.496 125.583 235.75 125.654 234.232 125.658C233.037 125.662 231.385 125.743 230.562 125.837C229.739 125.931 228.213 126.017 227.171 126.028C226.13 126.038 225.027 126.131 224.722 126.234C224.041 126.463 223.026 126.183 221.921 125.458C221.51 125.189 221.031 124.967 220.855 124.967C220.679 124.967 220.155 124.7 219.69 124.372C219.225 124.045 218.083 123.333 217.152 122.79C216.221 122.248 215.19 121.597 214.861 121.343C214.532 121.089 213.863 120.607 213.375 120.273C212.887 119.938 211.935 119.214 211.26 118.664C210.585 118.114 209.977 117.665 209.909 117.665C209.841 117.665 209.437 117.305 209.012 116.866C208.587 116.427 208.09 115.938 207.908 115.779C207.726 115.621 207.151 115.114 206.63 114.653C206.11 114.191 205.648 113.852 205.603 113.897C205.558 113.942 205.763 114.41 206.06 114.936C206.485 115.689 206.639 116.237 206.784 117.518C206.975 119.212 206.96 119.501 206.513 123.045C206.363 124.235 206.2 125.779 206.15 126.476C206.1 127.172 205.982 127.944 205.888 128.192C205.794 128.439 205.717 128.956 205.717 129.34C205.717 129.724 205.571 130.638 205.392 131.371C205.213 132.104 205.066 132.86 205.063 133.052C205.055 133.657 204.57 135.993 204.377 136.356C204.276 136.547 204.134 137.055 204.063 137.486C203.992 137.916 203.709 138.894 203.435 139.659C203.161 140.424 202.937 141.133 202.936 141.237C202.935 141.396 202.243 142.725 201.718 143.571C201.572 143.807 200.622 145.59 198.246 150.091C197.791 150.952 197.291 151.681 197.135 151.712C196.901 151.758 196.931 151.612 197.3 150.876C197.839 149.803 197.778 149.408 197.122 149.712C196.878 149.825 196.678 150.016 196.677 150.136C196.673 150.304 195.234 152.338 193.956 153.985C193.876 154.087 193.373 153.636 193.373 153.461C193.373 153.377 193.497 153.308 193.649 153.308C193.924 153.308 194.572 152.661 194.583 152.376C194.586 152.295 194.473 152.273 194.331 152.327C193.989 152.458 193.8 151.723 194.053 151.249C194.157 151.055 194.242 150.725 194.242 150.516C194.242 150.198 194.284 150.172 194.502 150.353C194.819 150.616 194.839 150.467 194.547 150.001C194.315 149.629 194.525 149.069 194.913 149.027C195.339 148.98 195.363 148.95 195.111 148.772C194.925 148.64 194.91 148.563 195.058 148.502C195.172 148.456 195.226 148.315 195.178 148.19C195.13 148.064 195.332 147.583 195.625 147.119C196.129 146.326 196.141 146.269 195.829 146.154C195.506 146.034 195.508 145.997 195.908 144.854C196.134 144.206 196.405 143.242 196.511 142.711C196.617 142.18 196.856 141.081 197.042 140.268C197.485 138.335 198.264 134.413 198.337 133.748C198.369 133.461 198.511 132.639 198.654 131.922C198.796 131.205 198.901 130.502 198.886 130.358C198.839 129.908 199.141 128.195 199.303 127.992C199.388 127.887 199.444 127.613 199.427 127.384C199.377 126.718 200.101 121.884 200.294 121.587C200.36 121.486 200.419 121.13 200.424 120.795C200.43 120.46 200.546 118.934 200.681 117.404C200.935 114.541 200.943 114.073 200.771 112.042L200.67 110.853L201.412 110.973C202.018 111.071 202.113 111.053 201.935 110.867C201.816 110.743 201.718 110.52 201.718 110.371C201.718 110.041 199.356 107.689 197.897 106.568L197.371 106.162L196.285 107.279C194.707 108.9 193.229 110.61 192.084 112.138L191.081 113.479L191.517 114.401C191.757 114.908 192.097 116.046 192.272 116.929C192.447 117.812 192.629 118.532 192.677 118.529C192.726 118.526 192.946 118.234 193.168 117.878C193.709 117.012 194.738 115.847 194.859 115.964C194.912 116.017 194.716 116.437 194.424 116.897C194.133 117.357 193.894 117.79 193.894 117.859C193.894 117.928 193.725 118.362 193.518 118.824C193.311 119.286 193.153 119.719 193.167 119.787C193.182 119.855 192.928 120.834 192.604 121.961C192.28 123.088 191.964 124.362 191.902 124.793C191.779 125.644 191.755 125.709 190.958 127.453C190.66 128.103 190.417 128.714 190.417 128.811C190.415 129.136 189.019 131.704 188.593 132.163C187.725 133.1 186.677 132.655 185.381 130.799C184.821 129.996 184.774 129.826 184.708 128.337C184.642 126.823 184.669 126.674 185.202 125.548C186.613 122.566 186.938 121.845 186.939 121.698C186.939 121.613 187.288 120.659 187.713 119.58C188.579 117.385 188.768 116.699 188.547 116.562C188.464 116.51 187.422 117.447 186.233 118.643C185.044 119.839 183.699 121.102 183.245 121.45C182.791 121.798 182.42 122.144 182.418 122.221C182.418 122.297 182.311 122.36 182.179 122.36C182.048 122.36 181.844 122.474 181.728 122.614C181.413 122.993 179.789 124.033 179.29 124.176C179.05 124.244 178.364 124.539 177.765 124.829C176.965 125.218 176.367 125.374 175.505 125.419C174.861 125.453 173.845 125.524 173.248 125.576C172.624 125.632 172.162 125.604 172.161 125.511C172.161 125.422 172.517 125.14 172.952 124.885C174.648 123.891 176.915 121.931 180.375 118.47C182.359 116.485 184.06 114.91 184.155 114.969C184.25 115.027 184.289 114.973 184.242 114.849C184.156 114.621 184.304 114.442 186.792 111.763C187.543 110.955 188.157 110.241 188.157 110.177C188.157 110.112 187.785 110.005 187.331 109.938C185.764 109.706 184.878 108.875 184.722 107.494L184.629 106.673L185.176 106.793C185.626 106.892 185.722 106.859 185.722 106.609C185.722 106.441 185.615 106.18 185.483 106.029C184.963 105.434 184.344 103.038 183.816 99.5822C183.656 98.5349 183.594 92.3351 183.725 90.5412C183.796 89.5664 183.824 85.9347 183.766 85.2609C183.713 84.6482 184.1 84.3602 184.755 84.5246C185.038 84.5955 186.04 85.455 187.204 86.6223C189.019 88.4448 189.184 88.6639 189.297 89.423C189.369 89.8977 189.337 90.6095 189.223 91.1027C188.961 92.2379 188.964 93.8449 189.228 93.8449C189.34 93.8446 189.79 93.621 190.228 93.3479C190.908 92.9243 192.746 91.8701 195.926 90.0803C196.566 89.72 196.666 89.5798 196.745 88.9318C196.963 87.1259 197.005 86.0305 196.859 85.9397C196.772 85.8859 196.011 86.2408 195.167 86.7277C193.121 87.9092 192.506 88.1162 191.868 87.8439C191.308 87.6053 191.078 87.3621 190.168 86.051C189.554 85.1655 189.538 85.1054 189.801 84.7033C189.983 84.4252 190.241 84.2825 190.56 84.2824C190.826 84.2824 191.353 84.0608 191.73 83.7902C192.107 83.5195 192.69 83.1933 193.025 83.0647C193.36 82.9362 193.841 82.6875 194.095 82.5129C194.349 82.3385 194.719 82.1955 194.917 82.1955C195.305 82.195 197.714 81.268 200.675 79.9797C201.679 79.5431 202.852 79.0867 203.283 78.965C203.713 78.8435 204.619 78.5491 205.296 78.3117C206.438 77.9115 209.04 77.4079 210.672 77.2707C211.055 77.2385 211.476 77.199 211.608 77.1828ZM195.218 96.5842C195.366 95.9329 195.162 95.9675 193.287 96.9172C191.806 97.6674 191.644 97.7101 190.266 97.716L188.811 97.7229L188.923 98.6096C189.297 101.544 189.354 102.344 189.254 103.3C189.119 104.604 188.996 104.676 191.885 101.763C194.143 99.4858 194.818 98.5971 194.995 97.6672C195.058 97.3345 195.159 96.8474 195.218 96.5842ZM210.884 82.4719C210.418 82.1768 206.326 81.9754 205.286 82.1965C202.566 82.7753 200.905 83.4225 201.142 83.8107C201.213 83.9269 201.447 84.2814 201.661 84.5979C202.149 85.3198 202.641 86.9764 202.5 87.423C202.375 87.8165 202.421 87.8247 203.308 87.5588C203.878 87.3879 204.028 87.4012 204.298 87.6457C204.473 87.804 204.678 87.9338 204.752 87.9338C205.017 87.9349 205.987 88.8642 206.367 89.4807C206.774 90.1426 206.875 90.8001 206.596 90.9729C206.491 91.0379 206.499 91.2307 206.619 91.4934C206.929 92.1736 206.697 92.4899 205.986 92.3566C205.443 92.2546 205.36 92.291 205.206 92.6965C205.061 93.0759 204.924 93.1496 204.368 93.1496C204.002 93.1497 203.613 93.2408 203.501 93.3518C203.39 93.4627 202.925 93.6783 202.467 93.8303L201.635 94.1057L201.344 95.3234C201.184 95.9927 201.047 96.7612 201.04 97.0305C201.027 97.4599 201.073 97.5048 201.417 97.3996C201.631 97.3337 201.899 97.2075 202.011 97.1184C202.143 97.0135 202.266 97.0359 202.359 97.1828C202.439 97.3078 202.738 97.5262 203.025 97.6682C203.312 97.8103 203.84 98.1557 204.199 98.4357C204.557 98.7158 204.883 98.9128 204.922 98.8732C205.106 98.6871 207.804 93.4177 207.806 93.2404C207.807 93.1877 208.009 92.7367 208.255 92.2365C209.011 90.7033 210.83 85.6815 211.011 84.6301C211.296 82.9739 211.282 82.7243 210.884 82.4719Z" fill="#5DB22B"/>
<path fill-rule="evenodd" clip-rule="evenodd" d="M98.7412 97.1924C98.6647 97.3016 98.2892 97.4902 97.9067 97.6117C97.5242 97.7333 97.133 97.9217 97.0374 98.0307C96.9418 98.1397 95.9247 98.6719 94.7772 99.2134C93.6297 99.7549 92.6127 100.249 92.517 100.311C92.1749 100.534 90.6197 100.943 90.0955 100.948C89.0105 100.958 88.4599 102.426 89.3958 102.813C90.2546 103.169 91.1006 103.031 92.7145 102.272C93.5621 101.874 94.373 101.462 94.5164 101.357C94.6599 101.251 95.5818 100.821 96.5653 100.4C98.3093 99.6541 98.383 99.6377 99.5448 99.7358C100.2 99.7911 101.101 99.7909 101.547 99.7353C102.264 99.6462 102.397 99.5654 102.69 99.0447C103.042 98.4168 102.999 98.2579 102.478 98.2579C102.299 98.2579 101.921 98.1157 101.638 97.942C101.355 97.7682 100.891 97.4839 100.608 97.3101C100.033 96.9567 98.9542 96.8887 98.7412 97.1924Z" fill="#121212"/>
<path fill-rule="evenodd" clip-rule="evenodd" d="M193.59 102.354C191.606 103.054 191.441 103.151 192.814 102.809C194.23 102.458 194.918 102.217 194.918 102.074C194.918 101.927 194.628 101.988 193.59 102.354Z" fill="#5DB22B"/>
<path fill-rule="evenodd" clip-rule="evenodd" d="M116.101 103.208C115.974 103.366 115.565 103.655 115.192 103.851C114.818 104.046 114.345 104.294 114.139 104.401C113.934 104.508 113.77 104.634 113.775 104.682C113.78 104.729 114.112 105.04 114.513 105.372C114.914 105.704 115.246 106.069 115.252 106.185C115.262 106.388 113.364 108.13 113.13 108.132C113.066 108.132 112.737 108.396 112.398 108.719C112.059 109.041 111.311 109.68 110.736 110.139C109.252 111.322 109.818 111.283 112.195 110.039C114.63 108.766 117.21 108.013 119.282 107.971C120.006 107.956 120.651 107.466 120.688 106.901C120.702 106.677 120.769 106.357 120.837 106.191C121.167 105.377 120.48 104.41 119.06 103.687C117.731 103.01 116.428 102.799 116.101 103.208Z" fill="#121212"/>
<path d="M162.919 83.2297C163.565 83.0274 164.939 83.1935 166.113 83.6154C167.276 84.0335 167.754 84.5758 168.555 86.3898L169.099 87.6203L168.477 89.9943C168.135 91.2995 167.611 92.9424 167.313 93.6457C167.015 94.3488 166.772 95.1537 166.772 95.4338C166.772 95.7138 166.654 96.2231 166.511 96.5656C166.254 97.1819 166.255 97.1872 166.642 97.0539C166.857 96.9799 167.361 96.9124 167.763 96.9035C168.358 96.8906 168.511 96.8183 168.587 96.5158C168.689 96.1093 169.182 95.9275 170.421 95.8371C171.037 95.7923 171.32 95.8693 171.757 96.2033C172.063 96.4362 172.381 96.6271 172.465 96.6271C172.551 96.6285 173.232 97.1925 173.98 97.882C175.227 99.0307 176.153 100.395 176.159 101.091C176.162 101.525 175.19 102.416 174.262 102.83C173.728 103.069 173.174 103.322 173.031 103.394C172.887 103.465 172.535 103.453 172.249 103.366C171.43 103.118 168.885 102.822 167.618 102.828C166.15 102.835 164.338 103.227 164.337 103.537C164.337 103.665 164.064 104.579 163.729 105.569C163.394 106.559 163.118 107.476 163.116 107.606C163.112 107.736 162.8 108.31 162.42 108.881C162.041 109.453 161.729 110.06 161.729 110.232C161.729 110.403 161.538 110.846 161.304 111.216C161.071 111.585 160.923 111.931 160.974 111.984C161.026 112.036 160.944 112.258 160.791 112.477C160.637 112.695 160.511 112.994 160.509 113.14C160.508 113.286 160.429 113.523 160.335 113.666C160.183 113.897 160.146 113.897 159.994 113.666C159.9 113.523 159.821 113.492 159.82 113.599C159.818 113.705 159.961 113.979 160.137 114.207C160.461 114.627 160.86 115.954 160.86 116.611C160.86 116.812 160.747 116.969 160.601 116.969C160.458 116.969 159.994 117.235 159.569 117.56C159.144 117.884 158.419 118.283 157.958 118.447C157.498 118.612 156.457 119.067 155.644 119.457C154.306 120.1 154.034 120.168 152.775 120.178C152.01 120.184 151.219 120.282 151.016 120.398C150.814 120.513 150.047 120.732 149.312 120.884C148.035 121.148 147.299 121.116 147.298 120.797C147.298 120.716 147.019 120.476 146.678 120.266C146.337 120.055 145.854 119.56 145.604 119.165C145.214 118.549 145.144 118.225 145.105 116.882C144.967 112.063 144.814 109.825 144.634 110.001C144.531 110.104 144.286 110.194 144.09 110.2C143.894 110.207 142.762 110.658 141.575 111.204L139.416 112.197L139.191 113.299C139.067 113.905 138.922 114.953 138.869 115.628C138.815 116.303 138.696 116.947 138.603 117.059C138.077 117.693 137.865 126.672 138.368 127.029C138.454 127.091 138.619 127.354 138.733 127.614C138.854 127.89 139.133 128.136 139.403 128.203C140.162 128.394 142.76 128.136 143.714 127.775C144.203 127.59 144.955 127.349 145.385 127.241C145.816 127.133 146.559 126.932 147.038 126.793C147.516 126.654 148.454 126.417 149.124 126.266C149.793 126.115 150.576 125.908 150.863 125.807C151.15 125.706 151.541 125.607 151.732 125.586C151.923 125.566 152.197 125.499 152.34 125.438C152.484 125.377 153.11 125.254 153.731 125.163C154.353 125.073 155.331 124.882 155.905 124.739C156.478 124.597 157.456 124.426 158.078 124.36C158.699 124.293 159.38 124.13 159.589 123.997C160.415 123.473 161.319 123.267 161.755 123.502C161.981 123.623 162.605 123.89 163.143 124.096C164.382 124.568 165.636 125.626 166.567 126.983C167.181 127.878 167.292 128.173 167.288 128.895C167.284 129.525 167.18 129.864 166.895 130.188C166.044 131.152 165.803 131.227 163.519 131.227C161.553 131.227 160.344 131.383 159.333 131.769C159.114 131.852 158.497 131.972 157.961 132.035C157.209 132.124 157.005 132.098 157.062 131.926C157.134 131.71 157.397 131.557 159.179 130.683C160.224 130.17 160.418 129.912 159.626 130.086C159.301 130.158 158.33 130.284 157.469 130.368C154.656 130.643 153.304 130.831 152.862 131.007C152.622 131.102 151.883 131.273 151.219 131.388C150.555 131.502 149.421 131.818 148.699 132.089C147.977 132.36 147.151 132.632 146.864 132.693C146.297 132.812 144.861 133.221 143.693 133.594C142.756 133.893 140.548 134.355 140.055 134.356C139.356 134.356 137.749 133.619 137.058 132.982C136.681 132.633 136.296 132.374 136.203 132.404C135.681 132.578 133.701 129.638 133.418 128.271C133.188 127.158 132.846 121.286 132.937 120.012C132.971 119.534 133.099 118.222 133.221 117.098C133.343 115.974 133.394 115.004 133.333 114.944C133.273 114.883 132.726 115.001 132.12 115.206C130.243 115.84 129.228 115.678 127.694 114.5C126.319 113.445 125.043 112.117 125.043 111.743C125.043 111.569 124.964 111.378 124.867 111.318C124.584 111.143 123.977 109.845 124.091 109.659C124.149 109.566 124.434 109.367 124.724 109.217C125.16 108.992 125.342 108.981 125.761 109.154C126.503 109.462 129.071 109.082 130.52 108.45C130.711 108.367 131.141 108.218 131.476 108.118C134.555 107.205 134.546 107.213 134.78 105.527C134.877 104.827 135.112 103.539 135.302 102.665C135.493 101.791 135.649 100.428 135.649 99.6339C135.649 98.2271 135.66 98.1916 136.067 98.1916C136.297 98.1917 137.163 98.5132 137.993 98.9054C139.318 99.5324 139.596 99.7461 140.273 100.666C141.163 101.876 141.294 102.256 141.297 103.625C141.3 104.834 141.3 104.833 143.292 104.013C144.099 103.68 144.852 103.408 144.964 103.407C145.209 103.407 145.328 102.868 145.484 101.043C145.548 100.287 145.74 99.2389 145.911 98.7131C146.081 98.1871 146.276 97.0139 146.345 96.1056C146.461 94.5692 146.901 93.1467 147.258 93.1506C147.505 93.1533 150.507 95.94 150.77 96.4103C150.916 96.6729 151.058 96.9228 151.084 96.965C151.146 97.0596 152.094 96.0294 152.461 95.4689C152.783 94.9783 152.975 95.0469 152.704 95.5548C152.601 95.7468 152.469 96.2033 152.412 96.5695C152.354 96.9357 152.221 97.3401 152.116 97.4679C152.006 97.6021 151.932 98.3434 151.942 99.2062C151.951 100.035 151.881 100.857 151.787 101.034C151.631 101.326 151.668 101.345 152.195 101.235C152.795 101.109 153.793 100.813 155.508 100.254C156.055 100.076 156.642 99.9281 156.812 99.925C156.982 99.922 157.274 99.8047 157.459 99.6642C157.645 99.5239 157.958 99.4078 158.155 99.4064C158.529 99.4036 159.739 99.0227 159.908 98.8547C159.961 98.8013 160.204 97.6318 160.448 96.257C161.08 92.6932 161.115 92.531 162.009 89.0636C162.336 87.796 162.054 87.1541 160.898 86.5353C160.459 86.3003 160.074 86.0257 160.042 85.924C160.01 85.8228 160.297 85.3917 160.68 84.967C161.062 84.5434 161.377 84.1552 161.379 84.1027C161.383 83.9655 162.387 83.3966 162.919 83.2297ZM157.499 105.147C157.371 105.147 157.224 105.189 157.172 105.24C156.967 105.446 155.148 106.066 154.159 106.268C153.581 106.385 152.917 106.601 152.681 106.748C152.446 106.895 151.883 107.119 151.432 107.247C150.634 107.473 150.609 107.501 150.51 108.269C150.455 108.703 150.301 109.841 150.168 110.797C150.036 111.753 149.879 112.905 149.82 113.358C149.76 113.809 149.638 114.224 149.548 114.28C149.458 114.336 149.384 114.618 149.384 114.905C149.384 115.364 149.432 115.414 149.775 115.318C151.596 114.803 153.174 114.309 153.424 114.175C153.59 114.086 153.846 114.014 153.993 114.014C154.305 114.014 156.95 108.643 157.141 107.621C157.208 107.264 157.368 106.72 157.497 106.412C157.794 105.699 157.795 105.147 157.499 105.147Z" fill="#5DB22B"/>
<path d="M98.7456 101.944C99.2359 101.452 101.404 102.741 102.066 103.919C102.508 104.706 102.413 105.711 101.836 106.364C101.625 106.603 101.279 107.088 101.068 107.442C100.704 108.052 99.1567 109.493 98.8657 109.493C98.5842 109.493 98.1209 110.058 98.2104 110.291C98.2615 110.425 98.1814 110.581 98.0327 110.638C97.8144 110.722 97.8017 110.805 97.9663 111.069C98.4205 111.797 96.8053 112.938 95.2876 112.961C94.8058 112.968 94.4957 112.829 93.9878 112.377L93.3208 111.784L92.6606 112.38C92.0259 112.954 91.9826 112.966 91.5024 112.718C90.8593 112.385 89.6982 110.926 89.1675 109.782C88.939 109.289 88.5866 108.241 88.3833 107.454C88.0843 106.296 88.0522 105.939 88.2153 105.581C88.5279 104.895 89.134 104.842 89.9634 105.429C91.0554 106.202 91.3169 106.664 91.4282 108.025C91.4826 108.689 91.559 109.268 91.5981 109.31C91.7141 109.428 93.5659 107.536 93.4761 107.391C93.4314 107.319 93.1441 107.205 92.8374 107.138C92.3146 107.023 90.976 106.072 90.9683 105.811C90.9665 105.746 91.141 105.642 91.356 105.58C91.9216 105.419 93.6424 104.521 95.0669 103.644C95.745 103.226 96.8208 102.702 97.4575 102.48C98.0942 102.257 98.6738 102.016 98.7456 101.944ZM97.9185 105.759C97.9185 105.647 97.7778 105.661 97.2231 105.831C96.0488 106.192 93.7582 107.297 93.6558 107.553C93.5921 107.713 93.5021 108.445 93.4556 109.181L93.3706 110.521L93.9497 110.361C94.5644 110.19 95.9362 108.799 96.4761 107.798C96.6435 107.488 96.8396 107.235 96.9126 107.234C97.0395 107.234 97.9179 105.946 97.9185 105.759Z" fill="#121212"/>
<path fill-rule="evenodd" clip-rule="evenodd" d="M85.9428 108.586C84.6963 109.944 84.1971 110.111 83.5267 109.398C83.2901 109.146 83.1929 109.114 83.0711 109.248C82.8248 109.52 82.8883 110.496 83.1773 110.883C83.3228 111.077 83.4418 111.362 83.4418 111.516C83.4418 111.937 83.7849 112.052 84.8272 111.98C85.7354 111.918 85.7844 111.895 86.1481 111.373C86.5207 110.838 86.5214 110.825 86.195 110.403C85.8865 110.004 85.884 109.959 86.1573 109.749C86.3187 109.624 86.4506 109.439 86.4506 109.336C86.4506 109.233 86.5775 108.971 86.7323 108.754C87.0116 108.364 86.9709 108 86.6483 108C86.5562 108 86.2387 108.264 85.9428 108.586Z" fill="#121212"/>
<path fill-rule="evenodd" clip-rule="evenodd" d="M80.7083 108.136C80.6362 108.344 78.8919 110.064 78.7533 110.064C78.6863 110.064 78.4623 109.82 78.2555 109.522C77.8796 108.979 77.8792 108.979 77.3927 109.261C76.8861 109.554 76.8181 109.779 77.0347 110.443C77.1057 110.66 77.2755 111.303 77.4122 111.87C78.0219 114.4 79.6741 114.751 80.4629 112.518C80.8096 111.536 80.8028 111.397 80.3777 110.783C79.9102 110.109 79.9286 109.881 80.5327 108.86C80.8127 108.387 80.9776 108 80.8988 108C80.82 108 80.7344 108.061 80.7083 108.136Z" fill="#121212"/>
<path fill-rule="evenodd" clip-rule="evenodd" d="M96.2308 108.596C95.8777 108.964 95.8197 109.093 96.0787 108.932C96.4721 108.688 97.0669 108 96.8846 108C96.8388 108 96.5445 108.268 96.2308 108.596Z" fill="#121212"/>
<path fill-rule="evenodd" clip-rule="evenodd" d="M71.5764 109.313C71.2054 109.755 70.8042 111.91 70.9486 112.684C71.0153 113.041 71.2409 113.51 71.4501 113.725C71.6592 113.941 71.8302 114.182 71.8302 114.26C71.8302 114.411 73.1098 115.187 73.9133 115.524C75.2263 116.074 75.2759 116.083 75.8325 115.872C76.8392 115.49 76.9629 114.792 76.3209 113.118C76.0904 112.517 76.0989 112.339 76.3947 111.556C76.5784 111.07 76.782 110.608 76.8472 110.531C77.05 110.29 76.8367 110.373 75.9919 110.864L75.1765 111.338L73.6528 110.169C72.8146 109.526 72.0637 109 71.984 109C71.9042 109 71.7207 109.141 71.5764 109.313Z" fill="#121212"/>
<path fill-rule="evenodd" clip-rule="evenodd" d="M86.5698 112.47C86.4642 112.729 86.3019 113.21 86.2088 113.54C85.7272 115.247 84.5302 117.714 83.6193 118.877C83.0811 119.565 82.3556 120.55 82.0072 121.068C81.1627 122.322 80.1919 123.292 79.7799 123.293C79.5956 123.294 79.272 123.544 79.0605 123.849C78.114 125.215 78.0871 126.661 78.9937 127.441C79.99 128.298 80.6443 128.044 82.8376 125.944C83.7222 125.097 84.6543 124.094 84.9088 123.715C86.3017 121.642 87.3598 120.705 87.7061 121.239C87.7671 121.333 87.9738 121.41 88.1656 121.41C88.3574 121.41 88.5142 121.523 88.5142 121.661C88.5142 122.019 88.9348 122.182 90.7151 122.513L92.2874 122.806L92.9599 122.305C93.8731 121.624 95.4925 120.555 95.6099 120.555C95.6626 120.555 96.0068 120.365 96.375 120.134C97.3954 119.494 100.05 118.836 100.267 119.17C100.334 119.273 100.124 119.878 99.8007 120.512C99.0672 121.951 95.5688 127.001 95.2163 127.13C94.9781 127.217 93.2875 126.442 92.6448 125.951C92.2497 125.649 90.7542 125.15 89.5107 124.905C88.9133 124.788 88.254 124.64 88.0457 124.577C87.7263 124.48 87.6488 124.548 87.5522 125.009C87.3474 125.984 87.8399 126.531 90.3101 128.077C90.7546 128.355 91.4313 128.893 91.8138 129.272L92.5095 129.962L92.0519 130.52C91.624 131.04 91.1491 131.509 89.4628 133.077C88.8588 133.638 86.4497 135.268 86.2241 135.268C86.176 135.268 85.398 135.688 84.4952 136.201C83.0188 137.041 82.2649 137.399 79.5348 138.556C78.7695 138.88 77.9185 139.486 77.9185 139.706C77.9185 139.762 79.2604 139.788 80.9002 139.763C84.0239 139.717 84.689 139.604 86.5777 138.796C88.7646 137.861 88.9682 137.783 89.1263 137.817C89.216 137.837 89.3373 137.782 89.3956 137.696C89.4542 137.609 89.8446 137.373 90.2632 137.171C91.772 136.442 95.0513 134.258 95.7314 133.529C96.0279 133.211 96.0543 133.213 96.9772 133.637C97.4958 133.876 98.0114 134.071 98.1229 134.071C98.2345 134.071 98.9641 134.648 99.7445 135.354C100.525 136.06 101.26 136.637 101.379 136.637C101.497 136.637 101.621 136.706 101.654 136.79C101.728 136.977 104.189 138.842 106.128 140.181C106.917 140.725 108.025 141.496 108.59 141.892C109.154 142.289 109.706 142.616 109.816 142.619C109.926 142.623 110.33 142.866 110.714 143.161C111.735 143.946 113.918 144.891 114.922 144.983C115.914 145.073 117.732 144.802 119.314 144.325C120.266 144.039 121 143.93 124.432 143.565C125.943 143.404 126.847 143.103 127.331 142.601C127.75 142.165 127.819 142.143 127.927 142.41C128.043 142.696 128.061 142.695 128.288 142.402C128.464 142.174 128.549 142.152 128.612 142.317C128.682 142.499 128.742 142.499 128.944 142.314C129.153 142.124 129.137 142.051 128.845 141.846C128.655 141.712 128.552 141.552 128.616 141.491C128.681 141.429 128.836 141.453 128.962 141.544C129.261 141.76 130.038 141.797 129.903 141.588C129.845 141.5 129.702 141.427 129.585 141.427C129.467 141.426 129.169 141.327 128.922 141.206C128.213 140.858 126.109 140.188 121.559 138.859C117.193 137.585 114.01 136.539 111.681 135.615C110.94 135.321 110.021 134.956 109.639 134.805C109.256 134.654 108.286 134.192 107.484 133.778C106.681 133.365 105.499 132.792 104.857 132.505C104.215 132.218 102.767 131.566 101.639 131.056L99.5886 130.129L100.04 129.662C100.469 129.218 101.602 127.555 102.146 126.571C102.285 126.32 102.446 126.076 102.505 126.029C102.827 125.773 103.671 124.41 103.901 123.773C104.047 123.369 104.253 122.939 104.358 122.819C104.463 122.698 104.5 122.553 104.441 122.496C104.381 122.44 104.45 122.176 104.595 121.91C104.988 121.185 104.924 120.878 104.138 119.72C103.743 119.137 103.42 118.629 103.42 118.591C103.42 118.479 107.989 117.133 108.372 117.132C109.51 117.129 110.586 116.499 111.141 115.51C111.364 115.112 111.355 114.994 111.058 114.469C110.318 113.159 106.797 111.81 105.869 112.48C105.757 112.561 105.382 112.728 105.036 112.852C104.691 112.976 104.165 113.173 103.869 113.289C103.573 113.405 103.047 113.593 102.702 113.708C102.356 113.823 101.912 113.981 101.714 114.061C101.516 114.14 100.773 114.399 100.062 114.635C99.3504 114.872 98.6231 115.143 98.4453 115.237C98.2677 115.331 97.4757 115.557 96.6855 115.74C95.4544 116.024 93.2546 116.759 92.0162 117.3C91.5615 117.498 88.842 118.015 88.7439 117.922C88.7035 117.883 88.9587 117.286 89.3107 116.595C89.6629 115.903 89.9509 115.198 89.9509 115.027C89.9509 114.714 87.2433 112 86.9306 112C86.8377 112 86.6754 112.212 86.5698 112.47Z" fill="#121212"/>
<path fill-rule="evenodd" clip-rule="evenodd" d="M193.47 152.194C192.913 152.726 192.776 153 193.068 153C193.394 153 194.084 152.165 193.882 152.016C193.812 151.964 193.627 152.044 193.47 152.194Z" fill="#5DB22B"/>
</svg>
