<svg width="376" height="71" viewBox="0 0 376 71" fill="none" xmlns="http://www.w3.org/2000/svg">
<path d="M320.628 70.9859L321.557 70.9432L322.481 70.8724L323.408 70.774L324.336 70.6481L325.26 70.4965L326.188 70.3191L327.111 70.1182L328.044 69.892L328.975 69.6444L329.9 69.3784L330.833 69.0919L331.766 68.788L332.7 68.4689L333.635 68.1363L334.575 67.7909L335.508 67.4394L336.448 67.0783L337.386 66.7134L339.265 65.9783L339.266 65.978L340.206 65.6125L340.207 65.6117L341.147 65.2507L341.15 65.2495L342.09 64.8953L342.094 64.894L343.034 64.5486L343.038 64.5469L343.978 64.2127C343.98 64.212 343.982 64.2113 343.984 64.2106L344.924 63.8896C344.926 63.8888 344.928 63.888 344.931 63.8873L345.87 63.5812C345.873 63.5804 345.875 63.5797 345.878 63.5789L346.818 63.2897C346.821 63.2889 346.824 63.2881 346.827 63.2873L347.766 63.017C347.769 63.0161 347.773 63.0152 347.776 63.0143L348.716 62.7645C348.719 62.7635 348.723 62.7626 348.726 62.7618L349.666 62.534C349.67 62.5331 349.673 62.5322 349.677 62.5314L350.617 62.3269C350.621 62.326 350.625 62.3252 350.629 62.3244L351.569 62.1446C351.573 62.1438 351.577 62.143 351.582 62.1423L352.521 61.9882C352.526 61.9874 352.531 61.9869 352.535 61.9863L353.475 61.8588C353.479 61.8582 353.484 61.8576 353.489 61.8571L354.429 61.7572C354.433 61.7567 354.438 61.7562 354.443 61.7558L355.383 61.6841C355.388 61.6838 355.393 61.6834 355.398 61.6832L356.337 61.6399C356.342 61.6397 356.347 61.6396 356.352 61.6395L357.292 61.625C357.297 61.6249 357.302 61.6249 357.307 61.625L358.247 61.6395C358.252 61.6396 358.257 61.6397 358.262 61.6399L359.202 61.6832C359.207 61.6834 359.212 61.6838 359.217 61.6841L360.157 61.7558C360.161 61.7562 360.166 61.7567 360.171 61.7572L361.111 61.8571C361.115 61.8576 361.12 61.8582 361.125 61.8588L362.065 61.9863C362.069 61.9869 362.074 61.9874 362.078 61.9882L363.018 62.1423C363.022 62.143 363.026 62.1438 363.031 62.1446L363.971 62.3244C363.975 62.3252 363.979 62.326 363.983 62.3269L364.922 62.5314C364.926 62.5322 364.93 62.5331 364.934 62.534L365.873 62.7618C365.877 62.7626 365.88 62.7635 365.884 62.7645L366.824 63.0143C366.827 63.0152 366.83 63.0161 366.833 63.017L367.773 63.2873C367.776 63.2881 367.779 63.2889 367.782 63.2897L368.722 63.5789C368.724 63.5797 368.727 63.5804 368.729 63.5812L369.669 63.8873C369.671 63.888 369.674 63.8888 369.676 63.8896L370.616 64.2106C370.617 64.2113 370.619 64.212 370.621 64.2127L371.561 64.5469L371.566 64.5486L372.506 64.894L372.51 64.8953L373.449 65.2495L373.452 65.2507L374.392 65.6117L374.394 65.6125L375.157 65.9093L375.157 -510H0.156738L0.156929 66.3129C0.216145 66.3129 0.276413 66.3232 0.334885 66.3461L1.27368 66.7134L2.21172 67.0783L3.15147 67.4392L4.08454 67.7911L5.02448 68.1363L5.95947 68.4689L6.89368 68.7879L7.82676 69.0919L8.75908 69.3784L9.68414 69.6444L10.6132 69.8914L11.5488 70.1182L12.4717 70.3191L13.3995 70.4965L14.3234 70.6481L15.2519 70.774L16.1777 70.8724L17.1022 70.9432L18.0317 70.9859L18.9539 71L19.8761 70.9859L20.8051 70.9432L21.7292 70.8724L22.6558 70.774L23.5843 70.6481L24.5082 70.4965L25.436 70.3191L26.3587 70.1182L27.2924 69.892L28.2235 69.6444L29.1486 69.3784L30.0809 69.0919L31.014 68.788L31.9482 68.4689L32.883 68.1363L33.8232 67.7909L34.7562 67.4394L35.6962 67.0783L36.634 66.7134L38.5127 65.9783L38.5137 65.978L39.4536 65.6125L39.4555 65.6117L40.3953 65.2507L40.3982 65.2495L41.3381 64.8953L41.3419 64.894L42.2817 64.5486L42.2866 64.5469L43.2264 64.2127C43.2283 64.212 43.2302 64.2113 43.2321 64.2106L44.172 63.8896C44.1742 63.8888 44.1765 63.888 44.1787 63.8873L45.1185 63.5812C45.121 63.5804 45.1236 63.5797 45.1261 63.5789L46.066 63.2897C46.0689 63.2889 46.0718 63.2881 46.0746 63.2873L47.0144 63.017C47.0175 63.0161 47.0207 63.0151 47.0239 63.0143L47.9638 62.7645C47.9672 62.7635 47.9707 62.7626 47.9741 62.7618L48.9141 62.534C48.9178 62.5331 48.9216 62.5322 48.9253 62.5314L49.8651 62.3269C49.869 62.326 49.8731 62.3252 49.8771 62.3244L50.817 62.1446C50.8213 62.1438 50.8256 62.143 50.8298 62.1423L51.7696 61.9882C51.774 61.9874 51.7786 61.9869 51.7831 61.9863L52.7229 61.8588C52.7275 61.8582 52.7322 61.8576 52.7368 61.8571L53.6767 61.7572C53.6815 61.7567 53.6864 61.7562 53.6912 61.7558L54.631 61.6841C54.6358 61.6838 54.6408 61.6834 54.6457 61.6832L55.5856 61.6399C55.5905 61.6397 55.5955 61.6396 55.6005 61.6395L56.5404 61.625C56.5454 61.6249 56.5504 61.6249 56.5553 61.625L57.4952 61.6395C57.5002 61.6396 57.5052 61.6397 57.5101 61.6399L58.4501 61.6832C58.4549 61.6834 58.4599 61.6838 58.4647 61.6841L59.4047 61.7558C59.4094 61.7562 59.4142 61.7567 59.419 61.7572L60.3589 61.8571C60.3636 61.8576 60.3682 61.8582 60.3729 61.8588L61.3128 61.9863C61.3172 61.9869 61.3217 61.9874 61.3261 61.9882L62.2659 62.1423C62.2701 62.143 62.2745 62.1438 62.2787 62.1446L63.2186 62.3244C63.2226 62.3252 63.2267 62.326 63.2306 62.3269L64.1706 62.5314C64.1743 62.5322 64.178 62.5332 64.1816 62.534L65.1216 62.7618C65.125 62.7626 65.1285 62.7635 65.1319 62.7645L66.0718 63.0143C66.075 63.0152 66.0782 63.0161 66.0814 63.017L67.0211 63.2873C67.0239 63.2881 67.0269 63.2889 67.0297 63.2897L67.9696 63.5789C67.9722 63.5797 67.9748 63.5804 67.9773 63.5812L68.917 63.8873C68.9192 63.888 68.9217 63.8888 68.9239 63.8896L69.8636 64.2106C69.8655 64.2113 69.8675 64.212 69.8694 64.2127L70.8093 64.5469L70.8141 64.5486L71.7538 64.894L71.7576 64.8953L72.6976 65.2495L72.7004 65.2507L73.6402 65.6117L73.6421 65.6125L74.582 65.978L74.583 65.9783L76.4617 66.7134L77.3996 67.0783L78.3393 67.4394L79.2724 67.7911L80.2125 68.1363L81.1475 68.4688L82.0815 68.788L83.0148 69.0917L83.9471 69.3784L84.872 69.6444L85.8031 69.892L86.7368 70.1182L87.6596 70.3191L88.5873 70.4965L89.5112 70.6481L90.4407 70.774L91.3663 70.8724L92.2903 70.9432L93.2193 70.9859L94.1419 71L95.0643 70.9859L95.9934 70.9432L96.9179 70.8724L97.8437 70.774L98.7712 70.6483L99.6961 70.4965L100.624 70.3191L101.547 70.1182L102.482 69.8914L103.415 69.6435L104.336 69.3784L105.269 69.0919L106.202 68.788L107.136 68.4689L108.071 68.1363L109.011 67.7911L109.944 67.4394L110.884 67.0783L111.822 66.7134L113.701 65.9783L113.702 65.978L114.642 65.6125L114.643 65.6117L115.583 65.2507L115.586 65.2495L116.526 64.8953L116.53 64.894L117.47 64.5486L117.475 64.5469L118.414 64.2127L118.42 64.2106L119.36 63.8896C119.362 63.8888 119.364 63.888 119.367 63.8873L120.307 63.5812C120.309 63.5804 120.312 63.5797 120.314 63.5789L121.254 63.2897C121.257 63.2889 121.26 63.2881 121.262 63.2873L122.202 63.017C122.206 63.0161 122.209 63.0152 122.212 63.0143L123.152 62.7645C123.155 62.7635 123.159 62.7626 123.162 62.7618L124.102 62.534C124.106 62.5331 124.109 62.5322 124.113 62.5314L125.053 62.3269C125.057 62.326 125.061 62.3252 125.065 62.3244L126.005 62.1446C126.009 62.1438 126.013 62.143 126.018 62.1423L126.958 61.9882C126.962 61.9874 126.967 61.9869 126.971 61.9863L127.911 61.8588C127.916 61.8582 127.92 61.8576 127.925 61.8571L128.865 61.7572C128.869 61.7567 128.874 61.7562 128.879 61.7558L129.819 61.6841C129.824 61.6838 129.829 61.6834 129.834 61.6832L130.773 61.6399C130.778 61.6397 130.784 61.6396 130.789 61.6395L131.728 61.625C131.733 61.6249 131.738 61.6249 131.743 61.625L132.683 61.6395C132.688 61.6396 132.693 61.6396 132.698 61.6399L133.638 61.6832C133.643 61.6834 133.648 61.6838 133.653 61.6841L134.593 61.7558C134.597 61.7562 134.602 61.7567 134.607 61.7572L135.547 61.8571C135.551 61.8576 135.556 61.8582 135.561 61.8588L136.501 61.9863C136.505 61.9869 136.51 61.9874 136.514 61.9882L137.454 62.1423C137.458 62.143 137.463 62.1438 137.467 62.1446L138.407 62.3244C138.41 62.3252 138.415 62.326 138.419 62.3269L139.358 62.5314C139.362 62.5322 139.366 62.5331 139.37 62.534L140.309 62.7618C140.313 62.7626 140.317 62.7635 140.32 62.7645L141.26 63.0143C141.263 63.0151 141.266 63.0161 141.269 63.017L142.209 63.2873C142.212 63.2881 142.215 63.2889 142.218 63.2897L143.158 63.5789C143.16 63.5797 143.163 63.5804 143.165 63.5812L144.105 63.8873C144.107 63.888 144.11 63.8888 144.112 63.8896L145.052 64.2106L145.057 64.2127L145.997 64.5469L146.002 64.5486L146.942 64.894L146.946 64.8953L147.885 65.2495L147.888 65.2507L148.828 65.6117L148.83 65.6125L149.77 65.978L149.771 65.9783L151.65 66.7134L152.588 67.0783L153.527 67.4392L154.46 67.7911L155.4 68.1363L156.335 68.4689L157.27 68.7879L158.203 69.0919L159.135 69.3784L160.06 69.6444L160.989 69.8914L161.925 70.1182L162.848 70.3191L163.775 70.4965L164.699 70.6481L165.628 70.774L166.554 70.8724L167.478 70.9432L168.408 70.9859L169.33 71L170.252 70.9859L171.181 70.9432L172.105 70.8724L173.032 70.774L173.96 70.6481L174.884 70.4965L175.812 70.3191L176.735 70.1182L177.668 69.892L178.599 69.6444L179.525 69.3784L180.457 69.0919L181.39 68.788L182.324 68.4689L183.259 68.1363L184.199 67.7909L185.132 67.4394L186.072 67.0783L187.01 66.7134L188.889 65.9783L188.89 65.978L189.83 65.6125L189.831 65.6117L190.771 65.2507L190.774 65.2495L191.714 64.8953L191.718 64.894L192.658 64.5486L192.662 64.5469L193.602 64.2127C193.604 64.212 193.606 64.2113 193.608 64.2106L194.548 63.8896C194.55 63.8888 194.552 63.888 194.555 63.8873L195.494 63.5812C195.497 63.5804 195.5 63.5797 195.502 63.5789L196.442 63.2897C196.445 63.2889 196.448 63.2881 196.451 63.2873L197.39 63.017C197.393 63.0161 197.397 63.0152 197.4 63.0143L198.34 62.7645C198.343 62.7635 198.347 62.7626 198.35 62.7618L199.29 62.534C199.294 62.5331 199.298 62.5322 199.301 62.5314L200.241 62.3269C200.245 62.326 200.249 62.3252 200.253 62.3244L201.193 62.1446C201.197 62.1438 201.202 62.143 201.206 62.1423L202.146 61.9882C202.15 61.9874 202.155 61.9869 202.159 61.9863L203.099 61.8588C203.103 61.8582 203.108 61.8576 203.113 61.8571L204.053 61.7572C204.057 61.7567 204.062 61.7562 204.067 61.7558L205.007 61.6841C205.012 61.6838 205.017 61.6834 205.022 61.6832L205.962 61.6399C205.966 61.6397 205.971 61.6396 205.976 61.6395L206.916 61.625C206.921 61.6249 206.926 61.6249 206.931 61.625L207.871 61.6395C207.876 61.6396 207.881 61.6397 207.886 61.6399L208.826 61.6832C208.831 61.6834 208.836 61.6838 208.841 61.6841L209.781 61.7558C209.785 61.7562 209.79 61.7567 209.795 61.7572L210.735 61.8571C210.74 61.8576 210.744 61.8582 210.749 61.8588L211.689 61.9863C211.693 61.9869 211.698 61.9874 211.702 61.9882L212.642 62.1423C212.646 62.143 212.65 62.1438 212.655 62.1446L213.595 62.3244C213.599 62.3252 213.603 62.326 213.607 62.3269L214.546 62.5314C214.55 62.5322 214.554 62.5331 214.558 62.534L215.498 62.7618C215.501 62.7626 215.504 62.7635 215.508 62.7645L216.448 63.0143C216.451 63.0152 216.454 63.0161 216.457 63.017L217.397 63.2873C217.4 63.2881 217.403 63.2889 217.406 63.2897L218.346 63.5789C218.348 63.5797 218.351 63.5804 218.353 63.5812L219.293 63.8873C219.295 63.888 219.298 63.8888 219.3 63.8896L220.24 64.2106C220.242 64.2113 220.243 64.212 220.245 64.2127L221.185 64.5469L221.19 64.5486L222.13 64.894L222.134 64.8953L223.074 65.2495L223.076 65.2507L224.016 65.6117L224.018 65.6125L224.958 65.978L224.959 65.9783L226.838 66.7134L227.776 67.0783L228.715 67.4394L229.648 67.7911L230.589 68.1363L231.523 68.4688L232.457 68.788L233.391 69.0917L234.323 69.3784L235.248 69.6444L236.179 69.892L237.113 70.1182L238.036 70.3191L238.963 70.4965L239.887 70.6481L240.817 70.774L241.742 70.8724L242.666 70.9432L243.595 70.9859L244.518 71L245.44 70.9859L246.369 70.9432L247.294 70.8724L248.22 70.774L249.147 70.6483L250.072 70.4965L251 70.3191L251.923 70.1182L252.858 69.8914L253.787 69.6444L254.712 69.3784L255.645 69.0919L256.578 68.788L257.512 68.4689L258.447 68.1363L259.387 67.7911L260.32 67.4394L261.26 67.0783L262.198 66.7134L264.077 65.9783L264.078 65.978L265.017 65.6125L265.019 65.6117L265.959 65.2507L265.962 65.2495L266.902 64.8953L266.906 64.894L267.846 64.5486L267.85 64.5469L268.79 64.2127C268.792 64.212 268.794 64.2113 268.796 64.2106L269.736 63.8896C269.738 63.8888 269.74 63.888 269.743 63.8873L270.682 63.5812C270.685 63.5804 270.688 63.5797 270.69 63.5789L271.63 63.2897C271.633 63.2889 271.636 63.2881 271.638 63.2873L272.578 63.017C272.582 63.0161 272.585 63.0152 272.588 63.0143L273.528 62.7645C273.531 62.7635 273.535 62.7626 273.538 62.7618L274.478 62.534C274.482 62.5331 274.485 62.5322 274.489 62.5314L275.429 62.3269C275.433 62.326 275.437 62.3252 275.441 62.3244L276.381 62.1446C276.385 62.1438 276.389 62.143 276.394 62.1423L277.334 61.9882C277.338 61.9874 277.342 61.9869 277.347 61.9863L278.287 61.8588C278.291 61.8582 278.296 61.8576 278.301 61.8571L279.241 61.7572C279.245 61.7567 279.25 61.7562 279.255 61.7558L280.195 61.6841C280.2 61.6838 280.205 61.6834 280.21 61.6832L281.149 61.6399C281.154 61.6397 281.16 61.6396 281.164 61.6395L282.104 61.625C282.109 61.6249 282.114 61.6249 282.119 61.625L283.059 61.6395C283.064 61.6396 283.069 61.6396 283.074 61.6399L284.014 61.6832C284.019 61.6834 284.024 61.6838 284.029 61.6841L284.969 61.7558C284.973 61.7562 284.978 61.7567 284.983 61.7572L285.923 61.8571C285.927 61.8576 285.932 61.8582 285.937 61.8588L286.877 61.9863C286.881 61.9869 286.886 61.9874 286.89 61.9882L287.83 62.1423C287.834 62.143 287.839 62.1438 287.843 62.1446L288.782 62.3244C288.786 62.3252 288.79 62.326 288.794 62.3269L289.734 62.5314C289.738 62.5322 289.742 62.5331 289.746 62.534L290.685 62.7618C290.689 62.7626 290.692 62.7635 290.696 62.7645L291.636 63.0143C291.639 63.0152 291.642 63.0161 291.645 63.017L292.585 63.2873C292.588 63.2881 292.591 63.2889 292.594 63.2897L293.533 63.5789C293.536 63.5797 293.539 63.5804 293.541 63.5812L294.481 63.8873C294.483 63.888 294.486 63.8888 294.488 63.8896L295.428 64.2106L295.433 64.2127L296.373 64.5469L296.378 64.5486L297.318 64.894L297.322 64.8953L298.261 65.2495L298.264 65.2507L299.204 65.6117L299.206 65.6125L300.146 65.978L300.147 65.9783L302.026 66.7134L302.964 67.0783L303.903 67.4392L304.836 67.7911L305.776 68.1363L306.711 68.4689L307.646 68.7879L308.579 69.0919L309.511 69.3784L310.436 69.6444L311.365 69.8914L312.301 70.1182L313.224 70.3191L314.151 70.4965L315.075 70.6481L316.004 70.774L316.93 70.8724L317.854 70.9432L318.784 70.9859L319.706 71L320.628 70.9859Z" fill="#F9F5F1"/>
</svg>
