<?xml version="1.0" encoding="UTF-8"?>
<svg id="Ebene_1" xmlns="http://www.w3.org/2000/svg" version="1.1" viewBox="0 0 512 512">
  <!-- Generator: Adobe Illustrator 29.8.1, SVG Export Plug-In . SVG Version: 2.1.1 Build 2)  -->
  <defs>
    <style>
      .st0 {
        fill: #ff8121;
      }
    </style>
  </defs>
  <path class="st0" d="M334.3,302.9c3.3-3.2,5.1-7.6,5.2-12.2,0-4.6-1.7-9-5-12.3-6.7-6.8-17.7-6.9-24.5-.2-13,12.8-32.7,20.1-54,20.1s-40.9-7.3-54-20.1c-6.8-6.7-17.8-6.6-24.5.2s-6.6,17.8.2,24.5c19.5,19.1,48,30.1,78.3,30.1s58.8-11,78.3-30.1h0Z"/>
  <path class="st0" d="M397.7,114.3c-40.7-40.7-94.9-61.5-152.6-58.4-45.4,2.4-89.1,20.5-122.9,50.9-43,38.7-66.6,91.7-66.6,149.2s.7,19.8,2.2,29.6c1.9,13.1,13.5,23.1,27,23.1h0c3.3,0,6.3-1.5,8.3-4.1,2-2.6,2.7-5.9,2-9-3.2-12.9-4.8-26.2-4.8-39.5,0-45.9,18.3-88.6,51.7-120.3,28.9-27.5,66.8-43.6,106.6-45.3,49.2-2.1,96.5,17.5,129.8,53.8,26.9,29.4,42.3,67.5,43.3,107.5,1.2,46-16,89.1-48.5,121.6-31.3,31.3-72.9,48.5-117.2,48.5s-26.1-1.5-38.8-4.6c-4.4-1-8.9,0-12.4,2.7-3.6,2.8-5.6,7.1-5.6,11.7h5.6l-5.6.2c0,11,12.2,19.6,20.7,21.3,13.5,2.8,22.8,3.3,36.1,3.3,57.6,0,110.6-23.6,149.2-66.6,30.5-33.8,48.5-77.5,50.9-122.9,3-57.7-17.7-111.9-58.4-152.6h0Z"/>
  <path class="st0" d="M193.9,230.6c12.8,0,21.4-12.4,21.4-30.8s-8.6-30.8-21.4-30.8-21.4,12.4-21.4,30.8,8.6,30.8,21.4,30.8h0Z"/>
  <path class="st0" d="M339.5,199.8c0-18.4-8.6-30.8-21.4-30.8s-21.4,12.4-21.4,30.8,8.6,30.8,21.4,30.8c12.8,0,21.4-12.4,21.4-30.8h0Z"/>
  <path class="st0" d="M167.3,397.7c-6.6-4.3-13-9.2-19-14.6-13.6-12.1-25.1-26.1-34-41.8-3.9-6.9-12.2-10.4-19.7-8.3-5.2,1.5-9.4,5.1-11.4,10.1-2.1,5-1.7,10.5.9,15.2,10.8,19,24.7,36.1,41.2,50.7,7.2,6.4,14.9,12.3,22.9,17.5,2.9,1.9,6.2,2.8,9.5,2.8s2.9-.2,4.4-.6c4.8-1.2,8.8-4.5,11-8.9,4.1-7.9,1.6-17.5-5.8-22.3h0Z"/>
</svg>