<?xml version="1.0" encoding="UTF-8"?>
<svg id="Ebene_1" data-name="Ebene 1" xmlns="http://www.w3.org/2000/svg" viewBox="0 0 512 512">
  <defs>
    <style>
      .cls-1 {
        fill: #f06418;
      }
    </style>
  </defs>
  <path class="cls-1" d="M203.75,276.35c-7.82-7.66-20.4-7.54-28.06.28-3.71,3.78-5.72,8.78-5.67,14.09.05,5.31,2.16,10.27,5.94,13.98,19.94,19.56,49.12,30.78,80.04,30.78s60.08-11.21,80.02-30.76c3.72-3.51,5.88-8.61,5.93-14,.05-5.39-2.02-10.54-5.64-14.08-7.66-7.81-20.25-7.94-28.11-.23-11.72,12.04-31.24,19.23-52.2,19.23-20.96,0-40.48-7.19-52.25-19.27Z"/>
  <path class="cls-1" d="M458.54,250.41c-1.4-53.05-22.91-103.31-59.04-137.91-34.61-36.12-84.87-57.64-137.91-59.04-52.98-1.4-104.42,17.36-141.1,51.45-43.49,39.14-67.44,92.8-67.44,151.09,0,1.21,0,2.42-.01,3.63-.05,8.82-.09,17.94,2.27,26.59,2.75,10.07,9.36,25.63,24,25.63,1.87,0,3.87-.25,6.01-.8l.81-.21c3.89-.99,6.46-1.65,8.88-4.73,2.5-3.18,3.38-7.25,2.42-11.2-11.99-46.98-1.77-96.77,28.06-136.61,29.82-39.84,74.71-63.67,123.23-65.4,42.55-2.58,85.73,13.48,118.52,44.07,32.66,30.48,51.61,72.28,51.97,114.75,1.84,50.5-20.19,98.18-60.44,130.82-40.37,32.74-91.74,44.48-140.91,32.22-5.03-1.31-10.35-.13-14.59,3.22-4.25,3.35-6.72,8.46-6.62,13.67,0,12.43,13.43,22.05,22.71,23.96,13.74,2.81,23.12,3.33,36.65,3.33,58.29,0,111.95-23.95,151.06-67.4,34.11-36.71,52.88-88.15,51.48-141.13Z"/>
  <path class="cls-1" d="M204.09,169.28c-6.36-3.7-13.96-3.7-20.32,0-8.9,5.19-13.92,16.33-13.76,30.55,0,19.89,9.62,33.28,23.93,33.31h.01c14.3-.04,23.9-13.42,23.9-33.29.16-14.25-4.86-25.4-13.76-30.58Z"/>
  <path class="cls-1" d="M317.65,233.15c.14,0,.29,0,.44,0,14.3-.03,23.9-13.42,23.9-33.31s-9.61-33.31-23.87-33.31c-7.62-.17-14.25,3.8-18.59,11.18-7.16,12.18-7.16,32.01-.01,44.21,4.26,7.26,10.7,11.24,18.13,11.24Z"/>
  <path class="cls-1" d="M168.65,395.65h-.01c-21.55-14.15-39.6-33.34-52.19-55.5-4.49-7.89-13.99-11.87-22.58-9.46-5.96,1.66-10.73,5.88-13.08,11.56-2.35,5.69-1.95,12.04,1.09,17.39,15.64,27.59,38.06,51.49,64.85,69.1,3.24,2.13,7,3.25,10.9,3.25,8.95-.05,16.39-5.63,18.97-14.23,2.55-8.52-.56-17.2-7.94-22.12Z"/>
</svg>