<svg width="48" height="48" viewBox="0 0 48 48" fill="none" xmlns="http://www.w3.org/2000/svg">
<mask id="mask0_27598_16410" style="mask-type:alpha" maskUnits="userSpaceOnUse" x="0" y="0" width="48" height="48">
<rect width="48" height="48" fill="#D9D9D9"/>
</mask>
<g mask="url(#mask0_27598_16410)">
<path d="M11.4 36L16 28C13.8 28 11.9167 27.2167 10.35 25.65C8.78333 24.0833 8 22.2 8 20C8 17.8 8.78333 15.9167 10.35 14.35C11.9167 12.7833 13.8 12 16 12C18.2 12 20.0833 12.7833 21.65 14.35C23.2167 15.9167 24 17.8 24 20C24 20.7667 23.9083 21.475 23.725 22.125C23.5417 22.775 23.2667 23.4 22.9 24L16 36H11.4ZM29.4 36L34 28C31.8 28 29.9167 27.2167 28.35 25.65C26.7833 24.0833 26 22.2 26 20C26 17.8 26.7833 15.9167 28.35 14.35C29.9167 12.7833 31.8 12 34 12C36.2 12 38.0833 12.7833 39.65 14.35C41.2167 15.9167 42 17.8 42 20C42 20.7667 41.9083 21.475 41.725 22.125C41.5417 22.775 41.2667 23.4 40.9 24L34 36H29.4Z" fill="#FF8121"/>
</g>
</svg>
