<svg width="40" height="24" viewBox="0 0 40 24" fill="none" xmlns="http://www.w3.org/2000/svg">
<path fill-rule="evenodd" clip-rule="evenodd" d="M6.048 0.0109718C4.17953 0.148786 3.17434 0.304628 2.01509 0.636193C1.27873 0.846825 0.801188 1.07706 0.628959 1.30443C0.50726 1.46513 0.497106 1.5111 0.500522 1.88759C0.512241 3.18094 1.68828 6.21048 2.90091 8.07112C4.26835 10.1693 6.23461 11.9307 8.26838 12.8795C10.2842 13.8198 12.8872 14.3337 16.5934 14.523C17.4035 14.5644 17.4739 14.5754 17.6739 14.6933C17.7916 14.7626 17.9399 14.8986 18.0033 14.9955C18.2344 15.348 18.2748 15.6361 18.3003 17.1095C18.331 18.8826 18.2624 20.206 18.024 22.4446C17.9698 22.9535 17.972 23.0073 18.0544 23.1816C18.2508 23.5977 18.6915 23.8724 19.3293 23.9765C20.0343 24.0915 20.9792 23.7706 21.2718 23.3167C21.3361 23.217 21.4118 23.0174 21.44 22.8731C21.5446 22.338 21.6337 20.7747 21.6808 18.6476C21.7076 17.444 21.7354 16.2125 21.7429 15.9109C21.7589 15.2637 21.8466 15.038 22.1639 14.8269C22.355 14.6998 22.3828 14.6958 23.2899 14.6625C24.652 14.6126 25.7362 14.5355 26.5684 14.4293C29.7662 14.0212 32.2251 13.0465 34.2421 11.3876C36.6886 9.3754 38.5251 6.36136 39.3271 3.04208C39.5325 2.19188 39.5454 2.00461 39.4159 1.74863C39.2793 1.47867 39.0545 1.3236 38.4535 1.08464C37.2322 0.59914 35.7111 0.303101 33.7565 0.17058C29.4895 -0.118688 26.1465 1.05636 23.5556 3.75605C22.7433 4.60244 22.133 5.43872 21.522 6.54219C20.9945 7.49502 20.3492 9.1744 20.0697 10.3217C20.0103 10.5655 19.9525 10.7556 19.9412 10.7442C19.9299 10.7329 19.8485 10.4476 19.7603 10.1103C19.0566 7.41986 17.827 5.18922 16.1101 3.48848C15.0989 2.48677 14.2246 1.86093 12.9751 1.24439C11.7117 0.620933 10.5819 0.308441 8.84731 0.102626C8.24968 0.0317154 6.53029 -0.0246024 6.048 0.0109718Z" fill="#3D3D3D"/>
<path fill-rule="evenodd" clip-rule="evenodd" d="M5.77014 1.1135C4.49071 1.21316 3.41321 1.37468 2.45172 1.61087C1.71218 1.79256 1.5 1.87591 1.5 1.98488C1.5 2.12961 1.87036 3.39278 2.09834 4.02573C3.68807 8.43884 6.603 11.3795 10.4952 12.4968C12.0079 12.931 14.4496 13.2785 17.0228 13.4257C17.6738 13.4629 17.8006 13.484 18.0429 13.5951C18.5056 13.8074 18.9108 14.2781 19.0957 14.8181C19.2763 15.3457 19.3163 15.8541 19.3107 17.556C19.3052 19.2697 19.2641 20.0673 19.0961 21.7237C18.9778 22.8897 18.9652 22.8386 19.3854 22.8966C19.7546 22.9477 20.0528 22.8811 20.2234 22.7097C20.3882 22.5441 20.3958 22.5036 20.4778 21.3637C20.5553 20.2861 20.6322 17.114 20.5998 16.3365C20.5807 15.8805 20.5884 15.4665 20.6197 15.2636C20.7249 14.5812 21.15 13.9857 21.725 13.7152C22.0136 13.5795 22.0479 13.5749 22.9463 13.551C24.2743 13.5158 24.8649 13.4842 25.6975 13.4041C30.8238 12.9106 34.282 10.8179 36.5643 6.82827C37.229 5.66639 37.8171 4.21065 38.1735 2.84548C38.2862 2.41349 38.304 2.28616 38.2579 2.2421C38.1851 2.17262 37.3202 1.89251 36.6575 1.72384C35.4061 1.40534 34.3381 1.26858 32.8501 1.23634C31.2177 1.20096 30.2782 1.31288 28.9196 1.70467C24.9615 2.84605 22.1863 6.0125 21.0453 10.6891C20.9429 11.1087 20.8589 11.4686 20.8586 11.4887C20.8582 11.5088 21.0371 11.3264 21.256 11.0834C22.9462 9.20679 25.8357 7.06203 28.2464 5.89457C29.6903 5.19534 31.726 4.52763 32.1148 4.62567C32.1824 4.64274 32.3034 4.71227 32.3837 4.78018C32.502 4.88022 32.5297 4.93988 32.5297 5.09472C32.5297 5.32051 32.3992 5.52786 32.2106 5.60182C32.1382 5.63019 31.8548 5.70649 31.5808 5.77139C29.7585 6.20277 27.0023 7.63599 24.8434 9.27474C23.6842 10.1547 22.5774 11.1865 21.4613 12.4279C20.5599 13.4304 20.1244 13.8126 19.8834 13.8126C19.6897 13.8126 19.2242 13.4 18.3016 12.4107C17.0172 11.0335 15.7522 9.87545 14.55 8.97637C12.4468 7.40342 9.88276 6.10124 7.97638 5.63773C7.61863 5.55079 7.54163 5.50783 7.4167 5.32562C7.28267 5.1302 7.31218 4.90941 7.49717 4.72348C7.7066 4.51299 7.84201 4.51327 8.64062 4.72572C10.9273 5.33406 13.5695 6.76099 15.8287 8.6078C16.8978 9.4818 18.2087 10.6968 18.5806 11.1585C18.698 11.3043 18.8073 11.4246 18.8234 11.4259C18.8775 11.4302 18.5357 10.0473 18.3144 9.36673C17.9054 8.10918 17.4533 7.15044 16.7904 6.135C16.2948 5.37588 16.0713 5.09114 15.5217 4.51861C13.569 2.48435 11.2174 1.41822 8.04755 1.13014C7.54187 1.08417 6.26623 1.07487 5.77014 1.1135Z" fill="#ADE838"/>
</svg>