<svg width="25" height="24" viewBox="0 0 25 24" fill="none" xmlns="http://www.w3.org/2000/svg">
<path d="M13.4348 2C14.5598 2.003 15.1308 2.009 15.6238 2.023L15.8178 2.03C16.0418 2.038 16.2628 2.048 16.5298 2.06C17.5938 2.11 18.3198 2.278 18.9568 2.525C19.6168 2.779 20.1728 3.123 20.7288 3.678C21.2375 4.17773 21.631 4.78247 21.8818 5.45C22.1288 6.087 22.2968 6.813 22.3468 7.878C22.3588 8.144 22.3688 8.365 22.3768 8.59L22.3828 8.784C22.3978 9.276 22.4038 9.847 22.4058 10.972L22.4068 11.718V13.028C22.4093 13.7574 22.4016 14.4868 22.3838 15.216L22.3778 15.41C22.3698 15.635 22.3598 15.856 22.3478 16.122C22.2978 17.187 22.1278 17.912 21.8818 18.55C21.631 19.2175 21.2375 19.8223 20.7288 20.322C20.2291 20.8307 19.6243 21.2242 18.9568 21.475C18.3198 21.722 17.5938 21.89 16.5298 21.94L15.8178 21.97L15.6238 21.976C15.1308 21.99 14.5598 21.997 13.4348 21.999L12.6888 22H11.3798C10.6501 22.0026 9.92034 21.9949 9.19082 21.977L8.99682 21.971C8.75943 21.962 8.52209 21.9517 8.28482 21.94C7.22082 21.89 6.49482 21.722 5.85682 21.475C5.18965 21.2241 4.58526 20.8306 4.08582 20.322C3.57676 19.8224 3.18293 19.2176 2.93182 18.55C2.68482 17.913 2.51682 17.187 2.46682 16.122L2.43682 15.41L2.43182 15.216C2.41338 14.4868 2.40505 13.7574 2.40682 13.028V10.972C2.40405 10.2426 2.41139 9.5132 2.42882 8.784L2.43582 8.59C2.44382 8.365 2.45382 8.144 2.46582 7.878C2.51582 6.813 2.68382 6.088 2.93082 5.45C3.18251 4.7822 3.57704 4.17744 4.08682 3.678C4.58597 3.16955 5.19001 2.77607 5.85682 2.525C6.49482 2.278 7.21982 2.11 8.28482 2.06C8.55082 2.048 8.77282 2.038 8.99682 2.03L9.19082 2.024C9.92001 2.00623 10.6494 1.99857 11.3788 2.001L13.4348 2ZM12.4068 7C11.0807 7 9.80897 7.52678 8.87128 8.46447C7.9336 9.40215 7.40682 10.6739 7.40682 12C7.40682 13.3261 7.9336 14.5979 8.87128 15.5355C9.80897 16.4732 11.0807 17 12.4068 17C13.7329 17 15.0047 16.4732 15.9424 15.5355C16.88 14.5979 17.4068 13.3261 17.4068 12C17.4068 10.6739 16.88 9.40215 15.9424 8.46447C15.0047 7.52678 13.7329 7 12.4068 7ZM12.4068 9C12.8008 8.99993 13.1909 9.07747 13.5549 9.22817C13.9189 9.37887 14.2497 9.5998 14.5283 9.87833C14.8069 10.1569 15.0279 10.4875 15.1788 10.8515C15.3296 11.2154 15.4073 11.6055 15.4073 11.9995C15.4074 12.3935 15.3299 12.7836 15.1791 13.1476C15.0284 13.5116 14.8075 13.8423 14.529 14.121C14.2505 14.3996 13.9198 14.6206 13.5558 14.7714C13.1919 14.9223 12.8018 14.9999 12.4078 15C11.6122 15 10.8491 14.6839 10.2865 14.1213C9.72389 13.5587 9.40782 12.7956 9.40782 12C9.40782 11.2044 9.72389 10.4413 10.2865 9.87868C10.8491 9.31607 11.6122 9 12.4078 9M17.6578 5.5C17.3263 5.5 17.0084 5.6317 16.7739 5.86612C16.5395 6.10054 16.4078 6.41848 16.4078 6.75C16.4078 7.08152 16.5395 7.39946 16.7739 7.63388C17.0084 7.8683 17.3263 8 17.6578 8C17.9893 8 18.3073 7.8683 18.5417 7.63388C18.7761 7.39946 18.9078 7.08152 18.9078 6.75C18.9078 6.41848 18.7761 6.10054 18.5417 5.86612C18.3073 5.6317 17.9893 5.5 17.6578 5.5Z" fill="#FF8121"/>
</svg>
