<svg width="53" height="53" viewBox="0 0 53 53" fill="none" xmlns="http://www.w3.org/2000/svg">
<mask id="mask0_27598_16461" style="mask-type:alpha" maskUnits="userSpaceOnUse" x="0" y="0" width="53" height="53">
<rect x="0.5" y="0.5" width="52" height="52" fill="#D9D9D9"/>
</mask>
<g mask="url(#mask0_27598_16461)">
<path d="M17.0208 14.3663L23.0874 6.51217C23.5208 5.9344 24.0353 5.51009 24.6312 5.23926C25.227 4.96842 25.8499 4.83301 26.4999 4.83301C27.1499 4.83301 27.7728 4.96842 28.3687 5.23926C28.9645 5.51009 29.4791 5.9344 29.9124 6.51217L35.9791 14.3663L45.1874 17.4538C46.1263 17.7427 46.8666 18.2754 47.4083 19.0518C47.9499 19.8281 48.2208 20.6858 48.2208 21.6247C48.2208 22.058 48.1576 22.4913 48.0312 22.9247C47.9048 23.358 47.6971 23.7733 47.4083 24.1705L41.4499 32.6205L41.6666 41.5038C41.7027 42.7677 41.2874 43.833 40.4208 44.6997C39.5541 45.5663 38.543 45.9997 37.3874 45.9997C37.3152 45.9997 36.918 45.9455 36.1958 45.8372L26.4999 43.1288L16.8041 45.8372C16.6235 45.9094 16.4249 45.9545 16.2083 45.9726C15.9916 45.9907 15.793 45.9997 15.6124 45.9997C14.4569 45.9997 13.4458 45.5663 12.5791 44.6997C11.7124 43.833 11.2971 42.7677 11.3333 41.5038L11.5499 32.5663L5.64575 24.1705C5.35686 23.7733 5.14922 23.358 5.02284 22.9247C4.89645 22.4913 4.83325 22.058 4.83325 21.6247C4.83325 20.7219 5.09506 19.8823 5.61867 19.1059C6.14228 18.3295 6.87353 17.7788 7.81242 17.4538L17.0208 14.3663Z" fill="#FFD630"/>
</g>
</svg>
