<svg width="114" height="48" viewBox="0 0 114 48" fill="none" xmlns="http://www.w3.org/2000/svg">
<path d="M20.751 36.3389C17.0036 35.1629 13.1291 33.9473 9.40438 34.4796L9.25606 34.5007L9.33375 34.3737C15.3341 24.521 23.22 16.3991 30.849 9.0918C31.3462 8.13745 30.6569 6.76804 30.4337 6.36851C30.0241 5.63863 27.9632 3.1751 26.0224 3.5351C25.0097 3.72286 22.7709 4.32286 20.1775 5.01745C17.546 5.72192 14.5628 6.52239 12.2068 7.0631C11.1954 7.29604 10.1516 7.47957 9.14024 7.65745C7.78283 7.89604 6.3788 8.1431 5.0341 8.51157C4.58634 8.87016 5.15699 10.0815 5.34344 10.4457C7.43111 14.0669 10.0118 14.6852 14.2493 12.5803C15.0346 12.2824 15.844 11.921 16.6279 11.5723C18.039 10.944 19.4981 10.2932 20.9304 9.94592C21.0815 9.90921 21.2002 9.93322 21.2553 10.0109C21.2835 10.0504 21.316 10.1365 21.2256 10.2735C18.4401 14.5257 4.82081 32.441 2.41533 34.8551C1.0452 36.2302 0.639815 38.3534 1.43081 40.0179C2.04808 41.3153 3.56228 41.9224 4.95359 41.4311C7.34495 40.5855 9.85073 40.1577 12.4102 40.1577C12.5839 40.1577 12.7577 40.1591 12.9314 40.1633C15.6603 40.2254 19.6563 41.2659 22.0166 43.1351C24.2385 44.8942 28.548 43.944 30.7614 42.7469C32.1993 42.048 35.1627 39.7977 34.7545 37.601C30.1385 39.2838 25.367 37.7873 20.7524 36.3403L20.751 36.3389Z" fill="#85CF1F"/>
<path d="M35.4002 19.9101C34.4327 19.0052 33.0823 18.7045 31.3873 19.015C31.4043 18.9063 31.3704 18.7553 31.2065 18.5534C30.7545 17.9915 29.4536 17.28 28.8222 17.5256C28.5355 17.6372 26.2585 18.9261 25.5735 19.6518L25.4633 19.7675C22.7555 22.5953 21.2851 25.4273 21.0916 28.1859C20.8981 30.9656 22.7457 33.8852 24.5932 34.8663C25.339 35.263 26.154 35.424 26.9676 35.424C28.4352 35.424 29.9 34.8988 30.9438 34.2762C33.4849 32.7642 36.3763 29.0852 36.8184 25.5459C37.1249 23.0936 36.6079 21.0381 35.4002 19.9087V19.9101ZM33.4524 24.7383C33.0188 26.9718 31.4212 29.4833 29.5666 30.847C28.1555 31.8847 27.1286 32.1755 26.5128 31.7125C25.5452 30.9854 25.7726 28.368 26.5509 26.2588C26.8165 25.5402 27.5411 24.3205 28.3137 23.2913C29.27 22.0179 30.133 21.24 30.7432 21.0988C30.9523 21.0508 31.1599 21.0268 31.3619 21.0268C31.8266 21.0268 32.2659 21.1525 32.6388 21.3967C33.1346 21.7228 33.4708 22.2438 33.5852 22.8649C33.6473 23.2052 33.5216 24.3826 33.4524 24.7383Z" fill="#85CF1F"/>
<path d="M64.8393 40.6165C64.8308 40.6024 64.8111 40.5953 64.7955 40.5911L64.1274 40.4528H64.1062C64.0766 40.4528 64.061 40.4612 64.0511 40.5022C63.8689 41.393 63.4466 42.305 62.9211 42.9389C62.9056 42.9586 62.9014 42.9728 62.9014 42.9996C62.9014 43.0123 62.9014 43.0208 62.907 43.0363L63.1486 43.7521C63.157 43.7803 63.1697 43.7972 63.1839 43.7972C63.1895 43.7972 63.2065 43.7873 63.2206 43.7732C63.3195 43.6603 63.4282 43.5163 63.5328 43.3582L63.5977 43.2608V46.5784C63.5977 46.6236 63.6133 46.6391 63.6585 46.6391H64.2997C64.3449 46.6391 64.3605 46.6236 64.3605 46.5784L64.3633 42.0128C64.5752 41.537 64.739 41.0697 64.8365 40.6631C64.8421 40.6462 64.845 40.6278 64.8365 40.6137L64.8393 40.6165Z" fill="#454545"/>
<path d="M68.5003 44.9549L68.4905 44.9393L68.4975 44.9224C68.8111 44.177 68.982 43.2706 69.0187 42.1539V42.12H69.1783C69.2207 42.12 69.2391 42.1017 69.2391 42.0593V41.4396C69.2391 41.3972 69.2207 41.3789 69.1783 41.3789H67.9071L67.9184 41.3351C67.9848 41.0796 68.0413 40.8113 68.0837 40.6066C68.0893 40.553 68.0596 40.5417 68.0314 40.5389L67.4523 40.4556H67.4367C67.4042 40.4556 67.3873 40.4725 67.3816 40.5078C67.3153 41.0612 67.1316 42.0989 66.6457 42.8231C66.6274 42.8485 66.6245 42.8626 66.6245 42.8725C66.6245 42.888 66.6302 42.905 66.6358 42.9233L66.9635 43.5233C66.9861 43.56 66.9974 43.56 67.0017 43.56C67.0087 43.56 67.0257 43.553 67.0398 43.529L67.2559 43.0871L67.2701 43.2057C67.3449 43.8184 67.4946 44.3944 67.715 44.9167L67.7221 44.9337L67.7122 44.9492C67.4918 45.3078 67.2065 45.6085 66.8421 45.8683L66.7856 45.9078V43.4923C66.7856 43.4499 66.7672 43.4316 66.7248 43.4316H66.1457V42.3007H66.7672C66.8096 42.3007 66.8279 42.2824 66.8279 42.24V41.6132C66.8279 41.5666 66.8138 41.5525 66.7672 41.5525H66.1457V40.5403C66.1457 40.4979 66.1273 40.4796 66.085 40.4796H65.5058C65.4635 40.4796 65.4451 40.4979 65.4451 40.5403V41.5525H64.7756C64.7304 41.5525 64.7148 41.568 64.7148 41.6132V42.24C64.7148 42.2824 64.7332 42.3007 64.7756 42.3007H65.4451V43.4316H64.8589C64.8165 43.4316 64.7982 43.4499 64.7982 43.4923V46.2184C64.7982 46.2607 64.8165 46.2791 64.8589 46.2791H66.7262C66.7686 46.2791 66.787 46.2607 66.787 46.2184V45.9742L67.1684 46.5713C67.1825 46.5897 67.2008 46.6038 67.215 46.6038C67.2206 46.6038 67.2376 46.5939 67.2446 46.5869C67.5808 46.3285 67.8506 46.0419 68.0738 45.7102L68.1034 45.665L68.1331 45.7102C68.3379 46.0306 68.5809 46.3158 68.8563 46.5558C68.8676 46.5643 68.8902 46.5812 68.9015 46.5812C68.9071 46.5812 68.9255 46.5699 68.9425 46.5473L69.3267 45.9502C69.338 45.9332 69.3422 45.9191 69.3422 45.9134C69.3422 45.8965 69.3323 45.8796 69.3154 45.8655C68.9778 45.593 68.7122 45.2951 68.5003 44.9535V44.9549ZM66.1401 45.5633H65.4423V44.1163H66.1401V45.5633ZM68.3591 42.1553C68.345 42.8711 68.2701 43.464 68.1303 43.968L68.0978 44.0824L68.0625 43.968C67.9099 43.4852 67.8153 42.8923 67.7715 42.1553V42.1186H68.3591V42.1539V42.1553Z" fill="#454545"/>
<path d="M74.5576 43.5036H74.5858L75.2201 43.3808C75.2469 43.3765 75.2737 43.361 75.2737 43.3257V43.3116C75.2088 42.8273 75.0421 42.1525 74.8274 41.5116C74.8133 41.4593 74.7977 41.4594 74.785 41.4594C74.7808 41.4594 74.7751 41.4593 74.7525 41.465L74.1042 41.6033C74.0915 41.6076 74.0562 41.6203 74.0562 41.6443C74.0562 41.657 74.0562 41.6641 74.059 41.6697C74.1988 42.0622 74.4418 42.809 74.511 43.4513C74.5166 43.4979 74.5378 43.5022 74.559 43.5022L74.5576 43.5036Z" fill="#454545"/>
<path d="M73.9938 40.6448C73.9853 40.6306 73.9656 40.6236 73.9514 40.6194L73.2085 40.4683C73.183 40.4626 73.1788 40.4626 73.1746 40.4626C73.1633 40.4626 73.1506 40.481 73.1393 40.5149C72.8864 41.4339 72.3596 42.3332 71.69 42.9798C71.6759 42.9996 71.666 43.0208 71.666 43.0377C71.666 43.0504 71.666 43.0589 71.6717 43.0744L71.9259 43.8594C71.933 43.8819 71.9471 43.8975 71.9612 43.8975C71.9711 43.8975 71.9895 43.889 71.9979 43.8805C72.1703 43.721 72.3497 43.5036 72.5163 43.2523L72.5813 43.1549V46.5826C72.5813 46.625 72.5997 46.6434 72.642 46.6434H73.3384C73.3808 46.6434 73.3992 46.625 73.3992 46.5826L73.4034 42.0622C73.6421 41.6316 73.8568 41.1318 73.9924 40.6914C73.9966 40.6772 74.0009 40.6575 73.9924 40.6448H73.9938Z" fill="#454545"/>
<path d="M78.1478 41.5906L77.4712 41.4522C77.4557 41.4494 77.4359 41.4466 77.4232 41.4565C77.4091 41.4664 77.4049 41.4875 77.4034 41.5045C77.3258 42.0579 77.1337 42.6918 76.8766 43.2438C76.8709 43.2565 76.8667 43.2706 76.8667 43.2777C76.8667 43.3031 76.9006 43.3158 76.9119 43.32L77.532 43.5473C77.5475 43.5515 77.5503 43.5515 77.5616 43.5515C77.5828 43.5515 77.5984 43.5459 77.6125 43.5162C77.8795 42.9614 78.1026 42.2527 78.1944 41.6682V41.6598C78.1944 41.6414 78.1902 41.5977 78.1478 41.592V41.5906Z" fill="#454545"/>
<path d="M76.2243 42.3684V40.5303C76.2243 40.488 76.2059 40.4696 76.1635 40.4696H75.4545C75.4121 40.4696 75.3937 40.488 75.3937 40.5303L75.4008 41.5496L75.3937 42.4447C75.3612 43.9891 74.8174 45.0889 73.7312 45.8061C73.7086 45.8188 73.6987 45.8343 73.6987 45.8527C73.6987 45.8668 73.7044 45.8809 73.7129 45.895L74.2016 46.5755C74.2157 46.5953 74.2341 46.6023 74.2411 46.6023C74.2553 46.6023 74.2694 46.5981 74.2835 46.5882C74.9897 46.0771 75.5618 45.2611 75.8118 44.4042L75.8443 44.2913L75.8796 44.4042C76.1169 45.175 76.665 45.967 77.3839 46.5769C77.3924 46.5854 77.4122 46.5967 77.4306 46.5967C77.439 46.5967 77.456 46.5896 77.4715 46.5698L77.9673 45.9021C77.9772 45.888 77.9814 45.8738 77.9814 45.8541C77.9814 45.8456 77.9744 45.8287 77.9546 45.8131C76.9362 45.1157 76.2257 43.6983 76.2257 42.3698L76.2243 42.3684Z" fill="#454545"/>
<path d="M85.9281 44.9549L85.9182 44.9393L85.9253 44.9224C86.2389 44.177 86.4098 43.2706 86.4465 42.1539V42.12H86.6061C86.6485 42.12 86.6669 42.1017 86.6669 42.0593V41.4396C86.6669 41.3972 86.6485 41.3789 86.6061 41.3789H85.3349L85.3462 41.3351C85.4126 41.0796 85.4691 40.8113 85.5114 40.6066C85.5171 40.553 85.4874 40.5417 85.4592 40.5389L84.8801 40.4556H84.8645C84.832 40.4556 84.8151 40.4725 84.8094 40.5078C84.743 41.0612 84.5594 42.0989 84.0735 42.8231C84.0537 42.8485 84.0523 42.8626 84.0523 42.8725C84.0523 42.888 84.058 42.905 84.0636 42.9233L84.3913 43.5233C84.4139 43.56 84.4252 43.56 84.4295 43.56C84.4365 43.56 84.4535 43.553 84.4676 43.529L84.6837 43.0871L84.6978 43.2057C84.7727 43.8184 84.9224 44.3944 85.1428 44.9167L85.1498 44.9337L85.14 44.9492C84.9196 45.3078 84.6343 45.6085 84.2699 45.8683L84.2148 45.9078V43.4923C84.2148 43.4499 84.1964 43.4316 84.154 43.4316H83.5749V42.3007H84.1964C84.2388 42.3007 84.2571 42.2824 84.2571 42.24V41.6132C84.2571 41.5666 84.2416 41.5525 84.1964 41.5525H83.5749V40.5403C83.5749 40.4979 83.5565 40.4796 83.5142 40.4796H82.935C82.8927 40.4796 82.8743 40.4979 82.8743 40.5403V41.5525H82.2048C82.1596 41.5525 82.144 41.568 82.144 41.6132V42.24C82.144 42.2824 82.1624 42.3007 82.2048 42.3007H82.8743V43.4316H82.2881C82.2457 43.4316 82.2274 43.4499 82.2274 43.4923V46.2184C82.2274 46.2607 82.2457 46.2791 82.2881 46.2791H84.1554C84.1978 46.2791 84.2162 46.2607 84.2162 46.2184V45.9742L84.5976 46.5713C84.6117 46.5897 84.63 46.6038 84.6442 46.6038C84.6498 46.6038 84.6668 46.5939 84.6738 46.5869C85.01 46.3285 85.2798 46.0419 85.503 45.7102L85.5326 45.665L85.5623 45.7102C85.7671 46.0306 86.0101 46.3158 86.2855 46.5558C86.2968 46.5643 86.3194 46.5812 86.3307 46.5812C86.3363 46.5812 86.3547 46.5699 86.3717 46.5473L86.7559 45.9502C86.7686 45.9318 86.7714 45.9177 86.7714 45.9134C86.7714 45.8965 86.7615 45.8796 86.7446 45.8655C86.4084 45.593 86.1414 45.2951 85.9295 44.9535L85.9281 44.9549ZM83.5678 45.5633H82.8701V44.1163H83.5678V45.5633ZM85.7869 42.1553C85.7727 42.8711 85.6979 43.464 85.558 43.968L85.5256 44.0838L85.4903 43.9695C85.3377 43.4852 85.2431 42.8923 85.1993 42.1567V42.12H85.7869V42.1553Z" fill="#454545"/>
<path d="M82.2666 40.6165C82.2581 40.6024 82.2384 40.5953 82.2228 40.5911L81.5547 40.4528H81.5349C81.5053 40.4528 81.4897 40.4612 81.4799 40.5022C81.2976 41.393 80.8753 42.3036 80.3499 42.9389C80.3343 42.9586 80.3301 42.9713 80.3301 42.9996C80.3301 43.0123 80.3301 43.0222 80.3357 43.0363L80.5773 43.7521C80.5857 43.7803 80.5985 43.7972 80.6126 43.7972C80.6182 43.7972 80.6352 43.7873 80.6493 43.7732C80.7482 43.6603 80.8569 43.5163 80.9615 43.3582L81.0264 43.2608V46.5784C81.0264 46.6236 81.042 46.6391 81.0872 46.6391H81.7285C81.7737 46.6391 81.7892 46.6236 81.7892 46.5784L81.792 42.0128C82.0039 41.537 82.1677 41.0697 82.2652 40.6631C82.2709 40.6462 82.2737 40.6278 82.2652 40.6137L82.2666 40.6165Z" fill="#454545"/>
<path d="M95.4906 43.1676H94.3663V42.5789L94.3776 42.569C94.7801 42.2118 95.122 41.8179 95.3141 41.4904C95.331 41.4551 95.3367 41.4339 95.3367 41.3916V40.7309C95.3367 40.6885 95.3183 40.6702 95.2759 40.6702H92.3902C92.3478 40.6702 92.3295 40.6885 92.3295 40.7309V41.4057C92.3295 41.4481 92.3478 41.4664 92.3902 41.4664H94.403L94.3691 41.5201C94.2109 41.7713 93.9044 42.0678 93.5866 42.2739C93.5541 42.3008 93.54 42.3262 93.54 42.3615V43.1676H92.2023C92.16 43.1676 92.1416 43.1859 92.1416 43.2283V43.9031C92.1416 43.9455 92.16 43.9638 92.2023 43.9638H93.54V45.3629C93.54 45.7356 93.4849 45.8669 92.8705 45.8669L92.5258 45.8598C92.5258 45.8598 92.5145 45.8598 92.5089 45.8598C92.4919 45.8598 92.4792 45.8626 92.4721 45.8697C92.4707 45.8711 92.4651 45.8753 92.4651 45.8881L92.4721 45.9233L92.7108 46.5855C92.7193 46.6123 92.7334 46.6377 92.7871 46.6377L92.9948 46.6448C94.1657 46.6448 94.3635 46.368 94.3635 45.5365V43.9666H95.4878C95.5302 43.9666 95.5486 43.9483 95.5486 43.9059V43.2311C95.5486 43.1888 95.5302 43.1704 95.4878 43.1704L95.4906 43.1676Z" fill="#454545"/>
<path d="M91.4664 44.8038L91.4466 44.7868L91.4579 44.7628C91.8195 43.9723 91.9706 43.0306 91.9777 41.5144C91.9777 41.4692 91.9622 41.4537 91.917 41.4537H90.7206L90.7234 41.4156C90.7502 41.1219 90.7714 40.8141 90.7855 40.5021C90.7855 40.4612 90.7672 40.4428 90.7248 40.4428L90.0765 40.4358C90.0341 40.4358 90.0157 40.4541 90.0157 40.4965C90.0157 40.7916 89.9903 41.1459 89.9677 41.4226L89.9649 41.4551H89.4225C89.3801 41.4551 89.3617 41.4734 89.3617 41.5158V42.1497C89.3617 42.192 89.3801 42.2104 89.4225 42.2104H89.883L89.8787 42.2499C89.7883 42.9854 89.6598 43.6659 89.5058 44.2179C89.4959 44.2588 89.5058 44.2857 89.5411 44.3111C89.8519 44.5186 90.1457 44.7318 90.4112 44.9464L90.4381 44.9676L90.4169 44.9944C90.1429 45.3487 89.7318 45.6819 89.2897 45.9064C89.2685 45.9191 89.2544 45.936 89.2544 45.9501C89.2544 45.9572 89.2657 45.9741 89.2713 45.9798L89.7219 46.5897C89.7417 46.6094 89.7572 46.6236 89.7685 46.6236C89.7827 46.6236 89.7954 46.6193 89.8109 46.6094C90.2615 46.3101 90.6951 45.9036 91.0002 45.4956L91.0243 45.4645L91.0525 45.4913C91.2898 45.7144 91.5017 45.9332 91.6825 46.1407C91.6881 46.1464 91.7107 46.1619 91.7192 46.1633C91.7277 46.1633 91.7404 46.1605 91.7588 46.1365L92.1641 45.552C92.174 45.5379 92.1783 45.5238 92.1783 45.5097C92.1783 45.4941 92.1641 45.4687 92.1543 45.4588C91.9622 45.2527 91.7249 45.0283 91.4678 44.8066L91.4664 44.8038ZM91.2418 42.2443C91.2347 43.0193 91.1005 43.7548 90.8731 44.2617L90.8548 44.3026L90.8194 44.2758C90.6273 44.1304 90.4691 44.0203 90.3335 43.9412L90.3095 43.9271L90.3166 43.9003C90.4522 43.4231 90.5497 42.7934 90.6259 42.2386L90.6302 42.2076H91.2404V42.2428L91.2418 42.2443Z" fill="#454545"/>
<path d="M94.5684 16.8706C95.8072 18.0847 97.6194 18.7807 99.5447 18.7807C101.47 18.7807 103.282 18.0847 104.519 16.8706C104.73 16.6645 104.847 16.3892 104.85 16.0942C104.853 15.7991 104.741 15.5224 104.535 15.312C104.11 14.8786 103.409 14.8716 102.976 15.2965C102.146 16.1097 100.895 16.5756 99.5447 16.5756C98.1943 16.5756 96.9428 16.1097 96.1137 15.2965C95.6801 14.8716 94.9795 14.8772 94.5543 15.312C94.3481 15.5224 94.2365 15.8005 94.2393 16.0942C94.2421 16.3878 94.3594 16.6645 94.5698 16.8706H94.5684Z" fill="#FF8121"/>
<path d="M95.6009 12.281C96.4145 12.2796 96.9611 11.4918 96.9611 10.3243C96.9611 9.15673 96.4145 8.36755 95.5994 8.36755C94.7844 8.36755 94.2378 9.15391 94.2378 10.3243C94.2378 11.4946 94.7844 12.2796 95.5994 12.281H95.6009Z" fill="#FF8121"/>
<path d="M104.85 10.3243C104.85 9.15391 104.303 8.36755 103.488 8.36755C102.673 8.36755 102.126 9.15391 102.126 10.3243C102.126 11.4946 102.673 12.2796 103.49 12.281C104.303 12.2796 104.85 11.4918 104.85 10.3243Z" fill="#FF8121"/>
<path d="M108.862 5.208C106.366 2.5327 102.969 1.09694 99.2975 1.16047C96.4047 1.21129 93.5924 2.26306 91.3762 4.12094C88.5625 6.48 86.9424 9.792 86.8139 13.4471C86.763 14.9012 88.9665 14.9788 89.0174 13.5233C89.1191 10.6108 90.379 7.93976 92.567 6.00282C94.4668 4.32141 96.9076 3.38259 99.4402 3.36141C102.572 3.336 105.532 4.68423 107.565 7.06306C109.21 8.98729 110.103 11.4452 110.079 13.9807C110.052 16.9002 108.862 19.6038 106.73 21.5915C104.672 23.5101 101.99 24.5125 99.1775 24.4136C98.3469 24.384 97.522 24.2584 96.724 24.0381C96.4485 23.9619 96.1575 24.0155 95.9273 24.1835C95.6928 24.3558 95.553 24.6226 95.5431 24.9148V24.9304C95.5177 25.6278 96.2762 26.1995 96.8115 26.328C97.6647 26.5341 98.2523 26.5864 99.1012 26.616C102.758 26.7431 106.176 25.3595 108.727 22.7181C110.736 20.6386 111.982 17.9068 112.235 15.0268C112.555 11.3689 111.357 7.88188 108.863 5.208H108.862Z" fill="#FF8121"/>
<path d="M85.8701 36.1243C88.9155 35.3803 91.53 33.3092 92.9962 30.689C93.8013 29.386 94.4101 28.1718 92.9962 27.8754C92.8889 27.8641 92.7928 27.8754 92.6925 27.9163C92.3083 28.0688 90.9947 29.9168 90.5808 30.3714C89.4805 31.5798 86.7233 33.0735 85.0241 33.0537C83.1652 33.0325 82.651 31.2396 82.8107 29.6923C82.8262 29.5356 82.935 29.4043 83.0861 29.3591C83.6921 29.177 84.3206 29.0754 84.9167 28.8565C87.6767 27.8415 90.3944 25.0772 91.5893 22.4161C93.54 18.0707 88.8279 15.3615 85.1907 17.5074C81.8276 19.4909 78.8557 25.6278 78.8825 29.4678C78.8853 29.8335 78.9913 30.8429 78.9913 30.8429C78.9913 30.8429 77.9079 31.93 77.5929 32.1163C75.6973 33.2415 76.1903 30.1031 76.34 29.1643C76.6394 27.2796 77.2666 25.1563 77.9149 23.3605C78.083 22.8947 78.6169 21.953 78.5506 21.5069C78.3839 20.3944 75.662 19.2001 74.8993 20.3478C74.8851 20.3676 74.8738 20.3902 74.8653 20.4128C73.5362 23.489 72.368 26.6457 70.7762 29.6005C70.1857 30.6961 69.3538 32.2179 68.3834 32.9958C67.3508 33.8231 67.0387 32.9252 67.0811 31.9596C67.1799 29.7375 68.4484 26.1078 69.2069 23.9464C69.9174 21.9205 71.4316 19.7859 69.286 18.0297C68.0769 17.0401 64.975 17.6344 63.5668 17.7855C63.5498 17.5539 66.04 10.9314 67.252 8.17277C67.4483 7.72524 68.043 6.80336 68.0613 6.37842C68.1094 5.25889 66.4454 4.17183 65.5626 3.72289C65.0287 3.45183 63.9156 2.94077 63.4622 3.53654C63.2306 3.84289 62.9594 5.08524 62.8139 5.54265C61.4141 9.92618 60.0906 14.2631 58.5637 18.6029L49.4855 20.5229L48.8683 20.6344C49.9121 17.0528 51.2173 12.8754 52.4334 9.35018C52.8727 8.07818 53.603 7.21983 52.5676 5.9803C51.7978 5.05842 50.2059 4.29324 49.0109 4.22689C48.6649 4.20712 47.7114 4.12665 47.6521 4.57136C47.5942 5.01042 47.7355 5.66548 47.71 6.16948C47.6083 8.24477 46.5702 11.2476 45.9811 13.3059C45.337 15.5605 44.683 17.921 43.9514 20.1403C43.8624 20.4085 43.7014 21.0664 43.4782 21.2076C43.053 21.4758 41.3495 21.5859 40.7393 21.7074C39.1856 22.0179 38.2096 22.3638 38.9878 24.1695C39.5726 25.5248 40.495 26.705 42.1307 26.5751C41.601 28.6716 40.9343 30.7384 40.4046 32.8377C39.7506 35.4283 38.4002 38.9478 42.0671 39.8288C42.6335 39.9643 43.8596 40.1944 44.0813 39.4843C44.2339 38.993 44.2395 38.1276 44.3342 37.5615C44.5828 36.0805 44.991 34.5219 45.354 33.0608C45.9783 30.5436 46.686 28.0363 47.508 25.5798L57.1936 22.5939C56.2514 26.1982 54.9011 29.7205 53.9999 33.3361C53.0662 37.0871 52.0139 41.6429 56.8461 41.9168C57.2458 41.9394 57.6286 41.7347 57.7232 41.2052C57.8207 40.6617 57.7925 40.2212 57.8278 39.6043C57.8956 38.4354 58.2445 37.0165 58.4832 35.8547C59.5341 30.7356 61.0949 25.7252 62.9142 20.8434C63.4594 20.7092 63.9962 20.5074 64.5541 20.4255C64.6191 20.4156 64.7208 20.4057 64.8281 20.3817C66.6856 19.9822 66.5132 20.6203 66.42 20.8885C65.6445 23.1234 64.725 25.3257 64.0399 27.5972C63.4354 29.6048 62.8026 32.0923 63.3365 34.1676C64.0442 36.9121 66.8734 38.0499 69.1249 36.1299C70.3496 35.0852 71.2324 33.7427 72.0319 32.3619C72.2183 32.0401 72.707 32.1417 72.7466 32.5116C72.8426 33.4222 73.0079 34.3384 73.5178 35.0867C74.1153 35.9634 75.2933 36.3996 76.3259 36.161C77.3513 35.9238 79.7696 33.2415 79.7696 33.2415C79.7696 33.2415 80.2667 34.1238 80.3232 34.193C81.6383 35.8222 83.8079 36.6311 85.8673 36.1285L85.8701 36.1243ZM83.5536 25.7436C83.6666 25.3384 83.8601 24.9459 84.0325 24.5732C84.6441 23.2532 86.4295 20.4071 87.7233 19.769C88.2107 19.529 88.4946 19.6688 88.5496 20.2349C88.6386 21.1328 87.7855 22.721 87.2713 23.4565C86.4521 24.6283 85.3489 25.5092 84.1087 26.1869C83.8079 26.3507 83.4618 26.0725 83.5536 25.7422V25.7436Z" fill="#85CF1F"/>
</svg>
