<svg width="144" height="144" viewBox="0 0 144 144" fill="none" xmlns="http://www.w3.org/2000/svg">
<path d="M96.9407 48.1005V72.8925C88.2575 73.4493 80.0111 76.4349 72.7295 81.0573V56.7021C79.6463 51.3549 88.3007 48.8349 96.9407 48.0957V48.1005Z" fill="#2E3192"/>
<path d="M70.6896 80.77C63.4032 76.5268 55.32 73.426 46.7712 72.8932V47.5156C55.296 48.9076 63.7632 51.4036 70.6896 56.7028V80.7652V80.77Z" fill="#2E3192"/>
<path d="M74.189 31.4785L73.6082 44.3185C73.6082 44.3185 71.4866 44.3569 70.397 44.3185L69.8162 31.4833H74.189V31.4785Z" fill="#F15A24"/>
<path d="M52.9438 37.935L55.819 35.9766L64.4398 46.647L62.515 47.6694L52.9438 37.935Z" fill="#F15A24"/>
<path d="M90.5184 37.935L87.6432 35.9766L79.0176 46.647L80.9424 47.6694L90.5184 37.935Z" fill="#F15A24"/>
<path d="M34.1572 97.0078V88.5166H39.8164V90.4702H36.3988V91.7854H39.5908V93.739H36.3988V95.059H39.874V97.0126H34.1572V97.0078Z" fill="#1A1A1A"/>
<path d="M41.7603 97.0078V88.5166H44.7651C45.7779 88.5166 46.6659 88.6942 47.4147 89.0446C48.1683 89.395 48.7539 89.8894 49.1715 90.523C49.5891 91.1566 49.7955 91.9054 49.7955 92.7598C49.7955 93.6142 49.5891 94.3582 49.1715 94.9966C48.7539 95.635 48.1683 96.1294 47.4147 96.4798C46.6611 96.8302 45.7779 97.0078 44.7651 97.0078H41.7603ZM44.0019 95.0542H44.8419C45.4179 95.0542 45.9027 94.9678 46.2963 94.7902C46.6947 94.6126 46.9923 94.3534 47.1987 94.0126C47.4051 93.6718 47.5059 93.2542 47.5059 92.7646C47.5059 92.275 47.4051 91.8526 47.1987 91.5118C46.9923 91.171 46.6899 90.9118 46.2963 90.7342C45.8979 90.5566 45.4179 90.4702 44.8419 90.4702H44.0019V95.0542Z" fill="#1A1A1A"/>
<path d="M59.117 88.5166V93.1726C59.117 94.003 58.9634 94.7182 58.661 95.3134C58.3586 95.9086 57.9218 96.3694 57.3554 96.691C56.789 97.0126 56.1074 97.171 55.3154 97.171C54.5234 97.171 53.8466 97.0126 53.2754 96.691C52.7042 96.3694 52.2674 95.9134 51.965 95.3134C51.6626 94.7134 51.509 94.003 51.509 93.1726V88.5166H53.7506V92.8702C53.7506 93.4078 53.8082 93.8542 53.9186 94.1998C54.029 94.5454 54.2018 94.8046 54.4322 94.9726C54.6626 95.1406 54.9554 95.2222 55.3154 95.2222C55.6754 95.2222 55.9682 95.1406 56.1986 94.9726C56.429 94.8046 56.597 94.5454 56.7122 94.1998C56.8226 93.8542 56.8802 93.4078 56.8802 92.8702V88.5166H59.1218H59.117Z" fill="#1A1A1A"/>
<path d="M68.4819 95.9566C68.0835 96.3406 67.6083 96.643 67.0659 96.859C66.5235 97.075 65.9283 97.1806 65.2851 97.1806C64.6419 97.1806 64.0419 97.0702 63.4947 96.8494C62.9475 96.6286 62.4675 96.3214 62.0643 95.923C61.6611 95.5246 61.3443 95.059 61.1187 94.5214C60.8931 93.9838 60.7827 93.403 60.7827 92.7646C60.7827 92.1262 60.8931 91.5454 61.1187 91.0078C61.3443 90.4702 61.6563 90.0046 62.0643 89.6062C62.4723 89.2078 62.9475 88.9006 63.4947 88.6798C64.0419 88.459 64.6419 88.3486 65.2851 88.3486C65.9283 88.3486 66.5139 88.459 67.0515 88.675C67.5891 88.891 68.0643 89.1934 68.4627 89.5774L66.9027 91.1518C66.7059 90.8878 66.4659 90.6814 66.1827 90.5278C65.8995 90.379 65.5875 90.3022 65.2515 90.3022C64.9443 90.3022 64.6563 90.3646 64.3923 90.4894C64.1283 90.6142 63.8979 90.787 63.7011 91.0078C63.5043 91.2286 63.3507 91.4926 63.2403 91.7902C63.1299 92.0878 63.0771 92.4094 63.0771 92.7598C63.0771 93.1102 63.1299 93.4366 63.2403 93.7342C63.3507 94.0318 63.5043 94.2958 63.7011 94.5166C63.8979 94.7422 64.1283 94.915 64.3923 95.0398C64.6563 95.1646 64.9443 95.227 65.2515 95.227C65.5875 95.227 65.8947 95.1502 66.1779 95.0014C66.4611 94.8526 66.7011 94.6414 66.8979 94.3774L68.4819 95.9566Z" fill="#1A1A1A"/>
<path d="M71.866 97.0078H69.5188L72.8356 88.5166H75.1828L78.4948 97.0078H76.1476L75.6004 95.4958H72.418L71.8708 97.0078H71.866ZM73.1284 93.5422H74.89L74.0068 91.1182L73.1284 93.5422Z" fill="#1A1A1A"/>
<path d="M83.4483 97.0078H81.2067V90.4702H78.8547V88.5166H85.8051V90.4702H83.4483V97.0078Z" fill="#1A1A1A"/>
<path d="M87.2356 97.0078V88.5166H89.4772V97.0078H87.2356Z" fill="#1A1A1A"/>
<path d="M95.698 97.1757C95.05 97.1757 94.45 97.0653 93.9028 96.8445C93.3556 96.6237 92.8756 96.3166 92.4724 95.9181C92.0692 95.5198 91.7524 95.0542 91.5316 94.5166C91.3108 93.979 91.1956 93.3981 91.1956 92.7597C91.1956 92.1213 91.306 91.5405 91.5316 91.0029C91.7572 90.4653 92.0692 89.9997 92.4724 89.6013C92.8756 89.2029 93.3556 88.8958 93.9028 88.675C94.45 88.4542 95.05 88.3438 95.698 88.3438C96.346 88.3438 96.9508 88.4542 97.498 88.675C98.0452 88.8958 98.5204 89.2029 98.9236 89.6013C99.3268 89.9997 99.6388 90.4653 99.8596 91.0029C100.08 91.5405 100.196 92.1213 100.196 92.7597C100.196 93.3981 100.085 93.979 99.8596 94.5166C99.634 95.0542 99.3268 95.5198 98.9236 95.9181C98.5204 96.3166 98.0452 96.6237 97.498 96.8445C96.9508 97.0653 96.3508 97.1757 95.698 97.1757ZM95.698 95.2269C96.01 95.2269 96.3028 95.1645 96.5716 95.0397C96.8404 94.9149 97.0708 94.7422 97.2724 94.5166C97.4692 94.291 97.6276 94.0317 97.738 93.7341C97.8484 93.4365 97.906 93.1149 97.906 92.7645C97.906 92.4141 97.8484 92.0926 97.738 91.795C97.6276 91.4974 97.474 91.2333 97.2724 91.0125C97.0756 90.7869 96.8404 90.6142 96.5716 90.4894C96.3028 90.3646 96.0148 90.3022 95.698 90.3022C95.3812 90.3022 95.0932 90.3646 94.8244 90.4894C94.5556 90.6142 94.3204 90.7869 94.1188 91.0125C93.9172 91.2381 93.7636 91.4974 93.6532 91.795C93.5428 92.0926 93.4852 92.4141 93.4852 92.7645C93.4852 93.1149 93.5428 93.4365 93.6532 93.7341C93.7636 94.0317 93.922 94.2958 94.1188 94.5166C94.3204 94.7422 94.5556 94.9149 94.8244 95.0397C95.0932 95.1645 95.386 95.2269 95.698 95.2269Z" fill="#1A1A1A"/>
<path d="M109.844 97.0078H107.208L104.151 91.9726V97.0078H101.909V88.5166H104.549L107.607 93.571V88.5166H109.848V97.0078H109.844Z" fill="#1A1A1A"/>
<path d="M54.8882 109.579V101.088H60.3218V103.041H57.1298V104.357H60.0962V106.31H57.1298V109.579H54.8882Z" fill="#1A1A1A"/>
<path d="M62.2083 109.579V101.088H64.4499V109.579H62.2083Z" fill="#1A1A1A"/>
<path d="M73.906 109.579H71.4292L69.8116 106.771H68.6356V109.579H66.394V101.088H69.9844C70.7188 101.088 71.3476 101.198 71.8612 101.424C72.3748 101.649 72.7732 101.971 73.0468 102.393C73.3204 102.816 73.4548 103.329 73.4548 103.929C73.4548 104.491 73.3348 104.976 73.0948 105.384C72.8548 105.792 72.5044 106.113 72.0484 106.344L73.9108 109.574L73.906 109.579ZM68.6308 105.048H69.802C70.2484 105.048 70.5892 104.966 70.8196 104.798C71.05 104.63 71.1604 104.381 71.1604 104.049C71.1604 103.718 71.0452 103.469 70.8196 103.301C70.5892 103.133 70.2532 103.051 69.802 103.051H68.6308V105.053V105.048Z" fill="#1A1A1A"/>
<path d="M75.0002 108.605L76.0514 106.896C76.325 107.112 76.5842 107.285 76.8242 107.424C77.0642 107.563 77.2994 107.659 77.525 107.721C77.7506 107.784 77.9858 107.813 78.2258 107.813C78.4658 107.813 78.6578 107.784 78.8258 107.731C78.9938 107.678 79.1186 107.597 79.2098 107.491C79.301 107.385 79.3442 107.265 79.3442 107.121C79.3442 106.939 79.2818 106.785 79.1522 106.656C79.0226 106.526 78.8546 106.411 78.6386 106.31C78.4274 106.209 78.1922 106.109 77.9378 106.003C77.6642 105.893 77.3906 105.773 77.1074 105.638C76.8242 105.504 76.565 105.341 76.325 105.149C76.085 104.957 75.893 104.721 75.749 104.443C75.6002 104.165 75.5282 103.829 75.5282 103.425C75.5282 102.897 75.6626 102.446 75.9266 102.072C76.1906 101.697 76.5554 101.409 77.021 101.213C77.4818 101.016 78.005 100.915 78.5906 100.915C79.0178 100.915 79.469 100.973 79.9442 101.083C80.4194 101.198 80.8994 101.376 81.389 101.616L80.5154 103.416C80.2418 103.248 79.9442 103.118 79.6226 103.017C79.301 102.917 79.0034 102.869 78.7394 102.869C78.5522 102.869 78.3938 102.893 78.2546 102.941C78.1154 102.989 78.0098 103.061 77.933 103.152C77.8562 103.243 77.8178 103.353 77.8178 103.478C77.8178 103.646 77.8802 103.79 78.0098 103.915C78.1394 104.04 78.3074 104.155 78.5186 104.261C78.7298 104.366 78.9602 104.472 79.2098 104.582C79.4834 104.697 79.7618 104.832 80.045 104.971C80.3282 105.115 80.5922 105.283 80.8322 105.48C81.0722 105.677 81.2642 105.912 81.413 106.185C81.5618 106.459 81.6338 106.785 81.6338 107.169C81.6338 107.678 81.4946 108.125 81.2162 108.513C80.9378 108.902 80.5538 109.2 80.0546 109.416C79.5602 109.632 78.9842 109.737 78.3266 109.737C77.717 109.737 77.1266 109.641 76.5602 109.445C75.9938 109.248 75.4754 108.965 75.0002 108.595V108.605Z" fill="#1A1A1A"/>
<path d="M87.2691 109.579H85.0275V103.041H82.6755V101.088H89.6259V103.041H87.2691V109.579Z" fill="#1A1A1A"/>
</svg>
