<svg width="144" height="144" viewBox="0 0 144 144" fill="none" xmlns="http://www.w3.org/2000/svg">
<path d="M94.2721 41.28C93.8401 55.104 97.4401 67.68 85.6321 77.712C83.5201 79.488 73.9681 85.44 71.5681 85.344C69.9361 85.296 62.5921 81.216 60.9601 80.064C45.6961 69.792 49.3441 57.552 49.1041 41.28L71.3281 35.376L94.2721 41.28Z" stroke="black" stroke-width="1.344" stroke-miterlimit="10"/>
<path d="M36.4319 104.783V105.455H35.2319V94.3195C35.2319 94.2715 37.1999 94.2715 37.1999 94.2715C37.1999 94.3195 44.0159 94.3195 44.0159 94.3195H45.9839V105.455H44.8319V104.783H36.3359H36.3839H36.4319ZM44.9279 95.2795H36.4319V103.775H44.9279V95.2795ZM37.6799 101.615C38.5919 101.471 39.6479 101.327 40.8479 100.991C40.8479 101.183 40.8479 101.615 40.8479 101.855C39.7919 102.191 38.7839 102.431 37.6319 102.623C37.6319 102.911 37.5359 103.007 37.3919 103.007C37.2479 103.007 37.1039 102.719 36.8159 101.711C37.1519 101.711 37.4879 101.711 37.7279 101.615H37.6799ZM43.2479 96.8155C43.0079 96.5275 42.6719 96.2875 42.3839 96.0955L43.0079 95.5195C43.3439 95.7115 43.6799 95.9515 43.9679 96.2875L43.4399 96.8155H44.4479V97.7275H42.5279C42.5279 97.6795 41.8079 97.6795 41.8079 97.6795C41.8079 98.6395 41.9519 99.5995 42.1919 100.511C42.4799 100.079 42.6719 99.5995 42.8159 99.1195C42.9119 98.8315 42.9599 98.5915 42.9599 98.3035C44.0639 98.7355 44.2079 98.8315 44.2079 98.9755C44.2079 99.1195 44.0639 99.1675 43.7759 99.1675C43.4879 100.079 43.1039 100.895 42.6239 101.567C42.9599 102.191 43.1999 102.383 43.3439 102.383C43.4879 102.383 43.6319 102.239 43.7279 101.135C44.0159 101.375 44.3039 101.567 44.5919 101.615C44.3999 103.199 43.9199 103.439 43.3919 103.439C42.8639 103.439 42.4799 103.151 41.9519 102.335C41.4719 102.815 40.8959 103.199 40.2239 103.583C40.0799 103.295 39.7919 103.055 39.5039 102.863C40.3199 102.479 40.9919 101.999 41.5199 101.471C41.0399 100.271 40.8959 98.9755 40.8479 97.6795H37.0559C37.0559 97.7275 37.0559 96.7675 37.0559 96.7675H39.0239C39.0239 96.8155 40.8479 96.8155 40.8479 96.8155C40.8479 96.0955 40.8479 95.8555 40.7519 95.5675C42.0479 95.6635 42.2879 95.7115 42.2879 95.9035C42.2879 96.0955 42.1439 96.1435 41.8559 96.1915V96.8155H43.3439H43.2479ZM38.3039 100.799H37.3439V98.3995C37.3439 98.3515 38.3039 98.3515 38.3039 98.3515C38.3039 98.3995 39.3599 98.3995 39.3599 98.3995H40.3199V100.895H39.3599C39.3599 100.847 38.3039 100.847 38.3039 100.847V100.799ZM39.4079 100.127V99.1195H38.3039V100.127H39.4079Z" fill="black"/>
<path d="M53.904 103.728C54.48 101.76 54.864 100.176 55.104 98.8798C55.248 98.2558 55.248 97.9198 55.248 97.5358C56.688 97.8238 56.976 97.9198 56.976 98.1598C56.976 98.3998 56.832 98.3998 56.496 98.4478C56.112 100.224 55.632 101.904 55.104 103.728H58.992C58.992 103.68 58.992 104.832 58.992 104.832H56.976C56.976 104.784 49.536 104.784 49.536 104.784H47.52C47.52 104.832 47.52 103.68 47.52 103.68H49.536C49.536 103.728 53.952 103.728 53.952 103.728H53.904ZM52.56 94.9438C52.56 94.5118 52.56 94.2718 52.464 93.8398C53.856 93.8398 54.144 93.9838 54.144 94.1278C54.144 94.2718 54.048 94.3198 53.76 94.4158V95.9518H58.272C58.272 95.9038 58.272 97.0558 58.272 97.0558H56.256C56.256 97.0078 50.16 97.0078 50.16 97.0078H48.144C48.144 97.0558 48.144 95.9038 48.144 95.9038H50.16C50.16 95.9518 52.56 95.9518 52.56 95.9518V94.8958V94.9438ZM50.688 97.9198C51.312 99.4078 51.792 100.944 52.176 102.672L50.976 103.104C50.64 101.376 50.16 99.7918 49.536 98.3518L50.688 97.9678V97.9198Z" fill="black"/>
<path d="M67.008 102.143C67.344 102.575 67.728 102.911 68.112 103.247C68.448 102.959 68.688 102.719 68.88 102.575C69.024 102.431 69.072 102.335 69.168 102.191C70.128 102.767 70.272 102.911 70.272 103.055C70.272 103.199 70.128 103.199 69.84 103.199C69.552 103.391 69.312 103.631 68.976 103.823C69.792 104.207 70.752 104.399 71.808 104.495C71.568 104.831 71.328 105.167 71.184 105.551C68.88 105.215 67.2 104.399 65.808 102.239H64.56V103.967C65.232 103.871 65.952 103.775 66.72 103.631C66.672 103.967 66.624 104.255 66.624 104.591C65.088 104.879 63.888 105.023 62.496 105.215C62.496 105.455 62.352 105.503 62.256 105.503C62.064 105.503 62.016 105.359 61.632 104.207C61.44 104.639 61.152 105.071 60.768 105.503C60.48 105.167 60.192 104.975 59.856 104.783C60.72 103.775 61.104 102.815 61.104 101.231V98.6395C61.104 98.5915 62.88 98.5915 62.88 98.5915C62.88 98.6395 69.216 98.6395 69.216 98.6395H71.232C71.232 98.5915 71.232 99.5515 71.232 99.5515H69.216C69.216 99.5035 62.16 99.5035 62.16 99.5035V101.375H71.376C71.376 101.327 71.376 102.287 71.376 102.287H67.008V102.143ZM62.112 102.143C62.064 102.815 61.92 103.487 61.632 104.111H62.64L63.408 104.015V102.191H62.112V102.143ZM69.648 94.2715H69.696C69.696 94.3195 69.648 95.7115 69.648 95.7115V97.9675C69.696 97.9675 69.648 98.0635 69.648 98.0635H61.68V97.9675C61.632 97.9675 61.632 96.7195 61.632 96.7195C61.68 96.7195 61.68 95.7115 61.68 95.7115V94.3195C61.632 94.3195 61.68 94.2715 61.68 94.2715H63.264C63.264 94.3195 68.064 94.3195 68.064 94.3195H69.648C69.648 94.2875 69.648 94.2875 69.648 94.3195V94.2715ZM62.544 100.799V99.9355H70.464V100.751H62.544V100.799ZM62.784 95.7115H68.592V95.1355H62.784V95.7115ZM62.784 96.5275V97.1515H68.592V96.5275H62.784Z" fill="black"/>
<path d="M82.7519 99.984C82.4639 99.696 82.2239 99.456 81.8879 99.216L82.5119 98.688C82.8479 98.88 83.2319 99.168 83.4719 99.456L82.8959 99.936H84.0479V100.752H82.2719C82.2719 100.704 81.5519 100.704 81.5519 100.704C81.5999 101.328 81.6959 102 81.8879 102.576C82.0319 102.384 82.1759 102.144 82.3199 101.904C82.4639 101.712 82.5119 101.472 82.6079 101.232C83.5679 101.712 83.6639 101.808 83.6639 101.952C83.6639 102.096 83.5679 102.144 83.2799 102.144C82.9919 102.672 82.7039 103.152 82.3679 103.536C82.6559 104.016 82.8959 104.304 83.0879 104.304C83.2799 104.304 83.3279 104.16 83.3279 103.056C83.6639 103.344 83.9039 103.44 84.2399 103.536C84.1919 104.784 83.8559 105.264 83.1359 105.264C82.4159 105.264 82.2239 104.928 81.7439 104.208C81.4079 104.496 81.0719 104.784 80.6399 105.072C80.4479 104.784 80.2079 104.592 79.9199 104.4C80.4959 104.016 80.9279 103.728 81.3119 103.344C80.9279 102.48 80.7839 101.568 80.7359 100.656H79.0559V101.136L79.5359 100.8C79.9679 101.04 80.3039 101.232 80.7359 101.568L80.1599 102.144C79.8239 101.808 79.4879 101.616 79.1039 101.376V102H78.1919V101.328C77.8079 101.664 77.3759 101.952 76.8959 102.192H80.5919V102.912H78.3359C78.2879 103.056 78.2399 103.2 78.1919 103.296H80.0159C80.0159 103.248 80.1599 103.296 80.1599 103.296V103.92C80.0639 104.16 80.0159 104.496 79.9679 104.688C79.8239 105.12 79.4879 105.312 78.8159 105.312H78.2879C78.1439 104.928 78.0959 104.88 77.8559 104.448C78.3359 104.448 78.6239 104.496 78.8639 104.496C79.1039 104.496 79.2479 104.4 79.2959 103.92H77.9999C77.9519 104.064 77.8559 104.208 77.8079 104.304L76.8479 104.208C77.1359 103.776 77.3279 103.296 77.5199 102.912H76.7519V102.288H76.6559C76.5119 102.048 76.3679 101.952 76.1759 101.76V103.44H75.1679V102.672H74.2079V103.92H73.1519V102.096C73.1999 102.096 73.1999 96.144 73.1999 96.144V94.656C73.1999 94.608 74.4479 94.608 74.4479 94.608C74.4479 94.656 74.8799 94.656 74.8799 94.656H76.1279C76.1279 94.608 76.1759 94.656 76.1759 94.656V101.616C76.8479 101.376 77.4719 101.04 77.9999 100.608H76.4159V99.84H78.3839V99.504C77.9519 99.552 77.4719 99.6 77.0399 99.648C76.9439 99.36 76.8479 99.216 76.6559 98.928C77.8079 98.928 78.6719 98.832 79.4879 98.64C79.7279 98.592 79.8239 98.544 80.0159 98.448C80.5919 98.976 80.6879 99.024 80.6879 99.168C80.6879 99.312 80.6399 99.312 80.4959 99.312C80.3519 99.312 80.3039 99.312 80.1119 99.264C79.8239 99.312 79.5359 99.36 79.2479 99.408V99.888H80.8799V99.312C80.8799 99.12 80.8799 98.832 80.8319 98.544C82.2239 98.736 82.2239 98.784 82.2239 98.928C82.2239 99.072 82.1279 99.12 81.8399 99.168V99.84H83.0879L82.7519 99.984ZM74.8319 95.664H73.8719V98.256H74.8319V95.664ZM74.8319 99.168H73.8719V101.904H74.8319V99.168ZM80.5919 95.136C80.6879 94.896 80.7839 94.704 80.8799 94.464C80.9759 94.176 81.0239 94.08 81.0239 93.792C82.1759 94.08 82.3199 94.128 82.3199 94.32C82.3199 94.512 82.2239 94.512 81.9359 94.512C81.8399 94.704 81.7439 94.896 81.5999 95.136H83.6639V95.952H80.3999V96.48H82.7999V97.296H80.3999V97.872H83.9519V98.688H76.0799V97.872H79.3919V97.296H77.0399V96.48H79.4399V95.952H76.4159V95.136H78.5279C78.3839 94.8 78.1439 94.56 77.9039 94.224L78.7199 93.792C79.0559 94.128 79.2479 94.368 79.5359 94.848L79.0079 95.136H80.5919Z" fill="black"/>
<path d="M91.2959 98.0165C92.0639 100.849 93.7919 102.769 96.6719 104.257C96.3839 104.545 95.9999 104.929 95.7599 105.313C93.2159 103.921 91.6319 102.097 90.7679 99.6485C90.5759 100.561 90.2879 101.473 89.8079 102.289C89.2319 103.249 88.4159 104.065 87.4079 104.641C86.8319 104.977 86.2559 105.217 85.6319 105.505C85.3919 105.121 85.1519 104.833 84.8159 104.593C88.0319 103.393 89.4719 101.617 89.8079 98.0165H85.2479C85.2479 98.0645 85.2479 96.9125 85.2479 96.9125H87.3599C87.3599 96.9605 89.8559 96.9605 89.8559 96.9605V95.2325C89.8559 94.7045 89.8559 94.3205 89.7599 93.9365C91.2479 93.9845 91.4399 94.0325 91.4399 94.2725C91.4399 94.5125 91.3439 94.4645 91.0559 94.5605V96.9125H96.1919C96.1919 96.8645 96.1919 98.0165 96.1919 98.0165H94.0799C94.0799 97.9685 91.2479 97.9685 91.2479 97.9685L91.2959 98.0165Z" fill="black"/>
<path d="M106.992 102.624H109.008V103.488H103.968V104.4C103.968 105.216 103.488 105.456 102.24 105.456H101.568C101.472 105.072 101.28 104.64 101.088 104.304C101.616 104.352 102.144 104.4 102.528 104.4C102.912 104.4 102.864 104.4 102.864 104.208V103.488H97.7759V102.624H102.912C102.912 102.336 102.912 102.096 102.816 101.856C103.008 101.856 103.2 101.856 103.392 101.904C103.776 101.76 104.112 101.616 104.448 101.424H99.7439C99.7439 101.472 99.7439 100.56 99.7439 100.56H101.616C101.616 100.608 105.36 100.608 105.36 100.608L105.696 100.368H105.888C106.752 100.992 106.848 101.136 106.848 101.328C106.848 101.52 106.704 101.52 106.176 101.568C105.456 101.904 104.976 102.048 104.352 102.288C104.304 102.384 104.208 102.432 103.968 102.48V102.624H107.04H106.992ZM98.7839 96.1441L98.6399 94.3681C98.9759 94.4641 99.2639 94.5121 99.5519 94.6081C99.8879 94.5121 100.176 94.4161 100.32 94.3201C100.608 94.1761 100.656 94.1761 100.8 94.0321C101.52 94.5121 101.664 94.6561 101.664 94.8001C101.664 94.9441 101.568 94.9441 101.472 94.9441H101.184C100.656 95.1361 100.272 95.2801 99.7439 95.4241V96.0001H101.52C101.52 95.9521 101.52 96.8641 101.52 96.8641H100.464C100.464 96.8161 99.7919 96.8161 99.7919 96.8161V97.5361H101.52V98.3521H99.8879V99.2641H106.8V98.4001H105.168V97.5361H106.848V96.7681H105.168C105.168 96.8161 105.168 95.9041 105.168 95.9041H106.368C106.368 95.9521 106.896 95.9521 106.896 95.9521V95.1361H105.024C105.024 95.1841 105.024 94.1761 105.024 94.1761H106.272C106.272 94.2241 107.136 94.2241 107.136 94.2241H107.952C107.952 94.1761 108 94.2241 108 94.2241L107.904 95.6641L107.808 99.1681H108.768V100.368C108.72 100.368 108.768 101.616 108.768 101.616H107.616V99.9841H99.0239V101.664H97.8719V100.368C97.9199 100.368 97.8719 99.1681 97.8719 99.1681H97.9199C97.9199 99.1201 98.8799 99.1681 98.8799 99.1681L98.7839 96.0481V96.1441ZM104.016 96.3361C104.736 96.8161 104.784 96.8641 104.784 97.0081C104.784 97.1521 104.688 97.1521 104.4 97.1521C104.256 97.3441 104.112 97.5361 103.92 97.6801C104.208 97.9201 104.448 98.1601 104.688 98.4481L103.968 99.0241C103.776 98.7361 103.536 98.4961 103.248 98.2561C102.912 98.5441 102.48 98.8321 102 99.1201C101.856 98.8801 101.664 98.6401 101.424 98.4481C101.856 98.2561 102.288 98.0161 102.672 97.7281C102.384 97.4881 102.096 97.2481 101.808 97.0561L102.48 96.5761C102.768 96.7681 103.008 96.9601 103.296 97.1521C103.392 97.0561 103.488 96.9121 103.584 96.8161C103.728 96.6721 103.776 96.5281 103.824 96.4321C103.632 96.1921 103.44 95.9521 103.2 95.7601C102.864 96.0481 102.48 96.2401 102.048 96.4801C101.904 96.2401 101.664 96.0001 101.472 95.8081C101.856 95.6161 102.24 95.4241 102.576 95.1361C102.288 94.8961 102 94.6561 101.712 94.4161L102.336 93.9361C102.624 94.1281 102.912 94.3681 103.2 94.6081C103.296 94.5121 103.392 94.3681 103.488 94.2721C103.632 94.0801 103.728 93.9361 103.824 93.7441C104.64 94.2721 104.736 94.3201 104.736 94.4641C104.736 94.6081 104.64 94.6081 104.352 94.6081C104.16 94.8001 104.016 94.9921 103.824 95.1841C104.064 95.3761 104.304 95.6161 104.496 95.8561L103.968 96.3361H104.016Z" fill="black"/>
<path d="M62.304 49.1035V51.8395C62.304 53.3275 60.528 54.7195 59.952 56.1115C59.712 56.6875 59.664 57.1675 59.52 57.7435C60.048 57.8875 60.24 57.1195 60.672 56.7355C60.816 56.6395 62.064 55.8715 62.16 55.9675C62.256 57.5035 62.064 58.9915 60.96 60.2395C60.672 60.5275 59.808 61.0555 59.808 61.1035C59.568 61.4875 60.048 63.7915 60.624 64.1755C60.624 63.0235 61.008 61.7275 62.208 61.0555C62.592 62.6395 62.928 64.2235 62.448 65.8555C62.016 67.2475 61.536 66.6715 62.64 68.2075C62.784 68.4475 64.368 70.3195 64.656 70.0315C63.936 68.8315 63.84 67.4395 64.32 66.1435C64.944 65.7595 66.336 68.3035 66.48 68.7835C67.152 70.7515 65.856 71.3755 68.448 72.3355C68.832 72.4795 70.704 73.0075 70.944 72.8635C70.128 68.9275 69.072 64.9915 68.688 61.0075C68.688 60.9115 69.072 60.7675 69.12 60.7675H74.496C74.544 60.7675 74.928 61.1515 74.928 61.2955L72.672 72.8635C73.68 73.0555 76.848 72.0955 77.04 71.2315C77.184 70.5115 76.944 69.6955 77.136 68.8795C77.232 68.4475 78.48 66.2875 78.864 66.1915C79.344 66.1915 79.44 67.2475 79.488 67.6795C79.536 68.3995 79.488 69.2155 79.296 69.9355C79.536 70.1755 80.304 69.0715 80.496 68.8795C80.784 68.4955 81.552 67.5835 81.552 67.1995C81.552 66.6235 80.688 65.2315 80.688 64.2715C80.688 63.3115 81.072 61.1035 81.456 61.1035C82.416 61.8715 82.8 63.1195 83.04 64.2235L83.808 61.4875C83.808 61.1035 82.8 60.6715 82.416 60.2395C81.744 59.4715 80.928 57.1675 81.216 56.2075C81.216 56.1115 81.408 55.8715 81.552 56.0155L82.56 56.6395L83.952 58.0315C83.808 57.2155 83.568 56.2075 83.184 55.4875C82.608 54.4315 81.168 53.4715 81.168 52.1755V49.2955C82.656 49.3915 84.48 52.1275 84.48 53.2315V56.1115L85.488 53.9995L86.304 53.0395C87.216 54.3835 87.408 56.9275 86.688 58.3675C86.304 59.1835 85.344 59.7115 85.008 60.2875C84.624 61.0075 84.864 61.9195 84.432 62.6395C84.864 62.7355 84.72 62.5435 84.816 62.4475C85.344 61.9675 85.824 61.3915 86.448 60.9595C87.36 60.3355 88.032 59.9035 87.888 61.3435C87.744 62.7835 86.64 64.8475 85.296 65.7115C84.624 66.1435 83.664 66.2395 83.136 66.7195C82.944 66.9115 81.744 68.8315 81.84 68.8795C82.704 68.5435 84.672 67.5355 85.584 67.6315C86.496 67.7275 85.584 68.6875 85.296 69.0715C84.576 70.0315 83.088 71.3275 81.744 71.4715C80.976 71.5675 80.112 71.3755 79.344 71.5195C78.624 71.6635 78.288 72.2395 77.664 72.4315L77.76 72.7195C78.336 72.4315 81.408 73.3915 80.976 73.9675C79.968 74.3995 78.912 74.9275 77.76 74.9275C76.608 74.9275 75.312 74.1115 74.016 74.1595C73.632 74.4475 77.52 76.7035 75.312 77.1835C73.632 76.0795 72.864 74.1595 70.416 75.3595C69.696 75.6955 68.4 77.3275 67.776 77.1355C66.24 76.6075 69.312 74.7835 69.456 74.1595C67.008 74.5915 64.368 75.7435 62.496 73.6315C63.36 72.9595 64.464 72.8635 65.52 72.7675C65.76 72.7675 66.048 72.9115 65.952 72.5275C64.56 70.9915 62.736 71.8555 60.912 71.2795C59.664 70.8955 58.032 69.4555 57.552 68.3515C57.456 68.1115 57.312 67.9195 57.552 67.6795C57.936 67.4395 60.96 68.4475 61.488 68.8315C61.584 68.8315 61.632 68.6875 61.584 68.5915C61.488 68.3995 60.24 66.5755 60.096 66.4795C59.712 66.1915 58.992 66.1435 58.512 65.9035C56.352 64.8955 55.296 62.3515 55.488 60.2875C56.976 60.4315 57.696 61.8715 58.8 62.6395C58.608 62.0155 58.608 61.0555 58.368 60.4795C58.176 59.9515 57.216 59.2795 56.88 58.7035C55.92 57.1675 56.352 54.7195 56.736 53.0395L57.312 53.1835L58.8 56.1115C58.8 54.1915 58.896 52.4635 60.096 50.8315C60.576 50.2075 61.392 49.1995 62.304 49.1515V49.1035Z" fill="black"/>
<path d="M73.4401 47.4244C74.3521 47.5204 73.7761 45.8884 73.9681 45.6964C74.7841 45.5044 75.2161 46.4644 75.5041 47.0404C76.4161 48.8644 76.7521 50.8324 75.8401 52.7044C75.3601 53.7124 74.9281 54.0964 73.6321 53.9044C75.0721 51.4084 72.9121 50.5924 71.8561 48.7204C71.2801 47.7124 71.0401 46.6084 70.9441 45.5044C69.2161 47.1364 71.0401 49.0084 70.6081 50.7844C70.4641 51.4084 69.9841 52.1284 69.1201 52.0324L69.6481 53.9044C68.2561 54.2884 67.4881 52.6564 67.1521 51.6964C66.7681 50.6404 66.7201 49.4884 67.0081 48.4324C67.4401 47.8084 68.1601 49.4404 68.4001 49.6804C68.5921 49.8244 68.8321 50.0164 68.9281 49.6804C69.0241 49.2964 68.2081 47.4724 68.1121 46.8484C67.8241 44.8324 68.9281 43.9204 69.8881 42.3364C70.1281 41.9044 70.7521 40.2244 71.2801 40.3204C72.1921 40.4644 71.8561 42.5764 71.9041 43.2004C72.0961 44.7844 72.6721 46.0804 73.4881 47.4724H73.4401V47.4244Z" fill="black"/>
<path d="M76.7519 55.1518C76.5599 56.1118 76.4159 59.1838 75.3599 59.5678C74.8799 59.7598 69.5039 59.7118 68.6879 59.6638C68.4479 59.6638 68.0639 59.5678 67.8239 59.4718C67.0079 59.0398 66.6719 55.8718 66.6719 55.0078L76.7519 55.1518Z" fill="black"/>
</svg>
