<svg width="144" height="144" viewBox="0 0 144 144" fill="none" xmlns="http://www.w3.org/2000/svg">
<path d="M76.1904 50.3234L82.2048 42.6002C89.0208 35.5298 93.9456 36.1058 97.8048 45.3794C90.2352 45.221 90.8064 51.989 88.2864 56.7122C82.6464 67.2962 69.4752 64.3634 59.5776 67.229C55.0752 68.5346 51.2544 71.0402 47.1504 73.1762C48.1584 65.3378 56.1072 61.7234 62.2848 58.5074C56.352 56.0594 49.5936 52.109 48.6912 45.0722C48.96 44.7554 55.4208 48.1826 56.7168 46.6178C49.0752 44.9378 45.816 38.2466 46.2192 30.8594C54.4992 40.0706 72.3696 36.7058 76.1808 50.3186L76.1904 50.3234Z" fill="#2A9D8F"/>
<path d="M70.008 70.7041L70.296 65.8993L71.8992 65.9425L72.168 70.7041L79.272 70.3921L78.0384 66.0721L79.8096 66.1441L81.1296 69.7777L85.44 68.3905L83.2992 65.2993L84.9216 64.2529C93.36 72.6481 86.0784 86.5105 75.816 89.0161C64.4256 91.8001 54.0096 83.9905 53.3376 72.4081L54.6576 72.2449C55.4112 75.8401 58.1952 77.6929 61.3536 79.0417L60.7056 71.6641L57.3456 70.0897L63.6816 67.9393L63.2112 70.0801C63.792 69.9985 64.848 70.7041 65.2176 70.7041H70.0032H70.008ZM85.0752 71.0785C84.768 71.0833 81.6768 71.7793 81.5712 71.9233L80.9712 79.0369C84.8592 77.4193 87.2928 76.4209 86.3328 71.5297C86.0928 70.8289 85.5936 71.0689 85.08 71.0785H85.0752ZM70.008 72.8689L62.5824 72.7153L63.9696 79.3681L70.008 80.2801V72.8689ZM72.168 72.8689V80.2801L78.2688 79.5841L79.584 72.4129L72.1632 72.8689H72.168ZM64.7568 85.8385C63.2016 81.9553 60.984 80.4769 57.0336 79.3585C58.8624 82.1425 61.3584 85.0945 64.7568 85.8385ZM84.5232 79.9777C80.4048 80.8177 79.2768 82.0753 77.7264 85.8385C80.7792 85.0417 82.9344 82.5121 84.5232 79.9777ZM70.008 82.4401L64.7568 81.8257C65.9376 84.0721 67.08 87.5857 70.3152 87.0769L70.008 82.4401ZM72.168 82.4449V86.9233C73.992 88.8817 77.7504 82.4161 77.4192 82.1377L72.168 82.4449Z" fill="#A6B9C9"/>
<path d="M54.2781 84.3306C54.2781 85.0026 54.1965 85.6218 54.0285 86.1786L51.8205 85.6314C52.0173 84.7914 51.9741 83.9466 51.6909 83.1018C51.4221 82.3002 50.9613 81.7434 50.3037 81.4266C49.6461 81.1098 48.8445 81.1098 47.8941 81.4266C46.9725 81.7338 46.3341 82.2042 45.9741 82.833C45.6141 83.4618 45.5565 84.1386 45.8013 84.8634C46.0125 85.4922 46.3293 85.9626 46.7469 86.2746L48.2685 85.761L47.5341 83.577L49.4829 82.9242L50.9997 87.4362L46.2621 89.0298C45.6765 88.713 45.1389 88.257 44.6589 87.6618C44.1741 87.0666 43.7949 86.3562 43.5213 85.5402C43.2333 84.6858 43.1469 83.817 43.2573 82.9386C43.3677 82.0602 43.7229 81.2538 44.3229 80.5242C44.9181 79.7946 45.7821 79.2426 46.9101 78.8634C48.0285 78.489 49.0605 78.3978 50.0109 78.5898C50.9613 78.7818 51.7677 79.1994 52.4301 79.8426C53.0925 80.481 53.5869 81.273 53.8989 82.2138C54.1485 82.9578 54.2733 83.6634 54.2781 84.3402V84.3306Z" fill="#065C70"/>
<path d="M48.9551 94.6317L47.4575 92.6877L56.3135 85.8525L57.8111 87.7965L48.9551 94.6317Z" fill="#065C70"/>
<path d="M60.2493 94.4974C60.5709 95.107 60.7053 95.7742 60.6477 96.499C60.5901 97.2238 60.2877 97.9582 59.7453 98.707C59.1981 99.451 58.5885 99.9598 57.9165 100.238C57.2445 100.512 56.5629 100.589 55.8861 100.469C55.2045 100.349 54.5757 100.07 53.9901 99.643C53.4045 99.2158 52.9485 98.6974 52.6269 98.083C52.3005 97.4686 52.1661 96.8014 52.2237 96.0766C52.2813 95.3518 52.5837 94.6174 53.1261 93.8686C53.6685 93.1246 54.2781 92.6158 54.9549 92.3374C55.6317 92.0638 56.3085 91.987 56.9901 92.1118C57.6717 92.2366 58.3053 92.5102 58.8909 92.9422C59.4765 93.3694 59.9277 93.8878 60.2493 94.4974ZM56.3517 94.3966C55.9245 94.507 55.5213 94.8238 55.1421 95.347C54.7629 95.8654 54.5805 96.3454 54.6045 96.787C54.6285 97.2286 54.8445 97.5982 55.2621 97.9054C55.6797 98.2078 56.0973 98.3038 56.5197 98.1886C56.9421 98.0734 57.3453 97.7566 57.7245 97.2334C58.1037 96.715 58.2861 96.235 58.2669 95.7982C58.2477 95.3614 58.0317 94.9918 57.6141 94.6846C57.1965 94.3822 56.7741 94.2862 56.3517 94.3966Z" fill="#065C70"/>
<path d="M64.9342 96.9743H64.963C65.5822 96.5327 66.307 96.4079 67.1374 96.6095C67.7422 96.7583 68.2462 97.0415 68.6446 97.4639C69.043 97.8863 69.3022 98.4191 69.4222 99.0719C69.5422 99.7247 69.5038 100.464 69.2974 101.294C69.091 102.134 68.7646 102.83 68.3182 103.382C67.8718 103.939 67.3438 104.318 66.7438 104.53C66.139 104.741 65.5102 104.765 64.8574 104.602C64.387 104.486 64.003 104.299 63.715 104.045C63.427 103.79 63.187 103.474 63.0046 103.09L62.9326 103.07L62.371 103.728L60.8398 103.354L63.5086 92.4863L65.8942 93.0719L64.9342 96.9743ZM64.4686 98.8655L63.7822 101.654C63.9838 102.053 64.3342 102.312 64.8478 102.437C65.299 102.547 65.7118 102.451 66.0862 102.144C66.4606 101.837 66.7198 101.371 66.8734 100.742C67.0174 100.142 67.003 99.6527 66.8206 99.2639C66.6382 98.8799 66.3262 98.6303 65.8846 98.5199C65.395 98.3999 64.9198 98.5151 64.4686 98.8607V98.8655Z" fill="#065C70"/>
<path d="M78.9165 102.634L78.9549 104.251C78.7293 104.511 78.3309 104.674 77.7597 104.746C76.9629 104.847 76.4109 104.583 76.0989 103.954C75.6429 104.703 74.9565 105.135 74.0445 105.25C73.5597 105.312 73.1085 105.269 72.6765 105.125C72.2493 104.981 71.8893 104.741 71.6013 104.405C71.3133 104.074 71.1405 103.661 71.0781 103.167C70.9821 102.408 71.1933 101.784 71.7117 101.295C72.2301 100.805 72.9357 100.503 73.8333 100.387C74.0685 100.359 74.3277 100.339 74.6109 100.325C74.8941 100.315 75.1293 100.315 75.3117 100.335L75.2589 99.9362C75.2013 99.4946 75.0477 99.197 74.8029 99.0434C74.5533 98.8898 74.2077 98.8418 73.7661 98.8994C73.4397 98.9426 73.1181 99.0434 72.7917 99.2018C72.4653 99.365 72.1677 99.557 71.8989 99.7826L70.8237 98.405C71.1933 97.997 71.6541 97.6658 72.2061 97.4066C72.7581 97.1474 73.3149 96.9794 73.8765 96.9074C75.0285 96.7634 75.9165 96.9074 76.5501 97.349C77.1789 97.7906 77.5533 98.477 77.6733 99.413L78.0285 102.216C78.0765 102.581 78.2253 102.744 78.4797 102.715L78.9213 102.643L78.9165 102.634ZM75.1485 103.119C75.3645 102.955 75.5229 102.739 75.6285 102.466L75.5373 101.755C75.3837 101.727 75.1965 101.707 74.9661 101.703C74.7405 101.698 74.5245 101.703 74.3181 101.731C73.9821 101.775 73.7229 101.88 73.5405 102.048C73.3581 102.216 73.2813 102.442 73.3197 102.73C73.3533 102.994 73.4685 103.186 73.6701 103.301C73.8717 103.416 74.1069 103.455 74.3805 103.421C74.6781 103.383 74.9325 103.282 75.1437 103.123L75.1485 103.119Z" fill="#065C70"/>
<path d="M84.0622 102.264L81.8013 103.224L77.4189 92.9278L79.6797 91.9678L84.0622 102.264Z" fill="#065C70"/>
<path d="M88.1756 86.0495C89.0156 85.6271 89.8892 85.4639 90.7916 85.5599C91.694 85.6559 92.5724 86.0303 93.4172 86.6879C94.2812 87.3551 94.8764 88.1231 95.2124 88.9871C95.5436 89.8559 95.6204 90.7487 95.4332 91.6703C95.246 92.5919 94.8188 93.4847 94.1516 94.3487L92.03 97.0895L83.7932 90.7151L85.9148 87.9743C86.582 87.1103 87.3356 86.4671 88.1756 86.0447V86.0495ZM87.2444 90.0815L91.7996 93.6047L92.3708 92.8655C93.4988 91.4063 93.2876 90.0767 91.7324 88.8719C90.95 88.2671 90.2348 88.0127 89.6012 88.1135C88.9628 88.2143 88.3676 88.6271 87.8156 89.3375L87.2444 90.0767V90.0815Z" fill="#065C70"/>
<path d="M93.1053 78.6526C93.5373 78.115 94.1037 77.731 94.7901 77.4958C95.4813 77.2606 96.2733 77.251 97.1757 77.4574C98.0733 77.6638 98.7837 78.0238 99.3021 78.5326C99.8205 79.0462 100.156 79.6366 100.315 80.3086C100.473 80.9806 100.468 81.6718 100.305 82.3774C100.142 83.083 99.8445 83.707 99.4077 84.2494C98.9709 84.7918 98.4093 85.1806 97.7229 85.411C97.0365 85.6414 96.2397 85.6558 95.3421 85.4494C94.4445 85.243 93.7341 84.883 93.2157 84.3742C92.6973 83.8654 92.3613 83.2702 92.2029 82.5934C92.0493 81.9166 92.0493 81.2254 92.2125 80.5198C92.3757 79.8142 92.6733 79.195 93.1053 78.6574V78.6526ZM94.5453 82.2718C94.8189 82.6174 95.2653 82.867 95.8941 83.011C96.5229 83.155 97.0365 83.131 97.4301 82.9342C97.8285 82.7422 98.0829 82.3918 98.1981 81.8878C98.3133 81.3838 98.2365 80.9614 97.9629 80.6206C97.6893 80.2798 97.2381 80.035 96.6141 79.891C95.9853 79.747 95.4717 79.771 95.0781 79.9582C94.6845 80.1454 94.4301 80.4958 94.3149 80.995C94.1997 81.499 94.2765 81.9214 94.5501 82.2718H94.5453Z" fill="#065C70"/>
<path d="M92.1406 68.29L100.325 70.3204L100.646 72.4708L93.403 76.7716L92.9998 74.0644L97.8574 71.746L92.5294 70.9156L92.1406 68.2948V68.29Z" fill="#065C70"/>
<path d="M94.536 60.6045C94.248 60.3453 93.9312 60.1341 93.5904 59.9757L94.56 58.4541C95.5584 58.8717 96.3888 59.6589 97.0464 60.8253C97.656 61.9053 97.8384 62.9469 97.5984 63.9501C97.3584 64.9533 96.6528 65.7837 95.4864 66.4413C94.7856 66.8349 94.08 67.0461 93.3648 67.0749C92.6496 67.1037 91.992 66.9501 91.3968 66.6141C90.7968 66.2781 90.312 65.7789 89.9376 65.1165C89.5536 64.4349 89.3712 63.7773 89.3952 63.1437C89.4192 62.5101 89.6064 61.9437 89.9568 61.4445C90.3072 60.9453 90.768 60.5325 91.3392 60.2109C91.7424 59.9805 92.1168 59.8173 92.4576 59.7165L94.8624 63.9789C95.6688 63.2829 95.8032 62.4621 95.2656 61.5117C95.0688 61.1661 94.8288 60.8637 94.5408 60.6045H94.536ZM92.28 64.8765C92.616 64.9773 93.0384 64.9293 93.5424 64.7373L92.1792 62.3277C91.7424 62.5869 91.4688 62.8749 91.3536 63.1965C91.2384 63.5181 91.2816 63.8493 91.4736 64.1949C91.6752 64.5501 91.9392 64.7757 92.28 64.8765Z" fill="#065C70"/>
</svg>
