<svg width="144" height="144" viewBox="0 0 144 144" fill="none" xmlns="http://www.w3.org/2000/svg">
<path d="M25.848 84.523C25.848 85.3822 25.536 86.0494 24.912 86.5246C24.288 87.0046 23.4528 87.2399 22.4064 87.2399H18.5232V77.7646H22.0272C23.136 77.7646 23.9568 77.971 24.4896 78.3886C25.0224 78.8014 25.2864 79.3918 25.2864 80.1502C25.2864 80.5726 25.1856 80.9614 24.9888 81.3118C24.792 81.6622 24.4704 81.955 24.0288 82.1902C25.2384 82.5598 25.8432 83.3375 25.8432 84.5183L25.848 84.523ZM20.544 81.7343H21.912C22.3632 81.7343 22.7088 81.6286 22.9536 81.4174C23.1984 81.2062 23.3184 80.9039 23.3184 80.5151C23.3184 79.7855 22.8336 79.4207 21.8688 79.4207H20.544V81.7343ZM23.352 85.2671C23.6112 85.0415 23.736 84.7439 23.736 84.3743C23.736 83.9759 23.6112 83.6782 23.3568 83.4718C23.1024 83.2702 22.7376 83.1695 22.2624 83.1695H20.544V85.6079H22.2096C22.7136 85.6079 23.0976 85.4975 23.352 85.2671Z" fill="#2C3846"/>
<path d="M32.8179 85.2914L33.5235 86.525C32.7315 87.149 31.7379 87.461 30.5475 87.461C29.8515 87.461 29.2323 87.3218 28.6851 87.0482C28.1379 86.7746 27.7107 86.357 27.3939 85.7954C27.0771 85.2338 26.9187 84.5474 26.9187 83.7266C26.9187 82.9778 27.0627 82.3154 27.3507 81.7442C27.6387 81.173 28.0467 80.7266 28.5699 80.4098C29.0931 80.093 29.6979 79.9346 30.3843 79.9346C31.0707 79.9346 31.6803 80.0882 32.1555 80.3954C32.6355 80.7026 32.9907 81.1106 33.2307 81.6146C33.4707 82.1186 33.5907 82.6706 33.5907 83.2658C33.5907 83.6546 33.5571 83.9906 33.4947 84.2834H28.8099C28.9923 85.4114 29.6451 85.973 30.7731 85.973C31.5507 85.973 32.2323 85.7474 32.8179 85.2962V85.2914ZM28.8003 83.0594H31.8579C31.8387 82.5074 31.7091 82.085 31.4643 81.7922C31.2195 81.4994 30.8739 81.3506 30.4227 81.3506C29.4675 81.3506 28.9251 81.917 28.8003 83.0546V83.0594Z" fill="#2C3846"/>
<path d="M35.9714 86.9994C35.645 86.6922 35.4818 86.2122 35.4818 85.5498V81.7578H34.4114V80.145H35.4818V79.3194L36.3074 78.3066H37.3922V80.145H39.125V81.7578H37.3922V85.1562C37.3922 85.5546 37.5746 85.7514 37.9346 85.7514C38.2418 85.7514 38.549 85.6938 38.8562 85.5738L39.317 86.913C38.741 87.273 38.1074 87.4554 37.421 87.4554C36.7826 87.4554 36.2978 87.3018 35.9714 86.9946V86.9994Z" fill="#2C3846"/>
<path d="M41.4531 86.9994C41.1267 86.6922 40.9635 86.2122 40.9635 85.5498V81.7578H39.8931V80.145H40.9635V79.3194L41.7891 78.3066H42.8739V80.145H44.6067V81.7578H42.8739V85.1562C42.8739 85.5546 43.0563 85.7514 43.4163 85.7514C43.7235 85.7514 44.0307 85.6938 44.3379 85.5738L44.7987 86.913C44.2227 87.273 43.5891 87.4554 42.9027 87.4554C42.2643 87.4554 41.7795 87.3018 41.4531 86.9946V86.9994Z" fill="#2C3846"/>
<path d="M51.3218 85.2914L52.0274 86.525C51.2354 87.149 50.2418 87.461 49.0514 87.461C48.3554 87.461 47.7362 87.3218 47.189 87.0482C46.6418 86.7746 46.2146 86.357 45.8978 85.7954C45.581 85.2338 45.4226 84.5474 45.4226 83.7266C45.4226 82.9778 45.5666 82.3154 45.8546 81.7442C46.1426 81.173 46.5506 80.7266 47.0738 80.4098C47.597 80.093 48.2018 79.9346 48.8882 79.9346C49.5746 79.9346 50.1842 80.0882 50.6594 80.3954C51.1394 80.7026 51.4946 81.1106 51.7346 81.6146C51.9746 82.1186 52.0946 82.6706 52.0946 83.2658C52.0946 83.6546 52.061 83.9906 51.9986 84.2834H47.3138C47.4962 85.4114 48.149 85.973 49.277 85.973C50.0546 85.973 50.7362 85.7474 51.3218 85.2962V85.2914ZM47.2994 83.0594H50.357C50.3378 82.5074 50.2082 82.085 49.9634 81.7922C49.7186 81.4994 49.373 81.3506 48.9218 81.3506C47.9666 81.3506 47.4242 81.917 47.2994 83.0546V83.0594Z" fill="#2C3846"/>
<path d="M53.5106 80.1506H54.9698L55.2674 81.2066H55.3058C55.5026 80.7458 55.7426 80.4194 56.021 80.2274C56.2994 80.0354 56.6258 79.9346 56.9954 79.9346C57.365 79.9346 57.653 80.0114 57.917 80.165L57.5762 81.869C57.3314 81.7586 57.101 81.7058 56.885 81.7058C56.5586 81.7058 56.2754 81.821 56.0258 82.0514C55.7762 82.2818 55.5746 82.6514 55.4114 83.1698V87.245H53.501V80.1506H53.5106Z" fill="#2C3846"/>
<path d="M64.3826 79.4735H61.5122V77.7695H69.2402V79.4735H66.3698V87.2399H64.3778V79.4735H64.3826Z" fill="#2C3846"/>
<path d="M74.1939 80.3474C74.7459 80.621 75.1875 81.0434 75.5283 81.605C75.8643 82.1666 76.0371 82.8674 76.0371 83.6978C76.0371 84.5282 75.8691 85.2242 75.5283 85.7906C75.1875 86.3522 74.7459 86.7746 74.1939 87.0482C73.6419 87.3218 73.0419 87.461 72.3939 87.461C71.7459 87.461 71.1459 87.3218 70.5939 87.0482C70.0419 86.7746 69.6003 86.3522 69.2595 85.7906C68.9187 85.229 68.7507 84.5282 68.7507 83.6978C68.7507 82.8674 68.9187 82.1714 69.2595 81.605C69.6003 81.0386 70.0419 80.621 70.5939 80.3474C71.1459 80.0738 71.7459 79.9346 72.3939 79.9346C73.0419 79.9346 73.6419 80.0738 74.1939 80.3474ZM71.1267 82.1522C70.8243 82.5122 70.6755 83.0258 70.6755 83.693C70.6755 84.3602 70.8243 84.8738 71.1267 85.2338C71.4291 85.5938 71.8515 85.7762 72.3939 85.7762C72.9363 85.7762 73.3587 85.5938 73.6611 85.229C73.9635 84.8642 74.1123 84.3506 74.1123 83.693C74.1123 83.0354 73.9635 82.5218 73.6611 82.157C73.3587 81.7922 72.9363 81.6098 72.3939 81.6098C71.8515 81.6098 71.4291 81.7922 71.1267 82.1522Z" fill="#2C3846"/>
<path d="M87.3121 80.5778C87.7393 81.005 87.9553 81.5954 87.9553 82.3442V87.245H86.0209V82.6034C86.0209 82.277 85.9393 82.0322 85.7857 81.8642C85.6273 81.6962 85.4065 81.6146 85.1137 81.6146C84.4993 81.6146 84.0193 81.965 83.6641 82.6706V87.245H81.7153V82.589C81.7153 82.253 81.6337 82.0082 81.4705 81.8498C81.3073 81.6914 81.0913 81.6146 80.8225 81.6146C80.5249 81.6146 80.2513 81.7058 79.9969 81.893C79.7425 82.0754 79.5313 82.3394 79.3585 82.6706V87.245H77.4241V80.1506H78.8977L79.0849 81.125H79.1233C79.3825 80.7122 79.6897 80.4098 80.0353 80.2178C80.3809 80.0258 80.7841 79.9346 81.2353 79.9346C82.2721 79.9346 82.9777 80.3522 83.3473 81.1778C83.8801 80.3474 84.6337 79.9346 85.6081 79.9346C86.3137 79.9346 86.8801 80.1506 87.3073 80.5778H87.3121Z" fill="#2C3846"/>
<path d="M94.6993 80.3474C95.2513 80.621 95.6929 81.0434 96.0337 81.605C96.3697 82.1666 96.5425 82.8674 96.5425 83.6978C96.5425 84.5282 96.3745 85.2242 96.0337 85.7906C95.6929 86.3522 95.2513 86.7746 94.6993 87.0482C94.1473 87.3218 93.5473 87.461 92.8993 87.461C92.2513 87.461 91.6513 87.3218 91.0993 87.0482C90.5473 86.7746 90.1057 86.3522 89.7649 85.7906C89.4241 85.229 89.2561 84.5282 89.2561 83.6978C89.2561 82.8674 89.4241 82.1714 89.7649 81.605C90.1057 81.0386 90.5473 80.621 91.0993 80.3474C91.6513 80.0738 92.2513 79.9346 92.8993 79.9346C93.5473 79.9346 94.1473 80.0738 94.6993 80.3474ZM91.6321 82.1522C91.3297 82.5122 91.1809 83.0258 91.1809 83.693C91.1809 84.3602 91.3297 84.8738 91.6321 85.2338C91.9345 85.5938 92.3569 85.7762 92.8993 85.7762C93.4417 85.7762 93.8641 85.5938 94.1665 85.229C94.4689 84.8642 94.6177 84.3506 94.6177 83.693C94.6177 83.0354 94.4689 82.5218 94.1665 82.157C93.8641 81.7922 93.4417 81.6098 92.8993 81.6098C92.3569 81.6098 91.9345 81.7922 91.6321 82.1522Z" fill="#2C3846"/>
<path d="M97.9298 80.1506H99.389L99.6866 81.2066H99.725C99.9218 80.7458 100.162 80.4194 100.44 80.2274C100.719 80.0354 101.045 79.9346 101.415 79.9346C101.784 79.9346 102.072 80.0114 102.336 80.165L101.995 81.869C101.751 81.7586 101.52 81.7058 101.304 81.7058C100.978 81.7058 100.695 81.821 100.445 82.0514C100.195 82.2818 99.9938 82.6514 99.8306 83.1698V87.245H97.9202V80.1506H97.9298Z" fill="#2C3846"/>
<path d="M103.411 80.1506H104.871L105.168 81.2066H105.207C105.403 80.7458 105.643 80.4194 105.922 80.2274C106.2 80.0354 106.527 79.9346 106.896 79.9346C107.266 79.9346 107.554 80.0114 107.818 80.165L107.477 81.869C107.232 81.7586 107.002 81.7058 106.786 81.7058C106.459 81.7058 106.176 81.821 105.927 82.0514C105.677 82.2818 105.475 82.6514 105.312 83.1698V87.245H103.402V80.1506H103.411Z" fill="#2C3846"/>
<path d="M113.674 80.3474C114.226 80.621 114.668 81.0434 115.008 81.605C115.344 82.1666 115.517 82.8674 115.517 83.6978C115.517 84.5282 115.349 85.2242 115.008 85.7906C114.668 86.3522 114.226 86.7746 113.674 87.0482C113.122 87.3218 112.522 87.461 111.874 87.461C111.226 87.461 110.626 87.3218 110.074 87.0482C109.522 86.7746 109.08 86.3522 108.74 85.7906C108.399 85.229 108.231 84.5282 108.231 83.6978C108.231 82.8674 108.399 82.1714 108.74 81.605C109.08 81.0386 109.522 80.621 110.074 80.3474C110.626 80.0738 111.226 79.9346 111.874 79.9346C112.522 79.9346 113.122 80.0738 113.674 80.3474ZM110.607 82.1522C110.304 82.5122 110.156 83.0258 110.156 83.693C110.156 84.3602 110.304 84.8738 110.607 85.2338C110.909 85.5938 111.332 85.7762 111.874 85.7762C112.416 85.7762 112.839 85.5938 113.141 85.229C113.444 84.8642 113.592 84.3506 113.592 83.693C113.592 83.0354 113.444 82.5218 113.141 82.157C112.839 81.7922 112.416 81.6098 111.874 81.6098C111.332 81.6098 110.909 81.7922 110.607 82.1522Z" fill="#2C3846"/>
<path d="M126.326 80.1504L123.754 87.2448H122.549L121.018 82.8576L119.405 87.2448H118.186L115.858 80.1504H117.71L118.968 84.7536L120.499 80.1504H121.704L123.178 84.792L124.478 80.1504H126.317H126.326Z" fill="#2C3846"/>
<path d="M46.4593 101.923H44.4673V92.4482H46.4593V101.923Z" fill="#2C3846"/>
<path d="M48.3554 94.8283H49.6418L49.9394 95.8699H50.0066C50.3378 95.4475 50.6978 95.1307 51.077 94.9243C51.4562 94.7179 51.9026 94.6123 52.4162 94.6123C53.1842 94.6123 53.7842 94.8235 54.2162 95.2507C54.6482 95.6731 54.8642 96.2731 54.8642 97.0507V101.923H52.9682V97.6603C52.9682 97.2091 52.8818 96.8923 52.709 96.7051C52.5362 96.5227 52.2962 96.4267 51.9794 96.4267C51.3218 96.4267 50.741 96.7819 50.2466 97.4971V101.923H48.3506V94.8283H48.3554Z" fill="#2C3846"/>
<path d="M58.3249 92.1165C58.5457 92.2941 58.6561 92.5485 58.6561 92.8797C58.6561 93.2109 58.5457 93.4653 58.3249 93.6381C58.1041 93.8109 57.8353 93.8973 57.5185 93.8973C57.2017 93.8973 56.9473 93.8109 56.7265 93.6381C56.5057 93.4653 56.3953 93.2157 56.3953 92.8797C56.3953 92.5437 56.5057 92.2893 56.7265 92.1165C56.9473 91.9389 57.2113 91.8525 57.5185 91.8525C57.8257 91.8525 58.1041 91.9389 58.3249 92.1165ZM58.4641 101.923H56.5681V94.8285H58.4641V101.923Z" fill="#2C3846"/>
<path d="M61.2387 101.678C60.9123 101.371 60.7491 100.891 60.7491 100.229V96.4366H59.6787V94.8238H60.7491V93.9982L61.5747 92.9854H62.6595V94.8238H64.3923V96.4366H62.6595V99.835C62.6595 100.233 62.8419 100.43 63.2019 100.43C63.5091 100.43 63.8163 100.373 64.1235 100.253L64.5843 101.592C64.0083 101.952 63.3747 102.134 62.6883 102.134C62.0499 102.134 61.5651 101.981 61.2387 101.673V101.678Z" fill="#2C3846"/>
<path d="M67.5553 92.1165C67.7761 92.2941 67.8865 92.5485 67.8865 92.8797C67.8865 93.2109 67.7761 93.4653 67.5553 93.6381C67.3345 93.8109 67.0657 93.8973 66.7489 93.8973C66.4321 93.8973 66.1777 93.8109 65.9569 93.6381C65.7361 93.4653 65.6257 93.2157 65.6257 92.8797C65.6257 92.5437 65.7361 92.2893 65.9569 92.1165C66.1777 91.9389 66.4417 91.8525 66.7489 91.8525C67.0561 91.8525 67.3345 91.9389 67.5553 92.1165ZM67.6945 101.923H65.7985V94.8285H67.6945V101.923Z" fill="#2C3846"/>
<path d="M76.0608 100.584L75.9264 101.827C75.72 102 75.3888 102.086 74.9376 102.086C74.232 102.086 73.8 101.769 73.6368 101.14C73.0944 101.808 72.384 102.144 71.496 102.144C71.064 102.144 70.6656 102.057 70.296 101.884C69.9312 101.712 69.6432 101.462 69.432 101.136C69.2208 100.804 69.1152 100.42 69.1152 99.9789C69.1152 99.2829 69.3792 98.7501 69.9072 98.3757C70.4352 98.0013 71.1072 97.8141 71.9328 97.8141C72.1776 97.8141 72.4416 97.8285 72.7248 97.8525C73.008 97.8813 73.2336 97.9149 73.3968 97.9629V97.3965C73.3968 96.5757 72.936 96.1629 72.0144 96.1629C71.6784 96.1629 71.3568 96.2205 71.04 96.3405C70.7232 96.4605 70.4352 96.6045 70.176 96.7869L69.4608 95.6109C69.8304 95.2941 70.2672 95.0493 70.7664 94.8813C71.2656 94.7085 71.7744 94.6221 72.288 94.6221C73.2912 94.6221 74.04 94.8525 74.5392 95.3037C75.0384 95.7597 75.288 96.4125 75.288 97.2621V100.089C75.288 100.43 75.4176 100.603 75.6816 100.603C75.8544 100.603 75.9792 100.603 76.0608 100.588V100.584ZM72.792 100.507C73.056 100.358 73.2672 100.152 73.4208 99.8925V99.1197C72.9888 99.0093 72.5616 98.9565 72.1488 98.9565C71.7792 98.9565 71.4768 99.0333 71.2416 99.1773C71.0064 99.3261 70.8912 99.5565 70.8912 99.8589C70.8912 100.147 70.992 100.363 71.1888 100.507C71.3856 100.651 71.6304 100.723 71.9184 100.723C72.2352 100.723 72.5232 100.646 72.792 100.502V100.507Z" fill="#2C3846"/>
<path d="M78.0388 101.678C77.7124 101.371 77.5492 100.891 77.5492 100.229V96.4366H76.4788V94.8238H77.5492V93.9982L78.3748 92.9854H79.4596V94.8238H81.1924V96.4366H79.4596V99.835C79.4596 100.233 79.642 100.43 80.002 100.43C80.3092 100.43 80.6164 100.373 80.9236 100.253L81.3844 101.592C80.8084 101.952 80.1748 102.134 79.4884 102.134C78.85 102.134 78.3652 101.981 78.0388 101.673V101.678Z" fill="#2C3846"/>
<path d="M84.3507 92.1165C84.5715 92.2941 84.6819 92.5485 84.6819 92.8797C84.6819 93.2109 84.5715 93.4653 84.3507 93.6381C84.1299 93.8109 83.8611 93.8973 83.5443 93.8973C83.2275 93.8973 82.9731 93.8109 82.7523 93.6381C82.5315 93.4653 82.4211 93.2157 82.4211 92.8797C82.4211 92.5437 82.5315 92.2893 82.7523 92.1165C82.9731 91.9389 83.2371 91.8525 83.5443 91.8525C83.8515 91.8525 84.1299 91.9389 84.3507 92.1165ZM84.4947 101.923H82.5987V94.8285H84.4947V101.923Z" fill="#2C3846"/>
<path d="M92.9905 94.8281L90.0817 101.923H88.3633L85.5217 94.8281H87.6193L89.2705 99.9017L90.9505 94.8281H92.9953H92.9905Z" fill="#2C3846"/>
<path d="M99.2307 99.974L99.9363 101.208C99.1443 101.832 98.1507 102.144 96.9603 102.144C96.2643 102.144 95.6451 102.004 95.0979 101.731C94.5507 101.457 94.1235 101.04 93.8067 100.478C93.4899 99.9164 93.3315 99.23 93.3315 98.4092C93.3315 97.6604 93.4755 96.998 93.7635 96.4268C94.0515 95.8556 94.4595 95.4092 94.9827 95.0924C95.5059 94.7756 96.1107 94.6172 96.7971 94.6172C97.4835 94.6172 98.0931 94.7708 98.5683 95.078C99.0483 95.3852 99.4035 95.7932 99.6435 96.2972C99.8835 96.8012 100.004 97.3532 100.004 97.9484C100.004 98.3372 99.9699 98.6732 99.9075 98.966H95.2227C95.4051 100.094 96.0579 100.656 97.1859 100.656C97.9635 100.656 98.6451 100.43 99.2307 99.9788V99.974ZM95.2131 97.742H98.2707C98.2515 97.19 98.1219 96.7676 97.8771 96.4748C97.6323 96.182 97.2867 96.0332 96.8355 96.0332C95.8803 96.0332 95.3379 96.5996 95.2131 97.7372V97.742Z" fill="#2C3846"/>
<path d="M76.877 47.9038C70.9922 48.8254 66.4898 53.9134 66.4898 60.0574V60.835H51.3362V50.275C51.3362 43.2286 55.325 37.5166 62.3714 37.5166H64.349C70.5842 37.5166 75.773 41.995 76.8818 47.9038H76.877Z" fill="#FAE0A2"/>
<path opacity="0.8" d="M77.1025 50.2745V60.8345H66.4897V60.0569C66.4897 53.9129 70.9969 48.8249 76.8769 47.9033C77.0257 48.6665 77.1025 49.4585 77.1025 50.2697V50.2745Z" fill="#6C938C"/>
<path opacity="0.8" d="M92.6644 60.0573V70.8957H77.1028V50.2701C77.1028 49.4589 77.026 48.6669 76.8772 47.9037C77.5012 47.8077 78.1396 47.7549 78.7924 47.7549H80.362C87.1588 47.7549 92.6644 53.2653 92.6644 60.0573Z" fill="#A2C1B9"/>
</svg>
