<svg width="240" height="160" viewBox="0 0 240 160" fill="none" xmlns="http://www.w3.org/2000/svg">
<path fill-rule="evenodd" clip-rule="evenodd" d="M51.6091 19.188C51.483 19.3153 51.3243 19.4243 51.2564 19.4302C51.1609 19.4387 49.4096 19.8266 48.9283 19.946C47.981 20.1808 46.4984 20.4722 44.8488 20.7478C43.6553 20.9474 43.3932 20.9383 42.5297 20.668C40.7258 20.1033 39.5055 20.2665 39.3972 21.087C39.2835 21.9494 39.4367 22.6991 39.8011 23.0618C40.0195 23.2791 40.2022 23.5357 40.2073 23.6323C40.2272 24.0101 40.8378 24.9485 41.1832 25.1325C41.571 25.3391 42.2922 26.0021 42.129 26.0021C42.0756 26.0021 42.2236 26.2589 42.458 26.5726C43.0659 27.3865 43.4195 28.5744 43.8241 31.1629C44.0188 32.4084 44.2111 33.4802 44.2511 33.5448C44.2913 33.6096 44.3732 34.0519 44.4331 34.5278C44.4933 35.0039 44.5892 35.5514 44.6464 35.7445C44.7037 35.9376 44.7705 36.2535 44.795 36.4466C44.8194 36.6397 44.8832 36.9162 44.9368 37.061C45.0855 37.4628 35.4238 41.9479 31.3283 43.3783C29.1767 44.1298 29.1535 44.1337 28.1536 43.9007C27.5998 43.7717 26.9878 43.5674 26.7938 43.4464C26.1107 43.0211 24.668 42.6347 23.8324 42.6534C23.0167 42.6716 22.4971 42.492 21.9724 42.0105C21.548 41.621 20.8454 41.8253 20.6565 42.3932C20.4743 42.9409 20.6724 43.4517 21.5119 44.5989C21.7549 44.931 21.9976 45.4049 22.0512 45.6521C22.2313 46.4824 22.5138 47.0668 22.7352 47.0668C22.8562 47.0668 23.1639 47.381 23.4193 47.7652C24.0177 48.6652 24.0248 49.654 23.4556 52.9473C22.8881 56.2315 22.8126 56.5295 21.6992 59.8811C19.3923 66.8256 18.8183 68.0877 15.2331 74.0998C14.571 75.2101 13.6671 76.6319 13.2246 77.2595C12.7821 77.887 12.3207 78.552 12.1993 78.7372C11.6637 79.5546 9.6067 82.0159 8.51956 83.14C7.0548 84.6548 6.02939 85.9322 6.2248 85.9987C6.30558 86.0261 6.91882 85.6906 7.58779 85.253C8.71251 84.5171 9.0686 84.3432 9.0686 84.5291C9.0686 84.5691 8.74531 84.8384 8.35007 85.1277C7.70632 85.5988 7.66875 85.6652 7.98833 85.7661C8.36171 85.8841 10.2275 84.9693 10.9157 84.3309C11.5201 83.7702 12.3313 83.2566 12.7948 83.1407C13.0376 83.0802 13.5884 82.7145 14.0186 82.3285C14.4488 81.9423 15.086 81.478 15.4347 81.2965C15.7834 81.115 16.5449 80.5076 17.127 79.9468C17.7092 79.386 18.4557 78.6901 18.7859 78.4005C19.1161 78.1108 19.581 77.5974 19.8189 77.2595C20.0568 76.9216 20.4295 76.5045 20.6471 76.3326C20.8646 76.1608 21.3209 75.5643 21.6609 75.0071C22.0011 74.45 22.4419 73.8475 22.6406 73.6686C22.8392 73.4896 23.002 73.2172 23.0024 73.0632C23.0026 72.9093 23.2803 72.3251 23.6197 71.7651C23.9588 71.2051 24.2364 70.7192 24.2364 70.6852C24.2364 70.6513 24.5622 69.9381 24.9603 69.1004C25.3583 68.2627 25.9781 66.8553 26.3375 65.9725C26.9527 64.4618 27.0268 64.3603 27.5979 64.2452C27.9861 64.1669 28.4293 63.8722 28.8274 63.4272C29.1699 63.0445 29.7406 62.5353 30.0956 62.2955C30.4507 62.0557 31.123 61.534 31.5895 61.1362C34.2001 58.9105 39.1568 55.3171 39.6163 55.3171C39.927 55.3171 39.3889 58.5955 38.6799 61.0221C38.0923 63.0334 37.3303 65.1676 35.8464 68.9593C35.6494 69.4629 35.2915 70.0704 35.0513 70.3097C34.6691 70.6899 34.5555 70.7194 34.1433 70.5446C33.8842 70.4347 33.5832 70.2799 33.4742 70.2005C33.3652 70.1212 33.1468 70.1056 32.9892 70.1659C32.8253 70.2284 32.7022 70.1877 32.7022 70.0708C32.7022 69.9583 32.6255 69.9133 32.5318 69.9709C32.4382 70.0285 32.0216 69.8984 31.6059 69.682C31.1904 69.4655 30.8106 69.2828 30.7621 69.2761C30.5745 69.2503 28.1051 67.7282 28.0148 67.5829C27.9623 67.4984 27.8429 67.4293 27.7494 67.4293C27.6559 67.4293 27.7093 67.6268 27.8683 67.8681C28.0272 68.1095 28.0885 68.3082 28.0046 68.3096C27.9206 68.3112 27.9332 68.3704 28.0325 68.4413C28.3575 68.6737 29.2446 70.1712 29.3533 70.6711C29.3623 70.7129 29.6037 70.9964 29.8896 71.301C30.1755 71.6057 30.4094 71.9766 30.4094 72.1255C30.4094 72.2742 30.6986 72.7472 31.0521 73.1766C31.88 74.1821 33.2313 76.1459 33.2313 76.3433C33.2313 76.4274 33.4297 76.6816 33.6722 76.9084C33.9148 77.1352 34.1132 77.4085 34.1132 77.5158C34.1132 77.7283 34.2088 77.7496 35.8113 77.8935C36.6772 77.9713 37.0277 77.9213 37.575 77.6416C38.3845 77.2279 39.5807 76.2371 39.5807 75.9805C39.5807 75.8808 39.8972 75.3821 40.284 74.872C40.671 74.362 41.0992 73.6834 41.2359 73.3639C42.4707 70.4759 42.8481 69.5472 43.4698 67.8681C43.8631 66.8061 44.3033 65.5422 44.4481 65.0595C44.5927 64.5768 44.7857 64.0238 44.8767 63.8307C44.9675 63.6376 45.127 63.0847 45.2309 62.602C45.3346 62.1192 45.5321 61.3923 45.6698 60.9868C45.8074 60.5812 45.9566 60.0677 46.0014 59.8458C46.0462 59.6238 46.1653 59.0282 46.2661 58.5223C46.3669 58.0162 46.6166 57.2658 46.8208 56.8546C47.3302 55.8293 47.4799 54.2461 47.0974 53.9302C46.9402 53.8004 46.8118 53.5722 46.8118 53.423C46.8118 52.9756 44.1608 50.5556 43.182 50.1096C41.6419 49.4079 40.8985 49.3986 39.5778 50.0646C38.9489 50.382 37.9977 50.9225 37.4642 51.266C36.291 52.0212 35.8979 52.2608 35.436 52.5023C35.2419 52.6038 34.6864 52.9227 34.2014 53.2111C33.7163 53.4996 33.0417 53.8742 32.7022 54.0436C32.3627 54.213 32.0452 54.3955 31.9967 54.4491C31.7138 54.7613 29.7824 55.7968 29.7346 55.662C29.6554 55.4391 30.3851 53.1846 30.642 52.858C31.3985 51.8964 34.5642 49.5415 36.7388 48.3229C36.9704 48.1932 37.4466 47.9234 37.797 47.7234C38.1475 47.5235 39.466 46.8321 40.7271 46.187C41.9881 45.542 43.7121 44.6496 44.5582 44.2039L46.0963 43.3936L46.2882 44.1331C46.3937 44.5397 46.5291 45.0305 46.5889 45.2236C46.6489 45.4167 46.7178 45.6932 46.7423 45.838C46.7669 45.9828 46.8769 46.4173 46.9868 46.8034C47.0968 47.1896 47.5027 49.0065 47.8886 50.8408C48.7493 54.9325 48.6995 54.715 48.9392 55.4379C49.0479 55.7656 49.0923 56.149 49.0382 56.2897C48.9838 56.4307 49.0099 56.5459 49.0962 56.5459C49.2244 56.5459 49.4942 57.3188 49.5357 57.804C49.5412 57.8682 49.605 57.9802 49.6778 58.0525C49.7507 58.125 49.8142 58.3488 49.8193 58.55C49.8244 58.751 50.1345 59.8241 50.5087 60.9343L51.1888 62.953L50.72 63.7797C49.0149 66.7854 48.5586 67.5706 47.3753 69.5358C45.5125 72.6295 44.0643 74.7257 42.343 76.8206C41.2015 78.2097 39.1662 80.4871 38.8642 80.7132C38.4492 81.0239 37.5725 82.341 37.6977 82.4656C37.8164 82.5838 38.5067 82.0842 39.7558 80.9762C40.2038 80.5789 40.5962 80.3504 40.6585 80.4508C40.7189 80.5482 40.8154 80.442 40.8729 80.2147C40.9712 79.8248 42.0417 79.0089 42.0571 79.312C42.0609 79.39 42.2791 79.2088 42.5421 78.9095C42.8049 78.6102 43.258 78.2193 43.549 78.0406C44.1063 77.6985 42.6687 79.1439 41.5207 80.0797C41.0583 80.4566 40.9828 80.5844 41.2197 80.5887C41.3936 80.5921 41.9094 80.2542 42.3661 79.838C43.1813 79.0951 44.5076 78.0445 45.0675 77.6983C45.824 77.2307 46.4328 76.7485 47.2459 75.9735C47.7346 75.5076 48.3212 75.0522 48.5494 74.9617C48.7775 74.8711 48.9353 74.6994 48.9002 74.58C48.8651 74.4607 49.805 73.4122 50.989 72.2498C52.9566 70.3181 53.1566 70.1673 53.3176 70.4944C53.4144 70.6913 53.8199 71.6817 54.2185 72.6955C54.6173 73.7092 55.5811 75.8025 56.3603 77.3472C58.6759 81.9369 59.925 83.7635 61.186 84.4043C61.477 84.5522 61.8873 84.8296 62.0975 85.0209C62.3474 85.2479 62.8252 85.3992 63.4751 85.4566C64.448 85.5428 64.4847 85.5295 65.1273 84.857C65.8776 84.0721 66.1669 83.2361 66.1999 81.7564C66.2221 80.769 65.8935 78.0101 65.4868 75.7674C65.3819 75.1881 65.264 74.4628 65.2249 74.1558C65.1859 73.8486 65.0411 73.0611 64.903 72.4058C64.7651 71.7505 64.6905 71.1526 64.7372 71.0772C64.7841 71.0019 64.7492 70.9401 64.6596 70.9401C64.57 70.9401 64.4827 70.332 64.4654 69.5886C64.448 68.8454 64.3718 68.1543 64.2961 68.0526C64.0402 67.7101 63.9928 66.0685 64.1473 62.9092C64.1958 61.9196 64.1764 61.1099 64.1042 61.1099C63.9086 61.1099 63.4959 62.1736 62.4871 65.2786C61.8518 67.2339 61.9067 67.0215 61.3629 69.6235C60.5488 73.5198 60.2946 74.5386 60.1366 74.5386C59.8821 74.5386 57.8508 69.9721 57.0655 67.6343C56.2392 65.1748 56.196 65.4352 57.7418 63.5674C58.1814 63.0364 58.7304 62.2268 58.962 61.7682C59.1936 61.3095 59.4484 60.9343 59.5281 60.9343C59.6078 60.9343 59.8601 60.5592 60.0885 60.1005C60.3167 59.6418 60.983 58.3941 61.5689 57.3275C62.7982 55.0898 62.9901 54.5663 63.11 53.1229C63.2114 51.9043 63.0312 51.6122 61.5387 50.5756C61.0537 50.2387 60.589 49.8564 60.5059 49.7262C60.4229 49.5957 60.1922 49.3588 59.9932 49.1996C59.7943 49.0402 59.2669 48.5746 58.8214 48.1649C57.9457 47.3594 57.3854 47.2326 56.7275 47.6913C56.3776 47.9352 56.3471 48.0658 56.4452 48.8966C56.5473 49.7616 56.399 50.6021 55.9778 51.543C55.7071 52.1476 54.5721 55.1289 54.5721 55.2351C54.5721 55.4403 53.8626 56.8787 53.7173 56.968C53.5347 57.0804 52.9691 54.5702 52.3761 51.0164C52.1345 49.5682 51.8225 47.7909 51.6828 47.0668C51.4624 45.9236 51.3036 43.5247 51.3745 42.4039C51.3922 42.126 51.68 41.9317 52.6105 41.5701C53.2777 41.3107 53.9113 41.0984 54.0181 41.0984C54.4055 41.0984 57.2182 39.672 57.2364 39.4663C57.3427 38.2658 56.8565 37.2422 55.591 36.0024C54.5007 34.9342 53.7019 34.5059 52.689 34.4464C52.0731 34.41 51.9178 34.4697 51.7405 34.8104C51.6239 35.0344 51.3998 35.3644 51.2426 35.5438C50.9749 35.8488 50.9431 35.7475 50.7477 33.964C50.6327 32.9157 50.5336 31.3304 50.5272 30.4411L50.5156 28.8239L51.8128 28.203C52.5262 27.8614 53.2345 27.5819 53.3866 27.5819C53.6887 27.5819 54.7485 26.6072 54.7485 26.3293C54.7485 26.2345 54.837 26.2113 54.9453 26.278C55.3806 26.5457 54.7721 29.7574 54.133 30.5661C54.0185 30.7109 53.7375 31.1399 53.5088 31.5194C53.1677 32.0854 53.1467 32.1891 53.3915 32.0956C53.7919 31.9427 53.7702 32.242 53.3509 32.6592C53.0188 32.9898 52.632 33.6047 52.632 33.802C52.632 34.0553 53.0569 33.8258 54.3009 32.9011C55.0409 32.351 55.7443 31.8865 55.8642 31.8691C55.984 31.8516 56.7145 31.7891 57.4875 31.7301C59.4608 31.5796 61.4664 31.1318 61.7566 30.7767C62.437 29.9436 62.6979 29.0161 62.5911 27.8075C62.4638 26.3635 62.1675 24.9488 61.9925 24.9488C61.9222 24.9488 61.8985 24.7171 61.9403 24.434C62.0899 23.419 60.7438 21.4265 59.5546 20.9027C59.2392 20.7638 58.9814 20.5974 58.9814 20.533C58.9814 20.4155 57.5999 20.114 57.3489 20.1766C57.2755 20.1951 56.8787 20.0546 56.467 19.8647C56.0554 19.6748 55.4497 19.4741 55.121 19.4187C54.7924 19.3634 54.3956 19.2573 54.2391 19.1833C53.719 18.9368 51.8546 18.9401 51.6091 19.188Z" fill="#F06418"/>
<path d="M100.356 23.4073C101.669 22.7477 102.815 22.9947 104.331 24.2647C104.641 24.524 104.961 24.696 105.042 24.6465C105.239 24.5256 105.942 25.348 106.468 26.3145C107.058 27.3994 107.133 28.5381 106.709 29.9473C106.519 30.5795 106.1 31.9571 105.778 33.0088C105.457 34.0605 105.161 35.1169 105.121 35.3565C105.033 35.8896 104.282 38.1564 103.892 39.0703C103.734 39.4392 103.638 39.7738 103.677 39.8135C103.773 39.8964 108.376 37.5408 109.103 37.0362C109.769 36.5737 110.047 36.2192 110.054 35.8252C110.057 35.6525 110.238 35.249 110.455 34.9287C110.827 34.3815 110.877 34.3605 111.281 34.584C111.518 34.7149 111.912 34.8256 112.157 34.8291C112.875 34.8391 114.315 35.3231 114.752 35.7022C114.974 35.8942 115.084 36.0548 114.998 36.0586C114.912 36.0625 115.076 36.1709 115.362 36.2989C115.649 36.427 116.015 36.6774 116.174 36.8565C116.333 37.0356 116.695 37.4323 116.978 37.7383C117.708 38.5284 118.579 39.8838 118.58 40.2315C118.58 40.3932 118.435 40.7124 118.258 40.9405C118.081 41.1685 117.799 41.6683 117.633 42.0508C117.467 42.4333 117.19 43.0598 117.019 43.4424C116.847 43.8249 116.575 44.6071 116.412 45.1807C116.25 45.7541 116.044 46.3602 115.956 46.5274C115.868 46.6941 115.749 47.1252 115.693 47.4844C115.636 47.8427 115.554 48.194 115.51 48.2666C115.417 48.4186 115.333 48.7664 115.012 50.3448C114.882 50.9849 114.661 52.0025 114.522 52.6055C114.382 53.2085 114.168 54.1713 114.047 54.7451C113.926 55.3183 113.755 55.8819 113.667 55.9981C113.579 56.1134 113.553 56.2818 113.609 56.3721C113.664 56.4625 113.551 57.0726 113.356 57.7276C113.16 58.3825 112.837 59.4663 112.638 60.1358C112.439 60.8044 112.233 61.4687 112.182 61.6133C112.131 61.7565 112.075 61.9139 112.059 61.9619C112.042 62.0103 111.978 62.1667 111.916 62.3096C111.666 62.8907 111.297 64.0454 111.361 64.0479C111.463 64.049 110.86 65.7475 110.435 66.6563C110.233 67.0866 109.953 67.7702 109.812 68.1748C109.307 69.622 106.635 73.438 106.126 73.4385C105.994 73.4386 105.886 73.4976 105.886 73.5694C105.885 73.7037 105.362 73.7667 103.94 73.8047C102.972 73.8305 102.243 73.4353 101.255 72.3467C100.52 71.5369 100.513 71.5274 98.7384 69.0039C98.0663 68.0485 97.4436 67.2404 97.3536 67.2071C97.2647 67.1751 97.1916 67.0233 97.1915 66.8692C97.1913 66.715 96.976 66.3633 96.713 66.0889C96.3089 65.6668 96.2344 65.4374 96.2286 64.6016C96.2243 63.9614 96.0896 63.3379 95.8478 62.8311C95.6424 62.4007 95.3452 61.7351 95.1866 61.3526C94.9248 60.7203 94.8801 60.6872 94.6974 60.9854C94.5866 61.1659 94.2403 61.6941 93.9279 62.1592C93.6168 62.6226 93.3964 63.002 93.4366 63.0049C93.5311 63.0061 92.5691 64.6562 91.6798 66.0176C91.3162 66.5743 90.8624 67.2852 90.671 67.5977C90.4798 67.9099 89.9921 68.5014 89.588 68.9121C89.1841 69.3227 88.8044 69.8161 88.7433 70.0078C88.6822 70.1994 88.1707 70.7865 87.6066 71.3125C87.0425 71.8386 86.483 72.4694 86.3644 72.7139C86.0822 73.2937 82.4358 76.6039 82.2238 76.4727C82.1337 76.4181 81.7288 76.64 81.3234 76.9659C80.9177 77.2919 80.3115 77.7069 79.9767 77.8877C79.6421 78.0685 79.2334 78.3249 79.0695 78.4571C78.9058 78.589 78.6578 78.6531 78.5177 78.5996C78.3778 78.5459 78.1761 78.6072 78.0695 78.7354C77.9629 78.8638 77.6708 79.0194 77.421 79.0821C77.1714 79.1448 76.6277 79.4298 76.213 79.7149C75.5968 80.139 75.3952 80.1997 75.1095 80.0469C74.9174 79.9441 74.7603 79.8291 74.7599 79.791C74.7632 79.75 75.6318 78.8735 76.6935 77.8409C78.4734 76.1092 82.7565 71.0306 82.7589 70.6485C82.76 70.5571 83.4457 69.525 84.2833 68.3535C85.1215 67.1814 86.1497 65.6745 86.5685 65.0049C86.9871 64.3356 87.459 63.5918 87.6173 63.3526C88.7337 61.6661 92.2941 53.5593 93.7267 49.4414C93.9429 48.8202 94.196 48.2123 94.2892 48.0899C94.3823 47.968 94.4088 47.8179 94.3478 47.7569C94.1764 47.5907 90.9099 50.7725 90.3868 51.6153C90.0621 52.1386 89.9193 52.7129 90.2355 52.2237C90.3793 52.001 90.4051 52.0078 90.4073 52.2676C90.4085 52.4346 90.2943 52.5712 90.1534 52.5713C90.0125 52.5713 89.7843 52.787 89.6466 53.0498C89.5089 53.3127 89.1657 53.763 88.8839 54.0498C88.6022 54.3367 88.2038 54.8841 87.9982 55.2666C87.7927 55.6488 87.5599 56.0788 87.4816 56.2227C87.4037 56.3661 87.1899 56.7707 87.006 57.1211C86.4949 58.0948 79.1753 65.9029 77.5421 67.2168C77.0162 67.6399 76.1551 68.3904 75.629 68.8848C75.1043 69.3778 74.6226 69.7823 74.5568 69.7852C74.4928 69.7859 73.9835 70.1771 73.4259 70.6543C72.0724 71.8129 71.4042 71.8453 70.1486 70.8135C68.8811 69.7721 68.4045 69.2423 68.2023 68.6504C68.0369 68.1649 68.0512 66.1768 68.2257 65.3526C68.2662 65.1615 68.3053 64.8736 68.3126 64.7129C68.3319 64.3027 69.7379 63.6304 70.338 63.7451C70.6585 63.8064 71.0775 63.6905 71.6134 63.3916C72.4344 62.9337 74.6438 61.5405 74.9962 61.2588C76.1949 60.3002 76.1811 60.3217 76.2374 59.3487C76.2677 58.8253 76.3426 58.201 76.4034 57.9619C76.4645 57.7224 76.5878 56.7832 76.6779 55.875C76.8229 54.4116 76.9737 53.1999 77.1095 52.3975C77.1337 52.2536 77.2068 51.7844 77.2726 51.3545C77.3387 50.924 77.5536 49.7501 77.7491 48.7461C78.2144 46.359 78.3878 45.3995 78.4005 45.1563C78.4068 45.0292 78.2012 45.0647 77.8263 45.2559C77.0712 45.6405 75.0664 45.6096 74.2765 45.2012C73.9713 45.0434 73.6837 44.9123 73.6359 44.9092C73.0536 44.8809 70.0395 42.386 69.6163 41.5821C69.4807 41.3236 69.3693 40.839 69.3693 40.5059C69.3694 39.8395 69.6674 38.9015 69.8282 39.0616C69.975 39.2083 71.2893 38.6521 71.6515 38.2901C71.8206 38.1211 72.2571 37.9028 72.6212 37.8047C72.9857 37.7064 73.6937 37.4282 74.1945 37.1866C74.6954 36.9449 75.1725 36.7471 75.254 36.7471C75.3368 36.7465 76.8435 36.0507 78.6027 35.2002C80.3624 34.3495 82.3112 33.4409 82.9327 33.1817C84.8374 32.3873 86.0822 31.7239 86.7257 31.1592C87.2853 30.6678 87.4198 30.6267 88.2257 30.71C88.7127 30.7603 89.4931 31.0047 89.9601 31.253C90.4267 31.5011 90.8836 31.7048 90.9757 31.7051C91.2426 31.7055 92.8971 33.0818 93.2179 33.5703C93.8769 34.575 93.7538 35.9081 92.9366 36.6221C92.5343 36.9731 90.54 38.0249 89.8986 38.2246C88.9631 38.5155 83.5588 41.2348 82.9601 41.7159C82.9291 41.743 83.211 42.0431 83.587 42.3828C84.532 43.2367 85.2132 44.2673 85.3107 44.9903C85.3624 45.3744 85.2282 46.0885 84.9454 46.9307C84.6993 47.6635 84.4974 48.4139 84.4972 48.5977C84.4971 48.7812 84.3793 49.2126 84.2355 49.5567C83.9567 50.2239 83.8898 50.5009 83.6115 52.1309C83.5139 52.7011 83.351 53.2683 83.2491 53.3916C83.1473 53.5144 83.1109 53.6153 83.1681 53.6153C83.2247 53.6163 83.1942 53.82 83.0997 54.0684C82.9414 54.4849 82.9943 54.4639 83.756 53.8164C84.2121 53.4287 85.2891 52.4438 86.1495 51.627C87.0099 50.8104 87.8065 50.1415 87.92 50.1397C88.033 50.1384 88.1696 49.9975 88.2238 49.8272C88.2782 49.6566 88.5685 49.371 88.8693 49.1934C89.1578 49.0229 89.791 48.4942 90.3068 47.9981C90.3086 47.9979 90.3107 47.9982 90.3126 47.9981C90.4972 47.9832 90.7956 47.9008 90.9747 47.8155C91.1538 47.7302 91.3034 47.7068 91.3068 47.7627C91.3106 47.8181 91.4074 47.7709 91.5226 47.6573C91.638 47.5435 91.8083 47.4771 91.9005 47.5098C91.9927 47.5421 92.1119 47.4382 92.1652 47.2784C92.2826 46.9254 92.1189 46.9091 91.6456 47.2266C91.4499 47.3578 91.1859 47.4285 91.0597 47.3838C91.0308 47.3736 91.0063 47.3666 90.9865 47.3623C91.2132 47.1603 91.3675 47.0385 91.3849 47.0547C91.4144 47.0841 92.1064 46.4592 92.923 45.666C93.7393 44.8733 94.4986 44.2246 94.6095 44.2246C94.7242 44.2249 94.6756 44.3741 94.4962 44.5723C94.3233 44.7634 94.2635 44.9197 94.3634 44.92C94.5722 44.9198 94.8451 44.3967 94.9093 43.8731C94.922 43.7753 95.1356 43.6028 95.3849 43.4893C95.798 43.3008 96.67 41.7998 96.67 41.2774C96.6702 41.1741 96.7465 40.954 96.84 40.7881C97.0305 40.4498 98.0845 37.18 98.4786 35.7041C98.6192 35.1778 99.015 33.7859 99.3585 32.6114C100.005 30.3994 100.4 28.504 100.565 26.8096C100.647 25.9607 100.601 25.7411 100.232 25.1963C99.4852 24.0963 99.5033 23.8351 100.356 23.4073ZM109.664 41.2774C109.641 41.2836 109.428 41.4172 109.191 41.5742C108.951 41.7324 107.894 42.4906 106.843 43.2598C104.868 44.7049 104.419 45.0111 103.974 45.2168C103.83 45.2831 103.575 45.4668 103.405 45.6241C103.236 45.7814 102.657 46.1372 102.12 46.4151C101.238 46.8711 101.095 47.0289 100.64 48.0381C100.363 48.6526 100.009 49.552 99.8546 50.0371C99.7003 50.522 99.5151 50.9977 99.4435 51.0938C99.3712 51.1915 98.9848 52.0511 98.5841 53.0059C97.3849 55.8628 97.1426 56.399 96.2794 58.1084C95.4842 59.6833 95.2765 60.3965 95.6124 60.3965C95.7002 60.3971 95.9938 60.6976 96.2648 61.0645C97.5508 62.8049 99.1927 64.5702 99.5265 64.5703C99.5755 64.5707 99.9855 64.8049 100.438 65.0918C101.862 65.9951 102.873 65.6379 103.757 63.919C104.04 63.3684 104.447 62.3305 104.661 61.6133C104.875 60.8967 105.118 60.2293 105.199 60.1289C105.281 60.0292 105.393 59.6764 105.45 59.3457C105.507 59.0146 105.749 58.1612 105.986 57.4492C106.224 56.7366 106.65 55.1718 106.933 53.9717C107.216 52.7715 107.519 51.5549 107.607 51.2676C107.694 50.9805 107.896 50.1585 108.057 49.4414C108.217 48.7241 108.491 47.5111 108.665 46.7461C109.078 44.9302 109.748 41.2616 109.664 41.2774ZM92.9718 47.1778C93.1062 46.9186 92.963 46.9519 92.7784 47.2227C92.6932 47.3479 92.5972 47.6143 92.5656 47.8145C92.5266 48.0616 92.3867 48.1787 92.131 48.1787C91.8553 48.1789 91.6799 48.3496 91.4767 48.8155C91.3239 49.1659 91.2333 49.3136 91.2755 49.1436C91.328 48.932 91.2843 48.8654 91.1368 48.9326C91.0183 48.9869 90.8756 49.2081 90.8204 49.4239C90.7653 49.6399 90.6114 49.9645 90.4786 50.1446C90.2009 50.5213 90.1074 51 90.3116 51C90.3883 50.9999 90.4513 50.8767 90.4513 50.7266C90.4514 50.5767 90.5051 50.4741 90.5704 50.4991C90.7372 50.5604 92.1289 48.9555 92.131 48.6992C92.1314 48.5852 92.3063 48.439 92.5197 48.375C92.7331 48.3111 92.8673 48.1801 92.8175 48.084C92.7675 47.9872 92.8324 47.9577 92.964 48.0176C93.132 48.0946 93.2013 48.0148 93.2013 47.7432C93.2013 47.5323 93.1281 47.3595 93.0392 47.3594C92.9507 47.3591 92.9202 47.2775 92.9718 47.1778ZM90.1339 49.001C90.0027 49.0112 89.7304 49.2312 89.5294 49.4903C89.3284 49.7492 89.1817 49.9783 89.2032 49.9991C89.225 50.0196 89.4972 49.7988 89.8077 49.5088C90.1754 49.1654 90.2888 48.989 90.1339 49.001ZM90.965 47.4268C91.0383 47.4955 90.8462 47.658 90.5382 47.7881C90.532 47.7907 90.5257 47.7933 90.5197 47.7959C90.6737 47.6482 90.8183 47.514 90.9435 47.4014C90.9495 47.4086 90.9555 47.418 90.965 47.4268ZM94.1163 46.0059C93.9473 45.9742 93.4388 46.1466 92.962 46.4024C92.4695 46.6665 92.1327 46.9183 92.213 46.961C92.4225 47.0704 93.008 46.9342 93.2648 46.7647C93.3433 46.8975 93.468 46.9999 93.5636 47C93.7924 46.9999 94.1166 46.6073 94.1876 46.2442C94.2009 46.176 94.2024 46.1217 94.1974 46.0821C94.2046 46.0641 94.1994 46.0494 94.1827 46.0352C94.1682 46.0064 94.1477 45.9974 94.1163 46.0059ZM93.8693 46.251C93.7931 46.3278 93.6645 46.3898 93.5363 46.4131C93.6224 46.3503 93.7398 46.2921 93.8693 46.251Z" fill="#F06418"/>
<path fill-rule="evenodd" clip-rule="evenodd" d="M50.516 72.5559C50.203 72.8614 50.1068 73.0551 50.302 72.9864C50.6105 72.8779 51.3774 72.0002 51.1639 72.0002C51.1204 72.0002 50.8287 72.2503 50.516 72.5559Z" fill="#121212"/>
<path fill-rule="evenodd" clip-rule="evenodd" d="M48.9113 74.5598C48.2801 74.9012 48.0205 75.0828 48.3341 74.9637C49.3273 74.586 50.3232 74.0706 50.1887 74.0036C50.1172 73.9681 49.5425 74.2184 48.9113 74.5598Z" fill="#121212"/>
<path fill-rule="evenodd" clip-rule="evenodd" d="M142.418 83.0987C141.541 83.1822 141.445 83.4993 141.989 84.5148L142.394 85.2712L142.021 86.264C140.705 89.7591 136.499 96.8491 134.531 98.8884C134.485 98.9365 133.943 99.5753 133.327 100.308C132.711 101.041 131.979 101.739 131.701 101.86C131.424 101.981 131.196 102.157 131.196 102.252C131.196 102.346 131.089 102.381 130.957 102.328C130.582 102.177 129.644 102.936 129.302 103.668C128.992 104.332 128.992 104.333 129.441 105.623C129.941 107.062 130.488 107.893 131.376 108.563C131.943 108.99 132.005 109.001 132.626 108.768C132.986 108.634 133.459 108.521 133.678 108.516C134.041 108.509 135.082 108.256 135.697 108.025C136.159 107.852 136.279 107.816 136.781 107.701L137.281 107.586L136.864 108.07C136.379 108.634 134.427 110.401 133.868 110.783C133.657 110.927 133.277 111.222 133.025 111.439C132.772 111.655 132.501 111.833 132.423 111.834C132.344 111.834 132.004 112.11 131.666 112.446C131.328 112.782 130.974 113.056 130.879 113.056C130.511 113.056 129.374 113.799 129.121 114.204C128.975 114.439 128.899 114.631 128.954 114.631C129.008 114.631 128.954 114.746 128.833 114.887C128.165 115.664 128.153 115.707 128.238 116.958C128.285 117.644 128.406 118.232 128.509 118.268C128.612 118.304 128.696 118.476 128.696 118.65C128.696 118.824 128.808 119.011 128.946 119.067C129.083 119.122 129.196 119.28 129.196 119.418C129.196 119.899 130.376 120.468 131.363 120.462C132.246 120.458 133.523 119.965 133.779 119.531C133.836 119.434 134.291 119.151 134.79 118.904C135.289 118.656 135.697 118.38 135.697 118.291C135.697 118.202 135.754 118.148 135.822 118.171C135.891 118.194 136.487 117.918 137.147 117.558C137.807 117.199 138.389 116.905 138.439 116.905C138.96 116.905 137.48 118.568 134.682 121.128C133.503 122.208 132.802 122.962 132.949 122.995C133.239 123.062 134.807 122.422 136.487 121.551C137.148 121.208 137.739 120.928 137.8 120.928C138.074 120.928 143.071 118.182 143.885 117.585C144.124 117.409 144.367 117.313 144.423 117.372C144.479 117.431 144.572 117.35 144.63 117.192C144.688 117.034 144.81 116.905 144.902 116.905C144.993 116.905 145.275 116.727 145.528 116.511C145.78 116.295 146.156 115.999 146.363 115.855C147.613 114.983 147.585 115.04 147.46 113.599C147.147 109.969 145.632 109.467 141.115 111.493C140.932 111.575 140.032 111.93 139.115 112.28C138.198 112.631 137.376 112.989 137.289 113.075C137.202 113.161 137.056 113.231 136.965 113.231C136.601 113.231 138.98 111.145 142.085 108.739C142.436 108.468 143.007 107.991 143.356 107.678C143.705 107.365 144.068 107.109 144.164 107.109C144.26 107.109 144.363 107.048 144.394 106.974C144.425 106.899 145.087 106.376 145.867 105.811C146.646 105.246 147.702 104.382 148.214 103.891C148.725 103.401 149.382 102.776 149.672 102.503C149.963 102.23 150.201 101.854 150.201 101.667C150.201 101.081 149.776 100.224 149.15 99.5479C148.147 98.4643 144.866 97.0523 144.866 97.7043C144.866 98.0641 144.032 99.7238 143.126 101.167L142.303 102.477L141.126 102.501C140.478 102.514 139.33 102.595 138.573 102.683C137.817 102.77 137.198 102.8 137.198 102.75C137.198 102.646 139.357 100.328 141.178 98.4765C141.854 97.7891 142.492 97.1197 142.595 96.9889C142.698 96.858 143.345 96.108 144.033 95.3223C144.72 94.5364 145.696 93.3868 146.2 92.7675C146.704 92.1481 147.46 91.2452 147.88 90.7609C148.79 89.7101 149.038 89.1081 149.011 88.0081C148.979 86.6372 147.659 84.985 146.158 84.4363C145.998 84.3777 145.867 84.2698 145.867 84.1965C145.867 84.0861 144.989 83.6187 144.7 83.5748C144.654 83.5678 144.326 83.4291 143.971 83.2666C143.616 83.1042 143.278 82.985 143.221 83.0018C143.163 83.0186 142.802 83.0622 142.418 83.0987Z" fill="#5DB22B"/>
<path d="M172.343 104.829C173.084 104.507 173.435 104.504 173.694 104.816C173.809 104.954 174.298 105.199 174.78 105.359C175.482 105.592 176.018 106.005 177.462 107.426C178.454 108.403 179.266 109.247 179.266 109.3C179.266 109.556 178.518 111.788 178.406 111.868C178.249 111.976 178.055 112.634 177.944 113.433C177.898 113.768 177.748 114.747 177.61 115.607C177.472 116.468 177.279 117.876 177.18 118.737C177.001 120.299 176.89 120.998 176.823 120.998C176.803 120.999 176.77 121.155 176.748 121.345C176.609 122.545 176.432 123.642 176.132 125.171C175.734 127.196 175.749 127.141 175.47 127.648C175.352 127.863 175.306 128.039 175.369 128.04C175.432 128.04 175.407 128.138 175.312 128.257C175.218 128.377 175.093 128.676 175.035 128.922C174.912 129.437 174.035 129.794 173.258 129.645C172.956 129.587 172.822 129.62 172.891 129.733C172.959 129.843 172.802 129.896 172.483 129.871C172.096 129.84 171.627 129.493 170.635 128.501C169.904 127.77 169.25 127.172 169.18 127.171C169.112 127.171 168.791 127.491 168.467 127.883C168.142 128.276 167.55 128.96 167.15 129.405L166.425 130.214L166.889 130.344C167.145 130.416 167.841 130.508 168.435 130.548C169.03 130.589 169.773 130.699 170.088 130.794C171.194 131.127 173.099 131.658 173.572 131.764C173.835 131.823 174.049 131.953 174.05 132.052C174.05 132.152 174.119 132.19 174.205 132.137C174.29 132.084 174.662 132.174 175.031 132.335C175.4 132.495 175.741 132.639 175.789 132.653C175.837 132.667 176.189 132.817 176.571 132.984C176.954 133.151 177.581 133.425 177.965 133.592C178.6 133.869 180.247 135.098 180.972 135.838C181.329 136.201 182.452 137.905 182.652 138.386C182.731 138.578 182.779 138.91 182.758 139.126C182.736 139.341 182.825 139.558 182.955 139.608C183.32 139.748 183.296 140.478 182.915 140.824C182.726 140.995 182.57 141.236 182.57 141.358C182.57 141.481 182.487 141.798 182.386 142.064C182.242 142.443 182.169 142.494 182.048 142.297C181.916 142.084 181.878 142.088 181.789 142.321C181.731 142.471 181.473 142.605 181.215 142.619C180.956 142.633 180.528 142.673 180.262 142.709C179.997 142.744 179.735 142.7 179.679 142.611C179.624 142.522 179.466 142.492 179.327 142.546C179.186 142.6 179.121 142.566 179.18 142.47C179.239 142.376 179.112 142.298 178.899 142.298C178.469 142.298 177.876 141.841 177.876 141.509C177.876 141.392 177.582 141.16 177.223 140.995C176.865 140.83 176.493 140.606 176.397 140.497C176.301 140.387 175.519 139.829 174.659 139.255C173.798 138.682 173.055 138.17 173.007 138.117C172.959 138.064 172.196 137.488 171.311 136.837C170.427 136.185 169.702 135.602 169.698 135.541C169.695 135.48 169.402 135.247 169.046 135.024C168.69 134.801 167.968 134.031 167.442 133.314C166.916 132.597 166.315 131.829 166.105 131.608C165.896 131.387 165.778 131.144 165.844 131.067C166.242 130.603 164.927 131.634 164.081 132.45C163.523 132.987 162.853 133.553 162.592 133.708C162.33 133.862 161.969 134.208 161.789 134.476C161.609 134.744 161.206 135.086 160.894 135.234C160.583 135.383 160.03 135.769 159.668 136.092C159.304 136.416 158.225 137.254 157.269 137.954C156.313 138.654 155.504 139.292 155.472 139.372C155.44 139.451 155.319 139.516 155.202 139.516C155.085 139.517 154.72 139.718 154.39 139.964C153.643 140.524 152.266 141.238 151.795 141.31C151.599 141.34 151.347 141.457 151.233 141.571C151.12 141.684 150.945 141.778 150.844 141.779C150.744 141.78 149.801 142.059 148.749 142.399C147.102 142.932 142.398 144.032 141.75 144.036C141.422 144.038 141.489 143.692 141.837 143.589C143.456 143.106 147.728 140.469 150.488 138.247C152.833 136.358 158.109 131.533 159.245 130.236C159.402 130.057 159.724 129.724 159.963 129.497C160.442 129.038 160.251 128.937 159.672 129.342C159.468 129.485 159.157 129.628 158.981 129.66C158.299 129.784 156.024 130.53 155.153 130.915C154.251 131.313 153.558 131.298 152.898 130.865C152.666 130.712 151.735 129.083 151.88 129.083C151.934 129.082 151.891 128.921 151.786 128.724C151.582 128.342 151.855 127.777 152.154 127.962C152.236 128.012 152.529 127.937 152.804 127.795C153.277 127.55 153.311 127.458 153.399 126.176C153.45 125.429 153.578 124.506 153.682 124.125C153.787 123.743 154.225 121.827 154.655 119.867C155.086 117.906 155.559 115.754 155.706 115.085C156.072 113.419 156.072 112.768 155.705 111.806C155.281 110.695 155.614 110.432 157.066 110.731C157.606 110.842 158.115 110.745 159.761 110.216C161.73 109.584 163.742 108.85 164.3 108.56C164.86 108.269 166.226 107.695 166.356 107.695C166.431 107.695 166.803 107.527 167.183 107.323C167.564 107.118 168.072 106.889 168.311 106.813C169.233 106.521 170.683 105.852 171.213 105.474C171.517 105.257 172.025 104.967 172.343 104.829ZM171.931 109.096C171.71 109.102 171.411 109.179 171.267 109.267C171.005 109.43 169.763 109.972 168.311 110.558C167.881 110.732 166.982 111.128 166.312 111.439C165.643 111.75 164.664 112.203 164.138 112.446C162.897 113.02 161.362 113.622 160.922 113.708C159.6 113.964 159.653 113.916 159.579 114.878C159.54 115.374 159.519 115.799 159.532 115.822C159.549 115.843 160.217 115.581 161.02 115.24C161.826 114.897 162.839 114.475 163.269 114.302C164.936 113.634 167.006 112.709 167.203 112.546C167.317 112.451 167.734 112.336 168.131 112.288C168.712 112.218 169.027 112.301 169.761 112.721C170.512 113.151 170.668 113.322 170.651 113.699C170.63 114.169 169.829 114.98 169.374 114.992C169.241 114.995 169.043 115.12 168.934 115.268C168.826 115.417 168.622 115.561 168.481 115.588C167.831 115.71 166.121 116.27 165.972 116.409C165.881 116.494 165.697 116.563 165.561 116.563C165.426 116.563 164.447 117 163.386 117.533C161.399 118.532 160.615 118.699 159.341 118.397L158.804 118.27L158.602 119.493C158.295 121.351 158.258 121.271 159.269 120.948C159.747 120.795 160.138 120.606 160.138 120.529C160.139 120.452 160.28 120.388 160.451 120.388C160.623 120.388 161.483 120.036 162.362 119.606C163.241 119.176 164.074 118.824 164.213 118.824C164.352 118.824 164.508 118.756 164.559 118.672C164.611 118.59 164.967 118.471 165.351 118.41C165.736 118.348 166.051 118.216 166.052 118.116C166.052 118.016 166.124 117.979 166.213 118.034C166.302 118.089 166.414 118.071 166.461 117.995C166.508 117.918 166.807 117.837 167.125 117.814C167.443 117.791 167.795 117.65 167.908 117.5C168.133 117.2 168.378 117.243 169.742 117.82C170.444 118.117 170.539 118.213 170.394 118.484C170.301 118.658 170.224 118.967 170.224 119.171C170.224 119.374 170.158 119.499 170.078 119.449C169.997 119.4 169.759 119.593 169.548 119.879C169.336 120.164 169.092 120.353 169.004 120.299C168.916 120.245 168.654 120.324 168.424 120.475C168.193 120.626 167.936 120.733 167.853 120.713C167.571 120.644 165.628 121.561 163.704 122.671C163.034 123.056 162.33 123.394 162.138 123.422C161.947 123.449 161.556 123.563 161.269 123.674C160.357 124.028 160.327 124.031 160.427 123.77C160.481 123.632 160.594 123.518 160.679 123.518C160.765 123.518 160.835 123.451 160.835 123.368C160.835 123.285 160.541 123.249 160.182 123.29C159.824 123.33 159.21 123.25 158.819 123.111L158.109 122.859L157.918 123.667C157.813 124.111 157.678 124.847 157.618 125.301C157.495 126.237 157.625 126.304 158.748 125.883C160.556 125.206 162.637 124.468 163.791 124.094C165.743 123.461 165.986 123.345 165.715 123.177C165.552 123.077 165.644 122.999 166.023 122.916C166.321 122.85 166.664 122.861 166.786 122.938C166.908 123.015 167.047 123.086 167.094 123.095C167.628 123.199 168.389 123.468 169.149 123.821C169.656 124.056 170.098 124.222 170.132 124.189C170.299 124.015 171.867 113.446 172.237 109.999C172.33 109.13 172.315 109.087 171.931 109.096Z" fill="#5DB22B"/>
<path d="M88.3564 80.2712C88.4863 80.1116 88.6148 80.1425 88.8926 80.4011C89.2013 80.6889 89.4488 80.7558 90.1494 80.74C90.2663 80.7372 92.0161 81.6594 93.1045 82.2976C93.5826 82.5779 94.2091 82.94 94.4961 83.1023C95.288 83.5504 96.3071 84.3885 96.501 84.7507C96.5961 84.9285 96.7179 85.5278 96.7715 86.0818C96.8249 86.6358 96.8994 87.187 96.9375 87.3064C96.9753 87.426 96.9304 87.5232 96.8379 87.5232C96.7453 87.5233 96.6699 87.6035 96.6699 87.7009C96.6702 87.931 97.8776 87.8141 102.479 87.1404C105.143 86.7502 106.837 86.5989 108.668 86.5857L111.189 86.5671L112.256 87.2195C112.842 87.5778 113.374 87.8712 113.441 87.8718C113.507 87.8718 113.665 87.9692 113.792 88.0886C113.919 88.2083 114.465 88.6973 115.007 89.1755C116.1 90.141 117.536 92.1831 117.536 92.7722C117.536 93.1508 116.626 94.3054 116.328 94.3054C116.168 94.3055 115.885 94.4429 115.7 94.6101C114.954 95.2839 113.209 96.2908 110.03 97.8845C109.584 98.1083 109.173 98.3666 109.116 98.4578C109.06 98.5489 108.447 98.8378 107.754 99.1003C105.534 99.9423 102.181 101.84 101.434 102.677C101.232 102.902 100.919 103.36 100.737 103.695C100.556 104.03 100.33 104.368 100.234 104.447C100.139 104.526 100.647 104.546 101.364 104.492C102.081 104.438 103.871 104.343 105.342 104.279C107.977 104.165 108.023 104.156 108.521 103.669C108.799 103.397 108.927 103.169 108.805 103.163C108.682 103.157 108.761 103.079 108.981 102.991C109.53 102.771 110.62 103.048 111.245 103.567C111.377 103.677 111.607 103.785 111.755 103.806C111.903 103.828 112.07 103.91 112.128 103.988C112.185 104.066 112.507 104.271 112.842 104.443C113.765 104.918 114.3 105.453 114.721 106.321C115.221 107.354 115.195 107.842 114.608 108.486C114.02 109.132 112.995 109.248 111.584 108.829C111.08 108.679 110.181 108.479 109.587 108.385C108.245 108.17 103.639 108.123 101.16 108.299L99.3037 108.43L99.1006 108.975C98.989 109.275 98.7488 109.821 98.5664 110.189C98.384 110.557 98.2344 110.946 98.2344 111.053C98.234 111.161 98.051 111.407 97.8271 111.601C97.6032 111.796 97.3349 112.115 97.2314 112.31C97.071 112.613 97.0981 112.669 97.4121 112.693C97.9388 112.733 100.387 114.454 100.823 115.092C101.253 115.719 101.303 116.673 100.927 117.089C100.603 117.446 99.8054 120.456 99.5225 122.388C99.4665 122.771 99.3535 123.318 99.2715 123.605C99.1286 124.104 98.9135 125.576 98.9033 126.127C98.9005 126.27 98.8322 126.623 98.751 126.91C98.67 127.197 98.5638 127.705 98.5146 128.04C98.4654 128.375 98.3367 129.001 98.2285 129.431C97.9577 130.508 97.8777 130.853 97.8066 131.257C97.5508 132.71 97.3326 133.526 97.1865 133.576C97.0926 133.608 97.0592 133.705 97.1123 133.791C97.1657 133.877 97.088 133.901 96.9395 133.844C96.7858 133.785 96.6699 133.833 96.6699 133.955C96.6699 134.119 96.6125 134.121 96.4238 133.965C96.2565 133.826 96.1434 133.819 96.0664 133.943C96.0045 134.043 95.8019 134.126 95.6162 134.126C94.9725 134.126 95.2589 134.613 95.9736 134.734C96.3552 134.799 96.7111 134.923 96.7656 135.01C96.8195 135.098 97.0156 135.17 97.2012 135.17C97.3869 135.17 97.5391 135.231 97.5391 135.305C97.5392 135.38 97.7483 135.459 98.0039 135.48C98.2597 135.501 98.5926 135.626 98.7432 135.758C98.894 135.889 99.3767 136.153 99.8154 136.344C100.254 136.534 100.795 136.837 101.017 137.016C102.162 137.944 102.756 138.538 102.756 138.755C102.756 138.887 102.822 138.995 102.903 138.995C103.152 138.995 103.651 140.289 103.783 141.276C103.883 142.021 103.841 142.348 103.58 142.881C103.401 143.248 103.296 143.59 103.347 143.643C103.432 143.729 102.934 144.538 102.507 145.01C102.152 145.4 100.909 144.803 99.7637 143.692C99.1615 143.108 98.278 142.366 97.7998 142.043C97.3218 141.72 96.6571 141.213 96.3223 140.917C95.9878 140.621 95.634 140.321 95.5361 140.252C95.4388 140.182 95.0419 139.851 94.6543 139.516C94.2669 139.182 93.7572 138.752 93.5215 138.56C92.118 137.421 90.9779 136.437 90.7051 136.13C89.0715 134.292 88.6621 133.937 88.4365 134.159C88.2016 134.391 86.5352 135.685 84.4844 137.228C83.2489 138.158 79.4499 140.722 77.5732 141.893C76.2575 142.715 74.881 143.421 74.2383 143.605C73.9992 143.674 73.5406 143.888 73.2197 144.083C72.8991 144.277 72.1953 144.533 71.6553 144.651C71.1154 144.769 69.9691 145.064 69.1084 145.305C67.4756 145.764 64.2164 146.239 63.79 146.081C63.6363 146.023 63.8045 145.877 64.2393 145.691C65.6775 145.075 68.6487 143.524 69.7275 142.827C72.4228 141.086 77.5508 137.081 79.2451 135.393C79.4647 135.175 79.711 134.996 79.792 134.996C79.8731 134.995 79.9786 134.891 80.0273 134.764C80.1209 134.52 79.5183 134.632 77.4551 135.24C76.9769 135.381 76.2575 135.59 75.8574 135.705C74.5673 136.074 73.871 135.764 72.4482 134.189C71.6444 133.299 71.286 131.822 71.6582 130.932C71.7835 130.633 71.8899 130.349 71.8945 130.301C71.8991 130.253 72 130.038 72.1191 129.823C72.3248 129.452 73.6269 125.027 74.0254 123.344C74.7395 120.328 74.9236 119.442 75.0996 118.176C75.3219 116.574 75.1833 116.047 74.5361 116.033C73.7153 116.015 72.97 115.456 72.4678 114.48C72.1981 113.956 71.9775 113.423 71.9775 113.296C71.9774 113.169 71.9052 113.11 71.8174 113.164C71.7292 113.218 71.4356 113.294 71.165 113.333C70.8944 113.371 70.2156 113.494 69.6562 113.604C67.634 114.004 66.5892 113.894 65.1084 113.128C63.9024 112.504 63.6875 112.157 64.3701 111.941C64.587 111.872 65.8989 111.261 67.2871 110.582C68.6761 109.902 70.484 109.049 71.3047 108.685L72.7969 108.023L73.4082 106.598C73.7447 105.815 74.359 104.176 74.7725 102.957L75.5234 100.739L75.2158 99.8826C74.9738 99.2091 74.9502 98.9462 75.1055 98.656C75.2789 98.3321 75.4393 98.2912 76.4209 98.323C77.8901 98.3705 79.2016 98.9598 79.2686 99.6023C79.2895 99.7978 80.5277 99.7442 81.2803 99.5154C81.5672 99.4281 82.7019 99.1274 83.8018 98.8464C86.174 98.2403 91.2677 96.7029 92.1943 96.3132C92.5543 96.1619 93.61 95.8533 94.541 95.6277C96.3971 95.1777 97.4545 94.7834 97.9082 94.3728C98.1741 94.1322 98.3193 94.1458 99.3926 94.5076C100.047 94.7279 100.645 95.0075 100.722 95.1287C100.798 95.2497 100.95 95.3484 101.06 95.3484C101.436 95.3484 102.555 96.2472 102.972 96.8845C103.644 97.9129 103.661 98.0833 103.143 98.5642C102.884 98.804 102.758 99.0007 102.862 99.0007C102.967 99.0005 103.318 98.7458 103.643 98.4353C103.968 98.1246 104.292 97.89 104.364 97.9138C104.436 97.9376 104.496 97.8592 104.499 97.74C104.502 97.6204 104.853 97.1312 105.28 96.6531C106.449 95.3447 108.426 91.9134 108.166 91.6472C107.877 91.3586 103.503 91.4332 100.831 91.7722C100.407 91.8259 99.3559 91.9451 98.4951 92.0369C97.6344 92.1287 96.4605 92.2884 95.8867 92.3923C95.3129 92.4961 94.3745 92.6598 93.8008 92.7556C92.26 93.013 92.1542 93.0352 91.0186 93.3386C89.9694 93.6187 89.759 93.66 88.3232 93.8708C87.8929 93.934 87.1491 94.0902 86.6709 94.2175C86.1927 94.3448 85.4098 94.5447 84.9316 94.6619C84.4534 94.7789 83.6714 94.983 83.1934 95.115C82.7152 95.2468 82.1669 95.3843 81.9756 95.4207C81.7836 95.4572 80.8454 95.6978 79.8896 95.9548C78.9342 96.2119 78.0047 96.4512 77.8232 96.488C77.6431 96.5246 77.173 96.6686 76.7793 96.8074C76.3855 96.9463 75.578 97.154 74.9854 97.2693C73.4587 97.5663 72.9985 98.111 71.0938 101.87C69.7255 104.57 67.9831 107.504 67.3652 108.15C67.2626 108.257 66.9154 108.482 66.5938 108.648C66.1086 108.899 65.902 108.917 65.3848 108.756C64.7305 108.551 63.6942 107.749 63.8633 107.578C63.9179 107.523 63.7657 107.089 63.5244 106.613C62.9708 105.52 62.8575 104.595 63.1162 103.265C63.2871 102.387 63.2764 102.092 63.0488 101.443C62.7499 100.591 62.8862 100.218 63.4951 100.218C64.0713 100.217 64.8337 99.5377 65.3076 98.6023C65.5556 98.1133 65.8986 97.5141 66.0693 97.2703C66.5088 96.6425 68.7423 93.2097 68.8477 93.0007C68.8962 92.9046 69.229 92.3806 69.5869 91.8357C69.9451 91.2904 70.2383 90.7887 70.2383 90.7214C70.2391 90.6533 70.4431 90.3314 70.6914 90.0056C71.0269 89.5656 71.1163 89.2918 71.0361 88.946C70.9769 88.6899 70.9001 88.3631 70.8662 88.2195C70.801 87.9425 71.0568 87.5232 71.291 87.5232C71.3683 87.5236 71.5538 87.6464 71.7031 87.7957C71.9794 88.0717 72.4134 87.9812 72.2305 87.6853C72.066 87.4189 72.2822 87.4962 73.292 88.0662C74.6589 88.8376 75.715 89.8937 76.2227 90.9968C76.6289 91.8797 76.6409 91.9792 76.3906 92.3611C76.139 92.745 76.1431 92.7661 76.4404 92.6755C76.6167 92.622 77.5349 92.4127 78.4814 92.2097C82.0496 91.4448 87.9184 89.8597 88.2891 89.5613C88.8802 89.0828 89.7487 86.1326 89.5908 85.1394C89.4806 84.4472 89.1705 83.8718 88.9072 83.8718C88.7682 83.8717 88.7247 83.761 88.793 83.5828C88.8537 83.4245 88.8502 83.3625 88.7734 83.3855L88.5684 83.489C88.4913 83.5123 88.488 83.4502 88.5488 83.2917C88.6213 83.1028 88.571 83.0027 88.4043 83.0027C88.264 83.0026 88.1495 82.8852 88.1494 82.7419C88.1494 82.5985 88.0795 82.4812 87.9951 82.4812C87.538 82.4804 87.7842 80.9744 88.3564 80.2712ZM94.6172 116.476C94.6879 115.782 94.3249 115.747 92.7578 116.298C92.0885 116.533 90.9536 116.892 90.2363 117.097C89.5195 117.302 88.8479 117.538 88.7441 117.622C88.6408 117.705 88.4061 117.796 88.2227 117.825C88.0392 117.853 87.8108 117.921 87.7148 117.975C87.6192 118.03 87.149 118.172 86.6709 118.291C85.6125 118.554 83.9305 119.116 83.1064 119.481C82.7717 119.629 81.9367 119.787 81.251 119.831L80.0029 119.911L79.7539 120.668C79.617 121.084 79.5365 121.456 79.5752 121.495C79.6145 121.533 80.562 121.254 81.6807 120.875C82.7988 120.495 83.831 120.159 83.9756 120.128C84.1191 120.097 84.4543 119.987 84.7197 119.885C85.3746 119.631 86.0541 119.478 86.6279 119.453C86.8904 119.442 87.1047 119.369 87.1055 119.292C87.1056 119.215 87.1784 119.195 87.2666 119.25C87.4537 119.365 89.0604 118.854 89.2002 118.635C89.3081 118.467 91.0822 118.968 91.9189 119.402C92.5365 119.723 92.694 120.056 92.5908 120.823C92.5521 121.11 92.5154 121.443 92.5088 121.562C92.5021 121.682 92.3854 121.779 92.25 121.779C92.1147 121.779 91.9775 121.846 91.9453 121.927C91.8824 122.084 88.772 122.895 87.4717 123.094C87.0511 123.158 86.4246 123.33 86.0801 123.475C85.7356 123.621 85.1432 123.768 84.7637 123.802C84.384 123.835 83.798 123.994 83.4609 124.154C82.6573 124.536 80.5286 124.943 79.9766 124.821C79.645 124.748 79.6039 124.767 79.8027 124.901C80.1448 125.133 79.8751 125.134 79.4434 124.903C79.212 124.779 79.1078 124.78 79.1074 124.903C79.1074 125.002 79.027 125.084 78.9297 125.084C78.8251 125.084 78.7987 124.888 78.8652 124.605C79.0751 123.715 78.6375 124.432 78.1689 125.746C77.9202 126.444 77.7165 127.051 77.7158 127.096C77.717 127.252 78.8602 127.116 79.6289 126.869C80.0592 126.731 80.562 126.586 80.7461 126.55C80.9307 126.512 81.6743 126.294 82.3984 126.064C84.6553 125.347 86.3098 124.923 87.291 124.813C88.8326 124.641 89.0082 124.597 89.293 124.312C89.611 123.994 89.6263 123.992 90.0215 124.197C90.1879 124.283 90.6676 124.456 91.0879 124.581C92.1625 124.9 92.5303 125.252 92.5908 126.013C92.6403 126.637 92.6086 126.678 91.7549 127.09C91.2316 127.342 90.5577 127.518 90.1143 127.518C89.3535 127.518 86.1117 128.232 85.2344 128.594C84.9724 128.701 84.631 128.773 84.4756 128.755C84.3197 128.736 83.7333 128.874 83.1719 129.061C80.1287 130.075 79.6209 130.179 78.9111 129.945C78.54 129.823 78.1898 129.77 78.1318 129.827C78.0745 129.884 77.8475 129.737 77.6279 129.5L77.2285 129.069L76.9307 129.902C76.7671 130.36 76.5253 131.03 76.3926 131.39C76.2603 131.75 76.1521 132.074 76.1514 132.112C76.1514 132.23 78.4938 131.659 78.6641 131.499C78.7549 131.414 78.9656 131.344 79.1328 131.344C79.5221 131.343 83.8556 129.938 83.9756 129.773C84.024 129.706 84.3766 129.494 84.7588 129.304C85.1413 129.114 85.6825 128.835 85.9609 128.683C86.4203 128.434 86.5172 128.433 87.0039 128.678C87.2992 128.827 87.7234 129.117 87.9463 129.321C88.1687 129.525 88.3875 129.66 88.4326 129.623C88.4785 129.586 88.9369 129.698 89.4521 129.873C90.164 130.115 90.463 130.326 90.6904 130.748L90.9893 131.304L90.3545 132.171C90.0051 132.647 89.5999 133.134 89.4551 133.255C89.0435 133.596 89.1408 133.714 89.8447 133.723C90.2035 133.728 90.7708 133.778 91.1055 133.835C91.4401 133.891 92.0267 133.979 92.4092 134.029C92.7917 134.079 93.301 134.164 93.54 134.218C93.7791 134.271 94.2484 134.348 94.583 134.388C95.0746 134.447 95.1009 134.437 94.7188 134.337C94.1146 134.178 92.7378 133.026 92.3076 132.321C91.8835 131.625 91.8528 130.213 92.2568 129.986C92.4119 129.899 92.5626 129.641 92.5918 129.412C92.6212 129.182 92.9279 127.352 93.2734 125.344C93.8396 122.056 94.4761 117.856 94.6172 116.476ZM92.0625 111.638C91.8712 111.681 91.2455 111.86 90.6719 112.036C90.0981 112.212 89.1979 112.484 88.6719 112.641C88.1461 112.799 87.5978 112.974 87.4541 113.032C87.3107 113.09 87.0522 113.165 86.8789 113.199C86.7058 113.233 86.2209 113.416 85.8018 113.607C85.3831 113.798 84.9221 113.954 84.7773 113.955C84.6332 113.955 84.3348 114.024 84.1152 114.108C83.8955 114.193 82.7764 114.56 81.6289 114.924C80.4831 115.287 79.5115 115.61 79.4678 115.641C79.4269 115.673 79.5271 115.979 79.6904 116.321C79.8964 116.753 80.0691 116.912 80.2539 116.842C80.401 116.785 81.0443 116.621 81.6836 116.476C82.3231 116.332 83.1204 116.106 83.4551 115.975C83.993 115.765 86.5301 114.951 86.7588 114.916C87.1142 114.861 88.6185 114.399 88.7588 114.302C88.8549 114.235 89.3631 114.041 89.8887 113.871C90.4147 113.701 91.4104 113.337 92.1016 113.062C92.7927 112.788 93.5176 112.563 93.7109 112.563C93.9042 112.563 94.0625 112.499 94.0625 112.422C94.0601 112.272 92.7234 111.506 92.5244 111.54C92.4618 111.551 92.2537 111.595 92.0625 111.638ZM84.1572 108.607C84.5807 107.967 84.6004 107.971 83.1924 108.396C82.6186 108.569 81.601 108.875 80.9316 109.076C80.2626 109.276 79.5979 109.477 79.4541 109.521C79.3105 109.565 78.5984 109.809 77.8721 110.063L76.5508 110.525L76.3672 111.327C76.0692 112.627 76.1385 112.911 76.7529 112.911C77.2471 112.911 79.8194 112.076 81.1934 111.469C81.5281 111.322 82.0365 111.114 82.3232 111.008C82.6593 110.883 83.0113 110.522 83.3135 109.993C83.5715 109.542 83.9516 108.918 84.1572 108.607ZM94.9648 105.554C94.899 105.521 94.4145 105.596 93.8887 105.721C93.3627 105.847 92.658 105.99 92.3232 106.039C91.1047 106.217 89.2004 106.794 88.9268 107.067C88.7729 107.221 88.7281 107.346 88.8271 107.346C88.9274 107.347 88.8559 107.698 88.665 108.143C88.4773 108.581 88.3244 109.052 88.3242 109.187C88.3241 109.322 88.2326 109.433 88.1211 109.433C88.0099 109.433 87.9541 109.469 87.9971 109.512C88.0407 109.556 89.287 109.273 90.7656 108.883C92.2442 108.492 93.5993 108.157 93.7773 108.138C93.9552 108.12 94.1745 107.971 94.2656 107.809C94.5762 107.254 95.0833 105.619 94.9648 105.554ZM80.4785 101.956C80.3663 101.956 80.3263 102.12 80.3818 102.347C80.4425 102.595 80.305 103.036 80.0088 103.55C79.7513 103.996 79.2865 104.797 78.9756 105.33C78.3888 106.336 78.2616 106.696 78.6191 106.339C78.734 106.224 78.9558 106.13 79.1113 106.13C79.2682 106.129 80.1321 105.884 81.0322 105.584C81.9335 105.283 83.4032 104.856 84.2979 104.634C86.0994 104.186 86.4149 104.007 86.376 103.46C86.3614 103.255 86.4078 102.91 86.4785 102.695C86.6342 102.222 86.6941 102.224 85.1504 102.652C84.4603 102.843 83.6032 103 83.2461 103C82.5188 103 80.6728 102.367 80.6709 102.118C80.6708 102.029 80.5843 101.956 80.4785 101.956ZM96.9492 99.0984C97.0599 98.8093 96.8484 98.7342 96.5732 98.9646C96.4815 99.0409 95.821 99.2452 95.1045 99.4187C94.3874 99.5922 93.5654 99.8359 93.2783 99.9597C92.9915 100.083 92.5223 100.243 92.2354 100.315C91.6299 100.466 91.5767 100.483 90.7217 100.774C90.013 101.015 89.9862 101.186 90.4443 102.535C90.7 103.288 90.6106 103.281 93.1914 102.75C93.9087 102.602 94.8089 102.433 95.1914 102.375C95.5738 102.317 95.9323 102.218 95.9883 102.156C96.0446 102.092 96.2604 101.441 96.4678 100.708C96.6752 99.973 96.8918 99.2483 96.9492 99.0984Z" fill="#5DB22B"/>
<path fill-rule="evenodd" clip-rule="evenodd" d="M145.272 120.883C144.854 121.475 144.222 122.26 143.866 122.63C141.524 125.061 140.86 125.577 140.072 125.577C139.615 125.577 137.704 124.727 137.289 124.339C136.807 123.887 136.04 124.155 136.231 124.709C136.289 124.879 136.396 124.978 136.467 124.929C136.611 124.829 136.792 125.313 137.229 126.968C137.518 128.066 137.786 128.653 138.33 129.38C138.483 129.585 138.916 130.19 139.293 130.726C139.669 131.262 140.088 131.71 140.223 131.723C140.616 131.76 140.706 131.789 140.935 131.95C141.059 132.038 141.254 132.008 141.394 131.879C141.586 131.701 141.636 131.707 141.637 131.909C141.637 132.049 141.862 131.871 142.137 131.514C142.411 131.157 142.636 130.649 142.636 130.386C142.636 130.122 142.689 129.848 142.753 129.777C142.816 129.706 142.887 129.508 142.91 129.337C142.932 129.165 143.038 128.813 143.145 128.553C143.689 127.23 144.09 126.345 144.431 125.716C144.638 125.333 144.768 125.02 144.72 125.02C144.672 125.02 144.808 124.707 145.022 124.324C145.708 123.099 146.39 120.52 146.153 120.049C146.069 119.882 145.796 120.141 145.272 120.883Z" fill="#5DB22B"/>
<path fill-rule="evenodd" clip-rule="evenodd" d="M132.489 126.512C132.158 126.794 131.799 127.024 131.69 127.024C131.582 127.024 131.494 127.083 131.494 127.155C131.494 127.304 129.672 128.292 129.077 128.466C128.739 128.564 128.579 128.417 127.889 127.375C127.012 126.049 126.636 125.888 126.173 126.64C126.014 126.898 125.713 127.286 125.504 127.501C125.148 127.869 125.136 127.966 125.313 129.037C125.417 129.667 125.532 130.68 125.569 131.291C125.606 131.901 125.766 132.7 125.925 133.066C126.272 133.866 128.032 135.629 128.745 135.892C129.562 136.192 130.306 135.861 130.748 134.998C131.112 134.288 131.212 133.834 131.487 131.632C131.637 130.436 131.99 129.324 132.658 127.946C133.023 127.191 133.325 126 133.15 126C133.118 126 132.82 126.231 132.489 126.512Z" fill="#5DB22B"/>
<path d="M188.435 6C189.318 6.00111 190.254 6.25029 191.485 6.81348C191.997 7.0473 192.464 7.23866 192.524 7.23926C192.857 7.23926 195.513 8.94344 195.903 9.40723C197.164 10.9053 197.424 12.5998 196.638 14.1885C196.17 15.1346 196.218 15.1787 197.403 14.8848C197.745 14.8002 198.662 14.5933 199.442 14.4258C200.222 14.2583 201.148 14.0486 201.501 13.96C201.854 13.8715 202.412 13.7971 202.742 13.7949C203.072 13.793 203.86 13.6717 204.494 13.5244C205.128 13.3773 206.545 13.2467 207.643 13.2354L209.637 13.2148L211.128 14.7637C212.291 15.9718 212.705 16.5432 213.012 17.3633C213.393 18.3815 213.395 18.4396 213.104 19.2021C212.78 20.0508 212.703 20.1342 210.697 21.8135C209.205 23.0632 207.621 24.1493 207.021 24.3359C206.551 24.4819 206.518 24.3889 206.9 24.0059C207.378 23.5286 206.877 23.6925 204.719 24.7207C202.115 25.9612 201.887 26.0551 201.141 26.1895C200.808 26.2495 200.498 26.4095 200.452 26.5449C200.385 26.7467 200.594 26.7691 201.611 26.6689L202.852 26.5469L203.621 27.2646C204.044 27.6592 204.467 27.9824 204.562 27.9824C204.656 27.9825 204.878 28.1142 205.057 28.2754C205.397 28.583 205.509 29.5774 205.204 29.5781C205.107 29.5781 205.026 29.7194 205.026 29.8926C205.026 30.6242 204.552 30.9486 203.303 31.0713C202.642 31.1362 201.684 31.2778 201.174 31.3857C200.348 31.5607 200.206 31.6611 199.874 32.2988C199.424 33.1629 198.994 33.7474 197.919 34.9561C196.015 37.0973 195.428 37.9316 195.645 38.1924C195.758 38.3293 195.943 38.4422 196.056 38.4424C196.465 38.4424 198.765 39.6962 200.062 40.627C201.865 41.9196 202.399 42.7366 202.536 44.4082C202.644 45.7224 202.524 46.3875 202.137 46.6338C201.69 46.9178 200.468 46.7759 199.865 46.3701C199.535 46.1475 198.946 45.8166 198.556 45.6348C198.166 45.4529 197.789 45.2158 197.72 45.1084C197.645 44.9939 196.728 44.874 195.504 44.8184L193.414 44.7227L194.038 44.4336C195.878 43.5808 195.293 42.3877 192.88 42.0732C192 41.9586 191.99 41.9637 190.844 42.9639C190.21 43.5168 189.471 44.0834 189.203 44.2236C188.612 44.5331 188.584 44.7582 189.115 44.9268C190.474 45.3578 192.171 46.3658 192.648 47.0244C193.136 47.698 193.156 47.7961 193.041 48.9639L192.92 50.1943L193.345 50.0967C195.004 49.7147 196.736 49.3948 197.472 49.335C198.087 49.2852 198.411 49.1608 198.59 48.9062C198.735 48.6988 199.043 48.5463 199.319 48.5449C200.06 48.5412 200.595 48.3518 200.595 48.0938C200.595 47.4346 201.766 47.7596 203.527 48.9072C205.514 50.2015 206.131 51.9012 205.02 53.0137C204.51 53.5233 204.42 53.5488 203.38 53.4697C202.774 53.4236 202.079 53.4606 201.835 53.5518C201.591 53.6429 200.634 53.7934 199.708 53.8857C197.775 54.0786 193.631 55.1357 192.408 55.748C191.558 56.174 191.488 56.2835 191.293 57.5C191.231 57.8898 191.14 58.3427 191.093 58.5059C191.022 58.7496 191.251 58.8536 192.387 59.0898C197.39 60.1308 200.641 61.0468 202.879 62.0469C203.502 62.3251 204.134 62.5526 204.284 62.5527C204.434 62.5527 205.161 62.8409 205.899 63.1924C206.638 63.5439 207.441 63.9226 207.684 64.0342C209.578 64.9053 213.113 67.4363 214.777 69.1133C216.408 70.7567 217.1 71.7293 217.591 73.0645C218.061 74.3429 218.067 75.0652 217.613 75.8096C217.419 76.1289 217.26 76.4959 217.26 76.625C217.259 77.0664 216.702 77.9773 216.432 77.9775C216.283 77.9775 215.502 77.5382 214.696 77.002C213.892 76.4666 213.164 76.0288 213.077 76.0273C212.807 76.0273 210.826 74.7489 209.728 73.8662C209.144 73.3971 208.575 73.0127 208.465 73.0127C208.353 73.0114 207.644 72.5335 206.888 71.9492C206.131 71.3643 205.413 70.8857 205.293 70.8857C205.173 70.8853 204.774 70.6458 204.406 70.3535C204.038 70.0611 203.63 69.8224 203.498 69.8223C203.367 69.8223 202.879 69.5888 202.414 69.3037C201.949 69.0188 201.079 68.5197 200.479 68.1953C199.879 67.8711 198.585 67.0604 197.604 66.3945C196.623 65.7289 195.747 65.2295 195.657 65.2842C195.568 65.3395 195.293 65.226 195.047 65.0322C194.801 64.8387 194.491 64.6807 194.359 64.6807C194.227 64.6806 193.883 64.4618 193.595 64.1943C193.306 63.9268 192.789 63.5599 192.444 63.3789C192.1 63.1977 191.556 62.7993 191.234 62.4932C190.527 61.8186 190.396 61.9502 190.215 63.5166C190.147 64.108 190.03 64.7512 189.956 64.9463C189.882 65.1413 189.768 66.697 189.702 68.4033C189.593 71.2121 189.491 71.9453 188.876 74.2979C188.678 75.0556 186.981 76.9125 186.486 76.9131C186.153 76.9131 183.398 74.1281 183.397 73.791C183.397 73.7074 183.33 73.5797 183.234 73.4697L183.078 73.3135C182.957 73.1669 182.865 72.8905 182.865 72.6523C182.865 72.2877 182.655 71.9713 182.067 71.4541C181.629 71.0682 181.27 70.6621 181.27 70.5508C181.27 70.44 181.19 70.1908 181.093 69.9971C180.995 69.8036 180.836 69.4866 180.738 69.293C180.641 69.0996 180.561 68.9001 180.561 68.8496C180.561 68.6686 181.16 68.763 181.434 68.9873C181.588 69.1137 182.135 69.3626 182.651 69.54C183.517 69.8377 183.614 69.8403 183.906 69.5762C184.08 69.4186 184.313 69.2901 184.424 69.29C184.797 69.29 185.192 67.4424 185.428 64.5918C185.557 63.0317 185.635 61.7246 185.601 61.6875C185.496 61.5757 184.394 62.5909 183.699 63.4395C182.102 65.389 177.401 69.9216 175.721 71.1318C175.311 71.4267 174.589 72.0109 174.115 72.4297C173.642 72.848 173.123 73.1916 172.963 73.1934C172.62 73.1965 171.593 73.5529 171.043 73.8604C170.83 73.9792 170.458 74.0771 170.216 74.0771C169.974 74.0771 169.549 74.1939 169.273 74.3369C168.117 74.9369 165.137 75.6495 165.137 75.3262C165.137 75.1571 166.012 74.4117 166.61 74.0703C166.873 73.9202 167.786 73.1191 168.639 72.29C170.183 70.789 171.902 69.29 172.078 69.29C172.132 69.2867 173.776 67.6725 175.733 65.7002C178.963 62.4464 180.631 60.6144 180.491 60.4736C180.426 60.4084 179.052 60.8805 178.345 61.2109C175.008 62.7694 174.292 63.085 174.098 63.085C173.973 63.0852 173.671 63.2432 173.427 63.4355C173.057 63.7264 172.768 63.7748 171.725 63.7227C170.634 63.6682 170.342 63.5753 169.509 63.0225C168.947 62.6493 168.318 62.0264 167.993 61.5195C167.688 61.0435 167.279 60.5103 167.085 60.335C166.679 59.9672 166.609 58.9768 166.968 58.6787C167.139 58.5364 167.35 58.5391 167.749 58.6895C168.126 58.8315 168.387 58.8427 168.853 58.7129L169.385 58.5518C169.701 58.4614 169.991 58.395 170.101 58.3906C170.398 58.3791 171.506 58.0214 172.317 57.6748C172.61 57.5499 173.687 57.163 174.71 56.8154C177.26 55.9491 177.788 55.7523 179.319 55.0967C180.051 54.7838 181.995 54.0741 183.639 53.5195C185.404 52.9242 186.694 52.3916 186.791 52.2188C186.972 51.8957 186.882 47.1056 186.689 46.7939C186.495 46.4805 185.935 46.8103 182.59 49.2051C181.609 49.9072 180.413 50.6678 179.931 50.8945C179.449 51.1211 178.735 51.5174 178.345 51.7754C177.955 52.0333 177.037 52.5033 176.306 52.8203C175.575 53.137 174.851 53.5017 174.696 53.6309C174.543 53.7597 174.328 53.8659 174.22 53.8662C174.012 53.8662 175.014 52.6704 176.226 51.4727C176.62 51.0826 177.254 50.3645 177.634 49.877C178.014 49.3894 178.854 48.4717 179.502 47.8379C180.65 46.7139 181.079 46.0878 180.732 46.043C180.369 45.9962 180.281 45.9581 179.816 45.6475C179.011 45.1085 178.082 43.22 178.181 42.3193C178.206 42.0882 178.233 41.7566 178.241 41.583C178.25 41.4094 178.396 41.2149 178.566 41.1504C179.011 40.982 179.256 40.7046 179.565 40.0195C179.715 39.6884 180.16 38.8255 180.554 38.1025C180.948 37.3796 181.239 36.7558 181.2 36.7168C181.073 36.5914 178.044 37.7254 176.105 38.624C175.069 39.1046 173.633 39.7078 172.914 39.9639C172.196 40.22 171.2 40.6601 170.7 40.9424C169.66 41.5301 169.558 41.5448 168.798 41.209C168.491 41.0732 168.099 40.9165 167.929 40.8604C167.758 40.8042 167.619 40.5972 167.619 40.4014C167.619 40.2057 167.419 39.9155 167.176 39.7559C166.932 39.5961 166.732 39.3632 166.732 39.2393C166.734 39.0267 168.333 37.9528 169.953 37.0762C170.898 36.5649 170.876 36.6022 170.578 36.0205C170.039 34.9677 170.029 33.7636 170.545 31.8262C171.102 29.7361 171.847 27.4421 172.052 27.1846C172.297 26.8772 172.612 25.4721 172.612 24.6826C172.612 24.2412 172.719 23.8352 172.866 23.7129C173.024 23.5816 173.059 23.4283 172.959 23.3047C172.871 23.1953 172.744 22.6872 172.675 22.1758C172.55 21.2494 172.552 21.2451 173.035 21.2451C173.335 21.2455 174.137 21.6589 175.129 22.3232C177.014 23.5862 176.993 23.5858 179.412 22.4092C180.292 21.9814 181.757 21.3331 182.667 20.9688L184.322 20.3066L184.222 19.6904C184.115 19.0362 184.491 18.1051 185.275 17.0742C185.866 16.2983 186.734 14.3587 186.865 13.5225C186.959 12.9234 186.905 12.7166 186.547 12.2822C186.31 11.9955 186.066 11.621 186.004 11.4502C185.942 11.2795 185.822 11.1396 185.738 11.1396C185.467 11.1375 183.752 8.89016 183.752 8.53613C183.752 7.93623 184.175 7.57471 184.999 7.46973C185.434 7.41431 185.87 7.30954 185.968 7.23633C186.065 7.16332 186.409 7.04669 186.732 6.97754C187.106 6.89758 187.391 6.69641 187.515 6.4248C187.674 6.07526 187.84 5.99911 188.435 6ZM193.252 32.9365C194.095 32.0462 193.931 32.0466 191.021 32.9492C189.803 33.3271 188.675 33.6414 188.515 33.6465C188.009 33.6628 186.469 35.1904 186.348 35.7959C186.287 36.1005 186.037 36.5877 185.793 36.8779C185.549 37.1682 185.349 37.4903 185.349 37.5938C185.352 37.8423 189.001 37.6036 189.543 37.3193C189.76 37.2051 190.587 36.2746 191.381 35.251C192.174 34.2275 193.016 33.1861 193.252 32.9365ZM186.592 24.9238C186.59 24.7439 186.293 24.78 185.349 25.0762C184.91 25.2137 184.447 25.286 184.319 25.2373C184.191 25.1888 183.513 25.5334 182.812 26.0029C181.16 27.1099 181.095 27.1331 179.323 27.2568L177.819 27.3613L177.718 27.9883C177.662 28.3329 177.562 28.7028 177.495 28.8105C177.429 28.9186 177.253 29.5939 177.104 30.3115C176.956 31.0293 176.684 31.9752 176.501 32.4141C175.96 33.7102 175.875 34.3445 176.222 34.4785C176.572 34.6129 178.52 34.0611 181.005 33.124C181.979 32.7564 182.981 32.409 183.23 32.3516C183.594 32.2681 183.86 31.8899 184.583 30.4248C185.324 28.923 186.597 25.4363 186.592 24.9238ZM205.205 18.2129C205.205 18.0527 204.796 17.9906 204.656 18.1299C204.614 18.1716 203.823 18.3667 202.898 18.5625C200.542 19.0612 198.47 19.6941 196.417 20.543C195.449 20.9431 194.306 21.3845 193.878 21.5234C193.45 21.6622 193.012 21.8454 192.903 21.9307C192.795 22.0161 192.387 22.1857 191.997 22.3076C191.607 22.4298 191.212 22.5998 191.119 22.6855C191.026 22.771 190.728 22.8408 190.455 22.8408C189.871 22.8408 189.855 22.9016 190.281 23.5225C190.459 23.7813 190.785 24.4968 191.005 25.1123C191.337 26.0441 191.371 26.3261 191.207 26.7959C191.038 27.2792 190.245 28.5935 189.955 28.8691C189.904 28.918 189.721 29.1785 189.549 29.4482C189.079 30.1864 189.472 30.2165 191.301 29.583C192.709 29.0948 193.554 28.887 195.403 28.5732C195.717 28.5201 196.066 28.3655 196.179 28.2295C196.292 28.0936 196.474 27.9815 196.584 27.9805C196.963 27.9775 198.151 26.6828 198.48 25.915C198.857 25.0363 199.336 24.9019 199.799 25.5449L200.086 25.9434L200.622 25.3232C200.917 24.982 201.468 24.2638 201.847 23.7275C202.226 23.1912 202.762 22.433 203.038 22.043C203.652 21.1743 205.203 18.434 205.205 18.2129Z" fill="#121212"/>
<path fill-rule="evenodd" clip-rule="evenodd" d="M185.21 40.102C184.628 40.1618 184.409 40.2975 184.156 40.7563C183.98 41.0745 183.642 41.628 183.405 41.9862C182.853 42.8189 182.862 43 183.454 43C183.769 43 184.324 42.6462 185.063 41.974C185.683 41.4099 186.372 40.8516 186.595 40.7335C186.818 40.6155 187 40.3938 187 40.241C187 39.9583 186.779 39.9412 185.21 40.102Z" fill="#121212"/>
<path fill-rule="evenodd" clip-rule="evenodd" d="M138.274 40.3693C137.747 40.9633 137.363 41.6298 137.12 42.3705C136.868 43.1402 137.002 43.1967 137.618 42.5805C137.858 42.3399 138.187 42.0795 138.349 42.002C138.511 41.9246 138.738 41.7238 138.852 41.5559C139.034 41.2908 139.042 41.166 138.911 40.6059C138.734 39.8416 138.74 39.844 138.274 40.3693Z" fill="#121212"/>
<path d="M144.437 6.17578C145.181 6.17648 147.413 8.1253 147.413 8.77441C147.413 8.99191 147.577 9.28509 147.778 9.42578C148.373 9.84305 148.454 11.4181 147.935 12.4912C147.454 13.4837 147.192 14.8659 147.485 14.8574C147.592 14.8544 147.829 14.7376 148.013 14.5986C148.196 14.4595 148.915 14.1771 149.608 13.9707C150.302 13.7643 151.088 13.5125 151.354 13.4111C151.954 13.1832 152.622 13.336 153.481 13.8984C153.845 14.1361 154.214 14.3311 154.301 14.3311C155.159 14.3314 157.695 16.3722 157.695 17.0625C157.695 17.399 156.618 18.2298 156.172 18.2373C155.986 18.2403 155.679 18.3598 155.49 18.5029C155.301 18.646 154.956 18.7627 154.725 18.7627C154.493 18.7627 154.129 18.8564 153.916 18.9707C153.703 19.0851 153.017 19.2858 152.393 19.417C151.767 19.5484 150.73 19.9391 150.088 20.2852C149.445 20.6312 148.422 21.0719 147.814 21.2637C147.207 21.4556 146.64 21.7488 146.555 21.916C146.316 22.3849 145.598 25.5179 145.705 25.625C145.758 25.6769 146.542 25.4793 147.448 25.1865C149.133 24.6419 151.116 24.3135 152.169 24.4043C152.493 24.432 153.032 24.3643 153.366 24.2539C153.931 24.0674 154.035 24.0982 154.815 24.6719C155.739 25.3503 157.815 27.4454 158.293 28.1826C158.477 28.4666 158.628 29.1489 158.68 29.9258C158.755 31.0652 158.695 31.3855 158.132 32.916C157.785 33.8588 157.192 35.2688 156.815 36.0488C156.439 36.8289 155.883 38.009 155.58 38.6709C155.229 39.4393 154.715 40.1755 154.159 40.709C153.68 41.1683 153.235 41.7584 153.171 42.0195C153.096 42.3239 152.838 42.5971 152.452 42.7803C152.121 42.9374 151.77 43.2152 151.672 43.3975C151.32 44.0552 150.243 44.5415 149.034 44.5889C148.192 44.6218 147.795 44.7246 147.52 44.9805C147.149 45.3246 147.145 45.3244 146.828 44.8984C146.522 44.4863 146.522 44.4693 146.828 44.4668C147.026 44.465 147.072 44.4146 146.949 44.334C146.84 44.2623 146.698 44.033 146.633 43.8242C146.479 43.3312 145.886 43.1855 145.108 43.4492C143.859 43.8728 143.57 44.1959 143.364 45.3984C142.891 48.1716 142.869 48.0909 143.92 47.541C144.232 47.3777 145.046 47.0655 145.729 46.8467C146.411 46.6279 146.811 46.4426 146.618 46.4346C146.092 46.4129 147.449 45.5336 148.009 45.5332C148.25 45.5332 148.475 45.4498 148.509 45.3477C148.543 45.2458 148.955 45.125 149.425 45.0791C149.895 45.033 150.523 44.8695 150.82 44.7158C151.235 44.5014 151.391 44.4863 151.494 44.6523C151.598 44.8199 151.802 44.8077 152.401 44.5977C152.827 44.4484 153.334 44.3243 153.529 44.3213C154.147 44.3119 155.281 44.0088 155.894 43.6895C156.444 43.4024 156.528 43.4012 157.093 43.6689C157.426 43.8273 157.775 43.9089 157.868 43.8516C158.075 43.7234 159.404 44.5802 159.538 44.9277C159.591 45.0658 159.754 45.1786 159.899 45.1787C160.265 45.1787 160.532 45.7401 160.532 46.5088C160.532 47.376 160.256 47.8379 159.738 47.8379C159.504 47.8379 159.275 47.8985 159.229 47.9717C159.155 48.0904 158.471 48.0958 156.188 47.9961C155.438 47.9633 151.095 48.3535 150.982 48.4639C150.947 48.4995 151.476 49.0831 152.158 49.7598L153.398 50.9893L154.173 50.8203C155.211 50.5941 157.382 50.1799 158.582 49.9785C159.118 49.8885 159.804 49.7258 160.107 49.6162C160.41 49.5068 160.73 49.4365 160.817 49.4609C161.13 49.5481 162.305 49.2367 162.305 49.0664C162.305 48.9674 162.782 48.9086 163.413 48.9297C164.382 48.9618 164.602 49.0375 165.166 49.5361C165.521 49.8498 165.963 50.155 166.148 50.2139C166.879 50.4463 168.495 52.8592 168.506 53.7334C168.508 53.904 168.333 54.2197 168.117 54.4355C167.901 54.6515 167.722 54.9909 167.719 55.1895C167.71 55.6966 166.564 56.2266 165.616 56.1621C164.02 56.0534 162.134 56.1022 160.364 56.2988C159.283 56.419 158.399 56.4401 158.237 56.3496C157.995 56.214 157.994 56.1844 158.228 56.1113C158.603 55.9935 160.158 55.4779 160.843 55.2441C161.159 55.136 161.419 54.9322 161.419 54.791C161.419 54.3731 157.236 54.5924 155.753 55.0879C155.123 55.2981 154.555 55.5553 154.491 55.6592C154.427 55.764 154.36 56.9139 154.343 58.2148C154.29 62.1911 153.395 69.3463 152.719 71.2021C152.531 71.7175 152.377 72.4047 152.377 72.7295C152.377 73.0538 152.217 73.5224 152.022 73.7705C151.827 74.0184 151.668 74.3988 151.668 74.6152C151.668 74.8321 151.276 75.5372 150.797 76.1826C150.092 77.1332 149.687 77.4833 148.67 78.0215C147.979 78.3872 147.211 78.6865 146.964 78.6865C146.406 78.6864 145.64 78.2031 145.64 77.8516C145.639 77.5154 145.116 76.8314 143.734 75.3633C143.125 74.7157 142.626 74.1413 142.625 74.0869C142.623 74.0319 142.384 73.8521 142.093 73.6865C141.801 73.5204 141.562 73.252 141.562 73.0908C141.562 72.9295 141.34 72.5074 141.069 72.1523C140.424 71.3069 140.055 70.5622 140.205 70.4111C140.272 70.3448 140.607 70.4241 140.95 70.5879C141.293 70.7514 141.761 70.8856 141.989 70.8857C142.189 70.8857 142.434 70.9779 142.574 71.0996L142.689 71.2148C142.867 71.3706 143.275 71.6096 143.669 71.7842C145.599 72.6401 146.687 71.4696 147.486 67.6777C147.639 66.9553 147.884 65.9727 148.031 65.4941C148.179 65.0155 148.3 64.2581 148.301 63.8105C148.301 63.3629 148.376 62.5177 148.466 61.9326C148.556 61.3476 148.679 60.2596 148.738 59.5146C148.798 58.7697 148.911 57.7492 148.99 57.248C149.069 56.747 149.076 56.3014 149.006 56.2578C148.934 56.2146 148.208 56.4257 147.392 56.7266C146.574 57.0279 145.427 57.4141 144.842 57.585C143.718 57.913 141.174 58.963 138.981 60.0039C138.259 60.3468 137.587 60.5779 137.487 60.5166C137.035 60.2367 137.371 61.0323 137.884 61.4551C140.568 63.6661 141.974 65.5337 142.201 67.1875C142.295 67.8696 142.246 68.052 141.84 68.5352C141.581 68.8423 141.194 69.1472 140.979 69.2129C140.763 69.2783 140.468 69.4368 140.321 69.5645C139.92 69.9142 138.4 70.3862 138.041 70.2725C137.452 70.0856 136.639 69.1121 136.367 68.2686C136.218 67.806 136.042 66.8698 135.975 66.1875C135.826 64.6827 135.438 63.3928 134.873 62.5303C134.404 61.8133 134.537 61.8167 132.078 62.457C131.501 62.6075 130.852 62.7304 130.636 62.7305C130.133 62.7305 129.103 61.8716 129.226 61.5537C129.278 61.4172 129.205 61.3125 129.058 61.3125C128.681 61.3122 128.739 60.9027 129.152 60.6445C129.347 60.5229 129.507 60.3064 129.507 60.1641C129.507 59.968 129.345 60.0102 128.842 60.3389C128.476 60.5777 128.098 60.8548 128 60.9551C127.903 61.0551 127.546 61.3957 127.209 61.7119C126.872 62.028 126.325 62.561 125.994 62.8955C125.51 63.3849 125.199 63.5304 124.401 63.6387C123.541 63.7553 123.291 63.7148 122.514 63.333C121.185 62.6806 120.288 62.0019 120.288 61.6494C120.288 61.4777 120.047 61.149 119.753 60.9189C119.283 60.5514 119.204 60.3576 119.108 59.334L119 58.168L120.339 57.5244C121.844 56.8005 121.981 56.771 122.125 57.1455C122.276 57.538 122.78 57.4744 124.316 56.8672C125.799 56.2816 127.076 55.6035 127.646 55.0996C127.841 54.9268 128.918 54.3128 130.039 53.7344C131.16 53.1558 132.396 52.5116 132.786 52.3037C134.111 51.5977 135.621 50.9071 136.332 50.6797C137.301 50.3699 139.198 49.4545 139.4 49.1992C139.625 48.9147 139.845 45.7109 139.641 45.7109C139.376 45.7114 137.819 46.6153 136.805 47.3574C136.285 47.7377 135.623 48.1162 135.334 48.1992C134.577 48.4162 133.543 47.8977 132.234 46.6436C131.1 45.5564 130.522 44.5276 130.303 43.2051C130.232 42.7797 130.099 42.2877 130.007 42.1113C129.914 41.9353 129.805 41.3365 129.765 40.7812C129.724 40.226 129.642 39.2308 129.581 38.5703C129.466 37.3205 129.701 35.5513 130.157 34.2402C130.3 33.8307 130.444 32.9531 130.479 32.29C130.564 30.6378 130.914 29.6382 131.555 29.2158C132.352 28.6904 132.917 28.7639 133.306 29.4443C133.68 30.1001 134.47 30.9961 134.674 30.9961C134.75 30.9952 135.233 30.7424 135.748 30.4336C136.264 30.1242 137.086 29.6573 137.573 29.3965C138.061 29.1357 138.928 28.6351 139.5 28.2832C140.072 27.9317 140.63 27.6132 140.74 27.5762C140.93 27.5127 141.17 24.437 140.984 24.4365C140.834 24.4365 137.652 25.7943 134.702 27.1172C133.25 27.7683 132.866 27.6034 130.26 25.2041C129.553 24.5535 128.975 23.9242 128.975 23.8066C128.974 23.6891 128.855 23.4944 128.709 23.373C128.563 23.2516 128.443 22.9986 128.443 22.8115C128.443 22.6244 128.274 22.2429 128.067 21.9639C127.861 21.6845 127.743 21.3738 127.805 21.2734C127.867 21.1729 128.335 20.9612 128.845 20.8027C129.355 20.6443 129.871 20.4738 129.993 20.4229C130.118 20.3706 130.289 20.5291 130.388 20.7881C130.59 21.319 130.669 21.33 131.778 20.9902C132.235 20.8502 133.188 20.5648 133.895 20.3555C134.601 20.1462 135.179 19.9066 135.18 19.8232C135.18 19.7399 135.32 19.6763 135.49 19.6816C135.661 19.6869 136.279 19.5204 136.864 19.3125C137.449 19.1045 138.686 18.6896 139.612 18.3896C140.539 18.0897 141.443 17.7019 141.623 17.5283C141.818 17.3405 142.011 16.7908 142.1 16.1709C142.182 15.5977 142.336 14.7698 142.441 14.3311C142.547 13.8923 142.669 13.0746 142.712 12.5137C142.794 11.4462 143.746 7.3461 144.083 6.60547C144.191 6.36932 144.35 6.17578 144.437 6.17578ZM139.388 54.2227C139.488 53.0358 139.389 52.9521 138.46 53.4365C136.315 54.5546 133.228 56.5193 132.242 57.3926C131.845 57.7446 131.142 58.3401 130.68 58.7158C130.217 59.0915 129.886 59.4454 129.942 59.502C129.999 59.558 130.14 59.5096 130.255 59.3945C130.37 59.2793 130.583 59.1857 130.728 59.1855C130.872 59.1854 131.156 59.0352 131.357 58.8525C131.559 58.6697 132.202 58.348 132.787 58.1377C133.372 57.9275 134.09 57.6437 134.383 57.5068C136.119 56.6943 137.824 55.9988 138.314 55.9033C139.094 55.7519 139.284 55.4545 139.388 54.2227ZM148.266 50.1348C147.879 49.6123 147.815 49.5891 147.147 49.7246C144.566 50.2489 142.786 50.9962 142.459 51.6934C142.333 51.9617 142.164 52.3141 142.082 52.4766C141.886 52.8666 141.663 54.5752 141.809 54.5752C141.872 54.5747 142.061 54.5029 142.229 54.415C142.797 54.1191 144.708 53.335 144.861 53.335C144.946 53.3346 145.414 53.1827 145.902 52.998C147.142 52.5298 148.288 52.2887 148.402 52.4717C148.653 52.8766 148.786 52.5321 148.723 51.6416C148.677 50.9942 148.52 50.4793 148.266 50.1348ZM140.549 38.2207C140.717 37.7736 140.192 37.8441 139.454 38.3682C139.123 38.6033 138.72 38.7964 138.559 38.7969C138.398 38.7969 138.183 38.8796 138.082 38.9805C137.959 39.1033 137.746 39.1069 137.442 38.9912C137.192 38.8961 136.76 38.879 136.482 38.9531C135.939 39.0985 135.951 39.0385 136.035 41.1455C136.056 41.6569 136.134 42.1732 136.21 42.293C136.304 42.4398 137 41.8745 138.39 40.5205C139.512 39.4266 140.484 38.3916 140.549 38.2207ZM151.871 27.3936C151.808 27.3631 151.277 27.4022 150.692 27.4814C150.107 27.5607 149.15 27.8136 148.565 28.043C147.981 28.2721 147.12 28.5625 146.654 28.6885C146.19 28.8141 145.767 28.9861 145.714 29.0703C145.662 29.1544 145.467 29.2235 145.281 29.2236C144.812 29.2236 144.637 29.6424 144.492 31.1094L144.367 32.374L145.575 32.3818C146.271 32.3858 146.808 32.4688 146.847 32.5781C146.882 32.6828 147.044 32.769 147.206 32.7695C147.708 32.7715 148.458 33.5296 148.514 34.0889C148.559 34.549 148.443 34.6922 147.524 35.3047C146.952 35.6864 145.998 36.2495 145.404 36.5566C144.192 37.1845 144.09 37.3788 144.062 39.1104C144.045 40.1774 144.06 40.2182 144.443 40.124C144.663 40.0701 145.313 40.0016 145.888 39.9717C146.754 39.9265 146.985 39.8441 147.238 39.4902C147.837 38.6536 150.072 33.9401 150.072 33.5146C150.073 33.4121 150.243 32.944 150.451 32.4736C150.778 31.7346 151.259 30.1862 151.832 28.0254C151.916 27.709 151.933 27.4254 151.871 27.3936ZM140.721 31.9072C140.648 31.9207 140 32.2354 139.283 32.6064C137.944 33.2988 137.197 33.5473 136.421 33.5596C135.998 33.5661 135.976 33.6221 135.926 34.7637C135.887 35.653 135.932 35.9598 136.103 35.958C136.418 35.954 137.343 35.597 138.814 34.9102C139.497 34.5919 140.235 34.2607 140.454 34.1748C140.806 34.0371 140.854 33.8936 140.854 32.9512C140.853 32.3658 140.794 31.8972 140.721 31.9072Z" fill="#121212"/>
<path d="M167.88 78.0861C168.525 77.8837 169.9 78.049 171.074 78.4708C172.237 78.8889 172.715 79.4315 173.516 81.2452L173.957 82.2423C174.815 82.5398 176.066 83.0242 176.306 83.1769C177.343 83.836 178.207 85.2945 177.733 85.5851C177.635 85.6453 177.502 85.9038 177.437 86.1593C177.372 86.4151 177.229 86.6967 177.119 86.7843C176.915 86.9462 175.703 87.4646 173.355 88.3946C171.977 88.9408 171.518 89.2237 172.013 89.2237C172.457 89.2241 172.585 90.0449 172.275 90.8995C171.985 91.7005 172.114 91.8329 172.66 91.2921C173.217 90.74 174.156 90.8455 175.725 91.6368C177.34 92.4511 177.519 92.5866 177.919 93.3009C178.203 93.8091 178.349 94.5773 178.118 94.3478C178.06 94.2906 177.805 94.3257 177.552 94.4249C177.299 94.5244 176.466 94.6722 175.702 94.754C173.858 94.9515 170.909 95.709 170.536 96.0802C170.372 96.2435 170.204 96.6481 170.162 96.9796C170.119 97.3114 170.043 97.7768 169.993 98.0138C169.708 99.3491 169.709 99.5646 170.003 99.5646C170.251 99.5646 170.245 99.5994 169.958 99.8077C169.54 100.111 172.155 99.4111 174.182 98.6778C174.972 98.3924 175.715 98.1989 175.834 98.2472C175.962 98.2999 175.891 98.3829 175.658 98.4532C175.443 98.518 175.268 98.6391 175.267 98.7228C175.267 98.8064 175.137 98.8751 174.977 98.8751C174.818 98.8751 174.722 98.9096 174.764 98.9513C174.938 99.1185 180.38 98.1716 180.658 97.9259C181.063 97.5623 181.24 97.5938 182.676 98.2882C184.211 99.0298 185.626 100.239 185.847 100.998C185.935 101.3 186.068 101.694 186.142 101.876C186.237 102.108 186.218 102.17 186.075 102.082C185.94 101.999 185.872 102.106 185.872 102.399C185.872 102.641 185.719 102.99 185.534 103.174C184.878 103.825 183.867 103.824 179.787 103.169C179.154 103.068 178.006 103.039 177.179 103.103C175.186 103.257 174.98 103.283 173.877 103.528C173.351 103.645 172.725 103.768 172.486 103.799C171.537 103.924 170.958 104.052 169.792 104.398C169.122 104.596 168.457 104.779 168.313 104.805C167.804 104.896 166.485 105.315 166.314 105.439C166.218 105.508 165.827 105.613 165.445 105.672C164.593 105.804 162.315 106.546 161.664 106.904C161.401 107.049 161.108 107.12 161.012 107.062C160.917 107.003 160.839 107.038 160.839 107.138C160.838 107.238 160.654 107.32 160.429 107.32C160.204 107.321 159.774 107.554 159.473 107.839C159.173 108.124 158.927 108.284 158.926 108.196C158.926 108.108 157.655 108.465 156.101 108.991C152.714 110.138 151.798 110.246 150.674 109.623C150.242 109.383 149.887 109.116 149.886 109.029C149.886 108.943 149.787 108.871 149.666 108.871C149.441 108.871 148.958 108.071 148.756 107.363C148.696 107.15 148.539 106.976 148.408 106.976C148.255 106.976 148.182 106.806 148.206 106.504C148.262 105.784 148.942 105.619 149.92 106.088C150.344 106.292 150.804 106.456 150.941 106.453C151.706 106.438 162.963 102.335 163.383 101.918C163.576 101.725 163.997 100.196 164.244 98.7892C164.362 98.1132 164.358 98.1058 164.022 98.4015C163.834 98.5673 163.553 98.7032 163.399 98.7032C163.245 98.7032 163.077 98.7697 163.027 98.8507C162.975 98.932 162.443 99.168 161.843 99.3751C161.243 99.5824 160.617 99.8246 160.453 99.9142C159.433 100.471 157.575 100.684 156.599 100.356C155.474 99.9766 155.032 99.6725 153.58 98.2775C152.886 97.6109 152.049 96.8333 151.72 96.5489C150.994 95.9214 150.846 95.4844 151.281 95.254C151.512 95.1312 151.671 95.1547 151.856 95.338C151.997 95.4774 152.413 95.6382 152.781 95.6954C153.765 95.8483 158.263 95.3315 160.432 94.8165C161.468 94.5705 162.464 94.3385 162.644 94.3009C163.28 94.1682 164.751 93.7067 164.95 93.5773C165.109 93.4732 165.532 91.8095 165.532 91.2843C165.532 91.2199 165.188 91.1198 164.768 91.0626C163.003 90.8227 160.597 89.3231 159.679 87.8907C158.955 86.7596 158.915 86.6849 158.841 86.3058C158.744 85.8017 159.098 85.6189 160.517 85.4405C162.367 85.2081 162.771 85.1264 163.633 84.8175C164.056 84.666 164.83 84.4287 165.353 84.2902C165.876 84.1516 166.43 83.9259 166.584 83.7882C166.666 83.7148 166.837 83.6381 167.045 83.5763C167.234 82.5307 166.906 81.952 165.859 81.3917C165.419 81.1563 165.033 80.8808 165.002 80.7794C164.971 80.6773 165.259 80.2473 165.641 79.8234C166.023 79.4004 166.337 79.0125 166.34 78.9591C166.344 78.822 167.347 78.2533 167.88 78.0861Z" fill="#5DB22B"/>
</svg>
