<svg width="240" height="160" viewBox="0 0 240 160" fill="none" xmlns="http://www.w3.org/2000/svg">
<path fill-rule="evenodd" clip-rule="evenodd" d="M206.635 83.9215C206.355 84.01 205.868 84.1621 205.554 84.2597C204.888 84.466 204.816 84.739 205.375 84.9347C205.591 85.0102 205.751 85.204 205.729 85.3651C205.64 86.0262 206.094 86.6859 206.792 86.9073C207.199 87.0369 207.503 87.2395 207.466 87.3574C207.428 87.4752 207.77 87.8982 208.225 88.2974C208.679 88.6965 209.052 89.1295 209.052 89.2598C209.052 89.3899 209.624 90.0319 210.324 90.6863C211.023 91.3407 211.596 91.9635 211.596 92.0701C211.596 92.1768 211.694 92.2642 211.815 92.2642C211.936 92.2642 212.423 92.5757 212.896 92.9568C213.37 93.3376 214.244 93.9317 214.838 94.2771C215.432 94.6225 215.985 95.0991 216.068 95.3362C216.23 95.8023 217.109 95.7889 217.001 95.3218C216.926 94.9934 217.859 94.9475 218.077 95.269C218.345 95.6647 220.021 95.9743 220.536 95.7235C221.237 95.3814 221.15 93.6577 220.233 89.7144C219.922 88.3753 219.582 87.9947 217.386 86.5304C216.042 85.6342 210.556 83.998 208.686 83.9354C207.996 83.9124 207.366 83.8638 207.287 83.8271C207.208 83.7905 206.915 83.8329 206.635 83.9215Z" fill="#FFA53F"/>
<path fill-rule="evenodd" clip-rule="evenodd" d="M22.1345 84.8602C21.7951 84.9741 21.3691 85.2581 21.1883 85.4911C20.9116 85.847 19.3232 86.3443 18.7812 86.2447C18.693 86.2284 18.4171 86.4183 18.1679 86.6666C17.7318 87.1014 17.7353 87.1378 18.2647 87.6459C18.567 87.9361 18.8144 88.3134 18.8144 88.4845C18.8144 88.6554 18.979 88.9591 19.1802 89.1595C19.5912 89.5691 19.6883 91.0301 19.4629 93.4125C19.3796 94.2944 19.3138 96.3849 19.3171 98.0582C19.3215 100.3 19.2394 101.122 19.0052 101.184C18.8304 101.23 17.7358 101.54 16.5727 101.872C12.4474 103.052 8.48843 103.373 6.49487 102.69C5.89258 102.483 5.69165 102.511 5.32002 102.852C4.53255 103.573 5.1864 104.827 7.41443 106.87C8.47929 107.846 9.46997 108.645 9.61604 108.645C9.76184 108.645 9.9229 108.758 9.97345 108.895C10.0243 109.032 10.6822 109.288 11.4353 109.465C12.6404 109.747 12.8988 109.742 13.5869 109.429C14.4839 109.021 17.7666 107.958 18.1296 107.958C18.5165 107.958 18.0051 114.291 17.5911 114.628C17.3322 114.838 13.5191 115.718 12.2368 115.863C11.6231 115.932 11.0228 116.044 10.9032 116.11C10.4942 116.338 10.6852 117.243 11.3208 118.086C11.6701 118.55 11.9558 119.013 11.9558 119.115C11.9558 119.217 12.2416 119.579 12.5909 119.919C12.9402 120.259 13.2259 120.646 13.2259 120.779C13.2259 120.912 13.5973 121.227 14.0515 121.479C14.9701 121.987 15.7179 121.93 17.4173 121.221C18.5962 120.73 20.3891 120.131 21.4817 119.864C21.9008 119.762 23.0439 119.463 24.0219 119.201C24.9999 118.938 26.3716 118.679 27.0701 118.625C29.6162 118.426 31.3476 118.222 31.7446 118.074C32.5557 117.771 34.2907 116.541 34.3001 116.262C34.3054 116.104 34.4241 115.975 34.5638 115.975C34.9009 115.975 34.8884 114.394 34.5442 113.503C34.2143 112.65 32.8209 111.645 31.5534 111.346C29.6431 110.895 29.2293 110.87 29.2293 111.206C29.2293 111.497 28.8254 111.618 25.419 112.344C25.1111 112.409 25.0537 112.204 25.1198 111.28C25.2183 109.901 25.8519 106.192 26.0342 105.925C26.1059 105.821 26.654 105.582 27.2523 105.395C27.8507 105.208 28.7403 104.927 29.2293 104.771C29.7318 104.611 32.0861 104.431 34.6448 104.357C38.2964 104.252 39.2589 104.155 39.6247 103.859C40.2242 103.373 41.2852 100.778 40.9283 100.67C40.781 100.626 40.6603 100.444 40.6603 100.265C40.6603 100.087 40.546 99.9409 40.4063 99.9409C40.2666 99.9409 40.1523 99.7943 40.1523 99.6149C40.1523 99.0292 38.9238 97.9544 37.1716 97.0068C34.7784 95.7126 33.4491 95.2707 32.5951 95.486C32.0731 95.6175 32.0091 95.686 32.3411 95.7566C32.5855 95.8088 32.7856 95.9542 32.7856 96.08C32.7856 96.5083 32.1524 96.8563 30.6265 97.2659C29.7882 97.4908 28.8737 97.7595 28.5943 97.863C27.0933 98.4192 26.6459 98.5665 26.4585 98.5665C26.2166 98.5665 26.2441 98.3935 27.1999 93.8707C28.3098 88.6192 28.2943 89.1199 27.3737 88.2309C26.9274 87.8 26.2314 87.0892 25.8275 86.6513C24.7542 85.4886 22.9169 84.5975 22.1345 84.8602Z" fill="#ADE838"/>
<path fill-rule="evenodd" clip-rule="evenodd" d="M102.149 85.4922C102.022 85.746 101.918 86.205 101.918 86.5122C101.918 86.8197 101.807 87.1238 101.672 87.1884C101.381 87.327 100.154 90.4168 99.9657 91.4846C99.8935 91.894 99.757 92.229 99.6626 92.229C99.5679 92.229 99.4906 92.4171 99.4906 92.647C99.4906 92.8768 99.4126 93.164 99.3174 93.2855C99.222 93.4067 98.9791 94.0285 98.7776 94.667C98.3852 95.9109 97.7191 97.7612 96.854 100.011C96.5586 100.78 96.3169 101.478 96.3169 101.563C96.3169 101.69 95 105.345 93.782 108.599C93.6386 108.982 93.0931 110.601 92.5696 112.197C92.0463 113.794 91.2916 116.063 90.8922 117.24C90.4929 118.418 90.1126 119.647 90.0471 119.971C89.9816 120.295 89.8533 120.618 89.762 120.688C89.6707 120.759 89.596 120.972 89.596 121.163C89.596 121.354 89.4403 121.949 89.2501 122.485C88.6994 124.036 88.601 124.375 88.6398 124.587C88.6598 124.697 88.5061 125.223 88.2982 125.758C87.9502 126.652 87.2477 128.973 86.1341 132.909C85.6784 134.52 85.1224 136.249 84.5448 137.855C84.3609 138.365 84.1068 139.228 83.98 139.77C83.8533 140.313 83.6739 140.757 83.5815 140.757C83.4889 140.757 83.4646 140.86 83.5273 140.987C83.59 141.113 83.5157 141.557 83.3621 141.973C82.867 143.315 82.8832 145.797 83.3886 146.031C83.5682 146.115 83.8251 146.373 83.9593 146.605C84.4554 147.462 86.0407 146.829 86.4008 145.629C86.5153 145.248 86.7078 144.597 86.8286 144.182C86.9493 143.767 87.297 142.748 87.6011 141.918C87.9052 141.088 88.1565 140.278 88.1595 140.118C88.1623 139.959 88.2347 139.828 88.3204 139.828C88.4059 139.828 88.4759 139.573 88.4759 139.261C88.4759 138.95 88.5506 138.637 88.6419 138.567C88.7332 138.497 88.8614 138.174 88.9268 137.85C88.9921 137.527 89.2441 136.716 89.4866 136.049C89.7292 135.382 90.1178 134.157 90.3503 133.327C90.5827 132.497 90.9579 131.295 91.184 130.657C91.6336 129.387 92.2887 127.01 92.2401 126.826C92.2235 126.762 92.1257 126.696 92.023 126.68C91.9203 126.664 91.784 126.638 91.7202 126.622C91.6562 126.606 91.7118 126.432 91.8436 126.234C92.0284 125.957 92.1164 125.941 92.2271 126.164C92.3256 126.362 92.4468 126.238 92.6131 125.769C92.7464 125.392 92.9311 125.017 93.0233 124.936C93.1155 124.854 93.1426 124.69 93.0834 124.571C93.0242 124.452 93.3046 123.526 93.7062 122.514C94.108 121.501 94.4397 120.489 94.4433 120.264C94.447 120.04 94.6561 119.361 94.9081 118.755C95.622 117.039 96.3169 115.082 96.3169 114.787C96.3169 114.64 96.4009 114.519 96.5036 114.519C96.6063 114.519 96.6903 114.336 96.6903 114.112C96.6903 113.888 96.9914 112.922 97.3594 111.965C97.7273 111.007 98.2669 109.597 98.5585 108.831C98.8499 108.064 99.7568 105.714 100.574 103.606C101.391 101.499 102.325 98.9767 102.651 98.0008C102.976 97.0249 103.532 95.7191 103.887 95.0991C104.241 94.4792 104.531 93.7886 104.531 93.5648C104.531 93.341 104.618 93.1578 104.724 93.1578C104.927 93.1578 105.687 91.6889 105.801 91.0776C105.837 90.8809 105.911 90.1451 105.964 89.4427C106.054 88.2727 106.009 88.0681 105.425 87.0047C104.439 85.2106 102.695 84.4053 102.149 85.4922Z" fill="white"/>
<path fill-rule="evenodd" clip-rule="evenodd" d="M69.2542 93.2412C69.1032 93.4841 68.4966 93.795 67.9063 93.9318C67.3156 94.0688 66.6425 94.2625 66.4106 94.3626C65.791 94.6293 64.8508 94.9483 63.3797 95.3908C62.6623 95.6065 61.9579 95.8594 61.8144 95.9524C61.6709 96.0456 59.3817 96.8546 56.7272 97.7502C51.712 99.4422 49.7997 99.8757 48.7985 99.548C48.4742 99.4417 47.8069 99.4278 47.3156 99.517C46.5233 99.6608 46.4315 99.7513 46.504 100.319C46.6413 101.394 49.0304 104.032 49.8673 104.032C50.0429 104.032 50.31 104.23 50.4603 104.472C50.6108 104.714 51.1725 105.088 51.7089 105.302C52.245 105.517 52.754 105.781 52.8401 105.888C52.9262 105.995 54.2958 106.049 55.8838 106.006L58.7709 105.93L59.1933 106.545C59.6345 107.188 59.6303 107.341 59.054 111.669C58.9139 112.719 58.6836 114.691 58.5419 116.05C58.4002 117.409 58.1133 119.885 57.9043 121.553C57.6951 123.221 57.4806 125.193 57.4279 125.934C57.375 126.675 57.172 127.963 56.9769 128.796C56.6281 130.285 56.6059 130.313 55.6962 130.432C55.1872 130.499 54.0075 130.748 53.0749 130.985C49.1465 131.984 47.1703 132.419 45.4527 132.661C44.5529 132.788 44.1772 132.956 44.0551 133.287C43.9633 133.536 43.9889 133.803 44.1117 133.88C44.4626 134.101 44.9875 134.991 44.9875 135.366C44.9875 135.553 45.1049 135.706 45.2484 135.706C45.3919 135.706 45.5093 135.899 45.5093 136.136C45.5093 136.376 46.0008 136.897 46.618 137.312C47.2277 137.722 47.8818 138.186 48.0712 138.342C48.7784 138.924 50.5161 138.977 51.6692 138.45C52.3916 138.12 57.7639 136.832 58.8205 136.735C59.3193 136.689 60.1001 136.549 60.5556 136.424C61.0111 136.298 61.4319 136.237 61.4906 136.288C61.5493 136.338 62.7614 136.229 64.1842 136.044C67.3691 135.632 71.1602 135.595 75.7358 135.933C77.6533 136.075 79.473 136.134 79.7795 136.066C80.086 135.997 80.6996 135.645 81.1426 135.284C81.8232 134.73 81.9555 134.446 81.9965 133.454C82.0586 131.941 81.3083 130.806 79.1017 129.078C77.1102 127.518 76.3721 127.221 75.878 127.782C75.6852 128.001 75.5235 128.118 75.519 128.042C75.5143 127.966 75.0494 127.976 74.4857 128.065C73.9219 128.154 73.3117 128.147 73.1301 128.051C72.9483 127.954 72.6086 127.963 72.3754 128.07C72.1422 128.178 70.9275 128.319 69.6761 128.384C68.4246 128.449 67.2864 128.564 67.1463 128.638C67.0065 128.713 66.3086 128.811 65.5959 128.857L64.3001 128.94L64.4076 128.223C64.4668 127.829 64.6932 126.344 64.9105 124.923C65.1279 123.502 65.4991 120.924 65.7352 119.195C65.9715 117.465 66.389 115.039 66.6629 113.803C67.2564 111.127 67.2856 109.955 66.7785 109.198C66.5716 108.889 66.2898 108.425 66.1526 108.168C65.7686 107.446 62.7064 105.157 62.0962 105.136C61.4583 105.114 63.418 104.282 64.5093 104.111C64.8834 104.053 65.3107 103.92 65.4587 103.815C65.9549 103.466 69.5673 102.622 71.683 102.362L73.7779 102.104L74.637 101.031C75.5968 99.8313 75.6307 99.2533 74.8199 97.8958C74.1799 96.824 70.274 92.8338 69.8456 92.8142C69.6714 92.8061 69.4053 92.9984 69.2542 93.2412Z" fill="#ADE838"/>
<path fill-rule="evenodd" clip-rule="evenodd" d="M230.27 95.0398C230.492 95.5709 229.627 96.2286 228.55 96.3481C228.009 96.4081 227.51 96.4807 227.442 96.5096C227.373 96.5383 226.927 96.5795 226.45 96.6011C225.446 96.6466 223.711 96.9453 223.358 97.1335C223.225 97.2047 222.667 97.2991 222.119 97.3437C221.57 97.3881 220.508 97.5808 219.758 97.7719C219.009 97.9628 217.559 98.2599 216.537 98.4319C214.665 98.7468 212.337 99.2781 210.96 99.7042C210.551 99.8307 209.883 99.9884 209.476 100.054C209.068 100.12 208.455 100.306 208.113 100.466C207.77 100.627 206.994 100.835 206.387 100.927C205.78 101.02 204.78 101.294 204.164 101.536C203.548 101.779 202.849 101.93 202.612 101.873C202.374 101.816 202.051 101.913 201.892 102.087C201.735 102.262 201.357 102.405 201.054 102.405C200.751 102.405 200.179 102.552 199.783 102.732C199.387 102.911 198.394 103.122 197.576 103.199C194.962 103.448 194.38 103.626 194.037 104.281C193.771 104.788 193.782 105.027 194.108 105.742C194.565 106.747 194.824 106.983 196.957 108.347C199.23 109.8 199.882 109.974 201.078 109.446C203.686 108.293 206.08 107.586 209.002 107.107C209.726 106.988 209.764 107.017 209.651 107.594C209.586 107.931 209.38 108.368 209.193 108.566C209.006 108.763 208.814 109.224 208.766 109.59C208.649 110.471 207.307 114.102 207.063 114.198C206.957 114.24 206.871 114.516 206.871 114.81C206.871 115.106 206.764 115.408 206.634 115.481C206.503 115.555 206.459 115.766 206.536 115.95C206.625 116.162 206.524 116.284 206.259 116.284C205.993 116.284 205.876 116.427 205.936 116.682C205.987 116.901 205.777 117.456 205.468 117.915C205.16 118.373 204.835 119.013 204.747 119.337C204.659 119.66 204.48 119.924 204.351 119.924C204.221 119.924 204.184 120.027 204.269 120.154C204.354 120.28 204.249 120.543 204.036 120.739C203.823 120.934 203.649 121.227 203.649 121.388C203.649 121.55 203.314 122.068 202.905 122.541C202.496 123.013 202.162 123.579 202.162 123.799C202.162 124.019 201.994 124.257 201.79 124.33C201.585 124.401 201.418 124.57 201.418 124.704C201.418 124.838 201.213 125.225 200.962 125.564C199.797 127.14 198.196 129.489 198.196 129.624C198.196 129.706 197.978 129.989 197.712 130.253C197.446 130.516 196.778 131.178 196.227 131.723C195.677 132.269 195.288 132.806 195.362 132.918C195.438 133.029 195.381 133.12 195.237 133.12C195.092 133.12 194.974 133.274 194.974 133.462C194.974 133.649 194.89 133.804 194.788 133.804C194.487 133.807 192 135.985 192 136.246C192 136.496 193.982 136.15 194.231 135.857C194.299 135.777 195.247 135.42 196.337 135.064C198.639 134.312 199.949 133.711 201.194 132.836C201.684 132.492 202.185 132.21 202.309 132.21C202.659 132.209 204.463 130.614 205.395 129.48C205.859 128.917 206.38 128.374 206.554 128.274C206.728 128.174 206.871 127.892 206.871 127.646C206.871 127.401 207.233 126.713 207.676 126.118C208.119 125.522 208.693 124.678 208.952 124.243C209.21 123.807 209.85 122.852 210.373 122.121C210.897 121.39 211.436 120.413 211.572 119.95C211.892 118.86 212.744 117.991 213.173 118.318C213.344 118.449 213.552 118.493 213.635 118.416C213.719 118.34 213.961 118.437 214.174 118.633C214.51 118.941 214.653 118.947 215.239 118.678C215.612 118.507 216.391 118.191 216.97 117.974C217.55 117.757 218.024 117.487 218.024 117.374C218.024 117.26 218.127 117.226 218.253 117.298C218.38 117.369 219.021 117.236 219.678 117.002C220.336 116.768 221.35 116.509 221.931 116.427L222.989 116.277L222.854 117.02C222.78 117.429 222.612 118.312 222.481 118.984C222.35 119.655 222.299 120.288 222.368 120.39C222.437 120.492 222.387 120.636 222.257 120.709C222.127 120.783 222.022 121.02 222.024 121.237C222.028 121.865 221.183 124.581 220.957 124.664C220.843 124.706 220.818 124.987 220.901 125.29C220.992 125.621 220.943 125.84 220.78 125.84C220.63 125.84 220.522 126.07 220.54 126.352C220.558 126.633 220.395 127.164 220.178 127.53C219.961 127.896 219.841 128.28 219.91 128.383C219.979 128.486 219.913 128.57 219.762 128.57C219.612 128.57 219.516 128.698 219.549 128.854C219.583 129.011 219.38 129.548 219.099 130.049C218.818 130.549 218.643 131.101 218.71 131.275C218.779 131.453 218.72 131.528 218.576 131.446C218.374 131.332 217.86 132.156 217.673 132.893C217.423 133.879 216.047 133.733 213.27 132.423C212.136 131.889 210.894 131.304 210.511 131.124C209.497 130.649 209.398 130.953 210.161 132.2C210.532 132.806 210.836 133.466 210.836 133.667C210.836 133.868 211.052 134.403 211.316 134.855C211.581 135.308 211.937 136.177 212.107 136.788C212.277 137.399 212.499 137.898 212.6 137.898C212.814 137.898 213.188 140.274 213.094 141.031C212.999 141.794 215.341 143.814 216.32 143.814C218.079 143.814 219.899 142.601 221.441 140.401C221.923 139.713 222.387 139.099 222.471 139.036C222.555 138.973 223.05 138.103 223.571 137.102C225 134.359 225.163 134.012 225.602 132.779C225.825 132.154 226.207 131.232 226.451 130.732C226.695 130.231 227.028 129.361 227.192 128.798C227.355 128.234 227.572 127.62 227.674 127.432C227.777 127.245 228.107 126.323 228.408 125.385C228.709 124.446 229.228 122.909 229.562 121.968C229.895 121.027 230.168 120.089 230.168 119.882C230.168 119.676 230.256 119.473 230.363 119.431C230.47 119.39 230.827 119.004 231.156 118.574C231.909 117.591 231.975 115.663 231.298 114.464C230.775 113.539 227.237 110.288 226.253 109.829C225.018 109.252 224.468 109.167 224.468 109.553C224.468 109.988 222.808 111.024 221.695 111.284C221.243 111.389 219.608 111.892 218.06 112.401C216.513 112.91 215.188 113.326 215.116 113.326C214.887 113.326 215.282 111.574 215.949 109.636C216.306 108.599 216.612 107.189 216.629 106.501C216.65 105.685 216.768 105.24 216.97 105.221C217.141 105.205 217.364 105.167 217.466 105.137C217.568 105.106 217.753 105.099 217.877 105.12C218.001 105.142 218.171 105.056 218.256 104.931C218.341 104.805 218.797 104.652 219.27 104.591C219.743 104.53 220.576 104.382 221.122 104.261C222.043 104.058 225.109 103.679 225.955 103.663C226.159 103.659 226.401 103.561 226.493 103.444C226.595 103.314 226.789 103.327 226.989 103.476C227.17 103.61 228.261 103.79 229.413 103.874C230.565 103.959 231.595 104.077 231.702 104.138C231.808 104.198 232.504 104.339 233.248 104.45C235.338 104.762 236.884 103.951 237.726 102.1C237.974 101.557 238.059 100.962 237.959 100.474C237.804 99.7167 236.48 98.064 235.5 97.4051C235.226 97.2204 234.778 96.8511 234.505 96.5845C233.896 95.989 232.705 95.415 231.238 95.0098C230.27 94.742 230.147 94.7459 230.27 95.0398Z" fill="#FFA53F"/>
<path d="M138.862 84.6951C139.015 84.3291 139.438 84.2617 139.438 84.6033C139.438 84.7283 139.521 84.8144 139.623 84.7947C140.879 84.5501 144.884 88.5885 144.885 90.1003C144.885 90.4338 144.548 91.2956 144.137 92.0154C143.696 92.7869 143.449 93.4972 143.534 93.7468C143.634 94.0361 143.557 94.1697 143.292 94.1697C143.047 94.1698 142.904 94.373 142.904 94.7214C142.904 95.025 142.739 95.8702 142.537 96.6003C142.335 97.3308 142.116 98.4924 142.05 99.1814C141.984 99.8704 141.829 100.917 141.707 101.509C141.585 102.1 141.542 102.635 141.611 102.699C141.68 102.763 141.6 102.967 141.433 103.152C141.266 103.337 141.196 103.588 141.277 103.711C141.36 103.833 141.313 103.997 141.175 104.076C141.036 104.155 140.924 104.42 140.924 104.665C140.924 105.115 140.464 106.02 140.114 106.259C139.884 106.416 137.727 106.355 137.209 106.177C136.855 106.055 135.384 105.797 134.857 105.764C134.721 105.756 133.856 106.001 132.936 106.308C131.104 106.92 129.893 107.619 128.254 109.011C127.314 109.81 127.096 109.897 126.462 109.73C126.006 109.61 125.436 109.132 124.911 108.431L124.08 107.323L124.177 104.448C124.23 102.867 124.349 101.368 124.441 101.117C124.569 100.771 124.503 100.799 124.169 101.231C123.068 102.655 121.31 103.797 119.444 104.301C119.138 104.383 118.887 104.546 118.887 104.663C118.887 104.78 118.722 104.876 118.521 104.876C118.146 104.876 118.112 104.966 117.65 107.17C117.338 108.662 117.203 111.71 117.449 111.71C117.546 111.708 118.436 111.119 119.431 110.399C121.351 109.01 122.336 108.429 122.505 108.584C122.672 108.74 121.894 110.292 121.604 110.383C121.457 110.427 121.307 110.617 121.271 110.802C121.193 111.2 119.839 113.8 119.198 114.784C118.953 115.16 118.449 115.765 118.077 116.128C117.215 116.97 116.994 117.774 116.665 121.276C116.518 122.842 116.34 124.482 116.269 124.921C116.197 125.359 116.084 126.538 116.017 127.54C115.949 128.542 115.849 129.978 115.796 130.729C115.742 131.481 115.632 133.069 115.55 134.26C115.468 135.45 115.339 136.679 115.263 136.993C115.186 137.306 115.073 137.972 115.01 138.473C114.821 139.982 112.645 142.626 111.804 142.368C111.218 142.189 109.335 140.635 109.41 140.393C109.44 140.294 109.253 139.771 108.993 139.23C108.733 138.689 108.54 138.194 108.564 138.132C108.588 138.068 108.378 137.71 108.097 137.335C107.814 136.959 107.436 136.293 107.254 135.854C106.879 134.95 105.967 133.712 105.107 132.941C104.362 132.272 104.351 131.878 105.083 132.089C106.166 132.4 107.888 132.69 109.412 132.817C110.89 132.94 110.964 132.921 111.191 132.371C111.44 131.77 111.815 128.788 112.092 125.206C112.206 123.728 112.173 123.098 111.98 123.098C111.83 123.098 111.707 123.243 111.707 123.419C111.707 123.595 110.746 124.67 109.573 125.807C107.376 127.937 106.633 128.333 104.83 128.336C104.176 128.337 103.785 128.11 102.798 127.158C101.778 126.174 101.28 125.326 101.197 124.427C101.19 124.344 101.109 124.207 101.019 124.123C100.861 123.978 100.951 123.081 101.184 122.472C101.243 122.316 101.622 122.187 102.026 122.187C103.125 122.187 103.849 121.865 105.197 120.778C107.447 118.965 108.896 117.858 110.139 117.002C113.056 114.992 112.941 115.152 113.053 112.917C113.107 111.814 113.21 110.335 113.281 109.63L113.41 108.346L112.185 108.775C109.875 109.583 107.634 109.152 106.712 107.723C105.763 106.253 105.231 105.11 105.312 104.718C105.376 104.411 105.804 104.232 106.99 104.016C107.973 103.837 109.252 103.365 110.33 102.784C111.291 102.266 112.489 101.63 112.991 101.369C113.889 100.902 113.907 100.866 114.053 99.1833C114.554 93.4099 114.918 89.8265 115.078 89.0925C115.155 88.7406 115.083 88.3091 114.918 88.1257C114.754 87.9437 114.678 87.5889 114.749 87.3376C114.82 87.0867 114.787 86.8297 114.676 86.7664C114.565 86.7027 114.492 86.3194 114.514 85.9148C114.544 85.3586 114.718 85.1058 115.223 84.8835C115.795 84.6314 116.011 84.6475 116.727 84.9949C119.063 86.1297 119.868 86.764 120.419 87.9011C121.152 89.4146 121.107 90.5007 120.164 93.9744C119.333 97.0369 119.258 97.4366 119.615 96.9177C119.805 96.6414 119.903 96.6391 120.246 96.9011C120.47 97.0716 121.198 97.2363 121.865 97.2673C122.721 97.3072 123.325 97.497 123.914 97.9099C124.373 98.232 124.822 98.4278 124.913 98.3455C125.206 98.0758 125.079 96.1314 124.704 95.1404C124.355 94.2192 122.62 92.3474 122.114 92.3474C121.796 92.347 121.363 91.5783 121.363 91.0115C121.363 90.5871 121.877 90.2956 122.849 90.1687C123.053 90.1421 123.889 89.9156 124.706 89.6658C125.523 89.4159 126.493 89.1472 126.861 89.0691C127.23 88.991 127.842 88.8089 128.223 88.6638C128.603 88.5187 128.971 88.3836 129.039 88.364C129.11 88.3439 129.803 88.1495 130.583 87.9314C131.364 87.7128 132.103 87.3704 132.225 87.1707C132.438 86.8201 135.462 85.7555 137.659 85.2576C138.247 85.1243 138.789 84.8709 138.862 84.6951ZM135.567 99.7429C135.768 98.1263 135.699 98.0974 133.347 98.8093C129.505 99.972 128.891 100.398 128.541 102.142C128.403 102.831 128.229 103.57 128.155 103.787C128.038 104.131 128.181 104.114 129.335 103.648C130.058 103.356 131.718 102.784 133.022 102.376C134.327 101.968 135.395 101.518 135.396 101.376C135.397 101.234 135.474 100.499 135.567 99.7429ZM135.417 91.7C134.974 91.7273 134.278 91.8186 133.87 91.9021C133.462 91.9857 132.516 92.1784 131.767 92.3298C129.649 92.7583 128.497 93.2709 128.693 93.697C128.785 93.8949 128.914 94.2885 128.98 94.572C129.108 95.1139 129.404 95.3639 130.029 95.4578C130.236 95.489 130.684 95.5774 131.025 95.655C131.465 95.7546 131.92 95.6251 132.584 95.2107C133.553 94.6056 134.116 94.482 134.346 94.823C134.49 95.0366 135.539 94.988 135.962 94.7478C136.106 94.6652 136.224 93.9348 136.224 93.1248V91.6501L135.417 91.7Z" fill="#FFA53F"/>
<path d="M164.255 84.6643C164.967 84.2065 165.242 84.169 167.028 84.2922C169.674 84.4751 170.784 84.8703 171.854 86.009C173.283 87.5303 173.604 88.0805 173.606 89.0051C173.608 89.8343 173.642 89.8719 174.289 89.7551C174.663 89.6873 175.36 89.5794 175.836 89.5159C176.313 89.4525 177.601 89.256 178.698 89.0784C179.795 88.9007 181.227 88.7883 181.88 88.8284C183.27 88.914 184.138 88.6571 184.728 87.9875L185.152 87.5061L185.879 88.1272C186.28 88.4689 186.886 88.8818 187.227 89.0442C188.1 89.4611 191.153 92.4612 191.46 93.2043C191.601 93.5447 191.65 94.1472 191.569 94.5432C191.376 95.49 189.263 97.1567 187.126 98.0481C186.244 98.4162 185.431 98.8663 185.321 99.0481C185.209 99.2304 184.172 99.812 183.016 100.341C181.859 100.87 180.3 101.66 179.553 102.096C178.332 102.808 178.248 102.907 178.721 103.068C179.222 103.238 182.592 102.682 184.428 102.126C185.231 101.883 185.836 102.037 186.731 102.713C189.751 104.997 190.211 106.615 188.237 108.007C187.415 108.587 187.025 108.721 186.438 108.626C186.026 108.559 184.335 108.451 182.681 108.385C177.615 108.183 177.569 108.195 175.098 110.422C174.006 111.406 173.113 112.292 173.113 112.393C173.113 112.629 174.593 113.106 174.858 112.955C174.969 112.892 175.13 112.944 175.215 113.072C175.301 113.199 175.703 113.303 176.109 113.303C176.515 113.303 177.26 113.498 177.765 113.735C178.27 113.972 178.74 114.165 178.808 114.163C178.877 114.163 179.332 114.315 179.82 114.502C180.308 114.69 180.977 114.92 181.305 115.015C181.634 115.109 182.126 115.324 182.398 115.491C183.043 115.888 184.406 117.537 184.893 118.512C185.254 119.234 185.247 119.309 184.766 119.78C184.469 120.07 184.255 120.586 184.255 121.01C184.255 121.692 184.21 121.729 183.574 121.585C183.199 121.5 182.419 121.246 181.84 121.02C180.414 120.462 180.517 120.644 182.1 121.477C184.61 122.798 185.206 123.564 184.66 124.767C184.094 126.011 183.049 126.543 181.164 126.543C180.278 126.543 179.468 126.494 179.363 126.435C179.165 126.322 173.722 126.886 173.175 127.075C173.005 127.135 172.866 127.279 172.866 127.397C172.866 127.694 175.814 129.666 178.189 130.958C179.278 131.551 180.448 132.212 180.789 132.428C181.129 132.644 182.8 133.47 184.502 134.263C186.205 135.055 187.666 135.798 187.75 135.912C187.833 136.027 187.973 136.11 188.061 136.097C188.238 136.072 189.505 136.781 189.702 137.016C189.77 137.097 190.193 137.237 190.642 137.326C191.565 137.511 192.673 138.353 192.673 138.87C192.673 139.06 192.311 139.35 191.869 139.515C191.426 139.68 191.008 139.871 190.94 139.941C190.555 140.335 188.297 141.19 186.236 141.723C185.126 142.01 182.714 141.856 182.487 141.484C182.373 141.297 182.001 141.079 181.659 141C181.317 140.921 181.036 140.747 181.036 140.615C181.033 140.48 180.054 139.432 178.857 138.284C176.567 136.089 173.903 133.474 172.786 132.325L172.123 131.644L172.091 133.692C172.074 134.818 172.032 135.945 171.998 136.196C171.963 136.447 171.853 137.471 171.752 138.473C171.652 139.475 171.471 140.468 171.351 140.679C171.231 140.89 171.132 141.438 171.132 141.896C171.132 142.504 170.855 143.092 170.106 144.074C169.541 144.815 168.945 145.42 168.781 145.42C168.233 145.42 166.925 144.923 166.923 144.715C166.923 144.602 166.756 144.509 166.551 144.509C166.347 144.509 166.18 144.355 166.18 144.167C166.18 143.98 166.087 143.826 165.974 143.826C165.861 143.826 165.647 143.39 165.498 142.858C165.094 141.417 164.45 139.706 164 138.88C163.524 138.005 163.723 137.735 164.582 138.095C164.929 138.24 165.47 138.36 165.784 138.36C166.32 138.36 166.364 138.248 166.513 136.48C166.601 135.446 166.669 133.985 166.667 133.234L166.662 131.867L165.559 133.006C164.953 133.633 163.98 134.638 163.399 135.24C162.818 135.841 161.785 136.702 161.104 137.154C160.424 137.604 159.83 138.06 159.784 138.166C159.738 138.272 159.524 138.36 159.308 138.36C159.092 138.36 158.739 138.5 158.524 138.673C158.103 139.01 154.804 140.573 153.181 141.202C152.637 141.414 151.998 141.68 151.761 141.795C151.095 142.119 149.909 142.043 149.751 141.668C149.653 141.433 150.099 141.082 151.243 140.493C152.77 139.708 155.408 137.559 158.756 134.373C160.382 132.826 163.051 129.71 162.883 129.555C162.821 129.499 162.006 129.62 161.072 129.823C160.136 130.027 159.175 130.231 158.935 130.278C158.086 130.442 155.681 129.525 154.923 128.748C154.519 128.334 154.101 128.021 153.995 128.052C153.888 128.083 153.8 127.968 153.8 127.795C153.8 127.623 153.633 127.354 153.429 127.198C152.697 126.638 153.017 126.324 154.481 126.166C155.264 126.082 157.019 125.806 158.38 125.554C159.742 125.302 161.804 124.957 162.961 124.787C164.119 124.617 165.54 124.35 166.119 124.194L167.17 123.909V121.383C167.17 118.648 166.855 117.681 166.199 118.407C166.019 118.607 165.728 118.77 165.551 118.77C165.375 118.77 165.195 118.847 165.149 118.941C165.033 119.181 162.022 120.514 160.981 120.785C160.504 120.91 159.78 121.116 159.372 121.243C158.963 121.371 158.127 121.596 157.514 121.742C156.901 121.889 155.972 122.215 155.45 122.466C154.812 122.772 154.418 122.846 154.25 122.692C154.086 122.541 153.706 122.538 153.135 122.683C152.239 122.911 151.804 122.79 152.208 122.426C152.335 122.311 153.664 121.633 155.162 120.92C158.784 119.195 161.408 117.725 162.466 116.826C162.943 116.421 163.584 115.972 163.89 115.827C164.196 115.683 164.447 115.482 164.447 115.381C164.445 115.01 162.006 113.987 161.125 113.987C160.551 113.987 160.17 113.862 160.08 113.645C160.001 113.457 159.726 113.303 159.468 113.303C159.211 113.303 159 113.217 159 113.111C159 113.004 158.798 112.702 158.55 112.44L158.1 111.963L156.431 112.52C154.723 113.09 154.369 113.066 153.332 112.307C153.142 112.168 152.689 112.043 152.326 112.03C151.445 111.997 150.508 111.266 150.855 110.882C151.032 110.685 151.02 110.443 150.815 110.09C150.566 109.663 150.591 109.532 150.969 109.278C151.217 109.111 151.816 108.97 152.3 108.963C153.07 108.953 155.667 108.555 157.143 108.222C157.416 108.16 158.307 107.886 159.124 107.612C159.94 107.337 160.831 107.056 161.104 106.987C161.902 106.782 162.24 106.435 162.083 105.982C162.003 105.749 162.057 105.559 162.202 105.559C162.347 105.559 162.466 105.405 162.466 105.217C162.466 105.029 162.618 104.876 162.803 104.875C163.425 104.875 166.346 97.7949 166.034 97.0442C165.822 96.5358 165.663 96.5644 163.705 97.4719C162.758 97.9104 161.71 98.2698 161.375 98.2698C160.711 98.2696 159.99 97.7341 159.99 97.2415C159.99 97.07 159.893 96.875 159.774 96.8069C159.655 96.7392 159.555 96.9122 159.553 97.1917C159.551 97.4714 159.359 98.3666 159.126 99.1809C158.894 99.9952 158.669 100.815 158.626 101.003C158.436 101.857 157.393 104.168 156.803 105.045C155.712 106.665 154.018 107.016 152.701 105.893C152.361 105.603 151.851 105.298 151.567 105.215C151.186 105.104 151.119 104.99 151.309 104.779C151.451 104.621 151.524 104.45 151.47 104.399C151.416 104.348 151.312 103.622 151.238 102.786C151.134 101.623 151.186 101.203 151.46 100.993C151.658 100.843 151.82 100.536 151.82 100.311C151.82 100.086 151.905 99.8688 152.008 99.8264C152.167 99.7631 153.033 97.5482 153.196 96.7893C153.223 96.664 153.474 95.8793 153.754 95.0461C154.035 94.2127 154.299 92.9484 154.341 92.2366C154.384 91.5248 154.544 90.8457 154.699 90.7278C155.012 90.4882 158.662 92.8518 159.327 93.7249L159.715 94.2346L162.514 93.1545C164.054 92.5603 165.564 92.0211 165.871 91.9563C166.177 91.8917 166.428 91.6969 166.428 91.5237C166.428 90.9841 166.463 90.8754 166.727 90.5823C166.906 90.3846 166.899 90.2037 166.708 89.9915C166.556 89.8234 166.482 89.6395 166.543 89.5833C166.605 89.5267 166.214 89.0236 165.675 88.4651C165.137 87.907 164.696 87.3896 164.695 87.3147C164.695 87.2402 164.416 86.8808 164.076 86.5168C163.264 85.6488 163.3 85.2785 164.255 84.6643ZM173.047 117.518C170.412 116.305 168.998 115.948 169.212 116.549C169.268 116.706 169.96 117.142 170.749 117.518C172.634 118.416 173.361 119.384 173.361 120.995V122.207L174.283 122.048C176.352 121.691 178.673 120.719 178.407 120.321C178.233 120.062 178.959 120.139 179.922 120.483C180.264 120.604 180.34 120.586 180.169 120.422C180.032 120.291 179.308 119.96 178.56 119.686C177.812 119.412 177.006 119.093 176.769 118.979C176.533 118.864 176.211 118.77 176.054 118.77C175.895 118.768 174.543 118.206 173.047 117.518ZM170.387 109.374C170.389 109.199 169.987 109.195 168.903 109.36C168.562 109.411 168.117 109.516 167.913 109.592C167.708 109.668 167.467 109.718 167.376 109.701C167.283 109.686 166.657 109.824 165.983 110.008C164.727 110.351 163.799 110.996 164.478 111.055C164.665 111.071 165.041 111.113 165.313 111.149C165.585 111.184 166.298 111.278 166.896 111.355C167.493 111.432 168.069 111.544 168.175 111.604C168.372 111.712 170.384 109.685 170.387 109.374ZM182.522 93.8401C182.514 93.6098 177.998 93.7696 176.084 94.0686C174.31 94.3459 170.474 95.2425 169.985 95.4944C169.738 95.6217 169.743 95.7945 170.012 96.3362C170.199 96.7109 170.455 97.6062 170.581 98.3254C170.843 99.8292 170.523 100.933 169.048 103.612C168.189 105.174 168.096 105.606 168.712 105.176C168.886 105.055 169.403 104.935 169.86 104.91C170.317 104.885 170.894 104.765 171.143 104.643C171.391 104.521 171.932 104.42 172.344 104.42C173.015 104.42 173.123 104.32 173.375 103.46C173.529 102.932 173.6 102.18 173.531 101.789C173.462 101.398 173.502 100.933 173.621 100.756C173.847 100.418 173.962 100.456 176.648 101.734L177.583 102.178L178.063 101.648C178.327 101.356 178.547 100.972 178.552 100.794C178.561 100.446 179.899 98.1487 180.42 97.5862C180.778 97.1999 182.522 94.091 182.522 93.8401Z" fill="#FFA53F"/>
<path d="M137.703 108.341C137.703 108.184 140.325 108.136 142.533 108.253C143.531 108.306 144.556 109.225 144.89 110.367C145.14 111.222 145.107 111.374 144.498 112.183C143.505 113.5 143.226 113.638 141.443 113.686C139.701 113.733 138.843 113.842 137.455 114.193C136.978 114.313 136.31 114.478 135.969 114.56C134.675 114.87 134.236 115.19 134.236 115.82C134.236 116.159 134.41 116.57 134.623 116.733C134.909 116.951 134.996 117.389 134.956 118.411C134.926 119.173 135.002 119.821 135.126 119.852C135.562 119.961 137.74 119.174 137.871 118.861C137.944 118.686 138.194 118.543 138.427 118.543C139.309 118.543 141.155 119.281 142.047 119.989C142.923 120.686 142.954 120.756 142.628 121.308C141.787 122.729 139.58 123.804 136.895 124.098C136.371 124.155 136.056 124.246 134.829 124.692C134.17 124.931 134.037 125.591 134.079 128.437L134.112 130.7L135.501 131.195C136.264 131.468 138.62 132.474 140.736 133.431C142.851 134.387 144.676 135.172 144.795 135.176C144.911 135.179 145.285 135.381 145.626 135.626C145.966 135.871 146.431 136.075 146.658 136.077C146.885 136.08 147.108 136.159 147.153 136.253C147.199 136.347 147.661 136.623 148.18 136.866C149.691 137.574 149.765 137.975 148.533 138.788C147.955 139.17 147.371 139.563 147.235 139.661C146.619 140.107 145.649 140.449 145.401 140.309C145.251 140.224 144.711 140.352 144.201 140.593C142.616 141.342 141.459 141.592 140.262 141.443C139.2 141.31 137.604 140.464 137.134 139.784C137.025 139.627 136.773 139.499 136.576 139.499C136.379 139.499 136.218 139.368 136.218 139.209C136.218 139.05 135.806 138.717 135.304 138.469C134.803 138.221 134.021 137.711 133.568 137.335C133.115 136.959 132.175 136.242 131.478 135.74C129.435 134.269 127.211 132.388 126.778 131.764C126.302 131.078 124.875 129.809 124.736 129.948C124.683 130.002 124.36 130.559 124.017 131.186C123.3 132.499 121.148 134.989 120.868 134.83C120.763 134.772 120.286 135.063 119.808 135.478C118.896 136.269 116.504 137.798 115.773 138.056C115.409 138.185 115.37 138.109 115.51 137.543C115.601 137.178 115.709 136.743 115.75 136.576C115.791 136.41 115.938 136.204 116.076 136.12C116.412 135.914 118.637 132.512 118.637 132.202C118.637 132.069 118.824 131.632 119.052 131.231C119.662 130.161 122.122 123.599 122.337 122.472C122.438 121.94 122.445 121.047 122.352 120.487C122.252 119.877 122.288 119.376 122.442 119.235C122.619 119.072 122.573 118.998 122.296 118.998C121.388 118.998 119.589 116.141 119.951 115.274C120.03 115.086 120.462 114.783 120.913 114.601C121.363 114.418 122.123 114.111 122.599 113.918C123.076 113.725 124.329 113.253 125.383 112.869C127.309 112.167 127.548 112.07 128.913 111.422C129.321 111.228 131.104 110.589 132.875 110.002C134.645 109.415 136.287 108.841 136.523 108.727C136.76 108.613 137.122 108.521 137.328 108.521C137.534 108.521 137.702 108.44 137.703 108.341ZM129.09 117.322C128.992 117.269 128.468 117.396 127.924 117.604C127.379 117.811 126.331 118.271 125.595 118.625L124.259 119.269L125.262 119.682C125.814 119.909 126.34 120.309 126.43 120.571C126.521 120.833 126.69 121.048 126.805 121.048C127.055 121.048 127.536 122.974 127.422 123.518C127.378 123.725 127.333 124.008 127.323 124.145C127.312 124.282 127.026 124.692 126.685 125.056C125.819 125.983 125.913 126.519 127.069 127.255C127.611 127.6 128.15 127.882 128.268 127.882C128.386 127.882 128.538 127.293 128.605 126.572C128.673 125.852 128.921 123.852 129.157 122.128C129.553 119.241 129.53 117.565 129.09 117.322Z" fill="#FFA53F"/>
<path fill-rule="evenodd" clip-rule="evenodd" d="M34.2177 121.286C33.7675 121.896 34.0293 122.567 34.875 122.969C35.1488 123.099 35.373 123.317 35.373 123.453C35.373 123.882 36.8994 125.022 37.2939 124.887C37.5083 124.814 37.5995 124.857 37.5088 124.987C37.2851 125.309 37.9497 126.545 38.3464 126.545C38.5286 126.545 38.617 126.632 38.5429 126.739C38.4686 126.845 38.6321 127.113 38.9059 127.332C39.1798 127.553 39.4037 127.918 39.4037 128.145C39.4037 128.372 39.5171 128.558 39.6557 128.558C39.7942 128.558 39.9076 128.678 39.9076 128.825C39.9076 129.242 41.2113 130.347 41.7033 130.347C41.9464 130.347 42.2152 130.448 42.3008 130.571C42.8578 131.371 45.1868 130.055 45.7115 128.643C46.1237 127.535 46.0894 125.682 45.6392 124.736C45.1888 123.788 43.9249 122.662 42.6444 122.067C41.4604 121.516 38.7553 120.99 36.4399 120.858C34.7284 120.762 34.5845 120.789 34.2177 121.286Z" fill="#ADE838"/>
<path fill-rule="evenodd" clip-rule="evenodd" d="M27.5653 122.837C27.0116 123.474 26.2154 124.151 25.7959 124.341C24.9154 124.741 24.5784 124.608 23.016 123.247C22.4773 122.777 21.8556 122.431 21.6345 122.476C20.9028 122.627 20.7963 123.89 21.3548 125.796C21.6359 126.755 21.9255 127.595 21.9989 127.664C22.0721 127.732 22.289 128.114 22.4813 128.513C22.6733 128.912 23.3022 129.761 23.8789 130.401C24.7059 131.319 25.1456 131.601 25.96 131.741C26.8052 131.885 27.0727 131.831 27.4331 131.446C27.9458 130.899 28.3699 129.168 28.0833 128.792C27.867 128.509 27.8978 126.177 28.1226 125.787C28.3195 125.447 28.6446 123.621 28.5759 123.244C28.5444 123.073 28.6283 122.933 28.762 122.933C29.0636 122.933 29.0852 122.019 28.7886 121.823C28.6693 121.744 28.1189 122.201 27.5653 122.837Z" fill="#ADE838"/>
<path fill-rule="evenodd" clip-rule="evenodd" d="M8.38207 123.946C8.2473 124.089 7.68484 125.106 7.13226 126.207C6.57944 127.308 5.69608 128.924 5.16881 129.798C3.48648 132.587 2.77598 134.243 3.06143 134.71C3.20006 134.938 3.33845 135.407 3.36859 135.753C3.39872 136.1 3.55784 136.456 3.72226 136.545C3.88693 136.634 4.00386 136.793 3.98265 136.899C3.88766 137.368 4.32741 137.982 5.08226 138.435C5.80289 138.868 5.99865 138.898 6.72723 138.687C7.18193 138.555 7.7157 138.285 7.91339 138.086C8.92959 137.064 10.3945 133.871 10.5507 132.338C10.5919 131.931 10.7062 131.546 10.8046 131.482C11.0297 131.334 11.0772 125.813 10.8576 125.314C10.7682 125.111 10.5476 124.945 10.3675 124.945C10.1874 124.945 9.9253 124.757 9.78499 124.527C9.41684 123.924 8.68778 123.622 8.38207 123.946Z" fill="#ADE838"/>
<path fill-rule="evenodd" clip-rule="evenodd" d="M15.1892 125.072C14.6364 125.842 15.4052 135.255 16.0815 135.997C16.2089 136.137 16.3992 136.497 16.5047 136.797C16.7878 137.603 19.0686 139.913 20.5161 140.86C21.749 141.666 23.3527 142.251 24.8896 142.455C25.309 142.51 25.6521 142.572 25.6521 142.593C25.6521 142.775 31.3813 142.902 32.2602 142.739C32.5398 142.687 33.2832 142.578 33.9122 142.496C34.5412 142.415 36.0034 142.093 37.1616 141.781C39.9243 141.036 40.9155 140.253 40.9956 138.754C41.0571 137.603 40.4745 136.238 39.4676 135.173C38.3188 133.959 31.823 128.354 31.5646 128.354C31.4024 128.354 31.3691 128.669 31.4764 129.188C31.5712 129.647 31.8253 130.873 32.0411 131.913C32.2571 132.953 32.494 134.323 32.5675 134.957L32.7014 136.109L31.6428 136.359C30.4531 136.639 27.8846 136.616 25.9339 136.308C23.4862 135.921 22.1587 134.919 21.1471 132.692C20.9248 132.203 20.3321 131.038 19.8298 130.104C19.3276 129.169 18.9169 128.306 18.9169 128.185C18.9169 127.683 17.5366 125.856 16.7708 125.345C15.8469 124.728 15.4815 124.665 15.1892 125.072Z" fill="#ADE838"/>
<path fill-rule="evenodd" clip-rule="evenodd" d="M87.4856 14.3094C86.7531 14.781 84.6914 16.733 84.6914 16.955C84.6914 16.9935 85.3023 17.1786 86.0489 17.3665C87.5288 17.7387 87.6854 17.9258 88.2607 20.0062C88.4269 20.6072 88.7035 21.2956 88.8755 21.536C89.0475 21.7764 89.2705 22.3173 89.3715 22.7379C89.4723 23.1586 89.7678 24.0811 90.0277 24.7878C90.7776 26.8263 90.7258 26.9671 88.9851 27.6203C88.1516 27.933 87.4697 28.2715 87.4697 28.3723C87.4697 28.4732 86.7594 28.7357 85.8911 28.9558C85.023 29.1758 84.142 29.4691 83.9336 29.6074C83.1686 30.1157 81.1008 30.7429 80.5555 30.6319C80.434 30.6072 80.1498 30.7279 79.924 30.9001C79.3638 31.3275 77.3667 31.6059 77.3667 31.2567C77.3667 31.1131 77.1993 31.0511 76.9944 31.1191C76.7899 31.187 76.534 31.1239 76.4261 30.9785C76.3183 30.8334 76.0276 30.5771 75.7803 30.409C75.3876 30.1422 75.2865 30.1551 74.9867 30.51C74.6927 30.8577 74.5834 30.8739 74.2308 30.6206C73.7635 30.2849 73.7064 30.3113 73.4731 30.9693C73.3806 31.2296 73.4127 31.5002 73.544 31.5705C73.6756 31.6409 73.7218 31.9021 73.6466 32.1508C73.566 32.4174 73.7145 32.844 74.008 33.1886C74.8074 34.1279 75.1734 34.8073 75.3825 35.7409C75.4904 36.2217 75.6704 37.0084 75.7826 37.4892C75.895 37.97 75.8937 39.2198 75.7803 40.2666C75.5371 42.505 73.763 51.4006 73.3703 52.3497C72.6732 54.035 72.041 56.426 72.1872 56.8249C72.2764 57.0679 72.2367 57.2667 72.0993 57.2667C71.9619 57.2667 71.7119 57.6356 71.5439 58.0863C71.3759 58.5371 71.1701 59.0041 71.0862 59.1243C71.0024 59.2445 70.9256 59.392 70.9158 59.4521C70.8412 59.9003 70.4482 61.1381 70.2934 61.4117C69.7496 62.3724 69.2844 63.4371 69.2844 63.721C69.2844 63.8971 69.1707 64.0414 69.0318 64.0414C68.8929 64.0414 68.7792 64.1841 68.7792 64.3587C68.7792 64.7276 67.4229 67.5192 65.9891 70.101C64.6337 72.5418 64.6709 73.1666 66.1032 72.018C66.478 71.7175 66.8786 71.4716 66.9933 71.4716C67.108 71.4716 67.3325 71.3357 67.4919 71.1694C67.6512 71.0031 68.4893 70.5052 69.3538 70.0627C70.7041 69.3719 72.4226 67.8393 72.7921 66.9967C72.8459 66.8736 73.2723 66.3174 73.7393 65.7604C74.2063 65.2033 74.5884 64.6286 74.5884 64.4828C74.5884 64.3373 74.7915 63.957 75.0395 63.638C75.2875 63.3189 75.6568 62.7629 75.8599 62.4024C76.0632 62.0418 76.2918 61.6976 76.3683 61.6375C76.4448 61.5774 76.6525 61.0857 76.8298 60.5448C77.0073 60.0039 77.7274 58.1879 78.4303 56.5093C79.1332 54.8307 79.7783 52.9627 79.8637 52.358L80.0188 51.2585L80.9437 51.3274C81.5107 51.3697 81.9504 51.285 82.0803 51.1082C82.3162 50.7869 86.9234 48.7438 87.4116 48.7438C87.8511 48.7438 87.8152 51.2871 87.3472 53.3331C86.3192 57.8244 85.7138 59.5234 85.1033 59.6307C84.8863 59.6687 84.0132 59.5456 83.1628 59.357C82.3126 59.1687 81.0015 58.9519 80.2496 58.8754C79.0004 58.7484 78.8822 58.7738 78.8822 59.1695C78.8822 59.408 79.1095 59.781 79.3873 59.9984C79.6652 60.2159 79.8925 60.4786 79.8925 60.5819C79.8925 60.6855 80.2829 61.2848 80.7603 61.9139C81.2377 62.5431 81.9416 63.7464 82.325 64.5877C83.1754 66.4547 83.8569 67.4875 84.4044 67.7392C84.6318 67.8437 85.3041 67.9084 85.8987 67.8828C86.8193 67.8435 87.1684 67.6767 88.2547 66.7584C89.681 65.5528 90.3157 64.6666 90.1005 64.1815C90.0212 64.0027 90.1778 63.6651 90.4485 63.4308C91.5101 62.5123 93.1081 56.2953 93.3736 52.0511C93.4741 50.4408 93.5807 50.1112 94.2674 49.2838C94.696 48.7672 95.0469 48.1291 95.0469 47.8655C95.0469 47.3286 94.4013 44.9926 94.0214 44.1545C93.665 43.3687 92.3656 42.682 90.467 42.2767L88.8149 41.9239L88.1034 42.4945C87.3189 43.1235 82.1217 45.4658 81.5102 45.4658C81.2657 45.4658 81.1973 45.3663 81.3228 45.1926C81.5569 44.8683 81.541 44.9205 82.0381 42.8433C82.2538 41.9419 82.4748 40.3767 82.5293 39.3653L82.6286 37.5263L84.607 36.5512C87.7851 34.9847 89.7888 34.1019 90.1656 34.1019C90.3586 34.1019 90.5746 33.9707 90.6455 33.8105C90.7168 33.6501 90.912 33.5098 91.0797 33.4985C91.2474 33.4871 91.6402 33.4102 91.9528 33.3274C92.4307 33.2006 92.5216 33.259 92.5239 33.6938C92.5254 33.9784 92.6924 34.6838 92.8949 35.2614C93.2675 36.3237 93.5787 37.8299 93.5688 38.5229C93.566 38.7309 93.665 38.9553 93.7891 39.0215C93.9131 39.088 93.9505 39.2866 93.8722 39.463C93.7941 39.6394 93.8274 39.7838 93.9464 39.784C94.0654 39.784 94.1793 40.0303 94.1992 40.331C94.2194 40.6319 94.3232 41.0498 94.4301 41.2598C94.6766 41.7441 94.6733 41.7349 94.8976 42.5155C95.0014 42.8761 95.1911 43.3923 95.3191 43.6628C95.9013 44.8921 96.0448 45.2426 96.6378 46.8862C96.9849 47.8478 97.3498 49.0771 97.4491 49.618C97.5484 50.1588 97.711 50.6997 97.8103 50.8199C98.0909 51.1597 98.9504 53.2041 98.8898 53.3877C98.86 53.478 98.9385 53.5516 99.0643 53.5516C99.1903 53.5516 99.3722 54.0481 99.4687 54.655C99.6222 55.6212 99.5624 55.865 98.9873 56.617C98.6258 57.0895 98.3298 57.5517 98.3291 57.6446C98.3268 57.9479 96.5333 60.8562 95.9092 61.5682C95.5737 61.9509 95.2994 62.3711 95.2994 62.5022C95.2994 62.6331 94.4473 63.6666 93.4057 64.7988C92.364 65.9308 91.6073 66.9081 91.7245 66.9709C92.0892 67.1658 93.7671 66.6634 94.9878 65.9938C95.6303 65.6411 96.2534 65.3526 96.3726 65.3526C96.7401 65.3526 99.939 63.0258 100.54 62.3211C100.853 61.9548 101.109 61.4978 101.109 61.3055C101.109 61.1134 101.223 61.0173 101.363 61.092C101.503 61.167 101.686 61.0743 101.769 60.8864C101.992 60.3839 102.351 60.4698 102.624 61.0911C102.756 61.3916 102.981 61.6375 103.123 61.6375C103.265 61.6375 103.382 61.8772 103.382 62.1703C103.382 62.4633 103.723 63.0263 104.14 63.421C104.556 63.8158 104.897 64.221 104.897 64.3215C104.897 64.4221 105.015 64.4411 105.16 64.3637C105.33 64.2726 105.365 64.4219 105.259 64.7879C105.136 65.2108 105.192 65.3526 105.481 65.3526C105.701 65.3526 105.936 65.622 106.026 65.9765C106.113 66.3198 106.351 66.7868 106.555 67.0146C106.758 67.2423 107.384 67.9691 107.944 68.6298C108.504 69.2904 109.21 69.91 109.513 70.0068C109.893 70.1283 109.968 70.2336 109.756 70.3468C109.348 70.5654 112.187 73.3626 113.538 74.072C114.878 74.7761 116.442 75.0121 117.281 74.6367C117.639 74.4767 118.193 73.9068 118.512 73.3705C118.991 72.5637 119.068 72.1736 118.953 71.1139C118.715 68.9053 118.631 68.4726 117.888 65.5934C117.683 64.7999 117.4 63.5114 117.26 62.7302C117.12 61.9489 116.884 60.6704 116.735 59.8892C116.587 59.1079 116.417 58.0262 116.358 57.4853C116.198 56.0279 116.008 55.4308 115.775 55.6507C115.661 55.7582 115.195 56.8264 114.74 58.0246C114.284 59.2226 113.633 60.7295 113.293 61.3728C112.6 62.6825 112.728 62.7267 111.314 60.6895C110.91 60.1079 110.41 59.4036 110.201 59.1243C109.993 58.845 109.49 58.1407 109.084 57.5591C108.678 56.9776 107.968 56.0237 107.506 55.4393C107.043 54.855 106.665 54.2483 106.665 54.0914C106.665 53.9343 107.347 52.5686 108.181 51.0561C109.014 49.5439 109.696 48.1837 109.695 48.0336C109.695 47.8832 109.916 47.367 110.187 46.8862C110.707 45.9647 111.027 45.2588 111.064 44.9564C111.075 44.8567 111.284 44.6491 111.527 44.4952C111.77 44.3414 111.969 44.054 111.969 43.8565C111.969 43.6589 112.197 43.1305 112.474 42.6818C113.251 41.4283 113.147 40.0815 112.172 38.7831C111.729 38.1918 110.99 37.3834 110.531 36.987C110.072 36.5905 109.696 36.179 109.696 36.0726C109.696 35.7918 108.449 35.7063 107.414 35.9166C106.285 36.146 105.869 36.8963 105.776 38.8749C105.739 39.6754 105.405 41.2644 105.034 42.4062C104.664 43.5481 104.332 44.6299 104.296 44.8102C104.068 45.9699 103.55 47.4326 103.368 47.4326C103.249 47.4326 103.077 47.0884 102.986 46.6677C102.895 46.247 102.713 45.9028 102.581 45.9028C102.449 45.9028 102.407 45.811 102.487 45.6992C102.567 45.587 102.347 44.9356 101.997 44.2514C101.647 43.5673 101.361 42.9159 101.361 42.8042C101.361 42.6923 101.126 42.1541 100.839 41.6079C100.551 41.062 100.376 40.4805 100.449 40.3157C100.522 40.1512 100.483 39.9637 100.363 39.8994C99.9319 39.6691 97.563 32.2919 97.5701 31.2027C97.5716 30.9779 97.9151 30.6872 98.3935 30.5063C100.219 29.8157 102.798 29.0753 103.387 29.0729C103.732 29.0714 104.487 28.8358 105.066 28.5495C105.645 28.263 106.537 27.9092 107.048 27.7632C108.164 27.4446 108.686 26.5538 108.686 24.9683C108.686 23.5618 108.128 23.1256 105.11 22.175L102.75 21.4315L102.119 22.0821C101.561 22.6569 98.7915 24.0767 98.3654 24.0063C98.2768 23.9917 97.9974 24.0577 97.7451 24.1528C97.0273 24.4233 96.7808 24.0066 96.6972 22.3817C96.6548 21.5559 96.4911 20.3395 96.3332 19.6784C96.1756 19.0174 96.013 18.329 95.9715 18.1487C95.8026 17.4109 95.2992 16.6733 94.2912 15.686C92.8053 14.2301 92.2501 14.005 89.7428 13.8413C88.553 13.7637 88.2292 13.8308 87.4856 14.3094Z" fill="white"/>
<path fill-rule="evenodd" clip-rule="evenodd" d="M109.208 13.841C109.176 13.8704 108.697 13.9472 108.144 14.0113C106.824 14.1646 104.275 14.7816 104.031 15.0068C103.779 15.2396 105.109 16.5429 106.317 17.2477C106.842 17.5538 107.42 18.0822 107.6 18.4221C107.781 18.7619 108.151 19.1531 108.423 19.2912C108.694 19.4291 109.117 19.749 109.361 20.0018C111.048 21.7447 112.708 23.1033 113.144 23.0978C113.423 23.0941 114.379 23.4221 115.268 23.8265C116.157 24.231 117.084 24.6502 117.327 24.758C118.057 25.0818 119 23.9476 119 22.7462C119 21.1966 118.325 18.343 117.725 17.3573C116.536 15.4026 113.469 13.9702 110.167 13.8268C109.671 13.8052 109.239 13.8116 109.208 13.841Z" fill="white"/>
<path d="M152.297 16.302C153.392 15.9602 154.273 16.2922 156.44 17.8616C159.152 19.825 159.734 20.5345 159.734 21.8772C159.734 22.9246 159.064 24.2869 158.549 24.2874C158.404 24.2874 158.208 24.5181 158.111 24.8C158.015 25.082 157.538 25.5113 157.051 25.7542C156.563 25.9972 156.226 26.317 156.302 26.4651C156.377 26.6134 156.227 26.7954 155.968 26.8704C155.709 26.9451 155.497 27.1733 155.497 27.3772C155.497 27.7341 154.572 28.8617 153.767 29.4856C153.553 29.6511 153.378 29.9844 153.378 30.2258C153.378 30.4675 153.257 30.6653 153.11 30.6653C152.963 30.6655 152.759 30.8448 152.656 31.0637C152.553 31.2828 152.385 31.602 152.282 31.7717C152.14 32.006 152.268 32.0395 152.812 31.9114C153.207 31.8187 153.612 31.6468 153.713 31.5286C153.814 31.4106 154.087 31.3432 154.318 31.3792C154.551 31.415 155.013 31.3324 155.346 31.1956C155.679 31.0584 156.532 30.874 157.243 30.7854C157.953 30.6968 158.722 30.4835 158.95 30.3118C159.302 30.0473 159.497 30.0941 160.23 30.6174C160.706 30.957 161.436 31.4401 161.853 31.6907C163.199 32.5011 164.065 33.9863 163.886 35.179C163.799 35.7577 163.578 36.2687 163.396 36.3147C163.213 36.3606 163.063 36.4957 163.063 36.6145C163.062 36.7346 162.041 37.5902 160.794 38.5168C159.545 39.4444 158.523 40.3185 158.523 40.4592C158.523 40.5996 158.402 40.658 158.253 40.5891C158.104 40.5196 157.903 40.6157 157.808 40.803C157.578 41.2531 158.628 41.2598 159.224 40.8118C159.831 40.3547 162.599 40.4672 164.064 41.009C166.739 41.9974 168.091 45.0716 166.468 46.47C166.16 46.7353 165.506 47.3931 165.016 47.9319C164.524 48.471 163.924 49.1252 163.681 49.386C163.264 49.8326 163.279 49.8506 163.94 49.6926C164.327 49.6004 165.406 49.5319 166.339 49.5403C167.272 49.5487 168.128 49.443 168.24 49.3059C168.557 48.9228 174.048 53.2076 174.816 54.4377C175.582 55.6636 175.674 57.2273 175.013 57.7776C174.759 57.9883 174.305 58.687 174.005 59.3293C173.704 59.9716 173.247 60.6783 172.99 60.8997C172.733 61.1215 172.36 61.6857 172.16 62.1536C171.961 62.6211 171.677 63.0592 171.53 63.1282C171.383 63.1965 171.339 63.4034 171.433 63.5872C171.526 63.771 171.486 63.9221 171.342 63.9221C171.198 63.9224 170.901 64.3577 170.681 64.8899C170.079 66.3469 168.224 69.4475 167.684 69.9006C167.422 70.1195 167.295 70.2997 167.4 70.3C167.702 70.3 166.371 72.1266 165.242 73.261C163.989 74.5194 162.962 75.5431 162.761 75.7356C162.594 75.8946 161.549 76.3617 160.268 76.8489C159.005 77.329 157.789 77.1422 157.663 76.4495C157.606 76.1363 157.384 75.7262 157.169 75.5383C156.519 74.9702 155.618 73.4576 155.021 71.9299C154.576 70.7907 154.12 70.2215 152.858 69.2336C151.979 68.5448 151.259 67.9384 151.259 67.887C151.261 67.5817 153.695 67.8915 155.902 68.4778C157.316 68.8534 158.679 69.16 158.931 69.1604C159.573 69.1604 160.37 68.3292 161.988 65.9709C163.755 63.3961 164.662 61.5851 165.6 58.7561C166.857 54.9636 166.894 55.3546 165.254 55.1213C163.053 54.8081 157.294 55.4343 153.567 56.3918C152.714 56.6109 151.846 56.7464 151.638 56.6926C151.43 56.6389 151.259 56.7056 151.259 56.8411C151.259 56.9768 151.042 57.0881 150.775 57.0881C150.509 57.0881 149.861 57.237 149.337 57.4192C148.812 57.6013 147.053 58.1218 145.427 58.5754C142.152 59.4888 141.348 59.4854 139.466 58.5471C138.877 58.2533 138.056 57.5997 137.643 57.095C137.229 56.59 136.805 56.177 136.7 56.177C136.596 56.177 136.141 56.5788 135.688 57.0696C134.168 58.7208 126.976 63.3963 125.705 63.5598C125.526 63.5829 125.062 63.7333 124.673 63.8938C123.624 64.3275 123.529 64.0348 124.43 63.1458C124.869 62.7123 125.229 62.2831 125.229 62.1926C125.23 62.1013 125.604 61.6594 126.061 61.2102C127.554 59.7423 128.256 58.8962 128.256 58.5588C128.256 58.3764 128.365 58.2268 128.498 58.2268C128.631 58.2264 129.049 57.7911 129.427 57.259C130.409 55.8738 131.039 55.0587 131.975 53.9612C132.426 53.4311 132.796 52.8411 132.796 52.6506C132.796 52.4604 132.94 52.3049 133.116 52.3049C133.292 52.3049 133.352 52.2025 133.25 52.0774C133.147 51.9521 133.194 51.8489 133.354 51.8489C133.514 51.8488 133.789 51.5368 133.966 51.1555C134.142 50.774 134.574 50.1594 134.924 49.7893C135.274 49.4191 135.449 49.1125 135.313 49.1086C135.177 49.1048 135.305 48.9972 135.596 48.8694C135.887 48.7415 136.125 48.4789 136.125 48.2854C136.125 48.0915 136.316 47.6609 136.55 47.3284C137.798 45.5518 140.362 41.2852 140.362 40.9866C140.361 40.7674 136.763 43.0297 136.598 43.3538C136.461 43.6224 136.09 43.6737 134.948 43.5813C133.044 43.4273 131.979 42.9977 130.231 41.6829C128.194 40.1494 127.786 39.6331 128.269 39.1956C128.481 39.0028 128.857 38.9028 129.104 38.9739C129.35 39.0451 129.838 38.9677 130.189 38.802C130.541 38.636 131.407 38.3608 132.114 38.1907C132.821 38.0207 133.4 37.7851 133.401 37.6663C133.401 37.5476 133.596 37.5066 133.835 37.5754C134.074 37.6445 134.321 37.5864 134.383 37.4465C134.445 37.3071 134.76 37.1701 135.083 37.1418C135.763 37.0822 137.718 36.5357 137.941 36.343C138.025 36.2711 138.706 36.0498 139.454 35.8518C142.329 35.0915 143.132 34.8275 143.521 34.5168C143.743 34.34 144.905 32.1969 146.104 29.7542C147.302 27.3115 148.592 24.8262 148.97 24.2307C149.662 23.1417 149.57 22.8582 148.729 23.4905C148.48 23.6783 148.166 23.8322 148.033 23.8323C147.9 23.8323 146.664 24.7128 145.287 25.7893C143.428 27.2433 142.784 27.9025 142.784 28.3538C142.784 28.7146 142.538 29.0773 142.179 29.2463C141.846 29.4028 141.573 29.6809 141.573 29.8645C141.573 30.0487 141.164 30.8702 140.665 31.6907C140.166 32.5113 139.757 33.3743 139.757 33.6086C139.757 33.8432 139.276 34.3527 138.688 34.7415C135.565 36.8044 131.852 34.3303 131.328 29.8381C130.956 26.6424 131.044 25.895 131.854 25.4016C132.242 25.165 132.832 24.9711 133.166 24.9709C133.723 24.9709 137.174 26.9902 137.724 27.6379C138.062 28.0368 139.136 27.4973 143.274 24.8489C147.781 21.9643 149.67 20.1441 149.835 18.5276C149.903 17.8627 151.277 16.6207 152.297 16.302ZM156.756 46.553C157.096 46.0608 157.142 46.0563 153.853 46.8469C152.366 47.2042 151.038 47.4452 150.901 47.3821C150.765 47.3188 150.654 47.382 150.653 47.5227C150.653 47.6786 150.408 47.7211 150.026 47.6301C149.373 47.4739 147.628 47.8977 147.627 48.2131C147.627 48.52 144.714 49.2785 143.349 49.3264C143.067 49.3365 142.298 50.0551 141.564 50.9954C140.856 51.9036 139.809 53.143 139.239 53.7502C138.669 54.3572 138.25 54.8907 138.308 54.9348C138.414 55.0142 143.137 54.0297 143.995 53.7493C144.245 53.6678 144.586 53.5911 144.752 53.5784C144.919 53.5654 145.332 53.4359 145.67 53.2903C146.009 53.1443 146.69 52.9818 147.184 52.929C147.677 52.8761 148.285 52.7659 148.535 52.6848C148.785 52.6037 149.262 52.5006 149.595 52.4553C149.927 52.41 150.404 52.3208 150.653 52.2571C150.903 52.1933 151.653 52.0177 152.318 51.8665C154.117 51.4581 154.892 51.1267 154.892 50.7668C154.892 50.4108 156.319 47.1842 156.756 46.553ZM152.846 36.1506C152.721 36.1604 152.414 36.2172 152.164 36.2776C150.37 36.7122 148.835 37.395 148.835 37.7581C148.835 38.2356 147.906 39.7766 147.618 39.7766C147.511 39.7768 147.422 39.9201 147.422 40.095C147.422 40.3972 146.273 42.3712 145.333 43.6838C144.766 44.4757 144.787 44.6429 145.43 44.4514C145.721 44.3647 146.215 44.2542 146.526 44.2063C147.592 44.0437 148.582 43.3864 149.023 42.5491C149.266 42.0889 149.854 41.0975 150.331 40.3459C150.808 39.5943 151.469 38.506 151.799 37.927C152.129 37.3486 152.55 36.8046 152.735 36.718C153.114 36.542 153.195 36.1231 152.846 36.1506Z" fill="white"/>
<path fill-rule="evenodd" clip-rule="evenodd" d="M153.162 57.8666C152.773 58.1285 153.095 58.6326 153.999 59.1768C154.543 59.5043 155.001 59.8813 155.017 60.0147C155.073 60.4943 156.252 61.9582 156.968 62.4386C158.53 63.4864 161.834 64.2387 161.834 63.5466C161.834 63.3831 162.054 63.1665 162.323 63.0652C163.083 62.7785 163.242 61.1214 162.601 60.1639C162.152 59.4942 161.745 59.2714 160.012 58.7497C158.881 58.4091 157.22 58.0846 156.32 58.0287C155.42 57.9728 154.684 57.9135 154.684 57.8967C154.684 57.8076 153.291 57.7799 153.162 57.8666Z" fill="white"/>
<path fill-rule="evenodd" clip-rule="evenodd" d="M145.923 60.1597C144.721 60.766 144.692 61.7362 145.841 62.8779C146.395 63.4288 146.85 64.0599 146.851 64.2806C146.855 64.9578 149.751 66.814 150.803 66.814C152.258 66.814 153.215 65.5335 152.959 63.9294C152.848 63.2396 152.683 62.1766 152.59 61.5671C152.387 60.2259 152.24 60.0975 151.36 60.4928C150.536 60.8635 148.086 60.6363 147.509 60.1356C147.008 59.7014 146.827 59.7042 145.923 60.1597Z" fill="white"/>
<path fill-rule="evenodd" clip-rule="evenodd" d="M133.294 59.9776C132.739 60.2635 131.229 62.4631 130.433 64.1469C130.1 64.8494 129.559 65.7433 129.23 66.1334C128.108 67.4645 127.808 68.4059 128.111 69.6455C128.262 70.2614 128.38 70.9952 128.373 71.2762C128.367 71.5575 128.473 71.8482 128.609 71.9223C128.745 71.9966 128.798 72.1898 128.728 72.3514C128.561 72.7367 129.612 73.5929 130.488 73.7849C131.534 74.0146 132.866 72.8605 133.634 71.0568C133.974 70.2579 134.221 69.5148 134.183 69.4057C134.144 69.2963 134.249 69.0613 134.416 68.8832C134.583 68.705 134.642 68.5592 134.547 68.5592C134.453 68.5592 134.502 68.349 134.657 68.092C135.119 67.3296 135.112 61.3772 134.649 60.5646C134.204 59.783 133.915 59.6578 133.294 59.9776Z" fill="white"/>
<path fill-rule="evenodd" clip-rule="evenodd" d="M139.464 62.2033C138.817 62.8693 138.854 65.5902 139.528 66.9179C139.806 67.4653 139.987 68.034 139.929 68.1816C139.737 68.675 141.041 70.4604 141.767 70.698C143.768 71.3534 145.491 69.1251 144.872 66.6808C144.802 66.4028 144.735 65.3862 144.724 64.422L144.703 62.6686L143.957 63.3195C143.066 64.0969 142.426 63.9251 141.578 62.6813C140.932 61.7325 140.104 61.5452 139.464 62.2033Z" fill="white"/>
</svg>
