<svg width="40" height="92" viewBox="0 0 40 92" fill="none" xmlns="http://www.w3.org/2000/svg">
<path fill-rule="evenodd" clip-rule="evenodd" d="M26.7907 5.70452C26.6955 5.72449 26.5282 5.75971 26.4191 5.78277C26.3099 5.80591 26.244 5.86221 26.2726 5.90798C26.3012 5.95375 26.281 5.9912 26.2277 5.9912C26.1744 5.9912 26.1559 6.03131 26.1866 6.08033C26.2171 6.12936 26.1415 6.24789 26.0184 6.34371C25.7348 6.56439 25.7363 6.65918 26.0253 6.76786C26.1965 6.83222 26.2307 6.87953 26.1582 6.95126C26.0857 7.02309 26.098 7.07502 26.2058 7.1531C26.323 7.23786 26.3305 7.28277 26.2445 7.38527C26.1601 7.48598 26.1623 7.61642 26.2556 8.01589C26.3849 8.56928 26.3376 9.22921 26.1 10.1907C26.0243 10.4971 25.9294 10.8828 25.889 11.0478C25.8488 11.2128 25.7136 11.728 25.5886 12.1927C25.4637 12.6575 25.3615 13.1107 25.3615 13.1997C25.3615 13.2889 25.3276 13.3618 25.2861 13.3618C25.2446 13.3618 25.1832 13.6025 25.1495 13.8966C25.1159 14.1907 25.0482 14.4792 24.9993 14.5377C24.9503 14.5961 24.9045 14.8181 24.8976 15.0311C24.8908 15.244 24.8576 15.4184 24.824 15.4185C24.7562 15.4187 24.4748 16.2599 23.9782 17.947C23.7979 18.5598 23.5697 19.2926 23.471 19.5754C23.3724 19.8582 23.1736 20.4601 23.0293 20.9129C22.8851 21.3657 22.7401 21.8059 22.707 21.8911C22.6674 21.9933 22.6794 22.0262 22.7423 21.9878C22.8828 21.9019 22.9557 22.0729 22.8542 22.2502C22.7301 22.467 22.3068 24.0805 22.3602 24.1334C22.3846 24.1575 22.4845 24.0218 22.5825 23.8319C22.8065 23.3974 22.9788 23.2734 22.9175 23.5907C22.8641 23.8671 22.9775 23.893 23.067 23.6249L23.1315 23.4321L23.1698 23.6249C23.1909 23.731 23.2489 23.8178 23.2988 23.8178C23.3487 23.8178 23.3691 23.8949 23.3442 23.9892C23.3159 24.0963 23.3416 24.1606 23.4126 24.1606C23.4864 24.1606 23.5092 24.2255 23.4775 24.3454C23.444 24.472 23.4602 24.511 23.5289 24.4689C23.584 24.4352 23.6292 24.3135 23.6292 24.1984C23.6292 24.0613 23.6814 23.9847 23.7808 23.9762C23.8641 23.969 23.984 23.959 24.0473 23.954C24.1104 23.9491 24.2663 23.8103 24.3938 23.6457C24.8475 23.0592 25.5629 22.4317 26.4451 21.8466C26.5518 21.7759 26.822 21.5889 27.0457 21.4312C27.2695 21.2735 27.4758 21.1674 27.5043 21.1956C27.6337 21.3237 27.6919 22.2774 27.6068 22.875C27.5149 23.5193 27.2566 24.7628 27.0819 25.401C27.0307 25.5883 26.9536 25.987 26.9107 26.287C26.8677 26.587 26.7778 27.0122 26.7109 27.2321C26.278 28.6532 26.1943 28.878 26.1076 28.8525C26.0546 28.837 25.8942 28.5848 25.7513 28.2922C25.6084 27.9997 25.452 27.7603 25.4037 27.7603C25.3555 27.7602 25.2775 27.6885 25.2305 27.6007C25.1834 27.513 25.044 27.2912 24.9207 27.1079C24.7972 26.9246 24.6698 26.6685 24.6375 26.5389C24.6051 26.4093 24.5197 26.3032 24.4477 26.3032C24.3757 26.3032 24.294 26.2447 24.2663 26.1731C24.2385 26.1016 24.1715 26.0483 24.1174 26.0548C23.9183 26.0783 23.7933 26.0443 23.8349 25.9777C23.8584 25.9401 23.8418 25.8533 23.798 25.7849C23.732 25.6817 23.7182 25.686 23.7171 25.8104C23.7157 25.9736 23.5851 26.0121 23.4992 25.8747C23.4698 25.8276 23.4935 25.789 23.5519 25.789C23.6576 25.789 23.5803 25.6637 23.4704 25.6568C23.4386 25.6549 23.2879 25.5874 23.1355 25.5068C22.8405 25.3511 22.6316 25.3067 22.8496 25.4462C22.9277 25.496 22.9384 25.5297 22.8764 25.5306C22.8196 25.5313 22.7491 25.4933 22.7197 25.4462C22.6431 25.3235 22.5535 25.3395 22.3588 25.5104C22.1144 25.725 21.9929 26.0794 22.1567 26.0997C22.3558 26.1243 22.3674 26.1381 22.2505 26.2113C22.1826 26.2538 22.0434 26.2563 21.9386 26.2169C21.8345 26.1777 21.5083 26.1674 21.2137 26.1938C20.7903 26.2318 20.6559 26.2139 20.5728 26.1085C20.4842 25.9962 20.3787 25.9881 19.9046 26.0572C19.5949 26.1024 19.2636 26.174 19.1683 26.2163C19.0731 26.2586 18.8626 26.3191 18.7006 26.3507C18.4436 26.4008 18.4136 26.389 18.4644 26.2579C18.5099 26.1406 18.4976 26.1281 18.4089 26.2011C18.3235 26.2712 18.2701 26.255 18.1955 26.1368C18.1086 25.9991 18.1201 25.9843 18.2857 26.02C18.3972 26.0441 18.4371 26.0314 18.3825 25.9893C18.2227 25.866 18.1807 25.6439 18.2609 25.3467C18.3035 25.1893 18.3601 24.9544 18.3868 24.8248C18.4136 24.6952 18.4932 24.5891 18.5637 24.5891C18.6343 24.5891 18.6968 24.5313 18.7028 24.4606C18.7259 24.1855 18.7388 24.1522 18.8475 24.0857C18.9093 24.0479 18.9689 23.8779 18.9798 23.708C18.9908 23.538 19.0279 23.371 19.0624 23.337C19.0969 23.3029 19.125 23.1682 19.125 23.0377C19.125 22.9072 19.1696 22.6919 19.224 22.5592C19.2784 22.4265 19.3378 22.1087 19.3559 21.853C19.4001 21.2282 19.367 21.2622 20.5151 20.6589C20.8163 20.5006 21.213 20.221 21.3965 20.0375C21.58 19.854 21.782 19.704 21.8452 19.704C22.0428 19.704 22.4165 19.3569 22.4165 19.1735C22.4165 19.0373 22.3757 19.0089 22.2334 19.0457C22.0564 19.0915 22.0571 19.0858 22.2547 18.8777C22.4037 18.7208 22.5251 18.6718 22.7016 18.6974C23.0249 18.7444 23.0878 18.6241 22.7725 18.5617C22.4804 18.5038 22.3902 18.3267 22.5032 18.0325C22.5573 17.8917 22.6426 17.8267 22.7552 17.8405C22.8487 17.852 22.9268 17.8232 22.9286 17.7767C22.9304 17.7303 22.8116 17.7046 22.6644 17.72C22.4884 17.7382 22.4169 17.7159 22.4552 17.6545C22.4872 17.6032 22.5695 17.5613 22.6382 17.5613C22.7915 17.5613 22.8031 17.4203 22.6547 17.361C22.5933 17.3364 22.6161 17.3148 22.7073 17.311C22.8185 17.3063 22.8516 17.2615 22.8146 17.1662C22.7735 17.0601 22.7965 17.0425 22.9136 17.0901C23.114 17.1717 23.4586 17.2405 23.2827 17.1637C23.2112 17.1326 23.1283 17.0701 23.0984 17.0247C23.0506 16.9523 22.8669 16.9198 22.3088 16.8851C22.1877 16.8776 22.1654 16.8162 22.1965 16.5757C22.2208 16.3879 22.1989 16.2758 22.1379 16.2758C22.0843 16.2758 21.9703 16.2129 21.8845 16.1362C21.74 16.0068 21.694 16.0106 21.2532 16.1877C20.9917 16.2926 20.7608 16.3651 20.74 16.3486C20.7193 16.3321 20.6203 16.3921 20.52 16.4819C20.4197 16.5717 20.3377 16.6053 20.3377 16.5566C20.3377 16.508 20.3954 16.4208 20.4658 16.3629C20.5363 16.3051 20.6484 16.1499 20.7148 16.018C20.8233 15.8029 20.8189 15.7615 20.6727 15.6169C20.5131 15.459 20.5132 15.4422 20.6759 14.8158C20.7673 14.4639 20.9069 13.8675 20.9861 13.4904C21.0653 13.1133 21.1668 12.7083 21.2118 12.5905C21.2566 12.4726 21.309 12.2605 21.3281 12.1191C21.3839 11.7059 21.5464 11.0246 21.6513 10.7648C21.7811 10.4436 21.5989 9.87362 21.3421 9.79683C21.2422 9.76692 21.0782 9.66802 20.9775 9.577C20.8769 9.48607 20.7599 9.41939 20.7177 9.4289C20.6072 9.45376 20.2623 9.30257 20.2563 9.22655C20.2534 9.19116 20.2311 9.16305 20.2069 9.16399C20.0937 9.16844 19.6347 8.88656 19.6808 8.84088C19.7094 8.81251 19.6519 8.70401 19.5528 8.59971C19.3832 8.42084 19.3577 8.4175 19.1078 8.54083C18.962 8.61282 18.8237 8.74352 18.8006 8.83128C18.755 9.00372 18.6053 9.05231 18.6053 8.8947C18.6053 8.8282 18.5651 8.83145 18.4754 8.90516C18.4039 8.96387 18.3455 9.06723 18.3455 9.13493C18.3455 9.20273 18.307 9.23452 18.26 9.20581C18.2129 9.17702 18.1206 9.20324 18.0549 9.26401C17.9535 9.35768 17.9563 9.40705 18.0735 9.58977C18.1494 9.70821 18.2489 9.83103 18.2946 9.86283C18.3453 9.89805 18.3343 9.97227 18.2663 10.0533C18.1754 10.1618 18.1767 10.2074 18.274 10.3037C18.3504 10.3793 18.3871 10.587 18.3766 10.8846C18.365 11.2128 18.4085 11.4256 18.5261 11.615C18.726 11.937 18.7311 11.9905 18.562 11.9905C18.4906 11.9905 18.4282 12.0581 18.4234 12.1405C18.4186 12.223 18.4005 12.5412 18.3831 12.8476C18.3658 13.154 18.2941 13.7518 18.2239 14.176C18.1536 14.6002 18.0725 15.2173 18.0435 15.5473C17.9681 16.4071 17.9403 16.5775 17.8462 16.7579C17.8001 16.8463 17.7608 17.0969 17.7588 17.3148C17.7563 17.584 17.6864 17.8188 17.5409 18.0469C17.2719 18.4684 16.7442 18.9326 16.534 18.9326C16.4462 18.9326 16.0728 19.0917 15.7042 19.2861C15.1826 19.5612 15.0185 19.6143 14.9632 19.5259C14.9241 19.4633 14.9098 19.3841 14.9312 19.3497C14.9526 19.3154 14.9306 19.2631 14.8821 19.2334C14.8295 19.2012 14.7941 19.2903 14.7941 19.4551V19.7305L14.606 19.5673C14.5026 19.4774 14.4446 19.4494 14.4774 19.5049C14.5124 19.5646 14.4634 19.629 14.3574 19.6622C14.2286 19.7027 14.1195 19.6561 13.9705 19.497C13.8564 19.3751 13.8024 19.2754 13.8506 19.2754C13.8988 19.2754 13.9126 19.2345 13.8814 19.1846C13.8455 19.127 13.7841 19.1488 13.7137 19.2441C13.6231 19.3664 13.6236 19.415 13.7158 19.5062C13.778 19.5679 13.8707 19.6182 13.9218 19.6182C13.9728 19.6182 14.0146 19.6536 14.0146 19.6969C14.0146 19.7402 14.0413 19.8463 14.0741 19.9326C14.1253 20.0677 14.1143 20.0741 13.9952 19.9783C13.8467 19.8589 13.6991 19.9741 13.7979 20.1324C13.8288 20.1818 13.7668 20.2089 13.6515 20.1967C13.5105 20.1816 13.4548 20.2176 13.4625 20.3185C13.4691 20.4072 13.4279 20.4445 13.3542 20.4165C13.2229 20.3666 13.1881 20.5223 13.3135 20.5989C13.3566 20.6253 13.3716 20.724 13.3467 20.8182C13.3156 20.9361 13.3441 20.9895 13.4384 20.9895C13.5137 20.9895 13.6171 21.0667 13.6681 21.1609C13.731 21.2771 13.7319 21.3323 13.6711 21.3323C13.4889 21.3323 13.5939 21.5323 14.0913 22.1319C14.6761 22.8368 14.9559 23.1075 15.1406 23.1471C15.2121 23.1625 15.3381 23.2714 15.4207 23.3893C15.5034 23.5071 15.6008 23.6069 15.6373 23.6109C15.6737 23.615 15.7721 23.6482 15.8559 23.6846C16.0417 23.7655 16.4729 23.5114 16.3859 23.3723C16.3492 23.3134 16.3661 23.3013 16.4303 23.3406C16.4873 23.3755 16.5876 23.36 16.6531 23.3062C16.752 23.2251 16.7508 23.2787 16.6465 23.6202C16.5066 24.0782 16.3503 25.0125 16.3075 25.6469C16.2922 25.8751 16.2575 26.0837 16.2305 26.1104C16.2036 26.137 16.2299 26.218 16.2891 26.2904C16.3748 26.3952 16.3746 26.4088 16.2884 26.3575C16.2167 26.3149 16.1849 26.3454 16.1939 26.4482C16.2256 26.8099 16.1747 27.3386 16.1119 27.3001C16.0745 27.2772 16.0361 27.4351 16.0266 27.6509C16.0172 27.8667 15.9991 28.0506 15.9864 28.0596C15.9738 28.0686 15.5859 28.3712 15.1244 28.7318C14.4833 29.2328 14.2291 29.3829 14.047 29.368C13.8126 29.3488 13.3688 28.9991 13.3662 28.8315C13.3655 28.7844 13.2578 28.744 13.1268 28.7419L12.8887 28.7378L13.1485 29.003C13.4047 29.2646 13.4845 29.4743 13.3279 29.4743C13.2837 29.4743 13.1765 29.3858 13.0897 29.2777C12.9218 29.0686 12.5054 28.9991 12.5805 29.1927C12.604 29.2533 12.5855 29.3029 12.5394 29.3029C12.3794 29.3029 12.4564 29.6255 12.6503 29.7679C12.8448 29.9107 12.8446 29.9109 12.5671 29.8669C12.2492 29.8164 12.0976 29.9628 12.3092 30.116C12.4159 30.1931 12.4253 30.2412 12.3485 30.3172C12.2716 30.3932 12.272 30.417 12.3498 30.417C12.4774 30.417 12.7915 31.0218 12.7394 31.167C12.7182 31.2259 12.7582 31.2741 12.8282 31.2741C13.0643 31.2741 13.4949 33.6096 13.4921 34.8737C13.4911 35.2744 13.4912 35.6986 13.4923 35.8164C13.4933 35.9343 13.4951 36.1964 13.4962 36.399C13.4975 36.6173 13.5328 36.7461 13.5832 36.7153C13.6299 36.6868 13.6681 36.7258 13.6681 36.802C13.6681 36.8783 13.6291 36.9169 13.5815 36.8877C13.5266 36.8541 13.4893 37.1189 13.4797 37.6112C13.4618 38.5311 13.4442 38.76 13.3611 39.1589C13.3171 39.3705 13.326 39.4337 13.3914 39.3732C13.4684 39.302 13.5357 39.0574 13.5744 38.709C13.5783 38.6736 13.6157 38.6447 13.6574 38.6447C13.6992 38.6447 13.7228 38.8471 13.71 39.0946C13.6878 39.5216 13.691 39.5292 13.7732 39.2446C13.8207 39.0796 13.876 38.8909 13.8959 38.8253C13.9584 38.6187 14.0231 38.7811 14.0665 39.2532C14.1063 39.6861 14.1878 39.9492 14.1878 39.6446C14.1878 39.566 14.2333 39.5017 14.2889 39.5017C14.3444 39.5017 14.3662 39.5251 14.3374 39.5537C14.3085 39.5823 14.3591 39.6845 14.4498 39.781C14.5843 39.9237 14.6387 39.9366 14.744 39.8501C14.815 39.7918 14.9138 39.769 14.9636 39.7994C15.0133 39.8298 15.054 39.7945 15.054 39.7211C15.054 39.6476 15.105 39.5874 15.1673 39.5874C15.2296 39.5874 15.3953 39.4355 15.5354 39.2498C15.6756 39.064 15.8725 38.8744 15.9731 38.8284C16.1995 38.725 16.3031 38.3961 16.13 38.3303C15.9337 38.2558 15.9838 38.1613 16.3316 37.9506C16.7378 37.7048 17.1618 37.5364 17.6092 37.4437C18.2957 37.3014 18.7303 37.1772 18.8313 37.0943C18.8879 37.0478 19.0063 36.9956 19.0945 36.9781C20.0352 36.7918 20.71 36.5175 20.846 36.2661C20.8998 36.1665 20.8746 35.8727 20.7708 35.3879C20.6849 34.9872 20.6278 34.5437 20.6439 34.4023C20.66 34.2609 20.7165 33.7402 20.7693 33.2453C20.8617 32.3792 20.9185 32.2035 21.3785 31.3598C21.4684 31.1948 21.544 30.9827 21.5465 30.8884C21.5526 30.6551 21.8674 30.1599 22.0095 30.1599C22.1912 30.1599 22.538 29.4906 22.4257 29.3566C22.3576 29.2755 22.3769 29.1997 22.498 29.071C22.6314 28.9293 22.6494 28.8361 22.5921 28.5846C22.5134 28.2395 22.5901 28.1192 22.7459 28.3433C22.8015 28.4233 22.9419 28.6237 23.0579 28.7886C23.174 28.9536 23.3541 29.2622 23.4581 29.4743C23.8955 30.3664 24.1807 30.8967 24.2911 31.0237C24.3558 31.0981 24.4092 31.2138 24.4098 31.2809C24.4104 31.3478 24.5044 31.5645 24.6187 31.7624L24.8266 32.1221L24.5837 32.7052C24.1156 33.8285 23.3328 35.4556 22.9153 36.1726C22.4403 36.9885 21.5865 38.1527 21.1679 38.5554C20.9495 38.7655 20.7708 38.9705 20.7708 39.0109C20.7708 39.0513 20.6538 39.1816 20.5109 39.3006C20.368 39.4196 20.2511 39.5649 20.2511 39.6234C20.2511 39.682 20.1528 39.7819 20.0329 39.8454C19.8728 39.9302 19.844 39.98 19.9246 40.0326C20.0379 40.1065 19.9929 40.1558 19.1585 40.873C18.7242 41.2463 18.9423 41.1184 19.4835 40.6825C19.8945 40.3514 20.0975 40.2573 19.9046 40.4873C19.7379 40.6862 19.8948 40.6393 20.1739 40.4069C20.312 40.2919 20.3883 40.1755 20.3433 40.1479C20.2984 40.1205 20.2233 40.166 20.1762 40.2492C20.1293 40.3322 20.0609 40.3705 20.0242 40.3343C19.9875 40.298 20.0431 40.1837 20.1476 40.0802C20.2609 39.9681 20.3377 39.9365 20.3377 40.002C20.3377 40.0623 20.3773 40.0875 20.4257 40.058C20.4741 40.0283 20.493 39.9709 20.4676 39.9303C20.4422 39.8896 20.4671 39.8285 20.5229 39.7944C20.5862 39.7557 20.6011 39.7695 20.5625 39.8313C20.5285 39.8857 20.5372 39.9303 20.5819 39.9303C20.6875 39.9303 20.8691 39.7133 20.8112 39.656C20.7867 39.6317 20.8357 39.5581 20.9203 39.4926C21.0545 39.3883 21.0612 39.3895 20.973 39.5017C20.8756 39.6258 20.8574 39.6776 20.8574 39.8301C20.8574 39.8692 20.7612 39.9522 20.6438 40.0144C20.5263 40.0766 20.4489 40.1575 20.4719 40.1941C20.4947 40.2307 20.3178 40.424 20.0786 40.6235C19.8395 40.823 19.6635 41.0059 19.6878 41.0299C19.712 41.0538 19.6635 41.1501 19.58 41.2439C19.2427 41.6228 20.0593 41.0103 20.7029 40.4016C20.8524 40.2602 21.0222 40.1549 21.0802 40.1677C21.1381 40.1803 21.2942 40.0646 21.4269 39.9105C21.5818 39.7306 21.6458 39.6917 21.6058 39.8017C21.5714 39.8964 21.7044 39.8004 21.903 39.5874C22.2516 39.2135 22.629 39.0437 22.527 39.3067C22.4936 39.3927 22.4606 39.4009 22.4185 39.3335C22.3757 39.265 22.3261 39.2744 22.2499 39.3654C22.1904 39.4363 22.1706 39.5405 22.2059 39.597C22.2474 39.6632 22.2332 39.6772 22.1663 39.6361C22.0533 39.5671 21.8102 39.7256 21.8102 39.8683C21.8102 39.917 21.8948 39.8834 21.9983 39.7936C22.1159 39.6915 22.1584 39.6785 22.1116 39.7589C22.0451 39.8731 22.0554 39.8731 22.2045 39.7589C22.2966 39.6881 22.4364 39.5532 22.5152 39.4589C22.9028 38.9944 23.0111 38.8993 23.061 38.9793C23.1276 39.0859 22.9523 39.3061 22.2866 39.9523C21.9946 40.2357 21.8618 40.4084 21.9834 40.3465C22.1025 40.2859 22.2351 40.2349 22.2778 40.2332C22.3207 40.2316 22.3862 40.1531 22.4234 40.0588C22.4605 39.9645 22.4937 39.9401 22.4971 40.0046C22.5004 40.0691 22.6938 39.8792 22.9267 39.5825C23.1597 39.2858 23.4131 39.034 23.4897 39.0229C23.6549 38.9989 23.6698 39.0844 23.5252 39.2275C23.4444 39.3074 23.4444 39.3303 23.5252 39.3303C23.5824 39.3303 23.6292 39.2918 23.6292 39.2446C23.6292 39.1975 23.6974 39.091 23.7808 39.008C23.8641 38.9249 24.053 38.694 24.2005 38.4948C24.348 38.2956 24.4913 38.155 24.5189 38.1823C24.5465 38.2097 24.6274 38.1208 24.6985 37.9847C24.7696 37.8487 25.0035 37.5478 25.2184 37.3163C25.4333 37.0848 25.6995 36.7475 25.8101 36.5668C25.9207 36.3861 26.1175 36.0662 26.2475 35.8559C26.3774 35.6456 26.5333 35.4747 26.5939 35.476C26.6546 35.4773 26.9518 35.9015 27.2545 36.4188C27.5572 36.936 27.8355 37.3591 27.8731 37.3591C27.9106 37.3591 27.9661 37.4571 27.9965 37.5769C28.03 37.7086 28.0903 37.7711 28.1493 37.735C28.2067 37.7 28.2227 37.7138 28.1883 37.7689C28.1563 37.8202 28.2185 37.9575 28.3266 38.0739C28.4347 38.1903 28.5621 38.3374 28.6097 38.4009C28.6574 38.4643 28.94 38.7856 29.2377 39.1149C29.5355 39.4441 29.7791 39.7629 29.7791 39.823C29.7791 39.8832 29.9253 40.092 30.1039 40.287C30.8238 41.073 30.8164 41.067 30.954 40.9541C31.0598 40.8673 31.0728 40.8734 31.028 40.9887C30.9945 41.0752 31.0269 41.1488 31.1126 41.1815C31.189 41.2104 31.2516 41.2835 31.2516 41.3437C31.2516 41.4039 31.3392 41.5118 31.4465 41.5833C31.5537 41.6549 31.7841 41.8425 31.9585 42.0003C32.3596 42.363 32.7635 42.608 33.2848 42.8051C33.6302 42.9356 33.7234 42.9424 33.8757 42.8483C34.0359 42.7493 34.0793 42.7627 34.2566 42.9668C34.465 43.2065 34.6926 43.1974 34.5554 42.9549C34.4751 42.8129 34.5212 42.5014 34.6225 42.5014C34.655 42.5014 34.7284 42.5477 34.7856 42.6042C34.8664 42.6842 34.8895 42.6842 34.8895 42.6042C34.8895 42.5477 34.8505 42.5014 34.8029 42.5014C34.7553 42.5014 34.7163 42.4587 34.7163 42.4065C34.7163 42.3543 34.7722 42.3329 34.8406 42.3589C34.909 42.3848 34.9813 42.36 35.0014 42.3038C35.0261 42.2346 35.1263 42.2649 35.3102 42.3968C35.6078 42.6103 35.6888 42.5041 35.4092 42.2673C35.1697 42.0644 35.1925 41.9751 35.4582 42.075C35.7637 42.1899 35.7956 42.1808 35.6587 42.0177C35.5538 41.8926 35.5624 41.883 35.7347 41.932C35.8415 41.9623 36.0118 42.0106 36.113 42.0392C36.2355 42.0738 36.2773 42.0595 36.2378 41.9963C36.2053 41.9441 36.2176 41.9015 36.2652 41.9015C36.3128 41.9015 36.3743 41.9376 36.402 41.9818C36.4577 42.0711 36.8954 42.3037 37.2282 42.4209C37.417 42.4873 37.4241 42.4837 37.2837 42.3921C36.641 41.9735 36.4389 41.7932 36.4832 41.6788C36.515 41.5968 36.4508 41.5227 36.2984 41.4653C35.8368 41.2917 36.2782 41.2396 36.8595 41.3991C37.1748 41.4856 37.4491 41.5401 37.4691 41.5203C37.4891 41.5005 37.3473 41.4421 37.154 41.3906C36.9607 41.339 36.779 41.2594 36.7503 41.2135C36.6864 41.1112 36.727 41.1094 36.9844 41.2033C37.4602 41.3769 37.6613 41.3938 37.6613 41.2603C37.6613 41.1887 37.6052 41.1301 37.5365 41.1301C37.4678 41.1301 37.3839 41.0856 37.3498 41.031C37.3054 40.9599 37.3676 40.9477 37.5704 40.9879L37.8529 41.0437L37.6488 40.8794L37.4448 40.7151L37.7912 40.7914C38.9498 41.0466 39.2062 41.091 39.1679 41.0296C39.1443 40.9919 38.9029 40.8974 38.6313 40.8198C38.0061 40.641 37.1862 40.2861 37.2508 40.2222C37.2778 40.1954 37.3788 40.2151 37.475 40.2661C37.5712 40.3171 37.6817 40.3572 37.7206 40.3554C37.7594 40.3535 37.6806 40.2926 37.5454 40.2201C37.1434 40.0046 37.3336 40.0024 37.8852 40.2163C38.1678 40.3259 38.5155 40.4443 38.6581 40.4795C38.916 40.5432 38.9164 40.5427 38.744 40.3778C38.6488 40.2867 38.5318 40.2241 38.4842 40.2386C38.4365 40.2533 38.2611 40.1912 38.0944 40.1008C37.9277 40.0105 37.6061 39.8529 37.3798 39.7505C37.1535 39.6483 36.9684 39.5304 36.9684 39.4887C36.9684 39.4106 37.4105 39.4877 37.4881 39.5792C37.5962 39.7067 37.9212 39.8402 37.9212 39.757C37.9212 39.708 38.0284 39.7458 38.1594 39.841C38.2904 39.9362 38.6075 40.053 38.8641 40.1006C39.4443 40.2085 39.5038 40.2085 39.437 40.1017C39.4075 40.0545 39.3201 40.016 39.2427 40.016C39.0277 40.016 38.433 39.7061 38.0944 39.4176C37.9277 39.2756 37.7012 39.1593 37.5912 39.1591C37.4812 39.159 37.4141 39.1223 37.4421 39.0775C37.4841 39.0102 37.2094 38.7944 37.055 38.7734C37.0312 38.7702 36.8558 38.6695 36.6652 38.5497C36.4746 38.4299 36.1823 38.2576 36.0156 38.1669C35.8488 38.0761 35.6493 37.9344 35.5723 37.8519C35.4952 37.7695 35.3907 37.7019 35.3399 37.7019C35.1921 37.7019 33.9003 36.9007 33.4958 36.5582C33.2924 36.3859 33.0803 36.245 33.0246 36.245C32.9689 36.245 32.8309 36.1257 32.718 35.98C32.6051 35.8343 32.3556 35.6362 32.1637 35.5399C31.9716 35.4436 31.6912 35.264 31.5403 35.1406C31.3894 35.0174 31.1652 34.8472 31.0422 34.7625C30.9191 34.6778 30.8185 34.5365 30.8185 34.4484C30.8185 34.2586 30.0971 33.6059 29.8079 33.534C29.6968 33.5064 29.6058 33.4548 29.6058 33.4194C29.6058 33.384 29.4694 33.2119 29.3027 33.0369C29.1359 32.862 28.9995 32.6831 28.9995 32.6393C28.9995 32.5955 28.9483 32.5597 28.8858 32.5597C28.8232 32.5597 28.6703 32.4536 28.5458 32.324L28.3196 32.0883L28.5206 31.6169C28.6311 31.3576 28.7903 30.9913 28.8743 30.8027C28.9584 30.6142 29.0307 30.4342 29.035 30.4027C29.0393 30.3714 29.072 30.3167 29.1078 30.2814C29.1435 30.246 29.1727 30.0687 29.1727 29.8874C29.1727 29.706 29.2083 29.4907 29.2519 29.4088C29.2954 29.327 29.374 29.0476 29.4266 28.7881C29.4792 28.5286 29.5814 28.2033 29.6537 28.0653C29.7261 27.9272 29.7675 27.7683 29.7457 27.7122C29.724 27.6561 29.764 27.4997 29.8348 27.3649C29.9054 27.23 30.0187 26.8589 30.0865 26.5402C30.1543 26.2215 30.2652 25.8293 30.333 25.6687C30.4008 25.508 30.5015 25.1615 30.5566 24.8987C30.6118 24.6358 30.6938 24.3981 30.739 24.3705C30.8274 24.3164 31.0821 23.7585 31.0625 23.662C31.056 23.6298 31.1339 23.43 31.2358 23.2178C31.4604 22.7502 31.4944 21.9247 31.2958 21.7616C31.2249 21.7034 31.1901 21.6186 31.2184 21.5732C31.2468 21.5277 31.1879 21.415 31.0875 21.3224C30.9872 21.2299 30.9051 21.1172 30.9051 21.0719C30.9051 21.0265 30.8076 20.9895 30.6885 20.9895C30.5661 20.9895 30.472 20.94 30.472 20.8754C30.472 20.8127 30.3765 20.7107 30.2596 20.6489C30.1428 20.5871 30.0499 20.513 30.0533 20.4845C30.0717 20.3275 30.0269 20.2757 29.9612 20.3783C29.9009 20.4724 29.8473 20.4571 29.6895 20.301C29.4977 20.1112 29.4969 20.1033 29.6576 19.9813C29.7482 19.9125 30.0367 19.7627 30.2988 19.6486C31.0211 19.3339 31.0845 19.3059 31.6077 19.0712C31.875 18.9512 32.2638 18.8153 32.4715 18.7691C32.6792 18.723 32.8893 18.6348 32.9382 18.5732C32.9874 18.5114 33.2382 18.4516 33.4985 18.4399C33.7577 18.4281 33.9916 18.3889 34.0182 18.3527C34.0448 18.3166 34.2561 18.2384 34.4877 18.1791C35.0431 18.0367 35.269 17.7675 35.2621 17.2565C35.2614 17.2063 35.3901 17.176 35.5516 17.1886C35.96 17.2204 35.9153 17.0805 35.4959 17.0142C35.1993 16.9673 35.1494 16.9287 35.1494 16.7461C35.1494 16.6289 35.1907 16.5329 35.2411 16.5329C35.2915 16.5329 35.3047 16.4878 35.2702 16.4326C35.2284 16.3656 35.2544 16.3502 35.3489 16.386C35.4267 16.4155 35.5134 16.4028 35.5415 16.3577C35.5697 16.3126 35.5588 16.2758 35.5175 16.2758C35.4762 16.2758 35.3715 16.2245 35.2849 16.1619C35.1587 16.0706 35.1461 16.0134 35.2213 15.8744C35.3256 15.6816 35.2237 15.6019 34.6112 15.3974C34.3519 15.3107 34.307 15.2651 34.3796 15.1615C34.4473 15.0649 34.4805 15.0596 34.5135 15.1402C34.5655 15.2668 34.8567 15.2835 34.9312 15.1642C34.9598 15.1185 34.8428 15.0231 34.6714 14.9522C34.2871 14.7933 33.8934 14.4942 33.8934 14.361C33.8934 14.3064 33.8058 14.2494 33.6985 14.2343C33.5046 14.207 33.4697 14.1406 33.4991 13.8546C33.5076 13.7722 33.4731 13.7046 33.4225 13.7046C33.3718 13.7046 33.3304 13.6468 33.3304 13.5761C33.3304 13.5054 33.2752 13.4475 33.2077 13.4475C33.1402 13.4475 33.072 13.4094 33.0561 13.3627C33.0285 13.2818 32.3158 13.6087 30.7483 14.4215C30.3525 14.6268 29.9841 14.8388 29.9298 14.8925C29.8755 14.9462 29.7748 14.9902 29.7061 14.9902C29.6374 14.9902 29.3299 15.1473 29.0227 15.3392C28.7155 15.5312 28.4098 15.6676 28.3434 15.6424C28.2769 15.6171 28.1827 15.6703 28.1339 15.7604C28.0852 15.8505 27.9531 15.9744 27.8404 16.0357C27.7276 16.0971 27.5195 16.2126 27.3779 16.2926C27.1286 16.4334 26.7028 16.4165 26.7946 16.2695C26.8196 16.2297 26.7915 16.1203 26.7323 16.0265C26.6398 15.88 26.6717 15.768 26.9591 15.2303C27.1431 14.8861 27.3655 14.5126 27.4536 14.4001C27.5416 14.2877 27.6136 14.1598 27.6136 14.1158C27.6136 14.072 27.7111 13.9096 27.8302 13.7551C27.9493 13.6006 28.0467 13.4528 28.0467 13.4268C28.0467 13.3333 28.7503 12.2356 29.1192 11.7535C29.5856 11.1439 29.8059 10.7265 29.7448 10.5687C29.7182 10.5002 29.7504 10.4478 29.8191 10.4478C29.9143 10.4478 29.9231 10.5068 29.8605 10.723C29.8096 10.8983 29.8118 11.0288 29.8665 11.0829C29.9231 11.1389 29.9523 11.1192 29.9523 11.0247C29.9523 10.9432 30.0003 10.8999 30.064 10.9242C30.1319 10.9499 30.2168 10.854 30.2806 10.6797C30.4174 10.3051 30.4176 10.3061 30.1905 10.2378C30.0833 10.2056 30.0387 10.1612 30.0913 10.1391C30.1439 10.1171 30.1694 10.0085 30.1481 9.89779C30.1267 9.78715 30.1545 9.66896 30.2097 9.63511C30.3543 9.54675 30.4362 9.66048 30.3146 9.78081C30.1661 9.92779 30.1889 10.0307 30.3637 10.0017C30.559 9.96918 30.6423 9.85305 30.6439 9.61102C30.6446 9.50432 30.6904 9.3456 30.7455 9.25818C30.8007 9.17076 30.8205 9.03389 30.7895 8.95393C30.7407 8.82837 30.7041 8.8414 30.5203 9.04966C30.3251 9.27095 30.3116 9.27489 30.3565 9.098C30.3835 8.99189 30.44 8.90516 30.4821 8.90516C30.5241 8.90516 30.5586 8.85057 30.5586 8.78372C30.5586 8.71695 30.6074 8.64462 30.6669 8.62302C30.7535 8.59165 30.7535 8.56106 30.6669 8.47021C30.5887 8.38819 30.5586 8.38519 30.5586 8.4595C30.5586 8.51606 30.5196 8.56234 30.472 8.56234C30.3214 8.56234 30.3783 8.25243 30.5586 8.09097C30.6539 8.00569 30.7306 7.8743 30.7291 7.79914C30.7268 7.68567 30.7051 7.69021 30.6016 7.82554C30.4891 7.97269 30.4714 7.97475 30.4219 7.84697C30.3916 7.76906 30.3895 7.64667 30.4173 7.57502C30.4779 7.41887 30.1192 6.97689 30.0377 7.10733C29.9562 7.23778 29.5493 6.89316 29.4849 6.63913C29.4291 6.41904 29.3962 6.40781 28.4626 6.29031C28.1838 6.25526 28.069 6.20495 28.0979 6.13047C28.1504 5.99506 27.7771 5.81979 27.4363 5.81979C27.2956 5.81979 27.1805 5.78122 27.1805 5.73409C27.1805 5.64658 27.0975 5.64033 26.7907 5.70452ZM10.687 7.09388C10.6496 7.15361 10.6425 7.22561 10.6711 7.25389C10.7486 7.33059 10.8332 7.21781 10.7912 7.09353C10.762 7.00646 10.7415 7.00646 10.687 7.09388ZM10.9829 7.1417C10.9829 7.21901 10.9245 7.30437 10.853 7.33145C10.7815 7.35862 10.7231 7.43575 10.7231 7.50286C10.7231 7.57005 10.7815 7.64719 10.853 7.67427C11.0205 7.73795 11.0209 7.95341 10.8535 8.01692C10.7823 8.044 10.7456 8.10057 10.772 8.14282C10.7983 8.18499 10.7612 8.21952 10.6894 8.21952C10.6175 8.21952 10.4523 8.31714 10.3222 8.43644C10.1341 8.60897 10.08 8.74404 10.0584 9.09594C10.0372 9.43893 10.0543 9.51546 10.1345 9.4361C10.2729 9.29915 10.4221 9.30309 10.3129 9.44081C10.2662 9.49978 10.1677 9.72715 10.0941 9.94613C9.99289 10.2471 9.98457 10.3687 10.0601 10.444C10.1358 10.5195 10.1278 10.5316 10.0268 10.4936C9.92307 10.4545 9.87127 10.5486 9.7928 10.9188C9.68669 11.4193 6.79261 17.2574 6.18637 18.1939C6.00689 18.4712 5.74444 18.9478 5.60317 19.253C5.46189 19.5581 5.20524 20.0255 5.03279 20.2915C4.65582 20.8731 4.31316 21.4609 3.9634 22.1259C3.82057 22.3973 3.50961 22.9054 3.27227 23.2549C3.03503 23.6044 2.84083 23.9271 2.84083 23.9721C2.84083 24.0171 2.78115 24.1029 2.70822 24.1628C2.47617 24.3533 1.62298 25.7854 0.874425 27.2406C0.475895 28.0155 0.11028 28.6967 0.0619472 28.7543C-0.125408 28.9776 0.15229 28.9562 0.363205 28.7311L0.58131 28.4984L0.528472 28.7078C0.488975 28.8646 0.615004 28.7718 1.03025 28.3382C1.33532 28.0197 1.65494 27.663 1.74052 27.5454C1.8261 27.4278 1.92961 27.3317 1.97058 27.3317C2.09808 27.3317 1.96391 27.7034 1.7232 28.0173C1.37655 28.4693 1.17646 28.7988 1.22159 28.8434C1.24376 28.8654 1.3439 28.7753 1.44411 28.6432C1.54433 28.511 1.66663 28.3554 1.71592 28.2973C1.76521 28.2391 1.88742 28.0542 1.98747 27.8865C2.08751 27.7187 2.18496 27.5969 2.2041 27.6158C2.26612 27.6771 1.6274 28.9478 1.40037 29.2148C1.22809 29.4174 1.20981 29.4743 1.3173 29.4743C1.39301 29.4743 1.45494 29.4164 1.45494 29.3457C1.45494 29.275 1.49314 29.2172 1.53983 29.2172C1.58643 29.2172 1.70648 29.0585 1.80644 28.8646C1.90648 28.6706 2.06317 28.4926 2.15473 28.4689C2.2462 28.4452 2.32112 28.3725 2.32112 28.3072C2.32112 28.2421 2.3601 28.1887 2.40774 28.1887C2.45538 28.1887 2.49436 28.1492 2.49436 28.101C2.49436 28.0527 2.63078 27.8169 2.79752 27.5771C2.96426 27.3372 3.10068 27.1068 3.10068 27.065C3.10068 27.0231 3.14053 26.9888 3.18929 26.9888C3.23806 26.9888 3.21407 27.0853 3.13602 27.2031C2.8669 27.6095 3.09601 27.4162 3.46604 26.9246C3.67002 26.6536 3.90511 26.357 3.98852 26.2657C4.07185 26.1742 4.1401 26.0618 4.1401 26.0157C4.1401 25.9696 4.16124 25.9528 4.18713 25.9784C4.28016 26.0704 3.80662 26.9422 3.08977 27.9984C2.95283 28.2001 2.84083 28.3869 2.84083 28.4137C2.84083 28.4403 2.76019 28.5742 2.6617 28.7112C2.56313 28.848 2.51445 28.9598 2.55343 28.9595C2.59241 28.9591 2.70761 28.8338 2.80939 28.6809C3.38626 27.8147 4.1401 26.632 4.1401 26.5932C4.1401 26.5306 4.37588 26.3032 4.44075 26.3032C4.46994 26.3032 4.39476 26.4705 4.27367 26.675C3.96349 27.1987 4.00177 27.2898 4.32079 26.787C4.46596 26.5583 4.5641 26.3176 4.5388 26.2524C4.51351 26.1873 4.52711 26.143 4.56895 26.1543C4.66137 26.179 5.4094 25.2462 5.48424 25.0128C5.5136 24.9211 5.5777 24.8462 5.62664 24.8462C5.67567 24.8462 5.61451 25.017 5.49091 25.2257C5.36731 25.4345 5.267 25.6369 5.26804 25.6757C5.27194 25.819 5.62803 25.3011 5.88234 24.782C6.02673 24.4874 6.20049 24.2463 6.26848 24.2463C6.37424 24.2463 6.43254 24.0947 6.40516 23.8903C6.40109 23.8594 6.46242 23.7823 6.5415 23.7189C6.64267 23.6377 6.66597 23.6352 6.62024 23.7106C6.58446 23.7696 6.5965 23.8178 6.64691 23.8178C6.69733 23.8178 6.73864 23.7644 6.73864 23.6991C6.73864 23.6338 6.83548 23.5176 6.9538 23.4408C7.07212 23.3641 7.1933 23.2054 7.2231 23.0882C7.25281 22.9709 7.33016 22.875 7.39495 22.875C7.46407 22.875 7.49214 22.8219 7.46294 22.7465C7.41305 22.6178 7.55814 22.5609 7.62674 22.6822C7.64666 22.7176 7.65143 22.6988 7.63713 22.6406C7.62293 22.5824 7.68339 22.4966 7.77157 22.4499C7.90271 22.3805 7.93857 22.3998 7.96836 22.5558C8.02241 22.8383 7.84302 25.2541 7.59712 27.5567C7.5461 28.0341 7.5111 28.709 7.51933 29.0566C7.52756 29.4042 7.51232 29.8235 7.48538 29.9885C7.36359 30.7359 7.23315 31.9739 7.21305 32.5739C7.20093 32.9352 7.16723 33.2689 7.13821 33.3153C7.05931 33.4416 6.82526 34.7064 6.82526 35.0065C6.82526 35.1502 6.78845 35.3045 6.74341 35.3493C6.62015 35.472 6.56376 36.9416 6.68511 36.8677C6.73838 36.8352 6.71353 36.9122 6.63003 37.0386C6.54644 37.1651 6.436 37.4625 6.38464 37.6995C6.33327 37.9365 6.2541 38.1305 6.2088 38.1305C6.12114 38.1305 6.14548 38.5149 6.23903 38.6075C6.26961 38.6377 6.21036 38.834 6.10737 39.0437C5.95362 39.3568 5.94141 39.438 6.03886 39.4975C6.12123 39.5479 6.14011 39.6561 6.10062 39.8516C6.05627 40.0708 6.09178 40.205 6.26121 40.4584C6.38091 40.6372 6.47879 40.8586 6.47879 40.9502C6.47879 41.194 6.85203 41.9869 6.96688 41.9871C7.08858 41.9872 7.34497 42.3629 7.34497 42.5413C7.34497 42.6136 7.37615 42.6728 7.41418 42.6728C7.4522 42.6728 7.57893 42.826 7.69569 43.0133C7.81262 43.2008 7.97737 43.3548 8.06226 43.3561C8.14714 43.3574 8.23904 43.4163 8.26641 43.487C8.29387 43.5577 8.36438 43.6156 8.42302 43.6156C8.48175 43.6156 8.57001 43.7028 8.61904 43.8093C8.66815 43.916 8.81124 44.0577 8.9371 44.1244C9.13667 44.2301 9.17972 44.2289 9.27326 44.1156C9.33225 44.0441 9.5559 43.8837 9.77028 43.7593C10.4799 43.3472 10.5131 43.2973 10.521 42.63C10.5249 42.3 10.5374 41.895 10.5488 41.7301C10.5601 41.5651 10.5439 41.2151 10.5127 40.9525C10.4792 40.6708 10.4946 40.374 10.5503 40.2291C10.6296 40.0225 10.616 39.945 10.4648 39.7426C10.3658 39.6101 10.3239 39.5017 10.3715 39.5017C10.4209 39.5017 10.4606 39.2342 10.4637 38.8804C10.4668 38.5387 10.4747 38.1047 10.4812 37.9162C10.492 37.6033 10.4886 37.3298 10.4564 35.9021C10.4294 34.7048 10.4945 33.2757 10.6438 31.7883C10.7252 30.9765 10.7357 30.6839 10.7167 29.7515C10.7135 29.5975 10.6747 29.4937 10.6304 29.5208C10.5861 29.5479 10.5498 29.5119 10.5498 29.4408C10.5498 29.3696 10.6127 29.2766 10.6896 29.2341C10.7925 29.177 10.8386 28.9903 10.865 28.5227C10.9346 27.2929 10.9739 26.8542 11.0681 26.2604C11.1203 25.9304 11.1777 25.564 11.1957 25.4462C11.2136 25.3283 11.2641 25.1162 11.3079 24.9748C11.3517 24.8334 11.3925 24.2786 11.3985 23.742L11.4095 22.7663L11.1529 22.5292C11.0118 22.3988 10.8963 22.25 10.8963 22.1986C10.8963 22.1472 10.8184 22.057 10.7231 21.9981C10.6278 21.9392 10.5498 21.8517 10.5498 21.8037C10.5498 21.7557 10.4704 21.6674 10.3734 21.6074C10.2764 21.5475 10.1589 21.3993 10.1123 21.2781C10.0616 21.1459 9.98085 21.0756 9.9106 21.1022C9.82675 21.1341 9.79548 21.0698 9.80025 20.8753C9.80397 20.726 9.77903 20.5246 9.74481 20.4277C9.7022 20.3067 9.7371 20.1938 9.85638 20.067C9.95192 19.9655 10.0301 19.8638 10.0301 19.8408C10.0301 19.8179 10.1664 19.6524 10.3329 19.4731C10.4994 19.2937 10.6359 19.1039 10.636 19.0514C10.6363 18.9989 10.7387 18.8549 10.8636 18.7312C10.9886 18.6076 11.1932 18.3756 11.3183 18.2156C12.0266 17.3106 12.9689 16.1839 13.2944 15.8529C13.5 15.6439 13.6681 15.4404 13.6681 15.4008C13.6681 15.3612 13.7693 15.2907 13.893 15.2441C14.0167 15.1976 14.1369 15.088 14.16 15.0006C14.1842 14.9091 14.3461 14.7945 14.5414 14.7308C14.728 14.6698 14.8809 14.5972 14.8812 14.5694C14.8814 14.5415 14.9983 14.3956 15.141 14.2449C15.2837 14.0943 15.4005 13.8992 15.4005 13.8113C15.4005 13.7236 15.456 13.5768 15.5238 13.4853C15.6306 13.3411 15.6303 13.3005 15.5213 13.181C15.4244 13.0747 15.4161 12.9892 15.4853 12.8095C15.5345 12.6811 15.5529 12.5408 15.5259 12.4976C15.4989 12.4544 15.5229 12.4191 15.5791 12.4191C15.6562 12.4191 15.657 12.3898 15.5828 12.3014C15.4762 12.1742 15.5302 11.9428 15.7173 11.7261C15.8748 11.5437 15.7229 11.1081 15.4373 10.9229C15.3217 10.848 15.2272 10.7068 15.2272 10.6092C15.2272 10.5108 15.1582 10.4139 15.0721 10.3916C14.9868 10.3696 14.8518 10.2027 14.7721 10.0208C14.6864 9.82494 14.5466 9.6657 14.4292 9.63031C14.1678 9.55137 13.9195 9.33086 13.9811 9.23221C14.0571 9.11051 13.7934 8.62688 13.4607 8.27789C13.1647 7.96729 12.9301 7.83068 13.1567 8.10082C13.2575 8.22107 13.2503 8.23503 13.1023 8.20684C13.0086 8.18893 12.9318 8.11753 12.9318 8.04811C12.9318 7.97869 12.8539 7.90799 12.7586 7.89102C12.6633 7.87396 12.5464 7.81963 12.4987 7.77009C12.4398 7.7089 12.4468 7.69947 12.5204 7.7406C12.58 7.77386 12.6287 7.76289 12.6287 7.71609C12.6287 7.66939 12.5507 7.60665 12.4554 7.57674C12.3602 7.54683 12.2822 7.48409 12.2822 7.43738C12.2822 7.39059 12.2406 7.37782 12.1898 7.40893C12.1388 7.44004 12.076 7.3845 12.0497 7.28543C12.0107 7.13767 11.9352 7.10536 11.6295 7.10536C11.4246 7.10536 11.1953 7.08197 11.12 7.05334C11.0294 7.01897 10.9829 7.04888 10.9829 7.1417ZM10.5065 7.8767C10.4771 7.92384 10.4943 7.96241 10.5447 7.96241C10.5951 7.96241 10.6365 7.92384 10.6365 7.8767C10.6365 7.82957 10.6193 7.791 10.5983 7.791C10.5772 7.791 10.536 7.82957 10.5065 7.8767ZM30.1324 8.95513C30.1365 9.05497 30.1571 9.07528 30.1847 9.00698C30.2097 8.9451 30.2066 8.87114 30.1778 8.84268C30.1491 8.81423 30.1287 8.86479 30.1324 8.95513ZM29.3741 10.8471C29.4055 10.8781 29.3876 10.9552 29.3346 11.0185C29.2637 11.1031 29.2639 11.1335 29.3354 11.1335C29.3888 11.1335 29.4326 11.1174 29.4326 11.0977C29.4326 11.0779 29.4562 11.0008 29.4852 10.9262C29.5162 10.8464 29.4924 10.7907 29.4274 10.7907C29.3668 10.7907 29.3428 10.816 29.3741 10.8471ZM29.6497 11.3039C29.6194 11.3525 29.6542 11.3669 29.7312 11.3376C29.8813 11.2806 29.9087 11.2192 29.7842 11.2192C29.7393 11.2192 29.6788 11.2573 29.6497 11.3039ZM32.6264 13.5975C32.5187 13.7334 32.5217 13.7364 32.6591 13.6299C32.7424 13.5652 32.8107 13.4976 32.8107 13.4799C32.8107 13.4094 32.7396 13.4547 32.6264 13.5975ZM33.6453 13.9194C33.6152 13.9971 33.6456 14.0474 33.7229 14.0474C33.863 14.0474 33.8949 13.9135 33.7726 13.8388C33.7299 13.8126 33.6727 13.849 33.6453 13.9194ZM14.7941 14.2189C14.7941 14.266 14.8308 14.3046 14.8756 14.3046C14.9205 14.3046 14.9812 14.266 15.0107 14.2189C15.0401 14.1717 15.0034 14.1331 14.9292 14.1331C14.8549 14.1331 14.7941 14.1717 14.7941 14.2189ZM34.11 14.9902C34.11 15.0373 34.1489 15.0759 34.1966 15.0759C34.2442 15.0759 34.2832 15.0373 34.2832 14.9902C34.2832 14.9431 34.2442 14.9045 34.1966 14.9045C34.1489 14.9045 34.11 14.9431 34.11 14.9902ZM27.0651 15.9044C27.0333 15.9358 27.0073 16.0354 27.0073 16.1258C27.0073 16.3049 27.1895 16.292 27.2513 16.1085C27.2774 16.0312 27.2514 16.0175 27.1701 16.066C27.0687 16.1265 27.0686 16.1153 27.1694 15.9923C27.281 15.8562 27.1906 15.7801 27.0651 15.9044ZM35.5392 16.6186C35.7757 16.7192 35.8423 16.7192 35.8423 16.6186C35.8423 16.5714 35.7351 16.5356 35.6041 16.5389C35.393 16.5443 35.3857 16.5533 35.5392 16.6186ZM14.9674 19.1091C14.9674 19.159 15.0063 19.176 15.054 19.1469C15.1016 19.1177 15.1406 19.0769 15.1406 19.0561C15.1406 19.0353 15.1016 19.0183 15.054 19.0183C15.0063 19.0183 14.9674 19.0592 14.9674 19.1091ZM22.9035 21.6602C22.8651 21.7698 22.8568 21.8823 22.885 21.9102C22.9748 21.999 23.0379 21.868 23.005 21.6611L22.9731 21.4609L22.9035 21.6602ZM7.73475 22.1894C7.7053 22.2365 7.72254 22.2751 7.77295 22.2751C7.82336 22.2751 7.86468 22.2365 7.86468 22.1894C7.86468 22.1423 7.84753 22.1037 7.82648 22.1037C7.80543 22.1037 7.7642 22.1423 7.73475 22.1894ZM22.5646 24.2463C22.5398 24.3406 22.5502 24.4177 22.5878 24.4177C22.6254 24.4177 22.6765 24.3406 22.7015 24.2463C22.7264 24.152 22.716 24.0749 22.6784 24.0749C22.6408 24.0749 22.5896 24.152 22.5646 24.2463ZM3.32797 25.4067C3.24438 25.6221 3.26898 25.6777 3.37111 25.504C3.42169 25.418 3.44482 25.3295 3.42247 25.3075C3.40021 25.2854 3.35759 25.33 3.32797 25.4067ZM4.02334 25.5889C3.93525 25.7054 3.88345 25.8207 3.90814 25.8451C3.93282 25.8695 4.01987 25.7886 4.10164 25.6652C4.29437 25.3742 4.23183 25.3132 4.02334 25.5889ZM23.0391 25.7087C23.0599 25.7705 23.1282 25.838 23.1907 25.8587C23.2557 25.8801 23.2882 25.8479 23.2665 25.7837C23.2456 25.7218 23.1774 25.6543 23.1149 25.6337C23.05 25.6123 23.0175 25.6444 23.0391 25.7087ZM3.10068 25.794C3.10068 25.8439 3.13966 25.861 3.1873 25.8318C3.23494 25.8027 3.27392 25.7619 3.27392 25.7411C3.27392 25.7202 3.23494 25.7033 3.1873 25.7033C3.13966 25.7033 3.10068 25.7442 3.10068 25.794ZM22.6764 25.789C22.6764 25.8361 22.7177 25.8747 22.7681 25.8747C22.8185 25.8747 22.8358 25.8361 22.8063 25.789C22.7769 25.7418 22.7356 25.7033 22.7146 25.7033C22.6935 25.7033 22.6764 25.7418 22.6764 25.789ZM3.0708 26.1171C2.99198 26.2034 2.92745 26.3064 2.92745 26.3461C2.92745 26.3857 2.86214 26.4897 2.78228 26.577C2.69427 26.6732 2.66863 26.7655 2.71731 26.8113C2.76521 26.8564 2.89185 26.7003 3.03191 26.4235C3.28527 25.9228 3.29116 25.8761 3.0708 26.1171ZM2.36443 26.1318C2.33498 26.1789 2.35222 26.2175 2.40263 26.2175C2.45304 26.2175 2.49436 26.1789 2.49436 26.1318C2.49436 26.0847 2.47721 26.0461 2.45616 26.0461C2.43511 26.0461 2.39388 26.0847 2.36443 26.1318ZM2.66759 26.1747C2.60635 26.2477 2.57578 26.3266 2.5996 26.3502C2.62342 26.3737 2.69297 26.3334 2.75421 26.2604C2.81545 26.1873 2.84603 26.1084 2.82221 26.0848C2.79839 26.0613 2.72883 26.1016 2.66759 26.1747ZM3.60229 26.322C3.39839 26.633 3.26396 26.9031 3.31307 26.9031C3.38245 26.9031 3.81139 26.2065 3.76834 26.1639C3.74746 26.1433 3.6728 26.2144 3.60229 26.322ZM20.2294 26.1885C20.289 26.2124 20.3865 26.2124 20.446 26.1885C20.5056 26.1648 20.4568 26.1453 20.3377 26.1453C20.2186 26.1453 20.1699 26.1648 20.2294 26.1885ZM21.5503 26.4099C21.5503 26.4975 21.6147 26.5244 21.7592 26.4971C21.9086 26.4688 21.9958 26.5087 22.0655 26.6375C22.1204 26.739 22.2464 26.8162 22.3546 26.8147C22.5377 26.8121 22.5392 26.8065 22.3862 26.6919C22.298 26.6258 22.2514 26.5308 22.2827 26.4809C22.3167 26.4264 22.2596 26.3929 22.1398 26.3971C22.0299 26.4008 21.8525 26.3768 21.7452 26.3436C21.6035 26.2997 21.5503 26.3178 21.5503 26.4099ZM2.03667 26.6378C1.9549 26.7748 1.88924 26.9193 1.8908 26.9592C1.89375 27.0378 2.10925 26.7812 2.24386 26.5389C2.38626 26.2827 2.19379 26.3745 2.03667 26.6378ZM2.28777 26.7716C2.06967 27.101 2.12952 27.2328 2.36711 26.946C2.48422 26.8046 2.58028 26.66 2.58054 26.6246C2.58149 26.4891 2.42168 26.5693 2.28777 26.7716ZM1.21613 26.9618C1.07936 27.1997 1.07954 27.2728 1.21674 27.1934C1.27633 27.159 1.25052 27.2148 1.15948 27.3174C1.06854 27.4201 1.01353 27.5234 1.03735 27.547C1.13956 27.6481 1.37941 27.2454 1.35256 27.0178C1.32423 26.7785 1.32207 26.7776 1.21613 26.9618ZM2.52156 27.1388C2.49193 27.2213 2.4481 27.3237 2.42428 27.3664C2.40046 27.409 2.42576 27.4164 2.4805 27.383C2.63632 27.2877 2.77838 26.9888 2.66794 26.9888C2.61709 26.9888 2.55127 27.0564 2.52156 27.1388ZM22.3299 27.3317C22.3299 27.3788 22.3689 27.4174 22.4165 27.4174C22.4642 27.4174 22.5031 27.3788 22.5031 27.3317C22.5031 27.2845 22.4642 27.246 22.4165 27.246C22.3689 27.246 22.3299 27.2845 22.3299 27.3317ZM0.727954 27.8101C0.622713 28.0813 0.750994 28.1059 0.915135 27.8459C1.00401 27.7051 1.00167 27.6745 0.901883 27.6745C0.835187 27.6745 0.756885 27.7355 0.727954 27.8101ZM12.5421 28.8824C12.5421 28.9251 12.62 28.9601 12.7153 28.9601C12.8106 28.9601 12.8885 28.9452 12.8885 28.9272C12.8885 28.9091 12.8106 28.8742 12.7153 28.8495C12.62 28.8249 12.5421 28.8396 12.5421 28.8824ZM12.6825 29.4354C12.6062 29.6318 12.9874 29.9429 13.0881 29.7665C13.1706 29.6217 13.0854 29.4497 12.967 29.5221C12.9215 29.55 12.8949 29.5265 12.908 29.4699C12.9452 29.3096 12.7432 29.2786 12.6825 29.4354ZM23.6292 29.4793C23.6292 29.5292 23.6682 29.5463 23.7158 29.5171C23.7634 29.488 23.8024 29.4472 23.8024 29.4264C23.8024 29.4055 23.7634 29.3886 23.7158 29.3886C23.6682 29.3886 23.6292 29.4295 23.6292 29.4793ZM18.1289 30.2456C17.9384 30.3832 17.7435 30.4974 17.6958 30.4996C17.605 30.5037 17.0264 30.7902 16.5484 31.0679C16.3913 31.1592 16.2296 31.3447 16.1819 31.4883C16.0569 31.8652 15.9099 32.8523 15.8691 33.5881C15.8496 33.9416 15.7927 34.4002 15.7427 34.607C15.6927 34.8138 15.6764 35.0938 15.7064 35.2292L15.761 35.4753L15.9922 35.3128C16.1193 35.2235 16.3699 35.0899 16.549 35.016C16.7281 34.9422 17.0829 34.745 17.3375 34.5777C17.5921 34.4105 17.8403 34.2737 17.8892 34.2737C18.1168 34.2737 18.5296 32.5439 18.5547 31.4845C18.5649 31.0581 18.5997 30.6668 18.6322 30.6148C18.6988 30.5081 18.6129 29.9866 18.5295 29.992C18.4997 29.9939 18.3195 30.1081 18.1289 30.2456ZM12.672 31.5312C12.7014 31.5783 12.7622 31.6169 12.807 31.6169C12.8519 31.6169 12.8885 31.5783 12.8885 31.5312C12.8885 31.4841 12.8277 31.4455 12.7535 31.4455C12.6793 31.4455 12.6425 31.4841 12.672 31.5312ZM23.9067 34.8775C23.8485 34.9697 23.8361 35.0451 23.8791 35.0451C23.9568 35.0451 24.0907 34.7875 24.0394 34.7367C24.0245 34.7221 23.9648 34.7854 23.9067 34.8775ZM34.2399 37.5305C34.2693 37.5777 34.3106 37.6162 34.3316 37.6162C34.3527 37.6162 34.3698 37.5777 34.3698 37.5305C34.3698 37.4834 34.3285 37.4448 34.2781 37.4448C34.2277 37.4448 34.2104 37.4834 34.2399 37.5305ZM21.9428 39.926C21.9109 39.977 21.8583 40.0029 21.8259 39.9837C21.7934 39.9644 21.5135 40.1803 21.2039 40.4633C20.8942 40.7465 20.7578 40.8999 20.9007 40.8044C21.0436 40.709 21.292 40.4955 21.4525 40.3301C21.6131 40.1647 21.7943 40.0482 21.8552 40.0713C21.968 40.1142 22.1229 39.954 22.0441 39.876C22.0202 39.8524 21.9747 39.8749 21.9428 39.926ZM21.366 40.0802C21.2584 40.2162 21.2614 40.2192 21.3988 40.1126C21.5431 40.0006 21.5889 39.9303 21.5176 39.9303C21.4997 39.9303 21.4314 39.9978 21.366 40.0802ZM19.3517 40.3583C18.94 40.6665 18.8531 40.7546 19.0817 40.6318C19.2803 40.525 19.7965 40.1082 19.7314 40.1072C19.7075 40.1067 19.5367 40.2198 19.3517 40.3583ZM39.6535 40.1954C39.6535 40.2381 39.7315 40.2731 39.8268 40.2731C39.922 40.2731 40 40.2583 40 40.2403C40 40.2222 39.922 40.1872 39.8268 40.1625C39.7315 40.1379 39.6535 40.1527 39.6535 40.1954ZM21.9831 40.4877C21.8714 40.6054 21.7306 40.7016 21.6703 40.7016C21.6099 40.7016 21.5365 40.7402 21.507 40.7873C21.4776 40.8344 21.5045 40.8715 21.5669 40.8695C21.7071 40.8652 22.2927 40.379 22.231 40.3181C22.2064 40.2936 22.0948 40.37 21.9831 40.4877ZM20.9013 40.9578C20.871 41.0063 20.9057 41.0207 20.9828 40.9915C21.1328 40.9345 21.1603 40.873 21.0357 40.873C20.9909 40.873 20.9304 40.9111 20.9013 40.9578ZM38.6141 41.1301C38.6141 41.1773 38.6531 41.2158 38.7007 41.2158C38.7484 41.2158 38.7873 41.1773 38.7873 41.1301C38.7873 41.083 38.7484 41.0444 38.7007 41.0444C38.6531 41.0444 38.6141 41.083 38.6141 41.1301ZM36.7085 41.8494C36.7085 41.868 36.769 41.9061 36.8429 41.9342C36.92 41.9634 36.9548 41.949 36.9244 41.9005C36.8736 41.819 36.7085 41.78 36.7085 41.8494ZM34.2832 42.6728C34.2832 42.7199 34.3222 42.7585 34.3698 42.7585C34.4175 42.7585 34.4564 42.7199 34.4564 42.6728C34.4564 42.6257 34.4175 42.5871 34.3698 42.5871C34.3222 42.5871 34.2832 42.6257 34.2832 42.6728Z" fill="#ADE838"/>
<path fill-rule="evenodd" clip-rule="evenodd" d="M11.2878 49.6879C11.2279 49.8706 10.7771 50.326 10.6409 50.3412C10.5892 50.347 10.4927 50.3564 10.4262 50.3622C10.3295 50.3706 10.3217 50.4434 10.3876 50.7278C10.4545 51.0165 10.4447 51.1008 10.3351 51.1784C10.1847 51.2851 10.1559 51.5133 10.2832 51.5896C10.3288 51.6169 10.3439 51.6953 10.3168 51.7638C10.2898 51.8322 10.3165 51.9455 10.3764 52.0155C10.456 52.1084 10.471 52.3629 10.4322 52.9603C10.3775 53.8003 10.1818 54.4944 9.73545 55.4313C9.61064 55.6933 9.45384 56.1095 9.38701 56.3562C9.19814 57.0533 8.89598 57.8846 8.78096 58.0238C8.72358 58.0931 8.61012 58.2823 8.5289 58.4442C8.33709 58.8261 8.18895 59.0501 8.05738 59.1569C7.99913 59.2042 7.78114 59.6212 7.57303 60.0837C7.25319 60.7942 6.27279 62.4408 5.68754 63.2503C5.59852 63.3734 5.41165 63.695 5.27227 63.9649C4.7549 64.967 4.23587 65.9028 3.85761 66.5156C3.64361 66.8624 3.33885 67.3732 3.1805 67.6506C3.02214 67.9281 2.65479 68.5027 2.36425 68.9276C2.07371 69.3524 1.68392 69.9308 1.49809 70.2129C1.31234 70.4949 1.06921 70.8094 0.957914 70.9117C0.846534 71.0141 0.75483 71.132 0.753963 71.1739C0.751276 71.3124 1.11515 70.9369 1.46117 70.4441C1.64865 70.177 1.83448 69.978 1.87418 70.0018C1.91388 70.0256 1.99952 69.9791 2.06453 69.8988C2.1714 69.7664 2.16828 69.7635 2.03098 69.8679C1.74001 70.0893 1.88779 69.834 2.24377 69.5003C2.50909 69.2516 2.5663 69.2213 2.46332 69.3839C2.3594 69.5479 2.349 69.628 2.42233 69.6992C2.49574 69.7704 2.48595 69.7946 2.38384 69.7946C2.30861 69.7946 2.19853 69.9081 2.13933 70.0468C2.08013 70.1856 2.00264 70.2991 1.96727 70.2991C1.93182 70.2991 1.79114 70.4599 1.65454 70.6564C1.51802 70.8529 1.27247 71.184 1.10899 71.3921L0.811692 71.7704L1.19056 71.401C1.39893 71.1978 1.57775 70.9766 1.58789 70.9095C1.59803 70.8425 1.71747 70.6872 1.85329 70.5644C2.29699 70.1633 2.6548 69.7128 2.61492 69.6055C2.59334 69.5477 2.65774 69.4057 2.75785 69.2901L2.93996 69.0799L2.79279 69.3185C2.55876 69.6975 2.69857 69.6692 2.9957 69.2774C3.27038 68.9151 3.34362 68.7293 3.17079 68.8329C3.10474 68.8725 3.10613 68.8346 3.17512 68.7094C3.23068 68.6087 3.31779 68.5545 3.37187 68.5869C3.43515 68.6248 3.44971 68.5964 3.41357 68.5052C3.37638 68.4112 3.40308 68.3653 3.49478 68.3653C3.5858 68.3653 3.61318 68.4114 3.57678 68.5033C3.5311 68.6187 3.54384 68.6239 3.65418 68.535C3.85397 68.3742 3.81263 68.5408 3.56491 68.8944C3.44321 69.0681 3.23458 69.4458 3.10127 69.7336C2.96796 70.0215 2.75543 70.376 2.62914 70.5214C2.32984 70.8657 2.33461 70.9722 2.63772 70.7134C2.86698 70.5177 2.86637 70.5203 2.62151 70.7828C2.46506 70.9506 2.41279 71.0558 2.48604 71.0558C2.55893 71.0558 2.50641 71.1605 2.35056 71.3258C2.21058 71.4743 2.16958 71.5411 2.25955 71.4741C2.34943 71.4072 2.69233 71.0019 3.02136 70.5735C3.65219 69.7521 3.86299 69.5518 3.46497 70.1519C2.98824 70.8706 2.48968 71.4524 1.65212 72.2672C1.1812 72.7254 0.912845 73.0218 1.05586 72.9259C1.35594 72.7245 3.14296 70.9717 3.04814 70.9717C3.01338 70.9717 3.03306 70.9153 3.092 70.8465C3.15094 70.7776 3.22756 70.7384 3.26223 70.7591C3.29699 70.78 3.41019 70.6324 3.51377 70.4311C3.71538 70.0397 3.95955 69.7801 3.95955 69.9575C3.95955 70.012 4.00462 70.0298 4.05966 69.9968C4.19557 69.9153 4.10118 70.0641 3.63902 70.6605C3.43116 70.9286 3.28416 71.1841 3.31216 71.2282C3.34024 71.2723 3.27315 71.3424 3.16298 71.3841C2.95548 71.4626 2.31173 72.0647 2.43533 72.0647C2.62194 72.0647 4.15631 70.6798 4.62445 70.0889C4.72109 69.9668 4.76946 69.9507 4.80075 70.0303C4.83282 70.1118 4.87408 70.1011 4.96231 69.9882C5.1016 69.8101 5.12293 69.6787 5.00063 69.752C4.94975 69.7825 4.93814 69.7447 4.97203 69.6591C5.01094 69.5608 4.99664 69.5343 4.92704 69.576C4.84894 69.6228 4.84903 69.586 4.92739 69.4192C4.99014 69.2856 5.0528 69.2375 5.08938 69.2949C5.12457 69.3502 5.26031 69.2132 5.42023 68.961C5.5694 68.7258 5.71233 68.5334 5.73782 68.5334C5.80603 68.5334 5.53595 69.0182 5.43367 69.0796C5.38565 69.1084 5.34638 69.1722 5.34638 69.2213C5.34638 69.2777 5.3944 69.2721 5.4764 69.2061C5.66423 69.0548 5.63259 69.2124 5.42569 69.4583L5.24887 69.6685L5.30209 69.4583C5.35332 69.2561 5.35028 69.2543 5.22087 69.4113C5.07006 69.5942 5.04102 69.7476 5.17208 69.6691C5.22209 69.6391 5.23717 69.6807 5.2083 69.7692C5.1654 69.9008 5.17771 69.8986 5.30209 69.7526C5.38088 69.6601 5.47934 69.5931 5.52086 69.6038C5.56247 69.6145 5.71571 69.4829 5.8615 69.3114C6.12266 69.0041 6.20917 68.8103 6.0398 68.9118C5.90164 68.9946 5.9396 68.8171 6.08513 68.7C6.19547 68.6111 6.20821 68.6163 6.16254 68.7318C6.05722 68.9978 6.1992 68.8655 6.51661 68.4016C6.69282 68.1442 6.85413 67.9501 6.87511 67.9704C6.91957 68.0135 5.88187 69.5582 5.75411 69.639C5.70661 69.669 5.69127 69.7529 5.72005 69.8255C5.74873 69.898 5.72889 69.9834 5.67593 70.015C5.61274 70.053 5.60364 70.0322 5.6494 69.9548C5.68771 69.8898 5.57677 69.967 5.40272 70.1264C5.05125 70.4483 5.01605 70.5114 5.23318 70.4306C5.36562 70.3812 5.36727 70.3906 5.24939 70.5267C5.17762 70.6096 5.04795 70.7909 4.96136 70.9296C4.74926 71.2692 6.1218 69.8565 6.4874 69.3589C6.64645 69.1424 7.02202 68.6589 7.32201 68.2844C7.62209 67.9099 7.90535 67.5195 7.95164 67.4169C8.05729 67.1824 7.97686 72.1281 7.85828 73.1577C7.81304 73.5508 7.73529 74.3264 7.68554 74.8813C7.6357 75.4362 7.5589 76.0605 7.51469 76.2686C7.47049 76.4766 7.41372 76.8959 7.38849 77.2002C7.36327 77.5046 7.2831 78.0532 7.21037 78.4193C7.13765 78.7855 7.05669 79.4764 7.03052 79.9548C7.00426 80.4331 6.95008 80.9079 6.91004 81.01C6.87008 81.1121 6.85751 81.298 6.88213 81.423C6.90683 81.5481 6.88854 81.6975 6.84165 81.7551C6.70886 81.918 6.72914 82.6525 6.88048 83.1629C7.11017 83.9371 7.40401 84.4593 7.83714 84.8625C8.06423 85.074 8.35633 85.3673 8.48626 85.5144C8.62676 85.6735 8.76389 85.7569 8.82473 85.7205C8.88445 85.6847 8.90396 85.6953 8.87163 85.746C8.8412 85.7938 8.97026 85.9317 9.15835 86.0524C9.52344 86.2868 9.78044 86.2676 10.0195 85.9882C10.1167 85.8746 10.1142 85.8534 10.0035 85.8534C9.93125 85.8534 9.84969 85.9101 9.82221 85.9795C9.76726 86.1186 9.33353 86.1559 9.33353 86.0215C9.33353 85.9753 9.27502 85.9375 9.20351 85.9375C9.132 85.9375 9.0735 85.8973 9.0735 85.8484C9.0735 85.7995 9.10921 85.7807 9.1528 85.8069C9.1964 85.833 9.25179 85.8069 9.27597 85.7488C9.30371 85.6819 9.32235 85.6943 9.32668 85.7824C9.33171 85.8841 9.38632 85.9088 9.52855 85.8739C9.63577 85.8476 9.74308 85.7991 9.76691 85.7662C9.84241 85.6619 10.3737 85.5808 10.3737 85.6736C10.3737 85.7208 10.3347 85.7827 10.287 85.8113C10.2393 85.8399 10.2003 85.9011 10.2003 85.9474C10.2003 86.1502 10.3772 85.8988 10.4612 85.5766C10.565 85.1789 10.8158 84.572 10.9029 84.5081C11.0353 84.4109 11.1403 83.4776 11.1157 82.6164C11.062 80.7387 11.0529 79.8888 11.0691 78.3123C11.0873 76.5424 11.0131 75.5035 10.8616 75.408C10.8075 75.3739 10.8024 75.3457 10.8504 75.345C10.9059 75.3443 10.9288 74.7765 10.9141 73.7673C10.888 71.9779 10.8875 71.9015 10.9019 71.7284C10.9166 71.5528 10.8028 69.3968 10.7599 69.0379C10.7406 68.8761 10.7209 68.499 10.7162 68.2001C10.7114 67.9012 10.6869 67.6241 10.6617 67.5845C10.6364 67.5449 10.6038 67.2787 10.5891 66.993C10.5745 66.7073 10.5182 66.0997 10.4641 65.6428C10.353 64.7056 10.2794 64.9042 11.1916 63.678C11.4067 63.389 11.558 63.1525 11.5281 63.1525C11.4981 63.1525 11.5322 63.0862 11.6039 63.0054C11.8083 62.7745 11.861 62.5639 11.7145 62.5639C11.6444 62.5639 11.5871 62.5261 11.5871 62.4799C11.5871 62.4336 11.6456 62.3958 11.7171 62.3958C11.7887 62.3958 11.8472 62.329 11.8472 62.2476C11.8472 62.166 11.9837 61.9027 12.1505 61.6623C12.3174 61.422 12.4549 61.1577 12.4563 61.0748C12.4576 60.9921 12.5919 60.8298 12.7548 60.7142C12.9175 60.5986 13.1017 60.41 13.1641 60.295C13.2264 60.1801 13.3348 60.0193 13.405 59.9376C13.4753 59.856 13.6325 59.6061 13.7546 59.3824C13.9741 58.9796 14.4367 58.5223 14.7287 58.4191C14.9547 58.3393 15.2394 57.8449 15.196 57.6077C15.1448 57.3278 15.244 57.1056 15.5722 56.7648C15.7976 56.5308 15.8499 56.4058 15.8532 56.0944C15.858 55.6483 15.8084 55.3286 15.7108 55.1753C15.6726 55.1154 15.6793 55.0296 15.7257 54.9846C15.7783 54.9336 15.7814 54.7547 15.7341 54.5089C15.6846 54.2521 15.6889 54.1052 15.7463 54.0866C15.8959 54.0382 15.8434 53.6016 15.661 53.3766C15.5656 53.259 15.4876 53.1225 15.4876 53.0731C15.4876 53.0238 15.3792 52.929 15.2466 52.8625C14.9386 52.7081 14.2061 52 14.1709 51.8228C14.1482 51.7082 13.4148 51.2584 12.9708 51.0866C12.8975 51.0583 12.7724 50.8577 12.693 50.6408C12.5674 50.2986 12.49 50.2199 12.1066 50.0438C11.8636 49.9322 11.6265 49.7714 11.5796 49.6865C11.4706 49.4887 11.3528 49.4893 11.2878 49.6879ZM22.6126 49.7858C22.4552 49.8789 22.349 49.9902 22.3764 50.0331C22.4327 50.1216 21.8291 50.307 21.7124 50.237C21.6218 50.1827 21.3231 50.5033 21.2028 50.7839C21.1554 50.8943 21.1026 51.3767 21.0853 51.8559C21.0599 52.5584 21.0772 52.7269 21.1744 52.7269C21.2407 52.7269 21.295 52.7846 21.295 52.8551C21.295 52.9256 21.3873 53.0173 21.5001 53.0589C21.6777 53.1244 21.7186 53.2228 21.8056 53.7925C21.9184 54.5323 21.9492 55.5866 21.9154 57.5613C21.8938 58.8262 21.8573 59.2893 21.6407 61.0506C21.5924 61.4436 21.5318 62.0679 21.506 62.4378C21.4803 62.8078 21.4044 63.3942 21.3374 63.741C21.2705 64.0878 21.1935 64.5986 21.1663 64.8761C21.139 65.1535 21.0564 65.6957 20.9826 66.081C20.9088 66.4663 20.8692 66.834 20.8946 66.898C20.9199 66.9622 20.91 67.0331 20.8725 67.0555C20.7839 67.1087 20.6381 67.7936 20.513 68.7436C20.3339 70.1039 19.8664 72.0168 19.424 73.1997C19.3029 73.5234 19.1439 73.9585 19.0707 74.1666C18.9974 74.3747 18.7853 74.8578 18.5994 75.2402C18.4134 75.6226 18.2613 75.9574 18.2613 75.9842C18.2613 76.0628 17.9723 76.643 17.9102 76.6889C17.879 76.7121 17.6744 77.0617 17.4555 77.4657C17.2367 77.8699 16.6762 78.6833 16.2102 79.2734C15.2323 80.5117 13.3464 82.3884 12.8165 82.6506C12.4489 82.8325 12.3282 82.9485 12.6056 82.8533C12.8039 82.7853 13.7427 82.181 13.9924 81.9605C14.2663 81.7187 14.2363 81.8851 13.9545 82.1704C13.8264 82.3001 13.7619 82.4062 13.8111 82.4062C13.8603 82.4062 13.9714 82.3303 14.058 82.2375C14.1445 82.1447 14.2345 82.0875 14.2579 82.1102C14.2814 82.133 14.1967 82.2308 14.0698 82.3277C13.9429 82.4245 13.8613 82.5385 13.8883 82.5811C13.9613 82.6956 13.8059 82.6749 13.6796 82.5533C13.5921 82.4691 13.5811 82.4752 13.6237 82.5841C13.6603 82.6774 13.5493 82.829 13.27 83.0676C13.0461 83.2587 12.9004 83.4151 12.9461 83.4151C12.9919 83.4151 13.1591 83.3028 13.3176 83.1655C13.4762 83.0282 13.6393 82.9358 13.68 82.9603C13.7207 82.9847 13.7543 82.9741 13.7546 82.9366C13.7551 82.8747 13.991 82.7193 14.5125 82.4375C14.6741 82.3502 14.7075 82.3525 14.7075 82.4511C14.7075 82.5165 14.5905 82.6288 14.4475 82.7005C14.3045 82.7722 14.1874 82.8511 14.1874 82.8758C14.1874 82.9004 14.2362 82.8929 14.2958 82.8591C14.3554 82.8253 14.3299 82.8799 14.239 82.9803C14.1482 83.0808 14.0041 83.1629 13.9188 83.1629C13.8335 83.1629 13.6543 83.2571 13.5206 83.3721L13.2773 83.5813L13.494 83.5497C13.6132 83.5324 13.6994 83.4715 13.6855 83.4144C13.6697 83.3493 13.7134 83.3302 13.8023 83.3633C13.8895 83.3958 14.0667 83.324 14.261 83.1775C14.7284 82.8251 14.8658 82.7692 14.6208 83.0311L14.4041 83.2629L14.9242 82.9886C15.7467 82.5547 16.0943 82.3275 16.0943 82.2239C16.0943 82.1642 16.037 82.1764 15.9427 82.2563C15.8593 82.3268 15.6935 82.4303 15.5743 82.4863C15.4166 82.5603 15.4398 82.5232 15.6594 82.35C15.8254 82.219 16.0009 82.1068 16.0494 82.1006C16.098 82.0944 16.1887 82.0849 16.2512 82.0796C16.3136 82.0743 16.577 81.8753 16.8363 81.6373C17.2724 81.2373 17.495 81.1414 17.1639 81.4962C17.0847 81.5812 17.0416 81.6715 17.0681 81.6972C17.0945 81.7229 17.2999 81.5122 17.5245 81.2291C17.7491 80.946 17.9531 80.734 17.9778 80.758C18.0025 80.782 17.9205 80.9196 17.7953 81.0638C17.6702 81.2081 17.5679 81.3599 17.5679 81.4012C17.5679 81.4426 17.393 81.6572 17.1793 81.8783C16.9655 82.0992 16.79 82.3114 16.7892 82.3495C16.7874 82.4359 17.2509 82.0977 17.5073 81.8256C18.1428 81.151 18.3646 80.9476 18.2312 81.1617C18.1502 81.2915 18.1247 81.4094 18.1712 81.4373C18.2159 81.4641 18.2999 81.3999 18.3579 81.2945C18.5628 80.9219 19.0664 80.403 19.1815 80.4458C19.2504 80.4714 19.3417 80.3919 19.4067 80.2495C19.4668 80.1178 19.7603 79.6935 20.0588 79.3067C20.3573 78.9199 20.6016 78.5601 20.6016 78.5071C20.6016 78.4542 20.6795 78.3637 20.7747 78.306C20.87 78.2483 21.0319 78.0279 21.1345 77.8162C21.2371 77.6045 21.3932 77.3875 21.4813 77.3342C21.5696 77.2808 21.6417 77.1699 21.6417 77.088C21.6417 77.006 21.6775 76.8732 21.7212 76.7929C21.7649 76.7126 21.8676 76.4199 21.9493 76.1424C22.0311 75.865 22.1875 75.4488 22.2968 75.2176C22.4061 74.9864 22.5153 74.6692 22.5396 74.5127C22.5638 74.3562 22.6252 74.1879 22.6761 74.1385C22.7269 74.0893 22.7689 73.9525 22.7694 73.8345C22.77 73.7166 22.8315 73.4309 22.9062 73.1997C23.0625 72.716 23.0983 72.5765 23.1112 72.401C23.1259 72.2019 23.3135 72.5611 23.3353 72.83C23.3454 72.9546 23.5117 73.3536 23.7049 73.7166C23.8981 74.0798 24.2709 74.8119 24.5335 75.3437C24.796 75.8755 25.1499 76.5125 25.3198 76.7593C25.4898 77.0062 25.6288 77.237 25.6288 77.2722C25.6288 77.3075 25.7384 77.4839 25.8723 77.6642C26.0062 77.8446 26.1388 78.0514 26.1669 78.124C26.195 78.1964 26.4462 78.6316 26.7252 79.0911C27.0041 79.5506 27.2876 80.0302 27.355 80.1569C27.4225 80.2836 27.5688 80.4451 27.68 80.5158C27.7913 80.5866 27.883 80.7098 27.8836 80.7896C27.8841 80.8695 28.0498 81.124 28.2517 81.3552C28.7831 81.9638 30.3266 83.4081 30.5044 83.4634C30.5878 83.4894 30.6561 83.5576 30.6561 83.6152C30.6561 83.7519 31.0043 83.9857 31.6732 84.2979C32.033 84.4659 32.214 84.6 32.2149 84.6994C32.2157 84.7838 32.3191 84.8865 32.4529 84.9358C32.583 84.9838 32.7135 85.0607 32.7427 85.1067C32.772 85.1526 32.9467 85.2083 33.1311 85.2305C33.3155 85.2526 33.5353 85.3313 33.6196 85.4054C33.7527 85.5223 33.8246 85.5258 34.1672 85.4328C34.3841 85.3739 34.5866 85.35 34.6172 85.3797C34.6478 85.4093 34.763 85.3761 34.8735 85.306C34.9839 85.2358 35.3088 85.1546 35.5955 85.1256C35.95 85.0896 36.1168 85.0362 36.1168 84.9586C36.1168 84.8958 36.196 84.8444 36.2928 84.8444C36.3897 84.8444 36.4914 84.7877 36.5188 84.7183C36.5463 84.649 36.6608 84.5922 36.7734 84.5922C36.9119 84.5922 36.9633 84.5546 36.9321 84.4762C36.8985 84.3911 37.1121 84.4252 37.7317 84.6039C38.1966 84.738 38.6183 84.8332 38.6687 84.8154C38.7192 84.7977 38.5887 84.7372 38.3789 84.681C38.169 84.6248 37.8576 84.5062 37.6867 84.4174C37.5159 84.3285 37.2976 84.2532 37.2015 84.25C37.0275 84.2441 37.0275 84.2439 37.2002 84.1759C37.3532 84.1157 37.3438 84.104 37.1202 84.0766C36.9809 84.0597 36.8514 83.9999 36.8325 83.9439C36.7931 83.8276 37.4495 83.8668 38.1103 84.02C38.6254 84.1395 39.3927 84.1816 39.2297 84.0815C39.1623 84.0401 39.0498 84.0057 38.9795 84.0049C38.7322 84.0025 37.677 83.6429 37.677 83.5611C37.677 83.5126 37.7927 83.5006 37.9557 83.5322C38.2059 83.5808 38.218 83.5746 38.0736 83.4722C37.9281 83.3691 37.9264 83.353 38.0556 83.3049C38.1342 83.2756 38.3011 83.2895 38.4265 83.3358C38.5519 83.382 38.6728 83.4021 38.6952 83.3804C38.7449 83.3321 38.1357 83.0788 37.9698 83.0788C37.9041 83.0788 37.8503 83.0369 37.8503 82.9857C37.8503 82.9314 37.9136 82.9164 38.002 82.9496C38.0854 82.9809 38.2707 83.0239 38.4137 83.0451L38.6737 83.0838L38.4137 82.9641C38.2707 82.8984 38.0367 82.7949 37.8937 82.7342L37.6336 82.6238L37.8699 82.5937C37.9998 82.5771 38.3443 82.6228 38.6353 82.6951C39.7852 82.9809 39.3253 82.7053 38.0927 82.3701C37.8208 82.2961 37.5478 82.1659 37.486 82.0807C37.4241 81.9956 37.2853 81.8988 37.1773 81.8657C37.0694 81.8326 37.0024 81.7719 37.0287 81.7307C37.0562 81.6876 37.1698 81.6904 37.2972 81.7374C37.4187 81.7822 37.5539 81.7975 37.5976 81.7712C37.7801 81.6618 37.6505 81.5678 37.245 81.5157C37.0076 81.4851 36.7688 81.4081 36.7144 81.3446C36.6601 81.2811 36.5521 81.2276 36.4746 81.2257C36.3121 81.2217 35.5463 80.5773 35.6196 80.5062C35.6465 80.4802 35.7693 80.5231 35.8925 80.6015C36.0232 80.6845 36.1168 80.7057 36.1168 80.6519C36.1168 80.6013 35.9608 80.4827 35.7701 80.3883C35.5794 80.294 35.4234 80.1797 35.4234 80.1344C35.4234 80.0891 35.382 80.052 35.3316 80.052C35.2811 80.052 35.2639 80.0899 35.2933 80.1361C35.3906 80.2887 35.2134 80.2237 34.6866 79.9136C34.4006 79.7452 33.9791 79.5152 33.75 79.4025C33.521 79.2899 33.3008 79.1157 33.2608 79.0154C33.2209 78.915 33.0787 78.7383 32.945 78.6227L32.7018 78.4125L32.8494 78.6412C32.972 78.8311 32.9749 78.8617 32.8666 78.8214C32.795 78.7947 32.7364 78.7395 32.7364 78.6987C32.7364 78.658 32.5021 78.4593 32.2157 78.2572C31.9293 78.055 31.5787 77.7339 31.4364 77.5433C31.2941 77.3528 31.0816 77.1736 30.9642 77.145C30.8466 77.1164 30.6539 76.9737 30.5356 76.8279C30.4175 76.6821 30.0845 76.3169 29.7957 76.0163C29.5069 75.7157 29.2702 75.4194 29.2699 75.3577C29.2695 75.296 29.2227 75.2606 29.1658 75.279C29.0398 75.3198 28.3158 74.5474 28.3158 74.3722C28.3158 74.3034 28.228 74.208 28.1208 74.1601C27.9422 74.0804 27.1023 73.0755 27.1023 72.9414C27.1023 72.9097 26.964 72.7353 26.795 72.5538C26.626 72.3723 26.442 72.1218 26.386 71.9971C26.3301 71.8724 26.1467 71.6146 25.9783 71.4242C25.8099 71.2338 25.5405 70.8365 25.3796 70.5414C25.2187 70.2463 25.0394 69.948 24.9814 69.8787C24.9232 69.8093 24.7517 69.5066 24.6002 69.2061C24.4486 68.9055 24.2653 68.565 24.1927 68.4494C24.0994 68.3008 24.0749 68.1159 24.1091 67.8188C24.1357 67.5876 24.1779 66.8876 24.2028 66.2633C24.2278 65.6391 24.2703 65.0148 24.2973 64.8761C24.3243 64.7373 24.3611 63.9239 24.3791 63.0684C24.3991 62.1198 24.484 61.0045 24.5969 60.2098C24.6986 59.493 24.7978 58.6825 24.8171 58.4087C24.8364 58.1348 24.8882 57.8688 24.932 57.8175C24.976 57.7662 25.0717 57.4462 25.1447 57.1065C25.2177 56.7667 25.361 56.3214 25.463 56.1168C25.5651 55.9122 25.625 55.722 25.5962 55.694C25.5673 55.666 25.5832 55.5968 25.6316 55.5402C25.8911 55.2369 26.0399 54.0566 25.8961 53.4416C25.8636 53.3028 25.8668 53.0569 25.9029 52.895C25.9922 52.4962 25.8382 51.9388 25.6573 52.0062C25.5627 52.0413 25.5377 52.0185 25.5731 51.9291C25.6007 51.8592 25.5856 51.802 25.5395 51.802C25.4933 51.802 25.4555 51.7471 25.4555 51.6801C25.4555 51.613 25.3956 51.5257 25.3223 51.4859C25.1714 51.404 25.1066 50.9838 25.2388 50.9448C25.2865 50.9307 25.3374 51.039 25.3521 51.1853C25.3667 51.3317 25.4349 51.4724 25.5038 51.498C25.6524 51.5533 25.6554 51.5198 25.5378 51.1091C25.4688 50.8681 25.3928 50.7826 25.2132 50.7439C24.7367 50.6413 24.6752 50.6106 24.6685 50.4722C24.6636 50.3704 24.6485 50.3629 24.6147 50.4454C24.5809 50.5277 24.5103 50.4921 24.3646 50.3193C24.2529 50.1868 24.1602 50.1257 24.1584 50.1834C24.1567 50.2428 23.9739 50.1619 23.7375 49.9972C23.3419 49.7215 23.3115 49.7137 23.1673 49.8502C23.0231 49.9866 23.0165 49.9857 23.0433 49.835C23.0841 49.6073 22.9418 49.5911 22.6126 49.7858ZM25.6288 54.3293C25.6288 54.3783 25.6678 54.395 25.7155 54.3664C25.7632 54.3378 25.8022 54.2978 25.8022 54.2774C25.8022 54.2569 25.7632 54.2403 25.7155 54.2403C25.6678 54.2403 25.6288 54.2804 25.6288 54.3293ZM30.4828 55.1651C30.4828 55.2114 30.5218 55.2492 30.5694 55.2492C30.6171 55.2492 30.6561 55.2114 30.6561 55.1651C30.6561 55.1189 30.6171 55.0811 30.5694 55.0811C30.5218 55.0811 30.4828 55.1189 30.4828 55.1651ZM30.2328 55.2752C30.2272 55.3588 30.182 55.4029 30.1322 55.3731C29.9758 55.2792 29.7739 55.5144 29.8288 55.7264C29.8644 55.8641 29.8419 55.9218 29.7528 55.9218C29.5599 55.9218 29.5211 55.7961 29.6593 55.6189C29.8364 55.392 29.8179 55.3145 29.616 55.4369C29.5206 55.4946 29.4426 55.5873 29.4426 55.6429C29.4426 55.7855 29.2612 55.8771 29.1924 55.7691C29.1163 55.6497 28.8121 55.697 28.7643 55.8358C28.7421 55.9006 28.7667 55.9212 28.8246 55.8865C28.8785 55.8542 28.9226 55.8679 28.9226 55.9169C28.9226 55.9658 28.8794 56.0059 28.8266 56.0059C28.7738 56.0059 28.7527 56.0615 28.7795 56.1293C28.8063 56.1972 28.7884 56.2766 28.7397 56.3059C28.5977 56.391 28.5539 56.2868 28.6548 56.1039C28.7223 55.9817 28.7208 55.9266 28.6494 55.9036C28.5764 55.88 28.5761 55.8262 28.6483 55.6954C28.7234 55.5593 28.7188 55.4976 28.628 55.4245C28.4594 55.2887 28.255 55.7456 28.1933 56.3958C28.1556 56.7935 28.174 56.9356 28.2734 57.0157C28.383 57.1039 28.4025 57.0799 28.4025 56.8569C28.4025 56.3294 28.5332 56.6119 28.5562 57.1891C28.5746 57.6525 28.5554 57.7696 28.4695 57.7195C28.3854 57.6705 28.3864 57.6878 28.4736 57.7921C28.557 57.8919 28.5718 58.0728 28.5281 58.4599C28.477 58.9126 28.4497 59.3483 28.4098 60.3501C28.4058 60.4504 28.2758 60.6441 28.1208 60.7807C27.4706 61.3538 26.7779 61.9487 26.5054 62.168C26.345 62.2971 26.2338 62.422 26.2581 62.4456C26.2825 62.4693 26.5366 62.2996 26.8228 62.0686C27.109 61.8375 27.3615 61.6663 27.384 61.6881C27.4065 61.7099 27.5317 61.5918 27.6625 61.4257C27.7931 61.2595 27.9202 61.1432 27.945 61.1673C28.0491 61.2683 27.2908 62.0892 26.6159 62.606C26.0461 63.0423 25.8424 63.2312 25.9388 63.2339C25.99 63.2354 26.1236 63.142 26.2356 63.0264C26.3476 62.9108 26.4801 62.8162 26.53 62.8162C26.58 62.8162 26.8658 62.5808 27.165 62.2931C27.4642 62.0054 27.7135 61.8068 27.719 61.8517C27.7244 61.8966 27.7414 62.0353 27.7568 62.1599C27.7784 62.3358 27.7546 62.3752 27.6501 62.3363C27.5481 62.2983 27.5286 62.3258 27.5693 62.4499C27.6629 62.7361 25.8169 64.3771 25.3218 64.4475C25.2028 64.4645 24.8886 64.7515 24.9943 64.7468C25.3058 64.733 27.2995 63.4753 27.6495 63.0719C28.0328 62.6299 27.9125 62.9415 27.5141 63.4225C27.3115 63.6671 27.0294 64.0186 26.8873 64.2035C26.7452 64.3884 26.3235 64.849 25.95 65.2269C25.4447 65.7384 25.3223 65.9032 25.4716 65.8712C25.6487 65.8334 25.6367 65.8612 25.3688 66.1094C25.2019 66.264 24.9289 66.4953 24.7621 66.6234C24.4804 66.8395 24.6228 66.8593 24.9448 66.6488C25.0914 66.5528 26.255 65.5598 26.4889 65.3308C26.6725 65.1513 27.6027 64.496 27.6861 64.4876C27.7226 64.4839 27.7432 64.4482 27.7318 64.4083C27.7204 64.3683 27.765 64.3556 27.8307 64.3801C27.8964 64.4046 28.0864 64.3086 28.2528 64.1669C28.712 63.7758 28.9688 63.848 28.5325 64.2455C28.2578 64.4958 28.2585 64.5691 28.5349 64.5178C28.6554 64.4955 28.8602 64.3526 28.99 64.2003C29.4757 63.6302 30.1295 63.3162 30.1406 63.6475C30.1441 63.7512 30.1771 63.7385 30.2811 63.5939C30.356 63.4898 30.4857 63.4047 30.5694 63.4047C30.6531 63.4047 30.7716 63.3463 30.8328 63.2747C30.8939 63.2033 31.0005 63.1659 31.0697 63.1917C31.1555 63.2236 31.1796 63.1981 31.1452 63.1114C31.1176 63.0415 31.132 62.9843 31.1772 62.9843C31.2225 62.9843 31.2836 63.0777 31.3132 63.1917C31.3427 63.3058 31.3923 63.3944 31.4232 63.3886C31.4542 63.3828 31.5483 63.4072 31.6324 63.4428C31.7168 63.4786 31.8341 63.4682 31.8946 63.4195C31.9547 63.3711 32.1005 63.3186 32.2185 63.3029C32.3364 63.2872 32.4818 63.2447 32.5413 63.2085C32.601 63.1722 32.6497 63.1633 32.6497 63.1888C32.6497 63.2142 32.7667 63.1162 32.9097 62.9711C33.0527 62.8259 33.1697 62.6812 33.1697 62.6495C33.1697 62.5914 33.3255 62.5624 33.6495 62.5602C33.7729 62.5594 33.9648 62.3573 34.2889 61.8869C34.7339 61.2408 34.7495 61.1991 34.6891 60.8173C34.6545 60.5988 34.6272 60.1645 34.6283 59.8524C34.6298 59.4723 34.5969 59.2849 34.5285 59.2848C34.4724 59.2848 34.4208 59.1886 34.4138 59.071C34.4068 58.9535 34.3252 58.7927 34.2324 58.7138C34.1397 58.6348 34.019 58.4885 33.9644 58.3884C33.9098 58.2884 33.6999 58.1532 33.498 58.0878C33.1892 57.988 33.1216 57.9251 33.0723 57.6913C33.0064 57.3786 32.8525 57.2489 32.628 57.3167C32.5446 57.3419 32.4763 57.3199 32.4763 57.2677C32.4763 57.2157 32.4313 57.2001 32.3762 57.233C32.3168 57.2688 32.2996 57.2563 32.334 57.2022C32.4203 57.0668 32.2188 56.6988 32.0324 56.6515C31.9428 56.6288 31.8696 56.5499 31.8696 56.4762C31.8696 56.3391 31.7397 56.2919 31.6743 56.4053C31.6544 56.44 31.6494 56.422 31.6635 56.3654C31.6775 56.3088 31.6286 56.2298 31.5549 56.1898C31.481 56.1497 31.4242 56.0919 31.4284 56.0614C31.4567 55.8599 31.4124 55.8268 31.3422 55.9971C31.2965 56.1079 31.2394 56.1793 31.2153 56.1559C31.1911 56.1324 31.2104 56.0135 31.2583 55.8915C31.343 55.6752 31.2468 55.5748 31.1302 55.7578C31.0917 55.8182 31.0358 55.8151 30.9529 55.7484C30.8862 55.6947 30.7747 55.672 30.705 55.6979C30.6278 55.7267 30.5574 55.6811 30.5247 55.5812C30.4952 55.4911 30.4376 55.4174 30.3966 55.4174C30.3556 55.4174 30.3043 55.3511 30.2824 55.2702C30.2459 55.1343 30.2421 55.1346 30.2328 55.2752ZM29.0092 55.5014C29.0092 55.5477 29.0506 55.5855 29.101 55.5855C29.1515 55.5855 29.1687 55.5477 29.1393 55.5014C29.1098 55.4552 29.0685 55.4174 29.0475 55.4174C29.0264 55.4174 29.0092 55.4552 29.0092 55.5014ZM29.9627 55.4965C29.9627 55.54 30.0017 55.599 30.0494 55.6276C30.097 55.6561 30.136 55.6205 30.136 55.5484C30.136 55.4764 30.097 55.4174 30.0494 55.4174C30.0017 55.4174 29.9627 55.4529 29.9627 55.4965ZM30.6128 55.5014C30.5833 55.5477 30.62 55.5855 30.6943 55.5855C30.7686 55.5855 30.8295 55.5477 30.8295 55.5014C30.8295 55.4552 30.7928 55.4174 30.7479 55.4174C30.703 55.4174 30.6422 55.4552 30.6128 55.5014ZM30.9161 55.5855C30.9161 55.6318 30.9551 55.6696 31.0028 55.6696C31.0505 55.6696 31.0895 55.6318 31.0895 55.5855C31.0895 55.5393 31.0505 55.5014 31.0028 55.5014C30.9551 55.5014 30.9161 55.5393 30.9161 55.5855ZM28.6625 56.5945C28.6625 56.6407 28.7015 56.6785 28.7492 56.6785C28.7969 56.6785 28.8359 56.6407 28.8359 56.5945C28.8359 56.5482 28.7969 56.5104 28.7492 56.5104C28.7015 56.5104 28.6625 56.5482 28.6625 56.5945ZM27.4842 62.1646L27.319 62.3538L27.5141 62.1936C27.6973 62.0431 27.7485 61.9754 27.6792 61.9754C27.6627 61.9754 27.575 62.0605 27.4842 62.1646ZM25.8277 62.5619C25.5604 62.7978 25.5568 62.8094 25.7344 62.864C25.8627 62.9035 25.955 62.8732 26.0369 62.7644C26.1152 62.6606 26.1235 62.5977 26.0616 62.5777C25.9969 62.5568 25.9992 62.5115 26.0692 62.4297C26.231 62.2406 26.1275 62.2973 25.8277 62.5619ZM26.9641 62.6901C26.8356 62.8057 26.7682 62.9003 26.8146 62.9003C26.8609 62.9003 26.9904 62.8057 27.1023 62.6901C27.2143 62.5745 27.2816 62.4799 27.252 62.4799C27.2222 62.4799 27.0927 62.5745 26.9641 62.6901ZM25.7595 62.7312C25.7291 62.7788 25.7639 62.7929 25.841 62.7642C25.9911 62.7083 26.0186 62.648 25.894 62.648C25.8491 62.648 25.7886 62.6854 25.7595 62.7312ZM26.8463 63.1159C26.6389 63.327 26.3375 63.5972 26.1766 63.7162C26.0158 63.8353 25.903 63.9509 25.9261 63.9732C25.9823 64.0278 27.0897 63.0803 27.197 62.8858C27.3258 62.6523 27.2583 62.6966 26.8463 63.1159ZM27.7524 64.0016C27.4664 64.2366 27.1544 64.5054 27.059 64.599L26.8857 64.769L27.0603 64.683C27.2436 64.5927 28.3908 63.5825 28.3158 63.5773C28.292 63.5757 28.0385 63.7666 27.7524 64.0016ZM27.4491 63.8251C27.371 63.874 27.3602 63.9071 27.4223 63.9079C27.479 63.9086 27.5496 63.8713 27.5791 63.8251C27.6455 63.7207 27.6156 63.7207 27.4491 63.8251ZM27.1206 64.1226C27.0591 64.1902 27.0446 64.2455 27.0883 64.2455C27.132 64.2455 27.2163 64.1887 27.2757 64.1194C27.4147 63.9569 27.2685 63.9599 27.1206 64.1226ZM28.789 64.167C28.7575 64.2163 28.7504 64.2747 28.7731 64.2968C28.7958 64.3188 28.8375 64.2784 28.8658 64.2071C28.9244 64.0589 28.8745 64.0329 28.789 64.167ZM15.1946 64.7841C15.2511 65.3929 15.1474 65.6552 14.7656 65.87C14.5668 65.9817 14.2091 66.1006 13.9708 66.1341C13.4579 66.2062 13.3501 66.2786 13.2773 66.5999C13.2332 66.7945 13.2984 66.9521 13.6169 67.4211C14.0518 68.0614 14.2741 68.5221 14.2741 68.783C14.2741 68.877 14.3131 68.9538 14.3608 68.9538C14.4085 68.9538 14.4475 68.9906 14.4475 69.0354C14.4475 69.1182 14.818 69.9675 14.9708 70.2348C15.0167 70.3151 15.0544 70.4475 15.0546 70.5291C15.0553 70.8794 16.3421 71.5872 16.5156 71.3329C16.5461 71.2881 16.7028 71.2077 16.864 71.1542C17.025 71.1007 17.2515 70.9527 17.3671 70.8251C17.4828 70.6977 17.6728 70.4887 17.7894 70.3607C17.9059 70.2327 18.0042 70.1003 18.0079 70.0664C18.0116 70.0325 18.0324 69.9291 18.0542 69.8366C18.076 69.7442 18.1118 69.5202 18.1339 69.3388C18.156 69.1575 18.231 68.9248 18.3007 68.8217C18.441 68.614 18.3755 68.2526 18.1323 67.8925C18.058 67.7826 18.034 67.6927 18.0789 67.6927C18.184 67.6927 18.3428 66.9768 18.2851 66.7629C18.2608 66.6731 18.2049 66.5997 18.1607 66.5997C18.1165 66.5997 18.0884 66.5524 18.0982 66.4946C18.1625 66.118 17.5302 65.4226 17.1236 65.4226C17.041 65.4226 16.9125 65.3634 16.8379 65.2911C16.7634 65.2188 16.6631 65.1832 16.6151 65.212C16.567 65.2408 16.5277 65.2217 16.5277 65.1697C16.5277 65.1113 16.4569 65.0967 16.3435 65.1317C16.2097 65.1729 16.1775 65.1599 16.2256 65.0843C16.2686 65.0169 16.2498 64.9939 16.1721 65.0191C16.1062 65.0404 16.013 64.9829 15.965 64.8914C15.917 64.7998 15.7185 64.6797 15.524 64.6244L15.1704 64.5239L15.1946 64.7841ZM15.5743 64.834C15.5743 64.8803 15.6351 64.9181 15.7094 64.9181C15.7837 64.9181 15.8204 64.8803 15.791 64.834C15.7615 64.7878 15.7007 64.75 15.6558 64.75C15.6109 64.75 15.5743 64.7878 15.5743 64.834ZM5.0333 65.215C4.95417 65.332 4.90528 65.4431 4.92452 65.4618C4.94385 65.4805 5.02533 65.3847 5.10559 65.249C5.28449 64.9467 5.23136 64.9217 5.0333 65.215ZM25.7595 65.6739C25.7291 65.7215 25.7639 65.7356 25.841 65.7069C25.9911 65.651 26.0186 65.5907 25.894 65.5907C25.8491 65.5907 25.7886 65.6281 25.7595 65.6739ZM5.99646 66.8519C5.91022 66.9444 5.87529 67.02 5.9188 67.02C5.9624 67.02 6.04682 66.9444 6.10637 66.8519C6.16592 66.7594 6.20085 66.6837 6.18395 66.6837C6.16713 66.6837 6.0827 66.7594 5.99646 66.8519ZM5.64152 67.4524C5.47701 67.6318 5.47709 67.632 5.67142 67.5162C5.77864 67.4523 5.86645 67.3712 5.86645 67.3361C5.86645 67.2348 5.81817 67.2597 5.64152 67.4524ZM3.14166 68.0043C3.09469 68.1241 3.10457 68.1338 3.1902 68.0514C3.24949 67.9943 3.2761 67.9265 3.2494 67.9007C3.22271 67.8748 3.17425 67.9214 3.14166 68.0043ZM6.17701 68.1761C6.1413 68.2108 6.06979 68.2392 6.01813 68.2392C5.96647 68.2392 5.91013 68.2802 5.89297 68.3302C5.84027 68.4836 6.0964 68.4313 6.20206 68.2672C6.30408 68.1087 6.29203 68.0646 6.17701 68.1761ZM4.30131 68.3743C4.22712 68.5087 4.22946 68.5746 4.31094 68.6475C4.39285 68.7208 4.40299 68.7174 4.35384 68.6332C4.31666 68.5698 4.35384 68.4536 4.44121 68.36C4.52477 68.2704 4.54947 68.1971 4.49608 68.1971C4.44269 68.1971 4.35505 68.2768 4.30131 68.3743ZM2.65939 68.7016C2.55754 68.8403 2.49375 68.9538 2.51759 68.9538C2.54142 68.9538 2.64422 68.8403 2.74607 68.7016C2.84791 68.5629 2.91171 68.4494 2.88787 68.4494C2.86403 68.4494 2.76124 68.5629 2.65939 68.7016ZM5.7861 68.755C5.5694 69.0221 5.54938 69.1874 5.75307 69.0271C5.87945 68.9277 5.88959 68.9292 5.82657 69.0379C5.78635 69.1073 5.69457 69.2304 5.62262 69.3117C5.55077 69.3929 5.51341 69.4801 5.53967 69.5057C5.61387 69.5777 5.97089 69.0497 5.91126 68.9561C5.88222 68.9105 5.9006 68.7968 5.95217 68.7034C6.08331 68.4657 5.99958 68.4917 5.7861 68.755ZM3.27298 68.6756C3.26309 68.8203 3.41652 68.8898 3.49019 68.7741C3.52764 68.7154 3.5155 68.6981 3.46029 68.7312C3.40932 68.7617 3.34787 68.7392 3.32368 68.6811C3.29231 68.6055 3.27783 68.604 3.27298 68.6756ZM4.78298 68.7016C4.75351 68.7478 4.77076 68.7857 4.8212 68.7857C4.87165 68.7857 4.913 68.7478 4.913 68.7016C4.913 68.6553 4.89584 68.6175 4.87477 68.6175C4.85371 68.6175 4.81245 68.6553 4.78298 68.7016ZM4.3912 68.8297C4.33087 68.9002 4.29837 68.9742 4.31883 68.9941C4.33937 69.0139 4.40377 68.9563 4.46193 68.866C4.58779 68.6705 4.54583 68.649 4.3912 68.8297ZM2.30159 69.185C2.19385 69.3184 2.19688 69.3213 2.33435 69.2168C2.47875 69.1069 2.52461 69.0379 2.45327 69.0379C2.43533 69.0379 2.36703 69.1042 2.30159 69.185ZM4.47961 69.1269C4.47961 69.1759 4.51862 69.1926 4.56629 69.164C4.61396 69.1354 4.65296 69.0954 4.65296 69.075C4.65296 69.0545 4.61396 69.0379 4.56629 69.0379C4.51862 69.0379 4.47961 69.078 4.47961 69.1269ZM2.65939 69.8522C2.44486 70.1038 2.12615 70.4482 1.95106 70.6174C1.77606 70.7865 1.6509 70.9534 1.67292 70.9879C1.69502 71.0225 1.64969 71.1696 1.57229 71.3148C1.48275 71.4829 1.47053 71.5553 1.53883 71.5145C1.60834 71.4728 1.62403 71.4848 1.5833 71.5486C1.5488 71.6028 1.4902 71.6288 1.45301 71.6066C1.41583 71.5843 1.05525 71.8863 0.651685 72.2777C-0.147825 73.0534 -0.230082 73.2292 0.507107 72.5871C0.761245 72.3657 1.07398 72.1204 1.202 72.0422C1.44027 71.8964 2.05499 71.1103 2.4004 70.5097C2.50667 70.325 2.70966 70.0102 2.85155 69.8102C3.21872 69.2925 3.11757 69.3146 2.65939 69.8522ZM5.99291 69.6321C5.96144 69.6813 5.95434 69.7398 5.97705 69.7618C5.99975 69.7838 6.04144 69.7435 6.0697 69.6721C6.12829 69.524 6.07837 69.4979 5.99291 69.6321ZM1.43482 70.0258C1.32708 70.1592 1.33011 70.1621 1.46758 70.0576C1.61198 69.9477 1.65784 69.8787 1.5865 69.8787C1.56856 69.8787 1.50026 69.9449 1.43482 70.0258ZM3.78793 70.1709C3.71954 70.2508 3.71295 70.2991 3.7705 70.2991C3.87521 70.2991 3.99734 70.1396 3.93727 70.0812C3.91543 70.0601 3.84826 70.1005 3.78793 70.1709ZM5.49087 70.1029C5.45906 70.1337 5.43306 70.198 5.43306 70.2458C5.43306 70.2985 5.47345 70.2935 5.5356 70.2332C5.59202 70.1785 5.61803 70.1142 5.59341 70.0903C5.56879 70.0663 5.5226 70.0721 5.49087 70.1029ZM3.83673 70.6054C3.75421 70.8141 3.84522 70.8426 3.95556 70.6426C4.00878 70.5461 4.01615 70.4672 3.97186 70.4672C3.92765 70.4672 3.8668 70.5294 3.83673 70.6054ZM3.42839 71.1188C3.32065 71.2522 3.32368 71.2551 3.46115 71.1506C3.60556 71.0407 3.65141 70.9717 3.58008 70.9717C3.56213 70.9717 3.49383 71.0379 3.42839 71.1188ZM26.2356 75.7221C26.2949 75.7914 26.3825 75.8482 26.4302 75.8482C26.4785 75.8482 26.4691 75.7924 26.4089 75.7221C26.3496 75.6527 26.262 75.5959 26.2143 75.5959C26.166 75.5959 26.1754 75.6517 26.2356 75.7221ZM26.4956 76.1004C26.4956 76.1466 26.537 76.1845 26.5874 76.1845C26.6378 76.1845 26.6551 76.1466 26.6256 76.1004C26.5961 76.0542 26.5549 76.0163 26.5338 76.0163C26.5128 76.0163 26.4956 76.0542 26.4956 76.1004ZM26.8857 76.773C26.9719 76.8655 27.0815 76.9412 27.1292 76.9412C27.1769 76.9412 27.1453 76.8655 27.059 76.773C26.9728 76.6805 26.8631 76.6049 26.8154 76.6049C26.7678 76.6049 26.7994 76.6805 26.8857 76.773ZM37.7799 81.7389C37.8007 81.7995 37.869 81.8658 37.9316 81.886C37.9966 81.907 38.0291 81.8755 38.0075 81.8124C37.9866 81.7517 37.9183 81.6855 37.8558 81.6653C37.7908 81.6443 37.7583 81.6758 37.7799 81.7389ZM14.4973 81.9908C14.3677 82.1175 14.3591 82.154 14.4583 82.154C14.5957 82.154 14.7942 81.995 14.7942 81.8849C14.7942 81.7746 14.6749 81.8172 14.4973 81.9908ZM14.9305 82.1978C14.8387 82.2652 14.791 82.347 14.8246 82.3796C14.8582 82.4123 14.9713 82.3558 15.0759 82.2544C15.2889 82.0478 15.1883 82.0086 14.9305 82.1978ZM13.2691 82.7548C13.1049 82.9342 13.105 82.9346 13.299 82.8358C13.4062 82.7813 13.494 82.7001 13.494 82.6555C13.494 82.536 13.4525 82.5543 13.2691 82.7548ZM39.7572 82.9107C39.8287 82.9555 39.9262 82.9921 39.9739 82.9921C40.0216 82.9921 40.0021 82.9555 39.9306 82.9107C39.8591 82.8659 39.7615 82.8292 39.7139 82.8292C39.6662 82.8292 39.6857 82.8659 39.7572 82.9107ZM37.3736 83.1629C37.4031 83.2091 37.4443 83.247 37.4654 83.247C37.4864 83.247 37.5036 83.2091 37.5036 83.1629C37.5036 83.1167 37.4623 83.0788 37.4118 83.0788C37.3614 83.0788 37.3441 83.1167 37.3736 83.1629ZM13.0122 83.7067C12.9197 83.7746 12.8879 83.8314 12.9417 83.8328C12.9955 83.8343 13.0879 83.7788 13.1473 83.7094C13.2844 83.5492 13.2284 83.5481 13.0122 83.7067ZM38.3472 83.6778C38.4061 83.7353 38.476 83.7611 38.5026 83.7352C38.5293 83.7093 38.4812 83.6623 38.3958 83.6307C38.2723 83.5851 38.2623 83.5947 38.3472 83.6778ZM12.3205 84.0914C12.1888 84.2324 12.1853 84.2538 12.3004 84.211C12.3775 84.1823 12.4618 84.105 12.4878 84.0392C12.5525 83.8755 12.5093 83.889 12.3205 84.0914ZM38.0138 84.2598C38.3182 84.3964 38.6497 84.5065 38.7505 84.5044C38.881 84.5018 38.8464 84.4686 38.6304 84.3893C38.4636 84.328 38.182 84.2161 38.0048 84.1407C37.4334 83.8977 37.4414 84.0029 38.0138 84.2598Z" fill="#ADE838"/>
</svg>
