<svg width="40" height="92" viewBox="0 0 40 92" fill="none" xmlns="http://www.w3.org/2000/svg">
<path fill-rule="evenodd" clip-rule="evenodd" d="M29.9577 5.83188C29.8679 5.92094 29.7006 5.99373 29.5859 5.99373C29.3755 5.99373 29.0606 6.26859 29.0606 6.45221C29.0606 6.63133 28.7757 6.79769 27.9791 7.08355C27.5051 7.25358 27.1944 7.41077 27.1944 7.48049C27.1944 7.54887 27.1425 7.57638 27.0671 7.54795C26.9971 7.5216 26.9399 7.52935 26.9399 7.56529C26.9399 7.67937 26.3119 7.93588 26.2779 7.83572C26.261 7.78577 26.2081 7.74491 26.1603 7.74491C26.1125 7.74491 26.094 7.79778 26.1192 7.86233C26.1533 7.94955 25.9863 8.02777 25.4709 8.16611C25.0891 8.2686 24.7306 8.35332 24.6743 8.35441C24.618 8.35549 24.5535 8.40361 24.531 8.46131C24.5085 8.51902 24.3446 8.62851 24.1668 8.70456C23.9891 8.7807 23.7773 8.87735 23.6963 8.91937C23.4931 9.02478 23.4594 9.01569 23.516 8.87067C23.5429 8.80188 23.5226 8.74559 23.4709 8.74559C23.4193 8.74559 23.377 8.78195 23.377 8.82639C23.377 8.87076 23.3237 8.88702 23.2583 8.86233C23.1189 8.8098 23.0417 8.91237 22.9843 9.22641C22.9313 9.51686 22.7832 9.67613 22.7832 9.44281C22.7832 9.34391 22.6974 9.23434 22.5785 9.18097C22.4658 9.1306 22.3488 9.01194 22.3182 8.91745C22.2878 8.82289 22.2284 8.74559 22.1863 8.74559C22.1443 8.74559 22.1342 8.80805 22.164 8.88435C22.2005 8.97766 22.1857 9.00335 22.119 8.96282C22.0643 8.92963 22.0197 8.84849 22.0197 8.78236C22.0197 8.71624 21.9657 8.6622 21.8995 8.6622C21.8334 8.6622 21.7617 8.61533 21.74 8.55796C21.7178 8.49909 21.6606 8.55246 21.6087 8.68054C21.5582 8.8053 21.3654 9.04187 21.1803 9.20623C20.8465 9.50268 20.8383 9.52578 20.8264 10.1974C20.8249 10.285 20.8563 10.3789 20.8961 10.4059C20.936 10.433 20.974 10.6125 20.9806 10.8049C20.9871 10.9973 21.0458 11.335 21.111 11.5554C21.3628 12.4061 21.0886 16.7151 20.6663 18.5439C20.5817 18.9108 20.4862 19.3914 20.4542 19.6119C20.4214 19.8383 20.3435 20.0327 20.2753 20.0585C20.2088 20.0836 20.1739 20.135 20.1977 20.173C20.2216 20.2108 20.1992 20.2673 20.1479 20.2984C20.0968 20.3295 20.0767 20.4404 20.1033 20.5448C20.1319 20.6565 20.1039 20.7737 20.0354 20.8296C19.8129 21.0112 20.0037 22.0366 20.2794 22.1407C20.3501 22.1673 20.4079 22.2414 20.4079 22.3053C20.4079 22.3692 20.4813 22.4215 20.571 22.4215C20.6607 22.4215 20.8681 22.5753 21.0318 22.7635C21.1956 22.9515 21.3677 23.0823 21.4143 23.054C21.4609 23.0256 21.5234 23.0412 21.5532 23.0886C21.5829 23.136 21.6471 23.1505 21.6958 23.1209C21.7444 23.0914 21.8167 23.1189 21.8564 23.1822C21.9442 23.3217 21.6337 23.6069 21.2327 23.755C20.8805 23.885 20.6761 23.9629 20.3828 24.0788C20.2523 24.1305 20.0559 24.1727 19.9465 24.1727C19.837 24.1727 19.7255 24.2289 19.6986 24.2977C19.6718 24.3665 19.5775 24.4228 19.4892 24.4228C19.4009 24.4228 19.0848 24.5304 18.7867 24.6619C18.4887 24.7934 17.5576 25.1349 16.7178 25.4207C15.878 25.7065 15.1086 25.9786 15.0081 26.0253C14.9075 26.0721 14.7835 26.0849 14.7324 26.0538C14.6813 26.0228 14.6395 26.0324 14.6395 26.0753C14.6395 26.1383 14.3893 26.2273 14.0362 26.2899C14.0077 26.2949 13.7595 26.399 13.4848 26.5211C13.2101 26.6431 12.7944 26.7992 12.5611 26.8678C12.2888 26.9479 12.1474 27.0326 12.1662 27.1045C12.2631 27.4752 12.2799 27.5643 12.2775 27.6959C12.276 27.7761 12.3318 27.8418 12.4016 27.8418C12.5619 27.8418 13.0277 28.337 13.0277 28.5074C13.0277 28.5779 13.104 28.6824 13.1974 28.7397C13.3823 28.8533 13.4446 29.2305 13.261 29.1249C13.2027 29.0914 13.2313 29.1494 13.3246 29.254C13.5245 29.4778 13.9446 29.699 14.4536 29.8486C14.6547 29.9076 14.8519 30.0159 14.8918 30.0894C14.9868 30.2637 15.162 31.5053 15.1046 31.5967C15.0803 31.6354 14.9942 31.6628 14.9135 31.6576C14.7087 31.6443 14.1056 31.8433 14.0033 31.9579C13.8913 32.0834 13.2958 32.364 12.5611 32.6374C12.0837 32.8151 11.8053 32.8613 11.1404 32.8727C10.5363 32.883 10.3135 32.9154 10.3133 32.9928C10.3132 33.0603 10.3902 33.0848 10.5261 33.0606C10.717 33.0266 10.7372 33.0481 10.7201 33.2675C10.7031 33.4878 10.5676 33.6311 10.5676 33.4289C10.5676 33.383 10.5269 33.3455 10.4771 33.3455C10.4251 33.3455 10.4095 33.4166 10.4404 33.5123C10.47 33.604 10.4619 33.6791 10.4226 33.6791C10.3831 33.6791 10.2855 33.604 10.2056 33.5123C10.076 33.3635 10.0749 33.3455 10.1958 33.3455C10.2845 33.3455 10.3135 33.3 10.2798 33.2136C10.2515 33.141 10.2283 33.0472 10.2283 33.0051C10.2283 32.963 10.1878 32.9286 10.1385 32.9286C10.0891 32.9286 10.0717 32.9653 10.0999 33.0102C10.1282 33.0551 10.1081 33.1713 10.0552 33.2684C9.97466 33.4163 9.98848 33.465 10.1408 33.5698C10.4078 33.7537 10.8006 34.1198 10.6524 34.0467C10.5583 34.0003 10.5638 34.0273 10.6737 34.1508C10.7553 34.2425 10.8221 34.357 10.8221 34.4051C10.8221 34.4533 10.9376 34.5397 11.0788 34.5973C11.2572 34.6699 11.3219 34.7436 11.291 34.8393C11.2341 35.0155 12.1021 35.6504 12.3484 35.6126C12.4543 35.5964 12.5187 35.6333 12.5187 35.7103C12.5187 35.9623 13.646 36.0432 13.9982 35.8163C14.1182 35.7391 14.3049 35.6428 14.4132 35.6024C14.5714 35.5432 14.6077 35.5559 14.5983 35.6672C14.5919 35.7432 14.5384 35.8929 14.4793 35.9996C14.4203 36.1064 14.3917 36.2444 14.4159 36.3062C14.44 36.3681 14.4088 36.4602 14.3467 36.511C14.218 36.616 14.1056 36.9562 14.2232 36.8847C14.2655 36.859 14.3002 36.8725 14.3002 36.9147C14.3002 37.0448 13.623 38.2181 13.4912 38.3164C13.4229 38.3673 13.367 38.4645 13.367 38.5323C13.367 38.6001 13.2312 38.7772 13.0652 38.9256C12.8993 39.0741 12.7787 39.2396 12.7975 39.2934C12.8161 39.3472 12.7586 39.454 12.6695 39.5308C12.5805 39.6076 12.5101 39.7015 12.5131 39.7393C12.5162 39.7772 12.471 39.8082 12.4127 39.8082C12.3544 39.8082 12.3049 39.9055 12.3029 40.0244C12.2993 40.2328 12.31 40.2376 12.5998 40.1554C12.7652 40.1085 12.9607 40.0206 13.0344 39.96C13.108 39.8994 13.2196 39.8499 13.2822 39.8499C13.3448 39.8499 13.4659 39.7878 13.5512 39.7119C13.6851 39.5927 13.7063 39.5912 13.7063 39.7008C13.7063 39.7706 13.5536 39.927 13.367 40.0484C12.9816 40.2992 12.9439 40.3728 13.2186 40.3379C13.3236 40.3246 13.4581 40.3435 13.5176 40.3798C13.5867 40.4221 13.6173 40.4062 13.6024 40.3355C13.5895 40.2745 13.655 40.2223 13.7488 40.2187C13.9725 40.2103 14.4698 40.0171 14.4698 39.9387C14.4698 39.9048 14.6777 39.7906 14.9319 39.685C15.186 39.5794 15.4138 39.4419 15.4382 39.3796C15.4625 39.3172 15.5321 39.2662 15.593 39.2662C15.6537 39.2662 15.854 38.9754 16.038 38.6199C16.2221 38.2644 16.4217 37.9436 16.4816 37.9069C16.5415 37.8702 16.5906 37.7942 16.5906 37.7379C16.5906 37.6815 16.6956 37.4285 16.8239 37.1755C17.0819 36.6668 17.088 36.6492 17.2159 36.0557C17.2652 35.8263 17.3377 35.6164 17.3769 35.5893C17.416 35.5622 17.465 35.3699 17.4857 35.1621C17.5439 34.5776 17.7249 34.2419 18.0828 34.0543C18.2579 33.9626 18.4233 33.8862 18.4502 33.8846C18.4772 33.883 18.5756 33.8411 18.6689 33.7915C18.9439 33.6455 19.8854 33.3455 20.069 33.3455C20.1621 33.3455 20.2412 33.3736 20.2448 33.408C20.2484 33.4425 20.2686 33.5456 20.2897 33.6374C20.3108 33.7291 20.3345 34.0762 20.3421 34.4087C20.3498 34.7412 20.3869 35.0133 20.4245 35.0133C20.4621 35.0133 20.4928 35.1236 20.4928 35.2585C20.4928 35.3935 20.5316 35.5274 20.579 35.5562C20.6826 35.6191 20.6697 36.8277 20.5634 37.0336C20.5086 37.1393 20.5345 37.2056 20.6605 37.283C20.8363 37.3909 20.8996 37.6818 20.7473 37.6818C20.7006 37.6818 20.6624 37.642 20.6624 37.5934C20.6624 37.5449 20.6243 37.5283 20.5776 37.5567C20.531 37.585 20.4886 37.5403 20.4835 37.4574C20.4784 37.3744 20.4559 37.0626 20.4334 36.7645C20.4109 36.4664 20.3878 36.1567 20.3821 36.0765C20.3763 35.9963 20.3496 35.9306 20.3226 35.9306C20.2957 35.9306 20.2748 36.3152 20.2763 36.7853C20.2787 37.59 20.1873 38.6446 20.1034 38.778C20.0826 38.8111 20.123 39.0001 20.1931 39.1981C20.2632 39.3961 20.3212 39.6402 20.3218 39.7407C20.3225 39.8412 20.358 39.9446 20.4005 39.9705C20.4431 39.9963 20.4494 40.1205 20.4146 40.2464C20.379 40.3757 20.3969 40.646 20.4558 40.8673C20.5337 41.1599 20.5354 41.2693 20.4628 41.2988C20.3967 41.3256 20.4062 41.3665 20.4928 41.4267C20.5791 41.4867 20.5858 41.5155 20.514 41.5164C20.3162 41.5188 20.4051 42.0227 20.7127 42.6426C20.8803 42.9805 21.0712 43.2772 21.1368 43.302C21.2025 43.3267 21.2563 43.3879 21.2563 43.438C21.2563 43.4879 21.2181 43.5057 21.1714 43.4773C20.9668 43.353 21.1123 43.7085 21.3623 43.9438C21.5795 44.1483 21.6438 44.1749 21.6654 44.0696C21.6805 43.9961 21.7664 43.936 21.8563 43.936C21.9644 43.936 22.0197 43.8782 22.0197 43.7654C22.0197 43.6716 22.1104 43.5057 22.2212 43.3968C22.5784 43.0456 22.8472 42.0984 23.0346 40.5306C23.236 38.845 23.2594 37.9326 23.1013 37.9307C23.0245 37.9298 23.0275 37.9093 23.1122 37.8565C23.1765 37.8165 23.2018 37.7403 23.1683 37.6872C23.0755 37.5396 23.0099 34.7057 23.0769 33.7413L23.1362 32.8869L23.4475 32.8691C23.7709 32.8508 24.9677 32.7383 25.116 32.7124C25.1627 32.7043 25.3272 32.6933 25.4816 32.688C25.6524 32.6821 25.7409 32.6444 25.7077 32.5917C25.6436 32.4896 26.088 32.5752 26.2146 32.6891C26.3363 32.7989 26.7922 32.7808 26.722 32.669C26.6899 32.6181 26.7163 32.5436 26.7806 32.5036C26.8707 32.4475 26.8586 32.4282 26.7278 32.4196C26.6345 32.4135 26.5066 32.4154 26.4436 32.4239C26.3806 32.4324 26.3542 32.3994 26.385 32.3504C26.4157 32.3015 26.4959 32.2614 26.5632 32.2614C26.6304 32.2614 26.6854 32.2193 26.6854 32.1679C26.6854 32.1007 26.7193 32.1019 26.8055 32.1722C26.902 32.2509 26.9387 32.2323 26.992 32.0782C27.0285 31.9726 27.0494 31.8541 27.0385 31.8149C27.0277 31.7756 27.0654 31.6883 27.1224 31.6207C27.1795 31.5531 27.231 31.3959 27.237 31.2713C27.2429 31.1467 27.2762 30.9994 27.311 30.9441C27.351 30.8804 27.297 30.8146 27.1639 30.7649C27.0482 30.7217 26.9219 30.6354 26.8831 30.5732C26.8444 30.5111 26.6859 30.3732 26.5311 30.2669C26.3762 30.1607 26.2158 29.9866 26.1745 29.8801C26.1264 29.7554 25.9889 29.6563 25.7887 29.602C25.6176 29.5555 25.4154 29.4625 25.3393 29.3951C25.1378 29.2168 24.3571 28.9309 24.172 28.9677C24.0847 28.9851 23.7996 29.0169 23.5386 29.0386L23.0639 29.078L23.1018 28.0689C23.136 27.1583 23.1244 27.0485 22.9826 26.9449C22.8394 26.8401 22.846 26.835 23.0589 26.8863C23.2028 26.921 23.2922 26.9087 23.2922 26.854C23.2922 26.8054 23.4354 26.7001 23.6103 26.6201C23.7853 26.54 24.0238 26.4081 24.1405 26.3269C24.2571 26.2458 24.5243 26.1718 24.7343 26.1626C24.9745 26.1521 25.1723 26.0893 25.2678 25.9931C25.3513 25.9092 25.4781 25.8404 25.5495 25.8404C25.7311 25.8404 25.9542 25.602 25.9851 25.3748C26.0008 25.2598 25.9324 25.1074 25.8131 24.991C25.7042 24.8849 25.5118 24.6386 25.3855 24.4437C25.2593 24.2488 25.1198 24.0893 25.0754 24.0893C25.031 24.0893 24.8599 23.9729 24.6953 23.8308L24.3958 23.5724L24.4522 23.8517C24.5033 24.1054 24.4954 24.1205 24.3669 24.0165C24.289 23.9536 24.2253 23.8535 24.2253 23.7941C24.2253 23.7348 24.1776 23.6673 24.1193 23.6441C24.0566 23.6193 24.0747 23.5994 24.1635 23.5955C24.3353 23.588 24.8962 23.2484 25.3186 22.8962C25.5151 22.7324 25.67 22.6686 25.8084 22.6947C25.9689 22.7248 26.0015 22.7033 25.9653 22.591C25.9341 22.4948 25.9892 22.4181 26.1368 22.352C26.4534 22.2102 26.5351 22.2301 26.4696 22.433C26.4174 22.5946 26.4347 22.6057 26.6548 22.5514C26.7882 22.5185 26.9833 22.4905 27.0883 22.4894C27.2014 22.4881 27.2792 22.4356 27.2792 22.3608C27.2792 22.2644 27.3064 22.2564 27.3931 22.3272C27.4557 22.3782 27.5225 22.4047 27.5415 22.386C27.5605 22.3674 27.9075 22.334 28.3126 22.3118C28.9424 22.2775 29.057 22.2916 29.1033 22.4091C29.1331 22.4847 29.173 22.9218 29.1921 23.3805C29.3514 27.2226 29.469 29.0584 29.7053 31.3858C29.7798 32.1197 29.8456 33.358 29.8514 34.1377C29.8573 34.9174 29.886 35.3865 29.9152 35.1801C29.9663 34.8187 29.9691 34.8249 29.9889 35.3469C30.0003 35.645 30.0215 36.0484 30.036 36.2433C30.0506 36.4382 30.028 36.5977 29.9857 36.5977C29.9435 36.5977 29.909 36.6562 29.909 36.7277C29.909 36.7992 29.8702 36.8341 29.8228 36.8053C29.7753 36.7765 29.7637 36.7097 29.797 36.6568C29.8301 36.604 29.8469 36.4471 29.834 36.3083C29.8212 36.1693 29.7826 35.5491 29.748 34.9299C29.7047 34.1526 29.6785 33.9719 29.6634 34.3462C29.6513 34.6443 29.6334 35.0383 29.6237 35.2218C29.6139 35.4052 29.5978 35.7358 29.5878 35.9563C29.5768 36.1986 29.536 36.3369 29.4848 36.3058C29.4381 36.2775 29.4 36.3316 29.4 36.426C29.4 36.5204 29.4381 36.5977 29.4848 36.5977C29.5315 36.5977 29.5696 36.6727 29.5696 36.7645C29.5696 36.8562 29.5281 36.9313 29.4773 36.9313C29.4181 36.9313 29.402 37.0513 29.4324 37.2648C29.4584 37.4483 29.4469 37.5984 29.4066 37.5984C29.2593 37.5984 29.221 37.8857 29.3553 37.9823C29.4703 38.0649 29.4756 38.1371 29.3923 38.4849C29.3389 38.7082 29.2597 38.959 29.2162 39.0421C29.1729 39.1251 29.1609 39.2659 29.1896 39.3548C29.2744 39.6176 29.1635 39.8389 28.9716 39.7896C28.8431 39.7566 28.816 39.7782 28.8564 39.8815C28.8912 39.9709 28.8638 40.0167 28.7754 40.0167C28.6971 40.0167 28.6602 39.9694 28.6865 39.9023C28.711 39.8395 28.6662 39.7635 28.5868 39.7336C28.398 39.6623 28.3086 39.7533 28.4693 39.8531C28.5775 39.9204 28.5766 39.9309 28.4626 39.932C28.3902 39.9327 28.2948 39.9003 28.2505 39.86C28.2062 39.8196 28.0269 39.7417 27.8521 39.6868C27.6773 39.6319 27.1919 39.3084 26.7734 38.968C26.355 38.6275 25.9797 38.3489 25.9397 38.3489C25.8995 38.3489 25.7771 38.2552 25.6678 38.1407C25.5583 38.0262 25.4522 37.9489 25.4319 37.9689C25.3934 38.0067 25.7974 38.4323 25.8718 38.4323C25.9232 38.4323 26.3461 38.8423 26.3461 38.8921C26.3461 38.9115 26.2888 38.9058 26.2188 38.8794C26.1488 38.853 26.0916 38.8733 26.0916 38.9247C26.0916 39.056 25.1425 38.2814 25.0207 38.0506C24.9655 37.9459 24.9452 37.8329 24.9757 37.7994C25.0063 37.766 24.9676 37.761 24.8898 37.7883C24.8037 37.8185 24.7282 37.7864 24.6969 37.7063C24.6686 37.6338 24.6227 37.5969 24.5949 37.6241C24.5335 37.6846 24.3101 37.4767 24.3101 37.359C24.3101 37.3127 24.2722 37.2516 24.2259 37.2235C24.0939 37.1433 24.2011 37.9114 24.3515 38.1231C24.4234 38.2243 24.6154 38.4573 24.778 38.6407C24.9406 38.8242 25.2401 39.1619 25.4435 39.3912C25.6468 39.6206 25.7982 39.8495 25.7799 39.8999C25.7616 39.9504 25.8051 40.0393 25.8767 40.0977C25.9482 40.1561 26.0068 40.2368 26.0068 40.277C26.0068 40.3993 25.8343 40.3596 25.5745 40.1778C25.439 40.0829 25.3281 40.0354 25.3281 40.0722C25.3281 40.1822 26.5999 41.3462 26.8701 41.4837C27.1365 41.6191 27.1538 41.8284 26.8948 41.7816C26.8097 41.7663 26.6145 41.6595 26.461 41.5444C26.0782 41.2574 25.8982 41.3379 26.2444 41.6412C26.4079 41.7844 26.5157 41.9588 26.5157 42.0801C26.5157 42.2673 27.0894 42.9326 27.2547 42.9371C27.2915 42.9381 27.3792 43.0601 27.4497 43.2081C27.5201 43.3562 27.6251 43.468 27.683 43.4565C27.7409 43.4451 27.7882 43.4748 27.7882 43.5227C27.7882 43.6701 28.3998 44.2685 28.4929 44.212C28.5479 44.1786 28.5585 44.2152 28.5213 44.3105C28.4818 44.4116 28.5266 44.5313 28.6553 44.6692C28.7892 44.8126 28.816 44.8875 28.7425 44.9134C28.5641 44.976 28.625 45.1183 28.8061 45.0617C28.9326 45.0223 28.9952 45.0579 29.0524 45.2021C29.0947 45.3083 29.2092 45.4782 29.307 45.5794C29.4048 45.6807 29.4848 45.8012 29.4848 45.8473C29.4848 45.8932 29.6373 46.0793 29.8238 46.2608C30.1198 46.5489 30.1733 46.5731 30.2454 46.4517C30.3165 46.3318 30.3283 46.3386 30.3306 46.5002C30.3332 46.696 30.5333 46.7583 30.6358 46.5953C30.6699 46.5411 30.8126 46.5216 30.9801 46.5483C31.1453 46.5747 31.2662 46.5587 31.2662 46.5105C31.2662 46.4647 31.3364 46.4388 31.4222 46.4532C31.5078 46.4674 31.7359 46.3715 31.9288 46.2401C32.2322 46.0335 32.2673 45.9788 32.1892 45.8353C32.1248 45.717 32.1255 45.643 32.1915 45.5782C32.2586 45.5122 32.2842 45.5175 32.2842 45.5973C32.2842 45.6859 32.3092 45.6872 32.4114 45.6038C32.4814 45.5466 32.5387 45.4133 32.5387 45.3074C32.5387 45.1884 32.6363 45.0464 32.7942 44.936C32.9347 44.8376 33.0291 44.7243 33.0039 44.6843C32.9787 44.6442 33.0326 44.5722 33.1236 44.5244C33.2146 44.4765 33.4125 44.2253 33.5633 43.9662C33.8354 43.4987 33.8375 43.4866 33.8442 42.3188C33.8481 41.6264 33.8864 41.1172 33.9371 41.0811C33.9942 41.0405 33.9925 41.0194 33.932 41.0186C33.8441 41.0174 33.7987 39.7101 33.7768 36.556C33.7724 35.9139 33.733 35.3633 33.6893 35.3323C33.6415 35.2985 33.6479 35.2312 33.7057 35.1628C33.7739 35.082 33.777 34.9429 33.7164 34.6777C33.6697 34.4733 33.63 34.1274 33.6283 33.9091C33.6266 33.6909 33.6003 33.5122 33.5697 33.5122C33.4736 33.512 33.4738 32.2701 33.5699 32.2117C33.6328 32.1735 33.6326 32.1408 33.5691 32.1022C33.4896 32.054 33.4665 31.8478 33.4696 31.2191C33.47 31.1273 33.4474 30.7379 33.4192 30.3537C33.3784 29.7965 33.3901 29.6684 33.477 29.7212C33.5395 29.7592 33.5254 29.7025 33.4441 29.5882C33.3364 29.437 33.3042 29.2179 33.3107 28.6779C33.3164 28.1939 33.3408 28.0334 33.387 28.1754C33.4505 28.3701 33.4555 28.3655 33.4633 28.1039C33.4699 27.8874 33.443 27.8348 33.3446 27.872C33.2746 27.8983 33.2125 27.893 33.2065 27.8601C33.1457 27.523 33.1227 27.1904 33.0771 25.9879C33.0345 24.8632 33.0472 24.5651 33.142 24.4504C33.2456 24.3253 33.2419 24.3148 33.1113 24.3629C32.9403 24.4259 32.916 24.3354 33.0646 24.1893C33.1438 24.1115 33.1427 24.0893 33.0595 24.0893C32.94 24.0893 32.9636 23.0115 33.1226 21.2123C33.309 19.1016 33.3857 18.186 33.4333 17.5015C33.4605 17.1116 33.5218 16.6451 33.5696 16.4646C33.6173 16.2842 33.6346 16.0294 33.6081 15.8986C33.5742 15.7322 33.5975 15.6463 33.6853 15.6131C33.7664 15.5825 33.809 15.4576 33.8052 15.2619C33.8004 15.0161 33.7853 14.99 33.7263 15.1249C33.6617 15.2727 33.6528 15.2656 33.6474 15.0623C33.6438 14.9208 33.686 14.833 33.7579 14.833C33.867 14.833 33.9282 14.6136 34.03 13.8593C34.0543 13.6792 34.0279 13.5858 33.9476 13.5674C33.8503 13.5452 33.8472 13.4889 33.9304 13.2486C33.986 13.0881 34.076 12.9657 34.1304 12.9766C34.1859 12.9878 34.2081 12.9423 34.1809 12.8729C34.1544 12.8049 34.092 12.774 34.0423 12.8042C33.9833 12.84 33.9737 12.8038 34.0147 12.6994C34.0493 12.6116 34.0987 12.4366 34.1246 12.3105C34.1743 12.0683 34.2772 12.011 34.3488 12.1854C34.3723 12.2428 34.3946 12.2114 34.3983 12.1159C34.4055 11.9283 34.9618 11.3307 35.1292 11.3307C35.1853 11.3307 35.2811 11.1525 35.342 10.9346C35.4029 10.7167 35.4938 10.5117 35.5439 10.4789C35.6651 10.3997 35.6448 9.63827 35.5204 9.5975C35.4668 9.57998 35.4229 9.47491 35.4229 9.36409C35.4229 9.25318 35.3842 9.16254 35.3367 9.16254C35.2893 9.16254 35.1868 9.0312 35.109 8.87067C35.0311 8.71015 34.9197 8.57881 34.8615 8.57881C34.7573 8.57881 34.6409 8.34165 34.5851 8.01593C34.565 7.89818 34.1733 7.49475 34.0791 7.49475C34.0275 7.49475 33.9278 7.38567 33.8577 7.25242C33.7876 7.11916 33.6149 6.95989 33.4738 6.89851C33.3327 6.83714 33.2173 6.7625 33.2173 6.73256C33.2173 6.70271 33.0169 6.55361 32.772 6.40126C32.5271 6.24891 32.3041 6.09297 32.2764 6.05461C32.2303 5.99065 31.987 5.93761 31.4359 5.87148C31.3193 5.85748 31.0664 5.81895 30.874 5.78584C30.6445 5.74632 30.5038 5.75782 30.4651 5.81937C30.4327 5.8709 30.3701 5.89108 30.3259 5.86423C30.2817 5.83738 30.2674 5.78051 30.2943 5.73781C30.3841 5.59505 30.1231 5.66801 29.9577 5.83188ZM25.7104 7.91078C25.6807 7.95798 25.7148 7.97198 25.7903 7.94355C25.9372 7.88809 25.9641 7.8283 25.8421 7.8283C25.7982 7.8283 25.7389 7.86541 25.7104 7.91078ZM14.1714 8.33173C13.9683 8.39127 13.8809 8.49409 13.7485 8.82964C13.5782 9.2611 13.3825 9.44723 12.9998 9.54162C12.8815 9.57089 12.6247 9.73993 12.4292 9.91729C12.2338 10.0947 12.0499 10.2339 12.0206 10.2267C11.8917 10.1948 11.1219 10.3528 10.9793 10.4404C10.8929 10.4934 10.8215 10.5935 10.8208 10.6628C10.8197 10.7745 10.8094 10.7746 10.7296 10.6635C10.6614 10.5689 10.629 10.564 10.5963 10.6432C10.5725 10.7008 10.5181 10.7267 10.4753 10.7007C10.4325 10.6747 10.2163 10.7459 9.99476 10.8588C9.77327 10.9718 9.52531 11.0856 9.44362 11.1115C9.36193 11.1375 9.29457 11.2255 9.29389 11.3072C9.29279 11.4333 9.2804 11.4369 9.21161 11.3307C9.14315 11.2248 9.10277 11.2226 8.94956 11.316C8.84997 11.3767 8.79373 11.386 8.82469 11.3368C8.85786 11.2841 8.80917 11.2473 8.70636 11.2473C8.60931 11.2473 8.53169 11.3017 8.53169 11.3698C8.53169 11.4443 8.48198 11.4734 8.40444 11.4442C8.33446 11.4178 8.2772 11.3252 8.2772 11.2384C8.2772 11.1255 8.21663 11.0805 8.06512 11.0805C7.86297 11.0805 7.81818 11.156 7.83023 11.4766C7.83243 11.534 7.80028 11.5808 7.7588 11.5808C7.71732 11.5808 7.68339 11.6323 7.68339 11.6952C7.68339 11.8592 7.10747 11.9292 6.57508 11.83C6.32873 11.7841 5.87607 11.7267 5.56916 11.7026C5.26233 11.6785 4.89671 11.6368 4.75674 11.61L4.50225 11.5614L4.68336 11.7587C4.89331 11.9875 5.02056 12.3313 4.89535 12.3313C4.84861 12.3313 4.81748 12.4889 4.82604 12.6817C4.83936 12.9822 4.81442 13.0385 4.65053 13.0778L4.45949 13.1235L4.63823 13.4779C4.73646 13.6728 4.84674 13.8324 4.88322 13.8324C4.9197 13.8324 4.97534 14.0012 5.00682 14.2076C5.0388 14.4174 5.1098 14.5829 5.16791 14.5829C5.225 14.5829 5.27624 14.6486 5.28167 14.7288C5.32077 15.3085 5.89932 15.9478 6.83126 16.4412C7.26941 16.6731 7.26992 16.6739 7.2264 17.0249C7.17542 17.4361 7.11545 17.7407 6.98786 18.2355C6.92068 18.4962 6.86146 18.5814 6.77095 18.5472C6.6829 18.514 6.66194 18.5398 6.69935 18.6356C6.74194 18.7446 6.71208 18.761 6.54615 18.7201C6.41839 18.6885 6.32389 18.7087 6.29743 18.7733C6.26332 18.8564 6.25331 18.8564 6.24797 18.7732C6.24432 18.7159 6.20233 18.6689 6.15483 18.6689C6.10495 18.6689 6.09095 18.7572 6.12157 18.8774C6.15576 19.0113 6.13913 19.0859 6.07509 19.0859C5.94631 19.0859 6.04124 19.3936 6.25179 19.6586C6.43748 19.8924 6.39549 20.0054 6.14677 19.9415C5.98152 19.899 5.97592 19.911 6.07466 20.0952C6.13353 20.2051 6.25238 20.3845 6.33874 20.4939C6.49551 20.6925 6.55251 21.0039 6.43214 21.0039C6.39719 21.0039 6.36818 21.2009 6.36784 21.4416C6.36741 21.6824 6.34052 22.0347 6.30803 22.2244C6.27554 22.4141 6.20819 23.1459 6.15831 23.8505C6.10851 24.5552 6.04913 25.2148 6.02639 25.3164C6.00366 25.418 5.96353 25.8683 5.93724 26.3171C5.91102 26.7658 5.86055 27.2643 5.82526 27.4248C5.78989 27.5854 5.75163 27.9782 5.74009 28.2979C5.72864 28.6176 5.7009 28.9083 5.6785 28.944C5.65611 28.9796 5.60317 29.3935 5.56076 29.8637C5.51843 30.334 5.44352 31.094 5.39424 31.5526C5.34495 32.0113 5.28532 32.668 5.26173 33.0119C5.23806 33.3559 5.20065 33.7499 5.1786 33.8875C5.10208 34.3634 4.98247 35.7247 4.95889 36.3892C4.94582 36.7561 4.9074 37.1126 4.87355 37.1814C4.70177 37.5302 4.56052 38.0031 4.61278 38.0545C4.64535 38.0864 4.61694 38.1001 4.54967 38.0848C4.39392 38.0493 4.3325 38.3174 4.44354 38.5474C4.73807 39.1573 4.82299 39.6831 4.62703 39.6831C4.58589 39.6831 4.60777 39.838 4.67564 40.0272C4.74359 40.2164 4.79915 40.4618 4.79915 40.5725C4.79915 40.8121 5.10658 41.4343 5.225 41.4343C5.27072 41.4343 5.30813 41.5634 5.30813 41.7212C5.30813 41.8791 5.3469 42.0318 5.39432 42.0605C5.44174 42.0894 5.46286 42.1411 5.44115 42.1756C5.38754 42.2608 5.70836 42.7685 5.81584 42.7685C5.86318 42.7685 5.90195 42.8216 5.90195 42.8867C5.90195 42.9516 5.94971 43.0237 6.00799 43.0469C6.07848 43.0748 6.06991 43.0912 5.98254 43.0955C5.91018 43.0991 5.80524 43.057 5.74925 43.002C5.68291 42.9368 5.64746 42.9333 5.64746 42.9918C5.64746 43.0412 5.70472 43.1283 5.7747 43.1855C5.84469 43.2426 5.90195 43.3317 5.90195 43.3836C5.90195 43.4968 6.36079 43.936 6.47905 43.936C6.52494 43.936 6.58441 43.9923 6.6113 44.0611C6.6784 44.2331 6.91991 44.2192 6.91991 44.0432C6.91991 43.9108 6.93018 43.9103 7.05878 44.0368C7.16185 44.138 7.24948 44.154 7.3981 44.0984C7.56691 44.0353 7.59856 44.0496 7.59856 44.1882C7.59856 44.2788 7.64207 44.3529 7.69526 44.3529C7.74845 44.3529 7.8343 44.41 7.88613 44.4796C7.9702 44.5926 8.00108 44.592 8.1726 44.4739C8.27839 44.401 8.34192 44.3051 8.31393 44.2604C8.28594 44.2159 8.36483 44.1007 8.48927 44.0044C8.66343 43.8698 8.68956 43.8131 8.60244 43.7589C8.51727 43.7058 8.52847 43.6881 8.64765 43.6871C8.77176 43.6861 8.79695 43.6395 8.76421 43.4711C8.71993 43.2434 8.9466 42.5703 9.19099 42.2036C9.30458 42.0332 9.33843 41.7948 9.34123 41.1453C9.34318 40.6841 9.37406 40.2603 9.40985 40.2035C9.44684 40.1446 9.43369 40.1001 9.37932 40.1001C9.32231 40.1001 9.30551 40.0327 9.33758 39.9333C9.36846 39.8376 9.35285 39.7665 9.30085 39.7665C9.25105 39.7665 9.21033 39.7102 9.21033 39.6414C9.21033 39.5726 9.24851 39.5163 9.29516 39.5163C9.34182 39.5163 9.37999 39.4578 9.37999 39.3863C9.37999 39.3149 9.34182 39.2795 9.29516 39.3079C9.24851 39.3362 9.21033 39.2987 9.21033 39.2245C9.21033 39.1502 9.24851 39.1127 9.29516 39.1411C9.34182 39.1694 9.37999 39.1341 9.37999 39.0626C9.37999 38.9911 9.33766 38.9326 9.286 38.9326C9.22806 38.9326 9.21237 38.8526 9.2452 38.7241C9.27582 38.6039 9.26182 38.5157 9.21194 38.5157C9.16444 38.5157 9.1255 38.4759 9.1255 38.4273C9.1255 38.3788 9.15418 38.3565 9.18913 38.3778C9.22408 38.3992 9.24325 38.1668 9.23163 37.8615C9.22 37.5563 9.24935 37.1376 9.29677 36.9313C9.3442 36.7249 9.39984 36.2933 9.42054 35.9723C9.44116 35.6512 9.47678 35.2384 9.49969 35.055C9.53515 34.7709 9.53082 34.7585 9.47068 34.9716C9.38127 35.2885 9.35531 35.1777 9.38262 34.5963C9.3945 34.3441 9.40824 33.8504 9.41333 33.4994C9.41834 33.1483 9.45431 32.8804 9.49324 32.904C9.5321 32.9277 9.55704 32.8022 9.54864 32.6251C9.54015 32.4481 9.53693 32.139 9.54143 31.9386C9.54898 31.6053 9.56246 31.5834 9.69811 31.6843C9.82442 31.7783 9.8307 31.7773 9.74052 31.6779C9.68224 31.6136 9.63508 31.4841 9.63576 31.39C9.63686 31.2491 9.65154 31.241 9.71932 31.3442C9.78956 31.4511 9.80177 31.4481 9.80287 31.3233C9.80355 31.2431 9.76402 31.1774 9.71499 31.1774C9.6277 31.1774 9.65739 29.8248 9.77081 28.634C9.79702 28.3588 9.83435 27.946 9.85386 27.7167C9.87328 27.4874 9.91052 27.209 9.93674 27.098C9.98153 26.9077 9.89474 25.39 9.84198 25.4418C9.76996 25.5126 9.73857 26.4242 9.80822 26.4242C9.85258 26.4242 9.88898 26.4639 9.88898 26.5125C9.88898 26.561 9.85504 26.5802 9.81365 26.555C9.77225 26.5298 9.72135 26.6231 9.70057 26.7622C9.67979 26.9014 9.69616 27.0355 9.73688 27.0603C9.77768 27.085 9.7882 27.1761 9.76029 27.2625C9.5947 27.7754 9.44107 29.6102 9.33486 32.3448C9.30195 33.1933 9.24808 33.9166 9.21517 33.9521C9.18225 33.9876 9.17097 33.8239 9.19006 33.5883C9.21093 33.3312 9.19269 33.1796 9.14433 33.209C9.09437 33.2393 9.07155 32.541 9.08394 31.3628C9.09963 29.8838 9.15172 29.1201 9.32121 27.8835C9.44065 27.0121 9.56526 25.8488 9.59818 25.2984C9.63109 24.748 9.68165 24.2336 9.71049 24.1552C9.79235 23.9327 10.0021 24.1164 10.0021 24.4108C10.0021 24.5499 10.0244 24.6598 10.0516 24.6551C10.2114 24.6273 10.3977 24.7925 10.3552 24.9242C10.3289 25.0057 10.3659 25.13 10.4375 25.2003C10.5091 25.2706 10.5676 25.3601 10.5676 25.3992C10.5676 25.4383 10.695 25.5884 10.8509 25.7328C11.1146 25.9774 11.1433 25.9858 11.269 25.8554C11.4857 25.6306 11.6494 25.5141 11.6909 25.5548C11.8293 25.6908 12.8161 24.9498 13.8702 23.9186C14.7595 23.0486 16.7097 20.9091 17.4508 19.9905C17.6857 19.6993 17.935 19.4172 18.0048 19.3634C18.1745 19.2328 18.4606 18.7005 18.3954 18.6364C18.367 18.6084 18.403 18.5856 18.4753 18.5856C18.5478 18.5856 18.6695 18.4917 18.7459 18.3771C18.8224 18.2624 18.8618 18.1686 18.8336 18.1686C18.8054 18.1686 18.8618 18.0422 18.9589 17.8877C19.186 17.5265 19.183 17.4515 18.9498 17.665C18.8477 17.7585 18.7163 17.835 18.6577 17.835C18.5992 17.835 18.4949 17.9142 18.4261 18.0108C18.35 18.1175 18.2596 18.1617 18.1962 18.1232C18.1191 18.0764 18.134 18.0295 18.2527 17.9441C18.3914 17.8444 18.3961 17.8176 18.2868 17.7497C18.1196 17.6458 18.0327 17.6481 18.0327 17.7566C18.0327 17.8051 18.0709 17.8217 18.1175 17.7934C18.1642 17.765 18.2024 17.7816 18.2024 17.8301C18.2024 17.9109 18.0869 17.9484 17.995 17.8976C17.9742 17.8862 17.8311 17.9912 17.6769 18.1312C17.5226 18.2713 17.3291 18.4358 17.2468 18.4968C17.113 18.5961 17.1004 18.5869 17.128 18.4091C17.145 18.2998 17.189 18.2229 17.2258 18.2382C17.3447 18.288 17.4234 18.067 17.3962 17.7596C17.3816 17.5947 17.4025 17.2909 17.4426 17.0845C17.5636 16.462 17.6102 16.0069 17.6605 14.959C17.7096 13.9346 17.7354 13.7966 17.8637 13.8745C17.9043 13.8991 17.9706 13.861 18.0111 13.7897C18.0517 13.7185 18.2163 13.5958 18.3769 13.517C18.5375 13.4382 18.6689 13.3254 18.6689 13.2665C18.6689 13.2074 18.724 13.1257 18.7912 13.0848C18.9298 13.0006 19.1323 12.4011 19.1342 12.0692C19.1349 11.948 19.0782 11.8272 19.0082 11.8008C18.9383 11.7745 18.881 11.6635 18.881 11.5542C18.881 11.4449 18.8362 11.2293 18.7815 11.0748C18.6701 10.7609 17.979 9.82965 17.8574 9.82965C17.8143 9.82965 17.5838 9.64169 17.3451 9.41204C17.1065 9.1823 16.801 8.9303 16.6661 8.85199C16.5313 8.77369 16.4179 8.65203 16.4142 8.58164C16.4099 8.49909 16.3926 8.48992 16.3654 8.55579C16.333 8.63443 16.281 8.63151 16.1389 8.54287C15.9733 8.43972 15.7768 8.40444 14.7243 8.2892C14.561 8.27127 14.3122 8.29045 14.1714 8.33173ZM27.5843 11.3152C27.1132 11.4695 26.6706 11.6441 26.6006 11.7032C26.5306 11.7622 26.3302 11.8602 26.1552 11.9209C25.9803 11.9816 25.8371 12.0612 25.8371 12.0979C25.8371 12.1345 25.7249 12.1646 25.5876 12.1646C25.4503 12.1646 25.3177 12.1971 25.2927 12.2368C25.2678 12.2765 25.1555 12.2917 25.0432 12.2706C24.9308 12.2495 24.8145 12.2711 24.7847 12.3187C24.7392 12.391 24.7061 13.7368 24.7282 14.6166C24.7339 14.8406 24.7455 14.8492 24.8827 14.7304C25.0455 14.5894 26.6355 13.7763 27.1095 13.5915C27.8524 13.3021 28.0113 13.251 28.1742 13.2499C28.2699 13.2492 28.3877 13.2876 28.436 13.3351C28.5566 13.4536 28.9748 13.2923 28.9792 13.1256C29.0057 12.1346 28.9712 11.3112 28.8976 11.1761C28.7788 10.9578 28.6253 10.9741 27.5843 11.3152ZM18.8029 12.2132C18.8069 12.3103 18.827 12.3301 18.8541 12.2636C18.8786 12.2034 18.8756 12.1315 18.8474 12.1038C18.8192 12.0761 18.7992 12.1253 18.8029 12.2132ZM13.3515 13.1304C13.1331 13.2399 12.8975 13.4092 12.8281 13.5065C12.7587 13.6039 12.6618 13.6593 12.6128 13.6295C12.5638 13.5997 12.41 13.6332 12.2709 13.7038C12.1319 13.7746 11.9484 13.8324 11.8632 13.8324C11.778 13.8324 11.5815 13.9462 11.4266 14.0852C11.2717 14.2243 10.9578 14.4313 10.7291 14.5452C10.5003 14.6592 10.31 14.78 10.3063 14.8136C10.2578 15.243 10.2726 15.3063 10.4124 15.2704C10.4928 15.2497 10.5742 15.1898 10.5933 15.1371C10.6497 14.9822 10.5783 15.3239 10.3868 16.1256C10.107 17.2975 10.0973 17.4181 10.2835 17.4181C10.3707 17.4181 10.5373 17.3337 10.6537 17.2305C11.5482 16.4374 11.7962 16.2506 11.9553 16.2501C12.0552 16.2498 12.2496 16.1766 12.3871 16.0875C12.6046 15.9465 12.7389 15.9313 13.4155 15.9707L14.1937 16.0161L14.2521 15.6331C14.2843 15.4223 14.3464 15.25 14.3902 15.25C14.434 15.25 14.4698 15.2875 14.4698 15.3334C14.4698 15.3792 14.5146 15.4168 14.5694 15.4168C14.6242 15.4168 14.5909 15.3324 14.4954 15.2291C14.3999 15.1259 14.3412 14.9885 14.3651 14.9237C14.3889 14.8589 14.3519 14.7651 14.2829 14.7152C14.2139 14.6653 14.1306 14.4242 14.0977 14.1795C14.0648 13.9347 14.0021 13.672 13.9583 13.5958C13.9145 13.5195 13.8495 13.3388 13.8137 13.1942L13.7488 12.9312L13.3515 13.1304ZM34.0303 13.3208C33.9937 13.379 33.9867 13.449 34.0147 13.4765C34.0907 13.5512 34.1735 13.4414 34.1324 13.3205C34.1037 13.2358 34.0837 13.2358 34.0303 13.3208ZM21.9861 16.334C22.0111 16.6322 22.0649 17.1763 22.1058 17.5432C22.1757 18.1697 22.1784 18.1493 22.1496 17.2096C22.1327 16.6593 22.0788 16.1151 22.0299 16.0005C21.9601 15.837 21.9507 15.9088 21.9861 16.334ZM28.9758 15.9337L28.7637 16.0231L28.975 16.0779C29.2516 16.1497 29.0776 16.259 28.7035 16.2485C28.359 16.2387 27.3608 16.4578 27.2893 16.5589C27.2604 16.5996 27.1414 16.6412 27.0247 16.6511C26.6898 16.6797 26.5671 16.7085 26.4347 16.7897C26.3669 16.8313 26.1951 16.8775 26.053 16.8923C25.9109 16.9072 25.7523 16.9752 25.7005 17.0436C25.6487 17.112 25.5613 17.1679 25.5063 17.1679C25.4512 17.1679 25.2565 17.243 25.0736 17.3347C24.8907 17.4264 24.6727 17.5015 24.5892 17.5015C24.461 17.5014 24.4374 17.5758 24.4374 17.981C24.4374 18.2447 24.407 18.8827 24.3699 19.3986C24.3327 19.9146 24.3261 20.3367 24.355 20.3367C24.384 20.3367 24.6625 20.1891 24.9739 20.0086C25.2854 19.8281 25.712 19.6185 25.9219 19.5427C26.1319 19.467 26.4373 19.3551 26.6006 19.2942C27.0874 19.1126 27.2323 19.0617 27.3216 19.0412C27.3683 19.0305 27.6839 18.9385 28.0232 18.8367C28.3988 18.724 28.7304 18.6724 28.8715 18.7046C29.021 18.7387 29.0627 18.7309 28.989 18.6825C28.9032 18.6262 28.9296 18.5941 29.095 18.5533C29.3106 18.5001 29.3155 18.4832 29.3302 17.7292C29.3386 17.3059 29.3401 16.8844 29.3336 16.7927C29.3272 16.701 29.3139 16.4477 29.3041 16.2298C29.2847 15.8003 29.2871 15.8024 28.9758 15.9337ZM18.4276 17.4038C18.2517 17.5949 18.2479 17.6779 18.4181 17.6136C18.4901 17.5865 18.5289 17.5445 18.5043 17.5203C18.4797 17.4961 18.5257 17.4269 18.6067 17.3665C18.6875 17.306 18.7119 17.2554 18.6609 17.254C18.6098 17.2525 18.5048 17.32 18.4276 17.4038ZM14.2926 17.6121C14.2185 17.6659 14.0902 17.8504 14.0076 18.022C13.8344 18.3817 13.2175 19.0013 13.0285 19.0052C12.8501 19.0088 12.5929 19.2137 12.6685 19.2921C12.7027 19.3277 12.6444 19.3306 12.5387 19.2987C12.3351 19.2372 11.6303 19.587 11.8275 19.6516C11.9428 19.6894 11.3859 19.9896 11.1081 20.0395C11.0087 20.0573 10.8101 20.1314 10.6669 20.2043C10.5236 20.2771 10.3281 20.3367 10.2325 20.3367C10.119 20.3367 10.0586 20.3911 10.0586 20.4931C10.0586 20.5791 10.0336 20.7725 10.003 20.923C9.95786 21.1446 9.96999 21.1831 10.0666 21.1259C10.1609 21.0701 10.1659 21.0804 10.0901 21.1755C10.0375 21.2416 9.96694 21.5556 9.93334 21.8731C9.89975 22.1907 9.85038 22.5068 9.82349 22.5756C9.7882 22.6661 9.81382 22.6858 9.91663 22.647C10.0298 22.6043 10.0586 22.6439 10.0586 22.841C10.0586 22.9772 10.0734 23.0886 10.0914 23.0886C10.2165 23.0886 10.5955 22.8086 10.9964 22.4198C11.6115 21.8233 11.8204 21.6569 12.1794 21.4772C12.3427 21.3954 12.629 21.2196 12.8156 21.0863C13.014 20.9447 13.2171 20.8624 13.3047 20.8883C13.3951 20.915 13.5853 20.8306 13.7852 20.675C14.1264 20.4093 14.1263 20.4096 14.2664 19.3902C14.2974 19.1646 14.3495 19.0295 14.3843 19.0848C14.4725 19.2252 14.5774 17.9097 14.4952 17.6931C14.4398 17.5469 14.4028 17.5322 14.2926 17.6121ZM33.6981 17.7239C33.6669 17.7544 33.6415 17.8182 33.6415 17.8657C33.6415 17.9179 33.681 17.9129 33.7418 17.8531C33.7971 17.7989 33.8225 17.7351 33.7984 17.7114C33.7743 17.6877 33.7291 17.6933 33.6981 17.7239ZM5.98678 18.0333C5.98678 18.0506 6.05354 18.1163 6.13523 18.1793C6.26977 18.2829 6.27274 18.28 6.1673 18.1478C6.05642 18.0088 5.98678 17.9647 5.98678 18.0333ZM33.5986 18.1694C33.5685 18.2172 33.5216 18.4688 33.4944 18.7285C33.4499 19.1527 33.4582 19.1885 33.5767 19.0807C33.6492 19.0148 33.691 18.9324 33.6697 18.8977C33.6483 18.863 33.6904 18.812 33.7634 18.7845C33.9121 18.7284 33.9459 18.5022 33.8055 18.5022C33.7548 18.5022 33.7376 18.4317 33.7664 18.3424C33.8227 18.1684 33.6871 18.0286 33.5986 18.1694ZM17.2692 18.7573C17.2692 18.8058 17.3074 18.8224 17.3541 18.794C17.4007 18.7657 17.4389 18.726 17.4389 18.7057C17.4389 18.6855 17.4007 18.6689 17.3541 18.6689C17.3074 18.6689 17.2692 18.7087 17.2692 18.7573ZM22.1113 19.0511C22.1153 19.1483 22.1354 19.168 22.1625 19.1016C22.187 19.0414 22.184 18.9694 22.1558 18.9417C22.1276 18.914 22.1076 18.9632 22.1113 19.0511ZM6.41093 20.1074C6.41093 20.18 6.36326 20.2584 6.30489 20.2815C6.22184 20.3145 6.22244 20.325 6.30752 20.3301C6.42849 20.3375 6.54657 20.1087 6.46386 20.0274C6.43477 19.9988 6.41093 20.0348 6.41093 20.1074ZM9.81085 20.7328C9.81823 21.1688 9.85937 21.1335 9.90823 20.6494C9.92554 20.4775 9.90925 20.3367 9.87192 20.3367C9.83468 20.3367 9.8072 20.5149 9.81085 20.7328ZM13.3246 20.7537C13.2958 20.7995 13.3126 20.8371 13.362 20.8371C13.4114 20.8371 13.4519 20.7995 13.4519 20.7537C13.4519 20.7078 13.4351 20.6703 13.4144 20.6703C13.3938 20.6703 13.3534 20.7078 13.3246 20.7537ZM6.07161 20.8371C6.07161 20.8829 6.11207 20.9205 6.16144 20.9205C6.21082 20.9205 6.2277 20.8829 6.19885 20.8371C6.17001 20.7912 6.12963 20.7537 6.10902 20.7537C6.0884 20.7537 6.07161 20.7912 6.07161 20.8371ZM33.3156 21.5876C33.3156 21.7022 33.3348 21.7492 33.3583 21.6918C33.3819 21.6345 33.3819 21.5407 33.3583 21.4833C33.3348 21.4261 33.3156 21.4729 33.3156 21.5876ZM33.281 21.8859C33.2459 21.9206 33.2185 22.0459 33.2199 22.1644C33.2222 22.3533 33.2333 22.3615 33.3105 22.2313C33.407 22.0681 33.3828 21.7848 33.281 21.8859ZM9.80415 22.9267C9.80415 23.0211 9.84232 23.0752 9.88898 23.0469C9.93563 23.0185 9.97381 22.9413 9.97381 22.8752C9.97381 22.8091 9.93563 22.755 9.88898 22.755C9.84232 22.755 9.80415 22.8323 9.80415 22.9267ZM33.0477 22.885C33.0477 22.9565 33.0864 22.9914 33.1339 22.9627C33.1813 22.9338 33.1982 22.8754 33.1713 22.8327C33.0986 22.717 33.0477 22.7385 33.0477 22.885ZM33.0642 23.7974C33.0659 23.935 33.0849 23.9812 33.1065 23.9001C33.128 23.8189 33.1266 23.7063 33.1033 23.6499C33.0801 23.5934 33.0625 23.6598 33.0642 23.7974ZM32.5848 24.2503C32.5579 24.293 32.5747 24.3514 32.6222 24.3803C32.6696 24.4091 32.7084 24.3741 32.7084 24.3027C32.7084 24.1561 32.6575 24.1346 32.5848 24.2503ZM32.6235 25.2845C32.6235 25.682 32.6588 26.0072 32.7019 26.0072C32.7752 26.0072 32.7329 24.6751 32.6571 24.5965C32.6386 24.5774 32.6235 24.8871 32.6235 25.2845ZM9.98051 25.9725C9.98458 26.0696 10.0047 26.0894 10.0317 26.0229C10.0563 25.9627 10.0532 25.8907 10.025 25.863C9.99688 25.8354 9.97686 25.8846 9.98051 25.9725ZM32.6388 26.2717C32.6537 26.3713 32.7087 26.4666 32.7609 26.4835C32.8208 26.5029 32.8406 26.436 32.8146 26.3024C32.7645 26.045 32.6006 26.0164 32.6388 26.2717ZM24.2253 26.6056C24.5618 26.7446 24.9888 26.8297 24.9888 26.7579C24.9888 26.6703 24.7378 26.579 24.6477 26.6337C24.6084 26.6576 24.5524 26.6389 24.5231 26.5923C24.4938 26.5457 24.3671 26.51 24.2415 26.5128L24.0132 26.5182L24.2253 26.6056ZM32.6659 26.6743C32.6948 26.7202 32.7352 26.7577 32.7558 26.7577C32.7764 26.7577 32.7932 26.7202 32.7932 26.6743C32.7932 26.6285 32.7527 26.591 32.7034 26.591C32.654 26.591 32.6371 26.6285 32.6659 26.6743ZM32.6771 27.7793C32.7064 28.2953 32.7452 28.7336 32.7632 28.7536C32.7814 28.7735 32.7922 28.3514 32.7872 27.8154C32.7822 27.2796 32.7434 26.8411 32.701 26.8411C32.656 26.8411 32.6461 27.2331 32.6771 27.7793ZM20.0589 27.9175C20.1524 27.9756 20.1378 28.0109 19.988 28.0898C19.776 28.2013 19.6228 28.1257 19.8166 28.0053C20.0573 27.8556 19.8154 27.9269 19.5557 28.0822C19.4112 28.1685 19.3053 28.2676 19.3203 28.3024C19.3502 28.3718 19.2801 28.4138 18.7057 28.6698C18.4927 28.7648 18.2561 28.8425 18.18 28.8425C18.0631 28.8425 18.0553 28.8813 18.1298 29.0916C18.2238 29.3566 18.1903 29.9771 18.0487 30.5936C18.0014 30.8 17.9688 30.974 17.9765 30.9802C18.0136 31.0104 19.0045 30.6659 19.0966 30.5907C19.1548 30.5433 19.2351 30.5113 19.275 30.5196C19.4472 30.5556 20.0735 30.3965 20.1592 30.295C20.237 30.2029 20.2303 29.4109 20.1481 28.9676C20.1396 28.9217 20.1613 28.6497 20.1965 28.363C20.2547 27.8861 20.2467 27.8419 20.1008 27.843C19.9765 27.844 19.9673 27.8605 20.0589 27.9175ZM9.97508 28.4464C9.97618 28.5981 9.99213 28.6101 10.0586 28.5089C10.1649 28.3472 10.1649 28.2587 10.0586 28.2587C10.012 28.2587 9.9744 28.3432 9.97508 28.4464ZM9.98051 28.8077C9.98458 28.9048 10.0047 28.9246 10.0317 28.8581C10.0563 28.7979 10.0532 28.726 10.025 28.6983C9.99688 28.6706 9.97686 28.7198 9.98051 28.8077ZM17.1844 28.8954C17.1844 28.9577 17.2387 28.9836 17.3116 28.956C17.3816 28.9296 17.4389 28.8807 17.4389 28.8475C17.4389 28.8141 17.3816 28.7868 17.3116 28.7868C17.2417 28.7868 17.1844 28.8357 17.1844 28.8954ZM32.7151 28.9745C32.7191 29.0716 32.7392 29.0914 32.7663 29.0249C32.7908 28.9647 32.7878 28.8928 32.7596 28.8651C32.7314 28.8374 32.7114 28.8866 32.7151 28.9745ZM18.4568 29.1809C18.4568 29.2753 18.4933 29.3305 18.5379 29.3034C18.5826 29.2763 18.5976 29.199 18.5713 29.1317C18.504 28.9593 18.4568 28.9796 18.4568 29.1809ZM29.5763 32.1433C29.5804 32.2404 29.6005 32.2602 29.6276 32.1937C29.6521 32.1335 29.649 32.0616 29.6209 32.0339C29.5927 32.0062 29.5727 32.0554 29.5763 32.1433ZM29.5862 32.5533C29.5879 32.6909 29.6069 32.7371 29.6284 32.656C29.65 32.5748 29.6485 32.4622 29.6253 32.4058C29.602 32.3493 29.5845 32.4157 29.5862 32.5533ZM20.623 33.2529C20.5928 33.3466 20.6081 33.5652 20.6572 33.7388C20.7062 33.9123 20.7465 34.1553 20.7468 34.2787C20.747 34.4021 20.7876 34.5275 20.8368 34.5575C20.8978 34.5945 20.9082 34.4703 20.8696 34.1663C20.8384 33.9212 20.8032 33.5975 20.7912 33.4468C20.7644 33.1078 20.6955 33.0284 20.623 33.2529ZM29.6337 33.554C29.656 33.6686 29.6889 33.7625 29.7068 33.7625C29.7246 33.7625 29.7393 33.6686 29.7393 33.554C29.7393 33.4393 29.7064 33.3455 29.6663 33.3455C29.626 33.3455 29.6114 33.4393 29.6337 33.554ZM21.8925 35.5136C21.9213 35.5595 21.9617 35.597 21.9823 35.597C22.0029 35.597 22.0197 35.5595 22.0197 35.5136C22.0197 35.4678 21.9793 35.4302 21.9299 35.4302C21.8805 35.4302 21.8636 35.4678 21.8925 35.5136ZM21.318 36.0085C21.2927 36.1032 21.3045 36.1807 21.344 36.1807C21.4656 36.1807 21.5347 36.0041 21.4469 35.9178C21.3927 35.8645 21.3479 35.8961 21.318 36.0085ZM24.7535 37.3961C24.8341 37.479 24.9232 37.5239 24.9516 37.4959C24.9801 37.4679 24.9141 37.4002 24.8052 37.3452C24.6158 37.2497 24.6135 37.252 24.7535 37.3961ZM25.0736 37.6325C25.0736 37.6483 25.1309 37.708 25.2009 37.7651C25.2742 37.825 25.3281 37.8331 25.3281 37.7842C25.3281 37.7377 25.2708 37.678 25.2009 37.6516C25.1309 37.6252 25.0736 37.6166 25.0736 37.6325ZM4.43158 37.7374C4.40045 37.7679 4.375 37.8317 4.375 37.8791C4.375 37.9313 4.41453 37.9264 4.47535 37.8666C4.53058 37.8123 4.55603 37.7486 4.53194 37.7249C4.50784 37.7011 4.46263 37.7068 4.43158 37.7374ZM24.3574 38.731C24.2198 38.8299 24.2156 38.8492 24.3314 38.8492C24.4075 38.8492 24.495 38.8092 24.5257 38.7602C24.6156 38.6172 24.5351 38.6032 24.3574 38.731ZM25.3281 39.6365C25.3281 39.708 25.3663 39.7665 25.4129 39.7665C25.4596 39.7665 25.4978 39.7312 25.4978 39.688C25.4978 39.6448 25.4596 39.5864 25.4129 39.558C25.3663 39.5297 25.3281 39.565 25.3281 39.6365ZM25.0339 39.8499C25.1065 40.099 25.1416 40.1444 25.2095 40.0776C25.2376 40.05 25.1959 39.9406 25.1168 39.8345L24.9731 39.6414L25.0339 39.8499ZM12.0487 40.189C12.0179 40.2379 12.0109 40.2959 12.0331 40.3177C12.0554 40.3396 12.0962 40.2995 12.1238 40.2287C12.1812 40.0818 12.1323 40.0559 12.0487 40.189ZM25.3182 40.5795C25.3626 40.6598 25.5418 40.8568 25.7163 41.0173C26.0417 41.3167 25.9716 41.1668 25.5669 40.6976C25.3181 40.4094 25.1902 40.3486 25.3182 40.5795ZM9.09369 40.8337C9.0707 40.8703 9.0869 40.9547 9.12983 41.0213C9.19065 41.1159 9.20804 41.1013 9.20906 40.9548C9.21033 40.7619 9.16724 40.7166 9.09369 40.8337ZM9.1322 41.5663C9.13628 41.6634 9.15638 41.6832 9.18344 41.6167C9.20796 41.5565 9.2049 41.4846 9.17674 41.4569C9.14858 41.4292 9.12856 41.4784 9.1322 41.5663ZM8.65894 41.6011C8.68778 41.6469 8.72816 41.6845 8.74877 41.6845C8.76938 41.6845 8.78618 41.6469 8.78618 41.6011C8.78618 41.5552 8.74572 41.5177 8.69634 41.5177C8.64697 41.5177 8.63009 41.5552 8.65894 41.6011ZM5.87582 42.2982C5.84206 42.3847 5.86598 42.435 5.9408 42.435C6.00586 42.435 6.07661 42.5007 6.09799 42.5809C6.12811 42.6943 6.13896 42.6978 6.1466 42.5968C6.15203 42.5254 6.10529 42.3981 6.04285 42.3141C5.94021 42.1761 5.92409 42.1746 5.87582 42.2982ZM6.66542 43.806C6.66542 43.9917 6.79826 44.0286 6.81218 43.8468C6.81896 43.7583 6.78876 43.6858 6.74499 43.6858C6.70122 43.6858 6.66542 43.7398 6.66542 43.806ZM7.38733 43.8539C7.41668 43.9005 7.47615 43.9171 7.51958 43.8907C7.63724 43.8192 7.61535 43.7692 7.4663 43.7692C7.3936 43.7692 7.35806 43.8073 7.38733 43.8539ZM7.06361 44.3228C6.99584 44.3894 7.07244 44.5197 7.17941 44.5197C7.22335 44.5197 7.25923 44.4634 7.25923 44.3946C7.25923 44.2657 7.15913 44.2289 7.06361 44.3228ZM29.3576 46.1041C29.3864 46.15 29.4268 46.1875 29.4474 46.1875C29.468 46.1875 29.4848 46.15 29.4848 46.1041C29.4848 46.0582 29.4443 46.0207 29.395 46.0207C29.3456 46.0207 29.3287 46.0582 29.3576 46.1041ZM30.7148 46.3543C30.686 46.4001 30.722 46.4377 30.7947 46.4377C30.8674 46.4377 30.9269 46.4001 30.9269 46.3543C30.9269 46.3084 30.891 46.2709 30.8471 46.2709C30.8031 46.2709 30.7437 46.3084 30.7148 46.3543Z" fill="#ADE838"/>
<path fill-rule="evenodd" clip-rule="evenodd" d="M22.0207 48.9843C21.481 49.5011 20.5689 50.2144 20.2339 50.3817C20.0953 50.4509 20.0165 50.5457 20.0422 50.6125C20.0666 50.6761 20.0314 50.7259 19.9624 50.7259C19.8756 50.7259 19.8389 50.8201 19.8389 51.043C19.8389 51.3881 20.0401 51.7515 20.2107 51.7145C20.2695 51.7016 20.4212 51.8139 20.5479 51.964C20.829 52.297 20.9097 52.3053 20.9551 52.006L20.9901 51.7751L21.0027 51.9964C21.0097 52.118 21.0708 52.3246 21.1388 52.4553C21.2516 52.6725 21.2472 52.7187 21.0894 52.9858C20.9884 53.1569 20.8491 53.6786 20.7543 54.2415C20.665 54.7711 20.5308 55.4338 20.456 55.7141C20.3812 55.9944 20.2917 56.3559 20.257 56.5175C20.2223 56.6791 20.1365 57.0379 20.0663 57.3149C19.9961 57.5918 19.7393 58.6494 19.4957 59.665C19.252 60.6807 19.0132 61.538 18.9649 61.5701C18.9166 61.6024 18.8483 61.5835 18.8131 61.5282C18.7747 61.4678 18.7487 61.5183 18.7478 61.6543C18.7472 61.779 18.8076 61.9151 18.8822 61.9568C18.9825 62.0128 19 62.0851 18.9496 62.2337C18.912 62.3444 18.8907 62.4689 18.9022 62.5104C18.9136 62.5519 18.897 62.6463 18.8651 62.7202C18.8333 62.7941 18.7999 62.9112 18.7907 62.9805C18.7465 63.3166 18.2806 64.6254 18.1841 64.6844C18.1238 64.7213 18.0744 64.7978 18.0744 64.8545C18.0744 64.9112 17.9984 65.0226 17.9055 65.102C17.7621 65.2247 17.7525 65.2717 17.8417 65.4145C17.8995 65.5069 18.0795 65.6437 18.2417 65.7186C18.6194 65.893 18.9146 66.2256 18.9146 66.4769C18.9146 66.6398 18.9616 66.6762 19.1877 66.6887C20.0086 66.7341 20.4508 66.569 21.3276 65.8903C22.0444 65.3355 22.3996 65.1445 23.0765 64.9504C23.4764 64.8358 24.4343 64.4415 24.7244 64.2723C24.754 64.255 24.7403 64.4011 24.6937 64.5969C24.6472 64.7927 24.6103 65.0096 24.6119 65.0789C24.6134 65.1481 24.574 65.3121 24.5241 65.4433C24.4528 65.6312 24.4587 65.6981 24.552 65.7581C24.6514 65.8221 24.6521 65.8461 24.5559 65.9081C24.4721 65.962 24.4684 65.9908 24.542 66.0153C24.6199 66.0413 24.6205 66.153 24.5446 66.5082C24.4906 66.7608 24.4508 67.1131 24.4562 67.2913C24.4615 67.4694 24.4249 67.6644 24.375 67.7245C24.3134 67.7986 24.312 67.8509 24.3705 67.8871C24.4224 67.9191 24.4284 67.9976 24.3857 68.0834C24.1452 68.5661 23.8903 69.4827 23.8208 70.115C23.7929 70.3689 23.7346 70.6435 23.6912 70.7253C23.6478 70.807 23.6357 70.9117 23.6644 70.9579C23.733 71.0689 23.4621 71.8776 23.3563 71.8776C23.3111 71.8776 23.2974 71.9154 23.326 71.9615C23.4152 72.1058 23.1602 72.0531 23.0207 71.8986C22.9478 71.8179 22.6481 71.544 22.3547 71.2901C21.2454 70.33 20.1956 69.3596 20.0824 69.1898C20.0178 69.0927 19.8704 69.0027 19.7549 68.9895C19.6394 68.9764 19.4125 68.8844 19.2507 68.7852C18.9045 68.5728 18.7466 68.5558 18.7466 68.7309C18.7466 68.8006 18.6751 68.9187 18.5877 68.9935C18.432 69.1266 18.4322 69.1375 18.596 69.5314C18.688 69.7525 18.8257 70.0044 18.902 70.0914C19.3009 70.5459 19.3459 70.8207 19.0093 70.7468C18.8317 70.7079 18.7543 70.7291 18.7166 70.8274C18.6665 70.9578 18.8168 71.2901 18.9257 71.2901C18.9558 71.2901 19.0025 71.3778 19.0294 71.4851C19.0564 71.5923 19.2118 71.8544 19.3747 72.0676C19.5376 72.2807 19.6709 72.4806 19.6709 72.5118C19.6709 72.5431 19.8091 72.7567 19.978 72.9865C20.2202 73.316 20.2607 73.4195 20.1699 73.4756C20.0833 73.529 20.1136 73.5691 20.2917 73.6367C20.4802 73.7083 20.5191 73.7651 20.4818 73.9143C20.4471 74.0531 20.5543 74.2635 20.8945 74.7239C21.2065 75.1459 21.3384 75.3955 21.3051 75.5003C21.2717 75.6053 21.2981 75.6547 21.3878 75.6547C21.6094 75.6547 21.5363 75.9711 21.2375 76.3049C21.0823 76.4782 20.8492 76.7899 20.7193 76.9977C20.5894 77.2054 20.3794 77.4723 20.2526 77.5908C20.1258 77.7094 19.9644 77.936 19.894 78.0944C19.8235 78.2529 19.612 78.5465 19.4239 78.7469C19.236 78.9471 19.1008 79.1412 19.1235 79.178C19.1676 79.2493 17.0004 81.4314 16.6459 81.6725C16.5304 81.7512 16.3865 81.8835 16.326 81.9666C16.2657 82.0497 16.1639 82.1177 16.0998 82.1177C16.0357 82.1177 15.9338 82.1844 15.8735 82.266C15.8131 82.3476 15.6597 82.4807 15.5326 82.5617C15.26 82.7356 15.2172 82.9634 15.4696 82.8975C15.562 82.8733 15.6376 82.8246 15.6376 82.7892C15.6376 82.7538 15.7132 82.7051 15.8057 82.6809C15.8981 82.6568 15.9737 82.6676 15.9737 82.7048C15.9737 82.7735 15.4706 83.1093 15.1911 83.2271C15.102 83.2647 15.0641 83.3325 15.0999 83.3903C15.1408 83.4565 15.1162 83.472 15.0255 83.4373C14.9303 83.4007 14.9038 83.4215 14.9367 83.5069C14.9674 83.5871 14.9284 83.6285 14.8224 83.6285C14.7338 83.6285 14.588 83.6828 14.4983 83.7492C14.3493 83.8595 14.3607 83.8643 14.6293 83.8046C14.7911 83.7685 15.0498 83.6737 15.2043 83.5937C15.3588 83.5137 15.5029 83.466 15.5247 83.4878C15.5465 83.5094 15.8548 83.403 16.2101 83.2512C17.0834 82.8779 17.2343 82.8369 17.2334 82.9724C17.233 83.0332 16.9967 83.1928 16.7083 83.327C16.3769 83.4812 16.2363 83.5836 16.3265 83.6051C16.4049 83.6238 16.5561 83.5909 16.6626 83.5319C16.879 83.4119 16.912 83.4021 17.1501 83.3872C17.2425 83.3814 17.3181 83.3363 17.3181 83.2868C17.3181 83.1296 17.5523 82.9442 17.6176 83.0497C17.6496 83.1014 17.6237 83.1766 17.56 83.2169C17.4963 83.2573 17.482 83.2899 17.5282 83.2896C17.5744 83.2894 17.7044 83.2183 17.8171 83.1317C17.9298 83.0453 18.0778 82.9958 18.146 83.022C18.2334 83.0555 18.2495 83.0364 18.2004 82.9571C18.1491 82.8741 18.1688 82.8592 18.276 82.9002C18.3558 82.9309 18.5303 82.8995 18.6637 82.8306C18.7972 82.7617 18.9555 82.7054 19.0155 82.7056C19.1518 82.7059 18.7854 82.931 17.9805 83.341C17.2571 83.7095 17.2753 83.6976 17.3409 83.7632C17.3688 83.7911 17.5133 83.7534 17.6619 83.6792C17.8105 83.6052 17.9893 83.5446 18.0593 83.5446C18.1292 83.5446 18.1619 83.5201 18.1319 83.4901C18.1019 83.4602 18.2389 83.3563 18.4364 83.2593C18.634 83.1623 18.9133 82.9979 19.0571 82.8941C19.201 82.7902 19.3543 82.7053 19.3977 82.7053C19.4412 82.7053 19.5453 82.6297 19.6289 82.5374C19.7125 82.4451 19.8791 82.3691 19.999 82.3686C20.1366 82.368 20.3417 82.2486 20.5547 82.0451C20.7404 81.8677 21.005 81.6635 21.1428 81.5912C21.404 81.4544 21.5479 81.3139 22.4952 80.2711C22.8098 79.9249 23.1168 79.611 23.1774 79.5736C23.238 79.536 23.2687 79.475 23.2458 79.4378C23.2227 79.4006 23.2774 79.3039 23.3671 79.2228C23.524 79.0809 23.5377 79.0842 23.7222 79.3085C23.8278 79.4368 24.0181 79.6455 24.1453 79.7722C24.2724 79.8991 24.377 80.0348 24.3778 80.074C24.3786 80.1132 24.4731 80.2342 24.5878 80.3429C24.7026 80.4516 24.7965 80.6133 24.7965 80.7022C24.7965 80.7912 24.8532 80.8857 24.9225 80.9122C24.9918 80.9388 25.0485 81.0107 25.0485 81.0719C25.0485 81.1331 25.1177 81.2051 25.2022 81.2319C25.2868 81.2586 25.4368 81.4424 25.5357 81.64C25.7099 81.9885 26.1409 82.4754 26.1409 82.3239C26.1409 82.2826 26.3678 82.4731 26.645 82.7472C26.9223 83.0214 27.1492 83.2821 27.1492 83.3267C27.1492 83.3714 27.2343 83.5014 27.3383 83.6156C27.4889 83.7811 27.4975 83.8126 27.3803 83.7706C27.2994 83.7415 27.2332 83.7528 27.2332 83.7957C27.2332 83.8775 27.5666 84.2157 27.6482 84.2167C27.6741 84.217 27.7899 84.3565 27.9054 84.5267C28.1452 84.8799 28.4707 85.2233 28.5656 85.2233C28.6011 85.2233 28.7097 85.3308 28.8069 85.4622C28.9042 85.5936 29.1201 85.7658 29.2868 85.8448C29.4643 85.929 29.5663 86.0266 29.5329 86.0805C29.5016 86.1312 29.5129 86.1498 29.558 86.1219C29.6031 86.0941 29.7366 86.1213 29.8546 86.1824C29.9726 86.2436 30.1967 86.3133 30.3527 86.3373C30.5086 86.3613 30.7273 86.4096 30.8384 86.4448C30.9815 86.4901 31.0233 86.4807 30.9811 86.4126C30.9458 86.3553 30.966 86.3301 31.031 86.3501C31.3382 86.4449 31.6904 86.4724 31.6444 86.3981C31.6158 86.3518 31.6508 86.3382 31.7253 86.3668C31.7976 86.3945 31.9154 86.3686 31.987 86.3093C32.1013 86.2145 32.0883 86.1885 31.881 86.0973C31.6535 85.9973 31.6604 85.9934 32.0647 85.9962C32.2958 85.9978 32.6669 86.055 32.8894 86.1233C33.3262 86.2576 33.453 86.2252 33.2848 86.0227C33.2263 85.9524 33.1926 85.8924 33.2098 85.8894C33.5357 85.8336 33.7752 85.8464 33.7314 85.9171C33.6953 85.9755 33.8254 85.9822 34.1317 85.9376C34.3813 85.9012 34.6936 85.8613 34.8257 85.8489C34.9577 85.8365 35.1071 85.7851 35.1576 85.7346C35.2737 85.6186 36.056 85.6136 36.056 85.7289C36.056 85.7774 36.1382 85.7626 36.245 85.6949C36.349 85.6291 36.5948 85.5493 36.7912 85.5178C37.1512 85.4599 37.2798 85.2685 37.0245 85.1705C36.9182 85.1298 36.9172 85.1064 37.0184 85.0053C37.0833 84.9405 37.2146 84.8876 37.3104 84.8876C37.5011 84.8876 37.5464 84.7587 37.3794 84.6913C37.2531 84.6405 37.5072 84.6199 38.2417 84.6215C38.5426 84.6222 38.9208 84.5918 39.0819 84.5539L39.375 84.4851L39.0167 84.4765C38.8197 84.4718 38.5928 84.4333 38.5126 84.3909C38.4323 84.3486 38.2438 84.2685 38.0936 84.2129C37.7861 84.0991 37.7319 83.9643 37.9935 83.9643C38.288 83.9643 38.0912 83.8142 37.7151 83.752C37.2698 83.6783 37.0429 83.5631 37.1147 83.4471C37.149 83.3916 37.3222 83.3782 37.573 83.4114C37.965 83.4634 38.1833 83.371 37.9739 83.2418C37.9181 83.2074 37.8591 83.2193 37.8427 83.2683C37.7841 83.4439 36.6048 83.0691 36.0711 82.7053C35.6188 82.3969 35.5411 82.2856 35.7784 82.2856C35.8569 82.2856 35.6048 82.1328 35.2184 81.9461C34.832 81.7595 34.4678 81.6252 34.4091 81.6477C34.3503 81.6702 34.2904 81.6576 34.2759 81.6196C34.2613 81.5816 33.9941 81.432 33.6822 81.2869C33.3703 81.1419 33.1151 80.9905 33.1151 80.9503C33.1151 80.9101 33.0488 80.8826 32.968 80.889C32.8872 80.8954 32.8289 80.8582 32.8384 80.8062C32.8481 80.7543 32.7626 80.7118 32.6484 80.7118C32.5343 80.7118 32.2908 80.6127 32.1076 80.4915C31.9242 80.3703 31.7173 80.2711 31.6476 80.2711C31.4918 80.2711 30.6783 79.7791 30.6783 79.6848C30.6783 79.6473 30.5176 79.5333 30.3212 79.4316C29.7019 79.1107 28.837 78.3562 27.2183 76.7243L25.6488 75.1422L25.8122 74.668C25.902 74.4073 26.0441 74.1165 26.128 74.022C26.4261 73.6862 26.6553 73.1884 26.8102 72.5406C26.8965 72.1794 27.027 71.7985 27.1002 71.6942C27.1734 71.5899 27.2332 71.3996 27.2332 71.2713C27.2332 71.1201 27.2775 71.0383 27.3593 71.0383C27.4367 71.0383 27.4853 70.9596 27.4853 70.8344C27.4853 70.7223 27.542 70.5739 27.6113 70.5047C27.6807 70.4354 27.7374 70.3037 27.7374 70.2119C27.7374 70.1201 27.7657 70.0325 27.8004 70.017C27.9123 69.9673 28.3256 69.1304 28.3256 68.9535C28.3256 68.8591 28.3641 68.7581 28.4114 68.729C28.5866 68.6208 28.9963 67.798 28.997 67.5527C28.9978 67.3114 28.8175 66.9573 28.6245 66.8205C28.5645 66.778 28.572 66.7341 28.6477 66.6853C28.7376 66.6273 28.7328 66.6027 28.6229 66.5606C28.5476 66.5317 28.4304 66.3848 28.3625 66.2341C28.1694 65.8057 28.0589 65.6559 27.6534 65.273C26.7328 64.4039 26.477 64.1239 26.477 63.9862C26.477 63.7801 26.6521 63.7488 28.5356 63.6191C30.8168 63.4622 33.0774 63.0808 32.7875 62.9018C32.6462 62.8145 33.006 61.9925 33.2145 61.9264C33.365 61.8787 33.4027 61.7912 33.3708 61.5633C33.336 61.3139 33.4524 61.0557 33.578 61.1039C33.6788 61.1425 33.7062 61.06 33.7183 60.6812C33.7265 60.4224 33.7359 60.1257 33.7393 60.0218C33.7434 59.8902 33.7026 59.84 33.6046 59.8561C33.522 59.8698 33.4404 59.8054 33.407 59.7003C33.3323 59.4649 33.1044 59.2034 32.9741 59.2034C32.9172 59.2034 32.8454 59.0693 32.8147 58.9054C32.7322 58.4665 32.4875 58.5511 32.3164 59.0775C32.2654 59.2345 32.2541 59.2308 32.1438 59.0226C32.0178 58.7849 31.3462 58.364 31.0928 58.364C31.0089 58.364 30.9155 58.3239 30.8852 58.2749C30.8042 58.1441 30.4958 58.0437 30.0015 57.9872C29.7613 57.9597 29.5412 57.9323 29.5124 57.9262C29.4835 57.9201 29.2483 57.9794 28.9895 58.0579C28.7308 58.1364 28.4564 58.1766 28.3797 58.1472C28.303 58.1179 28.1473 58.1546 28.0337 58.2289C27.9202 58.3033 27.7712 58.364 27.7025 58.364C27.5442 58.364 27.4116 58.5954 27.4613 58.785C27.4853 58.8766 27.4114 58.9926 27.2612 59.0992C27.0328 59.2612 26.4227 59.5577 26.2849 59.5736C26.2485 59.5777 26.1829 59.6378 26.1391 59.707C26.0743 59.8093 26.0592 59.8108 26.0581 59.715C26.0571 59.6175 26.0313 59.6193 25.9098 59.7252C25.829 59.7957 25.5359 59.9762 25.2586 60.1264C24.9813 60.2765 24.6764 60.4702 24.581 60.5569C24.4856 60.6434 24.364 60.7142 24.3108 60.7142C24.2576 60.7142 24.0864 60.8262 23.9304 60.9631C23.7744 61.0999 23.5557 61.2526 23.4443 61.3024C23.1395 61.4388 22.8818 61.5953 22.7172 61.744C22.636 61.8176 22.475 61.9196 22.3595 61.971C22.2441 62.0224 22.0564 62.1175 21.9424 62.1825C21.8284 62.2475 21.7231 62.2887 21.7085 62.2741C21.6641 62.2296 23.288 58.9277 23.4871 58.6578C23.738 58.3176 24.5588 56.6112 24.5974 56.3496C24.6077 56.2804 24.6978 55.9404 24.7978 55.5942C25.0707 54.6493 25.342 54.1234 25.6569 53.929C26.03 53.6986 26.4678 53.1907 26.5261 52.9205C26.5959 52.5974 26.7373 52.3192 27.0076 51.9734C27.2967 51.6033 27.298 51.2028 27.01 51.1618C26.8998 51.1461 26.8087 51.0558 26.7774 50.931C26.7491 50.8182 26.6693 50.7259 26.6002 50.7259C26.4346 50.7259 26.1416 50.2385 26.1412 49.9626C26.1408 49.6678 25.9127 49.4824 25.4842 49.4286C25.2881 49.4041 24.987 49.3141 24.815 49.2288C24.643 49.1434 24.3133 49.0242 24.0822 48.9637C23.8512 48.9033 23.6054 48.8069 23.5361 48.7496C23.4668 48.6922 23.3155 48.6529 23.2 48.6623C23.0844 48.6716 22.9397 48.6418 22.8785 48.5958C22.8008 48.5377 22.744 48.5489 22.6907 48.6329C22.6377 48.7166 22.614 48.7214 22.613 48.6486C22.6109 48.4653 22.4926 48.5323 22.0207 48.9843ZM22.6619 50.5254C22.6238 50.6245 22.6457 50.647 22.7437 50.6094C22.8174 50.5812 22.8956 50.5581 22.9177 50.5581C22.9397 50.5581 22.9344 50.5203 22.9059 50.4741C22.8288 50.3496 22.7207 50.3723 22.6619 50.5254ZM19.5196 50.8267C19.3779 50.9683 19.3934 51.0422 19.5868 51.1456C19.7378 51.2263 19.7549 51.2094 19.7549 50.9807C19.7549 50.7097 19.6835 50.663 19.5196 50.8267ZM10.4043 51.476C10.2954 51.7641 10.2191 51.7989 10.1411 51.5959C10.0941 51.4732 10.0728 51.472 9.94309 51.5845C9.80419 51.705 9.16887 51.8415 8.76849 51.837C8.54834 51.8345 8.51758 51.9433 8.71689 52.0197C8.83907 52.0666 8.8405 52.0886 8.72967 52.2176C8.43331 52.5624 8.50515 52.9166 8.9967 53.5343C9.19189 53.7796 9.24777 53.9194 9.21021 54.069C9.16038 54.2674 9.40339 55.0057 9.51876 55.0063C9.61144 55.0068 9.82209 55.8452 9.87662 56.4307C9.90443 56.7292 9.9646 57.1123 10.0104 57.2822C10.0562 57.452 10.0953 57.8499 10.0973 58.1664C10.1009 58.7386 10.2828 59.2873 10.4689 59.2873C10.5166 59.2873 10.6048 59.366 10.665 59.4622C10.7565 59.6087 10.7528 59.6697 10.6424 59.8381C10.5698 59.9487 10.3973 60.0976 10.2592 60.1691C10.121 60.2404 10.0079 60.3357 10.0079 60.3807C10.0079 60.4257 9.91788 60.4624 9.80797 60.4624C9.63555 60.4624 8.91226 60.7371 8.48616 60.9645C8.23551 61.0983 5.98546 61.9733 5.89227 61.9733C5.84144 61.9733 5.65347 62.0479 5.47441 62.1391C5.081 62.3396 3.53618 62.8604 3.0926 62.942C2.91699 62.9743 2.71852 63.0555 2.65147 63.1225C2.58441 63.1895 2.52955 63.2038 2.52955 63.1543C2.52955 63.1049 2.49291 63.0644 2.44812 63.0644C2.40342 63.0644 2.39107 63.1276 2.42073 63.2049C2.4609 63.3095 2.44031 63.3322 2.34024 63.2938C2.10933 63.2053 2.02774 63.4269 2.05917 64.0564C2.09118 64.6972 2.23672 65.028 2.52728 65.1202C2.62097 65.1498 2.6976 65.2093 2.6976 65.2524C2.6976 65.2954 2.74776 65.3307 2.80902 65.3307C2.9348 65.3307 3.28578 65.6763 3.28578 65.8003C3.28578 65.8449 3.39619 65.923 3.53114 65.9739C3.67827 66.0294 3.84548 66.1964 3.94883 66.391C4.25956 66.9763 4.92967 67.5528 5.2414 67.503C5.29804 67.4939 5.41063 67.5154 5.49147 67.5507C5.5723 67.586 5.70472 67.5862 5.78556 67.551C5.86639 67.5159 6.00293 67.496 6.08881 67.5069C6.1909 67.5198 6.22367 67.4921 6.18334 67.4269C6.13822 67.3539 6.19157 67.3425 6.38214 67.3843C6.56044 67.4234 6.70228 67.3998 6.83151 67.3094C6.93537 67.2367 6.97411 67.1772 6.91764 67.1772C6.86109 67.1772 6.81488 67.1364 6.81488 67.0864C6.81488 67.032 6.92714 67.0108 7.09603 67.0335C7.33004 67.065 7.42315 67.0245 7.65111 66.7916C7.80177 66.6376 7.96831 66.5198 8.02116 66.5297C8.07401 66.5396 8.10779 66.5006 8.09628 66.4428C8.07166 66.3198 8.3744 65.9933 8.44641 66.0651C8.47338 66.092 8.4954 66.0534 8.4954 65.9792C8.4954 65.9049 8.5396 65.8169 8.59371 65.7835C8.66169 65.7415 8.67454 65.7724 8.63547 65.8835C8.58707 66.0211 8.59413 66.0261 8.68454 65.9182C8.7426 65.849 8.84117 65.7816 8.9036 65.7684C8.96603 65.7553 9.15425 65.6514 9.32188 65.5376C9.73663 65.2561 9.83982 65.2723 9.83982 65.619C9.83982 65.9995 9.70563 66.3379 9.5548 66.3379C9.3912 66.3379 9.25214 67.024 9.31163 67.5371C9.35843 67.9406 9.31735 68.0755 8.74454 69.4015C8.66471 69.5862 8.57069 69.8317 8.53557 69.9471C8.43507 70.277 7.66329 71.8627 7.57733 71.9157C7.53481 71.942 7.47625 72.0717 7.44718 72.204C7.41802 72.3362 7.30366 72.5671 7.193 72.717C7.08233 72.8669 6.96873 73.0942 6.94058 73.2223C6.91243 73.3503 6.81589 73.5214 6.72606 73.6026C6.63624 73.6838 6.56213 73.7916 6.56129 73.8421C6.56045 73.8927 6.44701 74.1002 6.30921 74.3033C6.17141 74.5066 6.05864 74.7302 6.05864 74.8006C6.05864 74.8709 5.61431 75.6202 5.07134 76.4658C4.52836 77.3112 4.04546 78.0736 3.99824 78.1598C3.86371 78.4058 3.41098 78.8974 3.17966 79.0488C3.06404 79.1244 2.94808 79.2929 2.92203 79.423C2.87271 79.6694 2.0264 80.7242 1.81213 80.8063C1.74457 80.8322 1.68928 80.8912 1.68928 80.9373C1.68928 80.9835 1.746 80.9995 1.81532 80.973C1.88465 80.9464 1.94136 80.9665 1.94136 81.0176C1.94136 81.0687 1.87515 81.1111 1.79432 81.1117C1.59375 81.1135 1.38528 81.2544 1.46519 81.3343C1.50107 81.3701 1.56551 81.3438 1.60854 81.2759C1.67038 81.1783 1.68701 81.1918 1.68802 81.3406C1.6887 81.444 1.61366 81.5759 1.52123 81.6336C1.4288 81.6912 1.35318 81.8008 1.35318 81.8771C1.35318 82.0876 1.58913 82.1368 1.69055 81.9476C1.73878 81.8574 1.80768 81.7927 1.84356 81.8038C1.92741 81.8297 2.5282 81.4244 2.52896 81.3413C2.52929 81.3066 2.58223 81.2784 2.64659 81.2784C2.71096 81.2784 2.78633 81.2193 2.81406 81.1472C2.84179 81.075 2.89901 81.0372 2.94119 81.0633C3.04336 81.1264 2.95589 81.445 2.83481 81.4508C2.70903 81.457 2.32679 81.9431 2.39452 82.0109C2.42351 82.0398 2.49417 82.0067 2.55139 81.9372C2.75406 81.6917 3.37115 81.2648 3.47392 81.299C3.53122 81.3181 3.64566 81.248 3.72826 81.1431C3.81078 81.0383 3.94892 80.9302 4.03513 80.9028C4.12134 80.8755 4.21141 80.7789 4.23511 80.688C4.25889 80.5972 4.31972 80.5229 4.37022 80.5229C4.48534 80.5229 4.4913 80.7468 4.37812 80.8167C4.20872 80.9213 4.2951 81.0319 4.47231 80.9372C4.59751 80.8703 4.63348 80.8693 4.5934 80.9342C4.44593 81.1726 4.69725 80.9791 5.1278 80.5229C5.38921 80.246 5.65179 80.0193 5.71128 80.0193C5.86412 80.0193 6.31072 79.5552 6.31072 79.3963C6.31072 79.3235 6.35257 79.2639 6.40366 79.2639C6.50138 79.2639 6.6538 79.0905 7.17224 78.3894C7.34567 78.1548 7.53422 77.9077 7.59128 77.8403C7.86125 77.5208 8.34012 76.703 8.38322 76.4876C8.41062 76.3509 8.55304 76.1542 8.71277 76.0325C8.8857 75.9008 9.03266 75.6896 9.09417 75.4846C9.14921 75.3012 9.22601 75.1511 9.26491 75.1511C9.30382 75.1511 9.33566 75.0944 9.33566 75.0252C9.33566 74.9559 9.41129 74.8237 9.50371 74.7314C9.59614 74.6391 9.67177 74.5374 9.67177 74.5054C9.67177 74.3968 10.2674 73.2259 10.348 73.1762C10.392 73.149 10.428 73.0581 10.428 72.9741C10.428 72.8901 10.4847 72.7745 10.554 72.717C10.6234 72.6595 10.6801 72.5456 10.6801 72.4639C10.6801 72.3821 10.7392 72.2926 10.8114 72.2649C10.8837 72.2372 10.9191 72.1762 10.8901 72.1293C10.8294 72.0312 11.0539 71.7755 11.1322 71.8536C11.1608 71.8822 11.1842 71.8445 11.1842 71.7698C11.1842 71.6952 11.2345 71.604 11.2958 71.5671C11.3572 71.5301 11.4801 71.3684 11.5689 71.2076C11.6577 71.0469 11.7776 70.8649 11.8354 70.8031C11.8931 70.7412 12.0417 70.5139 12.1656 70.2979C12.5017 69.7116 12.6545 69.5837 12.8631 69.7138C12.9564 69.772 13.0328 69.8672 13.0328 69.9254C13.0328 69.9834 13.0611 70.0316 13.0958 70.0323C13.1305 70.0331 13.2106 70.0664 13.2738 70.1063C13.3666 70.1651 13.3545 70.2133 13.2108 70.3569C13.0223 70.5451 12.9725 70.7865 13.1221 70.7865C13.1712 70.7865 13.2047 70.8526 13.1965 70.9333C13.1883 71.0141 13.1864 71.1747 13.1925 71.2901C13.2012 71.4568 13.2199 71.4741 13.2835 71.374C13.4715 71.0786 13.1406 73.6134 12.8946 74.3537C12.8793 74.3999 12.7531 74.872 12.6142 75.4029C12.4754 75.9338 12.2905 76.5003 12.2036 76.6619C12.1166 76.8235 11.9589 77.2201 11.8532 77.5432C11.616 78.2684 11.0586 79.3972 10.4627 80.3595C10.014 81.0841 10.0102 81.0876 9.66479 81.0876C9.47388 81.0876 9.28794 81.1358 9.25155 81.1946C9.20341 81.2723 9.00998 81.2904 8.54355 81.2604C8.19055 81.2378 7.88377 81.2484 7.86176 81.2839C7.82285 81.3468 7.94671 81.8539 8.18854 82.6213C8.51775 83.666 8.57296 83.9164 8.48616 83.97C8.43062 84.0043 8.44666 84.0438 8.52893 84.0753C8.60556 84.1047 8.63992 84.1797 8.61102 84.2549C8.58379 84.3259 8.59405 84.384 8.63396 84.384C8.67379 84.384 8.75664 84.4973 8.81806 84.6358C8.8794 84.7743 8.99258 84.8882 9.06963 84.8888C9.16013 84.8897 9.17584 84.9119 9.11408 84.9518C9.05182 84.992 9.18803 85.2018 9.50565 85.5549C9.95586 86.0554 10.0083 86.0894 10.1971 86.0035C10.3204 85.9474 10.4484 85.9399 10.5198 85.9847C10.5848 86.0255 10.709 86.0367 10.7956 86.0098C10.8983 85.9778 10.9332 85.9931 10.8957 86.0537C10.8641 86.1048 10.8734 86.1466 10.9165 86.1466C11.0413 86.1466 11.5398 85.5235 11.4413 85.4907C11.2942 85.4418 11.341 85.3072 11.5052 85.3072C11.5892 85.3072 11.735 85.2222 11.829 85.1184C11.923 85.0146 12.1138 84.8681 12.253 84.7931C12.437 84.6938 12.5217 84.5731 12.5634 84.351C12.595 84.1828 12.6003 84.0123 12.5753 83.9718C12.5503 83.9314 12.6241 83.8746 12.7393 83.8458C12.8545 83.8168 12.9488 83.7374 12.9488 83.6692C12.9488 83.6009 13.0811 83.3987 13.2429 83.2199C13.4046 83.0411 13.537 82.8674 13.537 82.8339C13.537 82.8005 13.6152 82.6635 13.7107 82.5293C13.8064 82.3953 13.8658 82.2856 13.8431 82.2856C13.7685 82.2856 14.0931 81.4529 14.2271 81.3009C14.4065 81.097 14.6361 80.6207 14.9953 79.7076C15.2646 79.023 15.2936 78.8776 15.248 78.4414C15.2103 78.0819 15.2321 77.8712 15.3283 77.662C15.5717 77.1333 16.0578 75.5709 16.0578 75.3177C16.0578 75.1519 16.1 75.0672 16.1827 75.0672C16.3465 75.0672 16.5771 74.5259 16.5938 74.1019C16.6085 73.7292 16.8083 73.2206 16.9399 73.2206C17.0562 73.2206 17.2381 72.6137 17.1535 72.5081C17.1161 72.4615 17.124 72.3288 17.1713 72.2134C17.2186 72.0979 17.2694 71.8393 17.2842 71.6386C17.3127 71.2531 17.4327 71.0383 17.6195 71.0383C17.7873 71.0383 17.9151 70.7417 17.8828 70.4276C17.8489 70.0981 17.7563 69.9261 17.6485 69.9927C17.6052 70.0194 17.5702 69.8925 17.5702 69.7092C17.5702 69.4823 17.5277 69.3612 17.4354 69.3259C17.3586 69.2964 17.3213 69.2205 17.3488 69.149C17.3753 69.0801 17.3628 69.0238 17.3212 69.0238C17.2795 69.0238 17.2193 68.9389 17.1873 68.835C17.1211 68.6198 16.8111 68.2987 16.7033 68.3338C16.6638 68.3466 16.6124 68.2845 16.5892 68.1957C16.4854 67.7995 15.1161 67.1053 13.9786 66.8724C13.6202 66.799 13.3114 66.7245 13.2924 66.7069C13.2735 66.6892 13.3233 66.6025 13.4031 66.5143C13.5199 66.3855 13.7727 65.5901 13.786 65.3097C13.7932 65.1584 13.5519 65.2646 13.5081 65.4319C13.4814 65.5338 13.4361 65.5936 13.4075 65.565C13.3787 65.5364 13.3954 65.4381 13.4444 65.3467C13.5122 65.22 13.5039 65.1559 13.4092 65.0774C13.3098 64.995 13.2844 64.9974 13.2824 65.0896C13.2795 65.2169 13.0816 64.9255 13.0756 64.7851C13.0736 64.7389 12.9781 64.708 12.8633 64.7163C12.5745 64.7374 12.2493 64.6013 12.1292 64.4092C12.0427 64.2709 12.0609 64.2253 12.2576 64.0873C12.5644 63.8717 13.0122 63.6464 13.0933 63.6667C13.1294 63.6757 13.2913 63.6254 13.4531 63.5547C13.6149 63.4839 14.0309 63.4028 14.3774 63.3741C15.1688 63.3088 15.7631 63.1947 16.1435 63.0348C16.3061 62.9664 16.6031 62.886 16.8032 62.8562C17.0035 62.8264 17.2542 62.7689 17.3606 62.7285C17.5875 62.6423 17.7126 62.478 17.5542 62.4744C17.4866 62.4728 17.5012 62.4386 17.5919 62.3858C17.6732 62.3385 17.7796 62.3246 17.8286 62.3548C17.881 62.3872 17.9066 62.3495 17.891 62.2632C17.8763 62.1825 17.9116 62.1001 17.9693 62.0799C18.0272 62.0597 18.0744 62.0823 18.0744 62.13C18.0744 62.1777 18.2059 62.0815 18.3666 61.9162C18.5274 61.7508 18.6375 61.581 18.6115 61.5389C18.5854 61.4968 18.6106 61.4064 18.6673 61.338C18.7241 61.2697 18.748 61.1913 18.7205 61.1639C18.6931 61.1364 18.7272 61.0574 18.7963 60.9883C18.9509 60.8339 18.9044 60.6635 18.7168 60.6969C18.6255 60.7132 18.5785 60.6634 18.5785 60.5501C18.5785 60.4557 18.5421 60.3785 18.4975 60.3785C18.453 60.3785 18.3242 60.2427 18.2113 60.0767C17.9837 59.7422 17.6312 59.521 17.4416 59.5937C17.32 59.6403 17.285 59.5537 17.3124 59.2739C17.32 59.1973 17.2571 59.084 17.1727 59.0221C17.0883 58.9602 16.8537 58.7113 16.6514 58.469C16.4491 58.2266 16.2535 58.0283 16.2169 58.0283C16.1802 58.0283 15.9742 58.1469 15.7591 58.2919C15.4426 58.5053 15.3537 58.5333 15.2928 58.4388C15.236 58.3508 15.2015 58.3468 15.1524 58.4224C15.1165 58.4776 14.9023 58.5642 14.6763 58.6148C14.3527 58.6872 14.2508 58.6837 14.1966 58.5983C14.1433 58.5145 14.1274 58.5137 14.1264 58.5949C14.1257 58.6526 14.0495 58.6998 13.9571 58.6998C13.8647 58.6998 13.789 58.6545 13.789 58.5991C13.789 58.5208 13.7666 58.5208 13.6882 58.5991C13.538 58.7491 13.479 58.7219 13.4981 58.5109C13.5076 58.407 13.5584 58.3316 13.6111 58.3434C13.6638 58.3551 13.7861 58.2018 13.8829 58.0027C13.9798 57.8036 14.14 57.6052 14.2391 57.5617C14.3382 57.5183 14.4949 57.3316 14.5873 57.147C14.6797 56.9623 14.7826 56.7909 14.8158 56.7659C14.901 56.702 14.8187 54.9779 14.7116 54.5805C14.6619 54.3961 14.571 54.2512 14.505 54.2512C14.3307 54.2512 14.2541 54.0768 14.3875 53.9836C14.4779 53.9204 14.48 53.8933 14.3973 53.8598C14.339 53.8362 14.253 53.7455 14.2062 53.6582C14.1354 53.5259 14.146 53.5077 14.2703 53.5485C14.3522 53.5755 14.3098 53.5212 14.176 53.4278C14.0422 53.3346 13.8589 53.1418 13.7687 52.9994C13.6785 52.8571 13.5799 52.7549 13.5498 52.7725C13.5197 52.79 13.3815 52.6582 13.2429 52.4796C13.076 52.2647 12.9395 52.1665 12.8391 52.1892C12.7526 52.2087 12.5623 52.1137 12.3959 51.9679C12.2356 51.8273 12.0101 51.7122 11.8948 51.7122C11.7796 51.7122 11.6648 51.679 11.6397 51.6385C11.6146 51.5979 11.518 51.6056 11.4242 51.6557C11.2957 51.7244 11.2201 51.7181 11.1142 51.6297C11.0372 51.5654 10.8678 51.4467 10.7378 51.3658L10.5015 51.2188L10.4043 51.476ZM27.66 57.154C27.664 57.2517 27.6839 57.2716 27.7107 57.2047C27.735 57.1441 27.732 57.0717 27.7041 57.0438C27.6762 57.016 27.6564 57.0655 27.66 57.154ZM27.4407 57.7807C27.3609 57.9098 27.4702 57.9931 27.5781 57.8853C27.6384 57.825 27.6398 57.7781 27.5824 57.7427C27.5354 57.7136 27.4716 57.7308 27.4407 57.7807ZM10.7397 59.2873C10.7156 59.3797 10.7301 59.4552 10.772 59.4552C10.8138 59.4552 10.8481 59.4394 10.8481 59.4201C10.8481 59.4008 10.8711 59.3253 10.8991 59.2523C10.9272 59.1792 10.9127 59.1195 10.867 59.1195C10.8212 59.1195 10.7639 59.195 10.7397 59.2873ZM28.5445 60.2596C28.5132 60.3413 28.5319 60.3798 28.5934 60.3593C28.719 60.3175 28.7881 60.1267 28.6776 60.1267C28.6325 60.1267 28.5727 60.1865 28.5445 60.2596ZM24.8766 63.7431C24.7393 63.9995 24.8341 64.0289 24.9971 63.7805C25.0738 63.6636 25.0991 63.568 25.0534 63.568C25.0078 63.568 24.9282 63.6468 24.8766 63.7431ZM3.1005 64.3687C3.01547 64.4535 3.14016 64.8271 3.2536 64.8271C3.31746 64.8271 3.36981 64.8125 3.36981 64.7947C3.36981 64.7007 3.13689 64.3323 3.1005 64.3687ZM2.44552 64.8271C2.44552 64.8732 2.4856 64.911 2.53451 64.911C2.58341 64.911 2.60013 64.8732 2.57156 64.8271C2.54299 64.7809 2.50299 64.7431 2.48257 64.7431C2.46215 64.7431 2.44552 64.7809 2.44552 64.8271ZM18.3331 65.2307C18.3295 65.2911 18.2922 65.3194 18.2503 65.2936C18.2084 65.2677 18.2158 65.3347 18.2667 65.4425C18.3774 65.6768 18.5506 65.6983 18.6065 65.4845C18.6306 65.3926 18.6021 65.3307 18.5357 65.3307C18.4745 65.3307 18.4054 65.2835 18.3821 65.2258C18.3495 65.1451 18.3382 65.1462 18.3331 65.2307ZM18.8319 67.5599C18.8338 67.6759 18.983 67.8924 19.0293 67.8461C19.0511 67.8244 19.0153 67.7332 18.9498 67.6437C18.8842 67.5542 18.8312 67.5164 18.8319 67.5599ZM20.2591 73.7982C20.2591 73.8444 20.2969 73.9055 20.3431 73.934C20.3893 73.9626 20.4271 73.9481 20.4271 73.902C20.4271 73.8558 20.3893 73.7947 20.3431 73.7662C20.2969 73.7376 20.2591 73.7521 20.2591 73.7982ZM7.24333 77.6062C7.12762 77.7944 7.12779 77.7945 7.3071 77.6351C7.49969 77.4641 7.52456 77.4173 7.42331 77.4173C7.38819 77.4173 7.30719 77.5024 7.24333 77.6062ZM6.5628 77.879C6.50247 77.9516 6.49432 78.0049 6.54356 78.0049C6.59044 78.0049 6.65061 77.9482 6.67724 77.879C6.7038 77.8097 6.71245 77.7531 6.69649 77.7531C6.68052 77.7531 6.62036 77.8097 6.5628 77.879ZM6.68539 78.2623C6.65489 78.3115 6.648 78.3698 6.67002 78.3918C6.69203 78.4138 6.73245 78.3735 6.75984 78.3023C6.81664 78.1544 6.76824 78.1284 6.68539 78.2623ZM28.6407 78.7244C28.5135 78.7933 28.4096 78.8653 28.4096 78.8845C28.4096 78.9362 28.9427 78.7492 29.0356 78.665C29.1664 78.5461 28.8939 78.5871 28.6407 78.7244ZM31.0984 79.7992C31.0984 79.8166 31.1646 79.8828 31.2455 79.9461C31.3787 80.0505 31.3817 80.0475 31.2772 79.9144C31.1674 79.7746 31.0984 79.7302 31.0984 79.7992ZM4.34107 81.2391C4.25133 81.3068 4.21838 81.3623 4.26771 81.3623C4.31712 81.3623 4.40459 81.3056 4.46215 81.2364C4.59298 81.0789 4.5518 81.0798 4.34107 81.2391ZM0.638958 82.6213C0.667527 82.6675 0.707522 82.7053 0.727941 82.7053C0.748359 82.7053 0.764997 82.6675 0.764997 82.6213C0.764997 82.5752 0.724918 82.5374 0.676014 82.5374C0.627111 82.5374 0.610389 82.5752 0.638958 82.6213ZM14.9234 83.041C14.8948 83.0872 14.9093 83.1249 14.9555 83.1249C15.0017 83.1249 15.0629 83.0872 15.0915 83.041C15.12 82.9948 15.1056 82.9571 15.0594 82.9571C15.0131 82.9571 14.952 82.9948 14.9234 83.041ZM38.2013 83.3724C38.1777 83.4106 38.2808 83.4605 38.4305 83.4832C38.7878 83.5376 38.8148 83.5015 38.4989 83.3914C38.3589 83.3427 38.225 83.3341 38.2013 83.3724ZM15.9323 83.7116C15.9029 83.7591 15.9366 83.7732 16.0114 83.7445C16.1569 83.6887 16.1835 83.6285 16.0627 83.6285C16.0192 83.6285 15.9605 83.6659 15.9323 83.7116ZM37.1326 84.4413C37.1932 84.4655 37.2657 84.4625 37.2936 84.4347C37.3215 84.4068 37.2719 84.387 37.1833 84.3906C37.0855 84.3946 37.0655 84.4145 37.1326 84.4413ZM37.507 84.4421C37.5888 84.4634 37.7022 84.462 37.7591 84.439C37.816 84.416 37.7491 84.3986 37.6105 84.4003C37.4718 84.402 37.4253 84.4208 37.507 84.4421Z" fill="#ADE838"/>
</svg>
