<svg width="1921" height="61" viewBox="0 0 1921 61" fill="none" xmlns="http://www.w3.org/2000/svg">
<path d="M1640.97 60.9277L1645.73 60.709L1650.46 60.3467L1655.2 59.8428L1659.95 59.1982L1664.69 58.4219L1669.44 57.5137L1674.16 56.4854L1678.94 55.3271L1683.71 54.0596L1688.44 52.6973L1693.22 51.2305L1697.99 49.6748L1702.78 48.041L1707.56 46.3379L1712.38 44.5693L1717.15 42.7695L1721.97 40.9209L1726.77 39.0527L1736.39 35.2891L1736.39 35.2871L1741.21 33.416L1741.22 33.4121L1746.03 31.5635C1746.03 31.5616 1746.04 31.5594 1746.04 31.5576L1750.85 29.7441C1750.86 29.7417 1750.87 29.7397 1750.87 29.7373L1755.69 27.9688C1755.69 27.9658 1755.7 27.9628 1755.71 27.96L1760.52 26.249C1760.53 26.2456 1760.54 26.2416 1760.55 26.2383L1765.36 24.5947C1765.38 24.5909 1765.39 24.5867 1765.4 24.583L1770.21 23.0156C1770.22 23.0115 1770.24 23.0079 1770.25 23.0039L1775.06 21.5234C1775.08 21.519 1775.09 21.5149 1775.1 21.5107L1779.92 20.127C1779.93 20.1223 1779.95 20.1176 1779.97 20.1133L1784.78 18.834C1784.8 18.8293 1784.81 18.8246 1784.83 18.8203L1789.64 17.6543C1789.66 17.6497 1789.68 17.6448 1789.7 17.6406L1794.51 16.5938C1794.53 16.5893 1794.55 16.585 1794.57 16.5811L1799.39 15.6602C1799.41 15.656 1799.43 15.652 1799.45 15.6484L1804.26 14.8594C1804.29 14.8556 1804.31 14.8527 1804.33 14.8496L1809.14 14.1973C1809.17 14.1941 1809.19 14.191 1809.22 14.1885L1814.03 13.6768C1814.05 13.6742 1814.08 13.6718 1814.1 13.6699L1818.91 13.3027C1818.94 13.3008 1818.96 13.299 1818.99 13.2979L1823.8 13.0762C1823.83 13.075 1823.85 13.0746 1823.88 13.0742L1828.69 13C1828.72 12.9996 1828.74 12.9996 1828.77 13L1833.58 13.0742C1833.6 13.0746 1833.63 13.075 1833.65 13.0762L1838.47 13.2979C1838.49 13.299 1838.52 13.3008 1838.54 13.3027L1843.35 13.6699C1843.38 13.6718 1843.4 13.6742 1843.43 13.6768L1848.24 14.1885C1848.26 14.191 1848.29 14.1941 1848.31 14.1973L1853.12 14.8496C1853.15 14.8527 1853.17 14.8556 1853.19 14.8594L1858 15.6484C1858.03 15.652 1858.05 15.656 1858.07 15.6602L1862.88 16.5811C1862.9 16.585 1862.92 16.5893 1862.94 16.5938L1867.76 17.6406C1867.77 17.6448 1867.79 17.6497 1867.81 17.6543L1872.63 18.8203C1872.64 18.8246 1872.66 18.8293 1872.68 18.834L1877.49 20.1133C1877.51 20.1176 1877.52 20.1223 1877.54 20.127L1882.35 21.5107C1882.37 21.5149 1882.38 21.519 1882.4 21.5234L1887.21 23.0039C1887.22 23.0079 1887.23 23.0114 1887.25 23.0156L1892.06 24.583C1892.07 24.5867 1892.08 24.5909 1892.09 24.5947L1896.9 26.2383C1896.91 26.2416 1896.92 26.2456 1896.93 26.249L1901.75 27.96C1901.75 27.9628 1901.76 27.9658 1901.77 27.9688L1906.58 29.7373C1906.59 29.7396 1906.6 29.7418 1906.6 29.7441L1911.41 31.5576C1911.42 31.5594 1911.42 31.5616 1911.43 31.5635L1916.24 33.4121L1916.25 33.416L1920.16 34.9355V-419H0.156738V37.002C0.459924 37.0019 0.768499 37.0547 1.06787 37.1719L5.87451 39.0527L10.6772 40.9209L15.4888 42.7686L15.4878 42.7695L20.2661 44.5703L20.2671 44.5693L25.0786 46.3379L29.8657 48.041L34.6489 49.6738L34.6479 49.6748L39.4263 51.2305L44.1997 52.6973L48.936 54.0596L53.6929 55.3242L58.4829 56.4854L63.2085 57.5137L67.9585 58.4219L72.689 59.1982L77.4429 59.8428L82.1831 60.3467L86.9165 60.709L91.6753 60.9277L96.397 61L101.119 60.9277L105.875 60.709L110.607 60.3467L115.351 59.8428L120.105 59.1982L124.835 58.4219L129.585 57.5137L134.31 56.4854L139.09 55.3271L143.858 54.0596L148.594 52.6973L153.368 51.2305L158.145 49.6748L162.928 48.041L167.714 46.3379L172.528 44.5693L177.305 42.7695L182.118 40.9209L186.919 39.0527L196.539 35.2891L196.543 35.2871L201.356 33.416L201.366 33.4121L206.177 31.5635C206.182 31.5617 206.187 31.5594 206.192 31.5576L211.004 29.7441C211.011 29.7417 211.018 29.7397 211.024 29.7373L215.835 27.9688C215.844 27.9658 215.853 27.9628 215.861 27.96L220.672 26.249C220.682 26.2456 220.692 26.2416 220.702 26.2383L225.514 24.5947C225.525 24.5909 225.537 24.5867 225.548 24.583L230.36 23.0156C230.373 23.0115 230.386 23.0079 230.399 23.0039L235.211 21.5234C235.226 21.519 235.241 21.5149 235.255 21.5107L240.067 20.127C240.083 20.1223 240.1 20.1176 240.116 20.1133L244.928 18.834C244.946 18.8293 244.963 18.8246 244.981 18.8203L249.793 17.6543C249.812 17.6497 249.832 17.6448 249.851 17.6406L254.663 16.5938C254.683 16.5893 254.704 16.585 254.724 16.5811L259.537 15.6602C259.558 15.656 259.58 15.652 259.602 15.6484L264.414 14.8594C264.436 14.8556 264.46 14.8527 264.483 14.8496L269.294 14.1973C269.318 14.1941 269.342 14.191 269.366 14.1885L274.178 13.6768C274.203 13.6742 274.228 13.6718 274.252 13.6699L279.064 13.3027C279.089 13.3008 279.114 13.299 279.139 13.2979L283.952 13.0762C283.977 13.075 284.003 13.0746 284.028 13.0742L288.84 13C288.866 12.9996 288.891 12.9996 288.917 13L293.729 13.0742C293.754 13.0746 293.78 13.075 293.805 13.0762L298.618 13.2979C298.643 13.299 298.668 13.3008 298.693 13.3027L303.505 13.6699C303.53 13.6718 303.554 13.6742 303.579 13.6768L308.391 14.1885C308.415 14.191 308.439 14.1941 308.462 14.1973L313.275 14.8496C313.298 14.8527 313.321 14.8557 313.343 14.8594L318.155 15.6484C318.176 15.652 318.199 15.656 318.22 15.6602L323.033 16.5811C323.053 16.585 323.074 16.5893 323.094 16.5938L327.907 17.6406C327.926 17.6447 327.945 17.6497 327.963 17.6543L332.776 18.8203C332.793 18.8246 332.811 18.8293 332.829 18.834L337.641 20.1133C337.657 20.1176 337.674 20.1223 337.69 20.127L342.501 21.5107C342.516 21.5149 342.531 21.519 342.545 21.5234L347.358 23.0039C347.371 23.0079 347.384 23.0114 347.397 23.0156L352.208 24.583C352.22 24.5867 352.232 24.5909 352.244 24.5947L357.055 26.2383C357.065 26.2416 357.075 26.2456 357.084 26.249L361.897 27.96C361.905 27.9628 361.913 27.9658 361.921 27.9688L366.733 29.7373C366.739 29.7396 366.746 29.7418 366.752 29.7441L371.565 31.5576C371.57 31.5594 371.575 31.5616 371.58 31.5635L376.391 33.4121L376.401 33.416L381.213 35.2871L381.218 35.2891L390.837 39.0527L395.639 40.9209L400.451 42.7695L405.228 44.5703L405.229 44.5693L410.042 46.3379L414.829 48.04L414.828 48.041L419.611 49.6748L424.389 51.2295L424.388 51.2305L429.163 52.6973L433.898 54.0596L438.666 55.3271L443.446 56.4854L448.17 57.5137L452.92 58.4219L457.651 59.1982L462.41 59.8428L467.149 60.3467L471.879 60.709L476.636 60.9277L481.36 61L486.083 60.9277L490.839 60.709L495.573 60.3467L500.313 59.8428L505.062 59.1992L509.797 58.4219L514.547 57.5137L519.273 56.4854L524.063 55.3242L528.837 54.0547L533.556 52.6973L538.33 51.2305L543.108 49.6748L547.89 48.041L552.677 46.3379L557.49 44.5703L562.268 42.7695L567.08 40.9209L571.882 39.0527L581.501 35.2891L581.506 35.2871L586.318 33.416L586.328 33.4121L591.14 31.5635C591.145 31.5616 591.15 31.5594 591.155 31.5576L595.966 29.7441C595.973 29.7418 595.98 29.7396 595.986 29.7373L600.798 27.9688C600.806 27.9658 600.815 27.9628 600.823 27.96L605.635 26.249C605.645 26.2456 605.655 26.2416 605.665 26.2383L610.476 24.5947C610.487 24.5909 610.499 24.5867 610.51 24.583L615.323 23.0156C615.336 23.0115 615.349 23.0079 615.362 23.0039L620.173 21.5234C620.188 21.519 620.203 21.5149 620.217 21.5107L625.03 20.127C625.046 20.1223 625.062 20.1176 625.079 20.1133L629.89 18.834C629.908 18.8293 629.926 18.8246 629.944 18.8203L634.755 17.6543C634.774 17.6497 634.794 17.6448 634.813 17.6406L639.625 16.5938C639.646 16.5893 639.667 16.585 639.687 16.5811L644.499 15.6602C644.52 15.656 644.542 15.652 644.564 15.6484L649.376 14.8594C649.399 14.8557 649.422 14.8527 649.445 14.8496L654.257 14.1973C654.281 14.1941 654.305 14.191 654.329 14.1885L659.14 13.6768C659.165 13.6742 659.19 13.6718 659.214 13.6699L664.027 13.3027C664.052 13.3008 664.077 13.299 664.102 13.2979L668.914 13.0762C668.939 13.075 668.965 13.0746 668.991 13.0742L673.802 13C673.828 12.9996 673.854 12.9996 673.879 13L678.691 13.0742C678.716 13.0746 678.743 13.075 678.768 13.0762L683.58 13.2979C683.605 13.299 683.631 13.3008 683.656 13.3027L688.467 13.6699C688.492 13.6718 688.517 13.6742 688.542 13.6768L693.353 14.1885C693.377 14.191 693.402 14.1941 693.425 14.1973L698.237 14.8496C698.26 14.8527 698.283 14.8557 698.305 14.8594L703.118 15.6484C703.139 15.652 703.161 15.656 703.183 15.6602L707.995 16.5811C708.015 16.585 708.036 16.5893 708.056 16.5938L712.869 17.6406C712.888 17.6448 712.907 17.6497 712.926 17.6543L717.738 18.8203C717.755 18.8246 717.774 18.8293 717.792 18.834L722.603 20.1133C722.619 20.1176 722.636 20.1223 722.652 20.127L727.464 21.5107C727.479 21.5149 727.494 21.519 727.508 21.5234L732.32 23.0039C732.333 23.0078 732.346 23.0115 732.359 23.0156L737.171 24.583C737.183 24.5867 737.194 24.5909 737.206 24.5947L742.018 26.2383C742.028 26.2416 742.038 26.2456 742.047 26.249L746.859 27.96C746.867 27.9628 746.875 27.9658 746.883 27.9688L751.696 29.7373C751.702 29.7396 751.709 29.7418 751.715 29.7441L756.527 31.5576C756.532 31.5594 756.537 31.5617 756.542 31.5635L761.354 33.4121L761.364 33.416L766.175 35.2871L766.18 35.2891L775.799 39.0527L780.602 40.9209L785.414 42.7686L785.413 42.7695L790.191 44.5703L790.192 44.5693L795.003 46.3379L799.791 48.041L804.574 49.6738L804.573 49.6748L809.351 51.2305L814.125 52.6973L818.861 54.0596L823.618 55.3242L828.408 56.4854L833.133 57.5137L837.883 58.4219L842.614 59.1982L847.368 59.8428L852.108 60.3467L856.841 60.709L861.6 60.9277L866.322 61L871.043 60.9277L875.8 60.709L880.532 60.3467L885.276 59.8428L890.03 59.1982L894.76 58.4219L899.51 57.5137L904.235 56.4854L909.015 55.3271L913.783 54.0596L918.519 52.6973L923.292 51.2305L928.07 49.6748L932.853 48.041L937.639 46.3379L942.453 44.5693L947.23 42.7695L952.042 40.9209L956.844 39.0527L966.463 35.2891L966.468 35.2871L971.281 33.416L971.291 33.4121L976.102 31.5635C976.107 31.5616 976.112 31.5594 976.117 31.5576L980.929 29.7441C980.936 29.7417 980.942 29.7397 980.949 29.7373L985.76 27.9688C985.768 27.9658 985.777 27.9628 985.785 27.96L990.597 26.249C990.607 26.2456 990.617 26.2416 990.626 26.2383L995.439 24.5947C995.45 24.5909 995.462 24.5867 995.473 24.583L1000.28 23.0156C1000.3 23.0115 1000.31 23.0079 1000.32 23.0039L1005.14 21.5234C1005.15 21.519 1005.17 21.5149 1005.18 21.5107L1009.99 20.127C1010.01 20.1223 1010.02 20.1176 1010.04 20.1133L1014.85 18.834C1014.87 18.8293 1014.89 18.8246 1014.91 18.8203L1019.72 17.6543C1019.74 17.6497 1019.76 17.6448 1019.78 17.6406L1024.59 16.5938C1024.61 16.5893 1024.63 16.585 1024.65 16.5811L1029.46 15.6602C1029.48 15.656 1029.51 15.652 1029.53 15.6484L1034.34 14.8594C1034.36 14.8556 1034.38 14.8527 1034.41 14.8496L1039.22 14.1973C1039.24 14.1941 1039.27 14.191 1039.29 14.1885L1044.1 13.6768C1044.13 13.6742 1044.15 13.6718 1044.18 13.6699L1048.99 13.3027C1049.01 13.3008 1049.04 13.299 1049.06 13.2979L1053.88 13.0762C1053.9 13.075 1053.93 13.0746 1053.95 13.0742L1058.77 13C1058.79 12.9996 1058.82 12.9996 1058.84 13L1063.65 13.0742C1063.68 13.0746 1063.7 13.075 1063.73 13.0762L1068.54 13.2979C1068.57 13.299 1068.59 13.3008 1068.62 13.3027L1073.43 13.6699C1073.45 13.6718 1073.48 13.6742 1073.5 13.6768L1078.32 14.1885C1078.34 14.191 1078.36 14.1941 1078.39 14.1973L1083.2 14.8496C1083.22 14.8527 1083.25 14.8557 1083.27 14.8594L1088.08 15.6484C1088.1 15.652 1088.12 15.656 1088.15 15.6602L1092.96 16.5811C1092.98 16.585 1093 16.5893 1093.02 16.5938L1097.83 17.6406C1097.85 17.6448 1097.87 17.6497 1097.89 17.6543L1102.7 18.8203C1102.72 18.8246 1102.74 18.8293 1102.75 18.834L1107.57 20.1133C1107.58 20.1176 1107.6 20.1223 1107.61 20.127L1112.43 21.5107C1112.44 21.5149 1112.46 21.519 1112.47 21.5234L1117.28 23.0039C1117.3 23.0079 1117.31 23.0114 1117.32 23.0156L1122.13 24.583C1122.14 24.5867 1122.16 24.5909 1122.17 24.5947L1126.98 26.2383C1126.99 26.2416 1127 26.2456 1127.01 26.249L1131.82 27.96C1131.83 27.9628 1131.84 27.9658 1131.85 27.9688L1136.66 29.7373C1136.66 29.7396 1136.67 29.7418 1136.68 29.7441L1141.49 31.5576C1141.49 31.5594 1141.5 31.5616 1141.5 31.5635L1146.32 33.4121L1146.33 33.416L1151.14 35.2871L1151.14 35.2891L1160.76 39.0527L1165.56 40.9209L1170.38 42.7695L1175.15 44.5703L1175.15 44.5693L1179.97 46.3379L1184.75 48.04L1184.75 48.041L1189.54 49.6748L1194.31 51.2295L1194.31 51.2305L1199.09 52.6973L1203.82 54.0596L1208.59 55.3271L1213.37 56.4854L1218.1 57.5137L1222.85 58.4219L1227.58 59.1982L1232.33 59.8428L1237.07 60.3467L1241.8 60.709L1246.56 60.9277L1251.28 61L1256.01 60.9277L1260.76 60.709L1265.5 60.3467L1270.24 59.8428L1274.99 59.1992L1279.72 58.4219L1284.47 57.5137L1289.2 56.4854L1293.99 55.3242L1298.74 54.0596L1303.48 52.6973L1308.25 51.2305L1313.03 49.6748L1317.81 48.041L1322.6 46.3379L1327.41 44.5703L1332.19 42.7695L1337 40.9209L1341.81 39.0527L1351.43 35.2891L1351.43 35.2871L1356.24 33.416L1356.25 33.4121L1361.06 31.5635C1361.07 31.5616 1361.07 31.5594 1361.08 31.5576L1365.89 29.7441C1365.9 29.7418 1365.9 29.7396 1365.91 29.7373L1370.72 27.9688C1370.73 27.9658 1370.74 27.9628 1370.75 27.96L1375.56 26.249C1375.57 26.2456 1375.58 26.2416 1375.59 26.2383L1380.4 24.5947C1380.41 24.5909 1380.42 24.5867 1380.44 24.583L1385.25 23.0156C1385.26 23.0115 1385.27 23.0079 1385.29 23.0039L1390.1 21.5234C1390.11 21.519 1390.13 21.5149 1390.14 21.5107L1394.95 20.127C1394.97 20.1223 1394.99 20.1176 1395 20.1133L1399.81 18.834C1399.83 18.8293 1399.85 18.8246 1399.87 18.8203L1404.68 17.6543C1404.7 17.6497 1404.72 17.6448 1404.74 17.6406L1409.55 16.5938C1409.57 16.5893 1409.59 16.585 1409.61 16.5811L1414.42 15.6602C1414.44 15.656 1414.47 15.652 1414.49 15.6484L1419.3 14.8594C1419.32 14.8557 1419.35 14.8527 1419.37 14.8496L1424.18 14.1973C1424.21 14.1941 1424.23 14.191 1424.25 14.1885L1429.06 13.6768C1429.09 13.6742 1429.11 13.6718 1429.14 13.6699L1433.95 13.3027C1433.98 13.3008 1434 13.299 1434.03 13.2979L1438.84 13.0762C1438.86 13.075 1438.89 13.0746 1438.92 13.0742L1443.73 13C1443.75 12.9996 1443.78 12.9996 1443.8 13L1448.62 13.0742C1448.64 13.0746 1448.67 13.075 1448.69 13.0762L1453.5 13.2979C1453.53 13.299 1453.56 13.3008 1453.58 13.3027L1458.39 13.6699C1458.42 13.6718 1458.44 13.6742 1458.47 13.6768L1463.28 14.1885C1463.3 14.191 1463.33 14.1941 1463.35 14.1973L1468.16 14.8496C1468.18 14.8527 1468.21 14.8557 1468.23 14.8594L1473.04 15.6484C1473.06 15.652 1473.09 15.656 1473.11 15.6602L1477.92 16.5811C1477.94 16.585 1477.96 16.5893 1477.98 16.5938L1482.79 17.6406C1482.81 17.6448 1482.83 17.6497 1482.85 17.6543L1487.66 18.8203C1487.68 18.8246 1487.7 18.8293 1487.72 18.834L1492.53 20.1133C1492.54 20.1176 1492.56 20.1223 1492.58 20.127L1497.39 21.5107C1497.4 21.5149 1497.42 21.519 1497.43 21.5234L1502.24 23.0039C1502.26 23.0079 1502.27 23.0115 1502.28 23.0156L1507.1 24.583C1507.11 24.5867 1507.12 24.5909 1507.13 24.5947L1511.94 26.2383C1511.95 26.2416 1511.96 26.2456 1511.97 26.249L1516.78 27.96C1516.79 27.9628 1516.8 27.9658 1516.81 27.9688L1521.62 29.7373C1521.63 29.7396 1521.63 29.7418 1521.64 29.7441L1526.45 31.5576C1526.46 31.5594 1526.46 31.5617 1526.47 31.5635L1531.28 33.4121L1531.29 33.416L1536.1 35.2871L1536.1 35.2891L1545.72 39.0527L1550.53 40.9209L1555.34 42.7686L1555.34 42.7695L1560.12 44.5703L1560.12 44.5693L1564.93 46.3379L1569.72 48.041L1574.5 49.6738L1574.5 49.6748L1579.28 51.2305L1584.05 52.6973L1588.79 54.0596L1593.54 55.3242L1598.33 56.4854L1603.06 57.5137L1607.81 58.4219L1612.54 59.1982L1617.29 59.8428L1622.03 60.3467L1626.77 60.709L1631.52 60.9277L1636.25 61L1640.97 60.9277Z" fill="#F9F5F1"/>
</svg>
