<svg width="120" height="120" viewBox="0 0 120 120" fill="none" xmlns="http://www.w3.org/2000/svg">
<path fill-rule="evenodd" clip-rule="evenodd" d="M60.2426 8.50061C60.6099 8.50061 60.8412 8.60939 61.5486 9.31646V16.02C61.5486 21.7582 61.5214 22.7508 61.3445 23.0227C61.2357 23.1859 60.9908 23.3763 60.8004 23.4578C60.5555 23.553 60.3106 23.5394 59.9569 23.4171C59.6712 23.3219 59.4536 23.1723 59.4808 23.0771C59.4944 22.9819 59.4536 22.9411 59.372 22.9819C59.3039 23.0227 59.1815 22.9004 59.0999 22.71C59.0183 22.4924 58.9638 19.8953 58.9911 9.28926L59.372 8.89494C59.6576 8.60939 59.8889 8.50061 60.2426 8.50061V8.50061ZM75.2614 11.3697C75.275 11.3561 75.5062 11.4513 75.7647 11.56C76.0232 11.6688 76.3089 11.8864 76.3769 12.036C76.4449 12.1855 76.5129 12.4575 76.5129 12.6478C76.5129 12.8382 76.4177 13.1917 76.2953 13.4365C76.1728 13.6677 74.7852 16.1016 73.2072 18.8347C71.6427 21.5678 70.2143 23.9474 70.0374 24.1241C69.8062 24.3689 69.5885 24.4505 69.1396 24.4369C68.6498 24.4369 68.5002 24.3689 68.1601 23.9882C67.8472 23.621 67.7928 23.4443 67.8608 23.1179C67.9152 22.8868 68.2145 22.2477 68.541 21.6902C68.8539 21.1327 69.9422 19.229 70.9625 17.475C71.9828 15.7209 73.1391 13.6949 73.5473 12.9878C74.173 11.9136 74.3771 11.6688 74.758 11.5329C75.0165 11.4377 75.2341 11.3697 75.2614 11.3697ZM45.2103 11.4921C45.5504 11.4921 45.9313 11.5736 46.0537 11.6688C46.1762 11.764 47.659 14.2252 49.3731 17.135C51.0736 20.0449 52.5156 22.4924 52.5836 22.574C52.6516 22.6556 52.706 22.9139 52.706 23.1451C52.706 23.3899 52.6516 23.7162 52.57 23.8658C52.502 24.0153 52.2163 24.2329 51.9578 24.3417C51.6041 24.4913 51.3729 24.5185 51.0464 24.4097C50.7471 24.3145 50.4614 24.0697 50.1757 23.6346C49.9308 23.2675 48.4888 20.8335 46.9516 18.2228C45.4279 15.5985 44.0947 13.3141 43.9995 13.1238C43.9043 12.9334 43.8771 12.6342 43.9315 12.4439C43.9723 12.2535 44.1492 11.968 44.2988 11.7912C44.5165 11.56 44.7341 11.4921 45.2103 11.4921ZM28.9672 25.3615C29.1576 25.3615 29.4433 25.4295 29.6202 25.4975C29.7834 25.5791 29.9875 25.7694 30.0827 25.9462C30.1643 26.1094 30.314 26.6805 30.3956 27.1972C30.4772 27.7139 30.6949 28.4889 30.8717 28.8968C31.0486 29.3048 31.4295 29.971 31.7152 30.3654C32.0009 30.7597 32.5994 31.358 33.0484 31.6979C33.4973 32.0379 34.2047 32.4322 34.6128 32.5818C35.0209 32.7313 35.6331 32.8945 35.9732 32.9353C36.3133 32.9625 36.7758 33.0577 36.9935 33.1257C37.2384 33.1937 37.5104 33.4112 37.6601 33.6832C37.8324 33.9823 37.8868 34.2543 37.8233 34.499C37.7825 34.7166 37.6057 35.0021 37.4424 35.1517C37.2656 35.3013 37.0207 35.4236 36.8983 35.4236C36.7622 35.4236 36.1773 35.5188 35.6059 35.6412C35.0209 35.7636 34.2455 36.0083 33.8646 36.1987C33.4973 36.4027 32.8171 36.9194 32.3546 37.3817C31.8648 37.8848 31.3615 38.5647 31.103 39.095C30.8581 39.5845 30.5724 40.4955 30.45 41.1346C30.3276 41.7737 30.1643 42.4263 30.0827 42.6031C29.9875 42.7663 29.7426 42.9702 29.5113 43.0518C29.2393 43.1334 28.9808 43.1334 28.7359 43.0382C28.5182 42.9702 28.2734 42.7663 28.1645 42.5895C28.0557 42.4263 27.8925 41.8281 27.7972 41.2706C27.702 40.6315 27.4435 39.87 27.117 39.2309C26.7497 38.4831 26.3688 37.98 25.675 37.3409C25.1309 36.8242 24.4099 36.3075 23.9337 36.0899C23.4848 35.8724 22.6005 35.614 21.9611 35.5052C21.0497 35.3557 20.7504 35.2469 20.5599 34.9885C20.4239 34.8254 20.3151 34.4718 20.3287 34.2271C20.3287 33.9687 20.4511 33.6696 20.6416 33.4656C20.832 33.2616 21.1721 33.1121 21.6211 33.0577C22.002 33.0033 22.6958 32.8401 23.1855 32.7041C23.6752 32.5546 24.3554 32.2554 24.7227 32.0243C25.0764 31.8067 25.6206 31.358 25.9471 31.0317C26.26 30.7053 26.7089 30.0798 26.9402 29.6311C27.1851 29.196 27.4707 28.4889 27.5932 28.081C27.702 27.6731 27.838 27.0204 27.8925 26.6533C27.9469 26.2045 28.0965 25.8646 28.3006 25.6606C28.4774 25.4975 28.7767 25.3615 28.9672 25.3615ZM68.1873 28.6385C68.7995 28.6385 69.9966 28.7201 70.8401 28.8289C71.6699 28.9376 73.0031 29.2096 73.7921 29.4407C74.5812 29.6719 76.0232 30.243 76.9891 30.7189C77.9549 31.1948 79.3017 31.9835 79.9819 32.4458C80.6485 32.9217 81.7776 33.9007 82.4986 34.6078C83.2061 35.3285 84.1855 36.4571 84.6617 37.1233C85.1378 37.8032 85.8724 39.0814 86.3078 39.9788C86.7431 40.8762 87.26 42.1 87.4369 42.6983C87.6273 43.2966 87.8722 44.262 87.9946 44.8331C88.1171 45.4178 88.2803 46.5192 88.3619 47.2807C88.4844 48.3413 88.4844 49.1027 88.3619 50.3809C88.2803 51.3191 88.0491 52.7196 87.8586 53.5083C87.6681 54.297 87.2736 55.5479 86.9879 56.2958C86.6887 57.0436 86.1309 58.213 85.7228 58.8793C85.3283 59.5456 82.9748 63.1353 80.4989 66.8338C78.023 70.5324 74.6356 75.6042 72.9623 78.079C71.289 80.5673 66.6501 87.4884 62.6505 93.4441C58.651 99.4134 55.0867 104.662 54.733 105.111C54.3929 105.559 53.6175 106.389 53.0325 106.946C52.434 107.504 51.5361 108.279 51.0055 108.673C50.475 109.068 49.5907 109.652 49.033 109.992C48.4752 110.319 47.4957 110.808 46.8563 111.066C46.217 111.338 45.0878 111.706 44.3396 111.91C43.5914 112.1 42.3943 112.331 41.6869 112.413C40.9386 112.494 39.6191 112.521 38.5579 112.481C37.5513 112.426 36.1364 112.277 35.429 112.127C34.7216 111.978 33.5925 111.665 32.9123 111.42C32.2457 111.189 31.3207 110.808 30.8717 110.591C30.4228 110.359 29.5657 109.856 28.9672 109.462C28.3686 109.068 27.3347 108.265 26.6545 107.681C25.9879 107.082 25.0492 106.144 24.5731 105.587C24.097 105.029 23.4168 104.145 23.0767 103.615C22.723 103.085 22.1924 102.147 21.8659 101.507C21.553 100.868 21.1177 99.8078 20.8864 99.1279C20.6688 98.448 20.3423 97.2242 20.1654 96.4084C19.8934 95.103 19.8525 94.5319 19.8525 91.9212C19.8661 89.1745 19.8934 88.7802 20.2471 87.1621C20.4511 86.1967 20.832 84.8097 21.1041 84.1027C21.3626 83.3956 21.9339 82.131 22.3557 81.3152C22.8182 80.4313 25.6614 76.0665 29.3753 70.5732C32.8035 65.4877 37.3744 58.7297 39.5102 55.5479C41.646 52.3661 43.741 49.2795 44.1492 48.6812C44.5709 48.0829 46.421 45.3362 48.2848 42.5623C50.1485 39.7884 51.9442 37.1641 52.2843 36.7154C52.6244 36.2667 53.3046 35.478 53.7944 34.9613C54.2841 34.4582 55.1003 33.6832 55.6309 33.248C56.1614 32.8265 57.0049 32.201 57.5354 31.8611C58.066 31.5212 58.9094 31.0317 59.44 30.7597C59.9705 30.5013 61.0044 30.0662 61.7527 29.8079C62.5009 29.5495 63.5756 29.2368 64.1333 29.1144C64.6911 28.9784 65.5754 28.8289 66.1059 28.7745C66.6365 28.7065 67.5615 28.6521 68.1873 28.6385ZM28.8175 31.2492C28.6815 31.494 28.2326 32.0379 27.8244 32.473C27.4027 32.9081 26.7497 33.4928 26.3552 33.7647L25.6478 34.2679C26.5321 34.8254 27.1579 35.3828 27.5932 35.8452C28.0285 36.3211 28.5182 36.9466 28.6815 37.2185C28.8447 37.5041 29.008 37.7352 29.0624 37.7352C29.1304 37.7352 29.1984 37.6264 29.2393 37.4905C29.2665 37.3681 29.5657 36.8786 29.9194 36.4027C30.2595 35.9403 30.8581 35.3149 31.239 35.0021C31.6335 34.6894 32.0553 34.3902 32.1641 34.3222C32.341 34.2135 32.341 34.1863 32.1641 34.0775C32.0553 34.0095 31.5927 33.656 31.1574 33.3024C30.7085 32.9353 30.0555 32.2282 29.7018 31.7251L29.0624 30.8277L28.8175 31.2492ZM64.0925 38.9454C63.5484 39.1629 62.6777 39.6525 62.1608 40.006C61.6302 40.3731 60.9092 40.9986 60.5419 41.4065C60.1882 41.8145 57.481 45.7305 54.5426 50.0953C51.6041 54.4737 47.3053 60.8645 44.9926 64.3047C42.6799 67.7449 38.6124 73.7822 35.9596 77.6982C33.2796 81.6823 30.8445 85.4488 30.45 86.1967C30.0691 86.9445 29.6202 88.0867 29.4433 88.7122C29.2256 89.5281 29.1032 90.3711 29.0624 91.4997C29.0216 92.4651 29.076 93.5529 29.1712 94.1512C29.2665 94.7223 29.4977 95.6333 29.7018 96.1908C29.8922 96.7619 30.3412 97.673 30.6949 98.2304C31.035 98.8015 31.688 99.631 32.1505 100.107C32.5994 100.569 33.3885 101.222 33.8918 101.548C34.3951 101.875 35.2386 102.31 35.7691 102.514C36.2861 102.718 37.2112 102.976 37.8097 103.098C38.5307 103.234 39.3198 103.275 40.1904 103.221C41.0203 103.18 41.8637 103.03 42.5711 102.799C43.1697 102.609 44.0539 102.228 44.5301 101.943C45.0062 101.657 45.8224 101.032 46.353 100.542C46.87 100.066 47.6862 99.1143 48.1487 98.4344C48.6113 97.7681 50.0533 95.6197 51.3729 93.6753C52.6788 91.7309 55.7805 87.0805 58.27 83.3412C60.7596 79.6019 64.3782 74.1901 66.31 71.3074C68.2281 68.4383 71.5067 63.5432 73.5745 60.4294C75.6559 57.3292 77.5604 54.3649 77.8053 53.8346C78.0502 53.3179 78.3903 52.4341 78.5535 51.863C78.7032 51.3055 78.8664 50.2721 78.9072 49.5514C78.9752 48.6268 78.9344 47.9197 78.7576 47.0359C78.6351 46.3696 78.3631 45.3906 78.159 44.8603C77.9685 44.3436 77.4516 43.3918 77.0299 42.7527C76.6217 42.1272 75.9143 41.2706 75.479 40.8762C75.0301 40.4819 74.2819 39.9244 73.7921 39.6389C73.3024 39.3533 72.5406 38.9862 72.0916 38.823C71.6427 38.6598 70.8265 38.4287 70.2823 38.3199C69.7382 38.2247 68.8267 38.1431 68.2417 38.1431C67.6704 38.1567 66.7181 38.2383 66.1331 38.3471C65.5618 38.4559 64.6367 38.7278 64.0925 38.9454ZM92.3615 75.441C92.7016 75.4818 92.9873 75.6178 93.1505 75.8218C93.273 75.9986 93.4226 76.4745 93.4634 76.8824C93.5178 77.3039 93.6539 77.943 93.7899 78.3101C93.9124 78.6909 94.2252 79.3299 94.4837 79.7379C94.7422 80.1594 95.1639 80.7033 95.4224 80.9616C95.6809 81.2336 96.1978 81.6551 96.5787 81.9135C96.946 82.1718 97.5582 82.4846 97.9391 82.6069C98.3064 82.7429 98.9186 82.8925 99.2995 82.9333C99.6668 82.9877 100.129 83.0828 100.32 83.1508C100.51 83.2188 100.728 83.4228 100.823 83.6132C100.918 83.8035 101 84.1163 101 84.293C101 84.4834 100.823 84.8097 100.605 85.0409C100.293 85.3536 100.075 85.4488 99.6804 85.4488C99.3947 85.4488 98.8506 85.544 98.4833 85.6392C98.1024 85.7344 97.463 85.9927 97.0549 86.1967C96.6467 86.4142 95.9257 86.9581 95.4632 87.4068C94.9326 87.9371 94.4837 88.5626 94.2116 89.1201C93.9804 89.6096 93.6675 90.5887 93.5178 91.2957C93.3274 92.3019 93.1913 92.6419 92.9465 92.8322C92.7696 92.9682 92.4295 93.077 92.1847 93.077C91.9262 93.0634 91.6133 92.941 91.4092 92.7643C91.1507 92.5195 91.0419 92.2068 90.8923 91.2957C90.7834 90.6702 90.5386 89.8136 90.3345 89.3921C90.1441 88.9842 89.7632 88.3587 89.5047 88.0051C89.2462 87.6516 88.6476 87.0805 88.1715 86.7406C87.709 86.4006 87.0016 85.9927 86.607 85.8567C86.2125 85.7072 85.4779 85.5304 84.9746 85.4624C84.2672 85.3536 83.9951 85.2584 83.7502 84.9865C83.587 84.7825 83.4509 84.4562 83.4509 84.225C83.4509 83.9667 83.587 83.6811 83.8454 83.4092C84.0631 83.1916 84.3896 83.0013 84.5665 83.0013C84.7297 83.0013 85.3419 82.8925 85.8996 82.7429C86.4574 82.5933 87.2464 82.267 87.6409 82.0222C88.0491 81.7775 88.7156 81.2064 89.1374 80.7577C89.5591 80.2954 90.076 79.5339 90.3345 78.99C90.6066 78.4461 90.8651 77.5895 90.9603 76.964C91.0963 76.1073 91.2052 75.849 91.4772 75.6314C91.7357 75.4275 91.9534 75.3867 92.3615 75.441ZM90.8243 82.5117C90.3209 83.0149 89.6543 83.586 89.3278 83.7627C89.0149 83.9395 88.7565 84.1571 88.7565 84.225C88.7565 84.3066 88.8109 84.361 88.8925 84.361C88.9605 84.361 89.3822 84.633 89.804 84.9593C90.2393 85.2856 90.8515 85.8839 91.1644 86.2918C91.4772 86.6862 91.8173 87.2029 91.9262 87.4204L92.1302 87.8284C92.9329 86.5774 93.4906 85.8975 93.8715 85.5304C94.2661 85.1497 94.7966 84.7145 95.0687 84.565C95.3408 84.4154 95.5584 84.2522 95.5584 84.1978C95.5584 84.1434 95.1775 83.8307 94.7014 83.5044C94.2116 83.1644 93.5178 82.4846 93.0553 81.9135C92.62 81.356 92.2255 80.88 92.1574 80.8529C92.103 80.8393 91.9942 80.9888 91.9126 81.1928C91.8173 81.4103 91.3412 81.995 90.8243 82.5117Z" fill="#3D3D3D"/>
<path fill-rule="evenodd" clip-rule="evenodd" d="M68.6226 31.2628C70.7857 31.3036 71.3298 31.358 72.4998 31.6571C73.248 31.8475 74.2547 32.1738 74.7444 32.3778C75.2342 32.5682 75.9416 32.8945 76.3089 33.0713C76.6898 33.2616 77.5332 33.7919 78.2134 34.2542C78.8936 34.703 80.0499 35.6956 80.8118 36.4434C81.5736 37.2049 82.5123 38.3199 82.9476 38.959C83.3557 39.5981 83.9135 40.5771 84.1855 41.1346C84.444 41.6921 84.8385 42.7119 85.0698 43.3782C85.2875 44.058 85.5867 45.1866 85.7092 45.8937C85.8724 46.7367 85.9541 47.8381 85.9404 49.0891C85.9404 50.544 85.8724 51.3327 85.6276 52.4205C85.4643 53.2091 85.1786 54.2833 84.9882 54.8001C84.7977 55.3304 84.3352 56.3638 83.9543 57.1116C83.5734 57.8595 81.1519 61.626 78.5671 65.4741C75.996 69.3222 71.7652 75.6314 69.1668 79.4795C66.5684 83.3276 62.0111 90.1263 59.0319 94.5727C56.0662 99.0191 53.3046 103.058 52.9101 103.547C52.5156 104.037 51.6993 104.907 51.0872 105.491C50.475 106.063 49.3595 106.946 48.584 107.45C47.8222 107.953 46.7067 108.578 46.1081 108.836C45.5096 109.081 44.3124 109.476 43.4554 109.693C42.2582 110.006 41.4556 110.115 40.0544 110.169C38.7212 110.223 37.8641 110.183 36.8847 110.019C36.1637 109.897 35.0617 109.639 34.436 109.448C33.8238 109.244 32.9259 108.904 32.4362 108.687C31.9464 108.469 30.9397 107.885 30.1915 107.382C29.4433 106.878 28.2734 105.94 27.6068 105.301C26.9402 104.648 26.0423 103.642 25.607 103.058C25.1853 102.459 24.6003 101.521 24.2874 100.964C23.9881 100.406 23.5528 99.4542 23.3351 98.8559C23.1175 98.2576 22.8182 97.1698 22.6549 96.4492C22.4917 95.7149 22.3012 94.3687 22.2196 93.4577C22.1108 92.2339 22.1108 91.3637 22.2196 90.2215C22.3012 89.3649 22.5189 88.0459 22.6958 87.2981C22.8862 86.5502 23.1991 85.476 23.4032 84.9185C23.5936 84.361 24.0562 83.3004 24.4235 82.5797C24.7908 81.8455 25.7839 80.2274 26.6273 78.9764C27.4843 77.7118 30.967 72.5584 34.3679 67.5137C37.7825 62.469 42.095 56.0782 43.9723 53.3043C45.8497 50.5304 48.9105 46.0161 50.7743 43.2422C52.6516 40.4683 54.597 37.7216 55.1139 37.1233C55.6309 36.525 56.5696 35.6412 57.1817 35.1517C57.7939 34.6622 58.7326 33.9959 59.2767 33.6696C59.8209 33.3296 60.7188 32.8673 61.2765 32.6225C61.8343 32.3778 62.841 32.0243 63.5212 31.8203C64.2014 31.6299 65.0584 31.4124 65.4257 31.3444C65.8066 31.2764 67.235 31.2492 68.6226 31.2628ZM64.0925 38.959C63.562 39.1765 62.6913 39.6525 62.1608 40.0196C61.6302 40.3867 60.9092 41.0122 60.5419 41.4201C60.1882 41.828 57.481 45.7305 54.5426 50.1089C51.6177 54.4873 47.3189 60.8781 44.9926 64.3183C42.6799 67.7585 38.6124 73.7822 35.9596 77.7118C33.2796 81.6959 30.8445 85.4488 30.45 86.2103C30.0827 86.9581 29.6202 88.0867 29.4433 88.7258C29.2256 89.528 29.1032 90.3711 29.0624 91.5133C29.0352 92.4787 29.076 93.5665 29.1712 94.1648C29.2665 94.7223 29.4977 95.6469 29.7018 96.2044C29.8922 96.7619 30.3412 97.6865 30.6949 98.244C31.035 98.8015 31.7016 99.6446 32.1505 100.12C32.613 100.583 33.3885 101.235 33.9054 101.562C34.4087 101.888 35.2386 102.323 35.7691 102.527C36.2997 102.731 37.2112 102.99 37.8097 103.098C38.5443 103.234 39.3198 103.289 40.1904 103.234C41.0339 103.194 41.8637 103.044 42.5711 102.813C43.1697 102.622 44.0539 102.242 44.5301 101.956C45.0062 101.671 45.8224 101.045 46.353 100.556C46.87 100.066 47.6862 99.1279 48.1487 98.448C48.6113 97.7681 50.0669 95.6333 51.3729 93.6889C52.6788 91.7444 55.7941 87.0941 58.27 83.3548C60.7596 79.6155 64.3782 74.2037 66.31 71.321C68.2417 68.4383 71.5067 63.5432 73.5881 60.443C75.6559 57.3428 77.5604 54.3785 77.8053 53.8482C78.0638 53.3179 78.3903 52.4341 78.5535 51.8766C78.7032 51.3191 78.8664 50.2721 78.9208 49.565C78.9752 48.6268 78.9344 47.9333 78.7576 47.0495C78.6351 46.3832 78.3631 45.4042 78.159 44.8739C77.9685 44.3436 77.4516 43.4054 77.0435 42.7663C76.6218 42.1272 75.9143 41.2841 75.479 40.8898C75.0301 40.4819 74.2819 39.9244 73.7921 39.6524C73.3024 39.3669 72.5406 38.9998 72.0916 38.823C71.6427 38.6598 70.8265 38.4423 70.2959 38.3335C69.7518 38.2247 68.8267 38.1431 68.2553 38.1567C67.6704 38.1567 66.7181 38.2519 66.1467 38.3607C65.5618 38.4695 64.6367 38.7278 64.1061 38.959H64.0925Z" fill="#85CF1F"/>
<path fill-rule="evenodd" clip-rule="evenodd" d="M68.0105 35.7092C68.6907 35.6956 69.7654 35.7908 70.432 35.8995C71.085 36.0083 71.9965 36.2395 72.459 36.3891C72.9352 36.5522 73.6834 36.865 74.1323 37.0961C74.5812 37.3137 75.3158 37.7488 75.7648 38.048C76.2137 38.3471 76.9755 38.9998 77.4653 39.4893C77.955 39.9788 78.608 40.7539 78.9073 41.2026C79.2202 41.6513 79.6827 42.4399 79.9412 42.9702C80.2133 43.5005 80.5942 44.4388 80.7846 45.0779C80.9887 45.7169 81.2199 46.8455 81.3016 47.5934C81.424 48.6132 81.424 49.2931 81.3152 50.3129C81.2199 51.0608 80.9887 52.1893 80.7846 52.8284C80.5942 53.4675 80.2133 54.4057 79.9412 54.936C79.6827 55.4663 76.7715 59.9263 73.4793 64.8622C70.1872 69.7981 63.5348 79.7379 58.719 86.9581C53.8896 94.1784 49.686 100.42 49.3731 100.828C49.0602 101.235 48.3256 102.024 47.7271 102.568C46.9516 103.275 46.2714 103.737 45.292 104.227C44.5437 104.608 43.4418 105.043 42.8432 105.206C41.959 105.437 41.3468 105.492 39.6463 105.505C37.7418 105.519 37.4017 105.478 36.2045 105.138C35.4835 104.934 34.436 104.553 33.9055 104.281C33.3613 104.009 32.5859 103.561 32.1778 103.289C31.7696 103.017 31.0214 102.391 30.5045 101.875C30.0011 101.371 29.3481 100.61 29.0489 100.175C28.7632 99.7534 28.3142 98.9783 28.0558 98.448C27.7837 97.9177 27.4164 97.0067 27.2259 96.4084C27.0355 95.8101 26.8178 94.7767 26.7362 94.0968C26.6546 93.4169 26.5865 92.4651 26.5865 91.9484C26.5865 91.4453 26.6546 90.5615 26.7362 89.9768C26.8178 89.4057 27.0355 88.4131 27.2259 87.774C27.4028 87.1349 27.8109 86.0743 28.1374 85.3944C28.4503 84.7145 29.3754 83.1916 30.1916 81.995C30.9942 80.7985 32.0961 79.1804 32.6403 78.3917C33.1709 77.6031 34.8033 75.1963 36.2725 73.0207C37.7282 70.8451 40.721 66.4123 42.9113 63.1625C45.1151 59.9127 49.4139 53.4811 52.4884 48.8852C57.4539 41.4201 58.1885 40.4003 59.2224 39.3669C59.9162 38.687 60.8413 37.9392 61.4806 37.5584C62.0792 37.2049 63.1811 36.7018 63.9293 36.4434C64.6776 36.1851 65.6298 35.9131 66.038 35.8452C66.4461 35.7772 67.3303 35.7228 68.0105 35.7092ZM64.0926 38.959C63.562 39.1765 62.6914 39.6525 62.1608 40.0196C61.6303 40.3867 60.9093 41.0122 60.542 41.4201C60.1883 41.8281 57.4811 45.7305 54.5426 50.1089C51.6178 54.4873 47.3189 60.8781 44.9927 64.3183C42.68 67.7585 38.6124 73.7822 35.9597 77.7118C33.2797 81.6959 30.8446 85.4488 30.4501 86.2103C30.0828 86.9581 29.6202 88.0867 29.4434 88.7258C29.2257 89.5281 29.1033 90.3711 29.0625 91.5133C29.0353 92.4787 29.0761 93.5665 29.1713 94.1648C29.2665 94.7223 29.4978 95.6469 29.7018 96.2044C29.8923 96.7619 30.3412 97.6866 30.6949 98.244C31.035 98.8015 31.7016 99.6446 32.1506 100.107C32.6131 100.583 33.3885 101.235 33.9055 101.562C34.4088 101.888 35.2386 102.323 35.7692 102.527C36.2998 102.731 37.2112 102.99 37.8098 103.098C38.5444 103.234 39.3198 103.289 40.1905 103.234C41.0339 103.194 41.8638 103.044 42.5712 102.813C43.1697 102.622 44.054 102.242 44.5301 101.956C45.0063 101.671 45.8225 101.045 46.3531 100.556C46.87 100.066 47.6862 99.1279 48.1488 98.448C48.6113 97.7681 50.0669 95.6333 51.3729 93.6889C52.6789 91.7444 55.7942 87.0941 58.2701 83.3548C60.7596 79.6155 64.3783 74.2037 66.31 71.321C68.2418 68.4383 71.5067 63.5432 73.5881 60.443C75.6559 57.3428 77.5605 54.3785 77.8054 53.8482C78.0638 53.3179 78.3903 52.4341 78.5536 51.8766C78.7032 51.3191 78.8665 50.2721 78.9209 49.565C78.9753 48.6268 78.9345 47.9333 78.7576 47.0495C78.6352 46.3696 78.3631 45.4042 78.1591 44.8739C77.9686 44.3436 77.4517 43.4054 77.0435 42.7663C76.6218 42.1272 75.9144 41.2842 75.4791 40.8898C75.0302 40.4819 74.2819 39.9244 73.7922 39.6525C73.3025 39.3669 72.5406 38.9998 72.0917 38.823C71.6428 38.6598 70.8265 38.4423 70.296 38.3335C69.7518 38.2247 68.8268 38.1431 68.2554 38.1567C67.6704 38.1567 66.7181 38.2519 66.1468 38.3607C65.5618 38.4695 64.6367 38.7278 64.1062 38.959H64.0926ZM63.3716 48.7628C63.9021 48.7492 64.7184 48.8444 65.2081 48.9667C65.6979 49.0755 66.5549 49.3883 67.1127 49.6738C67.8473 50.0273 68.4186 50.4489 69.1669 51.1967C69.9559 51.9854 70.3232 52.4885 70.7585 53.3723C71.1802 54.2018 71.3843 54.8273 71.4931 55.6159C71.6156 56.4862 71.6156 56.9213 71.4659 57.7915C71.3299 58.5258 71.085 59.2328 70.7177 59.9671C70.4184 60.5654 66.6501 66.3171 62.3649 72.7487C58.066 79.1804 54.1753 84.9865 53.7128 85.6664C53.2503 86.3462 51.5498 88.8482 49.9445 91.2413C47.9175 94.2464 46.7612 95.8237 46.217 96.354C45.7681 96.7619 45.1015 97.2786 44.7342 97.4962C44.3669 97.7137 43.6595 98.0401 43.1697 98.2169C42.5712 98.4344 41.8638 98.5704 40.9931 98.6112C40.0408 98.6656 39.4695 98.6248 38.8165 98.4616C38.3267 98.3392 37.5377 98.0401 37.048 97.8089C36.4585 97.5188 35.8236 97.0293 35.1434 96.3404C34.5312 95.7421 33.9327 94.9806 33.6878 94.5047C33.4565 94.056 33.1709 93.3218 33.0484 92.873C32.926 92.4243 32.8308 91.5133 32.8308 90.8334C32.8308 90.1535 32.926 89.2561 33.0484 88.7938C33.1709 88.3451 33.4021 87.6652 33.5654 87.2981C33.7422 86.9173 39.1022 78.786 45.4824 69.2134C54.3794 55.8879 57.2906 51.6182 57.93 50.9928C58.3789 50.544 59.1136 49.9866 59.5625 49.7418C60.0114 49.497 60.8413 49.1843 61.399 49.0347C61.9568 48.8852 62.841 48.7628 63.3716 48.7628Z" fill="#3D3D3D"/>
<path d="M60.4603 52.0397C60.8004 51.8358 61.3717 51.5638 61.7526 51.4278C62.256 51.2511 62.7457 51.1967 63.6572 51.2375C64.7183 51.2647 65.0176 51.3462 65.8882 51.7406C66.5684 52.0669 67.1126 52.4476 67.6023 52.9643C67.9968 53.3723 68.4866 54.0793 68.6906 54.5281C68.9355 55.072 69.0852 55.6702 69.126 56.2957C69.1804 56.962 69.126 57.5059 68.9627 58.1314C68.7451 58.9064 67.7928 60.3886 61.3309 70.0292C57.2769 76.0801 52.774 82.7972 51.3184 84.9592C49.8764 87.1076 47.8902 90.0311 46.9244 91.4588C45.9585 92.8866 44.8702 94.3279 44.5029 94.6542C44.1492 94.9806 43.4554 95.4565 42.952 95.6877C42.095 96.1092 41.9317 96.1364 40.5985 96.1364C39.2653 96.1364 39.1021 96.1092 38.2859 95.7013C37.7417 95.4429 37.1431 95.0078 36.7622 94.5863C36.3949 94.2055 35.9596 93.5664 35.7691 93.1857C35.5923 92.7914 35.361 92.0979 35.2794 91.6492C35.157 91.0237 35.157 90.6158 35.2794 89.9495C35.361 89.46 35.5787 88.7665 35.7419 88.3858C35.9188 88.0187 41.2243 79.969 47.5229 70.5051C53.8352 61.0413 59.1815 53.1003 59.4128 52.8556C59.6576 52.5972 60.1202 52.2301 60.4603 52.0397Z" fill="#85CF1F"/>
</svg>
