<svg width="144" height="144" viewBox="0 0 144 144" fill="none" xmlns="http://www.w3.org/2000/svg">
<path d="M75.2068 57.3304C75.5716 57.3976 75.4228 57.2776 75.4996 57.1288C76.2916 55.5592 76.7812 54.2392 78.0244 52.9048C80.3572 50.3944 84.8596 48.6568 88.234 48.3496C88.3924 48.3352 88.738 48.22 88.7044 48.4696C85.1908 50.2744 82.7044 53.8936 81.8788 57.748C81.442 59.7976 81.466 61.9192 81.0676 63.9688C79.7812 70.612 74.7652 75.436 68.0308 76.3144C71.2324 74.0008 73.3732 70.8712 73.6564 66.82C74.2756 57.9304 67.6996 50.956 59.4532 48.892C60.5476 49.708 61.7668 50.3656 62.8708 51.1672C67.8772 54.796 72.4804 60.436 71.5444 67.0312C65.1796 66.4264 59.77 63.4504 56.1028 58.2184C51.85 52.1512 51.058 44.2792 52.1428 37.084C62.6068 38.9848 74.4868 45.484 75.202 57.3304H75.2068Z" fill="#449453"/>
<path d="M77.5202 47.7596C80.5237 47.7596 82.9586 45.3248 82.9586 42.3212C82.9586 39.3177 80.5237 36.8828 77.5202 36.8828C74.5166 36.8828 72.0818 39.3177 72.0818 42.3212C72.0818 45.3248 74.5166 47.7596 77.5202 47.7596Z" fill="#449453"/>
<path d="M39.9458 93.2206V82.291H42.5858V86.6206H46.8002V82.291H49.4402V93.2206H46.8002V88.6174H42.5858V93.2206H39.9458Z" fill="#374451"/>
<path d="M52.872 93.2206V82.291H60.3648V84.3166H55.512V86.7022H59.3424V88.627H55.512V91.195H60.7872L60.5952 93.2206H52.8672H52.872Z" fill="#374451"/>
<path d="M73.2193 93.2203H70.4353L69.5857 90.9019H65.8225L64.9873 93.2203H62.7937L67.0513 82.2715H69.0241L73.2241 93.2203H73.2193ZM68.9713 89.1739L67.7137 85.6747L66.4369 89.1739H68.9713Z" fill="#374451"/>
<path d="M75.7922 93.2206V82.291H78.4322V91.1806H83.1074L82.9106 93.2206H75.7922Z" fill="#374451"/>
<path d="M92.6928 82.291V84.3166H89.5296V93.2206H86.8896V84.3166H83.7168L83.8944 82.291H92.6928Z" fill="#374451"/>
<path d="M95.4241 93.2206V82.291H98.0641V86.6206H102.278V82.291H104.918V93.2206H102.278V88.6174H98.0641V93.2206H95.4241Z" fill="#374451"/>
<path d="M38.6108 105.058V98.4336H43.1372V99.6624H40.214V101.328H42.662V102.494H40.214V105.062H38.6108V105.058Z" fill="#374451"/>
<path d="M47.7163 98.2754C48.8203 98.2754 49.6603 98.6498 50.2363 99.3938C50.6827 99.9746 50.9035 100.757 50.9035 101.736C50.9035 102.811 50.6347 103.651 50.0923 104.251C49.5211 104.885 48.7291 105.197 47.7163 105.197C46.6123 105.197 45.7771 104.823 45.2011 104.079C44.9419 103.738 44.7595 103.344 44.6539 102.893C44.5723 102.557 44.5339 102.159 44.5339 101.698C44.5339 100.647 44.8027 99.821 45.3451 99.2258C45.9115 98.5922 46.7035 98.2802 47.7163 98.2802V98.2754ZM47.7211 99.413C47.1835 99.413 46.7899 99.6098 46.5451 99.9938C46.3243 100.349 46.2139 100.915 46.2139 101.703C46.2139 102.591 46.3435 103.215 46.6075 103.565C46.8523 103.891 47.2219 104.055 47.7115 104.055C48.2491 104.055 48.6427 103.858 48.8875 103.474C49.1083 103.119 49.2187 102.543 49.2187 101.736C49.2187 100.863 49.0891 100.253 48.8203 99.9074C48.5755 99.581 48.2059 99.4178 47.7163 99.4178L47.7211 99.413Z" fill="#374451"/>
<path d="M52.55 98.4334H54.182V102.542C54.182 103.003 54.2588 103.344 54.4124 103.56C54.6092 103.843 54.9692 103.982 55.478 103.982C55.9868 103.982 56.3228 103.829 56.5196 103.521C56.6588 103.305 56.7308 102.998 56.7308 102.6V98.4286H58.1372V102.533C58.1372 103.214 58.0076 103.761 57.7436 104.165C57.302 104.846 56.5052 105.187 55.3484 105.187C54.134 105.187 53.3084 104.822 52.886 104.088C52.6652 103.713 52.55 103.195 52.55 102.542V98.4238V98.4334Z" fill="#374451"/>
<path d="M60.1006 105.058V98.4336H61.4542L64.3774 102.269V98.4336H65.7166V105.058H64.6654L61.4398 100.829V105.058H60.1006Z" fill="#374451"/>
<path d="M67.79 105.058V98.4336H70.3916C71.294 98.4336 72.0092 98.6544 72.5372 99.0912C73.1852 99.6288 73.5068 100.502 73.5068 101.717C73.5068 102.931 73.1756 103.819 72.518 104.376C71.9756 104.832 71.2508 105.058 70.3484 105.058H67.79ZM69.3932 103.872H70.2908C70.8284 103.872 71.2268 103.709 71.4716 103.378C71.6156 103.19 71.7164 102.955 71.774 102.672C71.822 102.418 71.846 102.106 71.846 101.731C71.846 100.944 71.7212 100.387 71.4668 100.066C71.2268 99.7632 70.8332 99.6096 70.286 99.6096H69.3884V103.867L69.3932 103.872Z" fill="#374451"/>
<path d="M80.7117 105.057H79.0269L78.5085 103.651H76.2285L75.7197 105.057H74.3901L76.9725 98.4189H78.1677L80.7117 105.057ZM78.1341 102.605L77.3757 100.483L76.6029 102.605H78.1389H78.1341Z" fill="#374451"/>
<path d="M86.4765 98.4336V99.6624H84.5613V105.058H82.9581V99.6624H81.0381L81.1437 98.4336H86.4765Z" fill="#374451"/>
<path d="M88.1516 105.058V98.4336H89.7548V105.058H88.1516Z" fill="#374451"/>
<path d="M94.6941 98.2754C95.7981 98.2754 96.6381 98.6498 97.2141 99.3938C97.6605 99.9746 97.8813 100.757 97.8813 101.736C97.8813 102.811 97.6125 103.651 97.0701 104.251C96.4989 104.885 95.7069 105.197 94.6941 105.197C93.5901 105.197 92.7549 104.823 92.1789 104.079C91.9197 103.738 91.7373 103.344 91.6317 102.893C91.5501 102.557 91.5117 102.159 91.5117 101.698C91.5117 100.647 91.7805 99.821 92.3229 99.2258C92.8893 98.5922 93.6813 98.2802 94.6941 98.2802V98.2754ZM94.6989 99.413C94.1613 99.413 93.7677 99.6098 93.5229 99.9938C93.3021 100.349 93.1917 100.915 93.1917 101.703C93.1917 102.591 93.3213 103.215 93.5853 103.565C93.8301 103.891 94.1997 104.055 94.6893 104.055C95.2269 104.055 95.6205 103.858 95.8653 103.474C96.0861 103.119 96.1965 102.543 96.1965 101.736C96.1965 100.863 96.0669 100.253 95.7981 99.9074C95.5533 99.581 95.1837 99.4178 94.6941 99.4178L94.6989 99.413Z" fill="#374451"/>
<path d="M99.6333 105.058V98.4336H100.987L103.91 102.269V98.4336H105.249V105.058H104.198L100.972 100.829V105.058H99.6333Z" fill="#374451"/>
</svg>
