<svg width="144" height="144" viewBox="0 0 144 144" fill="none" xmlns="http://www.w3.org/2000/svg">
<path d="M71.4189 41.2376C69.3501 45.0824 58.9389 47.4152 63.1533 53.2232C67.3869 59.0552 74.3181 50.156 76.9437 50.7224C81.5325 55.4792 88.6077 59.4776 91.5501 65.3576C89.3181 71.852 83.7501 62.6888 81.0525 61.2344C80.2173 60.7832 78.8733 60.6872 79.2621 61.9016C79.6845 63.2216 90.9981 70.244 85.4925 71.9816C82.6557 72.8792 78.6573 66.2024 75.9789 65.2136L75.6957 66.044C76.6893 67.9064 85.5885 73.2584 80.8989 75.3752C78.3165 76.5416 76.0221 71.8616 73.6317 71.2808C73.2141 73.0952 76.0317 74.4296 76.1037 76.124C76.2621 80.0024 70.1565 78.7976 70.1181 77.1656C70.0653 74.8616 76.5309 73.5704 71.3709 68.4488C70.4541 67.5416 69.7389 66.7784 68.9133 65.9384C66.7149 63.692 66.2493 64.4168 64.8045 63.4328C64.4877 63.2168 64.2717 61.6616 63.1485 60.956C61.7853 60.0968 60.3117 60.5672 59.4861 60.2072C58.9533 59.9768 58.8045 58.9352 58.0173 58.3688C53.0733 54.788 51.8973 60.7352 50.4525 60.3992C49.0749 58.7576 42.7917 55.1288 42.4749 53.516C41.6973 49.5608 43.7853 42.9128 45.5517 39.332C54.2061 43.9016 62.1789 42.6248 71.4285 41.2376H71.4189Z" fill="#0071BC"/>
<path d="M97.5262 39.0723C100.809 43.1475 101.822 48.8931 101.688 54.0003L92.3758 60.9699C90.235 61.3203 79.5742 49.0371 77.2846 48.4515C74.8894 47.8371 69.0238 55.2531 64.987 52.7715C60.9502 50.2899 69.9935 44.7411 72.1679 43.4979C78.0047 40.1523 77.9134 42.2403 83.6974 42.6099C89.3422 42.9651 92.7214 41.8707 97.5262 39.0723Z" fill="#0071BC"/>
<path d="M62.7933 62.544C64.7565 64.5504 57.7149 70.6656 56.3949 70.7472C50.0061 71.136 59.6109 59.2896 62.7933 62.544Z" fill="#0071BC"/>
<path d="M65.5341 65.29C72.2397 66.226 62.5917 74.866 60.6861 74.17C56.1645 72.5236 63.9261 66.4804 65.5341 65.29Z" fill="#0071BC"/>
<path d="M56.9902 59.5298C59.0878 61.7234 52.9822 66.8786 51.715 66.8834C45.7774 66.9074 54.091 56.4962 56.9902 59.5298Z" fill="#0071BC"/>
<path d="M71.3423 70.2578C73.3775 72.245 67.5455 77.4242 66.3551 77.3474L64.3967 75.4562C64.3007 74.5442 69.8639 67.565 71.3423 70.2578Z" fill="#0071BC"/>
<path d="M44.467 92.6834V90.8114C43.747 90.9218 43.0174 90.9986 42.2974 91.061L41.827 89.7362C44.2318 89.549 46.1662 89.1602 47.6446 88.5986L48.3454 89.8322C47.5486 90.1106 46.7374 90.365 45.8974 90.5522V92.6882H48.4414V94.0754H45.8974V94.6994C46.771 95.4626 47.659 96.3218 48.5662 97.2722L47.6926 98.5538C46.9918 97.5554 46.3966 96.7586 45.8974 96.1346V102.763H44.4622V96.4466C43.8382 97.757 43.027 98.957 42.0622 100.051L41.4238 98.429C42.7966 97.181 43.8094 95.7458 44.467 94.1522V94.0754H41.8606V92.6882H44.467V92.6834ZM55.1662 102.259H53.731V101.122H50.347V102.447H48.9262V89.453H55.1662V102.259ZM53.731 99.7202V90.845H50.347V99.7202H53.731Z" fill="black"/>
<path d="M57.3359 96.2881L56.8511 94.6993C58.2863 92.8897 59.3615 90.7681 60.0671 88.3633L61.4543 89.0161C61.0943 90.1729 60.6431 91.2961 60.0815 92.3713V102.95H58.6319V94.6993C58.2287 95.2273 57.8063 95.7601 57.3359 96.2881ZM65.7455 90.4033C65.5439 89.8753 65.3087 89.3569 65.0447 88.8577L66.4655 88.4689C66.7919 89.1697 67.0415 89.8081 67.2143 90.4033H71.4287V91.7905H61.1807V90.4033H65.7503H65.7455ZM70.4255 102.917H68.9903V102.106H63.6863V102.917H62.2511V97.2673H70.4255V102.917ZM70.0991 92.7457V94.0705H62.5967V92.7457H70.0991ZM70.0991 94.9441V96.2833H62.5967V94.9441H70.0991ZM68.9903 100.718V98.6449H63.6863V100.718H68.9903Z" fill="black"/>
<path d="M78.3165 89.5774C77.2077 92.6974 75.7581 95.083 73.9485 96.7534L72.7773 95.7406C74.6493 94.0558 76.0221 91.8094 76.9293 89.0158L78.3165 89.5774ZM85.6365 102.293L84.2493 102.917C84.0285 102.384 83.8269 101.904 83.6109 101.453C80.8941 101.856 77.8701 102.168 74.5485 102.389L74.2845 100.953C75.3933 100.593 76.9389 98.2078 78.9165 93.7918L80.3853 94.291C79.1373 96.9262 77.8557 99.1294 76.5789 100.877C78.7965 100.737 80.9325 100.502 83.0061 100.19C82.4733 99.1582 81.9453 98.2078 81.3981 97.3678L82.7373 96.931C83.8605 98.6158 84.8253 100.392 85.6413 102.297L85.6365 102.293ZM83.2173 88.9678C83.7501 91.7134 85.0125 93.9262 86.9757 95.6446L85.8045 96.691C83.9613 95.0062 82.7325 92.8846 82.0893 90.355H79.5933V88.9678H83.2125H83.2173Z" fill="black"/>
<path d="M96.9601 94.0084L97.7233 92.8564C99.4705 93.6532 101.064 94.6036 102.499 95.7268L101.659 97.0228C101.27 96.7108 100.896 96.4132 100.55 96.1492V101.05H102.36V102.471H88.4593V101.05H90.3793V96.3364C89.9089 96.586 89.4289 96.8068 88.9585 97.0084L88.3201 95.6356C90.2401 94.9156 91.8145 93.9796 93.0337 92.8132L93.9697 93.874C93.0625 94.714 92.0209 95.4676 90.8497 96.106H100.493C99.3361 95.266 98.1505 94.5604 96.9649 94.0132L96.9601 94.0084ZM92.4385 91.138C91.9873 90.5284 91.4257 89.89 90.7537 89.2036L91.9729 88.4404C92.7985 89.2804 93.4369 90.0148 93.8737 90.6388L93.1537 91.138H96.9457C97.5217 90.2932 98.0209 89.4052 98.4577 88.4692L99.8929 88.9684C99.4897 89.7796 99.0529 90.514 98.5681 91.138H102.034V92.5732H88.7905V91.138H92.4385ZM93.2929 101.045V97.5028H91.7953V101.045H93.2929ZM96.2257 101.045V97.5028H94.6657V101.045H96.2257ZM99.1153 101.045V97.5028H97.6033V101.045H99.1153Z" fill="black"/>
</svg>
