<svg width="144" height="144" viewBox="0 0 144 144" fill="none" xmlns="http://www.w3.org/2000/svg">
<path d="M91.5984 43.109C85.2672 45.0002 84.4991 39.773 79.4591 37.733C60.2831 29.9666 47.6831 57.0146 66.0431 66.4082C70.3583 59.9426 76.7855 54.677 84.3263 52.4546C76.5887 52.9874 69.2256 57.653 64.7328 63.8738C62.2512 58.6178 65.4671 52.2098 69.8159 48.9794C76.3775 44.1122 84.5808 45.293 92.2512 45.701C99.8256 70.5026 63.3072 83.8322 52.8768 60.4178C41.2416 34.301 79.8528 17.7122 91.5936 43.109H91.5984Z" fill="#39B54A"/>
<path d="M56.5343 82.2722L55.9583 84.7202H55.7231C55.1711 84.4178 54.6767 84.2018 54.2447 84.0722C53.8127 83.9426 53.3519 83.8754 52.8671 83.8754C52.2575 83.8754 51.7727 83.9858 51.4127 84.2066C51.0527 84.4274 50.7839 84.7874 50.6111 85.2962C50.4383 85.805 50.3519 86.4962 50.3519 87.3746C50.3519 88.253 50.4383 88.9202 50.6063 89.4098C50.7743 89.8994 51.0431 90.2498 51.4079 90.4658C51.7727 90.6818 52.2767 90.7874 52.9199 90.7874C53.2367 90.7874 53.6015 90.7298 54.0191 90.6194L54.0383 89.861L53.9855 88.0898L56.5007 87.9026L56.4671 89.405L56.4863 92.1938C55.1471 92.669 53.8799 92.9042 52.6847 92.9042C50.9615 92.9042 49.6655 92.4386 48.8015 91.5122C47.9327 90.581 47.5007 89.2514 47.5007 87.5186C47.5007 85.6274 48.0095 84.1826 49.0223 83.1842C50.0351 82.1858 51.4895 81.6914 53.3807 81.6914C54.5951 81.6914 55.6511 81.8882 56.5391 82.2818L56.5343 82.2722Z" fill="#009245"/>
<path d="M67.2286 92.0883L67.195 92.3907C66.3406 92.6739 65.4334 92.8467 64.4734 92.9139L64.2046 92.6931C63.5278 91.4307 62.9422 90.2787 62.4478 89.2323H61.0126L61.1134 92.7267H58.3582L58.5118 89.5011L58.3582 81.8307L62.9518 81.8115C64.1326 81.8115 65.0446 82.0947 65.6782 82.6659C66.3118 83.2371 66.6334 84.0483 66.6334 85.1043C66.6334 85.7667 66.4654 86.3859 66.1246 86.9619C65.7886 87.5379 65.3086 88.0227 64.6894 88.4163C65.6254 89.8707 66.4702 91.0899 67.2238 92.0835L67.2286 92.0883ZM61.0606 87.1731L62.5294 87.2403C62.947 87.0819 63.2542 86.8515 63.451 86.5491C63.6478 86.2467 63.7486 85.8483 63.7486 85.3683C63.7486 84.8403 63.6094 84.4467 63.3358 84.1923C63.0574 83.9379 62.6302 83.7987 62.0446 83.7795L61.1326 83.8323L61.0654 87.1779L61.0606 87.1731Z" fill="#009245"/>
<path d="M75.8256 90.4989L75.9792 90.7005L75.8112 92.7261H68.616L68.7696 89.5005L68.616 81.8301H75.912L76.0656 82.0317L75.8784 84.0573L73.2288 83.9565L71.3712 83.9757L71.3376 86.1549H73.1088L74.8848 86.1021L75.0384 86.3037L74.8704 88.3293L72.9264 88.2765H71.2896L71.2704 89.2221L71.304 90.5757L73.0944 90.5949L75.8304 90.4941L75.8256 90.4989Z" fill="#009245"/>
<path d="M84.6429 90.4989L84.7965 90.7005L84.6285 92.7261H77.4333L77.5869 89.5005L77.4333 81.8301H84.7293L84.8829 82.0317L84.6957 84.0573L82.0461 83.9565L80.1885 83.9757L80.1549 86.1549H81.9261L83.7021 86.1021L83.8557 86.3037L83.6877 88.3293L81.7437 88.2765H80.1069L80.0877 89.2221L80.1213 90.5757L81.9117 90.5949L84.6477 90.4941L84.6429 90.4989Z" fill="#009245"/>
<path d="M95.5723 89.2797L95.6731 92.7261H92.7019L88.8331 85.9869H88.6651L88.6459 88.8909L88.7467 92.7261H86.2651L86.3995 89.5149L86.2651 81.8301H89.2219L93.1051 88.5693H93.2731L93.2059 81.9309L95.7211 81.7773L95.5675 89.2749L95.5723 89.2797Z" fill="#009245"/>
<path d="M55.4877 106.483L55.6413 106.685L55.4733 108.71H48.2781L48.4317 105.485L48.2781 97.8145H55.5741L55.7277 98.0161L55.5405 100.042L52.8909 99.9409L51.0333 99.9601L50.9997 102.139H52.7709L54.5469 102.086L54.7005 102.288L54.5325 104.314L52.5885 104.261H50.9517L50.9325 105.206L50.9661 106.56L52.7565 106.579L55.4925 106.478L55.4877 106.483Z" fill="#009245"/>
<path d="M66.0096 108.71H63.2208L62.9327 107.141L62.7791 106.517L60.8207 106.483L59.1311 106.536L58.9967 106.973L58.6943 108.71H56.0063L59.5199 97.8145H62.8127L66.0047 108.71H66.0096ZM62.2608 104.453L61.1951 100.315H61.0271L59.7599 104.453L61.0079 104.486L62.2559 104.453H62.2608Z" fill="#009245"/>
<path d="M76.2813 108.067L76.2477 108.369C75.3933 108.652 74.4861 108.825 73.5261 108.892L73.2573 108.672C72.5805 107.409 71.9949 106.257 71.5005 105.211H70.0653L70.1661 108.705H67.4109L67.5645 105.48L67.4109 97.8092L72.0045 97.79C73.1853 97.79 74.0973 98.0732 74.7309 98.6444C75.3645 99.2156 75.6861 100.027 75.6861 101.083C75.6861 101.745 75.5181 102.364 75.1773 102.94C74.8413 103.516 74.3613 104.001 73.7421 104.395C74.6781 105.849 75.5229 107.068 76.2765 108.062L76.2813 108.067ZM70.1181 103.152L71.5869 103.219C72.0045 103.06 72.3117 102.83 72.5085 102.528C72.7053 102.225 72.8061 101.827 72.8061 101.347C72.8061 100.819 72.6669 100.425 72.3933 100.171C72.1149 99.9164 71.6877 99.7772 71.1021 99.758L70.1901 99.8108L70.1229 103.156L70.1181 103.152Z" fill="#009245"/>
<path d="M84.5902 98.016L84.4366 100.027L82.3102 99.9264H81.835L81.7486 105.211L81.8494 108.706H79.1134L79.267 105.48L79.1806 99.9216H78.6718L76.5261 100.022L76.3582 99.8208L76.5261 97.8096H84.4318L84.5854 98.0112L84.5902 98.016Z" fill="#009245"/>
<path d="M95.2844 105.216L95.3852 108.71H92.6492L92.7836 105.485L92.7644 104.386L90.5708 104.366L88.6268 104.419L88.6076 105.211L88.7084 108.706H85.9724L86.1068 105.48L85.9724 97.8096H88.742L88.6556 102.149L90.734 102.182L92.726 102.149L92.6396 97.8096H95.4284L95.2748 105.206L95.2844 105.216Z" fill="#009245"/>
</svg>
