<svg width="144" height="144" viewBox="0 0 144 144" fill="none" xmlns="http://www.w3.org/2000/svg">
<path d="M74.2993 91.9347L74.7649 88.0275L92.4001 69.7635L74.5825 51.6867L74.7361 47.6787L83.8129 48.1827L105.355 69.7635L83.9473 91.9347H74.2993Z" fill="#004ABC"/>
<path d="M69.6047 47.8994H60.8591V56.3426H69.6047V47.8994Z" fill="#29CEE2"/>
<path d="M69.6047 83.333H60.8591V91.7762H69.6047V83.333Z" fill="#29CEE2"/>
<path d="M70.512 64.7904V58.7568H75.792L76.2432 59.208V64.3344L75.792 64.7904H70.512Z" fill="#29CEE2"/>
<path d="M82.877 67.1999V72.6287H77.1458V67.3487C77.5394 66.6767 77.7745 67.1999 77.8993 67.1999H82.877Z" fill="#29CEE2"/>
<path d="M75.6385 74.7412H70.2097V80.17H75.6385V74.7412Z" fill="#29CEE2"/>
<path d="M41.1124 48.5283L39.2452 48.5715V47.4867L41.1124 47.5299H42.1252V47.2611C42.1252 46.9491 42.082 46.5603 41.9956 46.2195C43.5508 46.3491 43.7812 46.3923 43.7812 46.6611C43.7812 46.8051 43.6516 46.8867 43.3252 46.9731V47.5299H44.4244L46.1524 47.4867V48.5715L44.4244 48.5283H43.3252V49.6563L43.8532 48.9267C44.5252 49.2531 45.25 49.6995 45.85 50.1555L45.1492 51.1251C44.5348 50.5539 43.978 50.1843 43.3252 49.8147V51.3555L43.3828 53.3523H42.0724L42.1732 49.6707C41.5444 50.6403 40.7044 51.4515 39.706 52.2243C39.5188 51.8691 39.2932 51.6531 38.9236 51.3267C40.0372 50.5539 40.9492 49.7283 41.7076 48.5283H41.122H41.1124ZM43.138 44.9715C43.2964 44.4723 43.4212 43.9731 43.4932 43.4883C43.5364 43.1763 43.5508 43.0467 43.5652 42.7491C44.866 43.0323 45.0916 43.1187 45.0916 43.3059C45.0916 43.4787 44.9908 43.5219 44.6788 43.5747C44.578 44.0163 44.434 44.5011 44.2804 44.9715H44.3956L46.2484 44.9283V46.0275L44.3956 45.9843H41.0692L39.202 46.0275V44.9283L41.0692 44.9715H43.138ZM42.1684 41.1939C42.1684 40.8819 42.1252 40.5651 42.0388 40.1523C43.6228 40.2387 43.8244 40.2819 43.8244 40.5507C43.8244 40.6947 43.6948 40.7667 43.3684 40.8483V41.6883H44.1508L46.0036 41.6451V42.7443L44.1508 42.7011H41.4388L39.5716 42.7443V41.6451L41.4388 41.6883H42.1684V41.1891V41.1939ZM41.626 42.7923C41.8852 43.4211 42.082 43.9491 42.2116 44.5731L41.1124 44.9571C40.9972 44.3283 40.8292 43.8003 40.57 43.1571L41.626 42.7875V42.7923ZM50.6308 44.7459L52.498 44.6883V45.8883L50.9284 45.8451V51.0243L50.986 53.3235H49.6324L49.69 51.0243V45.8307H48.0484V47.5155C48.0484 50.3811 47.362 52.0227 45.6532 53.2083C45.4228 52.8963 45.1108 52.6371 44.7268 52.3539C46.1956 51.4563 46.8244 50.1699 46.8244 47.3187V42.9267C46.8244 42.0291 46.81 41.8707 46.6948 41.0835C47.0788 41.1843 47.4916 41.3139 47.866 41.4675C48.8212 41.2659 49.5508 41.0547 50.2756 40.8099C50.6596 40.6803 50.8468 40.6083 51.202 40.4259C52.0852 41.2083 52.1572 41.2947 52.1572 41.5251C52.1572 41.6691 52.0852 41.7267 51.8596 41.7267C51.7588 41.7267 51.6148 41.7123 51.4468 41.6979C50.146 42.0531 49.1332 42.3123 48.0532 42.5091V44.7507H50.6356L50.6308 44.7459Z" fill="#004ABC"/>
<path d="M41.4965 65.5785C41.2373 66.7641 40.7285 67.6473 39.8261 68.5161C39.5957 68.2041 39.3269 67.9737 38.9429 67.7337C40.3397 66.4665 40.5557 65.0937 40.5557 62.7993V62.0841L40.4981 60.7977L40.5557 60.7401L42.2693 60.7977H44.7221L46.4213 60.7545L46.4933 60.8121L46.4501 62.0985V63.6105L46.4933 64.8393L46.4357 64.9401L44.7221 64.8969H41.6261C41.5829 65.1225 41.5541 65.3385 41.4965 65.5545L41.5685 65.4825L43.2533 65.5401H44.8949L46.6085 65.4825L46.6805 65.5689L46.6229 66.6969V67.2393L46.6805 69.0489H45.4229V68.4921H42.7109V69.1065H41.4677L41.5253 67.3257V66.6969L41.4965 65.5833V65.5785ZM43.9637 56.7033C45.1781 57.3321 46.0613 57.8745 47.1173 58.7001L46.2485 59.6841C45.3653 58.9449 44.4389 58.2009 43.3973 57.5721C42.9557 58.1721 42.4565 58.7001 41.9141 59.1993L42.9701 59.2281H44.0261L45.4805 59.1849V60.1977L44.0261 60.1545H42.9701L41.5157 60.1977V59.5257C40.9733 59.9529 40.3877 60.3273 39.7733 60.6537C39.5573 60.2985 39.3173 59.9817 38.9909 59.7273C40.6469 58.8873 41.8997 57.7017 42.5429 56.6313C42.6869 56.3865 42.8117 56.1177 42.9125 55.8057C44.2517 56.1897 44.3957 56.2473 44.3957 56.4345C44.3957 56.5785 44.2661 56.6217 43.9829 56.6793L43.9685 56.7081L43.9637 56.7033ZM41.7413 63.2553C41.7269 63.4953 41.7269 63.7401 41.7125 63.9849H45.2789V63.2553H41.7413ZM45.2789 62.3961V61.6953H41.7413V62.3961H45.2789ZM45.4229 66.4761H42.7109V67.5177H45.4229V66.4761ZM48.9749 63.5529L49.0325 65.8521H47.6645L47.7221 63.5529V59.1177C47.7221 58.6185 47.7077 58.4745 47.6069 57.8313C49.1045 57.8889 49.4069 57.9753 49.4069 58.1865C49.4069 58.3161 49.3061 58.4025 48.9797 58.4841V63.5481L48.9749 63.5529ZM51.6725 65.3529L51.7301 67.4361C51.7301 68.6937 51.4181 69.0201 50.0309 69.0201H49.1621C49.0613 68.6217 48.8645 68.0937 48.5477 67.6377C49.1765 67.6953 49.6613 67.7097 50.0021 67.7097C50.2997 67.7097 50.4005 67.6521 50.4005 67.4505V57.7641C50.4005 57.2649 50.3861 57.1209 50.2997 56.4825C51.7973 56.5257 52.1237 56.5977 52.1237 56.8233C52.1237 56.9673 51.9797 57.0489 51.6677 57.1209V65.3529H51.6725Z" fill="#004ABC"/>
<path d="M42.4659 72.8309C42.4659 72.3317 42.4227 72.0485 42.3507 71.7461C43.7763 71.8469 43.9923 71.8757 43.9923 72.1013C43.9923 72.2453 43.8627 72.3173 43.5795 72.3893V73.0037H44.3619L46.1715 72.9317L46.2291 73.0037L46.1715 74.5301V74.5589L47.2275 74.5157V75.5717L46.1715 75.5285V75.6869L46.2291 77.0981L46.1715 77.1701L44.3619 77.1125H43.5795V77.7269H44.4771L46.1331 77.6549L46.2051 77.7269L46.1475 78.6533V79.1093L46.2051 80.0645L46.1331 80.1365L44.4771 80.0789H42.6243C43.3827 80.2805 43.4499 80.3621 43.4499 80.4773C43.4499 80.5925 43.3923 80.6645 42.9939 80.7029C42.9651 80.7749 42.9219 80.8469 42.8931 80.9045C44.3043 80.8901 45.8595 80.8325 47.1891 80.7461C47.1171 81.0053 47.0595 81.3749 47.0451 81.6437C46.5747 81.6725 46.0755 81.6869 45.5619 81.7157C45.3603 82.2581 45.1059 82.7717 44.7363 83.2277C45.1491 83.3861 45.5763 83.5685 46.0323 83.7701L45.4035 84.7253C44.9043 84.4565 44.4195 84.2117 43.9635 83.9957C43.1523 84.5957 41.9811 84.8789 39.8547 84.9509C39.7107 84.5381 39.5715 84.2933 39.2979 83.9525C41.1363 83.9525 42.0675 83.8085 42.7635 83.4965C42.3939 83.3525 42.0195 83.2277 41.6499 83.1269C41.5491 83.2853 41.4339 83.4581 41.3379 83.6261L40.2531 83.2277C40.5795 82.7573 40.8963 82.3013 41.1795 81.8309C40.7235 81.8309 40.2819 81.8453 39.8547 81.8453C39.8259 82.0469 39.7395 82.1717 39.6147 82.1717C39.4707 82.1717 39.3459 82.0133 39.1155 80.8613C39.4851 80.9045 39.7731 80.9189 40.2723 80.9189C40.6851 80.9189 41.1555 80.9333 41.6691 80.9189C41.7267 80.8325 41.7699 80.7461 41.8131 80.6453C41.8563 80.5589 41.9571 80.3477 42.0291 80.0741H41.6739L40.0323 80.1317L39.9603 80.0885L40.0179 79.1189V78.6485L39.9603 77.7221L40.0179 77.6501L41.6883 77.7221H42.4707V77.1077H41.8131L40.0275 77.1653L39.9411 77.1221L40.0131 75.6821V75.5381L39.1587 75.5813V74.4965L40.0131 74.5397L39.9555 72.9989L40.0131 72.9269L41.8227 72.9989H42.4659V72.8261V72.8309ZM41.1123 78.5237V79.2773H42.4659V78.5237H41.1123ZM41.1267 73.8437V74.6261H42.4659V73.8437H41.1267ZM41.1267 75.4565V76.2677H42.4659V75.4565H41.1267ZM42.4227 81.8021C42.3219 81.9893 42.2067 82.1861 42.1107 82.3733C42.6387 82.5173 43.1667 82.6565 43.6803 82.8437C43.9779 82.5173 44.2227 82.1573 44.3811 81.7589L42.4275 81.8021H42.4227ZM45.0483 74.6261V73.8437H43.5795V74.6261H45.0483ZM43.5795 76.2677H45.0483V75.4565H43.5795V76.2677ZM45.0339 79.2773V78.5237H43.5795V79.2773H45.0339ZM51.5859 76.0133C51.4851 77.3813 51.3699 78.7541 51.0579 80.0933C50.8995 80.7653 50.6739 81.4037 50.3571 82.0037C50.9139 82.7045 51.6963 83.2901 52.6707 83.7893C52.3299 84.0725 52.0419 84.4325 51.7731 84.8885C50.8467 84.3029 50.1747 83.7317 49.6323 83.0789C48.9747 83.8613 48.1347 84.4757 47.0067 85.0037C46.7763 84.6341 46.5219 84.3317 46.1667 84.0773C47.4243 83.4917 48.2931 82.8341 48.9219 81.9941C48.1923 80.5973 47.8803 78.9989 47.7651 77.4293C47.5923 77.7557 47.4099 78.0725 47.2083 78.3845C46.9251 78.0581 46.6659 77.8565 46.2819 77.6837C47.1363 76.3733 47.8083 74.8421 48.3507 72.8309C48.4515 72.4469 48.5091 72.1157 48.5235 71.7605C49.8483 72.1157 50.1507 72.2741 50.1507 72.4757C50.1507 72.6341 50.0211 72.7205 49.6515 72.7349C49.4643 73.4645 49.2387 74.1605 48.9651 74.8757H50.4195L52.4307 74.8181V76.0469L51.5907 76.0181L51.5859 76.0133ZM48.7875 75.9845C48.8307 77.0549 48.9027 78.1253 49.1139 79.1669C49.2147 79.7237 49.3827 80.2661 49.6131 80.7797C49.8579 80.2085 49.9971 79.5941 50.1123 78.9701C50.2851 77.9861 50.3667 76.9877 50.4243 75.9893H48.7827L48.7875 75.9845Z" fill="#004ABC"/>
<path d="M40.81 93.9655C40.5412 94.6231 40.2532 95.2663 39.8404 96.0487C39.5284 95.7079 39.2404 95.5207 38.8564 95.3335C39.898 93.5095 40.4836 91.8535 41.026 89.3527C41.1988 88.5271 41.242 88.1959 41.2564 87.5527C42.8548 88.0231 43.0564 88.1095 43.0564 88.3255C43.0564 88.5559 42.97 88.6135 42.514 88.6519C42.202 89.9527 41.9284 90.9799 41.6452 91.8775C42.3604 91.9927 42.442 92.0935 42.442 92.2327C42.442 92.3719 42.3268 92.4343 41.986 92.5879V100.863H40.6756L40.7332 98.5639V95.8951L40.8196 93.9559L40.81 93.9655ZM50.1556 99.0439L52.4548 98.9863V100.23L50.1556 100.172H44.722L42.4372 100.23V98.9863L44.722 99.0439H47.7028C48.2884 96.3319 48.6004 94.6087 48.7156 93.6775C48.802 92.9479 48.8308 92.5927 48.8308 92.1511C50.4004 92.4775 50.6548 92.5783 50.6548 92.7943C50.6548 93.0103 50.5252 93.0631 50.17 93.1351C49.8004 95.1175 49.4692 96.6151 48.898 99.0439H50.1556ZM46.5316 88.7575C46.5316 88.4455 46.5316 88.3447 46.402 87.7159C48.058 87.8455 48.2692 87.8887 48.2692 88.1575C48.2692 88.3015 48.1396 88.3735 47.8132 88.4551V90.3943H49.6228L51.9076 90.3367V91.5799L49.6228 91.5223H45.226L42.9412 91.5799V90.3367L45.226 90.3943H46.5268V88.7527L46.5316 88.7575ZM45.1492 92.5927C45.778 94.2631 46.2628 95.8999 46.618 97.8151L45.322 98.2135C44.938 96.1159 44.5204 94.6327 43.882 92.9623L45.154 92.5927H45.1492Z" fill="#004ABC"/>
</svg>
