<svg width="1920" height="360" viewBox="0 0 1920 360" fill="none" xmlns="http://www.w3.org/2000/svg">
<g clip-path="url(#clip0_27205_3652)">
<path d="M1640.81 0.0722656L1645.57 0.291016L1650.3 0.65332L1655.04 1.15723L1659.8 1.80176L1664.53 2.57812L1669.28 3.48633L1674 4.51465L1678.78 5.67285L1683.55 6.94043L1688.29 8.30273L1693.06 9.76953L1697.84 11.3252L1702.62 12.959L1707.41 14.6621L1712.22 16.4307L1717 18.2305L1721.81 20.0791L1726.61 21.9473L1736.23 25.7109L1736.24 25.7129L1741.05 27.584L1741.06 27.5879L1745.87 29.4365C1745.87 29.4384 1745.88 29.4406 1745.88 29.4424L1750.7 31.2559C1750.7 31.2583 1750.71 31.2603 1750.72 31.2627L1755.53 33.0312C1755.54 33.0342 1755.54 33.0372 1755.55 33.04L1760.37 34.751C1760.37 34.7544 1760.38 34.7584 1760.39 34.7617L1765.21 36.4053C1765.22 36.4091 1765.23 36.4133 1765.24 36.417L1770.05 37.9844C1770.07 37.9885 1770.08 37.9921 1770.09 37.9961L1774.9 39.4766C1774.92 39.481 1774.93 39.4851 1774.95 39.4893L1779.76 40.873C1779.78 40.8777 1779.79 40.8824 1779.81 40.8867L1784.62 42.166C1784.64 42.1707 1784.66 42.1754 1784.67 42.1797L1789.49 43.3457C1789.51 43.3503 1789.52 43.3552 1789.54 43.3594L1794.36 44.4062C1794.38 44.4107 1794.4 44.415 1794.42 44.4189L1799.23 45.3398C1799.25 45.344 1799.27 45.348 1799.29 45.3516L1804.11 46.1406C1804.13 46.1444 1804.15 46.1473 1804.18 46.1504L1808.99 46.8027C1809.01 46.8059 1809.03 46.809 1809.06 46.8115L1813.87 47.3232C1813.9 47.3258 1813.92 47.3282 1813.94 47.3301L1818.76 47.6973C1818.78 47.6992 1818.81 47.701 1818.83 47.7021L1823.64 47.9238C1823.67 47.925 1823.7 47.9254 1823.72 47.9258L1828.53 48C1828.56 48.0004 1828.58 48.0004 1828.61 48L1833.42 47.9258C1833.45 47.9254 1833.47 47.925 1833.5 47.9238L1838.31 47.7021C1838.34 47.701 1838.36 47.6992 1838.39 47.6973L1843.2 47.3301C1843.22 47.3282 1843.25 47.3258 1843.27 47.3232L1848.08 46.8115C1848.11 46.809 1848.13 46.8059 1848.16 46.8027L1852.97 46.1504C1852.99 46.1473 1853.01 46.1444 1853.04 46.1406L1857.85 45.3516C1857.87 45.348 1857.89 45.344 1857.91 45.3398L1862.73 44.4189C1862.75 44.415 1862.77 44.4107 1862.79 44.4062L1867.6 43.3594C1867.62 43.3552 1867.64 43.3503 1867.66 43.3457L1872.47 42.1797C1872.49 42.1754 1872.5 42.1707 1872.52 42.166L1877.33 40.8867C1877.35 40.8824 1877.37 40.8777 1877.38 40.873L1882.19 39.4893C1882.21 39.4851 1882.22 39.481 1882.24 39.4766L1887.05 37.9961C1887.06 37.9921 1887.08 37.9886 1887.09 37.9844L1891.9 36.417C1891.91 36.4133 1891.93 36.4091 1891.94 36.4053L1896.75 34.7617C1896.76 34.7584 1896.77 34.7544 1896.78 34.751L1901.59 33.04C1901.6 33.0372 1901.61 33.0342 1901.61 33.0312L1906.43 31.2627C1906.43 31.2604 1906.44 31.2582 1906.45 31.2559L1911.26 29.4424C1911.26 29.4406 1911.27 29.4384 1911.27 29.4365L1916.08 27.5879L1916.09 27.584L1920 26.0645V480H0V23.998C0.303185 23.9981 0.61176 23.9453 0.911133 23.8281L5.71777 21.9473L10.5205 20.0791L15.332 18.2314L15.3311 18.2305L20.1094 16.4297L20.1104 16.4307L24.9219 14.6621L29.709 12.959L34.4922 11.3262L34.4912 11.3252L39.2695 9.76953L44.043 8.30273L48.7793 6.94043L53.5361 5.67578L58.3262 4.51465L63.0518 3.48633L67.8018 2.57812L72.5322 1.80176L77.2861 1.15723L82.0264 0.65332L86.7598 0.291016L91.5186 0.0722656L96.2402 0L100.962 0.0722656L105.719 0.291016L110.45 0.65332L115.194 1.15723L119.948 1.80176L124.679 2.57812L129.429 3.48633L134.153 4.51465L138.934 5.67285L143.701 6.94043L148.438 8.30273L153.211 9.76953L157.988 11.3252L162.771 12.959L167.558 14.6621L172.371 16.4307L177.148 18.2305L181.961 20.0791L186.763 21.9473L196.382 25.7109L196.387 25.7129L201.199 27.584L201.209 27.5879L206.021 29.4365C206.025 29.4383 206.03 29.4406 206.035 29.4424L210.848 31.2559C210.854 31.2583 210.861 31.2603 210.867 31.2627L215.679 33.0312C215.687 33.0342 215.696 33.0372 215.704 33.04L220.516 34.751C220.525 34.7544 220.535 34.7584 220.545 34.7617L225.357 36.4053C225.369 36.4091 225.38 36.4133 225.392 36.417L230.203 37.9844C230.216 37.9885 230.229 37.9921 230.242 37.9961L235.055 39.4766C235.069 39.481 235.084 39.4851 235.099 39.4893L239.91 40.873C239.926 40.8777 239.943 40.8824 239.959 40.8867L244.771 42.166C244.789 42.1707 244.807 42.1754 244.824 42.1797L249.637 43.3457C249.656 43.3503 249.675 43.3552 249.694 43.3594L254.506 44.4062C254.526 44.4107 254.547 44.415 254.567 44.4189L259.38 45.3398C259.401 45.344 259.424 45.348 259.445 45.3516L264.257 46.1406C264.28 46.1444 264.303 46.1473 264.326 46.1504L269.138 46.8027C269.161 46.8059 269.185 46.809 269.209 46.8115L274.021 47.3232C274.046 47.3258 274.071 47.3282 274.096 47.3301L278.907 47.6973C278.932 47.6992 278.957 47.701 278.982 47.7021L283.795 47.9238C283.82 47.925 283.846 47.9254 283.871 47.9258L288.684 48C288.709 48.0004 288.734 48.0004 288.76 48L293.572 47.9258C293.598 47.9254 293.623 47.925 293.648 47.9238L298.461 47.7021C298.486 47.701 298.511 47.6992 298.536 47.6973L303.349 47.3301C303.373 47.3282 303.398 47.3258 303.422 47.3232L308.234 46.8115C308.258 46.809 308.282 46.8059 308.306 46.8027L313.118 46.1504C313.141 46.1473 313.164 46.1443 313.187 46.1406L317.998 45.3516C318.02 45.348 318.042 45.344 318.063 45.3398L322.876 44.4189C322.896 44.415 322.917 44.4107 322.938 44.4062L327.75 43.3594C327.769 43.3553 327.788 43.3503 327.807 43.3457L332.619 42.1797C332.637 42.1754 332.654 42.1707 332.672 42.166L337.484 40.8867C337.501 40.8824 337.517 40.8777 337.533 40.873L342.345 39.4893C342.359 39.4851 342.374 39.481 342.389 39.4766L347.201 37.9961C347.214 37.9921 347.227 37.9886 347.24 37.9844L352.052 36.417C352.063 36.4133 352.076 36.4091 352.087 36.4053L356.898 34.7617C356.908 34.7584 356.918 34.7544 356.928 34.751L361.74 33.04C361.748 33.0372 361.757 33.0342 361.765 33.0312L366.576 31.2627C366.583 31.2604 366.589 31.2582 366.596 31.2559L371.408 29.4424C371.413 29.4406 371.418 29.4384 371.423 29.4365L376.234 27.5879L376.244 27.584L381.057 25.7129L381.062 25.7109L390.681 21.9473L395.482 20.0791L400.294 18.2305L405.071 16.4297L405.072 16.4307L409.885 14.6621L414.672 12.96L414.671 12.959L419.454 11.3252L424.232 9.77051L424.231 9.76953L429.006 8.30273L433.741 6.94043L438.509 5.67285L443.289 4.51465L448.014 3.48633L452.764 2.57812L457.494 1.80176L462.253 1.15723L466.992 0.65332L471.723 0.291016L476.479 0.0722656L481.203 0L485.926 0.0722656L490.683 0.291016L495.416 0.65332L500.156 1.15723L504.905 1.80078L509.641 2.57812L514.391 3.48633L519.116 4.51465L523.906 5.67578L528.681 6.94531L533.399 8.30273L538.173 9.76953L542.951 11.3252L547.733 12.959L552.521 14.6621L557.333 16.4297L562.111 18.2305L566.923 20.0791L571.726 21.9473L581.345 25.7109L581.35 25.7129L586.161 27.584L586.171 27.5879L590.983 29.4365C590.988 29.4384 590.993 29.4406 590.998 29.4424L595.81 31.2559C595.816 31.2582 595.823 31.2604 595.829 31.2627L600.642 33.0312C600.65 33.0342 600.658 33.0372 600.666 33.04L605.479 34.751C605.488 34.7544 605.498 34.7584 605.508 34.7617L610.319 36.4053C610.331 36.4091 610.342 36.4133 610.354 36.417L615.166 37.9844C615.179 37.9885 615.192 37.9921 615.205 37.9961L620.017 39.4766C620.031 39.481 620.046 39.4851 620.061 39.4893L624.873 40.873C624.889 40.8777 624.906 40.8824 624.922 40.8867L629.733 42.166C629.751 42.1707 629.769 42.1754 629.787 42.1797L634.599 43.3457C634.618 43.3503 634.637 43.3552 634.656 43.3594L639.469 44.4062C639.489 44.4107 639.51 44.415 639.53 44.4189L644.342 45.3398C644.363 45.344 644.386 45.348 644.407 45.3516L649.22 46.1406C649.242 46.1443 649.265 46.1473 649.288 46.1504L654.101 46.8027C654.124 46.8059 654.148 46.809 654.172 46.8115L658.983 47.3232C659.008 47.3258 659.033 47.3282 659.058 47.3301L663.87 47.6973C663.895 47.6992 663.92 47.701 663.945 47.7021L668.757 47.9238C668.782 47.925 668.809 47.9254 668.834 47.9258L673.646 48C673.671 48.0004 673.697 48.0004 673.723 48L678.534 47.9258C678.56 47.9254 678.586 47.925 678.611 47.9238L683.423 47.7021C683.448 47.701 683.474 47.6992 683.499 47.6973L688.311 47.3301C688.335 47.3282 688.36 47.3258 688.385 47.3232L693.196 46.8115C693.22 46.809 693.245 46.8059 693.269 46.8027L698.08 46.1504C698.103 46.1473 698.126 46.1443 698.148 46.1406L702.961 45.3516C702.983 45.348 703.005 45.344 703.026 45.3398L707.838 44.4189C707.858 44.415 707.879 44.4107 707.899 44.4062L712.712 43.3594C712.731 43.3552 712.75 43.3503 712.77 43.3457L717.581 42.1797C717.599 42.1754 717.617 42.1707 717.635 42.166L722.446 40.8867C722.462 40.8824 722.479 40.8777 722.495 40.873L727.308 39.4893C727.322 39.4851 727.337 39.481 727.352 39.4766L732.163 37.9961C732.176 37.9922 732.189 37.9885 732.202 37.9844L737.015 36.417C737.026 36.4133 737.038 36.4091 737.049 36.4053L741.861 34.7617C741.871 34.7584 741.881 34.7544 741.891 34.751L746.702 33.04C746.71 33.0372 746.719 33.0342 746.727 33.0312L751.539 31.2627C751.545 31.2604 751.552 31.2582 751.559 31.2559L756.37 29.4424C756.375 29.4406 756.38 29.4383 756.385 29.4365L761.197 27.5879L761.207 27.584L766.019 25.7129L766.023 25.7109L775.643 21.9473L780.445 20.0791L785.257 18.2314L785.256 18.2305L790.034 16.4297L790.035 16.4307L794.847 14.6621L799.634 12.959L804.417 11.3262L804.416 11.3252L809.194 9.76953L813.968 8.30273L818.704 6.94043L823.461 5.67578L828.251 4.51465L832.977 3.48633L837.727 2.57812L842.457 1.80176L847.211 1.15723L851.951 0.65332L856.685 0.291016L861.443 0.0722656L866.165 0L870.887 0.0722656L875.644 0.291016L880.375 0.65332L885.119 1.15723L889.873 1.80176L894.604 2.57812L899.354 3.48633L904.078 4.51465L908.858 5.67285L913.626 6.94043L918.362 8.30273L923.136 9.76953L927.913 11.3252L932.696 12.959L937.482 14.6621L942.296 16.4307L947.073 18.2305L951.886 20.0791L956.688 21.9473L966.307 25.7109L966.312 25.7129L971.124 27.584L971.134 27.5879L975.945 29.4365C975.95 29.4384 975.955 29.4406 975.96 29.4424L980.772 31.2559C980.779 31.2583 980.786 31.2603 980.792 31.2627L985.604 33.0312C985.611 33.0342 985.62 33.0372 985.628 33.04L990.44 34.751C990.45 34.7544 990.46 34.7584 990.47 34.7617L995.282 36.4053C995.293 36.4091 995.305 36.4133 995.316 36.417L1000.13 37.9844C1000.14 37.9885 1000.15 37.9921 1000.17 37.9961L1004.98 39.4766C1004.99 39.481 1005.01 39.4851 1005.02 39.4893L1009.83 40.873C1009.85 40.8777 1009.87 40.8824 1009.88 40.8867L1014.7 42.166C1014.71 42.1707 1014.73 42.1754 1014.75 42.1797L1019.56 43.3457C1019.58 43.3503 1019.6 43.3552 1019.62 43.3594L1024.43 44.4062C1024.45 44.4107 1024.47 44.415 1024.49 44.4189L1029.3 45.3398C1029.33 45.344 1029.35 45.348 1029.37 45.3516L1034.18 46.1406C1034.2 46.1444 1034.23 46.1473 1034.25 46.1504L1039.06 46.8027C1039.09 46.8059 1039.11 46.809 1039.13 46.8115L1043.95 47.3232C1043.97 47.3258 1044 47.3282 1044.02 47.3301L1048.83 47.6973C1048.86 47.6992 1048.88 47.701 1048.91 47.7021L1053.72 47.9238C1053.74 47.925 1053.77 47.9254 1053.8 47.9258L1058.61 48C1058.63 48.0004 1058.66 48.0004 1058.68 48L1063.5 47.9258C1063.52 47.9254 1063.55 47.925 1063.57 47.9238L1068.39 47.7021C1068.41 47.701 1068.44 47.6992 1068.46 47.6973L1073.27 47.3301C1073.3 47.3282 1073.32 47.3258 1073.35 47.3232L1078.16 46.8115C1078.18 46.809 1078.21 46.8059 1078.23 46.8027L1083.04 46.1504C1083.07 46.1473 1083.09 46.1443 1083.11 46.1406L1087.92 45.3516C1087.94 45.348 1087.97 45.344 1087.99 45.3398L1092.8 44.4189C1092.82 44.415 1092.84 44.4107 1092.86 44.4062L1097.67 43.3594C1097.69 43.3552 1097.71 43.3503 1097.73 43.3457L1102.54 42.1797C1102.56 42.1754 1102.58 42.1707 1102.6 42.166L1107.41 40.8867C1107.43 40.8824 1107.44 40.8777 1107.46 40.873L1112.27 39.4893C1112.28 39.4851 1112.3 39.481 1112.31 39.4766L1117.13 37.9961C1117.14 37.9921 1117.15 37.9886 1117.17 37.9844L1121.98 36.417C1121.99 36.4133 1122 36.4091 1122.01 36.4053L1126.82 34.7617C1126.83 34.7584 1126.84 34.7544 1126.85 34.751L1131.67 33.04C1131.67 33.0372 1131.68 33.0342 1131.69 33.0312L1136.5 31.2627C1136.51 31.2604 1136.51 31.2582 1136.52 31.2559L1141.33 29.4424C1141.34 29.4406 1141.34 29.4384 1141.35 29.4365L1146.16 27.5879L1146.17 27.584L1150.98 25.7129L1150.99 25.7109L1160.61 21.9473L1165.41 20.0791L1170.22 18.2305L1175 16.4297L1175 16.4307L1179.81 14.6621L1184.6 12.96L1184.6 12.959L1189.38 11.3252L1194.16 9.77051L1194.16 9.76953L1198.93 8.30273L1203.67 6.94043L1208.43 5.67285L1213.21 4.51465L1217.94 3.48633L1222.69 2.57812L1227.42 1.80176L1232.18 1.15723L1236.92 0.65332L1241.65 0.291016L1246.4 0.0722656L1251.13 0L1255.85 0.0722656L1260.61 0.291016L1265.34 0.65332L1270.08 1.15723L1274.83 1.80078L1279.57 2.57812L1284.32 3.48633L1289.04 4.51465L1293.83 5.67578L1298.59 6.94043L1303.32 8.30273L1308.1 9.76953L1312.88 11.3252L1317.66 12.959L1322.45 14.6621L1327.26 16.4297L1332.04 18.2305L1336.85 20.0791L1341.65 21.9473L1351.27 25.7109L1351.27 25.7129L1356.09 27.584L1356.1 27.5879L1360.91 29.4365C1360.91 29.4384 1360.92 29.4406 1360.92 29.4424L1365.73 31.2559C1365.74 31.2582 1365.75 31.2604 1365.75 31.2627L1370.57 33.0312C1370.57 33.0342 1370.58 33.0372 1370.59 33.04L1375.4 34.751C1375.41 34.7544 1375.42 34.7584 1375.43 34.7617L1380.24 36.4053C1380.26 36.4091 1380.27 36.4133 1380.28 36.417L1385.09 37.9844C1385.1 37.9885 1385.12 37.9921 1385.13 37.9961L1389.94 39.4766C1389.96 39.481 1389.97 39.4851 1389.99 39.4893L1394.8 40.873C1394.81 40.8777 1394.83 40.8824 1394.85 40.8867L1399.66 42.166C1399.68 42.1707 1399.69 42.1754 1399.71 42.1797L1404.52 43.3457C1404.54 43.3503 1404.56 43.3552 1404.58 43.3594L1409.39 44.4062C1409.41 44.4107 1409.43 44.415 1409.46 44.4189L1414.27 45.3398C1414.29 45.344 1414.31 45.348 1414.33 45.3516L1419.14 46.1406C1419.17 46.1443 1419.19 46.1473 1419.21 46.1504L1424.03 46.8027C1424.05 46.8059 1424.07 46.809 1424.1 46.8115L1428.91 47.3232C1428.93 47.3258 1428.96 47.3282 1428.98 47.3301L1433.79 47.6973C1433.82 47.6992 1433.85 47.701 1433.87 47.7021L1438.68 47.9238C1438.71 47.925 1438.73 47.9254 1438.76 47.9258L1443.57 48C1443.6 48.0004 1443.62 48.0004 1443.65 48L1448.46 47.9258C1448.48 47.9254 1448.51 47.925 1448.54 47.9238L1453.35 47.7021C1453.37 47.701 1453.4 47.6992 1453.42 47.6973L1458.24 47.3301C1458.26 47.3282 1458.29 47.3258 1458.31 47.3232L1463.12 46.8115C1463.14 46.809 1463.17 46.8059 1463.19 46.8027L1468 46.1504C1468.03 46.1473 1468.05 46.1443 1468.07 46.1406L1472.89 45.3516C1472.91 45.348 1472.93 45.344 1472.95 45.3398L1477.76 44.4189C1477.78 44.415 1477.8 44.4107 1477.82 44.4062L1482.64 43.3594C1482.66 43.3552 1482.68 43.3503 1482.69 43.3457L1487.51 42.1797C1487.52 42.1754 1487.54 42.1707 1487.56 42.166L1492.37 40.8867C1492.39 40.8824 1492.4 40.8777 1492.42 40.873L1497.23 39.4893C1497.25 39.4851 1497.26 39.481 1497.28 39.4766L1502.09 37.9961C1502.1 37.9921 1502.11 37.9885 1502.13 37.9844L1506.94 36.417C1506.95 36.4133 1506.96 36.4091 1506.97 36.4053L1511.79 34.7617C1511.8 34.7584 1511.81 34.7544 1511.82 34.751L1516.63 33.04C1516.64 33.0372 1516.64 33.0342 1516.65 33.0312L1521.46 31.2627C1521.47 31.2604 1521.48 31.2582 1521.48 31.2559L1526.29 29.4424C1526.3 29.4406 1526.3 29.4383 1526.31 29.4365L1531.12 27.5879L1531.13 27.584L1535.94 25.7129L1535.95 25.7109L1545.57 21.9473L1550.37 20.0791L1555.18 18.2314L1555.18 18.2305L1559.96 16.4297L1559.96 16.4307L1564.77 14.6621L1569.56 12.959L1574.34 11.3262L1574.34 11.3252L1579.12 9.76953L1583.89 8.30273L1588.63 6.94043L1593.39 5.67578L1598.18 4.51465L1602.9 3.48633L1607.65 2.57812L1612.38 1.80176L1617.14 1.15723L1621.88 0.65332L1626.61 0.291016L1631.37 0.0722656L1636.09 0L1640.81 0.0722656Z" fill="#F9F5F1"/>
</g>
<defs>
<clipPath id="clip0_27205_3652">
<rect width="1920" height="360" fill="white"/>
</clipPath>
</defs>
</svg>