<svg width="40" height="92" viewBox="0 0 40 92" fill="none" xmlns="http://www.w3.org/2000/svg">
<path fill-rule="evenodd" clip-rule="evenodd" d="M19.8356 2.54952C19.5051 2.58441 19.4325 2.61665 19.4413 2.72442C19.448 2.80619 19.4058 2.85235 19.3308 2.8455C19.1098 2.82533 18.8682 2.93861 18.9085 3.04358C18.9298 3.099 18.902 3.14435 18.8469 3.14435C18.7918 3.14435 18.7275 3.09466 18.7042 3.03393C18.6547 2.9049 18.28 2.88186 18.3074 3.0095C18.3175 3.05683 18.2015 3.12639 18.0496 3.16407C17.8977 3.20176 17.7734 3.26241 17.7734 3.29885C17.7734 3.33536 17.7292 3.36517 17.675 3.36517C17.506 3.36517 16.8896 3.89279 16.8896 4.0375C16.8896 4.11302 16.8527 4.17485 16.8077 4.17485C16.7328 4.17485 16.7379 4.29041 16.8311 4.69629C16.8606 4.82473 17.2801 5.37892 17.5229 5.6102C17.7958 5.87011 18.3658 6.60287 18.4335 6.78085C18.5014 6.9592 18.4141 7.11915 18.2488 7.11915C18.1221 7.11915 17.8994 7.39312 17.9541 7.48174C17.9822 7.52708 17.9587 7.54247 17.8972 7.51891C17.7805 7.47416 17.6721 7.67746 17.7477 7.79965C17.7744 7.84271 17.7658 7.8592 17.7287 7.83631C17.5944 7.75328 17.389 7.98286 17.4437 8.15503C17.4882 8.29503 17.4733 8.31262 17.3398 8.27773C17.2442 8.25271 17.202 8.26595 17.2304 8.31196C17.2559 8.35318 17.2311 8.41707 17.1752 8.45388C17.106 8.49959 17.1386 8.51011 17.2778 8.48707C17.394 8.46779 17.4635 8.48295 17.4391 8.52233C17.4157 8.56024 17.3488 8.5913 17.2904 8.5913C17.2319 8.5913 17.1819 8.63274 17.1791 8.68331C17.1529 9.15933 16.8224 9.82717 16.6621 9.7281C16.621 9.7027 16.5486 9.78433 16.5014 9.90954C16.4541 10.0347 16.3896 10.1371 16.358 10.1371C16.3263 10.1371 16.3004 10.1678 16.3004 10.2054C16.3004 10.3051 15.7901 11.1452 15.668 11.2465C15.6108 11.2939 15.564 11.395 15.564 11.471C15.564 11.547 15.5362 11.6092 15.5022 11.6092C15.4684 11.6092 15.354 11.786 15.2481 12.0021C15.1422 12.2181 15.0065 12.4357 14.9464 12.4855C14.8863 12.5353 14.7698 12.7052 14.6875 12.8631C14.6051 13.0209 14.4739 13.2139 14.3959 13.2919C14.3177 13.37 14.1132 13.6774 13.9412 13.9753C13.7692 14.2731 13.5801 14.5726 13.5211 14.6409C13.462 14.7092 13.4316 14.7941 13.4535 14.8295C13.4754 14.8649 13.3792 15.022 13.2398 15.1787C13.1003 15.3354 12.9862 15.4921 12.9862 15.527C12.9862 15.5619 12.9034 15.6797 12.8021 15.7889C12.7009 15.898 12.5674 16.0939 12.5056 16.2242C12.4437 16.3545 12.3627 16.4798 12.3256 16.5027C12.2885 16.5257 12.1232 16.7887 11.9583 17.0872C11.7934 17.3858 11.6078 17.6495 11.5459 17.6733C11.4648 17.7044 11.452 17.7528 11.5002 17.8463C11.5756 17.993 11.5375 18.1603 11.4285 18.1603C11.3874 18.1603 11.378 18.0887 11.407 17.9947C11.4536 17.8429 11.4448 17.8455 11.3015 18.0247C11.1061 18.2691 11.1067 18.2899 11.3107 18.3291C11.4544 18.3568 11.4499 18.3624 11.2762 18.3711C11.1394 18.3779 11.0882 18.413 11.1147 18.4819C11.138 18.5425 11.0857 18.6042 10.9835 18.6369C10.8412 18.6823 10.8345 18.6967 10.9425 18.7255C11.0133 18.7444 11.0714 18.7895 11.0714 18.8256C11.0714 18.9538 10.6493 19.5541 10.596 19.5017C10.5662 19.4724 10.5517 19.4981 10.5638 19.5588C10.6001 19.7417 10.4163 20.1684 10.1846 20.4393C9.95876 20.7033 9.9103 20.6963 10.0443 20.4188C10.1194 20.2635 10.1181 20.263 10.0075 20.401C9.94455 20.4796 9.89299 20.5726 9.89299 20.6077C9.89299 20.6428 9.85985 20.6512 9.81935 20.6261C9.77884 20.6011 9.7457 20.6312 9.7457 20.6931C9.7457 20.769 9.7876 20.7903 9.87458 20.7585C9.99028 20.7164 9.98911 20.7279 9.86317 20.8712C9.78598 20.9591 9.74975 21.031 9.78252 21.031C9.81529 21.031 9.78215 21.0972 9.70887 21.1782C9.63559 21.2592 9.59936 21.3254 9.62837 21.3254C9.65739 21.3254 9.57225 21.4248 9.43924 21.5462C9.16836 21.7935 8.98689 21.8478 9.19333 21.6198C9.26661 21.5389 9.28922 21.4726 9.24349 21.4726C9.12049 21.4726 8.91693 21.9086 8.96104 22.0774C8.99094 22.1917 8.96951 22.2155 8.86169 22.1873C8.78185 22.1664 8.70666 22.1968 8.68258 22.2596C8.61681 22.4308 8.63051 22.4403 8.80667 22.3461C8.94786 22.2707 8.93968 22.2951 8.75144 22.5114C8.62992 22.6511 8.45088 22.8828 8.35359 23.0264C8.25637 23.17 8.10723 23.3185 8.02217 23.3564C7.91803 23.4028 7.87215 23.485 7.88142 23.6083C7.88894 23.7089 7.87782 23.7497 7.85668 23.6988C7.80527 23.5751 7.67948 23.6582 7.72779 23.7841C7.74864 23.8383 7.71991 23.9002 7.66401 23.9216C7.54154 23.9686 6.61746 25.3002 6.70732 25.3002C6.74193 25.3002 6.81411 25.2588 6.86765 25.2082C6.94807 25.1322 6.94999 25.1454 6.8787 25.2839C6.83119 25.3761 6.76388 25.434 6.72912 25.4125C6.61363 25.3411 6.29422 25.799 6.33377 25.9792C6.36139 26.1046 6.35225 26.1207 6.29761 26.0433C6.23803 25.9589 6.19001 25.9772 6.03579 26.1435C5.93201 26.2555 5.82633 26.4123 5.80107 26.4919C5.77573 26.5716 5.60899 26.7891 5.43047 26.9754C5.23729 27.1768 5.10582 27.3832 5.10582 27.4848C5.10582 27.5882 5.06185 27.6556 4.99447 27.6556C4.93319 27.6556 4.77146 27.8295 4.63506 28.0421C4.37839 28.4419 3.66349 29.2014 3.54373 29.2014C3.50625 29.2014 3.49667 29.2677 3.52237 29.3486C3.55758 29.4595 3.53563 29.4958 3.43326 29.4958C3.35858 29.4958 3.19699 29.5869 3.07422 29.6983C2.95145 29.8096 2.75665 29.9504 2.64131 30.0111C2.48429 30.0937 2.46242 30.1275 2.55441 30.1455C2.62194 30.1587 2.65825 30.2 2.63513 30.2375C2.53997 30.3914 2.75017 30.2896 2.98061 30.0702C3.11657 29.9407 3.26637 29.8331 3.31358 29.831C3.36079 29.8288 3.48216 29.7553 3.58328 29.6676L3.76726 29.5081L3.81218 29.6869C3.85018 29.8384 3.88789 29.8586 4.05795 29.8185C4.16849 29.7925 4.29031 29.7424 4.32883 29.7072C4.36727 29.6719 4.4449 29.643 4.50117 29.643C4.65568 29.643 5.16585 29.2562 5.20495 29.1094C5.24126 28.9734 5.40042 28.9285 5.40042 29.0542C5.40042 29.1687 5.50934 29.1416 5.69501 28.9806C5.7884 28.8996 5.90123 28.8314 5.94564 28.8289C5.99005 28.8264 6.14243 28.6805 6.2842 28.5046C6.42598 28.3288 6.61658 28.143 6.70768 28.0918C6.79879 28.0407 6.87354 27.963 6.87376 27.9192C6.87398 27.8754 6.955 27.7072 7.05383 27.5452C7.21733 27.2773 7.2317 27.2686 7.21336 27.4489C7.20231 27.5578 7.15171 27.6969 7.10097 27.758C7.05022 27.8191 7.00081 27.9231 6.99108 27.9891C6.98144 28.0551 6.93268 28.1343 6.88275 28.1652C6.83281 28.196 6.80078 28.2513 6.81153 28.2881C6.82228 28.3248 6.78803 28.4325 6.73552 28.5274L6.64 28.6998L6.86713 28.5319C6.99212 28.4396 7.09434 28.3382 7.09434 28.3066C7.09434 28.275 7.14405 28.2682 7.20481 28.2915C7.27574 28.3187 7.31529 28.29 7.31529 28.2112C7.31529 28.1438 7.34541 28.1072 7.38231 28.13C7.48689 28.1946 7.68353 28.0932 7.68353 27.9747C7.68353 27.9158 7.7152 27.8874 7.75394 27.9113C7.79268 27.9352 7.87936 27.8709 7.94653 27.7684C8.02209 27.6531 8.13735 27.582 8.24871 27.582C8.35882 27.582 8.40963 27.5512 8.37959 27.5025C8.35256 27.4588 8.40028 27.3742 8.48571 27.3143C8.63345 27.2109 8.71476 27.0125 8.57358 27.0997C8.53653 27.1226 8.49227 27.1162 8.47518 27.0856C8.45809 27.055 8.45316 27.0686 8.46421 27.1157C8.47526 27.1629 8.3706 27.2788 8.2317 27.3734C8.0928 27.4679 7.97894 27.569 7.97864 27.5982C7.97835 27.6272 7.92863 27.632 7.86809 27.6088C7.78112 27.5755 7.80107 27.526 7.96362 27.3719C8.07667 27.2648 8.22448 27.0969 8.29216 26.9986C8.39999 26.8422 8.43792 26.8305 8.59906 26.9039C8.81014 27 8.9332 26.8931 8.73752 26.7837C8.6322 26.7248 8.64472 26.7144 8.80955 26.724C9.02224 26.7363 9.06511 26.8343 8.92083 26.9785C8.85212 27.0471 8.85897 27.0668 8.95162 27.0668C9.14966 27.0668 9.32516 26.9782 9.23619 26.9233C9.18744 26.8932 9.2426 26.81 9.37731 26.7105C9.4989 26.6206 9.5984 26.5832 9.5984 26.6273C9.5984 26.6714 9.63162 26.6869 9.67227 26.6618C9.72139 26.6315 9.72051 26.5684 9.66969 26.4734C9.62366 26.3875 9.62116 26.3307 9.66328 26.3307C9.70188 26.3307 9.74555 26.3671 9.76043 26.4117C9.78863 26.4962 10.2218 26.0944 10.3436 25.8707C10.4395 25.6944 10.373 25.7091 10.177 25.9075L10.0133 26.0731L10.1479 25.8523C10.2894 25.6201 10.5189 25.3738 10.5939 25.3738C10.6183 25.3738 10.6156 25.4102 10.5881 25.4548C10.4785 25.632 10.8335 25.3738 10.9557 25.1874C11.0793 24.9989 11.0787 24.9966 10.9293 25.0766C10.8454 25.1215 10.7768 25.2067 10.7768 25.266C10.7768 25.3253 10.7436 25.3738 10.7031 25.3738C10.5304 25.3738 10.7352 25.0308 11.2512 24.4562C11.9675 23.6587 12.2276 23.3447 12.2705 23.2256C12.3142 23.1041 12.618 22.8946 12.618 22.986C12.618 23.0115 12.5481 23.1306 12.4627 23.2505C12.3772 23.3704 12.3218 23.4829 12.3394 23.5005C12.357 23.5181 12.6099 23.2299 12.9014 22.86C13.24 22.4305 13.4174 22.1435 13.3926 22.0654C13.3677 21.9871 13.485 21.7991 13.719 21.5422C13.9199 21.3218 14.0858 21.1759 14.0877 21.2181C14.0895 21.2603 13.9418 21.441 13.7596 21.6198C13.4317 21.9413 13.361 22.0615 13.4994 22.0615C13.6188 22.0615 14.1646 21.2859 14.1646 21.1163C14.1646 21.0289 14.1967 20.9574 14.236 20.9574C14.2752 20.9574 14.2867 21.0154 14.2614 21.0862C14.2313 21.1709 14.2957 21.1404 14.4499 20.9969C14.5924 20.8641 14.6761 20.7205 14.6637 20.6297C14.6492 20.5233 14.6853 20.4805 14.7903 20.4798C14.8712 20.4794 14.9407 20.4292 14.9449 20.3685C14.962 20.1152 14.9823 20.0892 15.1405 20.1186C15.2316 20.1355 15.2666 20.1302 15.2182 20.1069C15.1077 20.0537 15.1783 19.8533 15.3077 19.8533C15.4181 19.8533 16.0427 19.0428 16.0427 18.8995C16.0427 18.864 16.0676 18.8102 16.0979 18.7798C16.2255 18.6522 16.1405 18.5905 16.0054 18.7128C15.9241 18.7862 15.8412 18.8299 15.8211 18.8098C15.7674 18.7562 16.2794 18.3075 16.3942 18.3075C16.448 18.3075 16.5331 18.2663 16.5834 18.2161C16.6562 18.1433 16.6895 18.147 16.7468 18.2345C16.8088 18.3291 16.834 18.3245 16.9279 18.2014C16.9879 18.1228 17.0359 18.0234 17.0346 17.9806C17.0333 17.9377 16.9882 17.9607 16.9344 18.0315C16.7895 18.2223 16.7522 18.1902 16.7756 17.8947C16.7912 17.699 16.8622 17.573 17.0457 17.4159C17.1827 17.2986 17.3527 17.184 17.4236 17.1613C17.4945 17.1385 17.5525 17.0866 17.5525 17.0459C17.5525 16.9259 18.5327 15.9869 18.6339 16.01C18.685 16.0216 18.7471 15.9495 18.7722 15.8498C18.7973 15.7501 18.8803 15.6119 18.9567 15.5428C19.0331 15.4737 19.0793 15.3907 19.0593 15.3584C19.0394 15.3262 19.0567 15.279 19.0979 15.2535C19.1391 15.2281 19.1738 15.2672 19.1749 15.3404C19.177 15.4613 19.1853 15.4601 19.2641 15.3264C19.3119 15.2454 19.3616 15.1137 19.3745 15.0335C19.4018 14.8638 19.541 14.6964 19.541 14.8332C19.541 14.9689 19.7206 14.9384 19.9406 14.7655C20.0504 14.6792 20.1217 14.564 20.1001 14.5079C20.0787 14.452 20.0933 14.4063 20.1325 14.4063C20.1717 14.4063 20.2038 14.3528 20.2038 14.2873C20.2038 14.2045 20.159 14.18 20.0565 14.2068C19.9755 14.2279 19.9092 14.2349 19.9092 14.2224C19.9092 14.1422 20.2422 13.5966 20.2912 13.5966C20.3241 13.5966 20.3524 13.5552 20.3541 13.5046C20.3589 13.3595 20.7311 12.9718 21.014 12.8173C21.1557 12.7399 21.2982 12.6351 21.3307 12.5845C21.3631 12.5339 21.4836 12.4438 21.5987 12.3844C21.7991 12.2809 21.8092 12.2838 21.8419 12.4548C21.8704 12.6038 21.8555 12.6223 21.7519 12.5669C21.662 12.5188 21.6277 12.5299 21.6277 12.6069C21.6277 12.6654 21.6498 12.7133 21.6768 12.7133C21.7038 12.7133 21.7191 12.7878 21.7109 12.8789C21.7027 12.9701 21.7745 13.15 21.8705 13.2788C21.9665 13.4077 22.045 13.5469 22.045 13.5881C22.045 13.6292 22.0882 13.6894 22.141 13.7217C22.2817 13.8081 22.691 14.5748 22.6538 14.6823C22.6363 14.733 22.6579 14.7743 22.7018 14.7743C22.7456 14.7743 22.7817 14.8488 22.7819 14.9399C22.7822 15.0962 23.0123 15.3878 23.3622 15.6753C23.4567 15.753 23.518 15.8888 23.518 16.0206C23.518 16.14 23.5514 16.2584 23.5922 16.2837C23.633 16.3088 23.8498 16.6077 24.0739 16.948C24.2981 17.2881 24.5138 17.5864 24.5532 17.6108C24.5927 17.6352 24.6704 17.7604 24.7259 17.8893C24.7815 18.0181 24.9632 18.263 25.1299 18.4334C25.4321 18.7426 25.5076 18.9328 25.3494 18.9855C25.2954 19.0035 25.3102 19.0576 25.3915 19.1389C25.4605 19.2079 25.4973 19.2644 25.4731 19.2644C25.3887 19.2644 25.6642 19.7171 25.9225 20.0028C26.1055 20.2052 26.1949 20.3844 26.2232 20.6057C26.2774 21.0288 26.4435 21.3398 26.935 21.9388C27.162 22.2154 27.3478 22.4692 27.3478 22.5028C27.3478 22.5365 27.5051 22.7169 27.6976 22.9038C28.013 23.21 28.0353 23.2528 27.9236 23.3378C27.811 23.4235 27.8254 23.4619 28.0818 23.7617C28.2369 23.9431 28.4993 24.1564 28.665 24.2358C28.8307 24.3152 28.9667 24.4216 28.9672 24.4721C28.9677 24.5228 28.9928 24.5641 29.0233 24.5641C29.0537 24.5641 29.0837 24.6386 29.0901 24.7297C29.0965 24.8209 29.113 24.9615 29.127 25.0424C29.1608 25.2398 29.5517 25.6682 29.698 25.6682C29.7623 25.6682 29.9076 25.7842 30.0207 25.9259C30.1338 26.0676 30.2695 26.1835 30.3223 26.1835C30.375 26.1835 30.4768 26.2482 30.5484 26.3273C30.6416 26.4303 30.795 26.4773 31.089 26.4929C31.4879 26.5141 31.4957 26.5186 31.3634 26.6502C31.2495 26.7635 31.2443 26.7966 31.3313 26.8519C31.3885 26.8883 31.485 26.8981 31.5457 26.8738C31.7953 26.774 31.8772 26.8083 31.8743 27.0117C31.8719 27.1732 31.8979 27.2057 32.0032 27.1723C32.181 27.1158 32.4434 27.2056 32.3835 27.3025C32.3559 27.3471 32.379 27.3657 32.4377 27.3461C32.494 27.3273 32.7112 27.372 32.9204 27.4454C33.1327 27.52 33.4342 27.5677 33.6027 27.5534C33.8716 27.5306 33.8943 27.5407 33.8114 27.647C33.7602 27.7125 33.6852 27.7917 33.6447 27.823C33.575 27.8769 34.273 27.8249 34.4771 27.761C34.5298 27.7444 34.5571 27.7567 34.5376 27.7881C34.4734 27.892 35.208 28.1788 35.4091 28.1283C35.7506 28.0427 35.5664 27.8166 35.1298 27.7853C34.9815 27.7747 34.8602 27.7397 34.8601 27.7075C34.86 27.6753 34.9759 27.6707 35.1177 27.6973C35.2977 27.731 35.3755 27.7186 35.3755 27.6559C35.3755 27.6066 35.3285 27.5843 35.2711 27.6063C35.2137 27.6283 35.1456 27.5914 35.1198 27.5243C35.0794 27.4189 35.0634 27.417 35.0033 27.5105C34.9421 27.6057 34.9247 27.6054 34.861 27.5084C34.799 27.4139 34.7883 27.4166 34.7874 27.5268C34.7868 27.6004 34.731 27.6551 34.6574 27.6545C34.5471 27.6536 34.5444 27.643 34.639 27.5809C34.7372 27.5165 34.7372 27.5004 34.639 27.4359C34.544 27.3737 34.5463 27.3633 34.6551 27.3623C34.8196 27.3608 34.7436 27.1427 34.5759 27.1346C34.5079 27.1313 34.4929 27.1132 34.5418 27.0934C34.5896 27.0739 34.7584 27.1436 34.9167 27.2484C35.0751 27.3531 35.3127 27.4525 35.4448 27.4692C35.6529 27.4955 35.6799 27.4805 35.6476 27.3568C35.6024 27.1841 35.7582 27.1654 35.9173 27.3244C36.0368 27.4438 36.2952 27.4789 36.2256 27.3663C36.1298 27.2113 36.3364 27.2233 36.4941 27.3818C36.825 27.7143 36.9 27.748 36.9431 27.5835C36.9684 27.4865 36.9524 27.449 36.8968 27.476C36.85 27.4988 36.8818 27.4574 36.9676 27.3841L37.1236 27.2508L36.8756 26.863C36.5581 26.3666 36.5628 26.3143 36.8963 26.6291C37.0442 26.7686 37.1492 26.8496 37.1296 26.8092C36.8696 26.2699 36.738 25.8891 36.8118 25.8891C36.8275 25.8891 36.9658 26.004 37.1191 26.1444C37.4482 26.4458 37.6381 26.3803 37.379 26.0549C37.0691 25.6657 36.9969 25.4791 37.0648 25.2428C37.1028 25.1104 37.1005 24.9927 37.0595 24.9517C37.0215 24.9137 36.9748 24.7964 36.9556 24.6911C36.9226 24.5094 36.9338 24.5017 37.1747 24.5407C37.4118 24.5792 37.4259 24.5705 37.3879 24.4074C37.3657 24.3114 37.1482 24.0426 36.9047 23.8101C36.425 23.3518 36.2107 23.0129 36.2179 22.7239C36.221 22.5959 36.2614 22.543 36.3505 22.55C36.421 22.5555 36.4605 22.5307 36.4382 22.4948C36.4161 22.4589 36.3584 22.4292 36.3102 22.4288C36.2619 22.4284 36.007 22.2308 35.7437 21.9899C35.4804 21.7489 35.2294 21.5504 35.1858 21.5489C35.1422 21.5475 35.0287 21.4634 34.9336 21.3622C34.8384 21.261 34.7243 21.1782 34.68 21.1782C34.6357 21.1782 34.5504 21.099 34.4904 21.0021C34.3579 20.7886 33.3491 19.8666 32.8162 19.4723C32.6036 19.3149 32.4295 19.1367 32.4295 19.0763C32.4295 19.0157 32.3536 18.9375 32.2608 18.9022C32.168 18.8669 32.0479 18.7849 31.994 18.72C31.9401 18.6551 31.8534 18.6019 31.8014 18.6019C31.7493 18.6019 31.5735 18.4446 31.4106 18.2523C31.2478 18.06 30.9643 17.7867 30.7807 17.645C30.5206 17.4443 30.4496 17.344 30.4592 17.1909C30.4659 17.083 30.39 16.8296 30.2905 16.628C30.1223 16.2874 30.094 16.2644 29.8886 16.3025C29.7671 16.325 29.6558 16.3737 29.6413 16.4108C29.6032 16.5082 29.2629 16.1688 29.2609 16.0313C29.2592 15.9152 28.5946 15.284 28.2138 15.0366C28.1027 14.9645 28.0282 14.879 28.0482 14.8467C28.0682 14.8144 27.876 14.6242 27.6211 14.424C27.0981 14.0132 26.3503 13.275 26.285 13.1051C26.26 13.04 26.1938 13.0108 26.1281 13.0361C26.0614 13.0616 26.0336 13.0488 26.0607 13.005C26.0861 12.9638 25.9368 12.7339 25.7289 12.4941C25.521 12.2543 25.3556 12.0371 25.3612 12.0115C25.3669 11.9859 25.3469 11.9429 25.3167 11.9159C25.2866 11.8889 25.2858 11.9083 25.315 11.9588C25.388 12.0857 25.2986 12.0744 25.1639 11.9398C25.1028 11.8787 25.0223 11.8475 24.985 11.8705C24.9478 11.8935 24.9173 11.8829 24.9173 11.8468C24.9173 11.8107 24.8356 11.7376 24.7357 11.6841C24.6359 11.6307 24.5725 11.5573 24.595 11.521C24.6174 11.4846 24.6909 11.4973 24.7582 11.5491C24.8444 11.6156 24.8391 11.5949 24.7402 11.4791C24.5965 11.3107 24.5045 11.2566 24.5859 11.3884C24.611 11.4289 24.5837 11.462 24.5254 11.462C24.4671 11.462 24.3308 11.3461 24.2227 11.2044C24.1146 11.0627 24.0574 10.9467 24.0958 10.9467C24.1768 10.9467 24.5931 10.3245 24.9693 9.64102C25.0588 9.47871 25.226 9.26672 25.341 9.16993C25.4561 9.07321 25.625 8.83958 25.7165 8.65078C25.8585 8.3576 25.8688 8.28539 25.7874 8.15503C25.7118 8.03402 25.7107 7.97263 25.7819 7.85861C25.8385 7.76807 25.845 7.69837 25.7997 7.67025C25.76 7.64574 25.7275 7.4827 25.7275 7.30781C25.7275 7.12283 25.6837 6.95368 25.6228 6.90311C25.5652 6.85534 25.4954 6.68214 25.4676 6.51829C25.4151 6.20679 25.1851 5.90382 25.0602 5.98103C25.0201 6.00576 24.9942 5.9987 25.0026 5.96528C25.0367 5.82896 24.8134 5.27896 24.7239 5.27896C24.6708 5.27896 24.6451 5.23266 24.6669 5.17606C24.7091 5.06594 24.4162 4.74612 24.3248 4.80258C24.2947 4.8212 24.0791 4.6544 23.8457 4.43204C23.6122 4.20959 23.3933 4.02351 23.3592 4.01843C23.2186 3.9976 23.1831 3.98627 23.1085 3.93872C23.0654 3.91134 22.9246 3.90552 22.7955 3.92591C22.5954 3.95741 22.5606 3.94034 22.5606 3.81123C22.5606 3.71326 22.5128 3.6596 22.4256 3.6596C22.3513 3.6596 22.2661 3.63516 22.2362 3.60535C22.2064 3.57546 22.1263 3.55066 22.0582 3.55014C21.9279 3.54911 21.9217 3.50959 22.0076 3.22715C22.0418 3.1149 22.0339 3.06897 21.9856 3.09878C21.9442 3.12432 21.8987 3.11049 21.8846 3.06801C21.8704 3.02554 21.7516 2.97726 21.6205 2.9607C21.434 2.93707 21.3817 2.95775 21.3798 3.05587C21.3777 3.15922 21.3526 3.15156 21.2362 3.01193C21.1585 2.91889 21.1132 2.79515 21.1356 2.73693C21.1616 2.66921 21.1056 2.60429 20.9799 2.55652C20.7295 2.46134 20.6988 2.46274 20.7628 2.56623C20.7993 2.62527 20.7584 2.63638 20.6267 2.60333C20.5232 2.57735 20.3939 2.54503 20.3396 2.53142C20.2851 2.51787 20.0584 2.52604 19.8356 2.54952ZM18.9886 3.29156C19.0137 3.33204 19.0487 3.36517 19.0666 3.36517C19.0845 3.36517 19.0991 3.33204 19.0991 3.29156C19.0991 3.25108 19.064 3.21795 19.0211 3.21795C18.9782 3.21795 18.9636 3.25108 18.9886 3.29156ZM18.6572 7.04554C18.6572 7.08603 18.6945 7.11915 18.7401 7.11915C18.7932 7.11915 18.8068 7.19982 18.778 7.34365C18.7501 7.48284 18.7606 7.55108 18.8056 7.52333C18.8455 7.49867 18.8781 7.5368 18.8781 7.60798C18.8781 7.70661 18.8986 7.71699 18.9641 7.65155C19.0296 7.58612 19.0182 7.49499 18.9161 7.26879C18.7912 6.9921 18.6572 6.87654 18.6572 7.04554ZM19.9092 7.22522C19.9092 7.28359 19.9393 7.34984 19.976 7.37251C20.0127 7.39525 20.0254 7.34748 20.0042 7.26644C19.9592 7.09457 19.9092 7.07285 19.9092 7.22522ZM19.2475 8.45815C19.2482 8.51114 19.2808 8.60418 19.32 8.66491C19.3781 8.75464 19.3916 8.74514 19.3926 8.61405C19.3932 8.52535 19.3605 8.43231 19.32 8.40728C19.2795 8.38226 19.2469 8.40515 19.2475 8.45815ZM16.7178 9.45008C16.6908 9.47702 16.6687 9.53333 16.6687 9.57521C16.6687 9.62129 16.703 9.61695 16.7558 9.56417C16.8038 9.51625 16.8258 9.45994 16.8049 9.43904C16.784 9.41813 16.7448 9.42307 16.7178 9.45008ZM23.1869 10.2328C23.1934 10.3218 23.2292 10.3959 23.2664 10.3973C23.3035 10.3987 23.4084 10.4413 23.4996 10.4919C23.7408 10.6258 23.6927 10.4998 23.4148 10.2696C23.1805 10.0755 23.1752 10.0746 23.1869 10.2328ZM21.2349 11.094C21.2349 11.1344 21.27 11.1676 21.3129 11.1676C21.3558 11.1676 21.3704 11.1344 21.3454 11.094C21.3203 11.0535 21.2853 11.0203 21.2674 11.0203C21.2495 11.0203 21.2349 11.0535 21.2349 11.094ZM23.9278 11.1155C23.9555 11.1881 23.9967 11.229 24.0193 11.2063C24.042 11.1837 24.0194 11.1243 23.969 11.0743C23.8963 11.0022 23.8879 11.0106 23.9278 11.1155ZM24.1072 11.3799C24.1072 11.4158 24.1984 11.5034 24.3097 11.5745L24.5123 11.704L24.3338 11.5094C24.1406 11.299 24.1072 11.2798 24.1072 11.3799ZM21.9346 12.3453C21.9095 12.3858 21.9242 12.4189 21.9671 12.4189C22.0099 12.4189 22.045 12.3858 22.045 12.3453C22.045 12.3048 22.0305 12.2717 22.0126 12.2717C21.9947 12.2717 21.9596 12.3048 21.9346 12.3453ZM25.3786 12.4075C25.3848 12.4891 25.4078 12.5543 25.4298 12.5523C25.5697 12.5396 25.6017 12.5794 25.5065 12.6478C25.4133 12.7148 25.4162 12.7208 25.525 12.6858C25.5958 12.663 25.6538 12.6753 25.6538 12.713C25.6538 12.7509 25.7284 12.8209 25.8195 12.8686L25.9853 12.9556L25.838 12.7857C25.3843 12.2625 25.3666 12.2479 25.3786 12.4075ZM22.0485 13.339C22.0467 13.4484 22.1782 13.6353 22.2244 13.5891C22.2465 13.5671 22.2161 13.4852 22.1571 13.4072C22.0981 13.3292 22.0492 13.2985 22.0485 13.339ZM18.6327 15.7803C18.6056 15.8073 18.5836 15.8636 18.5836 15.9055C18.5836 15.9515 18.6179 15.9472 18.6707 15.8944C18.7186 15.8465 18.7407 15.7902 18.7198 15.7693C18.6989 15.7484 18.6596 15.7533 18.6327 15.7803ZM23.5917 16.0257C23.5917 16.0661 23.6434 16.0993 23.7065 16.0993C23.7696 16.0993 23.8008 16.0661 23.7758 16.0257C23.7507 15.9852 23.6991 15.9521 23.661 15.9521C23.6228 15.9521 23.5917 15.9852 23.5917 16.0257ZM17.7734 16.2465C17.7734 16.287 17.8066 16.3201 17.8471 16.3201C17.8876 16.3201 17.9207 16.287 17.9207 16.2465C17.9207 16.206 17.8876 16.1729 17.8471 16.1729C17.8066 16.1729 17.7734 16.206 17.7734 16.2465ZM16.0214 17.0222C15.9691 17.0813 15.9568 17.1298 15.9939 17.1298C16.031 17.1298 16.1027 17.0801 16.1531 17.0194C16.2713 16.8772 16.147 16.8797 16.0214 17.0222ZM14.6065 17.5714C14.6065 17.6119 14.6416 17.645 14.6845 17.645C14.7274 17.645 14.742 17.6119 14.717 17.5714C14.6919 17.5309 14.6569 17.4978 14.639 17.4978C14.6211 17.4978 14.6065 17.5309 14.6065 17.5714ZM12.6916 18.3854C12.6916 18.4283 12.7248 18.4429 12.7653 18.4179C12.8058 18.3929 12.8389 18.3578 12.8389 18.34C12.8389 18.3221 12.8058 18.3075 12.7653 18.3075C12.7248 18.3075 12.6916 18.3426 12.6916 18.3854ZM25.5434 18.97C25.5684 19.0104 25.6035 19.0436 25.6214 19.0436C25.6393 19.0436 25.6538 19.0104 25.6538 18.97C25.6538 18.9295 25.6187 18.8964 25.5758 18.8964C25.533 18.8964 25.5183 18.9295 25.5434 18.97ZM12.0882 19.178C12.0353 19.252 11.9257 19.3504 11.8447 19.3967C11.7306 19.4618 11.7238 19.4812 11.8149 19.483C11.926 19.4851 12.09 19.3394 12.2061 19.1356C12.2866 18.9941 12.1967 19.0266 12.0882 19.178ZM11.4838 19.5294C11.4576 19.5976 11.4527 19.67 11.473 19.6903C11.4932 19.7105 11.5312 19.6712 11.5575 19.603C11.5837 19.5347 11.5885 19.4623 11.5683 19.4421C11.548 19.4218 11.51 19.4611 11.4838 19.5294ZM11.5898 19.7292C11.4951 19.8813 11.4973 19.8842 11.6303 19.7821C11.7077 19.7227 11.7815 19.6681 11.7944 19.6606C11.8072 19.6533 11.7889 19.6294 11.7539 19.6078C11.7187 19.5861 11.645 19.6407 11.5898 19.7292ZM10.1876 20.1109C10.1125 20.2013 10.1175 20.2213 10.2154 20.2213C10.2811 20.2213 10.3349 20.1716 10.3349 20.1109C10.3349 20.0501 10.3224 20.0005 10.307 20.0005C10.2918 20.0005 10.238 20.0501 10.1876 20.1109ZM10.74 20.7365C10.7149 20.777 10.7296 20.8101 10.7724 20.8101C10.8153 20.8101 10.8504 20.777 10.8504 20.7365C10.8504 20.6961 10.8358 20.6629 10.818 20.6629C10.8001 20.6629 10.765 20.6961 10.74 20.7365ZM14.3487 20.8101C14.3237 20.8506 14.3384 20.8838 14.3812 20.8838C14.4241 20.8838 14.4592 20.8506 14.4592 20.8101C14.4592 20.7697 14.4446 20.7365 14.4267 20.7365C14.4088 20.7365 14.3738 20.7697 14.3487 20.8101ZM18.1506 20.8033C18.0948 20.8385 18.0719 20.9041 18.0998 20.9491C18.1766 21.0735 17.9997 21.0468 17.8668 20.914C17.7599 20.8071 17.7398 20.8135 17.6337 20.9881C17.5699 21.0933 17.4609 21.1973 17.3915 21.2193C17.3222 21.2413 17.2432 21.3322 17.2161 21.4212C17.189 21.5102 17.1127 21.6445 17.0466 21.7196C16.9805 21.7946 16.936 21.8699 16.9477 21.8867C16.9593 21.9036 16.9354 21.9746 16.8946 22.0446C16.8483 22.1241 16.8196 22.1357 16.8182 22.0755C16.8169 22.0218 16.7785 22.0024 16.7311 22.0316C16.6845 22.0604 16.6017 22.0229 16.547 21.9483C16.4582 21.8268 16.4477 21.8256 16.4477 21.937C16.4477 22.0055 16.4209 22.0615 16.3879 22.0615C16.2561 22.0615 15.9932 22.53 15.9647 22.8157C15.9301 23.1643 16.05 23.642 16.233 23.8833C16.4193 24.1291 16.256 24.7203 15.9206 25.0144C15.846 25.0799 15.7849 25.1754 15.7849 25.2268C15.7849 25.2781 15.6969 25.4016 15.5894 25.5012C15.4318 25.6472 15.4139 25.695 15.4973 25.7477C15.5921 25.8077 15.5381 25.8472 15.3946 25.823C15.3622 25.8174 15.187 26.1329 15.0054 26.524C14.8239 26.915 14.6101 27.3265 14.5304 27.4383C14.3707 27.6625 14.335 27.8093 14.4739 27.6704C14.5226 27.6218 14.5902 27.582 14.6241 27.582C14.6957 27.582 14.6045 27.7012 14.2199 28.1099C14.068 28.2713 13.9437 28.4553 13.9437 28.5188C13.9437 28.5822 13.8287 28.8072 13.6882 29.0188C13.5477 29.2303 13.2724 29.7141 13.0764 30.0937C12.8804 30.4733 12.6246 30.933 12.5078 31.1152C12.3911 31.2974 12.2571 31.5458 12.2101 31.6673C12.1631 31.7887 12.0832 31.9957 12.0326 32.1273C11.9821 32.2589 11.9108 32.3665 11.8743 32.3665C11.8378 32.3665 11.8079 32.4162 11.8079 32.4769C11.8079 32.5377 11.7784 32.5873 11.7423 32.5873C11.7063 32.5873 11.61 32.7282 11.5285 32.9002C11.3271 33.3253 10.9575 33.7407 10.73 33.7978C10.6062 33.8288 10.5563 33.881 10.5833 33.9512C10.6229 34.0544 10.1604 34.5747 10.029 34.5747C9.9947 34.5747 9.96664 34.6244 9.96664 34.6852C9.96664 34.7588 9.89299 34.7956 9.7457 34.7956C9.62418 34.7956 9.52475 34.8332 9.52475 34.8791C9.52475 34.9251 9.4419 35.0394 9.34063 35.1333C9.23936 35.2271 9.15651 35.2726 9.15651 35.2345C9.15651 35.1964 9.08197 35.1696 8.9908 35.1749C8.89962 35.1803 8.79194 35.1761 8.75144 35.1655C8.57218 35.1186 8.42849 35.1738 8.42083 35.2924C8.37288 36.0349 8.40588 36.6226 8.50567 36.8003C8.56776 36.911 8.64023 36.98 8.6666 36.9536C8.69304 36.9272 8.71461 36.9609 8.71461 37.0283C8.71461 37.0958 8.68147 37.151 8.64096 37.151C8.60046 37.151 8.56732 37.1997 8.56732 37.2591C8.56732 37.3263 8.61033 37.3507 8.68081 37.3237C8.82428 37.2687 8.7943 37.4649 8.65032 37.5232C8.56621 37.5573 8.56754 37.5824 8.65835 37.6731C8.72456 37.7393 8.76153 37.8968 8.75254 38.0738C8.74289 38.2614 8.78789 38.4378 8.87841 38.568C8.95589 38.6793 8.98387 38.7704 8.94057 38.7704C8.89734 38.7704 8.86191 38.8055 8.86191 38.8483C8.86191 38.8912 8.89505 38.9058 8.93556 38.8808C8.97607 38.8558 9.00921 38.8676 9.00921 38.9071C9.00921 38.9466 8.97445 38.9905 8.93188 39.0047C8.88069 39.0217 8.88857 39.1113 8.95522 39.2697C9.01053 39.4013 9.07851 39.4863 9.1062 39.4586C9.1339 39.4309 9.15901 39.4387 9.16218 39.4758C9.192 39.8334 9.28127 40.0217 9.42098 40.0217C9.52092 40.0217 9.5263 40.0416 9.4511 40.1321C9.38776 40.2084 9.38497 40.2425 9.44212 40.2425C9.48756 40.2425 9.52475 40.2937 9.52475 40.3562C9.52475 40.4187 9.60974 40.5594 9.71366 40.669C9.81758 40.7785 9.94963 40.9565 10.007 41.0645C10.0709 41.1846 10.2191 41.2949 10.3889 41.3486C10.5415 41.397 10.6994 41.4763 10.74 41.525C10.7805 41.5737 10.9296 41.6741 11.0714 41.7482C11.2131 41.8222 11.3789 41.9107 11.4396 41.9449C11.8402 42.1699 12.126 42.2522 12.5628 42.2681C12.8362 42.2781 13.0599 42.2576 13.0599 42.2226C13.0599 42.1878 13.1427 42.1384 13.244 42.113C13.3453 42.0876 13.4281 42.0372 13.4281 42.0012C13.4281 41.965 13.4705 41.9355 13.5223 41.9355C13.6494 41.9355 13.8853 41.6517 13.8311 41.564C13.8072 41.5254 13.8228 41.4939 13.8657 41.4939C13.9085 41.4939 13.9354 41.4559 13.9253 41.4096C13.9152 41.3633 14.0107 41.2971 14.1376 41.2625C14.2696 41.2266 14.3842 41.1388 14.4056 41.0572C14.4308 40.9609 14.5349 40.8979 14.7272 40.8626C14.8837 40.834 15.0726 40.7685 15.1472 40.7172C15.2791 40.6266 15.2791 40.6231 15.1472 40.5933C15.0355 40.5682 15.0537 40.5378 15.2505 40.421C15.3819 40.3431 15.4896 40.2415 15.4899 40.1953C15.4901 40.1491 15.5745 40.0902 15.6774 40.0643C15.7803 40.0385 15.8443 39.9847 15.8197 39.9447C15.7949 39.9048 15.7382 39.8947 15.6936 39.9222C15.6407 39.9549 15.6297 39.9276 15.6619 39.8437C15.6891 39.7731 15.7112 39.7014 15.7112 39.6844C15.7112 39.6675 15.7599 39.6537 15.8194 39.6537C15.8822 39.6537 15.9108 39.6102 15.8877 39.5499C15.8479 39.446 16.123 39.3046 16.2052 39.3868C16.2615 39.4429 16.5214 39.2972 16.5214 39.2094C16.5214 39.1704 16.4697 39.1384 16.4066 39.1384C16.3434 39.1384 16.3136 39.103 16.3404 39.0598C16.3671 39.0165 16.427 38.9955 16.4736 39.0131C16.5706 39.0496 17.0763 38.7844 18.1644 38.1263C18.5828 37.8733 18.956 37.6665 18.9937 37.6668C19.0314 37.667 18.9628 37.733 18.8413 37.8135C18.7198 37.8939 18.6627 37.96 18.7146 37.9602C18.8334 37.9608 19.6028 37.5708 19.7988 37.4106C19.9404 37.2948 19.939 37.2937 19.7619 37.3826C19.5722 37.4778 19.32 37.5394 19.32 37.4904C19.32 37.4752 19.5106 37.371 19.7435 37.259C19.9765 37.147 20.2618 37.0079 20.3776 36.9498C20.5154 36.8809 20.5696 36.8745 20.5344 36.9314C20.495 36.9952 20.5175 36.9995 20.6184 36.9475C20.6942 36.9084 20.7926 36.8896 20.8372 36.9058C20.8818 36.9219 20.9603 36.8843 21.0119 36.8222C21.0808 36.7392 21.0826 36.7094 21.0186 36.7094C20.9708 36.7094 20.9543 36.6727 20.982 36.6279C21.0179 36.5697 21.0465 36.5693 21.0816 36.6261C21.1165 36.6824 21.2119 36.6835 21.4066 36.6298C21.6273 36.5689 21.6908 36.5106 21.7255 36.3371C21.7631 36.1493 21.8015 36.1205 22.0148 36.1205C22.1854 36.1205 22.285 36.0754 22.3396 35.9733C22.383 35.8923 22.3924 35.8266 22.3606 35.8272C22.282 35.8287 21.8052 35.9996 21.7122 36.0597C21.6709 36.0864 21.4682 36.1724 21.2616 36.2508C20.8905 36.3918 20.8865 36.3918 20.9234 36.251C20.9484 36.1553 21.0055 36.1204 21.0978 36.1445C21.1732 36.1642 21.2349 36.1504 21.2349 36.1138C21.2349 36.0772 21.3426 35.9977 21.4743 35.9369L21.7136 35.8264L21.4927 35.8562C21.3712 35.8725 21.1889 35.9066 21.0876 35.9319C20.7279 36.0217 21.3215 35.7723 21.8609 35.6069C22.4244 35.4343 22.6856 35.3261 22.8552 35.195C22.9829 35.0962 23.2234 35.0849 23.2234 35.1776C23.2234 35.2123 23.3064 35.1863 23.4077 35.12C23.509 35.0536 23.6608 35.0173 23.7449 35.0393C23.8516 35.0671 23.8866 35.05 23.8608 34.9825C23.836 34.9181 23.8684 34.8975 23.9579 34.9209C24.0317 34.9402 24.174 34.9025 24.274 34.8369C24.4478 34.7231 24.4611 34.7259 24.5761 34.9013C24.6423 35.0023 24.6964 35.1356 24.6964 35.1978C24.6964 35.26 24.7438 35.3108 24.8019 35.3108C24.8598 35.3108 25.1107 35.5924 25.3592 35.9365C25.6078 36.2806 25.8367 36.5622 25.868 36.5622C25.9656 36.5622 26.0976 36.9203 26.0181 36.9694C25.9785 36.9939 25.9685 37.0531 25.9959 37.1009C26.0233 37.1487 26.0199 37.1646 25.9883 37.1361C25.9015 37.058 25.7072 37.2864 25.7548 37.4106C25.8248 37.5926 25.7268 37.7287 25.4632 37.8156C25.325 37.8612 25.2119 37.9249 25.2119 37.9572C25.2119 37.9895 25.1103 38.0362 24.9861 38.061C24.7254 38.1131 24.7623 38.2551 25.0365 38.2551C25.1583 38.2551 25.2026 38.2843 25.1674 38.3412C25.131 38.4001 25.1552 38.4116 25.2437 38.3777C25.4181 38.3108 25.9028 38.5431 26.3535 38.9095C26.556 39.0742 26.8377 39.2886 26.9795 39.3859C27.1213 39.4833 27.4629 39.782 27.7386 40.0499C28.0144 40.3178 28.2629 40.5371 28.291 40.5373C28.319 40.5375 28.512 40.6664 28.7198 40.8239C28.9364 40.988 29.2349 41.1375 29.4194 41.1745C29.776 41.2457 30.2201 41.1519 30.2201 41.0052C30.2201 40.9555 30.2863 40.8939 30.3674 40.8682C30.4484 40.8425 30.5147 40.7906 30.5147 40.7528C30.5147 40.7151 30.5498 40.6842 30.5926 40.6842C30.6355 40.6842 30.6502 40.7173 30.6251 40.7578C30.5521 40.8758 30.928 40.8433 31.2506 40.7036C31.5513 40.5735 31.6036 40.5078 31.4718 40.4264C31.428 40.3993 31.4708 40.285 31.5767 40.146C31.6751 40.0169 31.7956 39.7521 31.8446 39.5575C31.8999 39.3377 31.967 39.2166 32.022 39.2377C32.0706 39.2563 32.1138 39.2334 32.118 39.1866C32.1534 38.7917 32.2022 38.6609 32.3104 38.6702C32.5115 38.6874 32.4664 38.2212 32.2506 38.0515C32.075 37.9135 32.0743 37.9087 32.2138 37.7893C32.3858 37.6421 32.4029 37.3718 32.2402 37.3718C32.1349 37.3718 32.1349 37.3613 32.2402 37.2562C32.3505 37.1459 32.3944 36.9794 32.3553 36.8198C32.3454 36.7793 32.3236 36.6339 32.3069 36.4968C32.2902 36.3596 32.2447 36.1879 32.2057 36.1152C32.1668 36.0425 32.1349 35.9157 32.1349 35.8335C32.1349 35.7513 32.0699 35.6493 31.9904 35.6067C31.9068 35.562 31.8632 35.484 31.887 35.422C31.9097 35.3629 31.8763 35.2626 31.8126 35.199C31.749 35.1354 31.6575 34.9441 31.6092 34.7739C31.5609 34.6036 31.4524 34.3959 31.3679 34.3123C31.2834 34.2286 31.0983 34.0064 30.9565 33.8184C30.8148 33.6305 30.6076 33.4439 30.4962 33.4039C30.3849 33.3638 30.2937 33.2924 30.2937 33.245C30.2937 33.1701 29.9937 32.7696 29.7735 32.5505C29.6551 32.4328 29.2405 31.9981 29.0601 31.8025C28.9689 31.7037 28.8944 31.5914 28.8944 31.553C28.8944 31.5147 28.8602 31.4832 28.8184 31.4832C28.7245 31.4832 28.2873 30.9957 28.2159 30.8114C28.1835 30.7276 28.1201 30.6927 28.0494 30.7198C27.9637 30.7527 27.9478 30.731 27.9855 30.6329C28.0178 30.5486 28.0075 30.5196 27.9565 30.5511C27.8453 30.6197 26.7586 29.6874 26.7586 29.5233C26.7586 29.3777 26.1788 29.0101 25.7643 28.8928C25.4067 28.7916 24.4936 28.7679 24.3509 28.8561C24.312 28.8801 24.0424 28.8891 23.7518 28.8759C23.4612 28.8628 23.2234 28.881 23.2234 28.9163C23.2234 28.9517 23.1406 28.9806 23.0393 28.9806C22.6202 28.9806 22.41 29.5915 22.6633 30.0734C22.8454 30.4197 23.4444 31.9155 23.4444 32.024C23.4444 32.0954 23.1681 32.2049 22.579 32.3668C21.7828 32.5857 21.3178 32.7535 20.5352 33.1044C20.1146 33.2931 19.223 33.5788 19.1359 33.5528C19.0484 33.5266 18.3359 33.6764 18.0531 33.7805C17.9436 33.8207 17.7282 33.8646 17.5743 33.878C17.216 33.9092 16.3507 34.1273 16.3014 34.1989C16.2267 34.3072 15.5664 34.5849 15.4923 34.5392C15.4507 34.5135 15.4167 34.5276 15.4167 34.5704C15.4167 34.6132 15.3524 34.6484 15.2737 34.6484C15.195 34.6484 15.1103 34.6815 15.0852 34.722C15.0602 34.7625 15.0057 34.7956 14.9641 34.7956C14.8698 34.7956 15.5661 34.1008 15.9874 33.7743C16.3032 33.5297 16.3951 33.3234 16.1883 33.3234C16.0901 33.3234 16.0911 33.3005 16.1967 33.1394C16.2631 33.0382 16.3609 32.9554 16.414 32.9554C16.4672 32.9554 16.575 32.8737 16.6536 32.7739C16.7322 32.6741 16.8174 32.6133 16.843 32.6389C16.8686 32.6646 16.8896 32.6449 16.8896 32.5953C16.8896 32.5457 16.9181 32.5226 16.953 32.5442C16.9879 32.5657 17.1355 32.4507 17.2812 32.2885C17.5401 32.0003 17.5746 31.7777 17.3605 31.7777C17.3041 31.7777 17.2579 31.7426 17.2579 31.6997C17.2579 31.6569 17.2947 31.6445 17.3398 31.6723C17.3848 31.7002 17.4542 31.6773 17.494 31.6215C17.55 31.5429 17.557 31.5491 17.5249 31.6489C17.4577 31.8576 17.6068 31.7962 17.7483 31.5568C17.8201 31.4354 17.9013 31.336 17.9287 31.336C17.9561 31.336 17.9949 31.2934 18.0149 31.2414C18.0361 31.1862 17.9969 31.1468 17.9207 31.1468C17.8489 31.1468 17.8055 31.1867 17.8243 31.2358C17.8431 31.2847 17.7918 31.3604 17.7103 31.404C17.3919 31.5743 17.3962 31.4681 17.7206 31.1485C17.9075 30.9645 18.0805 30.75 18.1053 30.672C18.1301 30.594 18.2313 30.4666 18.3301 30.3888C18.429 30.3111 18.5099 30.2169 18.5099 30.1794C18.5099 30.1419 18.5928 30.0392 18.694 29.9512C18.7953 29.8632 18.8781 29.7509 18.8781 29.7016C18.8781 29.6523 19.077 29.4247 19.32 29.1957C19.5631 28.9667 19.7619 28.7418 19.7619 28.6959C19.7619 28.6501 19.791 28.6125 19.8267 28.6125C19.8622 28.6125 19.9307 28.5176 19.9788 28.4016C20.0269 28.2855 20.1469 28.1474 20.2455 28.0947C20.3441 28.0419 20.4248 27.9701 20.4248 27.9351C20.4248 27.9 20.3502 27.9097 20.2591 27.9565C20.1434 28.016 20.1768 27.9547 20.3695 27.7535C20.5215 27.5951 20.6467 27.4337 20.6481 27.3949C20.6557 27.1642 21.4559 26.6213 21.4559 26.8468C21.4559 26.8822 21.5232 26.8981 21.6057 26.8822C21.7583 26.8529 22.0823 26.5495 22.4133 26.126C22.5146 25.9964 22.6424 25.8901 22.6974 25.8897C22.7707 25.8892 22.7829 25.8349 22.7427 25.6866C22.6551 25.3625 22.6512 25.1933 22.7304 25.1416C22.8286 25.0776 22.8192 24.3923 22.7167 24.1391C22.6721 24.0288 22.6211 23.8557 22.6035 23.7544C22.5859 23.6532 22.5652 23.5539 22.5573 23.5336C22.5495 23.5134 22.5484 23.4679 22.5548 23.4326C22.5613 23.3972 22.5193 23.3865 22.4615 23.4087C22.3846 23.4382 22.3671 23.4078 22.3964 23.2957C22.43 23.1673 22.4104 23.1492 22.2759 23.1844C22.1542 23.2162 22.1201 23.1966 22.1353 23.104C22.1487 23.0228 22.1121 22.9889 22.0266 23.0032C21.9502 23.016 21.8977 22.9786 21.8977 22.9112C21.8977 22.8441 21.8332 22.7976 21.7401 22.7976C21.6535 22.7976 21.5432 22.7437 21.495 22.6779C21.4469 22.6121 21.3181 22.5583 21.2087 22.5583C21.0498 22.5583 21.0185 22.5314 21.0525 22.4241C21.1113 22.2391 20.8205 21.9471 20.6874 22.0574C20.6175 22.1154 20.5687 22.1092 20.5068 22.0348C20.4601 21.9786 20.2911 21.9117 20.1312 21.8861C19.5998 21.8013 19.303 21.6 19.5962 21.5233C19.719 21.4913 19.719 21.4893 19.5962 21.4812C19.5254 21.4764 19.4673 21.4404 19.4673 21.4009C19.4673 21.3615 19.3597 21.272 19.228 21.2022C19.0445 21.1048 19.0187 21.0687 19.1175 21.0477C19.1884 21.0325 19.2464 20.992 19.2464 20.9577C19.2464 20.9232 19.0609 20.911 18.8341 20.9304C18.5186 20.9575 18.4019 20.9392 18.337 20.8525C18.2818 20.7789 18.2166 20.7616 18.1506 20.8033ZM11.0714 21.0678C11.0714 21.1285 11.0844 21.1782 11.1003 21.1782C11.1162 21.1782 11.1483 21.1285 11.1717 21.0678C11.195 21.007 11.1819 20.9574 11.1427 20.9574C11.1035 20.9574 11.0714 21.007 11.0714 21.0678ZM9.42569 21.1656C9.29548 21.3094 9.26919 21.4005 9.35904 21.3967C9.43939 21.3933 9.69127 21.031 9.61328 21.031C9.57711 21.031 9.49271 21.0915 9.42569 21.1656ZM11.8079 21.2886C11.755 21.3523 11.7478 21.399 11.791 21.399C11.8321 21.399 11.8848 21.3493 11.9082 21.2886C11.9314 21.2279 11.939 21.1782 11.925 21.1782C11.911 21.1782 11.8583 21.2279 11.8079 21.2886ZM11.0714 21.4033C11.0714 21.4462 11.1045 21.4608 11.145 21.4358C11.1855 21.4108 11.2187 21.3757 11.2187 21.3579C11.2187 21.34 11.1855 21.3254 11.145 21.3254C11.1045 21.3254 11.0714 21.3605 11.0714 21.4033ZM19.1727 21.5462C19.2161 21.6272 19.2887 21.6934 19.334 21.6934C19.3794 21.6934 19.3565 21.6272 19.2832 21.5462C19.2099 21.4653 19.1373 21.399 19.1219 21.399C19.1065 21.399 19.1294 21.4653 19.1727 21.5462ZM12.7408 21.6689C12.6589 21.7508 12.6858 21.8529 12.7749 21.798C12.8253 21.7668 12.8446 21.7868 12.8239 21.8488C12.8052 21.9051 12.7546 21.9511 12.7116 21.9511C12.6322 21.9511 12.1025 22.4776 12.1025 22.5565C12.1025 22.58 11.9367 22.7744 11.7342 22.9885C11.5317 23.2025 11.366 23.3372 11.366 23.2879C11.366 23.2385 11.4857 23.0748 11.6321 22.9242C11.7786 22.7736 11.8642 22.6503 11.8224 22.6503C11.7122 22.6503 11.2923 23.2019 11.2923 23.3467C11.2923 23.4145 11.2095 23.5784 11.1082 23.7111C11.0069 23.8438 10.9241 23.9786 10.9241 24.0106C10.9241 24.0426 10.8412 24.1455 10.74 24.2394C10.5374 24.4269 10.5169 24.4141 10.6336 24.1728C10.7045 24.0266 10.6974 24.0282 10.5559 24.1909C10.4231 24.3435 10.4165 24.3787 10.5105 24.4313C10.5886 24.475 10.7127 24.4073 10.938 24.1982C11.1126 24.0361 11.2763 23.9031 11.3018 23.9025C11.3272 23.9021 11.3893 23.8023 11.4396 23.6808C11.4899 23.5594 11.5729 23.46 11.6238 23.46C11.714 23.46 12.3211 22.7147 12.3258 22.5983C12.3293 22.5089 12.6754 22.1351 12.7545 22.1351C12.8387 22.1351 12.9924 21.7241 12.9312 21.6629C12.8743 21.6061 12.8013 21.6083 12.7408 21.6689ZM11.2678 21.9266C11.1935 22.0075 11.1464 22.0874 11.1631 22.1041C11.1799 22.1208 11.2713 22.0518 11.3663 21.9508C11.4612 21.8497 11.5083 21.7698 11.4708 21.7732C11.4334 21.7765 11.342 21.8456 11.2678 21.9266ZM13.0885 22.3214C13.0212 22.4238 12.9808 22.5223 12.9985 22.5399C13.0163 22.5577 13.0889 22.4738 13.16 22.3536C13.3173 22.0875 13.259 22.0613 13.0885 22.3214ZM10.8136 22.3559C10.7886 22.3964 10.8032 22.4295 10.8461 22.4295C10.8889 22.4295 10.9241 22.3964 10.9241 22.3559C10.9241 22.3154 10.9095 22.2823 10.8916 22.2823C10.8737 22.2823 10.8386 22.3154 10.8136 22.3559ZM11.8815 22.4295C11.8152 22.4724 11.806 22.5013 11.8588 22.502C11.907 22.5026 11.9669 22.47 11.992 22.4295C12.0485 22.3381 12.023 22.3381 11.8815 22.4295ZM35.9647 22.4576C35.9647 22.5184 35.9978 22.5885 36.0383 22.6135C36.0788 22.6386 36.112 22.6093 36.112 22.5486C36.112 22.4879 36.0788 22.4177 36.0383 22.3927C35.9978 22.3677 35.9647 22.3969 35.9647 22.4576ZM10.1876 22.908C10.1347 22.9716 10.1276 23.0184 10.1707 23.0184C10.2118 23.0184 10.2646 22.9687 10.2879 22.908C10.3112 22.8472 10.3188 22.7976 10.3048 22.7976C10.2908 22.7976 10.238 22.8472 10.1876 22.908ZM9.83643 23.2392C9.78583 23.3202 9.77125 23.3864 9.80403 23.3864C9.8807 23.3864 10.0403 23.2273 10.0403 23.1509C10.0403 23.0424 9.92938 23.0905 9.83643 23.2392ZM11.0447 23.4968C11.0214 23.5575 11.0309 23.6072 11.0658 23.6072C11.1007 23.6072 11.1483 23.5575 11.1717 23.4968C11.195 23.4361 11.1855 23.3864 11.1506 23.3864C11.1157 23.3864 11.0681 23.4361 11.0447 23.4968ZM11.8152 23.552C11.7137 23.7171 11.7139 23.7171 11.8711 23.5774C12.0399 23.4274 12.0617 23.3864 11.9729 23.3864C11.9421 23.3864 11.8711 23.4609 11.8152 23.552ZM27.9369 23.46C27.9369 23.5005 27.9701 23.5336 28.0106 23.5336C28.0511 23.5336 28.0842 23.5005 28.0842 23.46C28.0842 23.4195 28.0511 23.3864 28.0106 23.3864C27.9701 23.3864 27.9369 23.4195 27.9369 23.46ZM9.64045 23.5757C9.51289 23.7032 9.49573 23.7544 9.58065 23.7544C9.61144 23.7544 9.67801 23.6882 9.72861 23.6072C9.83886 23.4307 9.79961 23.4167 9.64045 23.5757ZM11.5977 24.2333C11.3865 24.4966 11.1967 24.7699 11.1759 24.8405C11.1457 24.9428 11.1574 24.9395 11.2335 24.824C11.2861 24.7442 11.4134 24.5952 11.5164 24.4927C11.6973 24.3128 12.0715 23.7544 12.0112 23.7544C11.9949 23.7544 11.8088 23.9699 11.5977 24.2333ZM9.26808 24.0282L9.13876 24.2329L9.30925 24.0693C9.40301 23.9794 9.46119 23.8872 9.43858 23.8646C9.4159 23.842 9.33923 23.9156 9.26808 24.0282ZM8.45684 24.0489C8.4318 24.0894 8.44646 24.1225 8.48932 24.1225C8.53219 24.1225 8.56732 24.0894 8.56732 24.0489C8.56732 24.0084 8.55273 23.9753 8.53484 23.9753C8.51694 23.9753 8.48188 24.0084 8.45684 24.0489ZM7.31529 24.5554C7.31529 24.5959 7.34843 24.6495 7.38894 24.6745C7.42944 24.6996 7.46258 24.6869 7.46258 24.6464C7.46258 24.6059 7.42944 24.5524 7.38894 24.5273C7.34843 24.5023 7.31529 24.515 7.31529 24.5554ZM10.0728 24.6915C10.0003 24.8021 9.87215 24.9501 9.78812 25.0203C9.70401 25.0906 9.67382 25.1492 9.72102 25.1506C9.76823 25.1519 9.90073 25.0536 10.0154 24.9322C10.1301 24.8107 10.2619 24.7113 10.3084 24.7113C10.3548 24.7113 10.4118 24.6617 10.4352 24.6009C10.511 24.4034 10.2128 24.478 10.0728 24.6915ZM10.2293 24.8511C10.1431 24.8848 10.118 24.926 10.1657 24.9554C10.2091 24.9822 10.2855 24.9548 10.3356 24.8946C10.4364 24.7731 10.4325 24.7715 10.2293 24.8511ZM7.06753 24.9694C7.04433 25.0299 7.05545 25.0794 7.09228 25.0794C7.19215 25.0794 7.25416 24.9486 7.1769 24.9009C7.14 24.8781 7.09081 24.9089 7.06753 24.9694ZM9.77214 25.2209C9.4729 25.4033 9.41663 25.4997 9.6202 25.4811C9.70946 25.473 9.7742 25.429 9.76411 25.3833C9.75402 25.3376 9.7812 25.3002 9.82457 25.3002C9.86803 25.3002 9.95324 25.2505 10.014 25.1898C10.1669 25.037 10.0491 25.0521 9.77214 25.2209ZM36.738 25.153C36.763 25.1935 36.7981 25.2266 36.816 25.2266C36.8339 25.2266 36.8484 25.1935 36.8484 25.153C36.8484 25.1125 36.8133 25.0794 36.7705 25.0794C36.7276 25.0794 36.7129 25.1125 36.738 25.153ZM8.71461 25.2634C8.66254 25.3261 8.63655 25.3939 8.6568 25.4141C8.67705 25.4344 8.73619 25.3997 8.78826 25.337C8.84033 25.2743 8.86633 25.2065 8.84608 25.1863C8.82582 25.166 8.76668 25.2007 8.71461 25.2634ZM8.37922 25.601C8.35204 25.6451 8.37148 25.7196 8.42252 25.7667C8.49359 25.8322 8.50317 25.8308 8.46332 25.7603C8.43475 25.7097 8.44646 25.6682 8.48932 25.6682C8.53219 25.6682 8.56732 25.6351 8.56732 25.5946C8.56732 25.4964 8.4413 25.5006 8.37922 25.601ZM9.26698 25.6682C9.24194 25.7087 9.25659 25.7418 9.29946 25.7418C9.34232 25.7418 9.37745 25.7087 9.37745 25.6682C9.37745 25.6278 9.36287 25.5946 9.34497 25.5946C9.32708 25.5946 9.29202 25.6278 9.26698 25.6682ZM8.12402 25.854C8.04618 25.9477 8.05074 25.9585 8.15186 25.9197C8.21829 25.8941 8.27272 25.8437 8.27272 25.8076C8.27272 25.7129 8.23008 25.7262 8.12402 25.854ZM9.44167 25.9443C9.35013 26.061 9.35271 26.0636 9.46951 25.9721C9.59221 25.8759 9.63117 25.8155 9.57056 25.8155C9.55531 25.8155 9.49728 25.8735 9.44167 25.9443ZM8.03962 26.0908C7.93062 26.1152 7.79341 26.3179 7.84858 26.373C7.86029 26.3847 7.95169 26.3326 8.05177 26.2571C8.2454 26.1111 8.24061 26.0459 8.03962 26.0908ZM9.78731 26.1022C9.76485 26.1384 9.79438 26.1864 9.85286 26.2088C9.92378 26.2361 9.94551 26.2141 9.91818 26.1429C9.87068 26.0193 9.84372 26.0109 9.78731 26.1022ZM7.50552 26.5253C7.43541 26.708 7.51274 26.733 7.60649 26.5579C7.65171 26.4734 7.65797 26.4043 7.62034 26.4043C7.58278 26.4043 7.53108 26.4587 7.50552 26.5253ZM36.0853 26.5147C36.1086 26.5755 36.1408 26.6251 36.1567 26.6251C36.1726 26.6251 36.1856 26.5755 36.1856 26.5147C36.1856 26.454 36.1535 26.4043 36.1142 26.4043C36.0751 26.4043 36.062 26.454 36.0853 26.5147ZM7.85086 26.8428C7.86272 27.0008 7.92399 26.9786 7.94918 26.807C7.95795 26.7475 7.93696 26.6987 7.90256 26.6987C7.86817 26.6987 7.8449 26.7636 7.85086 26.8428ZM7.21711 26.8215C7.19008 26.8484 7.16799 26.9202 7.16799 26.9809C7.16799 27.1143 7.26395 27.0331 7.28634 26.8806C7.30395 26.7607 7.28995 26.7487 7.21711 26.8215ZM36.0383 27.1404C36.0383 27.1809 36.0734 27.214 36.1163 27.214C36.1592 27.214 36.1738 27.1809 36.1488 27.1404C36.1237 27.0999 36.0887 27.0668 36.0708 27.0668C36.0529 27.0668 36.0383 27.0999 36.0383 27.1404ZM7.46119 27.2525C7.38334 27.3462 7.3879 27.357 7.48902 27.3182C7.55546 27.2927 7.60988 27.2423 7.60988 27.2061C7.60988 27.1115 7.56724 27.1248 7.46119 27.2525ZM35.0809 27.2876C35.1416 27.3268 35.2245 27.3589 35.265 27.3589C35.3055 27.3589 35.2889 27.3268 35.2282 27.2876C35.1674 27.2484 35.0846 27.2163 35.0441 27.2163C35.0035 27.2163 35.0201 27.2484 35.0809 27.2876ZM20.793 27.3656C20.793 27.4084 20.8262 27.423 20.8667 27.398C20.9072 27.373 20.9403 27.338 20.9403 27.3201C20.9403 27.3022 20.9072 27.2876 20.8667 27.2876C20.8262 27.2876 20.793 27.3227 20.793 27.3656ZM6.43437 27.6696C6.35181 27.7581 6.2842 27.8575 6.2842 27.8904C6.2842 28.0138 6.40933 27.9426 6.56716 27.7293C6.75563 27.4745 6.65738 27.4303 6.43437 27.6696ZM33.9761 27.6556C33.9154 27.6949 33.8988 27.727 33.9393 27.727C33.9798 27.727 34.0627 27.6949 34.1234 27.6556C34.1842 27.6164 34.2008 27.5843 34.1603 27.5843C34.1198 27.5843 34.0369 27.6164 33.9761 27.6556ZM35.6133 27.6694C35.65 27.7795 35.8174 27.84 35.8174 27.7432C35.8174 27.7037 35.7649 27.6513 35.7007 27.6266C35.629 27.5992 35.5953 27.6156 35.6133 27.6694ZM5.80549 27.8765C5.78045 27.917 5.7951 27.9501 5.83797 27.9501C5.88083 27.9501 5.91596 27.917 5.91596 27.8765C5.91596 27.836 5.90138 27.8029 5.88348 27.8029C5.86558 27.8029 5.83053 27.836 5.80549 27.8765ZM35.7299 28.0003C35.783 28.0216 35.8466 28.019 35.8711 27.9945C35.8955 27.9701 35.8521 27.9527 35.7744 27.9559C35.6886 27.9594 35.6712 27.9769 35.7299 28.0003ZM6.50515 28.8702C6.45227 28.9338 6.44513 28.9806 6.48828 28.9806C6.52938 28.9806 6.58211 28.9309 6.60546 28.8702C6.62873 28.8094 6.63632 28.7598 6.62233 28.7598C6.60833 28.7598 6.5556 28.8094 6.50515 28.8702ZM4.47981 29.0542C4.45477 29.0947 4.46744 29.1278 4.50794 29.1278C4.54845 29.1278 4.60207 29.0947 4.62711 29.0542C4.65215 29.0137 4.63948 28.9806 4.59897 28.9806C4.55846 28.9806 4.50485 29.0137 4.47981 29.0542ZM13.9437 29.0953C13.9437 29.1584 13.9768 29.1896 14.0173 29.1646C14.0578 29.1396 14.091 29.088 14.091 29.0498C14.091 29.0117 14.0578 28.9806 14.0173 28.9806C13.9768 28.9806 13.9437 29.0323 13.9437 29.0953ZM3.90292 29.5449C3.80953 29.6382 3.85438 29.7167 4.00109 29.7167C4.08291 29.7167 4.14839 29.6676 4.14839 29.6062C4.14839 29.4942 3.99262 29.4553 3.90292 29.5449ZM18.5836 30.3791C18.5402 30.4601 18.5151 30.5263 18.5278 30.5263C18.5405 30.5263 18.6076 30.4601 18.6769 30.3791C18.7463 30.2982 18.7714 30.2319 18.7327 30.2319C18.694 30.2319 18.6269 30.2982 18.5836 30.3791ZM12.7255 31.0465C12.6987 31.0897 12.6927 31.1408 12.712 31.1601C12.7313 31.1794 12.7667 31.1441 12.7907 31.0816C12.8405 30.9519 12.7981 30.929 12.7255 31.0465ZM15.6846 31.152C15.6613 31.2127 15.6708 31.2624 15.7057 31.2624C15.7406 31.2624 15.7882 31.2127 15.8116 31.152C15.8348 31.0913 15.8253 31.0416 15.7905 31.0416C15.7556 31.0416 15.7079 31.0913 15.6846 31.152ZM15.414 31.4217C15.3297 31.5861 15.3317 31.5881 15.4589 31.4666C15.5321 31.3967 15.5718 31.3193 15.5471 31.2947C15.5224 31.27 15.4625 31.3272 15.414 31.4217ZM16.4661 31.7718C16.3345 31.8821 16.226 32.0031 16.225 32.0407C16.2241 32.0782 16.0421 32.3076 15.8206 32.5505C15.4181 32.992 15.3519 33.1026 15.4903 33.1026C15.5308 33.1026 15.5649 33.0778 15.566 33.0474C15.5672 33.017 15.7163 32.8328 15.8974 32.6379C16.0786 32.4431 16.2271 32.2609 16.2275 32.2331C16.2277 32.2053 16.3475 32.0565 16.4935 31.9026C16.8128 31.5658 16.7978 31.4939 16.4661 31.7718ZM17.1106 31.9292C17.1106 31.9721 17.1437 31.9867 17.1842 31.9617C17.2247 31.9367 17.2579 31.9016 17.2579 31.8837C17.2579 31.8658 17.2247 31.8513 17.1842 31.8513C17.1437 31.8513 17.1106 31.8864 17.1106 31.9292ZM16.4776 32.6058L16.3373 32.7714L16.5214 32.625C16.6227 32.5444 16.7194 32.4699 16.7362 32.4593C16.7531 32.4487 16.7333 32.4401 16.6924 32.4401C16.6514 32.4401 16.5547 32.5147 16.4776 32.6058ZM15.9517 33.0069C15.626 33.3297 15.6195 33.508 15.9436 33.2272C16.1171 33.077 16.3432 32.7373 16.288 32.7098C16.2746 32.7032 16.1232 32.8369 15.9517 33.0069ZM23.3373 33.1465C23.2766 33.2071 23.2146 33.2215 23.1894 33.1807C23.1629 33.1379 23.0305 33.1512 22.8503 33.2147C22.6877 33.272 22.5745 33.2868 22.5988 33.2476C22.6548 33.1571 22.5394 33.1541 22.4464 33.2436C22.408 33.2807 22.2962 33.322 22.1981 33.3356C22.1 33.3491 22.0046 33.4062 21.9861 33.4625C21.963 33.5324 21.9844 33.5461 22.0539 33.5059C22.1138 33.4712 22.1304 33.4745 22.0942 33.514C22.0604 33.5508 21.862 33.6194 21.6532 33.6664C21.3219 33.741 21.2916 33.7386 21.4156 33.648C21.4937 33.591 21.6157 33.5442 21.6865 33.5442C21.7574 33.5442 21.8359 33.5111 21.8609 33.4706C21.9268 33.3642 21.8357 33.3787 21.4006 33.5439C21.188 33.6248 21.014 33.6704 21.014 33.6453C21.014 33.6203 20.9675 33.6384 20.9106 33.6855C20.8313 33.7513 20.7985 33.7492 20.7692 33.6761C20.7439 33.6131 20.729 33.6225 20.7252 33.7038C20.722 33.7712 20.6945 33.8403 20.6641 33.8573C20.6337 33.8742 20.6586 33.8723 20.7194 33.853C21.0097 33.7607 21.2539 33.7484 21.2042 33.8288C21.1758 33.8747 21.0902 33.9123 21.014 33.9123C20.9377 33.9123 20.8549 33.9454 20.8298 33.9859C20.7585 34.1012 21.0253 34.072 21.1606 33.9497C21.2862 33.836 21.9076 33.6835 22.3147 33.6664C22.4429 33.6609 22.5321 33.6313 22.5129 33.6004C22.4939 33.5695 22.6054 33.5442 22.7608 33.5442C22.9162 33.5442 23.1088 33.4995 23.1886 33.4448C23.2685 33.3901 23.4251 33.3233 23.5364 33.2962C23.6478 33.2692 23.739 33.2184 23.739 33.1834C23.739 33.0674 23.4436 33.0403 23.3373 33.1465ZM22.3418 33.4678C22.1664 33.5785 22.286 33.602 22.4869 33.4962C22.5884 33.4427 22.6215 33.3992 22.5606 33.3992C22.4998 33.3992 22.4014 33.4301 22.3418 33.4678ZM23.1299 33.6254C23.0582 33.6667 22.9359 33.6803 22.8582 33.6556C22.7629 33.6254 22.6923 33.6567 22.6413 33.7518C22.5998 33.8294 22.463 33.9134 22.3374 33.9385C22.2117 33.9636 22.1273 34.0139 22.1498 34.0503C22.2046 34.1388 22.0531 34.2571 21.8052 34.3192C21.6941 34.3471 21.6032 34.3987 21.6032 34.4339C21.6032 34.4692 21.6834 34.4615 21.7815 34.4168C21.9103 34.3581 22.0235 34.3577 22.1887 34.4152C22.4197 34.4957 22.6342 34.4641 22.6342 34.3496C22.6342 34.3153 22.5348 34.2999 22.4133 34.3153C22.2918 34.3307 22.1923 34.309 22.1923 34.2671C22.1923 34.2252 22.2418 34.21 22.3022 34.2331C22.4399 34.2859 23.0628 34.0889 23.2829 33.923C23.4226 33.8176 23.4336 33.7792 23.3542 33.6745C23.2832 33.5808 23.2284 33.5688 23.1299 33.6254ZM18.3088 33.9633C18.3804 33.982 18.4799 33.9807 18.5297 33.9606C18.5796 33.9404 18.5209 33.9252 18.3994 33.9266C18.2779 33.9281 18.2371 33.9446 18.3088 33.9633ZM20.6144 34.1242C20.5916 34.1611 20.6224 34.2102 20.683 34.2335C20.7435 34.2567 20.793 34.2456 20.793 34.2088C20.793 34.109 20.6621 34.047 20.6144 34.1242ZM23.7506 34.2067C23.7506 34.3079 23.7673 34.3494 23.7877 34.2987C23.8082 34.2482 23.8082 34.1653 23.7877 34.1147C23.7673 34.0641 23.7506 34.1055 23.7506 34.2067ZM23.164 34.551C23.03 34.6067 22.8215 34.6637 22.7007 34.6778C22.4607 34.7057 22.3765 34.7618 22.3765 34.8937C22.3765 34.9464 22.2387 34.9822 22.0199 34.9863C21.8237 34.9899 21.64 35.0305 21.6116 35.0764C21.5832 35.1222 21.3119 35.2407 21.0088 35.3396C20.5031 35.5046 19.0254 36.1667 19.0254 36.2283C19.0254 36.2671 19.1807 36.2285 19.4217 36.1299C19.5385 36.0822 19.7705 36.012 19.9373 35.9738C20.1042 35.9357 20.5052 35.7709 20.8284 35.6076C21.4647 35.2864 21.6742 35.2298 21.3822 35.458C21.1199 35.663 21.2372 35.6388 21.6906 35.3944C21.9058 35.2784 22.2388 35.125 22.4307 35.0535C22.6225 34.982 22.8171 34.8782 22.8631 34.8228C22.9092 34.7673 23.0422 34.722 23.1588 34.722C23.2753 34.722 23.3707 34.6913 23.3707 34.6537C23.3707 34.6163 23.4288 34.5739 23.4996 34.5596C23.6054 34.5382 23.6088 34.5261 23.518 34.4917C23.4573 34.4688 23.298 34.4954 23.164 34.551ZM21.0508 34.5747C21.0257 34.6152 21.0404 34.6484 21.0833 34.6484C21.1261 34.6484 21.1613 34.6152 21.1613 34.5747C21.1613 34.5343 21.1467 34.5011 21.1288 34.5011C21.1109 34.5011 21.0758 34.5343 21.0508 34.5747ZM21.2349 34.5791C21.2349 34.6219 21.268 34.6366 21.3086 34.6116C21.3491 34.5865 21.3822 34.5515 21.3822 34.5336C21.3822 34.5157 21.3491 34.5011 21.3086 34.5011C21.268 34.5011 21.2349 34.5363 21.2349 34.5791ZM20.4616 34.7956C20.4366 34.8361 20.4678 34.8692 20.5309 34.8692C20.594 34.8692 20.6457 34.8361 20.6457 34.7956C20.6457 34.7551 20.6146 34.722 20.5764 34.722C20.5383 34.722 20.4866 34.7551 20.4616 34.7956ZM21.055 34.9856C20.9355 35.0729 20.9318 35.09 21.0324 35.09C21.0985 35.09 21.1744 35.0547 21.2011 35.0115C21.2792 34.8852 21.2093 34.8729 21.055 34.9856ZM20.4616 35.2413C20.2701 35.3318 20.2186 35.3807 20.3143 35.3809C20.3953 35.3811 20.5444 35.3164 20.6457 35.2372C20.8707 35.0613 20.8407 35.062 20.4616 35.2413ZM22.4732 35.5819C22.5263 35.6032 22.5898 35.6005 22.6143 35.5761C22.6387 35.5517 22.5953 35.5343 22.5176 35.5375C22.4318 35.541 22.4144 35.5584 22.4732 35.5819ZM20.793 35.7525C20.7323 35.7917 20.7157 35.8238 20.7562 35.8238C20.7967 35.8238 20.8796 35.7917 20.9403 35.7525C21.0011 35.7132 21.0176 35.6811 20.9771 35.6811C20.9366 35.6811 20.8538 35.7132 20.793 35.7525ZM19.2052 36.3822C19.0704 36.4902 19.0728 36.4916 19.2464 36.409C19.4718 36.3017 19.5136 36.2677 19.4201 36.2677C19.3805 36.2677 19.2839 36.3192 19.2052 36.3822ZM20.6094 36.4877C20.5836 36.5294 20.6132 36.5418 20.6787 36.5167C20.8063 36.4677 20.8296 36.4149 20.7237 36.4149C20.6856 36.4149 20.6342 36.4477 20.6094 36.4877ZM18.3524 38.1091L18.1785 38.2575L18.381 38.1709C18.4924 38.1232 18.5836 38.0565 18.5836 38.0225C18.5836 37.9307 18.5441 37.9454 18.3524 38.1091ZM16.5489 38.5795C16.0659 38.8042 16.0205 38.8841 16.3758 38.8841C16.5321 38.8841 16.6252 38.8626 16.5825 38.8363C16.5385 38.8091 16.6041 38.7299 16.7342 38.6531C16.8602 38.5787 16.9633 38.4918 16.9633 38.46C16.9633 38.3836 16.9802 38.3788 16.5489 38.5795Z" fill="#ADE838"/>
<path fill-rule="evenodd" clip-rule="evenodd" d="M25.8818 44.2055C25.8292 44.2693 25.6721 44.3594 25.5325 44.4057C25.393 44.4521 25.2788 44.521 25.2788 44.559C25.2788 44.5968 25.2343 44.6278 25.18 44.6278C25.1257 44.6278 25.0368 44.7115 24.9824 44.8138C24.8561 45.0514 24.3711 45.2881 23.9016 45.3412C23.7001 45.364 23.3231 45.4816 23.0639 45.6024C22.8047 45.7233 22.5575 45.8003 22.5146 45.7736C22.4697 45.7457 22.4584 45.7607 22.4881 45.8091C22.5198 45.8607 22.4598 45.9124 22.3327 45.943C22.2188 45.9704 22.0874 46.023 22.0406 46.0598C21.994 46.0966 21.9272 46.1197 21.8922 46.111C21.8574 46.1023 21.6327 46.1851 21.393 46.2951C21.1533 46.405 20.9029 46.4952 20.8365 46.4955C20.7004 46.496 19.3149 46.8722 18.6385 47.0923C18.3937 47.172 17.9763 47.2906 17.7111 47.3559C15.3973 47.9258 13.1042 48.5333 12.9015 48.6301C12.6604 48.7453 12.0728 48.7908 11.9349 48.705C11.8968 48.6813 11.721 48.7133 11.5442 48.7761C11.0539 48.9502 10.6042 48.9745 10.5246 48.8313C10.4883 48.7659 10.4087 48.7318 10.3477 48.7553C10.2849 48.7796 10.1195 48.7008 9.96626 48.5737L9.69568 48.3492L9.45589 48.5038C9.32397 48.5888 9.24185 48.659 9.27338 48.6596C9.30491 48.6603 9.27598 48.7451 9.20898 48.848C9.11891 48.9863 9.10837 49.0608 9.16839 49.1336C9.22723 49.2049 9.22715 49.2547 9.16832 49.3139C9.10941 49.3732 9.11483 49.459 9.1882 49.6258C9.24385 49.7524 9.31455 49.8559 9.34542 49.8559C9.37628 49.8559 9.40151 49.9548 9.40151 50.0757C9.40151 50.2161 9.45923 50.3363 9.56132 50.4082C9.66808 50.4835 9.71898 50.5952 9.71475 50.7451C9.7103 50.9026 9.74999 50.9826 9.84807 51.014C10.0094 51.0655 10.2918 51.4925 10.2918 51.685C10.2918 51.757 10.6652 52.182 11.1217 52.6295C11.7382 53.234 12.0721 53.5005 12.4203 53.666C12.6781 53.7887 12.9253 53.889 12.9696 53.889C13.014 53.889 13.1111 53.9646 13.1856 54.057C13.3056 54.2062 13.3461 54.2154 13.5463 54.1395C13.6903 54.085 13.7805 54.0807 13.7962 54.1279C13.8287 54.226 14.4387 54.3358 14.4897 54.2527C14.5116 54.2169 14.6027 54.1875 14.6921 54.1873C14.7815 54.187 14.9424 54.1407 15.0495 54.0845C15.1566 54.0282 15.3319 53.9918 15.439 54.0037C15.5606 54.0171 15.6337 53.9886 15.6337 53.9277C15.6337 53.8139 15.7958 53.7396 16.0441 53.7396C16.1408 53.7396 16.2507 53.6842 16.2884 53.6164C16.3327 53.5367 16.4127 53.5078 16.5147 53.5347C16.6166 53.5615 16.6551 53.5477 16.6232 53.4959C16.5913 53.4439 16.6208 53.4336 16.7063 53.4666C16.786 53.4974 16.9961 53.4429 17.2332 53.3299C17.7554 53.0813 17.7994 53.0898 17.665 53.4137C17.5517 53.6868 17.4816 54.5 17.5765 54.4407C17.6045 54.4232 17.65 54.5608 17.6776 54.7465C17.7053 54.932 17.7539 55.084 17.7857 55.084C17.8174 55.084 17.8785 54.9244 17.9214 54.7292L17.9993 54.3744L17.9611 54.7479C17.8872 55.4719 17.851 57.7727 17.9136 57.7727C17.961 57.7727 17.974 60.9494 17.9338 62.7393C17.932 62.8215 17.9306 63.1229 17.9309 63.409C17.9311 63.6952 17.8984 63.9623 17.8583 64.0027C17.8104 64.0509 17.7853 64.0399 17.7853 63.9706C17.7853 63.8915 17.7527 63.8994 17.6555 64.002C17.5734 64.0886 17.5557 64.1503 17.6076 64.17C17.6526 64.187 17.6756 64.2754 17.6584 64.3664C17.6413 64.4574 17.6617 64.6159 17.7038 64.7185C17.7722 64.8858 17.779 64.8724 17.7684 64.5899C17.7619 64.4164 17.7797 64.2512 17.808 64.2227C17.8363 64.1942 17.8595 64.3603 17.8595 64.5917C17.8595 64.9366 17.8392 65.0047 17.7474 64.9693C17.6673 64.9383 17.6483 64.9602 17.6809 65.0459C17.7061 65.1118 17.7565 65.1472 17.7931 65.1245C17.8296 65.1018 17.8636 65.186 17.8688 65.3116C17.8739 65.4373 17.8844 65.5821 17.8922 65.6335C17.9226 65.8331 17.7774 65.9882 17.5601 65.9882C17.4391 65.9882 17.3401 66.021 17.3401 66.061C17.3401 66.1014 17.245 66.1147 17.1265 66.0908C17.0051 66.0664 16.8912 66.0833 16.8625 66.13C16.8341 66.1764 16.5956 66.2128 16.3156 66.2134C16.013 66.2141 15.8581 66.2394 15.919 66.2782C16.0198 66.3426 15.8552 66.4083 15.4111 66.4812C14.9338 66.5596 14.2355 66.7681 14.2689 66.8223C14.2893 66.8556 14.2602 66.8651 14.2045 66.8435C14.1487 66.822 14.005 66.8558 13.8853 66.9187C13.7655 66.9815 13.5702 67.0331 13.451 67.0334C13.2162 67.0339 11.7621 67.4002 11.7015 67.4741C11.6811 67.499 11.6143 67.5247 11.5531 67.5312C11.3586 67.5519 9.29645 68.0794 9.14183 68.1479C9.06022 68.1842 8.89329 68.2476 8.77087 68.2889C8.64845 68.3303 8.48152 68.3892 8.3999 68.4197C8.23245 68.4823 7.07089 68.803 6.61928 68.9113C6.45605 68.9505 6.18896 69.0156 6.02573 69.0559C5.39279 69.2124 5.25123 69.2121 4.83034 69.0537C4.59974 68.9668 4.39683 68.9101 4.37939 68.9277C4.36196 68.9452 4.39802 69.0808 4.45952 69.229C4.5211 69.3772 4.55575 69.4985 4.53661 69.4985C4.51747 69.4985 4.57363 69.6414 4.6614 69.8159C4.81609 70.1234 5.48561 70.8429 5.617 70.8429C5.65269 70.8429 5.70307 70.9101 5.72896 70.9922C5.75485 71.0744 5.80515 71.1416 5.84069 71.1416C5.87623 71.1416 6.01586 71.2444 6.15097 71.3702L6.3967 71.5988L6.17412 71.5471L5.95154 71.4955L6.18859 71.7136C6.31894 71.8336 6.46021 72.0233 6.50242 72.1351C6.54464 72.247 6.66335 72.377 6.76618 72.4242C6.86901 72.4713 6.95314 72.5365 6.95314 72.5688C6.95314 72.6663 7.29733 73.0088 7.39533 73.0088C7.44556 73.0088 7.58052 73.0761 7.69522 73.1582C8.26065 73.5635 8.8369 73.8358 9.03611 73.7917C9.14836 73.7669 9.26069 73.7822 9.28755 73.8259C9.34638 73.9217 9.87256 73.9308 10.0517 73.8391C10.1226 73.8028 10.2706 73.7308 10.3806 73.6792C10.4907 73.6276 10.7563 73.4219 10.9708 73.2223C11.1854 73.0227 11.3826 72.8594 11.4091 72.8594C11.4356 72.8594 11.5461 72.7766 11.6546 72.6753C11.7631 72.574 11.9811 72.4562 12.1391 72.4134C12.297 72.3706 12.4666 72.2864 12.5161 72.2264C12.6592 72.0528 13.2617 71.7391 13.4521 71.7391C13.5679 71.7391 13.613 71.7053 13.5872 71.6377C13.5516 71.5442 13.6655 71.4769 14.0981 71.3362C14.1716 71.3123 14.2129 71.3233 14.1899 71.3608C14.167 71.3982 14.0484 71.451 13.9265 71.4779C13.8045 71.5049 13.7047 71.5583 13.7047 71.5967C13.7047 71.6351 13.8299 71.6126 13.9829 71.5468C14.136 71.481 14.4381 71.3797 14.6544 71.3217C14.8707 71.2637 15.1497 71.1631 15.2745 71.0981C15.4081 71.0286 15.5768 70.9992 15.685 71.0265C15.786 71.0521 15.8524 71.0464 15.8326 71.0139C15.8127 70.9815 15.9288 70.9456 16.0906 70.934C16.3707 70.9143 17.0127 70.7647 17.2791 70.6572C17.3819 70.6157 17.412 70.6696 17.4526 70.9677C17.4796 71.166 17.5182 71.4123 17.5384 71.515C17.6135 71.8971 17.6328 72.6559 17.623 74.8386C17.6069 78.415 17.612 78.863 17.6701 79.021C17.7141 79.1405 17.709 79.1479 17.6451 79.0584C17.5791 78.9661 17.5634 78.9792 17.556 79.1331C17.5357 79.5504 17.5758 80.9613 17.6095 81.0161C17.6294 81.0484 17.6083 81.0749 17.5626 81.0749C17.5086 81.0749 17.4963 81.1599 17.5273 81.3177C17.5535 81.4512 17.5865 81.6444 17.6006 81.7471C17.6147 81.8498 17.6501 82.0515 17.6794 82.1952C17.7085 82.339 17.7081 82.4342 17.6785 82.4068C17.6488 82.3795 17.5606 82.4215 17.4824 82.5002C17.2757 82.7082 17.2797 83.5213 17.4885 83.7637C17.6637 83.967 17.6829 84.0445 17.5256 83.913C17.4644 83.8619 17.4122 83.8494 17.4097 83.8852C17.4071 83.921 17.3747 83.8747 17.3378 83.7823C17.2326 83.519 17.1399 83.5828 17.0442 83.9844C16.9636 84.3223 16.991 84.7327 17.1066 84.9213C17.1318 84.9624 17.1547 85.0128 17.1576 85.0333C17.1604 85.0539 17.1883 85.3227 17.2196 85.6308C17.2508 85.9389 17.3229 86.275 17.3798 86.3777C17.481 86.5603 17.4835 86.557 17.4945 86.2283C17.507 85.85 17.4981 85.6771 17.4522 85.4068C17.4243 85.2427 17.4326 85.2472 17.5203 85.4441C17.6594 85.7566 17.713 87.1953 17.5836 87.1452C17.4689 87.101 17.4672 87.1717 17.567 87.7915C17.6303 88.1838 17.6891 88.3141 17.8882 88.5031C18.0222 88.6304 18.1547 88.826 18.1826 88.9378C18.2409 89.1717 18.3561 89.1981 18.4991 89.0104C18.5803 88.9038 18.6108 88.8984 18.6649 88.981C18.7053 89.0427 18.7907 89.0634 18.8829 89.0339C18.9917 88.9992 19.0415 89.0218 19.0591 89.114C19.0821 89.2342 19.0916 89.2345 19.2082 89.1171C19.3861 88.938 19.4175 88.9585 19.4175 89.2531C19.4175 89.3969 19.4425 89.5142 19.4732 89.5136C19.5421 89.5125 20.1624 88.3174 20.1607 88.1888C20.16 88.1375 20.1897 88.0955 20.2268 88.0955C20.2639 88.0955 20.3369 87.9274 20.3892 87.722C20.4415 87.5167 20.5099 87.3486 20.5411 87.3486C20.6514 87.3486 20.6994 86.8174 20.6052 86.6403C20.5505 86.5374 20.5387 86.4257 20.5762 86.3661C20.611 86.3108 20.6399 86.2348 20.6406 86.1972C20.6412 86.1595 20.6816 86.1154 20.7302 86.099C20.7817 86.0818 20.8138 86.1338 20.8072 86.2235C20.8008 86.3083 20.7693 86.3777 20.7372 86.3777C20.7051 86.3777 20.6788 86.4306 20.6788 86.4952C20.6788 86.5659 20.7294 86.6029 20.8057 86.5881C20.9331 86.5634 20.972 86.448 21.1292 85.6308C21.1726 85.4049 21.2733 85.082 21.3531 84.9132C21.4328 84.7445 21.5115 84.4697 21.528 84.3027C21.5445 84.1355 21.5903 83.9375 21.6297 83.8625C21.6692 83.7876 21.7182 83.5996 21.7387 83.4449C21.7591 83.2901 21.8157 83.115 21.8646 83.0558C21.9675 82.931 21.906 81.8128 21.7837 81.5827C21.7427 81.5056 21.7305 81.3754 21.7565 81.2931C21.7824 81.2108 21.8175 81.0356 21.8343 80.9038C21.8512 80.772 21.8917 80.5129 21.9243 80.3281C21.9569 80.1432 21.9592 79.8239 21.9293 79.6185C21.8454 79.0407 21.8091 77.5647 21.879 77.5647C21.9133 77.5647 21.9383 76.1279 21.9345 74.3718C21.9307 72.6157 21.9429 71.0949 21.9615 70.9922C21.9801 70.8895 21.9996 70.7122 22.0048 70.5983C22.0124 70.4308 22.0571 70.3824 22.2369 70.3462C22.4685 70.2996 22.5263 70.2103 22.3667 70.1454C22.3157 70.1247 22.5161 70.1051 22.8119 70.1019C23.238 70.0972 23.3498 70.0727 23.3498 69.984C23.3498 69.8655 23.6103 69.8272 23.677 69.9358C23.6986 69.971 23.8921 69.969 24.108 69.9314C24.5419 69.8557 25.81 69.8474 26.7255 69.9141C27.1437 69.9446 27.2864 69.9346 27.2084 69.8804C27.1357 69.8298 27.123 69.7788 27.1713 69.7314C27.2759 69.629 27.878 69.614 28.0981 69.7084C28.2001 69.7521 28.2483 69.7899 28.205 69.7925C28.1618 69.7951 28.0617 69.85 27.9824 69.9144C27.849 70.023 27.8748 70.0288 28.3305 69.9928C28.6011 69.9714 28.8434 69.9749 28.8689 70.0006C28.9259 70.0579 29.1285 70.0802 30.0044 70.1256C30.3795 70.145 30.7538 70.1972 30.836 70.2415C30.9183 70.2858 31.012 70.3132 31.0442 70.3024C31.0765 70.2916 31.1137 70.3163 31.1267 70.3574C31.1827 70.5327 31.3855 70.6778 31.5493 70.6597C31.6485 70.6487 31.7436 70.6868 31.7664 70.7467C31.7915 70.8124 31.8612 70.8358 31.9483 70.808C32.0939 70.7615 32.7723 71.0485 32.7723 71.1565C32.7723 71.1894 32.8483 71.2163 32.9412 71.2163C33.0342 71.2163 33.1761 71.2615 33.2565 71.3169C33.5252 71.5015 34.7711 71.7589 35.1509 71.7082C35.5752 71.6516 35.9625 71.4677 35.9625 71.3229C35.9625 71.2642 35.995 71.2163 36.0348 71.2163C36.137 71.2163 36.3196 70.8278 36.2806 70.6935C36.2555 70.6072 36.2636 70.6038 36.3159 70.6783C36.3955 70.7921 36.464 70.7207 36.6235 70.3574C36.6775 70.2342 36.7469 70.082 36.7775 70.0194C36.8083 69.9566 36.8382 69.755 36.8441 69.5712C36.85 69.3874 36.8627 69.1699 36.8724 69.0877C36.8856 68.9755 36.8506 68.9424 36.7318 68.9545C36.5697 68.9712 36.4819 68.754 36.4819 68.3368C36.4819 68.2422 36.4318 68.1144 36.3706 68.0528C36.3094 67.9912 36.2593 67.8711 36.2593 67.786C36.2593 67.7009 36.2251 67.6313 36.1833 67.6313C36.1415 67.6313 36.0743 67.544 36.034 67.4374C35.9937 67.3307 35.8967 67.2265 35.8182 67.2059C35.7399 67.1853 35.5899 67.0377 35.4849 66.878C35.3481 66.67 35.2481 66.5927 35.1323 66.6054C35.0079 66.6189 34.9544 66.5679 34.9005 66.3841C34.8486 66.2074 34.7749 66.133 34.6175 66.0982C34.5004 66.0722 34.3629 65.9949 34.3118 65.9263C34.2608 65.8577 34.1692 65.7904 34.1084 65.7769C34.0476 65.7633 33.9809 65.7282 33.96 65.6988C33.8978 65.6108 33.353 65.3095 33.4028 65.3906C33.4888 65.5306 33.349 65.466 33.1112 65.2558C32.9807 65.1405 32.8839 65.0145 32.8961 64.9757C32.9346 64.8532 32.8191 64.7541 32.4894 64.6265C32.117 64.4825 31.9914 64.5132 31.8456 64.7834C31.7872 64.8915 31.7381 64.938 31.7365 64.8866C31.7324 64.7572 31.5852 64.7684 31.5852 64.8982C31.5852 64.9758 31.5081 64.9952 31.2884 64.9729C31.1252 64.9562 30.8535 64.9284 30.6847 64.911C30.5159 64.8936 30.3156 64.9104 30.2395 64.9484C30.1636 64.9863 30.035 65.0509 29.954 65.092C29.767 65.1867 29.7093 65.1867 29.7674 65.092C29.7927 65.0509 29.7779 65.0173 29.7347 65.0173C29.6915 65.0173 29.6562 65.0495 29.6562 65.0888C29.6562 65.1316 29.3718 65.1473 28.9481 65.1281C28.4028 65.1033 28.2526 65.1168 28.2946 65.1873C28.3354 65.2556 28.3222 65.2585 28.2422 65.1986C28.1834 65.1545 28.0183 65.1123 27.8755 65.1048C27.6817 65.0947 27.644 65.11 27.7271 65.1652C27.8133 65.2224 27.7882 65.239 27.6159 65.239C27.4451 65.239 27.4192 65.2222 27.5046 65.1667C27.58 65.1175 27.3459 65.0939 26.7768 65.0931C26.1548 65.0923 25.9516 65.1146 25.9914 65.1794C26.029 65.2407 26.0027 65.2498 25.903 65.2101C25.6712 65.1174 25.4272 65.0849 25.4269 65.1465C25.4268 65.1782 25.0678 65.2075 24.6294 65.2119C24.1908 65.2162 23.6818 65.2419 23.4981 65.269C23.0361 65.3372 22.2159 65.3432 22.0172 65.2796C21.8725 65.2334 21.8583 65.1932 21.9029 64.9546C21.9685 64.602 22.0012 64.5554 22.1504 64.6005C22.319 64.6514 22.5556 64.4586 22.5702 64.2584C22.5769 64.1681 22.6565 64.0446 22.7473 63.9839C22.8381 63.9232 22.9022 63.9041 22.8899 63.9413C22.8651 64.0165 22.9224 64.0464 23.0919 64.0464C23.1925 64.0464 23.3639 63.7589 23.3806 63.5623C23.384 63.522 23.4674 63.4884 23.5658 63.4876C23.6643 63.4869 23.7603 63.4358 23.7791 63.3742C23.8069 63.2837 23.7945 63.2802 23.7152 63.3555C23.5988 63.466 23.4981 63.4769 23.4981 63.379C23.4981 63.3406 23.6125 63.2675 23.7522 63.2167C23.8919 63.1658 24.048 63.0456 24.099 62.9496C24.1599 62.8351 24.2356 62.7889 24.3187 62.8155C24.3998 62.8414 24.509 62.7802 24.6211 62.6461C24.7939 62.4393 24.8459 62.4033 24.9712 62.4033C25.006 62.4033 25.1183 62.3277 25.2206 62.2352C25.4508 62.0273 25.5549 61.9585 26.2062 61.5837C26.7689 61.26 26.911 61.2219 26.911 61.395C26.911 61.4572 26.8451 61.507 26.7626 61.507C26.6802 61.507 26.6142 61.5568 26.6142 61.619C26.6142 61.6807 26.5789 61.7311 26.5357 61.7311C26.4925 61.7311 26.4788 61.7665 26.5054 61.8098C26.5567 61.8934 26.2153 62.2584 25.9542 62.3991C25.8684 62.4454 25.7981 62.5196 25.7981 62.5641C25.7981 62.6467 26.1439 62.4086 26.6206 61.9977C26.7668 61.8716 26.9989 61.7012 27.1363 61.619C27.2737 61.5369 27.4517 61.4302 27.5321 61.3818C27.6124 61.3334 27.7075 61.2411 27.7434 61.1764C27.8116 61.0537 28.0239 61.0125 28.0239 61.122C28.0239 61.1959 27.7768 61.4323 27.6996 61.4323C27.6376 61.4323 27.4977 61.5408 27.1938 61.8244C27.0728 61.9374 26.9482 62.0298 26.9168 62.0298C26.8855 62.0298 26.802 62.0941 26.7315 62.1726C26.6097 62.308 26.6097 62.3168 26.7321 62.3407C26.8227 62.3584 26.7356 62.4499 26.441 62.6467C26.2098 62.8012 26.0207 62.9621 26.0207 63.0043C26.0207 63.079 26.1553 62.9896 27.5417 61.9939C28.4373 61.3505 29.3369 60.839 29.5127 60.8732C29.5916 60.8885 29.6562 60.8672 29.6562 60.8259C29.6562 60.7846 29.7238 60.7613 29.8065 60.7741C29.9067 60.7897 29.9878 60.7352 30.0494 60.6108C30.1134 60.4814 30.2137 60.417 30.3757 60.4011C30.5043 60.3884 30.6496 60.3296 30.6984 60.2704C30.7472 60.2111 30.8194 60.1627 30.8587 60.1627C30.9455 60.1627 31.7336 59.3471 31.7336 59.2572C31.7336 59.2221 31.7839 59.1342 31.8454 59.0618C31.907 58.9896 31.9623 58.8967 31.9683 58.8556C31.9743 58.8146 32.0241 58.6728 32.0789 58.5406C32.2176 58.2066 32.2039 58.0152 32.025 57.7863C31.9348 57.6709 31.9042 57.5785 31.9508 57.5629C32.0971 57.5137 32.0383 57.0942 31.8634 56.9387C31.7716 56.8572 31.7347 56.8095 31.7814 56.833C31.8281 56.8564 31.8866 56.8226 31.9112 56.7578C31.9759 56.5884 31.9705 56.5777 31.8216 56.5777C31.6705 56.5777 31.2884 56.2097 31.2884 56.0641C31.2884 55.965 31.1115 55.7561 31.0276 55.7561C31.0007 55.7561 30.8398 55.6612 30.6699 55.5452C29.781 54.9385 29.4817 54.7587 29.1941 54.6589C29.0204 54.5987 28.8446 54.5226 28.8035 54.4899C28.5821 54.3136 27.7271 53.8924 27.7271 53.9596C27.7271 54.1176 27.5061 54.0333 27.4626 53.8587C27.4207 53.6905 27.247 53.5936 26.9832 53.5913C26.9209 53.5907 26.754 53.6937 26.6122 53.8202C26.4705 53.9467 26.2519 54.1419 26.1264 54.254C26.001 54.3661 25.8544 54.4431 25.8008 54.4251C25.7367 54.4036 25.7236 54.4256 25.7627 54.4892C25.8015 54.5523 25.749 54.6445 25.6113 54.755C25.4386 54.8937 25.4168 54.9441 25.4911 55.0342C25.5566 55.1136 25.5586 55.1519 25.4981 55.1722C25.3899 55.2085 25.5129 55.7188 25.6297 55.7188C25.7732 55.7188 25.8064 55.8055 25.8094 56.1878C25.811 56.4046 25.7638 56.6357 25.6967 56.7387C25.6332 56.8363 25.5289 57.0656 25.4649 57.2481C25.4009 57.4305 25.3126 57.6022 25.2687 57.6296C25.2017 57.6713 25.1627 57.8526 25.1351 58.2519C25.1325 58.2896 25.1089 58.2988 25.0828 58.2724C25.0265 58.2159 24.6852 58.8365 24.6852 58.9954C24.6852 59.0554 24.6435 59.1215 24.5925 59.1423C24.5343 59.1659 24.5456 59.1822 24.6226 59.1858C24.708 59.1899 24.7337 59.2373 24.7067 59.3411C24.6854 59.4233 24.6384 59.4905 24.6024 59.4905C24.5664 59.4905 24.5368 59.5439 24.5368 59.6092C24.5368 59.6745 24.4617 59.795 24.3699 59.8768C24.2364 59.996 24.2299 60.0172 24.3375 59.9827C24.4589 59.9438 24.4568 59.9612 24.3155 60.1609C24.2294 60.2826 24.1266 60.4023 24.087 60.427C24.0475 60.4515 24.0356 60.5052 24.0608 60.5461C24.0858 60.587 23.9837 60.8062 23.8339 61.0334C23.6841 61.2606 23.5807 61.4657 23.6042 61.4893C23.6277 61.5129 23.5916 61.5938 23.5239 61.669C23.4563 61.7442 23.434 61.8058 23.4743 61.8058C23.5545 61.8058 24.3434 61.2644 24.515 61.0915C24.5736 61.0325 24.6546 60.9842 24.6949 60.9842C24.7352 60.9842 24.7481 60.9515 24.7235 60.9115C24.699 60.8715 24.7388 60.7903 24.8119 60.731C25.4354 60.2258 25.7781 59.9595 25.8723 59.907C26.0031 59.8342 25.2291 60.5453 25.082 60.6332C24.8634 60.7637 24.999 60.8297 25.2602 60.7199C25.6095 60.5731 25.5464 60.6285 24.7387 61.1768C23.5153 62.0075 23.3866 62.1048 23.1272 62.3955C22.8475 62.7089 22.5715 62.8837 22.463 62.8163C22.4259 62.7932 22.3714 62.8136 22.3418 62.8617C22.3083 62.9163 22.3203 62.9291 22.3738 62.8958C22.5243 62.8022 22.4685 63.1091 22.3102 63.2456C22.2281 63.3163 22.1501 63.3742 22.1367 63.3742C22.063 63.3742 22.1059 61.684 22.1917 61.2083C22.2472 60.9002 22.2786 60.6237 22.2614 60.5938C22.2443 60.5639 22.2665 60.4039 22.3108 60.2381C22.3595 60.0562 22.3653 59.8895 22.3255 59.8179C22.2829 59.7414 22.3058 59.5629 22.3899 59.3148C22.4616 59.1033 22.5599 58.7287 22.6083 58.4822C22.8128 57.4408 22.8494 57.2809 22.9113 57.1595C22.9471 57.0892 22.9567 56.98 22.9326 56.9168C22.9085 56.8535 22.9184 56.8018 22.9547 56.8018C23.0489 56.8018 23.2053 56.2247 23.2181 55.8301C23.2319 55.4009 23.1439 54.9465 23.0097 54.7538C22.9519 54.6706 22.9046 54.5541 22.9046 54.4948C22.9046 54.2655 22.2795 53.4645 21.8341 53.1231C21.5797 52.9281 21.3333 52.7687 21.2864 52.7687C21.2394 52.7687 21.1806 52.6869 21.1557 52.587C21.1267 52.4707 21.0726 52.4197 21.0059 52.4456C20.9424 52.4701 20.9014 52.4382 20.9014 52.364C20.9014 52.2577 20.6478 52.0967 20.5233 52.1241C20.499 52.1294 20.428 52.0913 20.3657 52.0392C20.3031 51.9869 20.1902 51.9671 20.1132 51.9951C20.0367 52.0229 19.9995 52.0174 20.0307 51.9828C20.0619 51.9483 20.2325 51.9146 20.41 51.9079C20.8147 51.8927 21.4197 51.6481 21.4216 51.499C21.4228 51.4063 21.4342 51.4047 21.4878 51.4899C21.5234 51.5465 21.5897 51.5697 21.635 51.5415C21.6804 51.5133 21.7175 51.5294 21.7175 51.5773C21.7175 51.6251 21.7676 51.645 21.8288 51.6213C21.89 51.5977 21.9401 51.611 21.9401 51.6507C21.9401 51.6905 21.892 51.7231 21.8332 51.7231C21.7744 51.7231 21.7086 51.7518 21.687 51.787C21.6654 51.8221 21.7303 51.835 21.831 51.8156C22.0024 51.7826 22.0519 51.681 22.0175 51.4328C22.0085 51.3679 22.0458 51.3458 22.1176 51.3736C22.1806 51.3979 22.2495 51.3894 22.2708 51.3549C22.3199 51.2749 22.1285 51.1101 22.0631 51.176C22.0363 51.203 22.0143 51.1861 22.0143 51.1385C22.0143 51.0908 22.0802 51.0619 22.1607 51.0743C22.3419 51.1021 22.391 51.1495 22.4158 51.3201C22.4266 51.3935 22.4788 51.4682 22.5319 51.486C22.5851 51.5038 22.6077 51.4845 22.5822 51.4431C22.5568 51.4017 22.6349 51.3479 22.7559 51.3236C22.9139 51.2917 22.9635 51.2472 22.9323 51.1651C22.9083 51.1023 22.9221 51.0509 22.9629 51.0509C23.0827 51.0509 23.141 51.2947 23.037 51.3612C22.9654 51.4069 22.9717 51.4223 23.0625 51.4232C23.1289 51.4238 23.229 51.3675 23.2851 51.2979C23.341 51.2284 23.3489 51.1944 23.3026 51.2224C23.2235 51.2701 23.1306 51.0694 23.1282 50.8455C23.1264 50.6798 23.2713 50.7464 23.3177 50.9326C23.3549 51.0815 23.4009 51.1082 23.5812 51.0852C23.7077 51.0691 23.7813 51.0874 23.7558 51.1288C23.7036 51.2139 23.7963 51.2209 23.9208 51.1411C23.9794 51.1036 23.9861 51.0468 23.9406 50.9743C23.8518 50.833 23.8509 50.7521 23.9381 50.7521C23.9761 50.7521 24.0179 50.8277 24.0309 50.9202C24.0514 51.0654 24.094 51.0858 24.3446 51.0704C24.5041 51.0606 24.6962 50.9964 24.7717 50.9277C24.847 50.859 24.9281 50.8223 24.9517 50.8461C25.0052 50.8999 25.4482 50.7519 25.509 50.6598C25.5336 50.6226 25.643 50.5821 25.752 50.5701C25.9159 50.552 25.9426 50.5723 25.9062 50.6875C25.8605 50.8326 25.9777 50.8825 26.0578 50.7521C26.1393 50.6195 26.4504 50.6641 26.4391 50.8067C26.4328 50.8851 26.4872 50.9424 26.5772 50.9522C26.6588 50.9611 26.8508 51.0002 27.0038 51.0392C27.1986 51.0887 27.282 51.0853 27.282 51.0281C27.282 50.9732 27.3113 50.9758 27.371 51.0359C27.5075 51.1734 27.6529 51.1426 27.6529 50.9762C27.6529 50.894 27.6863 50.8268 27.7271 50.8268C27.7679 50.8268 27.8016 50.852 27.8019 50.8828C27.8026 50.9499 28.1619 51.1256 28.2983 51.1256C28.3515 51.1256 28.3949 51.0881 28.3949 51.0423C28.3949 50.9895 28.4573 51.0002 28.5654 51.0715C28.7046 51.1634 28.7827 51.1681 28.992 51.0971C29.1329 51.0493 29.2982 51.0135 29.3594 51.0175C29.4206 51.0214 29.5708 50.9658 29.6932 50.8938C29.9122 50.7651 29.95 50.7521 30.1046 50.7521C30.1525 50.7521 30.1643 50.6559 30.1354 50.5012C30.0994 50.3077 30.1167 50.2393 30.211 50.203C30.2783 50.177 30.3136 50.1236 30.2894 50.0842C30.2653 50.0449 30.311 49.9775 30.391 49.9344C30.4709 49.8913 30.559 49.7843 30.5867 49.6967C30.6252 49.5745 30.6513 49.561 30.6989 49.6385C30.81 49.8194 30.8367 49.6726 30.7548 49.3311C30.7107 49.1473 30.6709 48.913 30.6662 48.8103C30.6609 48.6932 30.5952 48.5959 30.4902 48.5495C30.3979 48.5088 30.302 48.408 30.277 48.3255C30.1595 47.9388 29.7974 47.2551 29.6876 47.2127C29.6095 47.1825 29.579 47.1119 29.6035 47.0178C29.6251 46.9345 29.5803 46.7914 29.5006 46.6895C29.4229 46.5901 29.3594 46.4865 29.3594 46.4592C29.3594 46.3414 29.1334 46.1977 28.9751 46.2148C28.8549 46.2279 28.8027 46.1949 28.8021 46.1055C28.8016 46.035 28.7348 45.9268 28.6537 45.8651C28.5726 45.8034 28.5335 45.7518 28.5669 45.7505C28.6002 45.7492 28.5583 45.6503 28.4737 45.5307C28.332 45.3304 28.1705 45.2769 28.0559 45.3922C27.9948 45.4538 27.799 45.3816 27.6236 45.2326C27.4899 45.1193 27.4873 45.1217 27.5706 45.2813C27.6598 45.4525 27.6126 45.4864 27.3994 45.404C27.3289 45.3768 27.2796 45.265 27.2761 45.124C27.2729 44.9948 27.2533 44.9314 27.2327 44.983C27.212 45.0346 27.1589 45.0544 27.1147 45.0268C27.0633 44.9948 27.0515 45.0222 27.0823 45.1028C27.1222 45.2078 27.1064 45.216 26.9877 45.152C26.7838 45.0421 26.7275 44.9201 26.8459 44.8447C26.9307 44.7906 26.9291 44.7778 26.8368 44.7697C26.5277 44.7426 26.2433 44.6207 26.2433 44.5153C26.2433 44.4631 26.1834 44.346 26.1103 44.255C25.9919 44.1078 25.9668 44.1024 25.8818 44.2055ZM27.8755 45.6291C27.8755 45.644 27.959 45.7113 28.061 45.7786C28.163 45.8459 28.2465 45.872 28.2465 45.8366C28.2465 45.8011 28.163 45.7338 28.061 45.687C27.959 45.6402 27.8755 45.6141 27.8755 45.6291ZM24.3261 49.7991C24.1959 49.9302 24.2227 49.9959 24.3885 49.9522C24.5425 49.9117 24.5825 49.8184 24.4745 49.7513C24.4402 49.7299 24.3735 49.7515 24.3261 49.7991ZM23.9804 50.0053C24.0056 50.0463 24.0409 50.08 24.059 50.08C24.077 50.08 24.0917 50.0463 24.0917 50.0053C24.0917 49.9642 24.0563 49.9306 24.0131 49.9306C23.9699 49.9306 23.9552 49.9642 23.9804 50.0053ZM24.7153 50.2177C24.7444 50.2652 24.7328 50.304 24.6896 50.304C24.6464 50.304 24.611 50.3376 24.611 50.3787C24.611 50.4198 24.6611 50.4534 24.7223 50.4534C24.8534 50.4534 24.8716 50.2618 24.7479 50.1849C24.6949 50.1518 24.6824 50.1643 24.7153 50.2177ZM24.0175 50.4951C24.0175 50.5591 24.0509 50.5908 24.0917 50.5654C24.1325 50.54 24.1659 50.4877 24.1659 50.449C24.1659 50.4103 24.1325 50.3787 24.0917 50.3787C24.0509 50.3787 24.0175 50.4311 24.0175 50.4951ZM24.3143 50.4907C24.3143 50.5523 24.3477 50.6028 24.3885 50.6028C24.4293 50.6028 24.4627 50.5523 24.4627 50.4907C24.4627 50.4291 24.4293 50.3787 24.3885 50.3787C24.3477 50.3787 24.3143 50.4291 24.3143 50.4907ZM23.3498 50.6774C23.3498 50.7185 23.3852 50.7521 23.4283 50.7521C23.4715 50.7521 23.4863 50.7185 23.4611 50.6774C23.4358 50.6364 23.4005 50.6028 23.3825 50.6028C23.3645 50.6028 23.3498 50.6364 23.3498 50.6774ZM22.9464 50.8796C22.9062 50.9861 22.9147 50.9946 22.988 50.9214C23.0387 50.8707 23.0615 50.8105 23.0387 50.7875C23.0158 50.7645 22.9743 50.806 22.9464 50.8796ZM22.6526 51.1878C22.6316 51.2221 22.663 51.2501 22.7224 51.2501C22.7818 51.2501 22.8304 51.2221 22.8304 51.1878C22.8304 51.1536 22.799 51.1256 22.7606 51.1256C22.7222 51.1256 22.6736 51.1536 22.6526 51.1878ZM21.3087 51.8736C21.283 51.9154 21.231 51.9302 21.1931 51.9066C21.1551 51.883 21.124 51.9172 21.124 51.9827C21.124 52.0786 21.1528 52.0862 21.2724 52.0218C21.354 51.9778 21.4207 51.9094 21.4207 51.8698C21.4207 51.776 21.3675 51.7778 21.3087 51.8736ZM10.0416 55.1981C10.0065 55.2902 9.94074 55.3079 9.77254 55.2707C9.57497 55.227 9.54982 55.241 9.54945 55.3955C9.54915 55.4912 9.49573 55.6703 9.43067 55.7935C9.33696 55.9708 9.32294 56.1344 9.36345 56.5777C9.39157 56.8858 9.41093 57.1715 9.40655 57.2125C9.34401 57.7957 9.34519 57.9221 9.41353 57.9221C9.45723 57.9221 9.46976 57.9793 9.44194 58.0522C9.41464 58.1239 9.37784 58.4348 9.36025 58.7431C9.32813 59.3035 9.2138 59.819 9.08263 59.9942C9.03685 60.0553 9.05421 60.1505 9.13308 60.2717C9.19911 60.3731 9.25312 60.5713 9.25312 60.7121C9.25312 60.9183 9.21929 60.9766 9.07899 61.012C8.94441 61.046 8.9033 61.1095 8.89818 61.2913C8.89455 61.4208 8.94374 61.6069 9.00747 61.7049C9.11639 61.8722 9.11497 61.8799 8.98425 61.8317C8.85329 61.7835 8.85233 61.789 8.96815 61.9238C9.03581 62.0026 9.10637 62.1512 9.12499 62.2539C9.15734 62.4328 9.15912 62.4334 9.16884 62.2682C9.18353 62.0173 9.32731 62.1472 9.32731 62.4114C9.32731 62.5343 9.38051 62.7384 9.44558 62.865C9.54344 63.0555 9.54663 63.1067 9.46413 63.1615C9.38385 63.2147 9.39119 63.2483 9.50167 63.3333C9.57719 63.3914 9.61778 63.4734 9.59188 63.5156C9.54062 63.5991 9.68544 63.9017 9.8184 63.9886C9.86403 64.0184 9.93985 64.1362 9.98681 64.2504C10.0338 64.3645 10.1697 64.5239 10.2889 64.6045C10.4081 64.6852 10.5217 64.8135 10.5416 64.8897C10.5614 64.966 10.6445 65.046 10.7264 65.0676C10.8081 65.0891 10.8929 65.1532 10.9145 65.2101C10.9375 65.2703 11.0045 65.294 11.0752 65.2667C11.1565 65.2353 11.2736 65.3062 11.4304 65.4815C11.7163 65.8013 12.0545 65.9196 12.6752 65.9169C13.2828 65.9143 13.4329 65.8932 13.498 65.8015C13.5271 65.7604 13.5867 65.7268 13.6305 65.7268C13.6743 65.7268 13.7376 65.6819 13.7713 65.6271C13.805 65.5722 13.8531 65.5273 13.8782 65.5272C14.0196 65.5267 14.224 65.4382 14.224 65.3776C14.224 65.3389 14.2548 65.3263 14.2922 65.3496C14.3298 65.373 14.3999 65.2718 14.4481 65.1248C14.4963 64.9778 14.5822 64.8395 14.6391 64.8175C14.696 64.7955 14.7241 64.7475 14.7015 64.7107C14.6789 64.674 14.6982 64.6439 14.7444 64.6439C14.792 64.6439 14.8183 64.5551 14.8052 64.4385C14.7909 64.3115 14.8154 64.2396 14.8691 64.2501C14.9305 64.2621 14.9476 64.1336 14.9272 63.8145C14.8992 63.3775 14.9548 63.1781 15.17 62.9423C15.221 62.8864 15.2679 62.7507 15.274 62.6407C15.2848 62.451 15.3023 62.3378 15.3339 62.2539C15.3977 62.0846 15.4 61.845 15.3386 61.7704C15.2976 61.7207 15.2831 61.6607 15.3065 61.6373C15.3298 61.6137 15.3105 61.5223 15.2636 61.434C15.2022 61.3184 15.2008 61.2461 15.2585 61.1761C15.3173 61.1048 15.3101 61.0547 15.2314 60.989C15.1722 60.9396 15.1012 60.7923 15.0735 60.6616C15.0457 60.5309 14.9976 60.3905 14.9664 60.3494C14.8805 60.2361 14.8894 59.426 14.9813 59.005C15.0261 58.7996 15.1411 58.5276 15.2369 58.4005C15.3327 58.2734 15.4111 58.1101 15.4111 58.0377C15.4111 57.9514 15.4494 57.9209 15.5224 57.9491C15.5836 57.9727 15.6337 57.9585 15.6337 57.9174C15.6337 57.8764 15.8674 57.5666 16.1531 57.229C16.4387 56.8913 16.6724 56.5915 16.6724 56.5628C16.6724 56.5027 16.1511 56.7071 16.0455 56.8087C16.0067 56.846 15.8982 56.8764 15.8043 56.8764C15.7105 56.8764 15.6337 56.909 15.6337 56.9488C15.6337 56.9885 15.5781 56.9997 15.5102 56.9735C15.4272 56.9413 15.4044 56.9543 15.4404 57.0131C15.47 57.0612 15.4626 57.1005 15.4242 57.1005C15.3857 57.1005 15.3359 57.1711 15.3135 57.2574C15.2895 57.35 15.2383 57.3928 15.1886 57.3619C15.1423 57.3332 15.0577 57.3718 15.0005 57.4478C14.9433 57.5238 14.8954 57.5585 14.8941 57.5249C14.8928 57.4913 14.8 57.5285 14.6877 57.6076C14.5755 57.6866 14.442 57.7365 14.391 57.7185C14.34 57.7004 14.2982 57.7234 14.2982 57.7695C14.2982 57.8158 14.1273 57.6925 13.9183 57.4957C13.7093 57.2989 13.4478 57.0538 13.337 56.9511C13.2263 56.8484 12.9799 56.6864 12.7895 56.5911C12.5991 56.4958 12.4434 56.3859 12.4434 56.3468C12.4434 56.3077 12.3599 56.2375 12.2579 56.1907C12.1559 56.1439 12.0724 56.0625 12.0724 56.0098C12.0724 55.8743 11.7755 55.6815 11.5668 55.6815C11.4558 55.6815 11.3771 55.6286 11.3536 55.5382C11.3152 55.3903 10.9829 55.2143 10.708 55.1961C10.6219 55.1905 10.4473 55.1612 10.3198 55.1311C10.14 55.0885 10.0776 55.1036 10.0416 55.1981ZM30.9916 56.1319C30.9916 56.1717 31.0417 56.2043 31.1029 56.2043C31.1641 56.2043 31.2142 56.191 31.2142 56.1749C31.2142 56.1588 31.1641 56.1262 31.1029 56.1025C31.0417 56.0789 30.9916 56.0922 30.9916 56.1319ZM25.7136 60.3843C25.6172 60.465 25.575 60.5322 25.6197 60.5336C25.6644 60.535 25.7614 60.4689 25.8352 60.3867C26.0071 60.1956 25.9402 60.1943 25.7136 60.3843ZM27.1993 60.4487C27.1019 60.5238 26.9722 60.6084 26.911 60.6366C26.8498 60.6649 26.6495 60.7879 26.4659 60.9101C26.2822 61.0324 26.0402 61.1696 25.928 61.215C25.8157 61.2604 25.7239 61.3266 25.7239 61.3621C25.7239 61.3975 25.5883 61.4633 25.4225 61.5083C25.2567 61.5532 25.0648 61.6113 24.9959 61.6373C24.9229 61.6648 24.9888 61.5385 25.1539 61.3344C25.3096 61.1418 25.4025 60.9842 25.3602 60.9842C25.3179 60.9842 25.2092 61.085 25.1187 61.2083C25.0282 61.3315 24.9186 61.4334 24.8753 61.4346C24.832 61.4358 24.4512 61.7719 24.0291 62.1814C23.6071 62.591 23.2327 62.9261 23.1971 62.9261C23.1044 62.9261 22.1648 63.8312 22.0728 64.009C22.0239 64.1038 22.0885 64.0697 22.2496 63.9157C22.3893 63.7821 22.5411 63.6729 22.5868 63.6729C22.6325 63.6729 22.7421 63.5553 22.8304 63.4115C22.9187 63.2678 23.0167 63.1501 23.0482 63.1501C23.0797 63.1501 23.1877 63.0745 23.288 62.9821C23.8068 62.5045 24.3506 62.0705 24.4486 62.056C24.5094 62.0471 24.5792 62.0069 24.6039 61.9668C24.6631 61.8703 25.434 61.5772 25.5077 61.623C25.5394 61.6427 25.5834 61.6293 25.6056 61.5931C25.6278 61.557 25.9263 61.3902 26.2688 61.2225C26.6114 61.0547 26.9891 60.8233 27.1082 60.7081C27.2274 60.593 27.3903 60.4587 27.4704 60.4098C27.5884 60.3376 27.5933 60.32 27.496 60.3164C27.4301 60.314 27.2966 60.3735 27.1993 60.4487ZM23.9062 61.2439C23.743 61.3855 23.6367 61.5027 23.6701 61.5042C23.7034 61.5057 23.8536 61.3897 24.0039 61.2463C24.3553 60.9109 24.2917 60.9094 23.9062 61.2439ZM27.0594 61.1709C27.0086 61.2325 26.9902 61.283 27.0185 61.283C27.0469 61.283 27.1201 61.2325 27.1813 61.1709C27.2425 61.1093 27.2609 61.0589 27.2222 61.0589C27.1835 61.0589 27.1102 61.1093 27.0594 61.1709ZM9.1497 61.7621C9.17455 61.8272 9.22738 61.8805 9.26722 61.8805C9.36478 61.8805 9.30372 61.7107 9.1928 61.6735C9.13857 61.6553 9.12202 61.6895 9.1497 61.7621ZM22.8225 62.27C22.6268 62.4842 22.4789 62.6718 22.4937 62.6868C22.5492 62.7426 22.8891 62.4662 23.1189 62.1784C23.4659 61.7437 23.2391 61.8138 22.8225 62.27ZM25.3634 62.7461C25.2939 62.8996 25.2953 62.9329 25.3701 62.9078C25.4219 62.8905 25.4648 62.8455 25.4654 62.8078C25.466 62.7702 25.493 62.6974 25.5254 62.646C25.5578 62.5947 25.5543 62.5526 25.5177 62.5526C25.4809 62.5526 25.4116 62.6396 25.3634 62.7461ZM23.9338 63.4238C23.8415 63.5364 23.8476 63.5397 23.9989 63.4585C24.1716 63.3659 24.2141 63.2995 24.1007 63.2995C24.065 63.2995 23.9898 63.3554 23.9338 63.4238ZM22.2003 64.3443C22.1743 64.3866 22.2041 64.3991 22.2701 64.3736C22.3986 64.324 22.4221 64.2704 22.3154 64.2704C22.277 64.2704 22.2252 64.3037 22.2003 64.3443ZM25.1011 65.378C25.056 65.4514 25.327 65.4418 25.4009 65.3673C25.4289 65.3391 25.3815 65.316 25.2955 65.316C25.2095 65.316 25.122 65.3439 25.1011 65.378ZM26.7626 65.8015C26.8209 65.8722 26.8258 65.9135 26.7761 65.9135C26.7327 65.9135 26.6793 65.8844 26.6575 65.8489C26.6357 65.8133 26.5251 65.8028 26.412 65.8255L26.2062 65.8667L26.4659 65.9321C26.9582 66.056 27.2102 65.9852 26.9523 65.7954C26.7629 65.6559 26.6457 65.6597 26.7626 65.8015ZM28.9142 65.8388C28.9142 65.8799 28.9476 65.9135 28.9884 65.9135C29.0292 65.9135 29.0626 65.8799 29.0626 65.8388C29.0626 65.7978 29.0292 65.7642 28.9884 65.7642C28.9476 65.7642 28.9142 65.7978 28.9142 65.8388ZM26.9852 66.7307C26.9852 66.8559 27.1168 66.8869 27.1606 66.772C27.1864 66.7042 27.1604 66.6604 27.0942 66.6604C27.0343 66.6604 26.9852 66.692 26.9852 66.7307ZM28.6778 67.1595C28.7313 67.1811 28.7953 67.1784 28.8199 67.1536C28.8446 67.1288 28.8008 67.1112 28.7226 67.1144C28.6361 67.118 28.6186 67.1357 28.6778 67.1595ZM25.903 69.1146C25.9326 69.1628 25.9795 69.1891 26.0073 69.173C26.0351 69.157 26.2347 69.1673 26.4509 69.1962C26.6671 69.225 26.861 69.2208 26.8819 69.1868C26.9027 69.1528 26.7885 69.1251 26.6279 69.1251C26.4673 69.1251 26.2265 69.103 26.0927 69.0761C25.916 69.0405 25.864 69.051 25.903 69.1146ZM27.3562 69.1109C27.3562 69.1543 27.2727 69.1747 27.1707 69.156C27.0687 69.1374 26.9852 69.1521 26.9852 69.1886C26.9852 69.2498 27.5368 69.327 28.4134 69.3886C28.6072 69.4022 28.7658 69.3892 28.7658 69.3598C28.7658 69.3303 28.6586 69.298 28.5276 69.288C28.3966 69.2779 28.2714 69.2422 28.2494 69.2087C28.2274 69.1752 28.0592 69.1531 27.8755 69.1597C27.6919 69.1663 27.5 69.1403 27.4489 69.1019C27.3895 69.0572 27.3562 69.0605 27.3562 69.1109ZM22.9788 69.907C22.9788 69.9736 23.0223 69.9998 23.0896 69.9738C23.1506 69.9502 23.1821 69.9009 23.1595 69.8641C23.0948 69.7586 22.9788 69.7861 22.9788 69.907ZM27.4655 69.8752C27.4413 69.9145 27.4376 69.9466 27.457 69.9466C27.4765 69.9466 27.5452 69.967 27.6098 69.9919C27.6743 70.0169 27.7271 70.0037 27.7271 69.9626C27.7271 69.8581 27.5187 69.7885 27.4655 69.8752ZM28.4691 70.1253C28.4691 70.1962 28.6911 70.2319 28.7307 70.1674C28.7549 70.1281 28.7058 70.096 28.6218 70.096C28.5378 70.096 28.4691 70.1092 28.4691 70.1253ZM5.77221 70.6383C5.78928 70.649 5.87831 70.7214 5.97009 70.7992C6.06187 70.8771 6.13702 70.9211 6.13702 70.8971C6.13702 70.8219 5.90762 70.6188 5.82259 70.6188C5.77793 70.6188 5.75522 70.6275 5.77221 70.6383ZM17.7163 70.9611C17.7192 71.1631 17.7508 71.3955 17.7865 71.4777C17.8297 71.5771 17.8428 71.4691 17.8257 71.1552C17.7949 70.5909 17.7089 70.4384 17.7163 70.9611ZM17.7228 72.4113C17.7228 72.514 17.7397 72.556 17.7602 72.5046C17.7808 72.4533 17.7808 72.3693 17.7602 72.3179C17.7397 72.2666 17.7228 72.3086 17.7228 72.4113ZM17.3401 82.382C17.3401 82.4436 17.3533 82.494 17.3693 82.494C17.3853 82.494 17.4177 82.4436 17.4412 82.382C17.4646 82.3203 17.4515 82.2699 17.412 82.2699C17.3725 82.2699 17.3401 82.3203 17.3401 82.382ZM17.503 82.9048C17.5045 83.028 17.5211 83.0694 17.5399 82.9967C17.5588 82.924 17.5575 82.8232 17.5372 82.7726C17.5169 82.7221 17.5015 82.7815 17.503 82.9048ZM17.4885 83.432C17.4885 83.5371 17.5188 83.6043 17.5557 83.5813C17.5927 83.5583 17.6055 83.4722 17.5842 83.3901C17.5308 83.1846 17.4885 83.2031 17.4885 83.432ZM17.4016 84.8093C17.4172 84.9736 17.4431 85.108 17.4592 85.108C17.4753 85.108 17.4885 84.9736 17.4885 84.8093C17.4885 84.645 17.4626 84.5105 17.431 84.5105C17.3993 84.5105 17.3861 84.645 17.4016 84.8093ZM17.5686 85.0022C17.5721 85.0892 17.5897 85.1069 17.6134 85.0474C17.6348 84.9934 17.6322 84.929 17.6075 84.9042C17.5829 84.8794 17.5654 84.9235 17.5686 85.0022ZM20.9073 85.3009C20.9108 85.3879 20.9284 85.4056 20.9521 85.3461C20.9735 85.2922 20.9708 85.2277 20.9462 85.2029C20.9216 85.1781 20.9041 85.2222 20.9073 85.3009ZM17.1754 87.0618C17.1291 87.2019 17.2026 87.5727 17.2767 87.5727C17.382 87.5727 17.4353 87.3682 17.3838 87.1617C17.3352 86.9666 17.2246 86.9135 17.1754 87.0618Z" fill="#ADE838"/>
</svg>
