<svg width="40" height="92" viewBox="0 0 40 92" fill="none" xmlns="http://www.w3.org/2000/svg">
<path d="M20.2016 49.8299C20.2748 49.733 20.3526 49.7484 20.525 49.8927C20.7168 50.0534 20.8667 50.0859 21.2841 50.0584C21.3571 50.0555 22.4221 50.5491 23.0867 50.8941C23.3793 51.046 23.7627 51.2427 23.938 51.3303C24.422 51.5724 25.051 52.0368 25.1761 52.244C25.2375 52.3456 25.3261 52.6931 25.3728 53.0163C25.4192 53.3389 25.4783 53.6598 25.5042 53.7299C25.53 53.7989 25.5064 53.8577 25.4514 53.8603C25.3963 53.8627 25.3531 53.9112 25.3555 53.9682C25.3616 54.1031 26.0782 54.0042 28.8034 53.4893C30.3813 53.1911 31.3875 53.0577 32.4788 53.0022L33.9817 52.9255L34.6349 53.2797C34.9939 53.4746 35.3198 53.6333 35.3592 53.6316C35.3986 53.6299 35.4951 53.6825 35.5736 53.7491C35.6523 53.816 35.9913 54.0887 36.3269 54.3549C37.0042 54.8923 37.9143 56.0516 37.93 56.397C37.94 56.6189 37.4289 57.3194 37.251 57.3275C37.1554 57.3317 36.9903 57.4189 36.8842 57.5217C36.4572 57.9362 35.4442 58.5729 33.5911 59.5901C33.331 59.7329 33.0919 59.8941 33.0606 59.949C33.0295 60.0039 32.6717 60.1897 32.2657 60.3617C30.9643 60.9132 29.016 62.1129 28.593 62.6229C28.479 62.7604 28.3041 63.0375 28.205 63.2384C28.1059 63.4391 27.98 63.6428 27.925 63.6917C27.8701 63.7403 28.1742 63.7393 28.6004 63.689C29.0269 63.6388 30.0909 63.5354 30.9656 63.4596C32.5337 63.3241 32.5608 63.318 32.8453 63.0192C33.0039 62.8525 33.0733 62.7154 32.9999 62.7152C32.9268 62.7147 32.9721 62.6675 33.1008 62.61C33.4222 62.4667 34.0794 62.6014 34.4661 62.8894C34.5479 62.9502 34.6871 63.0075 34.7758 63.0164C34.8647 63.0253 34.9677 63.0684 35.0039 63.1128C35.0407 63.1572 35.2373 63.2682 35.4412 63.3602C36.0043 63.6145 36.3376 63.9148 36.6112 64.4128C36.9367 65.0051 36.9342 65.2918 36.6013 65.685C36.2678 66.0785 35.6601 66.1729 34.8082 65.9642C34.5037 65.8896 33.9622 65.7959 33.6054 65.7557C32.8001 65.6651 30.0521 65.7582 28.5787 65.9256L27.4757 66.0509L27.369 66.3753C27.3104 66.5541 27.1816 66.8813 27.0826 67.1017C26.9839 67.3212 26.9056 67.5522 26.908 67.6158C26.9109 67.6788 26.8079 67.8289 26.6794 67.9486C26.5512 68.0682 26.4004 68.2617 26.3437 68.3789C26.2561 68.5608 26.2732 68.5939 26.4611 68.5995C26.7761 68.6095 28.2799 69.5536 28.5578 69.9158C28.8307 70.2724 28.8862 70.8301 28.6733 71.0837C28.4899 71.3017 28.0938 73.0872 27.9764 74.2272C27.9532 74.4528 27.9002 74.7766 27.8589 74.947C27.7869 75.2429 27.6985 76.1115 27.7071 76.4347C27.7092 76.5188 27.6775 76.727 27.6367 76.8973C27.596 77.0675 27.5462 77.3684 27.5257 77.5659C27.5053 77.7634 27.4453 78.134 27.3923 78.3891C27.2593 79.0273 27.2208 79.2317 27.1891 79.4705C27.0752 80.3287 26.9666 80.8127 26.8808 80.8459C26.8256 80.8672 26.8077 80.9245 26.8416 80.9737C26.8757 81.023 26.8305 81.039 26.7405 81.0095C26.6474 80.9789 26.5794 81.0099 26.5824 81.0811C26.5868 81.1774 26.553 81.1803 26.4363 81.0934C26.3327 81.0164 26.2647 81.0154 26.2221 81.0903C26.1879 81.1507 26.0693 81.2047 25.9586 81.2095C25.5751 81.2264 25.7589 81.504 26.1881 81.5561C26.4175 81.584 26.633 81.6483 26.6675 81.698C26.702 81.7478 26.8214 81.784 26.9321 81.7791C27.0425 81.7744 27.1344 81.8065 27.1367 81.8502C27.1386 81.894 27.2653 81.9345 27.4183 81.9403C27.5713 81.946 27.7732 82.0106 27.8665 82.0836C27.9598 82.1566 28.2542 82.2991 28.5209 82.3995C28.7877 82.5 29.1187 82.6633 29.2555 82.7627C29.9627 83.2767 30.3322 83.6094 30.3379 83.7361C30.3415 83.8134 30.3839 83.8754 30.432 83.8737C30.5803 83.8672 30.9125 84.6124 31.0174 85.1878C31.0965 85.6217 31.0805 85.8147 30.9392 86.1336C30.8542 86.3259 30.8023 86.5056 30.8119 86.5674L30.8271 86.601C30.8387 86.696 30.5825 87.14 30.3557 87.4089C30.1546 87.6472 29.3972 87.3296 28.6852 86.708C28.3107 86.3812 27.764 85.9691 27.4704 85.7924C27.1769 85.6155 26.7675 85.336 26.5601 85.1711C26.3527 85.0062 26.1335 84.8398 26.0735 84.8017C26.0133 84.7633 25.7682 84.5799 25.5284 84.3939C25.2886 84.2078 24.9729 83.969 24.8274 83.863C23.9607 83.2319 23.255 82.6853 23.084 82.5124C22.0615 81.478 21.808 81.2796 21.6793 81.4156C21.5455 81.5578 20.5867 82.3596 19.4052 83.3174C18.6935 83.8943 16.4956 85.4976 15.4078 86.2333C14.6451 86.749 13.8432 87.1992 13.4651 87.3236C13.3244 87.3699 13.0568 87.5073 12.8707 87.6297C12.6847 87.7519 12.2717 87.9204 11.9528 88.0038C11.6341 88.0872 10.9585 88.2896 10.4518 88.4538C9.49066 88.7653 7.56107 89.1282 7.30218 89.0465C7.2087 89.0169 7.3049 88.927 7.55934 88.8064C8.40041 88.4075 10.1301 87.4216 10.755 86.9848C12.3156 85.8938 15.267 83.4127 16.2324 82.3793C16.3576 82.2455 16.4996 82.1338 16.5479 82.1317C16.5963 82.1293 16.6566 82.0653 16.6823 81.9898C16.7311 81.8448 16.3743 81.9262 15.1611 82.3361C14.8797 82.4311 14.4565 82.5721 14.221 82.6497C13.4615 82.9001 13.0383 82.7367 12.1482 81.8504C11.6454 81.3494 11.3928 80.4934 11.5911 79.9622C11.6579 79.7833 11.7137 79.6133 11.7151 79.5852C11.7169 79.5564 11.7713 79.4286 11.8363 79.3002C11.9489 79.0784 12.6081 76.4496 12.801 75.4528C13.1467 73.6663 13.233 73.142 13.3043 72.3951C13.3943 71.4505 13.2976 71.1452 12.9118 71.1535C12.422 71.1646 11.9624 70.8559 11.6371 70.2972C11.4624 69.9971 11.3169 69.6902 11.3135 69.6156C11.3101 69.5412 11.2655 69.5087 11.2145 69.5428C11.1634 69.5771 10.9899 69.6291 10.8296 69.6587C10.6691 69.6884 10.2675 69.7774 9.93714 69.8567C8.74233 70.1436 8.11654 70.1069 7.21346 69.6964C6.47812 69.3621 6.34058 69.165 6.74154 69.0204C6.86807 68.9749 7.63436 68.5815 8.44463 68.147C9.25482 67.7124 10.3108 67.1649 10.7903 66.9302L11.6619 66.5033L11.9886 65.652C12.1684 65.1838 12.4912 64.2076 12.7054 63.4823L13.0944 62.1629L12.8876 61.6687C12.7255 61.2803 12.7044 61.1268 12.7893 60.9526C12.8841 60.7581 12.979 60.7305 13.565 60.7236C14.4419 60.7131 15.2394 61.0235 15.2969 61.3982C15.3143 61.5124 16.051 61.4489 16.4937 61.2951C16.6625 61.2365 17.3314 61.0304 17.9797 60.837C19.378 60.4198 22.3736 59.3861 22.9157 59.1335C23.1263 59.0354 23.7477 58.8268 24.2969 58.6703C25.3915 58.3581 26.0114 58.0998 26.271 57.8473C26.4231 57.6994 26.51 57.703 27.1594 57.887C27.5551 57.999 27.9186 58.1475 27.9678 58.2166C28.0167 58.2857 28.1101 58.3403 28.1756 58.3374C28.4001 58.3276 29.0906 58.8244 29.3561 59.1871C29.7844 59.7725 29.7989 59.8725 29.5024 60.1679C29.3549 60.3149 29.285 60.4335 29.3469 60.4309C29.4091 60.4282 29.612 60.2692 29.7975 60.0785C29.983 59.888 30.1707 59.7419 30.2142 59.754C30.2574 59.7658 30.2912 59.7189 30.2897 59.649C30.288 59.5788 30.4847 59.2827 30.7267 58.9912C31.3883 58.194 32.4757 56.1325 32.3142 55.9822C32.1345 55.8205 29.5288 55.9776 27.9447 56.246C27.6935 56.2885 27.07 56.3858 26.5593 56.4621C26.0487 56.5383 25.3529 56.6631 25.0135 56.7391C24.6742 56.8149 24.1186 56.935 23.779 57.0061C22.8672 57.1972 22.8048 57.2129 22.1357 57.4204C21.5175 57.612 21.3932 57.642 20.5427 57.8031C20.2878 57.8513 19.8489 57.9618 19.5673 58.0488C19.2857 58.1359 18.8248 58.2742 18.5428 58.3554C18.2608 58.4365 17.7991 58.5761 17.5175 58.666C17.2359 58.7557 16.9127 58.8505 16.7996 58.8768C16.6857 58.9034 16.1332 59.0688 15.5706 59.2443C15.0072 59.4201 14.4587 59.5852 14.3523 59.6113C14.2459 59.6374 13.9701 59.7337 13.7391 59.8253C13.5082 59.917 13.0322 60.0601 12.6819 60.1431C11.7795 60.357 11.5188 60.6877 10.4828 62.9409C9.73873 64.5592 8.77837 66.3248 8.42706 66.7196C8.36876 66.7851 8.16786 66.9258 7.98054 67.0317C7.69795 67.1915 7.57506 67.2076 7.26235 67.1263C6.86693 67.0234 6.22823 66.5805 6.32431 66.4759C6.3554 66.4425 6.25266 66.1918 6.09621 65.9191C5.73714 65.2931 5.64599 64.7533 5.76497 63.967C5.84352 63.4478 5.82839 63.2752 5.67549 62.9006C5.47476 62.4088 5.54601 62.1867 5.9089 62.1708C6.25246 62.1558 6.689 61.7372 6.94678 61.1764C7.08164 60.8833 7.27038 60.5231 7.36571 60.3757C7.61126 59.9959 8.85175 57.9259 8.90902 57.8007C8.93569 57.7426 9.12002 57.4274 9.31867 57.0992C9.51706 56.7713 9.67855 56.4704 9.67792 56.4292C9.67614 56.3898 9.78889 56.1955 9.92852 55.9977C10.117 55.7309 10.1627 55.5678 10.1057 55.3672C10.0636 55.2185 10.0093 55.0285 9.98531 54.9453C9.93927 54.7848 10.0804 54.5327 10.2198 54.5263C10.2658 54.5243 10.3797 54.5917 10.4728 54.6754C10.6449 54.8301 10.902 54.7656 10.7851 54.5969C10.6797 54.4449 10.8107 54.4852 11.4282 54.7932C12.2635 55.2097 12.9211 55.801 13.253 56.4344C13.5184 56.9409 13.5279 56.9987 13.389 57.2289C13.2493 57.4603 13.2521 57.4736 13.4265 57.413C13.5297 57.3771 14.0718 57.2294 14.6309 57.0857C16.7385 56.5441 20.1973 55.4615 20.4088 55.2773C20.7485 54.9806 21.1877 53.2294 21.0672 52.6516C20.9831 52.2488 20.7832 51.9196 20.6263 51.9264C20.5432 51.93 20.5144 51.866 20.5504 51.7597C20.5825 51.6652 20.5784 51.629 20.5326 51.6451L20.4144 51.711C20.3686 51.7271 20.3645 51.6909 20.3965 51.5964C20.4348 51.4837 20.4026 51.4261 20.3031 51.4305C20.2195 51.4341 20.148 51.3681 20.1441 51.2841C20.1403 51.2 20.0959 51.1329 20.0456 51.135C19.7728 51.1469 19.879 50.2571 20.2016 49.8299ZM24.8933 70.8883C24.9167 70.4802 24.6993 70.469 23.7803 70.8322C23.3874 70.9875 22.72 71.2285 22.2978 71.3674C21.8761 71.506 21.4826 71.6615 21.4226 71.7133C21.3633 71.7649 21.2254 71.8246 21.1167 71.8462C21.0082 71.8676 20.874 71.9132 20.8182 71.9474C20.7626 71.9817 20.4859 72.0773 20.2039 72.1595C19.58 72.3413 18.5927 72.7149 18.1111 72.9506C17.9155 73.0462 17.4216 73.16 17.0138 73.2037L16.2715 73.2836L16.1439 73.7331C16.0735 73.9797 16.0355 74.1996 16.0591 74.2227C16.0851 74.2437 16.6417 74.0553 17.2976 73.804C17.954 73.5524 18.5605 73.3292 18.646 73.307C18.7306 73.2852 18.927 73.2119 19.0826 73.1449C19.4662 72.9793 19.8674 72.8712 20.2089 72.8416C20.365 72.8281 20.4909 72.7805 20.4896 72.7353C20.4878 72.6903 20.5311 72.677 20.5851 72.7066C20.7003 72.7691 21.6437 72.4277 21.7212 72.2953C21.7819 72.1946 22.8525 72.4412 23.3627 72.6739C23.7393 72.8458 23.8419 73.0378 23.8008 73.4902C23.7854 73.659 23.7721 73.855 23.7713 73.9255C23.7703 73.9956 23.7034 74.0557 23.6228 74.0592C23.5423 74.0628 23.4624 74.1057 23.4452 74.1541C23.4097 74.2479 21.5788 74.8033 20.8092 74.9537C20.5603 75.0023 20.1915 75.1197 19.9899 75.214C19.7884 75.3085 19.4385 75.4104 19.2131 75.4402C18.9876 75.4699 18.6422 75.5771 18.4456 75.6796C17.9765 75.9242 16.7181 76.2192 16.3859 76.1623C16.1869 76.1281 16.163 76.1403 16.2846 76.2137C16.4946 76.3405 16.3344 76.3483 16.071 76.2242C15.9299 76.1577 15.867 76.1608 15.87 76.2331C15.8726 76.2911 15.8273 76.3406 15.7693 76.3432C15.707 76.3458 15.6857 76.232 15.7178 76.0649C15.8192 75.5378 15.5774 75.9692 15.3329 76.7516C15.2036 77.1658 15.0988 77.5262 15.0989 77.5548C15.1034 77.646 15.7816 77.5364 16.2334 77.3714C16.486 77.2792 16.7814 77.182 16.8905 77.1555C16.9993 77.129 17.4375 76.9816 17.8632 76.8277C19.1896 76.3483 20.1647 76.0573 20.7468 75.9673C21.6614 75.8258 21.7646 75.7949 21.9269 75.6205C22.1079 75.426 22.1173 75.4249 22.3581 75.5349C22.4595 75.5811 22.7503 75.6697 23.0042 75.7319C23.6532 75.891 23.8818 76.0873 23.9381 76.532C23.9842 76.896 23.9666 76.9208 23.4686 77.1844C23.1633 77.346 22.7656 77.4671 22.5012 77.4787C22.0468 77.4988 20.1342 78.0019 19.6209 78.2363C19.4678 78.3062 19.2668 78.3578 19.1735 78.3511C19.0801 78.3441 18.7336 78.44 18.4038 78.5642C16.6165 79.2376 16.3167 79.312 15.8873 79.1933C15.6629 79.1313 15.452 79.1098 15.4189 79.1447C15.3858 79.1792 15.2467 79.0988 15.1099 78.9659L14.8606 78.7238L14.7057 79.2195C14.6203 79.4921 14.4931 79.8921 14.4236 80.1069C14.3546 80.32 14.2988 80.5121 14.299 80.5357C14.3021 80.605 15.681 80.2096 15.7806 80.111C15.8325 80.0587 15.9568 80.0123 16.0565 80.0079C16.2882 79.9977 18.8377 79.0593 18.9024 78.9604C18.9306 78.919 19.1345 78.7865 19.3566 78.6655C19.5796 78.5439 19.8945 78.3657 20.0565 78.2697C20.3235 78.1117 20.3816 78.109 20.6778 78.2401C20.8576 78.3197 21.1181 78.478 21.2565 78.5917C21.3947 78.7054 21.5293 78.7796 21.5552 78.7563C21.5817 78.7334 21.8579 78.7875 22.1695 78.8766C22.6001 78.9999 22.7841 79.1155 22.9309 79.3569L23.1239 79.6758L22.768 80.2C22.5724 80.4879 22.3448 80.7846 22.2616 80.8589C22.0251 81.0701 22.0861 81.1354 22.506 81.1227C22.72 81.1163 23.0592 81.1312 23.2602 81.1556C23.4612 81.1801 23.8134 81.2157 24.0428 81.2351C24.2721 81.2546 24.5778 81.2911 24.7219 81.3164C24.8658 81.3417 25.1482 81.3744 25.3488 81.3891C25.6431 81.4108 25.6579 81.4044 25.4274 81.3553C25.0627 81.2773 24.2118 80.639 23.9368 80.2369C23.6656 79.8401 23.6098 79.0128 23.8447 78.8695C23.9348 78.8145 24.0174 78.6589 24.0287 78.5241C24.0403 78.3874 24.1748 77.3068 24.3275 76.1217C24.5778 74.1792 24.8458 71.7003 24.8933 70.8883ZM23.2432 68.12C23.1303 68.1501 22.7617 68.2712 22.4243 68.3891C22.0868 68.5071 21.5573 68.6903 21.2479 68.7963C20.9392 68.902 20.618 69.019 20.5332 69.0568C20.4492 69.0944 20.2965 69.1454 20.1941 69.1697C20.0918 69.194 19.8075 69.3145 19.5628 69.4373C19.3181 69.56 19.0473 69.6634 18.9611 69.6674C18.8752 69.6711 18.6995 69.7195 18.5709 69.7746C18.4423 69.8298 17.7847 70.0744 17.1102 70.3177C16.4368 70.5605 15.8655 70.7747 15.8401 70.7945C15.8165 70.8138 15.8851 70.9912 15.9915 71.1876C16.1256 71.4351 16.2326 71.5241 16.3407 71.478C16.4268 71.4411 16.8065 71.3279 17.1839 71.2264C17.5613 71.125 18.0304 70.9722 18.2265 70.8868C18.5412 70.7496 20.0301 70.2073 20.1677 70.1797C20.378 70.1382 21.2632 69.8273 21.3438 69.7666C21.3996 69.7249 21.698 69.5982 22.0068 69.4849C22.316 69.3714 22.9002 69.1328 23.3048 68.954C23.7091 68.7753 24.1341 68.624 24.2498 68.6187C24.3648 68.6137 24.4573 68.5728 24.4559 68.5275C24.4494 68.4397 23.6331 68.025 23.5158 68.0502C23.4787 68.0584 23.356 68.0899 23.2432 68.12ZM18.447 66.5494C18.6825 66.1632 18.6951 66.1653 17.8668 66.4511C17.5294 66.5676 16.931 66.773 16.5372 66.9081C16.1434 67.0432 15.7522 67.1783 15.6678 67.2078C15.5834 67.2372 15.1657 67.3989 14.7395 67.5668L13.9633 67.8721L13.8759 68.3472C13.7328 69.1169 13.7812 69.2817 14.1475 69.2657C14.4419 69.2528 15.9526 68.6954 16.7557 68.3041C16.9514 68.2088 17.2496 68.0737 17.4178 68.0038C17.6148 67.9218 17.8156 67.7012 17.9816 67.3834C18.1235 67.1122 18.3326 66.737 18.447 66.5494ZM24.8104 64.4774C24.7679 64.4603 24.4824 64.5167 24.1738 64.6035C23.8637 64.6909 23.4478 64.7928 23.2493 64.8304C22.5282 64.9665 21.4092 65.3541 21.2517 65.5214C21.164 65.6157 21.1405 65.6904 21.1995 65.6879C21.2591 65.686 21.2255 65.8939 21.1237 66.1596C21.0235 66.421 20.9447 66.7003 20.948 66.7803C20.9516 66.8597 20.9 66.9271 20.8334 66.9301C20.7674 66.933 20.7358 66.9558 20.7624 66.9801C20.7956 67.0024 21.5283 66.8042 22.3957 66.538C23.2666 66.2707 24.0655 66.0388 24.1714 66.023C24.2771 66.0073 24.4046 65.9153 24.4546 65.8178C24.6252 65.4837 24.8834 64.5102 24.8104 64.4774ZM16.0803 62.7466C16.0135 62.7496 15.9939 62.8465 16.0329 62.9784C16.0755 63.122 16.0056 63.3843 15.8428 63.6926C15.7011 63.9607 15.4448 64.4425 15.2736 64.7629C14.9502 65.3682 14.8843 65.5828 15.0882 65.3636C15.1536 65.2934 15.2828 65.2327 15.3755 65.2286C15.4682 65.2245 15.9774 65.0581 16.5066 64.8586C17.036 64.659 17.9007 64.3695 18.4282 64.2159C19.4902 63.9066 19.6734 63.794 19.6357 63.474C19.6216 63.3543 19.6399 63.1513 19.6762 63.0235C19.7565 62.7423 19.7928 62.7414 18.8839 63.0324C18.4777 63.1624 17.9714 63.2764 17.7583 63.2858C17.3246 63.3047 16.207 62.9822 16.1996 62.8361C16.197 62.7843 16.1432 62.7439 16.0803 62.7466ZM25.8226 60.6425C25.8808 60.4702 25.7526 60.4313 25.5947 60.5735C25.5416 60.6207 25.1536 60.7574 24.7314 60.8778C24.3084 60.9982 23.8245 61.1622 23.6567 61.2423C23.489 61.3223 23.2136 61.4281 23.0444 61.4778C22.6875 61.5822 22.656 61.5932 22.154 61.7862C21.7379 61.946 21.7262 62.0472 22.035 62.8257C22.2075 63.2607 22.154 63.2586 23.6787 62.8797C24.1024 62.7743 24.6346 62.652 24.8611 62.6081C25.0877 62.5641 25.2988 62.4971 25.3306 62.4591C25.3626 62.4197 25.4736 62.0327 25.5777 61.5977C25.6817 61.1623 25.7922 60.7327 25.8226 60.6425Z" fill="#ADE838"/>
<path fill-rule="evenodd" clip-rule="evenodd" d="M20.3629 3.71673C20.1755 3.8621 20.1392 3.92956 20.1744 4.06751C20.2195 4.24455 20.0581 4.49695 19.8997 4.49695C19.8554 4.49695 19.7678 4.53563 19.7051 4.58283C19.6091 4.65503 19.6016 4.72332 19.6579 5.01192C19.8113 5.79777 19.4131 7.88994 18.8472 9.27155C18.6738 9.6948 18.5188 10.169 18.5104 10.302C18.5056 10.3776 18.4546 10.4775 18.3971 10.524C18.304 10.5992 18.304 10.6163 18.3971 10.6775C18.4546 10.7155 18.4693 10.7469 18.4297 10.7475C18.3901 10.7481 18.3509 10.8305 18.3424 10.9306C18.3235 11.1557 17.9226 11.5515 17.6535 11.6108C17.4685 11.6516 17.3694 11.6893 16.7748 11.9455C16.6502 11.9992 16.3283 12.111 16.0597 12.1939C15.5716 12.3447 15.3162 12.4439 14.8182 12.6764C14.6727 12.7444 14.4539 12.8215 14.3321 12.8478C14.2103 12.8742 14.0625 12.9211 14.0037 12.9522C13.9449 12.9832 13.748 13.0275 13.5661 13.0506C13.3843 13.0736 13.1959 13.1314 13.1475 13.1789C12.99 13.3334 12.6969 13.5005 12.5274 13.5322C11.9257 13.6451 11.6369 13.6887 11.4438 13.6958C11.3227 13.7002 11.1205 13.7465 10.9945 13.7987C10.8334 13.8654 10.7316 13.8729 10.652 13.8239C10.4876 13.7228 9.71889 13.948 9.77108 14.0819C9.79187 14.1354 9.7819 14.1956 9.74875 14.2158C9.64214 14.2806 9.75838 14.5325 9.964 14.6822C10.1466 14.8151 10.257 15.004 10.0941 14.9049C10.0558 14.8815 10.0244 14.9102 10.0244 14.9685C10.0244 15.1087 10.7607 15.6744 11.0709 15.7725C11.2053 15.8149 11.3622 15.8898 11.4198 15.9388C11.5468 16.0469 12.0891 16.2455 12.885 16.4754C13.598 16.6813 14.8003 16.7818 15.5015 16.6941C15.6166 16.6797 15.9149 16.6474 16.1643 16.6224C16.4138 16.5974 16.6807 16.562 16.7574 16.5436C16.8392 16.5241 16.8651 16.5335 16.8202 16.5663C16.7104 16.6464 16.5669 16.9315 16.6363 16.9315C16.6684 16.9315 16.7323 16.8944 16.7783 16.8491C16.8395 16.7889 16.8621 16.788 16.8621 16.8456C16.8621 16.8891 16.8132 16.9516 16.7535 16.9845C16.6103 17.0634 16.4319 17.569 16.5269 17.6269C16.6116 17.6783 16.4763 17.962 16.3671 17.962C16.3278 17.962 16.3145 17.992 16.3375 18.0287C16.3892 18.1111 16.2222 18.4419 15.9116 18.8724C15.7819 19.052 15.6759 19.2184 15.6759 19.2422C15.6759 19.3024 15.3885 19.5421 15.3164 19.5421C15.2839 19.5421 15.2573 19.4648 15.2573 19.3703C15.2573 19.2759 15.2305 19.1986 15.1977 19.1986C15.1649 19.1986 15.0513 19.1194 14.9453 19.0226C14.8352 18.9222 14.7072 18.8637 14.6471 18.8864C14.5887 18.9085 14.5017 18.8721 14.4516 18.8047C14.3392 18.6533 13.7415 18.6447 13.6483 18.7931C13.6151 18.8461 13.5631 18.8936 13.5329 18.8987C13.2907 18.9395 13.1308 19.0577 12.8854 19.3777C12.6745 19.6528 12.6165 19.7794 12.6603 19.8685C12.7267 20.0035 12.7204 20.2398 12.647 20.3565C12.5828 20.4589 12.8943 21.1222 13.0067 21.1222C13.0549 21.1222 13.0943 21.1531 13.0943 21.1909C13.0943 21.2286 13.1276 21.2596 13.1682 21.2596C13.2088 21.2596 13.2227 21.2286 13.199 21.1909C13.1753 21.1531 13.1925 21.1222 13.2372 21.1222C13.2822 21.1222 13.3 21.17 13.2769 21.2291C13.2541 21.2879 13.2821 21.4463 13.3393 21.5811C13.4335 21.803 13.4632 21.8224 13.6531 21.785C13.8904 21.7383 13.8899 21.7334 13.7271 22.6105C13.6839 22.8434 13.6555 23.0598 13.6641 23.0914C13.6726 23.123 13.6585 23.3497 13.6328 23.5953C13.607 23.8409 13.5678 24.3356 13.5458 24.6945C13.5237 25.0535 13.4907 25.579 13.4723 25.8624C13.4539 26.1458 13.4243 27.2433 13.4066 28.3012C13.3605 31.0473 13.3032 31.7297 13.0858 32.1298C13.0251 32.2414 13.0247 32.2858 13.0844 32.3054C13.1904 32.3402 13.1874 32.4623 13.081 32.4404C13.0354 32.4309 12.9846 32.4842 12.9683 32.5589C12.9519 32.6335 12.8955 32.7262 12.843 32.765C12.7175 32.8574 12.6303 33.2819 12.7368 33.2819C12.78 33.2819 12.8153 33.3324 12.8153 33.3941C12.8153 33.5324 13.0646 33.7528 13.2816 33.8065C13.4582 33.8501 13.4662 33.9018 13.4541 34.9187C13.449 35.3445 13.4752 35.4641 13.6241 35.6965C13.7235 35.8515 13.8884 36.0014 14.0026 36.0406C14.1139 36.0788 14.2241 36.1693 14.2475 36.2418C14.2915 36.3783 14.42 36.4252 14.42 36.3047C14.42 36.2669 14.4567 36.236 14.5014 36.236C14.5462 36.236 14.5622 36.2563 14.5369 36.2812C14.4727 36.3444 14.6253 36.5108 14.7475 36.5108C14.8426 36.5108 15.048 36.6676 15.048 36.7402C15.048 36.7585 14.9943 36.7657 14.9287 36.7562C14.8631 36.7467 14.6669 36.7815 14.4927 36.8335C14.3184 36.8855 14.0659 36.9452 13.9316 36.9661C13.7973 36.9871 13.4676 37.0822 13.199 37.1773C12.9304 37.2724 12.6478 37.3598 12.5711 37.3714C12.4943 37.3829 12.4315 37.3973 12.4315 37.4033C12.4315 37.4092 12.3606 37.4271 12.274 37.443C12.1874 37.4588 11.9229 37.5493 11.6863 37.644C11.4498 37.7386 11.2067 37.8167 11.1462 37.8176C11.0856 37.8184 10.8948 37.8837 10.7221 37.9627C10.5494 38.0417 10.2668 38.1469 10.0941 38.1965C9.92144 38.2462 9.59177 38.3643 9.36152 38.4591C8.97274 38.6191 6.89311 39.1072 6.31671 39.1737C6.17703 39.1898 5.99269 39.1661 5.90708 39.121C5.78282 39.0555 5.76244 39.0566 5.80612 39.1262C5.84442 39.1871 5.82754 39.2008 5.7503 39.1716C5.68444 39.1468 5.56554 39.1975 5.45621 39.2974C5.23343 39.5006 5.16728 39.5056 5.05432 39.3274C4.92287 39.1203 4.89259 39.159 4.92001 39.4992C4.93989 39.7447 4.92245 39.8083 4.83551 39.8083C4.77153 39.8083 4.74125 39.8474 4.76267 39.9024C4.78423 39.9578 4.74174 40.0112 4.6592 40.0324C4.5821 40.0523 4.50612 40.0332 4.49035 39.99C4.47458 39.9468 4.44081 39.9303 4.41527 39.9534C4.3402 40.0213 4.49984 40.3579 4.60715 40.3579C4.75221 40.3579 4.79888 40.6879 4.65906 40.7247C4.58098 40.7453 4.59124 40.7566 4.69297 40.7622C4.77488 40.7666 4.87284 40.8438 4.91659 40.9382C5.15682 41.4573 5.87778 41.9724 6.56713 42.1174C6.79933 42.1662 7.22473 42.2562 7.51255 42.3174C7.85457 42.3901 8.16876 42.4133 8.41959 42.3845C8.63065 42.3603 8.91016 42.344 9.0407 42.3482C9.17132 42.3525 9.3911 42.3068 9.52911 42.2467C9.80297 42.1276 9.79592 42.1317 10.2407 41.8392C10.4095 41.7281 10.948 41.4423 11.4372 41.2042C11.9265 40.9661 12.3268 40.7383 12.3268 40.6979C12.3268 40.6576 12.3562 40.6425 12.392 40.6643C12.4923 40.7253 13.5479 40.2032 13.5479 40.0926C13.5479 40.0559 13.5715 40.0027 13.6002 39.9744C13.629 39.946 13.6525 39.9744 13.6525 40.0373C13.6525 40.1003 13.6839 40.1518 13.7223 40.1518C13.7607 40.1518 13.7921 40.1261 13.7921 40.0947C13.7921 40.0632 13.905 40.0034 14.043 39.9617L14.2939 39.8858L14.2546 40.2765C14.2207 40.6134 14.1144 41.0054 13.953 41.3884C13.9291 41.4451 13.9159 41.5301 13.9237 41.5773C13.9314 41.6246 13.909 41.6632 13.874 41.6632C13.8389 41.6632 13.7698 41.8052 13.7206 41.9786C13.6712 42.1521 13.5886 42.31 13.5371 42.3295C13.4854 42.349 13.4432 42.41 13.4432 42.4652C13.4432 42.5624 13.1918 42.9283 12.9323 43.2089C12.8624 43.2845 12.7211 43.4932 12.6184 43.6726C12.5156 43.852 12.3923 43.9989 12.3443 43.9989C12.2964 43.999 12.2571 44.0286 12.2571 44.0648C12.2571 44.101 12.1223 44.2084 11.9576 44.3034C11.6382 44.4877 11.3632 44.8013 11.3293 45.02C11.3053 45.1748 11.1532 45.373 11.0583 45.373C11.0223 45.373 11.0137 45.3344 11.0392 45.2871C11.0646 45.2399 10.9644 45.3249 10.8166 45.476C10.5727 45.7252 10.0068 46.0442 9.41629 46.2654C9.22337 46.3377 8.55913 46.8962 8.55913 46.9862C8.55913 47.0034 8.61139 46.9977 8.67523 46.9736C8.75331 46.9441 8.7748 46.956 8.74089 47.0101C8.68598 47.0976 8.76322 47.1102 9.23941 47.0916C9.59225 47.0779 9.62442 47.1754 9.30919 47.3029C9.1845 47.3534 8.83125 47.5674 8.52425 47.7783C8.21725 47.9893 7.90418 48.1852 7.82848 48.2138C7.722 48.254 7.71202 48.2786 7.78424 48.3225C7.84048 48.3568 8.03961 48.3168 8.28604 48.2217C8.51071 48.135 8.79748 48.0436 8.92335 48.0186C9.12038 47.9794 9.5153 47.8585 9.88481 47.7243C9.94237 47.7034 10.0052 47.6831 10.0244 47.6793C10.0435 47.6754 10.1005 47.6465 10.1511 47.615C10.2016 47.5834 10.2602 47.5745 10.2812 47.5953C10.3023 47.616 10.0634 47.793 9.75043 47.9886C9.14829 48.365 9.05717 48.4745 9.50776 48.28C9.65756 48.2153 9.92144 48.1563 10.0941 48.1488C10.2668 48.1413 10.5023 48.1198 10.6174 48.1011C10.7329 48.0822 10.8484 48.1011 10.8751 48.1431C10.9083 48.1956 11.0064 48.1736 11.1891 48.073C11.4813 47.9119 12.0249 47.7846 11.9567 47.8932C11.9339 47.9295 11.7881 48.0006 11.6326 48.0511C11.3013 48.1588 11.2592 48.3042 11.5594 48.3042C11.6745 48.3042 11.7687 48.2852 11.7687 48.2621C11.7687 48.239 11.8951 48.227 12.0496 48.2355C12.204 48.2441 12.3142 48.2252 12.2944 48.1935C12.2745 48.1619 12.3679 48.1158 12.5019 48.091C12.6359 48.0663 12.7455 48.0147 12.7455 47.9764C12.7455 47.9381 12.7744 47.9243 12.8096 47.9458C12.8449 47.9673 12.916 47.9459 12.9677 47.8983C13.0193 47.8507 13.1729 47.7559 13.309 47.6877C13.445 47.6195 13.6467 47.4873 13.7571 47.3938C13.8676 47.3004 14.0305 47.206 14.1192 47.1841C14.2079 47.1622 14.2805 47.1012 14.2805 47.0487C14.2805 46.9961 14.3286 46.9531 14.3873 46.9531C14.4461 46.9531 14.5123 46.9067 14.5343 46.85C14.5564 46.7933 14.6333 46.747 14.7053 46.747C14.7864 46.747 14.8525 46.682 14.8797 46.5757C14.9037 46.4815 14.9486 46.4197 14.9793 46.4385C15.064 46.49 15.262 46.398 15.2179 46.3276C15.1967 46.2938 15.2305 46.2661 15.293 46.2661C15.4159 46.2661 15.6062 46.1088 15.6062 46.0072C15.6062 45.9729 15.7314 45.8856 15.8845 45.8134C16.0375 45.7412 16.1631 45.6425 16.1636 45.5941C16.164 45.5457 16.2192 45.4861 16.2864 45.4618C16.3536 45.4375 16.5087 45.3225 16.6313 45.2063C16.7537 45.0901 16.9998 44.8715 17.1781 44.7203C17.3564 44.5692 17.6486 44.2934 17.8276 44.1075C18.0065 43.9216 18.4315 43.5 18.7722 43.1704C19.1229 42.8311 19.371 42.5386 19.3442 42.4959C19.3135 42.447 19.339 42.4364 19.4166 42.4657C19.4897 42.4933 19.5192 42.4837 19.4923 42.441C19.4682 42.4024 19.5248 42.3307 19.6181 42.2815C19.7114 42.2323 19.7725 42.1677 19.7538 42.138C19.7351 42.1082 19.7607 42.0588 19.8106 42.0281C19.9358 41.9513 20.3507 41.4402 20.3507 41.3627C20.3507 41.328 20.2762 41.3789 20.185 41.4756C20.094 41.5724 19.8859 41.7187 19.7228 41.8005C19.5597 41.8825 19.1582 42.1324 18.8308 42.356C18.5033 42.5795 18.1824 42.7624 18.1177 42.7624C18.053 42.7624 17.9089 42.8398 17.7974 42.9343L17.5947 43.1062L17.5549 42.9515C17.5331 42.8663 17.5388 42.7504 17.5676 42.6937C17.6857 42.4617 17.7623 41.9763 17.688 41.9311C17.6397 41.9017 17.647 41.875 17.7089 41.8548C17.7743 41.8333 17.8077 41.6856 17.8158 41.3827C17.8223 41.1403 17.8909 40.7135 17.9683 40.4345C18.0846 40.0149 18.0931 39.9114 18.0171 39.8366C17.9666 39.7869 17.9099 39.7613 17.8912 39.7798C17.8724 39.7982 17.6792 39.8154 17.4617 39.818C17.1119 39.8221 17.0767 39.835 17.1561 39.9298C17.2356 40.0247 17.2276 40.0274 17.0866 39.9534C16.999 39.9075 16.9346 39.8329 16.9433 39.7876C16.9521 39.7423 16.9359 39.5612 16.9073 39.3851C16.856 39.0685 16.7444 38.9537 16.5571 39.0244C16.5045 39.0443 16.4427 39.0124 16.4197 38.9535C16.3968 38.8947 16.3418 38.8465 16.2975 38.8465C16.2396 38.8465 16.2413 38.8753 16.3039 38.9496C16.3517 39.0063 16.3633 39.0566 16.3298 39.0614C16.0408 39.1031 15.955 39.0915 15.955 39.0111C15.955 38.9539 15.9986 38.9361 16.0711 38.9634C16.1457 38.9916 16.1703 38.9803 16.1399 38.9319C16.0706 38.8215 16.3442 38.7575 16.5105 38.8452C16.5938 38.889 16.6527 38.893 16.6527 38.8547C16.6527 38.8187 16.6135 38.7713 16.5655 38.7492C16.4958 38.7172 16.4958 38.7011 16.5655 38.6691C16.6135 38.647 16.6527 38.5679 16.6527 38.4933C16.6527 38.4145 16.684 38.3766 16.7273 38.4029C16.7683 38.4278 16.7821 38.4992 16.758 38.5615C16.7229 38.6523 16.7317 38.6578 16.8021 38.5889C16.9291 38.4648 16.9938 38.4834 16.9541 38.6327C16.9149 38.7805 17.0503 38.8948 17.1492 38.7974C17.1903 38.7569 17.1619 38.6663 17.0734 38.5555C16.8953 38.3325 16.8946 38.2761 17.071 38.3312C17.1777 38.3646 17.2003 38.3497 17.1682 38.2671C17.1224 38.1497 17.2458 38.1172 17.3156 38.2283C17.3857 38.34 17.471 38.3072 17.5121 38.1526C17.5368 38.0597 17.5811 38.027 17.6367 38.0608C17.697 38.0975 17.7096 38.0788 17.6785 37.9991C17.6282 37.8701 17.7034 37.8475 17.8154 37.9579C17.868 38.0096 17.9181 38.0043 17.9864 37.9399C18.116 37.8178 18.4434 37.6787 18.6011 37.6787C18.6713 37.6787 18.7682 37.6319 18.8164 37.5748C18.8781 37.5016 18.9295 37.4917 18.9901 37.5413C19.0508 37.5908 19.1022 37.5809 19.1639 37.5077C19.212 37.4507 19.3348 37.4039 19.4367 37.4039C19.5385 37.4039 19.6937 37.3543 19.7815 37.2938C19.8693 37.2333 19.9573 37.1998 19.9771 37.2193C19.9969 37.2388 20.1373 37.2 20.2889 37.1332C20.5769 37.0062 20.877 37.0168 20.9311 37.1558C20.9486 37.2005 20.9114 37.242 20.8486 37.2481C20.4214 37.2896 20.1705 37.3551 20.1236 37.4375C20.0938 37.49 20.0071 37.5211 19.9309 37.5067C19.8548 37.4923 19.7925 37.509 19.7925 37.5439C19.7925 37.5788 19.714 37.6267 19.6181 37.6504C19.5221 37.6741 19.4411 37.7443 19.4381 37.8063C19.4351 37.8683 19.4178 37.8836 19.3998 37.8402C19.3758 37.7823 19.3167 37.7858 19.1785 37.8532C19.0749 37.9038 18.9072 37.9559 18.806 37.9689C18.7047 37.982 18.5791 38.0262 18.5269 38.0672C18.4746 38.1081 18.3156 38.1622 18.1734 38.1875C17.9924 38.2196 17.9262 38.2619 17.9522 38.3288C17.979 38.3975 17.9489 38.4139 17.8452 38.3872C17.7515 38.363 17.6859 38.3888 17.6578 38.4609C17.5992 38.6113 17.4845 38.6027 17.5328 38.4515C17.5674 38.3431 17.562 38.342 17.4783 38.4404C17.4271 38.5004 17.3461 38.5364 17.2981 38.5205C17.1712 38.4784 17.191 38.6372 17.3188 38.6855C17.4572 38.7378 18.3784 38.4535 18.4485 38.3368C18.4778 38.2882 18.5802 38.2112 18.6761 38.1657L18.8506 38.0831L18.6936 38.2182C18.4924 38.3914 18.4958 38.4344 18.711 38.4344C18.8213 38.4344 18.8855 38.3956 18.8855 38.3289C18.8855 38.2459 18.9143 38.2386 19.0203 38.2945C19.1314 38.353 19.1637 38.3391 19.2036 38.2153C19.2479 38.0779 19.2593 38.075 19.3381 38.1811C19.4444 38.3242 19.5425 38.3332 19.4886 38.1949C19.4555 38.1101 19.4715 38.1068 19.5833 38.1756C19.6909 38.2417 19.7918 38.2352 20.0866 38.1431C20.2894 38.0797 20.5495 38.0136 20.6647 37.9963C20.7798 37.9789 20.9996 37.933 21.1531 37.8942C21.3066 37.8556 21.5891 37.8033 21.781 37.7781C21.9729 37.7531 22.1855 37.7035 22.2535 37.668C22.3214 37.6326 22.4071 37.6219 22.4439 37.6443C22.4806 37.6667 22.5699 37.6539 22.6422 37.6158C22.7144 37.5777 22.9584 37.5291 23.1843 37.5078C23.5883 37.4696 23.5986 37.473 23.8071 37.7144C23.9237 37.8494 24.084 37.9646 24.1632 37.9705C24.2602 37.9777 24.2974 38.0182 24.2772 38.0944C24.2388 38.2391 24.562 38.3887 25.1492 38.4979C25.5466 38.5718 25.6022 38.5674 25.7546 38.4493C26.1425 38.1488 26.5382 37.492 26.6599 36.9463C26.6979 36.7759 26.7546 36.7358 27.0683 36.6576C27.6783 36.5054 28.9021 36.4311 29.2467 36.5253C29.3618 36.5567 29.5659 36.5978 29.7002 36.6164C30.4311 36.7181 30.7619 36.7927 31.2352 36.9627C31.6476 37.1109 31.8989 37.1537 32.4213 37.1653C32.8467 37.1746 33.1809 37.22 33.3543 37.2919C33.6669 37.4215 33.9563 37.4382 33.9563 37.3268C33.9563 37.2709 33.9831 37.2716 34.0536 37.3291C34.1286 37.3904 34.1758 37.384 34.26 37.3012C34.3316 37.2307 34.4297 37.2087 34.5453 37.2372C34.6877 37.2724 34.7705 37.231 34.9786 37.0199C35.1337 36.8627 35.2023 36.748 35.1514 36.7312C35.0895 36.711 35.0873 36.6792 35.1432 36.6129C35.2014 36.5438 35.1855 36.5117 35.0762 36.4775C34.9487 36.4377 34.9444 36.4212 35.0373 36.3297C35.1259 36.2424 35.2892 36.1955 35.586 36.172C35.6189 36.1694 35.6281 36.1217 35.6064 36.066C35.5847 36.0104 35.6139 35.9389 35.6714 35.9073C35.759 35.8589 35.7474 35.8194 35.5987 35.6615C35.3969 35.447 35.3751 35.3794 35.5262 35.4365C35.5838 35.4582 35.6309 35.446 35.6309 35.4095C35.6309 35.3728 35.5759 35.3419 35.5088 35.3408C35.3523 35.3379 35.0943 35.0024 35.1995 34.9385C35.295 34.8803 35.2182 34.7647 35.0378 34.6951C34.9068 34.6445 34.9061 34.6382 35.0249 34.5946C35.1468 34.5496 35.1467 34.5436 35.0224 34.4328C34.9513 34.3695 34.7373 34.2506 34.5468 34.1688C34.17 34.0067 33.9563 33.8255 33.9563 33.6682C33.9563 33.5149 33.5434 33.3043 33.1539 33.2588C32.9621 33.2364 32.5225 33.1848 32.1771 33.1442C31.6118 33.0777 31.2979 32.9932 30.8406 32.7847C30.758 32.747 30.6585 32.7355 30.6195 32.7592C30.5806 32.7829 30.5013 32.7556 30.4434 32.6986C30.3006 32.558 30.1886 32.5681 30.1886 32.7217C30.1886 32.9424 29.9511 33.0729 29.2754 33.2232C28.9142 33.3036 28.5559 33.3731 28.4792 33.3776C28.4024 33.3821 28.3082 33.4052 28.2699 33.4289C28.2315 33.4525 28.0902 33.4946 27.9559 33.5224C27.8216 33.5501 27.6836 33.5893 27.6492 33.6094C27.6148 33.6295 27.4736 33.6519 27.3352 33.6593C27.1969 33.6666 27.0366 33.6852 26.9791 33.7006C26.8898 33.7243 26.8766 33.6107 26.8889 32.9291C26.8969 32.4895 26.9371 31.8867 26.9784 31.5895C27.0989 30.7216 27.1758 29.5742 27.2191 27.9921C27.2764 25.9032 27.3981 23.9877 27.4798 23.8903C27.518 23.8447 27.5285 23.7744 27.5032 23.734C27.4779 23.6936 27.483 23.6651 27.5146 23.6705C27.6498 23.6936 27.6889 23.6581 27.6192 23.5755C27.5376 23.4786 27.5084 23.0613 27.5605 22.7366C27.6024 22.4755 27.7078 21.0364 27.6901 20.9676C27.6828 20.9392 27.7101 20.9161 27.7507 20.9161C27.7913 20.9161 27.8085 20.8904 27.7887 20.8589C27.705 20.7255 28.0983 19.464 28.4015 18.8931C28.5778 18.5615 28.7043 18.2619 28.6826 18.2274C28.6609 18.1929 28.6848 18.1732 28.7357 18.1835C28.8006 18.1968 28.8234 18.131 28.8123 17.962C28.7722 17.3469 28.7169 17.2063 28.5154 17.2063C28.4439 17.2063 28.2723 17.0749 28.1341 16.9143C27.9959 16.7538 27.7344 16.5423 27.553 16.4444C27.3717 16.3466 27.1868 16.1954 27.1421 16.1084C26.9429 15.7201 26.3522 15.4099 26.0824 15.552C25.9811 15.6054 25.9374 15.6007 25.9113 15.5335C25.8691 15.4251 25.118 15.1453 24.8693 15.1453C24.772 15.1453 24.6026 15.0992 24.4927 15.0427C24.0661 14.8236 23.5984 14.9374 23.4718 15.291C23.4233 15.4268 22.7564 15.7636 22.5362 15.7636C22.3822 15.7636 22.017 15.8822 21.5612 16.0803C21.4403 16.1328 21.299 16.176 21.2472 16.1764C21.1954 16.1766 20.955 16.2362 20.7128 16.3087C20.3122 16.4286 20.2687 16.4305 20.2293 16.3294C20.2055 16.2684 20.2231 16.2062 20.2684 16.1914C20.3136 16.1765 20.3507 16.1215 20.3507 16.0691C20.3507 16.0168 20.4126 15.8652 20.4884 15.7324C20.5642 15.5996 20.6096 15.4483 20.5893 15.3961C20.569 15.3441 20.6483 15.2123 20.7655 15.1034C20.8827 14.9945 20.9786 14.8673 20.9786 14.8209C20.9786 14.7744 21.0413 14.6352 21.1179 14.5115C21.1945 14.3878 21.2573 14.2363 21.2575 14.1747C21.2576 14.1133 21.3048 14.0245 21.3624 13.9774C21.42 13.9304 21.467 13.8339 21.467 13.763C21.467 13.692 21.5141 13.6339 21.5717 13.6339C21.6293 13.6339 21.6764 13.5754 21.6764 13.5039C21.6764 13.3852 21.814 13.2795 21.9903 13.2628C22.0287 13.2591 22.1543 13.2204 22.2694 13.1767C22.5916 13.0544 22.7545 12.9941 22.7927 12.9831C22.8119 12.9775 22.9532 12.9191 23.1067 12.8532C23.2602 12.7874 23.5201 12.7154 23.6842 12.6932C23.8484 12.6711 23.9988 12.6273 24.0185 12.5958C24.0382 12.5644 24.2127 12.5181 24.4063 12.4928C24.6138 12.4656 24.7741 12.4061 24.7969 12.3476C24.8233 12.2799 24.8508 12.2727 24.8836 12.325C24.9177 12.3794 24.9906 12.3712 25.1355 12.2968C25.2477 12.2392 25.2923 12.1898 25.2348 12.187C25.0614 12.1786 25.3682 12.0727 25.8453 11.9763C26.0851 11.9278 26.2813 11.87 26.2813 11.848C26.2813 11.8259 26.3991 11.811 26.543 11.8149C26.6869 11.8189 26.881 11.7956 26.9743 11.7633C27.0741 11.7286 27.2825 11.7336 27.481 11.7755C27.6665 11.8147 28.2102 11.867 28.6894 11.8917C29.4822 11.9327 29.5607 11.9263 29.5607 11.8195C29.5607 11.7451 29.5916 11.7211 29.6453 11.7538C29.6919 11.7821 29.8338 11.8158 29.9607 11.8286C30.1433 11.847 30.2028 11.8219 30.2453 11.7087C30.2749 11.63 30.372 11.5286 30.461 11.4834C30.5939 11.4159 30.6279 11.3338 30.6513 11.0234C30.6669 10.8156 30.6949 10.5974 30.7136 10.5386C30.7522 10.4172 30.4083 10.135 30.0906 10.0272C29.852 9.94631 29.6838 9.71878 29.8252 9.66822C29.8944 9.64348 29.8965 9.61367 29.8341 9.53968C29.7812 9.47689 29.7786 9.44329 29.8264 9.44329C29.8669 9.44329 29.8903 9.35824 29.8783 9.25437C29.8638 9.1279 29.8209 9.07177 29.7485 9.08455C29.689 9.09499 29.4055 8.94674 29.1186 8.75506C28.7464 8.50644 28.4949 8.39068 28.241 8.35118C28.0452 8.32068 27.8304 8.24758 27.7635 8.18878C27.6113 8.05481 27.146 8.00315 27.1709 8.12303C27.1892 8.21035 27.1813 8.21413 26.928 8.24037C26.8423 8.24923 26.7324 8.28619 26.6838 8.32254C26.6352 8.35881 26.4875 8.39488 26.3557 8.40271C26.224 8.41054 26.0812 8.44544 26.0385 8.48034C25.9958 8.51524 25.8996 8.54093 25.8246 8.5375C25.7496 8.53399 25.4404 8.61499 25.1375 8.71749C24.8346 8.81992 24.5293 8.90799 24.459 8.91321C24.3888 8.91843 24.317 8.95958 24.2994 9.00479C24.2817 9.04992 24.1632 9.10825 24.0359 9.13442C23.9086 9.1606 23.731 9.22778 23.6414 9.28377C23.5517 9.33976 23.4616 9.3691 23.4412 9.34904C23.4208 9.32891 23.6276 8.95141 23.9008 8.51015C24.1739 8.0689 24.3975 7.68102 24.3975 7.64812C24.3975 7.61528 24.4289 7.58842 24.4673 7.58842C24.5056 7.58842 24.537 7.49567 24.537 7.38232C24.537 7.26896 24.5631 7.17622 24.5951 7.17622C24.627 7.17622 24.6869 7.06802 24.7281 6.93577C24.7703 6.8005 24.7754 6.69533 24.7398 6.69533C24.705 6.69533 24.6766 6.64834 24.6766 6.5909C24.6766 6.53347 24.6037 6.3712 24.5145 6.23023C24.4253 6.08933 24.3321 5.91992 24.3073 5.85376C24.2826 5.7876 24.23 5.73354 24.1903 5.73354C24.1508 5.73354 24.1184 5.67652 24.1184 5.60679C24.1184 5.53706 24.0556 5.42405 23.9789 5.35569C23.9021 5.28734 23.8393 5.19136 23.8393 5.14252C23.8393 5.0936 23.7583 4.96754 23.6592 4.86229C23.5602 4.75711 23.4526 4.62432 23.4202 4.56723C23.3694 4.47785 23.3387 4.48314 23.1991 4.60501C23.1099 4.68285 22.9898 4.74145 22.9323 4.73527C22.8747 4.72909 22.757 4.71926 22.6706 4.71349C22.5842 4.70779 22.5136 4.65874 22.5136 4.6046C22.5136 4.55047 22.4508 4.48658 22.3741 4.4626C22.2973 4.43863 22.2345 4.39054 22.2345 4.35577C22.2345 4.32101 22.1011 4.21006 21.938 4.10928C21.775 4.00843 21.5735 3.86217 21.4905 3.78427C21.3782 3.67881 21.2665 3.64776 21.0544 3.66281C20.8846 3.6749 20.7693 3.65319 20.7693 3.60908C20.7693 3.4846 20.6065 3.52767 20.3629 3.71673ZM23.0471 18.3527C23.0207 18.3787 22.9449 18.4071 22.8785 18.4159C22.5621 18.4578 21.4765 18.7611 21.0833 18.9175C20.7229 19.0608 19.7889 19.5537 19.6645 19.6663C19.6098 19.7157 19.5247 19.7408 19.4753 19.7221C19.4259 19.7035 19.3681 19.7326 19.3469 19.7869C19.3258 19.8411 19.2737 19.8856 19.2312 19.8856C19.1036 19.8856 18.3273 20.5046 18.3273 20.6063C18.3273 20.6582 18.2628 20.7209 18.184 20.7455C17.9848 20.8077 17.1938 21.5483 16.8872 21.9597C16.6495 22.2785 16.6377 22.3171 16.7095 22.5473C16.7518 22.6827 16.7693 22.8207 16.7484 22.854C16.7275 22.8872 16.7451 22.9555 16.7875 23.0057C16.8863 23.123 16.8041 23.3397 16.6786 23.2923C16.626 23.2724 16.583 23.2861 16.583 23.3227C16.583 23.3593 16.6301 23.3892 16.6876 23.3892C16.7452 23.3892 16.7923 23.4346 16.7923 23.4899C16.7923 23.5628 16.8771 23.5343 17.0989 23.3869C17.2676 23.2748 17.4263 23.1831 17.4516 23.1831C17.5076 23.1831 18.1017 22.9318 18.2845 22.8308C18.7876 22.5528 19.5221 22.1511 19.8274 21.9871C19.9041 21.9459 19.9828 21.8917 20.0023 21.8665C20.0217 21.8414 20.1777 21.8002 20.3488 21.7751C20.52 21.7499 20.718 21.6988 20.7889 21.6614C20.878 21.6145 20.9487 21.6188 21.018 21.6754C21.0961 21.7392 21.1182 21.7381 21.1182 21.6706C21.1182 21.4811 21.3401 21.4074 21.6189 21.5043C21.7794 21.56 21.898 21.5702 21.9231 21.5304C21.9456 21.4944 22.1046 21.4786 22.2763 21.4952C22.6453 21.5308 22.8381 21.7165 22.9051 22.1011C22.9299 22.2428 22.9699 22.3587 22.9942 22.3587C23.0184 22.3587 23.0775 22.4206 23.1254 22.4961C23.1952 22.6061 23.195 22.6634 23.1247 22.783C22.9386 23.0998 22.6029 23.4617 22.3458 23.6228C22.1821 23.7254 22.151 23.7297 22.184 23.6449C22.2555 23.4617 22.1514 23.4562 22.008 23.6357C21.932 23.7308 21.8529 23.7921 21.8323 23.7717C21.8117 23.7515 21.7535 23.7885 21.7029 23.854C21.6159 23.9669 21.6109 23.9668 21.6088 23.8521C21.6069 23.7448 21.5749 23.7507 21.3289 23.9036C21.1762 23.9985 21.0327 24.0762 21.0102 24.0762C20.9876 24.0762 20.775 24.2618 20.5378 24.4887C20.3006 24.7156 20.0673 24.8866 20.0193 24.8687C19.9713 24.8509 19.9321 24.8762 19.9321 24.9251C19.9321 25.0567 19.6068 25.3374 19.5533 25.2521C19.503 25.172 19.6424 24.8949 19.7751 24.8113C19.8231 24.7811 19.8623 24.7109 19.8623 24.6552C19.8623 24.5685 19.8378 24.5698 19.6915 24.6642C19.5976 24.7247 19.4798 24.7811 19.4298 24.7894C19.3799 24.7976 19.0878 24.8999 18.7808 25.0166C18.4738 25.1334 18.1127 25.2506 17.9784 25.2772C17.8441 25.3037 17.5958 25.3702 17.4267 25.425C17.2134 25.4941 17.0968 25.5027 17.0464 25.4531C17.0064 25.4137 16.9015 25.3815 16.8132 25.3815C16.7077 25.3815 16.652 25.3404 16.6507 25.2613C16.6486 25.1494 16.6434 25.1497 16.5749 25.2656C16.5329 25.3369 16.5155 25.5941 16.5344 25.8667C16.5526 26.1288 16.5473 26.3434 16.5228 26.3435C16.4983 26.3436 16.4766 26.473 16.4745 26.631C16.4723 26.789 16.4363 26.9296 16.3943 26.9434C16.3418 26.9606 16.3481 27.0278 16.4144 27.1586C16.4829 27.2938 16.4925 27.4113 16.4477 27.5652L16.3847 27.7817L16.7135 27.6123C16.8944 27.5192 17.2949 27.2033 17.6036 26.9103C17.9123 26.6173 18.3034 26.262 18.4728 26.1206C18.8963 25.7671 18.9058 25.7585 19.0325 25.6132C19.2428 25.372 19.4368 25.2463 19.4837 25.321C19.5083 25.3603 19.4545 25.4434 19.364 25.5056C19.1662 25.6415 18.7467 26.0821 18.7463 26.1544C18.7461 26.1827 18.6988 26.2059 18.6413 26.2059C18.5837 26.2059 18.5366 26.2321 18.5366 26.2641C18.5366 26.3458 18.2585 26.6529 18.2531 26.5771C18.2507 26.5429 18.2183 26.5899 18.1811 26.6814C18.1321 26.8021 18.1382 26.8631 18.203 26.9036C18.2651 26.9424 18.2469 26.9598 18.1434 26.9606C18.0615 26.9611 17.9437 27.0378 17.8818 27.1309C17.7337 27.3535 17.7345 27.355 17.9826 27.3191C18.128 27.2981 18.1843 27.2581 18.1592 27.1937C18.139 27.1416 18.1528 27.099 18.1899 27.099C18.2271 27.099 18.2575 27.1331 18.2575 27.1747C18.2575 27.2163 18.3909 27.1715 18.554 27.0751C18.7171 26.9788 18.8419 26.8651 18.8314 26.8226C18.8209 26.7801 18.8388 26.7614 18.8712 26.7812C18.9037 26.8009 19.0344 26.7491 19.1618 26.666C19.7153 26.305 20.5376 25.8756 20.7693 25.8264C20.8269 25.8142 20.8897 25.7984 20.9089 25.7914C20.9281 25.7843 21.0187 25.7847 21.1102 25.7923C21.2018 25.7998 21.2968 25.7739 21.3214 25.7348C21.3502 25.6889 21.4026 25.6867 21.4689 25.7286C21.5592 25.7858 21.559 25.8019 21.467 25.8614C21.3768 25.9197 21.3786 25.9291 21.4804 25.9301C21.5453 25.9306 21.6187 25.8987 21.6436 25.859C21.675 25.809 21.7159 25.8092 21.778 25.8599C21.8426 25.9127 21.8913 25.9041 21.9548 25.8289C22.0698 25.6924 22.2625 25.6918 22.2093 25.8281C22.1872 25.8847 22.1969 25.9311 22.2309 25.9311C22.2649 25.9311 22.3073 25.8925 22.3252 25.8452C22.3479 25.7856 22.4076 25.8065 22.521 25.9139C22.6736 26.0584 22.6753 26.0685 22.5477 26.0685C22.4505 26.0685 22.4812 26.1052 22.6543 26.1959C22.8633 26.3054 23.3099 26.8188 23.2486 26.8791C23.2371 26.8905 23.2529 27.0102 23.2839 27.1451C23.3485 27.4275 23.3083 27.5799 23.169 27.5799C23.1156 27.5799 23.0718 27.6083 23.0718 27.6432C23.0718 27.6779 22.9776 27.7268 22.8625 27.7516C22.7474 27.7765 22.6532 27.824 22.6532 27.857C22.6532 27.8901 22.5418 27.9377 22.4057 27.9629C22.2696 27.988 22.1752 28.0253 22.196 28.0457C22.2167 28.0661 22.169 28.1273 22.09 28.1818C22.0111 28.2363 21.9258 28.2606 21.9006 28.2358C21.8754 28.211 21.901 28.162 21.9575 28.1268C22.0139 28.0916 22.0253 28.0624 21.9827 28.0618C21.9401 28.0613 21.7988 28.1687 21.6687 28.3005C21.5382 28.4329 21.3316 28.5593 21.2079 28.5825C21.0846 28.6058 20.9472 28.6679 20.9028 28.7206C20.8584 28.7733 20.7507 28.8165 20.6636 28.8165C20.5765 28.8165 20.4871 28.8628 20.465 28.9195C20.408 29.0658 20.2982 29.0471 20.245 28.882C20.211 28.7766 20.1531 28.7478 20.0135 28.767C19.7708 28.8004 19.4436 28.9581 19.4436 29.0416C19.4436 29.0777 19.3829 29.0917 19.3086 29.0725C19.2306 29.0524 19.1579 29.078 19.1364 29.1332C19.1159 29.1857 19.0511 29.2287 18.9923 29.2287C18.9335 29.2287 18.8855 29.2596 18.8855 29.2974C18.8855 29.4001 18.3975 29.383 18.3948 29.2802C18.3935 29.2278 18.3565 29.2411 18.2999 29.3145C18.2418 29.39 18.1134 29.4348 17.9555 29.4348C17.7448 29.4348 17.7112 29.4152 17.7495 29.3145C17.7888 29.2111 17.7795 29.2069 17.6822 29.2847C17.5325 29.4045 16.7332 29.5139 16.5836 29.4351C16.4435 29.3613 16.2341 29.5686 16.2341 29.7812C16.2341 29.8575 16.187 29.9378 16.1294 29.9595C15.9529 30.0263 16.0008 30.2064 16.1818 30.1562C16.2981 30.124 16.3128 30.1303 16.2386 30.1807C16.157 30.2361 16.1548 30.2682 16.227 30.3538C16.2757 30.4115 16.3083 30.5607 16.2996 30.6853C16.2908 30.8098 16.2882 31.1393 16.2938 31.4172C16.3015 31.8045 16.3254 31.9145 16.3959 31.8879C16.4551 31.8655 16.4862 31.9057 16.4831 32.0007C16.4789 32.1309 16.5105 32.1458 16.7515 32.1268C17.0618 32.1023 17.4678 31.9166 17.7258 31.6812C17.8223 31.5932 18.0991 31.4213 18.341 31.2991C18.5829 31.177 19.0163 30.9499 19.3041 30.7945C20.347 30.2314 21.4659 29.9344 21.9611 30.0892C22.0384 30.1133 22.1465 30.0965 22.2013 30.0518C22.26 30.0037 22.4232 29.9838 22.5991 30.0032C22.9859 30.0458 23.1416 30.1128 23.1416 30.2362C23.1416 30.2934 23.1044 30.3174 23.0544 30.2925C23.0064 30.2686 23.0221 30.2933 23.0893 30.3475C23.1564 30.4017 23.2114 30.485 23.2114 30.5328C23.2114 30.6025 23.1906 30.6024 23.105 30.5326C22.9566 30.4112 22.8907 30.5028 23.0286 30.6386C23.1587 30.7666 23.1716 30.8511 23.0707 30.9125C22.9992 30.956 23.1945 31.3583 23.2872 31.3583C23.3363 31.3583 23.4192 30.8508 23.461 30.2935C23.5089 29.6548 23.6337 28.739 23.7261 28.3473C23.7801 28.1183 23.8009 27.802 23.7763 27.5799C23.726 27.1234 23.7347 25.9279 23.805 23.6176C23.8406 22.449 23.8309 21.5578 23.7751 20.8696C23.6859 19.7684 23.5186 18.8551 23.4062 18.8551C23.3676 18.8551 23.3542 18.8084 23.3764 18.7514C23.4694 18.5126 23.2073 18.195 23.0471 18.3527ZM12.885 20.2978C12.885 20.3356 12.9183 20.3665 12.9589 20.3665C12.9995 20.3665 13.0134 20.3356 12.9897 20.2978C12.966 20.26 12.9328 20.2291 12.9158 20.2291C12.8988 20.2291 12.885 20.26 12.885 20.2978ZM21.9264 23.8455C21.8897 23.9398 21.8999 23.944 21.9887 23.8714C22.1098 23.7725 22.1224 23.7327 22.0327 23.7327C21.9984 23.7327 21.9506 23.7835 21.9264 23.8455ZM21.1252 24.2339C21.0369 24.3786 21.0384 24.3801 21.1586 24.2668C21.2277 24.2015 21.2693 24.1334 21.251 24.1153C21.2326 24.0972 21.176 24.1506 21.1252 24.2339ZM21.3275 24.1449C21.3275 24.1827 21.3727 24.2136 21.428 24.2136C21.4834 24.2136 21.548 24.1827 21.5717 24.1449C21.5954 24.1071 21.5501 24.0762 21.4712 24.0762C21.3922 24.0762 21.3275 24.1071 21.3275 24.1449ZM20.5949 24.9693C20.5712 25.0071 20.5851 25.038 20.6257 25.038C20.6663 25.038 20.6995 25.0071 20.6995 24.9693C20.6995 24.9315 20.6857 24.9006 20.6688 24.9006C20.6518 24.9006 20.6186 24.9315 20.5949 24.9693ZM19.9013 25.6242C19.8268 25.6796 19.7994 25.725 19.8404 25.725C19.8814 25.725 19.954 25.6786 20.0018 25.622C20.1105 25.4931 20.0763 25.4938 19.9013 25.6242ZM16.269 25.8624C16.2453 25.9002 16.2592 25.9311 16.2998 25.9311C16.3404 25.9311 16.3737 25.9002 16.3737 25.8624C16.3737 25.8246 16.3598 25.7937 16.3429 25.7937C16.3259 25.7937 16.2927 25.8246 16.269 25.8624ZM18.9156 26.2822C18.8913 26.3208 18.8903 26.371 18.9134 26.3937C18.9364 26.4163 18.9552 26.3998 18.9552 26.3569C18.9552 26.314 19.0023 26.2967 19.0599 26.3184C19.1175 26.3402 19.1646 26.3425 19.1646 26.3236C19.1646 26.2503 18.9573 26.2157 18.9156 26.2822ZM19.9464 28.9982C19.9746 29.1536 19.8104 29.1982 19.7793 29.0435C19.7649 28.9719 19.7349 28.9499 19.7083 28.9915C19.6829 29.0311 19.6886 29.1056 19.7209 29.157C19.7695 29.2344 19.8169 29.2354 19.9954 29.1626C20.2342 29.0652 20.2679 28.99 20.1008 28.9269C19.9396 28.866 19.9237 28.8733 19.9464 28.9982ZM19.4785 29.2287C19.4548 29.2664 19.4687 29.2974 19.5093 29.2974C19.5499 29.2974 19.5832 29.2664 19.5832 29.2287C19.5832 29.1909 19.5694 29.16 19.5524 29.16C19.5355 29.16 19.5023 29.1909 19.4785 29.2287ZM18.4668 29.9197C18.4668 29.9597 18.4982 29.9734 18.5366 29.95C18.575 29.9266 18.6064 29.8939 18.6064 29.8773C18.6064 29.8606 18.575 29.847 18.5366 29.847C18.4982 29.847 18.4668 29.8797 18.4668 29.9197ZM23.0033 32.0321C22.9464 32.0515 22.856 32.1106 22.8024 32.1634C22.7488 32.2161 22.6639 32.2438 22.6138 32.2249C22.5637 32.2059 22.5128 32.2178 22.5007 32.2512C22.4887 32.2847 22.3848 32.3286 22.2699 32.3489C22.1551 32.3692 22.0504 32.4174 22.0374 32.456C22.0243 32.4946 21.922 32.5262 21.8101 32.5262C21.6982 32.5262 21.6066 32.553 21.6066 32.5857C21.6066 32.6701 20.7082 32.9781 19.9669 33.1478C19.289 33.3031 18.8518 33.482 18.4668 33.7621C18.3325 33.8599 18.0892 34.0241 17.9261 34.1271C17.6619 34.2939 17.6296 34.3007 17.6296 34.189C17.6296 34.12 17.6845 34.0036 17.7517 33.9304C17.8189 33.8571 17.9183 33.7122 17.9728 33.6082C18.0272 33.5043 18.1293 33.4193 18.1995 33.4193C18.2698 33.4193 18.3273 33.3729 18.3273 33.3163C18.3273 33.2596 18.3539 33.2132 18.3864 33.2132C18.4725 33.2132 18.9467 32.7467 18.9036 32.7044C18.8835 32.6846 18.8058 32.7008 18.7308 32.7403C18.6558 32.7798 18.5764 32.7944 18.5545 32.7729C18.5326 32.7512 18.4779 32.7634 18.4331 32.8001C18.3883 32.8367 18.2284 32.8859 18.0778 32.9094C17.9272 32.9328 17.7797 32.9667 17.7501 32.9846C17.7203 33.0025 17.5476 33.0332 17.3663 33.0527C17.1849 33.0722 17.0051 33.1121 16.9667 33.1412C16.9283 33.1704 16.8115 33.2144 16.7071 33.2389C16.4596 33.2971 16.4182 33.3849 16.2326 34.2437C16.0007 35.3175 15.9669 35.556 16.0041 35.8581C16.0227 36.0093 16.0428 36.2025 16.0488 36.2875C16.0548 36.3725 16.0837 36.4421 16.1131 36.4421C16.2053 36.4421 17.7009 36.028 18.4668 35.7905C19.2684 35.5418 20.4584 35.2167 21.2228 35.0373C21.4915 34.9743 21.8612 34.8747 22.0445 34.8161C22.2278 34.7575 22.4377 34.7249 22.511 34.7438C22.5872 34.7634 22.6601 34.7373 22.6814 34.6826C22.7018 34.6301 22.798 34.5872 22.8952 34.5872C23.096 34.5872 23.3796 34.345 23.3096 34.2335C23.2841 34.1929 23.3065 34.1327 23.3594 34.0997C23.4386 34.0503 23.439 34.0395 23.3614 34.0386C23.2864 34.0378 23.2707 33.8589 23.284 33.1617C23.2933 32.6799 23.2964 32.235 23.291 32.1729C23.2797 32.0429 23.1531 31.981 23.0033 32.0321ZM23.1861 34.7589C23.1641 34.8156 23.1764 34.862 23.2135 34.862C23.2507 34.862 23.2811 34.8156 23.2811 34.7589C23.2811 34.7023 23.2688 34.6559 23.2537 34.6559C23.2386 34.6559 23.2082 34.7023 23.1861 34.7589ZM22.4439 34.9994C22.4439 35.0372 22.4734 35.0681 22.5095 35.0681C22.5457 35.0681 22.5946 35.0372 22.6183 34.9994C22.642 34.9616 22.6124 34.9307 22.5526 34.9307C22.4928 34.9307 22.4439 34.9616 22.4439 34.9994ZM21.6996 36.8169C21.6996 36.8719 21.7258 36.901 21.7578 36.8815C21.7897 36.8621 21.8159 36.8171 21.8159 36.7815C21.8159 36.7459 21.7897 36.7169 21.7578 36.7169C21.7258 36.7169 21.6996 36.7619 21.6996 36.8169ZM21.0712 36.8743C21.0522 36.9042 20.9687 36.9101 20.8856 36.8875C20.7519 36.8513 20.757 36.8668 20.9302 37.0222C21.0379 37.1188 21.1616 37.1978 21.2052 37.1978C21.2487 37.1978 21.2235 37.1492 21.149 37.0899C21.0215 36.9883 21.0294 36.9841 21.2838 37.0183C21.4325 37.0382 21.5348 37.0355 21.5112 37.0122C21.4876 36.989 21.5015 36.9305 21.5421 36.8823C21.6 36.8137 21.5606 36.7975 21.3609 36.8073C21.2206 36.8142 21.0903 36.8444 21.0712 36.8743ZM20.3254 37.5069C20.3475 37.5636 20.378 37.61 20.393 37.61C20.4081 37.61 20.4205 37.5636 20.4205 37.5069C20.4205 37.4502 20.39 37.4039 20.3528 37.4039C20.3157 37.4039 20.3034 37.4502 20.3254 37.5069ZM16.7236 38.7607C16.7242 38.7891 16.7551 38.8586 16.7923 38.9153C16.847 38.9986 16.8601 38.9887 16.861 38.8637C16.8616 38.7787 16.8307 38.7092 16.7923 38.7092C16.7539 38.7092 16.723 38.7323 16.7236 38.7607ZM15.6316 39.0866C15.6095 39.1431 15.5635 39.1722 15.5291 39.1512C15.4947 39.1303 15.4666 39.164 15.4666 39.226C15.4666 39.3815 15.6152 39.3194 15.6844 39.135C15.7157 39.0519 15.7255 38.984 15.7063 38.984C15.6872 38.984 15.6535 39.0301 15.6316 39.0866ZM17.8389 39.4648C17.8389 39.5026 17.8722 39.5335 17.9128 39.5335C17.9534 39.5335 17.9673 39.5026 17.9435 39.4648C17.9198 39.4271 17.8866 39.3961 17.8696 39.3961C17.8527 39.3961 17.8389 39.4271 17.8389 39.4648ZM24.1624 39.5695C24.1379 39.6321 24.1356 39.7115 24.1572 39.7458C24.1788 39.7802 24.1396 39.8093 24.0702 39.8105C23.8928 39.8136 23.6693 40.142 23.6872 40.3735C23.6985 40.5188 23.6625 40.5833 23.544 40.6301C23.457 40.6645 23.4172 40.6958 23.4556 40.6995C23.6168 40.7152 23.1574 40.9029 22.9522 40.9051C22.801 40.9067 22.7036 40.9523 22.6532 41.0449C22.6041 41.1353 22.5071 41.1823 22.3698 41.1823C22.1639 41.1823 22.1625 41.1848 22.2637 41.3712C22.4004 41.6231 22.7777 42.0067 22.8887 42.0067C22.9602 42.0067 23.7095 42.5877 23.9265 42.8115C24.574 43.479 25.8292 44.6962 26.2492 45.0638C26.5513 45.3283 27.0243 45.7611 27.3002 46.0256C27.5761 46.2901 27.9307 46.6215 28.0882 46.762C28.2457 46.9025 28.3745 47.0464 28.3745 47.0817C28.3745 47.117 28.5613 47.2948 28.7895 47.4767C29.0178 47.6586 29.2426 47.8775 29.2891 47.9631C29.3356 48.0487 29.4298 48.1362 29.4985 48.1577C29.5671 48.1791 29.6073 48.2377 29.5878 48.2877C29.5661 48.3435 29.6214 48.3959 29.7309 48.4229C29.8291 48.4472 29.9095 48.4964 29.9095 48.5323C29.9095 48.5682 29.9645 48.5789 30.0316 48.5561C30.1314 48.5222 30.1282 48.5352 30.0142 48.627C29.8755 48.7387 29.8756 48.7401 30.0415 48.8784C30.1333 48.9549 30.2252 49.0009 30.2458 48.9807C30.2663 48.9604 30.2226 48.8988 30.1486 48.8437C29.9724 48.7125 30.0406 48.714 30.3681 48.8488C30.6157 48.9506 30.6405 48.95 30.7226 48.8394C30.8242 48.7028 31.3863 48.6703 31.4297 48.7986C31.4442 48.8415 31.498 48.8766 31.5492 48.8766C31.6003 48.8766 31.658 48.9153 31.6774 48.9625C31.7041 49.0277 31.7139 49.0282 31.7181 48.9646C31.7211 48.9186 31.771 48.8989 31.829 48.9208C31.9045 48.9493 31.9222 48.9291 31.8913 48.8499C31.8623 48.7754 31.8862 48.7392 31.9645 48.7392C32.0284 48.7392 32.0633 48.7116 32.0421 48.6777C32.0208 48.6439 32.0504 48.5985 32.1078 48.5768C32.2229 48.5333 32.253 48.2583 32.1427 48.2583C32.0465 48.2583 32.1009 47.9627 32.2033 47.9291C32.2491 47.9142 32.3321 47.9392 32.3879 47.9847C32.4453 48.0316 32.5653 48.0488 32.6646 48.0243C32.8631 47.9752 32.8952 47.7787 32.7576 47.4556C32.7122 47.3492 32.6729 47.1306 32.6703 46.9696C32.6665 46.7351 32.6863 46.6856 32.7702 46.7202C32.8278 46.7439 32.9141 46.7648 32.9621 46.7666C33.0101 46.7684 33.0493 46.7956 33.0493 46.8271C33.0493 46.9827 33.1904 46.8555 33.2488 46.6473C33.3653 46.2316 33.1455 45.6707 32.4386 44.5803C32.3906 44.5062 32.3181 44.3683 32.2777 44.2738C32.1842 44.0557 31.6079 43.469 31.3617 43.3415C31.2586 43.288 31.12 43.2647 31.0537 43.2898C30.9726 43.3204 30.9495 43.3095 30.983 43.2561C31.028 43.1842 30.8046 42.9278 30.4271 42.6183C30.3535 42.5579 30.2148 42.4124 30.1188 42.2949C30.0229 42.1774 29.9242 42.0799 29.8995 42.0783C29.8747 42.0767 29.756 41.9849 29.6357 41.8741C29.5153 41.7635 29.253 41.6219 29.0526 41.5597C28.8524 41.4974 28.6423 41.4318 28.5858 41.4138C28.5058 41.3883 28.5027 41.3691 28.5716 41.3271C28.7856 41.197 28.0911 40.9762 27.4676 40.9762C27.215 40.9762 26.9929 40.9187 26.7072 40.7791C26.4853 40.6707 26.1809 40.5426 26.0309 40.4945C25.8809 40.4464 25.6961 40.3651 25.6204 40.3138C25.5448 40.2625 25.4264 40.2205 25.3574 40.2205C25.2006 40.2205 24.7115 39.9259 24.4242 39.6582C24.2381 39.4848 24.2003 39.472 24.1624 39.5695ZM17.6296 39.6022C17.6296 39.64 17.6785 39.6709 17.7383 39.6709C17.7981 39.6709 17.8277 39.64 17.804 39.6022C17.7803 39.5645 17.7314 39.5335 17.6952 39.5335C17.6591 39.5335 17.6296 39.5645 17.6296 39.6022ZM18.0482 39.7053C18.0482 39.762 18.0786 39.8083 18.1158 39.8083C18.1529 39.8083 18.1653 39.762 18.1432 39.7053C18.1211 39.6486 18.0907 39.6022 18.0756 39.6022C18.0605 39.6022 18.0482 39.6486 18.0482 39.7053ZM17.8546 39.9659C17.8341 40.1917 17.7778 40.3219 17.7075 40.3064C17.616 40.2862 17.6086 40.3564 17.6891 40.4814C17.7362 40.5544 17.7597 40.5544 17.8195 40.4814C17.925 40.3526 17.9975 39.9655 17.9243 39.9209C17.8902 39.9001 17.8588 39.9204 17.8546 39.9659ZM17.53 40.066C17.4588 40.132 17.4225 40.1476 17.4494 40.1003C17.5055 40.0017 17.4288 39.9895 17.2915 40.0751C17.2226 40.1181 17.248 40.1461 17.387 40.1804C17.4911 40.2062 17.5814 40.218 17.5878 40.2067C17.5941 40.1954 17.6413 40.132 17.6927 40.066C17.7441 39.9999 17.7577 39.9457 17.7228 39.9457C17.688 39.9457 17.6012 39.9999 17.53 40.066ZM10.2206 41.7101C10.2709 41.73 10.3311 41.7275 10.3543 41.7047C10.3775 41.6819 10.3363 41.6657 10.2628 41.6686C10.1815 41.6719 10.1649 41.6882 10.2206 41.7101ZM12.8676 47.1378C12.7004 47.1808 12.7132 47.2966 12.885 47.2966C12.9625 47.2966 13.0246 47.2507 13.0246 47.1935C13.0246 47.1368 13.0167 47.094 13.0071 47.0984C12.9976 47.1028 12.9348 47.1205 12.8676 47.1378ZM12.5087 47.4741C12.4826 47.5409 12.4982 47.5724 12.5492 47.5556C12.6535 47.5214 12.7109 47.3653 12.6192 47.3653C12.5817 47.3653 12.532 47.4142 12.5087 47.4741ZM10.2904 48.0305C10.3407 48.0503 10.4009 48.0478 10.4241 48.025C10.4472 48.0022 10.4061 47.986 10.3325 47.989C10.2513 47.9923 10.2347 48.0086 10.2904 48.0305ZM10.912 48.4652C10.7581 48.6422 10.7609 48.6657 10.9306 48.622C11.007 48.6023 11.0522 48.5588 11.0312 48.5253C11.0101 48.4919 11.0262 48.4644 11.0668 48.4644C11.1074 48.4644 11.1407 48.4335 11.1407 48.3957C11.1407 48.2859 11.0418 48.3159 10.912 48.4652ZM11.35 48.4644C11.35 48.5022 11.3814 48.5331 11.4198 48.5331C11.4582 48.5331 11.4896 48.5022 11.4896 48.4644C11.4896 48.4267 11.4582 48.3957 11.4198 48.3957C11.3814 48.3957 11.35 48.4267 11.35 48.4644ZM9.25686 48.4908C9.25686 48.5518 9.53916 48.5836 9.57488 48.5267C9.59637 48.4925 9.53358 48.4644 9.43541 48.4644C9.33724 48.4644 9.25686 48.4763 9.25686 48.4908Z" fill="#ADE838"/>
</svg>
